<svg width="173" height="30" viewBox="0 0 173 30" fill="none" xmlns="http://www.w3.org/2000/svg">
<path d="M161.749 4.20323C161.835 6.71759 161.887 8.87981 161.905 10.6899L165.279 10.5745L165.532 8.28043C166.657 8.24198 167.758 8.48034 168.836 8.99554L169.062 15.6123L166.882 15.7862C166.325 15.0103 165.993 14.3261 165.884 13.7336L161.98 13.8671C162.042 16.9564 162.099 19.284 162.153 20.85L167.81 20.6566L168.439 17.7534C169.807 17.7066 170.846 17.7374 171.556 17.8456C171.93 19.0914 172.134 20.2327 172.17 21.2693C172.205 22.2839 172.199 23.1011 172.154 23.7209L155.745 24.2819L155.385 22.4725C156.8 21.8721 157.715 21.5206 158.131 21.4181C158.065 20.1175 157.98 18.2877 157.877 15.9284C157.608 10.6381 157.394 6.63758 157.235 3.92698L154.46 3.16068L154.655 1.13353L170.899 0.578136C170.986 1.17138 171.045 1.92015 171.076 2.82444C171.106 3.70667 170.983 4.94745 170.706 6.54678C170.03 6.79071 168.997 6.93643 167.607 6.98394L166.745 4.03243L161.749 4.20323Z" fill="white"/>
<path d="M138.977 18.0982L141.46 1.58463L150.062 1.29053C150.271 2.2329 150.382 2.90258 150.396 3.29958C149.35 3.71073 148.444 4.02875 147.679 4.25365L150.613 21.2776L152.906 21.4973C152.937 22.4016 152.716 23.3697 152.243 24.4016L144.204 24.6765L143.844 22.8671C145.062 22.3175 145.977 21.9661 146.59 21.8126L143.581 8.40156L140.708 23.173L137.333 23.2884L131.553 7.28919L129.241 22.0083L131.534 22.228C131.565 23.1323 131.344 24.1004 130.871 25.1323L122.832 25.4072L122.472 23.5978C123.69 23.0483 124.605 22.6968 125.218 22.5433L126.969 4.96174L124.193 4.19545L124.389 2.1683L133.652 1.85158L138.647 18.1095L138.977 18.0982Z" fill="white"/>
<path d="M93.5086 9.25216C93.1037 7.74238 92.8862 6.54637 92.856 5.66413C92.8258 4.7819 92.8314 3.97573 92.8727 3.24563L112.094 2.58843C112.219 3.6441 112.287 4.3594 112.3 4.73435C112.333 5.68275 112.2 6.97905 111.903 8.62324C111.27 8.82156 110.225 8.9456 108.769 8.99537L107.894 5.67993L105.082 5.77608C105.089 6.61496 105.184 12.2977 105.367 22.8244L107.759 23.0407C107.794 24.0553 107.573 25.0234 107.096 25.945L99.0571 26.2199L98.6972 24.4104C100.199 23.7849 101.148 23.4323 101.543 23.3526C101.54 23.2644 101.209 17.4682 100.551 5.96413L97.2754 6.07612L96.6584 9.3432C95.3571 9.3877 94.3072 9.35735 93.5086 9.25216Z" fill="white"/>
<path d="M86.5382 14.6247L86.1231 6.35833L83.3477 5.59204L83.5434 3.56489L92.1451 3.27079C92.1231 3.27154 92.1238 3.2936 92.1474 3.33696C92.193 3.37956 92.2405 3.4773 92.2899 3.63019C92.3606 3.76026 92.4324 3.92341 92.5054 4.11965C92.6498 4.46802 92.758 5.04948 92.83 5.86404C91.7112 6.07895 90.9761 6.21449 90.6247 6.27067L90.8458 14.6762C90.9458 18.8904 90.2794 22.0046 88.8467 24.0188C87.4361 26.0323 84.9332 27.1005 81.3381 27.2234C77.743 27.3463 75.2084 26.5166 73.7342 24.7342C72.2601 22.9519 71.4312 20.0213 71.2476 15.9425C71.0632 11.8416 70.9158 8.82146 70.8053 6.88205L68.0299 6.11576L68.2256 4.08861L76.8274 3.79451C76.8053 3.79526 76.8061 3.81732 76.8296 3.86068C76.8753 3.90328 76.9228 4.00102 76.9721 4.15391C77.0428 4.28398 77.1147 4.44713 77.1876 4.64337C77.332 4.99174 77.4402 5.5732 77.5122 6.38776C76.3934 6.60267 75.6583 6.73821 75.3069 6.79439L75.495 15.201C75.5787 17.6492 75.7706 19.3871 76.0707 20.4147C76.3701 21.4202 76.7254 22.1257 77.1368 22.5312C78.0271 23.384 79.4096 23.7784 81.2844 23.7143C83.093 23.6525 84.4431 23.0984 85.3347 22.0522C86.0567 21.2105 86.4599 19.7614 86.5441 17.7049C86.5824 16.8866 86.5804 15.8599 86.5382 14.6247Z" fill="white"/>
<path d="M57.3534 24.5326C61.0147 24.4074 62.7492 21.5327 62.5569 15.9085C62.3646 10.2842 60.4378 7.5347 56.7765 7.65988C55.1885 7.71418 53.8073 8.0043 52.6329 8.53025C51.6907 10.6823 51.2675 13.1589 51.3633 15.9599C51.4583 18.739 51.9513 20.8861 52.8422 22.4014C53.7323 23.8946 55.2361 24.605 57.3534 24.5326ZM56.6544 4.08684C60.3377 3.96091 62.9624 4.84276 64.5286 6.73239C66.094 8.59997 66.9446 11.5188 67.0803 15.4888C67.1655 17.9811 66.9185 20.1204 66.3392 21.9068C65.7599 23.6931 64.7274 25.1416 63.2418 26.2523C61.7561 27.3631 59.8333 27.9588 57.4733 28.0394C53.8782 28.1624 51.2303 27.2482 49.5296 25.2969C47.8509 23.3449 46.9459 20.45 46.8147 16.6123C46.5372 8.49577 49.8171 4.32061 56.6544 4.08684Z" fill="white"/>
<path d="M35.4846 25.3459C38.9032 25.229 40.5707 23.9465 40.487 21.4983C40.4259 19.7118 39.9684 18.6012 39.1144 18.1667C38.2818 17.7094 36.4208 17.5301 33.5315 17.6289L33.6627 25.3419C34.4141 25.3604 35.0214 25.3617 35.4846 25.3459ZM34.9275 14.8651C36.6243 14.763 37.8188 14.5013 38.511 14.0802C39.2032 13.659 39.5278 12.8199 39.4848 11.5627C39.4411 10.2835 39.004 9.44827 38.1736 9.05711C37.3432 8.66595 36.101 8.49865 34.4468 8.55521L33.2558 8.59593C33.3067 11.3765 33.3562 13.4725 33.4045 14.8841L34.9275 14.8651ZM35.4243 28.4283L27.2527 28.7077L26.8927 26.8983C28.0238 26.3959 28.9392 26.0444 29.6389 25.8439C29.6367 25.7777 29.338 19.9473 28.7428 8.35276C28.3869 8.2766 27.4618 8.02117 25.9674 7.58647L26.1631 5.55931L35.3273 5.24598C37.9519 5.15624 40.0094 5.59377 41.4998 6.55857C42.9902 7.52337 43.7682 8.96519 43.8338 10.8841C43.8655 11.8104 43.6461 12.8226 43.1758 13.9207C42.7275 15.018 42.187 15.6769 41.5541 15.8972C42.5427 16.3934 43.3289 17.1062 43.9127 18.0358C44.4965 18.9653 44.8095 20.0477 44.8518 21.2828C44.9211 23.3119 44.1502 24.9834 42.539 26.2971C40.9278 27.6108 38.5563 28.3213 35.4243 28.4283Z" fill="white"/>
<path d="M17.6347 6.18388L17.6791 6.51359C17.71 7.41787 17.593 8.19473 17.3281 8.84415C17.049 9.07451 16.6028 9.26642 15.9898 9.41987L22.0736 25.5743L25.2301 25.8639C25.261 26.7682 25.0402 27.7363 24.5676 28.7682L16.5282 29.043L16.1683 27.2336C17.0826 26.849 17.6812 26.5967 17.9641 26.4766L16.513 22.7834L9.06913 23.0379C8.47457 25.0235 8.15674 26.0612 8.11564 26.1509L10.4086 26.3706C10.4244 26.8338 10.3547 27.3772 10.1994 28.0008C10.0433 28.6023 9.89218 29.027 9.74609 29.2749L1.70674 29.5498L1.34678 27.7404C2.32496 27.2874 3.20766 26.948 3.99489 26.7224L8.97154 9.52733C7.48626 9.3573 6.36264 9.10866 5.60068 8.7814C5.57881 8.14179 5.65883 7.57597 5.84074 7.08395C6.29863 6.91373 7.37334 6.70033 9.06485 6.44376C10.7777 6.16438 12.406 5.9983 13.9499 5.94552C15.5159 5.89197 16.7441 5.97143 17.6347 6.18388ZM13.6779 15.4278L12.5692 11.0936L12.2383 11.1049L11.3358 15.7066L9.92223 19.8953L15.4472 19.7064L13.6779 15.4278Z" fill="white"/>
</svg>
