<svg width="72" height="33" viewBox="0 0 72 33" fill="none" xmlns="http://www.w3.org/2000/svg">
<path d="M70.2936 10.9716C70.275 10.8596 70.2656 10.6683 70.2656 10.3976C70.2656 10.1269 70.2936 9.87027 70.3496 9.6276C70.611 9.60894 70.8536 9.5996 71.0776 9.5996C71.311 9.5996 71.5303 9.62294 71.7356 9.6696C71.7543 9.80027 71.7636 10.0009 71.7636 10.2716C71.7636 10.5329 71.7356 10.7943 71.6796 11.0556C71.4556 11.0836 71.213 11.0976 70.9516 11.0976C70.6903 11.0976 70.471 11.0556 70.2936 10.9716ZM71.4136 8.8016C71.3576 8.81094 71.2503 8.8156 71.0916 8.8156C70.933 8.8156 70.7883 8.80627 70.6576 8.7876L70.3216 0.919602C70.6016 0.900935 70.835 0.891602 71.0216 0.891602C71.2083 0.891602 71.4043 0.914935 71.6096 0.961602L71.4136 8.8016Z" fill="#030089"/>
<path d="M66.2233 10.9716C66.2046 10.8596 66.1953 10.6683 66.1953 10.3976C66.1953 10.1269 66.2233 9.87027 66.2793 9.6276C66.5406 9.60894 66.7833 9.5996 67.0073 9.5996C67.2406 9.5996 67.46 9.62294 67.6653 9.6696C67.684 9.80027 67.6933 10.0009 67.6933 10.2716C67.6933 10.5329 67.6653 10.7943 67.6093 11.0556C67.3853 11.0836 67.1426 11.0976 66.8813 11.0976C66.62 11.0976 66.4006 11.0556 66.2233 10.9716ZM67.3433 8.8016C67.2873 8.81094 67.18 8.8156 67.0213 8.8156C66.8626 8.8156 66.718 8.80627 66.5873 8.7876L66.2513 0.919602C66.5313 0.900935 66.7646 0.891602 66.9513 0.891602C67.138 0.891602 67.334 0.914935 67.5393 0.961602L67.3433 8.8016Z" fill="#030089"/>
<path d="M59.0421 0.513672C59.3314 0.513672 59.5367 0.523005 59.6581 0.541671C59.6581 0.831005 59.5974 1.20434 59.4761 1.66167C59.4201 4.12567 59.3921 5.98767 59.3921 7.24767L61.6461 4.83967L60.5261 4.72767C60.5261 4.46634 60.6054 4.18634 60.7641 3.88767H64.3201L64.3621 4.50367C64.1474 4.58767 63.7554 4.69501 63.1861 4.82567L61.2681 6.56167L63.6341 10.0477L64.8101 10.1597C64.8101 10.421 64.7307 10.701 64.5721 10.9997H62.6541L60.4701 7.27567L59.3781 8.26967C59.3594 9.05367 59.3501 9.64634 59.3501 10.0477L60.5261 10.1597C60.5261 10.421 60.4467 10.701 60.2881 10.9997H57.0681L57.0261 10.5097C57.4554 10.3603 57.8754 10.2483 58.2861 10.1737C58.2301 6.403 58.1834 3.55167 58.1461 1.61967C57.6327 1.59167 57.2221 1.53567 56.9141 1.45167L56.9701 0.723671C57.4461 0.583672 58.1367 0.513672 59.0421 0.513672Z" fill="#030089"/>
<path d="M53.8789 11.1677C52.7589 11.1677 51.9235 10.8551 51.3729 10.2297C50.8222 9.59506 50.5469 8.69439 50.5469 7.52773C50.5469 4.98906 51.6762 3.71973 53.9349 3.71973C54.2989 3.71973 54.6769 3.77573 55.0689 3.88773C55.4609 3.99039 55.7689 4.10706 55.9929 4.23773C55.9649 5.10573 55.8762 5.72173 55.7269 6.08573C55.5589 6.13239 55.4235 6.15573 55.3209 6.15573H55.0829C55.0362 6.15573 54.9802 6.15106 54.9149 6.14173L54.5649 4.60173C54.2569 4.57373 54.0795 4.55973 54.0329 4.55973C53.3609 4.55973 52.8242 4.76506 52.4229 5.17573C52.0309 5.58639 51.8349 6.27706 51.8349 7.24773C51.8349 8.21839 51.9842 8.95573 52.2829 9.45973C52.5909 9.96373 53.1789 10.2157 54.0469 10.2157C54.4575 10.2157 55.1015 10.0197 55.9789 9.62773C56.1562 9.87039 56.2495 10.0851 56.2589 10.2717C55.7829 10.5517 55.3162 10.7711 54.8589 10.9297C54.4015 11.0884 54.0749 11.1677 53.8789 11.1677Z" fill="#030089"/>
<path d="M48.7603 2.55756C48.5176 2.61356 48.2796 2.64156 48.0463 2.64156C47.8223 2.64156 47.5983 2.62756 47.3743 2.59956C47.3183 2.33822 47.2902 2.07689 47.2902 1.81556C47.2902 1.54489 47.2996 1.34422 47.3182 1.21355C47.5236 1.16689 47.7382 1.14355 47.9622 1.14355C48.1956 1.14355 48.4429 1.15289 48.7043 1.17156C48.7603 1.41422 48.7882 1.65222 48.7882 1.88556C48.7882 2.10956 48.7789 2.33356 48.7603 2.55756ZM46.2122 4.02756C47.0056 3.88756 47.6216 3.81756 48.0603 3.81756C48.4989 3.81756 48.7789 3.82689 48.9003 3.84556C48.9003 4.06956 48.8722 4.31689 48.8162 4.58755C48.7602 4.85822 48.7276 4.98889 48.7183 4.97956L48.5922 10.0476L49.7683 10.1596C49.7683 10.4209 49.6889 10.7009 49.5303 10.9996H46.3103L46.2682 10.5096C46.6976 10.3602 47.1176 10.2482 47.5282 10.1736C47.4722 7.84022 47.4256 6.09022 47.3883 4.92356C46.8469 4.92356 46.4363 4.86756 46.1562 4.75556L46.2122 4.02756Z" fill="#030089"/>
<path d="M44.003 0.597656C44.2923 0.597656 44.4977 0.606989 44.619 0.625656C44.619 0.952323 44.5583 1.32566 44.437 1.74566C44.353 7.25232 44.311 10.0197 44.311 10.0477L45.487 10.1597C45.487 10.421 45.4077 10.701 45.249 10.9997H42.029L41.987 10.5097C42.4163 10.3603 42.8363 10.2483 43.247 10.1737L43.107 1.70366C42.5937 1.67566 42.183 1.61966 41.875 1.53566L41.931 0.807656C42.407 0.667656 43.0977 0.597656 44.003 0.597656Z" fill="#030089"/>
<path d="M38.8398 11.1677C37.7198 11.1677 36.8845 10.8551 36.3338 10.2297C35.7831 9.59506 35.5078 8.69439 35.5078 7.52773C35.5078 4.98906 36.6371 3.71973 38.8958 3.71973C39.2598 3.71973 39.6378 3.77573 40.0298 3.88773C40.4218 3.99039 40.7298 4.10706 40.9538 4.23773C40.9258 5.10573 40.8371 5.72173 40.6878 6.08573C40.5198 6.13239 40.3845 6.15573 40.2818 6.15573H40.0438C39.9971 6.15573 39.9411 6.15106 39.8758 6.14173L39.5258 4.60173C39.2178 4.57373 39.0405 4.55973 38.9938 4.55973C38.3218 4.55973 37.7851 4.76506 37.3838 5.17573C36.9918 5.58639 36.7958 6.27706 36.7958 7.24773C36.7958 8.21839 36.9451 8.95573 37.2438 9.45973C37.5518 9.96373 38.1398 10.2157 39.0078 10.2157C39.4185 10.2157 40.0625 10.0197 40.9398 9.62773C41.1171 9.87039 41.2105 10.0851 41.2198 10.2717C40.7438 10.5517 40.2771 10.7711 39.8198 10.9297C39.3625 11.0884 39.0358 11.1677 38.8398 11.1677Z" fill="#030089"/>
<path fill-rule="evenodd" clip-rule="evenodd" d="M32.0175 5.71212C32.1238 5.96702 32.0032 6.25976 31.7483 6.36597C29.2157 7.42124 26.4685 8.58264 23.9888 10.0894C21.5103 11.5953 19.3322 13.4271 17.9174 15.8031C17.5768 16.3749 17.0841 17.5612 16.7504 18.8197C16.8492 18.8202 16.9475 18.8205 17.0452 18.8205C17.104 18.8205 17.225 18.8102 17.4112 18.7944C17.479 18.7887 17.5554 18.7822 17.6405 18.7752C17.9375 18.7509 18.3053 18.7243 18.6699 18.7187C19.0281 18.7132 19.4134 18.7271 19.7356 18.7953C19.8963 18.8293 20.069 18.8823 20.2214 18.9719C20.3765 19.063 20.5438 19.2129 20.6191 19.447C20.9405 20.447 20.8873 21.4042 20.455 22.1861C20.0222 22.9689 19.2465 23.5086 18.2552 23.7433C17.702 23.8744 17.2055 23.8818 16.7765 23.7435C16.3367 23.6016 16.011 23.3201 15.7898 22.9565C15.3697 22.2662 15.3324 21.2943 15.4355 20.3609C15.4554 20.1804 15.4812 19.9968 15.512 19.8116C13.5237 19.8035 11.6184 19.8681 9.87798 20.703C5.73671 22.6894 2.01363 27.5658 1.01928 32.0073C0.95895 32.2768 0.691593 32.4463 0.422122 32.386C0.15265 32.3256 -0.0168932 32.0583 0.0434363 31.7888C1.10111 27.0645 5.01349 21.9273 9.44549 19.8013C11.4505 18.8396 13.6545 18.796 15.7204 18.8111C16.0767 17.3709 16.6463 15.9831 17.0582 15.2914C18.5877 12.723 20.9146 10.7872 23.4695 9.23476C26.0232 7.6831 28.838 6.49527 31.3637 5.44289C31.6186 5.33668 31.9113 5.45722 32.0175 5.71212ZM16.5256 19.8186C16.4856 20.0391 16.453 20.2574 16.4294 20.4707C16.331 21.3616 16.4058 22.0451 16.644 22.4367C16.7519 22.614 16.8919 22.73 17.0834 22.7917C17.2858 22.857 17.5862 22.8741 18.0247 22.7703C18.7933 22.5882 19.3071 22.1956 19.5799 21.7022C19.8453 21.2221 19.9176 20.5831 19.6881 19.8208C19.657 19.8073 19.6058 19.79 19.5285 19.7736C19.3176 19.729 19.0219 19.7134 18.6853 19.7185C18.355 19.7236 18.014 19.748 17.7223 19.7719C17.6632 19.7767 17.6039 19.7818 17.546 19.7867C17.3397 19.8043 17.1504 19.8205 17.0452 19.8205C16.8716 19.8205 16.6983 19.8197 16.5256 19.8186Z" fill="#030089"/>
</svg>
