<svg width="39" height="40" viewBox="0 0 39 40" fill="none" xmlns="http://www.w3.org/2000/svg">
<path d="M0.101562 20.5488C0.393788 20.5053 0.965352 20.2942 1.2489 20.2485C1.6407 20.1853 2.50467 20.2604 2.88019 20.1927C4.92903 19.8235 6.27705 19.8196 7.87199 19.2793C11.2617 16.8482 14.3374 16.4217 16.0473 12.9223C16.5206 11.9537 16.7286 9.73204 17.0553 8.54686C17.2573 7.81395 17.8523 7.02286 18.0048 6.19918C18.1251 5.54992 17.8518 5.13389 17.9442 4.42486C18.029 3.77331 18.509 2.83259 18.5722 2.12817C18.6146 1.65682 18.6248 1.17431 18.6581 0.678428C18.6861 0.914945 18.7357 1.13264 18.7441 1.37948C18.8215 1.98695 19.062 2.40753 19.1501 2.97661C19.2156 3.39964 19.1261 3.97963 19.1981 4.38199C19.2892 4.89051 19.3857 5.38272 19.4882 5.85907C19.6396 6.56279 20.2026 7.21829 20.3817 7.85433C20.5218 8.35154 20.2723 8.84215 20.4312 9.29964C20.6523 9.93659 21.2385 11.015 21.5 11.5783C22.7509 14.2739 23.9706 16.1243 26.603 16.9374C28.0097 17.662 29.082 18.4097 31.007 18.7777C31.9126 18.9508 33.4508 18.841 34.4856 18.9482C35.081 19.0098 35.6994 19.0878 36.34 19.1299C36.6826 19.1523 37.0971 19.1483 37.3879 19.1893C37.5791 19.1985 37.6671 19.1653 37.8623 19.1731C38.0475 19.1805 38.3397 19.2289 38.5285 19.235C38.1953 19.2953 38.2628 19.387 37.7617 19.4855C37.6146 19.5144 37.254 19.4782 37.1093 19.5078C36.9156 19.5473 36.6488 19.4893 36.4595 19.53C36.2035 19.585 35.9196 19.7187 35.6715 19.7758C33.9526 20.1717 33.3236 20.8392 31.9631 21.3496C31.2351 21.6227 30.3156 21.9849 29.6802 22.2959C28.9962 22.6307 27.9824 22.8592 27.3974 23.2421C26.3691 23.9152 25.3157 24.5247 24.5566 25.3651C23.6759 26.3402 22.6698 27.3979 22.0831 28.6331C21.7538 29.3262 21.7558 30.1011 21.5011 30.8853C21.2472 31.6668 20.7193 33.0169 20.5266 33.8955C20.3882 34.5263 20.5717 34.6612 20.4592 35.3448C20.3291 36.1353 20.2147 36.9619 20.1123 37.8265C20.0629 38.2439 20.0162 38.6701 19.972 39.1054C19.9235 38.8623 19.8744 38.6222 19.8247 38.3852C19.691 37.7479 19.6039 37.1308 19.4593 36.5366C19.212 35.5204 19.072 34.562 18.7823 33.6657C18.5893 33.0687 18.209 32.5033 17.9922 31.9563C17.4914 30.693 17.2341 29.2601 16.5711 28.2427C15.9631 27.3097 14.9641 26.7738 14.18 26.0232C12.8077 24.7097 11.228 23.8501 9.15673 22.9976C8.45181 22.7074 7.60911 22.2481 6.80747 22.0017C6.1246 21.7918 5.40519 21.5969 4.64675 21.4154C4.28408 21.3286 3.89429 21.4411 3.59534 21.1619C3.3298 21.1056 2.99284 20.9561 2.71827 20.9025C2.33875 20.8285 1.9592 21.011 1.56201 20.942C1.08979 20.86 0.599522 20.6242 0.101562 20.5488Z" fill="white"/>
</svg>
