<svg width="385" height="400" viewBox="0 0 385 400" fill="none" xmlns="http://www.w3.org/2000/svg">
<path fill-rule="evenodd" clip-rule="evenodd" d="M0 69.3333C0 50.945 7.03081 33.3098 19.5457 20.3073C32.0607 7.30474 49.0346 0 66.7333 0H318.267C335.965 0 352.939 7.30474 365.454 20.3073C377.969 33.3098 385 50.945 385 69.3333V330.667C385 349.055 377.969 366.69 365.454 379.693C352.939 392.695 335.965 400 318.267 400H66.7333C49.0346 400 32.0607 392.695 19.5457 379.693C7.03081 366.69 0 349.055 0 330.667V69.3333ZM66.7333 26.6667C55.8418 26.6667 45.3963 31.1619 37.6948 39.1634C29.9933 47.165 25.6667 58.0174 25.6667 69.3333V330.667C25.6667 341.983 29.9933 352.835 37.6948 360.837C45.3963 368.838 55.8418 373.333 66.7333 373.333H318.267C329.158 373.333 339.604 368.838 347.305 360.837C355.007 352.835 359.333 341.983 359.333 330.667V69.3333C359.333 58.0174 355.007 47.165 347.305 39.1634C339.604 31.1619 329.158 26.6667 318.267 26.6667H66.7333ZM268.61 140.836C273.148 140.836 277.501 138.963 280.71 135.629C283.919 132.295 285.721 127.773 285.721 123.058C285.721 118.343 283.919 113.821 280.71 110.487C277.501 107.153 273.148 105.28 268.61 105.28C264.072 105.28 259.72 107.153 256.511 110.487C253.302 113.821 251.499 118.343 251.499 123.058C251.499 127.773 253.302 132.295 256.511 135.629C259.72 138.963 264.072 140.836 268.61 140.836ZM285.721 288.391V159.982H251.499V288.391H285.721ZM125.253 126.116L70.6004 288.391H105.199L118.46 247.733H177.63L191.867 288.391H229.374L168.887 114.364H125.253V126.116ZM167.928 213.138H127.837L147.891 145.28L167.928 213.138Z" fill="black"/>
</svg>
