<svg width="382" height="395" viewBox="0 0 382 395" fill="none" xmlns="http://www.w3.org/2000/svg">
<path d="M249.238 246.813C249.238 284.206 215.37 283.342 211.788 283.342H142.815V211.316H211.788C248.078 211.316 249.238 239.442 249.238 246.813ZM206.476 182.335C207.047 182.335 239.253 183.217 239.253 150.32C239.253 136.636 236.26 118.694 206.476 118.694H142.815V182.335H206.476ZM382 65.8363V329.164C381.951 346.609 375.227 363.325 363.297 375.66C351.367 387.996 335.201 394.949 318.33 395H63.6695C46.7985 394.949 30.6327 387.996 18.703 375.66C6.7734 363.325 0.0494885 346.609 0 329.164L0 65.8363C0.0494885 48.3911 6.7734 31.6751 18.703 19.3395C30.6327 7.00391 46.7985 0.0511727 63.6695 0H318.33C335.201 0.0511727 351.367 7.00391 363.297 19.3395C375.227 31.6751 381.951 48.3911 382 65.8363ZM288.248 252.042C288.248 233.024 282.578 200.648 246.424 192.659V192.016C265.959 183.393 278.263 167.108 278.263 142.958C278.263 136.786 279.968 85.842 212.095 85.842H103.805V316.256C213.144 316.256 223.069 317.737 243.303 311.221C255.42 307.324 288.248 295.368 288.248 252.042Z" fill="black"/>
</svg>
