<svg width="15" height="15" viewBox="0 0 15 15" fill="none" xmlns="http://www.w3.org/2000/svg">
<circle cx="7.5" cy="7.5" r="7.5" fill="#00025C"/>
<path fill-rule="evenodd" clip-rule="evenodd" d="M4.47562 4.3525C4.62716 4.20097 4.87284 4.20097 5.02438 4.3525L11.0607 10.3888C11.2122 10.5403 11.2122 10.786 11.0607 10.9375C10.9091 11.0891 10.6634 11.0891 10.5119 10.9375L4.47562 4.90125C4.32409 4.74972 4.32409 4.50404 4.47562 4.3525Z" fill="white"/>
<path fill-rule="evenodd" clip-rule="evenodd" d="M10.8819 4.51078C11.0334 4.66231 11.0334 4.908 10.8819 5.05953L4.84559 11.0958C4.69406 11.2473 4.44837 11.2473 4.29684 11.0958C4.14531 10.9443 4.14531 10.6986 4.29684 10.5471L10.3331 4.51078C10.4847 4.35925 10.7303 4.35925 10.8819 4.51078Z" fill="white"/>
</svg>
