<svg width="55" height="55" viewBox="0 0 55 55" fill="none" xmlns="http://www.w3.org/2000/svg">
<g clip-path="url(#clip0_782_1246)">
<path d="M38.0127 80.8991L37.9918 80.9969C37.7635 80.9481 37.5915 80.8531 37.4655 80.7072C37.3411 80.5631 37.269 80.3781 37.2235 80.1625C37.0721 79.4454 36.9098 78.7279 36.7473 78.0096C36.5186 76.999 36.2896 75.9868 36.0902 74.9721C35.7965 73.478 35.5325 71.9774 35.2688 70.4779C35.1516 69.8115 35.0344 69.1453 34.9146 68.4801C34.9025 68.4127 34.8871 68.3475 34.8659 68.2581C34.8595 68.231 34.8526 68.2016 34.845 68.1693C30.44 69.1507 26.0446 69.1274 21.557 68.1785C21.5397 68.2386 21.5222 68.2974 21.505 68.3552C21.4519 68.533 21.4014 68.7023 21.3674 68.878L21.3674 68.8781C21.2421 69.524 21.1165 70.1698 20.9909 70.8156C20.4566 73.5627 19.9224 76.3094 19.4161 79.0611L19.3178 79.043L19.4161 79.0611C19.3926 79.1886 19.3656 79.3132 19.3389 79.4368C19.2889 79.6679 19.2397 79.8949 19.2159 80.1288C19.1802 80.4801 19.2055 80.8269 19.3787 81.1744L19.3788 81.1746C19.4084 81.2342 19.3957 81.3021 19.3822 81.3478C19.3668 81.3997 19.3405 81.4548 19.3098 81.5067C19.2496 81.6085 19.1607 81.7173 19.0731 81.7766C17.8899 82.5773 16.5817 82.8726 15.1672 82.6165L15.1851 82.5181L15.1672 82.6165C14.9615 82.5793 14.7524 82.4899 14.581 82.3733L14.6372 82.2906L14.581 82.3733C14.2692 82.1612 14.0999 81.8685 14.1071 81.5735C14.1143 81.276 14.3002 81.0042 14.64 80.8364C15.0521 80.6328 15.5345 80.5247 15.9898 80.4919M38.0127 80.8991L15.997 80.5916M38.0127 80.8991L37.9918 80.9969C39.2152 81.2583 40.4509 81.3303 41.6908 81.1695C42.4746 81.0679 42.9795 80.6333 42.9818 80.0611C42.9845 79.4523 42.4105 78.9674 41.5933 78.9703C40.934 78.9725 40.273 79.0775 39.6255 79.1804C39.5421 79.1937 39.4589 79.2069 39.376 79.2199M38.0127 80.8991C39.2262 81.1584 40.4505 81.2295 41.678 81.0703C42.4377 80.9719 42.8798 80.5607 42.8818 80.0607C42.8842 79.5265 42.3766 79.0675 41.5936 79.0703C40.9426 79.0724 40.2897 79.1762 39.6413 79.2792C39.5579 79.2924 39.4746 79.3057 39.3914 79.3187M15.9898 80.4919L15.997 80.5916M15.9898 80.4919C15.9897 80.4919 15.9897 80.4919 15.9897 80.4919L15.997 80.5916M15.9898 80.4919C16.5117 80.4538 17.0396 80.4622 17.5515 80.4704C17.7345 80.4734 17.9156 80.4763 18.0935 80.477M15.997 80.5916C16.5143 80.5539 17.0349 80.5622 17.545 80.5704C17.7575 80.5738 17.9681 80.5772 18.1759 80.5772M18.0935 80.477L18.0777 80.558L18.1759 80.5772M18.0935 80.477L20.538 67.9511M18.0935 80.477C18.1211 80.4771 18.1485 80.4772 18.1759 80.4772V80.5772M18.1759 80.5772L20.538 67.9511M20.538 67.9511C20.4786 67.9301 20.4183 67.909 20.3572 67.8878C20.1608 67.8193 19.9578 67.7485 19.761 67.6678C19.4882 67.5562 19.2132 67.4469 18.9375 67.3374C18.178 67.0357 17.4141 66.7322 16.6801 66.3724C16.1119 66.0941 15.5937 65.7051 15.0901 65.3269C15.0223 65.276 14.9547 65.2253 14.8873 65.1751C14.4397 64.8415 14.1105 64.4612 13.895 64.0123C13.6797 63.5637 13.5805 63.0522 13.5846 62.4599C13.6084 59.0194 14.1167 55.6667 15.0936 52.3792C15.59 50.7091 16.095 49.0381 16.6612 47.3888C16.9356 46.5892 17.2624 45.8054 17.5978 45.0012C17.7425 44.6545 17.8887 44.3039 18.0329 43.9466C17.8615 43.7047 17.6892 43.456 17.5144 43.2037C17.1063 42.6146 16.6849 42.0064 16.2303 41.4214C13.2466 37.5837 10.7181 33.4482 8.19204 29.3165L8.07788 29.1298L8.07787 29.1298C7.82415 28.7146 7.46747 28.3337 7.08539 28.0212L7.08538 28.0212C6.34003 27.4113 5.80643 26.6717 5.48652 25.7718L5.48652 25.7718C5.40838 25.552 5.35399 25.3154 5.33594 25.0812L5.33593 25.0811C5.28752 24.4446 5.52409 23.9675 6.00327 23.77L6.00331 23.77C6.2398 23.6727 6.53223 23.6707 6.80219 23.7521C7.07299 23.8339 7.33101 24.0026 7.49324 24.2588L7.49326 24.2588C7.81539 24.7677 8.05537 25.3332 8.27279 25.8884C8.3992 26.2106 8.48478 26.5856 8.4644 26.9371L8.36457 26.9313M20.538 67.9511L49.5785 24.0265M8.36457 26.9313L8.46441 26.937C8.41762 27.7589 8.8148 28.4039 9.23374 29.0842L9.23872 29.0923L9.23872 29.0923L9.23956 29.0937C11.698 33.0852 14.1531 37.0713 16.9926 40.8031L16.913 40.8637L16.9926 40.8031C17.3799 41.3122 17.7413 41.8432 18.1167 42.3947C18.2648 42.6124 18.4151 42.8332 18.5701 43.0572C18.7174 42.8092 18.8623 42.5653 19.0056 42.3242C19.4751 41.5341 19.927 40.7736 20.3894 39.9953C20.3589 39.9726 20.3285 39.9499 20.2981 39.9271C20.1774 39.8368 20.057 39.7467 19.9306 39.6622C13.5211 35.3804 12.2917 26.9258 17.2897 21.0229L17.366 21.0875L17.2897 21.0229C20.5406 17.1834 24.7781 15.366 29.7754 15.8496L29.7658 15.9491L29.7754 15.8496C35.0429 16.3596 39.0701 18.9773 40.9826 24.0653C42.8566 29.0506 41.5797 33.5263 38.0533 37.394L37.9794 37.3266L38.0532 37.394C37.671 37.8132 37.2392 38.1925 36.8115 38.5681C36.6347 38.7234 36.4586 38.8781 36.287 39.0347C36.6221 39.6928 36.9565 40.3493 37.292 41.0081C37.6985 41.8063 38.1067 42.6078 38.52 43.4194C38.5248 43.4127 38.5296 43.4061 38.5344 43.3996C38.6038 43.3039 38.6645 43.2203 38.7147 43.1265C39.1578 42.2978 39.6013 41.4695 40.0449 40.6412C41.5029 37.9185 42.9607 35.1962 44.3982 32.4632C44.7373 31.8188 45.0349 31.1595 45.3341 30.4968C45.5393 30.0424 45.7451 29.5863 45.9656 29.1324C46.328 28.3858 46.4864 27.6072 46.5102 26.7757C46.5388 25.7731 46.7943 24.8151 47.3893 23.9797L47.4707 24.0377L47.3893 23.9797C47.5714 23.7242 47.8028 23.4646 48.077 23.2955C48.7212 22.898 49.5913 23.2464 49.6779 24.0153M8.36457 26.9313C8.31599 27.7847 8.72781 28.4534 9.14195 29.1259L9.15357 29.1448L7.40876 24.3123C7.72549 24.8127 7.96263 25.3706 8.17967 25.9248C8.30267 26.2384 8.38386 26.5985 8.36457 26.9313ZM49.6779 24.0153L49.5785 24.0265M49.6779 24.0153C49.6779 24.0153 49.6778 24.0153 49.6778 24.0152L49.5785 24.0265M49.6779 24.0153C49.7315 24.4897 49.6576 25.0374 49.4557 25.4711L49.4557 25.4711C49.1889 26.0433 48.7856 26.5618 48.3833 27.0403L48.3833 27.0403C47.8133 27.7176 47.3627 28.4508 46.9992 29.2601L46.908 29.2191M49.5785 24.0265C49.6303 24.4847 49.5584 25.0136 49.3651 25.4288C49.1042 25.9883 48.7083 26.4984 48.3068 26.9759C47.7304 27.6608 47.275 28.402 46.908 29.2191M46.908 29.2191L46.9992 29.2601C45.3822 32.8584 43.689 36.4226 41.6646 39.822C41.227 40.5569 40.8095 41.304 40.3926 42.0532C40.3658 42.1012 40.3391 42.1492 40.3124 42.1973C39.9223 42.8982 39.5317 43.6003 39.1251 44.2934C38.9421 44.6055 39.0056 44.8447 39.0976 45.1836L39.0976 45.1837C39.2766 45.8441 39.4629 46.504 39.6495 47.1646C40.131 48.8696 40.6137 50.5789 40.974 52.3118C41.7373 55.9816 41.852 59.7026 41.4386 63.4339L41.3392 63.4228M46.908 29.2191C45.2914 32.8165 43.6001 36.3764 41.5787 39.7708C41.1122 40.5542 40.6687 41.3512 40.2252 42.1482C39.8351 42.8494 39.4448 43.5507 39.0389 44.2428C38.8336 44.5929 38.9088 44.8697 38.9998 45.2052L39.0011 45.2098C39.1807 45.8725 39.3674 46.5337 39.5541 47.195C40.0353 48.8988 40.5165 50.603 40.8761 52.3322C41.637 55.9906 41.7515 59.7009 41.3392 63.4228M41.3392 63.4228L41.4385 63.4339C41.3634 64.1108 41.1009 64.6786 40.6394 65.1676C39.7252 66.1364 38.6033 66.7822 37.4012 67.288L37.4011 67.288C37.0493 67.4357 36.6912 67.5716 36.3149 67.7144C36.1522 67.7761 35.9861 67.8392 35.8155 67.905M41.3392 63.4228L35.8155 67.905M35.8155 67.905C36.1228 70.5037 36.6773 73.0141 37.2354 75.541C37.5277 76.8646 37.8211 78.1928 38.0804 79.5405C38.2083 79.5069 38.3315 79.4727 38.4514 79.4395C38.7753 79.3497 39.0746 79.2668 39.376 79.2199M35.8155 67.905L39.3914 79.3187M39.376 79.2199L39.3914 79.3187M39.376 79.2199C39.376 79.2199 39.3759 79.2199 39.3759 79.2199L39.3914 79.3187M38.0023 79.664C38.035 79.6556 38.0673 79.6473 38.0993 79.6389L37.9834 79.5656C37.9897 79.5984 37.996 79.6311 38.0023 79.664ZM34.6375 40.0217L34.6375 40.0217C34.8037 39.9324 34.969 39.8405 35.166 39.731C35.2424 39.6885 35.3235 39.6434 35.4113 39.5948C35.4709 39.6921 35.5282 39.7847 35.5836 39.8742C35.7218 40.0975 35.8481 40.3016 35.9674 40.5113C37.4053 43.0573 38.2797 45.818 39.0781 48.6259C40.1698 52.4648 40.7369 56.3657 40.6527 60.3527C40.642 60.8611 40.5972 61.3694 40.5477 61.8809C40.5406 61.9551 40.5333 62.0294 40.526 62.1037C40.4832 62.5408 40.4401 62.9805 40.4157 63.4209C40.3926 63.8342 40.2327 64.1592 39.946 64.3951L40.0095 64.4723L39.946 64.3951C39.8491 64.4749 39.7526 64.5551 39.6562 64.6353C39.1164 65.0845 38.5804 65.5305 37.9867 65.8707C36.3713 66.7957 34.5771 67.2498 32.7427 67.538L32.7582 67.6368L32.7427 67.538C28.3124 68.2343 23.9453 67.9633 19.6716 66.5686C18.0681 66.0456 16.5726 65.32 15.2911 64.1985C15.0567 63.9934 14.8947 63.7823 14.7887 63.546C14.6826 63.3094 14.6302 63.042 14.6226 62.7211C14.5317 58.8591 15.2665 55.1349 16.4223 51.4692C16.4833 51.2758 16.5456 51.0823 16.6079 50.8884C16.7817 50.3479 16.9563 49.805 17.1071 49.2565C17.8753 46.4613 19.1952 43.9144 20.6486 41.4185C20.7205 41.2951 20.7921 41.1737 20.8686 41.0566C20.9742 40.895 21.053 40.7785 21.1231 40.6961C21.1928 40.6143 21.246 40.576 21.297 40.5593C21.3474 40.5429 21.4105 40.5428 21.5103 40.5692C21.6114 40.596 21.7381 40.6464 21.912 40.7198C23.2466 41.2837 24.6305 41.6322 26.0732 41.7827C29.1196 42.1009 31.9599 41.4588 34.6375 40.0217ZM37.0601 20.0242L37.1273 19.95L37.0601 20.0242C39.5202 22.2508 40.7478 25.0576 40.7858 28.5684C40.6788 32.3948 38.9948 35.6297 35.82 38.0103L35.88 38.0903L35.82 38.0103C31.8856 40.9612 27.5105 41.7009 22.8653 39.9917C15.348 37.2254 12.8466 28.3438 17.786 22.0261L17.7072 21.9645L17.786 22.0261C20.45 18.6184 24.021 16.9508 28.3342 16.8417C31.6599 16.7579 34.5945 17.7921 37.0601 20.0242ZM6.27965 24.7527C6.98505 25.0962 7.37498 25.9152 7.36591 26.9825C6.74873 26.3574 6.38365 25.6799 6.27965 24.7527ZM48.6082 24.1335C48.7218 24.9454 48.3055 25.7718 47.4971 26.3999C47.6624 25.5339 47.8771 24.7569 48.6082 24.1335ZM41.5948 80.0536C41.0172 80.3151 40.4131 80.2621 39.7809 80.1681C40.3628 79.9474 40.969 79.9411 41.5948 80.0536ZM17.2088 81.4665C16.698 81.6973 16.1554 81.7052 15.5892 81.6039C16.1079 81.3857 16.6489 81.3714 17.2088 81.4665Z" fill="white" stroke="white" stroke-width="0.2"/>
<path d="M28.5189 33.9267L28.5167 33.9267C26.7717 33.9136 25.4889 33.3012 24.4505 32.1816L24.5238 32.1136L24.4505 32.1816C23.4519 31.1051 22.9052 29.8104 22.6941 28.3741L22.6941 28.374C22.665 28.1754 22.6489 27.9517 22.6923 27.7442L28.5189 33.9267ZM28.5189 33.9267C29.1775 33.9168 29.9899 33.7168 30.7486 33.3166M28.5189 33.9267L30.7486 33.3166M34.102 27.7803C34.3965 27.9902 34.2894 28.2891 34.1932 28.5572C34.1826 28.5869 34.1721 28.6162 34.1623 28.6449C34.1336 28.7287 34.1052 28.8128 34.0768 28.8969C33.9227 29.354 33.7678 29.8132 33.5553 30.2426C32.9191 31.5296 31.9862 32.5513 30.702 33.2282L34.102 27.7803ZM34.102 27.7803C33.8092 27.5717 33.5914 27.7649 33.3836 27.9491C33.3512 27.9779 33.319 28.0064 33.2868 28.0332C33.2618 28.054 33.2371 28.0751 33.2123 28.0963C33.1718 28.1308 33.1313 28.1653 33.0899 28.1987L34.102 27.7803ZM30.7486 33.3166C32.0533 32.629 33.0003 31.5908 33.645 30.287C33.8607 29.851 34.018 29.3844 34.1721 28.9275C34.2003 28.8437 34.2285 28.7602 34.2569 28.6773L34.2569 28.6772C34.2655 28.6519 34.2752 28.625 34.2853 28.5969C34.3284 28.4771 34.3792 28.3358 34.3913 28.2007C34.3991 28.1139 34.3921 28.0231 34.3557 27.935C34.319 27.8462 34.2552 27.7667 34.16 27.6989C34.0625 27.6294 33.9658 27.5943 33.8695 27.5903C33.7738 27.5863 33.6874 27.6134 33.6107 27.6533C33.5349 27.6928 33.4654 27.7466 33.4025 27.7999C33.3735 27.8245 33.3448 27.8499 33.3174 27.8742L33.3101 27.8807C33.28 27.9073 33.2513 27.9326 33.2229 27.9563L33.2227 27.9564C33.196 27.9787 33.1706 28.0004 33.1457 28.0216C33.1062 28.0553 33.0678 28.088 33.0271 28.1209C30.2333 30.3717 26.5568 30.2013 23.9739 27.7012L23.9044 27.7731M30.7486 33.3166L23.5246 27.4335C23.6326 27.493 23.7226 27.5865 23.812 27.6793C23.8427 27.7111 23.8732 27.7428 23.9044 27.7731M23.9044 27.7731L23.974 27.7013C23.9449 27.6731 23.9161 27.6432 23.8859 27.6119L23.8836 27.6095C23.8546 27.5793 23.8242 27.5478 23.7929 27.5173C23.729 27.4548 23.657 27.3923 23.5728 27.3459L23.5728 27.3459M23.9044 27.7731L23.5728 27.3459M23.5728 27.3459C23.2135 27.1481 22.7769 27.3391 22.6923 27.7442L23.5728 27.3459ZM23.8855 29.0473C23.9212 29.0728 23.9569 29.098 23.9926 29.1229L23.8855 29.0473ZM23.8855 29.0473C23.8824 29.0047 23.8803 28.962 23.8791 28.9194L23.8855 29.0473ZM22.793 28.3595L22.793 28.3595L22.793 28.3595Z" fill="white" stroke="white" stroke-width="0.2"/>
<path d="M33.8581 24.4954L33.8581 24.4955C33.8431 25.1287 33.3516 25.6927 32.773 25.6763L32.7729 25.6763C32.1982 25.6594 31.7884 25.1339 31.8069 24.5079L33.8581 24.4954ZM33.8581 24.4954C33.8714 23.9261 33.3843 23.394 32.8208 23.3695L33.8581 24.4954ZM32.117 23.7006C32.2987 23.4926 32.5493 23.3576 32.8208 23.3695L32.117 23.7006ZM32.117 23.7006C31.935 23.909 31.816 24.1967 31.8069 24.5078L32.117 23.7006Z" fill="white" stroke="white" stroke-width="0.2"/>
<path d="M25.3692 24.454L25.3692 24.454C25.384 25.0696 24.9543 25.5566 24.3572 25.5781L24.3572 25.5781C24.0897 25.5876 23.8567 25.478 23.6891 25.284C23.5228 25.0915 23.4237 24.82 23.4092 24.5052L25.3692 24.454ZM25.3692 24.454C25.3538 23.8245 24.9205 23.2977 24.36 23.3227L24.3599 23.3227M25.3692 24.454L24.3599 23.3227M24.3536 25.4781C24.8914 25.4588 25.2829 25.0219 25.2692 24.4564L24.3536 25.4781ZM24.3536 25.4781C23.8821 25.495 23.5364 25.0951 23.5091 24.5006L24.3536 25.4781ZM24.3599 23.3227C23.7946 23.3483 23.3808 23.8918 23.4092 24.5052L24.3599 23.3227Z" fill="white" stroke="white" stroke-width="0.2"/>
<path d="M33.0747 2.88407C32.7815 2.6038 32.4333 2.38146 32.0502 2.22977C31.667 2.07808 31.2563 2 30.8415 2C30.4268 2 30.0161 2.07808 29.6329 2.22977C29.2497 2.38146 28.9016 2.6038 28.6084 2.88407L27.9998 3.46547L27.3913 2.88407C26.7991 2.3182 25.9958 2.00029 25.1582 2.00029C24.3206 2.00029 23.5173 2.3182 22.925 2.88407C22.3327 3.44995 22 4.21744 22 5.0177C22 5.81797 22.3327 6.58546 22.925 7.15134L23.5335 7.73274L27.9998 12L32.4662 7.73274L33.0747 7.15134C33.368 6.87119 33.6007 6.53857 33.7595 6.17247C33.9183 5.80638 34 5.41398 34 5.0177C34 4.62143 33.9183 4.22903 33.7595 3.86293C33.6007 3.49684 33.368 3.16422 33.0747 2.88407Z" stroke="white" stroke-width="1.2" stroke-linecap="round" stroke-linejoin="round"/>
</g>
<defs>
<clipPath id="clip0_782_1246">
<rect width="55" height="55" fill="white"/>
</clipPath>
</defs>
</svg>
