<svg width="86" height="86" viewBox="0 0 86 86" fill="none" xmlns="http://www.w3.org/2000/svg">
<g filter="url(#filter0_d_1135_628)">
<path fill-rule="evenodd" clip-rule="evenodd" d="M22.4432 20.9064C23.4195 19.9301 25.0024 19.9301 25.9787 20.9064L64.8696 59.7973C65.8459 60.7736 65.8459 62.3565 64.8696 63.3328C63.8933 64.3092 62.3104 64.3092 61.334 63.3328L22.4432 24.442C21.4669 23.4657 21.4669 21.8827 22.4432 20.9064Z" fill="white"/>
<path fill-rule="evenodd" clip-rule="evenodd" d="M64.8729 22.4451C65.8492 23.4214 65.8492 25.0043 64.8729 25.9807L25.982 64.8715C25.0057 65.8478 23.4228 65.8478 22.4464 64.8715C21.4701 63.8952 21.4701 62.3123 22.4464 61.336L61.3373 22.4451C62.3136 21.4688 63.8965 21.4688 64.8729 22.4451Z" fill="white"/>
</g>
<defs>
<filter id="filter0_d_1135_628" x="17.7109" y="20.1738" width="51.8906" height="53.4297" filterUnits="userSpaceOnUse" color-interpolation-filters="sRGB">
<feFlood flood-opacity="0" result="BackgroundImageFix"/>
<feColorMatrix in="SourceAlpha" type="matrix" values="0 0 0 0 0 0 0 0 0 0 0 0 0 0 0 0 0 0 127 0" result="hardAlpha"/>
<feOffset dy="4"/>
<feGaussianBlur stdDeviation="2"/>
<feComposite in2="hardAlpha" operator="out"/>
<feColorMatrix type="matrix" values="0 0 0 0 0 0 0 0 0 0 0 0 0 0 0 0 0 0 0.25 0"/>
<feBlend mode="normal" in2="BackgroundImageFix" result="effect1_dropShadow_1135_628"/>
<feBlend mode="normal" in="SourceGraphic" in2="effect1_dropShadow_1135_628" result="shape"/>
</filter>
</defs>
</svg>
