<svg width="15" height="67" viewBox="0 0 15 67" fill="none" xmlns="http://www.w3.org/2000/svg">
<path d="M6.92287 48.6562C6.57072 48.6562 6.25058 48.3841 5.96245 47.8399C5.70633 47.2956 5.48224 46.5753 5.29015 45.6789C5.09807 44.7505 4.93799 43.71 4.80994 42.5575C4.68188 41.373 4.55382 40.1725 4.42577 38.9559C4.32973 37.7394 4.23368 36.5389 4.13764 35.3543C4.07361 34.1698 3.99358 33.1133 3.89753 32.1849C3.76948 30.9364 3.64142 29.7839 3.51336 28.7274C3.41732 27.6709 3.30527 26.6465 3.17722 25.6541C3.04916 24.6296 2.90509 23.6051 2.74502 22.5807C2.61697 21.5242 2.4569 20.4037 2.26481 19.2192C1.81661 16.594 1.32039 14.0329 0.776153 11.5358C0.263926 9.0387 0.0078125 6.50958 0.0078125 3.94844C0.0078125 3.34017 0.167883 2.81194 0.488025 2.36374C0.808167 1.88353 1.20834 1.49936 1.68856 1.21123C2.16877 0.89109 2.697 0.666991 3.27326 0.538934C3.84951 0.378864 4.39375 0.298828 4.90598 0.298828C5.48224 0.298828 6.0905 0.362856 6.73079 0.490913C7.40309 0.61897 7.99535 0.843069 8.50757 1.16321C9.05182 1.45134 9.50001 1.83551 9.85217 2.31572C10.2043 2.79593 10.3804 3.3882 10.3804 4.09251C10.3804 7.03781 10.2684 9.96711 10.0443 12.8804C9.85217 15.7937 9.61206 18.707 9.32394 21.6203C9.06782 24.5015 8.82772 27.3988 8.60362 30.3121C8.41153 33.1934 8.31549 36.0907 8.31549 39.004L8.5556 44.3823C8.61962 44.5424 8.66765 44.8786 8.69966 45.3908C8.73167 45.903 8.74768 46.3832 8.74768 46.8314C8.74768 47.2796 8.52358 47.6958 8.07538 48.08C7.6592 48.4641 7.27503 48.6562 6.92287 48.6562Z" fill="#030089"/>
<path d="M3.98756 60.7026C3.89152 61.0228 3.82749 61.2309 3.79547 61.3269C3.6354 62.1273 3.68342 62.8796 3.93954 63.5839C4.22766 64.2562 4.62784 64.8485 5.14007 65.3607C5.68431 65.8409 6.30859 66.2251 7.0129 66.5132C7.71721 66.8013 8.45354 66.9454 9.22188 66.9454C9.99022 66.9454 10.6785 66.7853 11.2868 66.4652C11.9271 66.113 12.4713 65.6648 12.9195 65.1206C13.3997 64.5764 13.7519 63.9681 13.976 63.2958C14.2321 62.5915 14.3601 61.9032 14.3601 61.2309C14.3601 60.6226 14.2001 60.0143 13.8799 59.4061C13.5918 58.7978 13.2076 58.2536 12.7274 57.7733C12.2472 57.2931 11.703 56.909 11.0947 56.6208C10.4864 56.3007 9.86216 56.1406 9.22188 56.1406C8.54958 56.1406 7.82926 56.2367 7.06092 56.4288C6.29258 56.5888 5.73233 57.021 5.38017 57.7253C5.25212 57.9174 5.10805 58.1895 4.94798 58.5417C4.78791 58.8938 4.61183 59.262 4.41975 59.6462C4.25968 60.0303 4.11562 60.3825 3.98756 60.7026Z" fill="#030089"/>
</svg>
