<svg width="257" height="400" viewBox="0 0 257 400" fill="none" xmlns="http://www.w3.org/2000/svg">
<path d="M192.759 133.359C209.797 133.359 226.137 126.334 238.184 113.829C250.232 101.324 257 84.3642 257 66.6797C257 48.9951 250.232 32.0349 238.184 19.53C226.137 7.02516 209.797 0 192.759 0L64.2782 0C47.2506 0 30.9203 7.02105 18.8799 19.5186C6.8395 32.0161 0.0752847 48.9664 0.0752847 66.6406C0.0752847 84.3148 6.8395 101.265 18.8799 113.763C30.9203 126.26 47.2506 133.281 64.2782 133.281C47.2406 133.281 30.9007 140.306 18.8533 152.811C6.80584 165.316 0.0376517 182.276 0.0376517 199.961C0.0376517 217.645 6.80584 234.606 18.8533 247.111C30.9007 259.615 47.2406 266.641 64.2782 266.641C51.5727 266.633 39.1502 270.536 28.5817 277.856C18.0133 285.177 9.77355 295.586 4.90446 307.767C0.0353702 319.948 -1.24437 333.354 1.22706 346.291C3.6985 359.227 9.81011 371.112 18.7891 380.442C27.768 389.773 39.211 396.131 51.671 398.711C64.131 401.292 77.0484 399.979 88.7896 394.939C100.531 389.9 110.569 381.359 117.634 370.398C124.699 359.437 128.474 346.547 128.481 333.359V133.359H192.759ZM192.759 133.359C180.061 133.359 167.648 137.268 157.09 144.59C146.532 151.913 138.303 162.321 133.444 174.498C128.584 186.675 127.313 200.074 129.79 213.001C132.267 225.928 138.382 237.802 147.361 247.122C156.34 256.442 167.78 262.789 180.234 265.36C192.688 267.931 205.597 266.612 217.329 261.568C229.06 256.524 239.087 247.983 246.142 237.024C253.197 226.065 256.962 213.18 256.962 200C256.96 182.326 250.196 165.377 238.156 152.88C226.116 140.383 209.786 133.361 192.759 133.359Z" fill="url(#paint0_linear_1016_550)"/>
<defs>
<linearGradient id="paint0_linear_1016_550" x1="128.5" y1="0" x2="128.5" y2="400" gradientUnits="userSpaceOnUse">
<stop stop-color="#FF4D12"/>
<stop offset="0.22" stop-color="#FF7361"/>
<stop offset="0.44" stop-color="#B659FF"/>
<stop offset="0.695" stop-color="#00BCFF"/>
<stop offset="1" stop-color="#00CF7F"/>
</linearGradient>
</defs>
</svg>
