<svg width="383" height="398" viewBox="0 0 383 398" fill="none" xmlns="http://www.w3.org/2000/svg">
<path d="M375.775 181.277L208.598 7.50408C203.97 2.69907 197.696 0 191.154 0C184.612 0 178.337 2.69907 173.709 7.50408L138.949 43.6001L182.994 89.3709C206.127 81.2508 228.03 104.269 220.088 128.177L262.543 172.295C291.806 161.812 314.846 199.836 292.866 222.659C270.22 246.193 232.843 220.109 244.992 189.486L205.367 148.361V256.614C226.996 267.754 224.397 293.794 213.129 305.476C207.624 311.194 200.159 314.405 192.376 314.405C184.593 314.405 177.129 311.194 171.623 305.476C156.603 289.84 162.16 263.801 181.241 255.725V146.451C163.459 138.891 160.21 119.141 165.306 106.473L121.885 61.2972L7.22465 180.468C2.59873 185.276 0 191.797 0 198.596C0 205.395 2.59873 211.916 7.22465 216.724L174.453 390.497C179.08 395.301 185.353 398 191.893 398C198.434 398 204.707 395.301 209.333 390.497L375.775 217.533C380.401 212.724 383 206.204 383 199.405C383 192.606 380.401 186.085 375.775 181.277Z" fill="black"/>
</svg>
