<svg width="399" height="400" viewBox="0 0 399 400" fill="none" xmlns="http://www.w3.org/2000/svg">
<path d="M199.345 0.621216C89.2643 0.621216 0 92.1278 0 205.012C0 295.317 57.1185 371.931 136.324 398.957C146.287 400.849 149.945 394.523 149.945 389.125C149.945 384.251 149.76 368.15 149.674 351.072C94.216 363.436 82.5137 326.956 82.5137 326.956C73.4456 303.331 60.38 297.05 60.38 297.05C42.2934 284.364 61.7433 284.625 61.7433 284.625C81.761 286.067 92.3013 305.687 92.3013 305.687C110.081 336.934 138.936 327.9 150.311 322.678C152.1 309.468 157.266 300.451 162.967 295.347C118.69 290.179 72.145 272.653 72.145 194.337C72.145 172.022 79.9322 153.789 92.6843 139.475C90.6145 134.327 83.7912 113.539 94.6154 85.3856C94.6154 85.3856 111.355 79.8924 149.45 106.336C165.351 101.808 182.404 99.5367 199.345 99.4589C216.286 99.5367 233.353 101.808 249.284 106.336C287.332 79.8924 304.049 85.3856 304.049 85.3856C314.899 113.539 308.073 134.327 306.003 139.475C318.785 153.789 326.519 172.022 326.519 194.337C326.519 272.839 279.885 290.125 235.495 295.185C242.645 301.528 249.017 313.966 249.017 333.035C249.017 360.383 248.785 382.393 248.785 389.125C248.785 394.564 252.374 400.937 262.478 398.93C341.641 371.873 398.687 295.286 398.687 205.012C398.687 92.1278 309.436 0.621216 199.345 0.621216ZM74.6613 291.78C74.2222 292.795 72.6641 293.1 71.2447 292.403C69.7988 291.736 68.9867 290.351 69.4555 289.333C69.8846 288.287 71.446 287.996 72.8886 288.696C74.3378 289.363 75.1631 290.761 74.6613 291.78ZM84.4669 300.751C83.5162 301.654 81.6576 301.235 80.3966 299.806C79.0927 298.381 78.8484 296.476 79.8123 295.559C80.7928 294.655 82.5952 295.078 83.9024 296.503C85.2063 297.945 85.4605 299.837 84.4669 300.751ZM91.1939 312.228C89.9725 313.098 87.9753 312.283 86.7407 310.465C85.5193 308.647 85.5193 306.468 86.7671 305.595C88.005 304.721 89.9725 305.507 91.2236 307.311C92.4417 309.159 92.4417 311.338 91.1939 312.228ZM102.571 325.521C101.478 326.757 99.1507 326.425 97.4474 324.74C95.7044 323.091 95.2192 320.752 96.3151 319.517C97.421 318.278 99.7614 318.627 101.478 320.299C103.208 321.944 103.736 324.3 102.571 325.521ZM117.274 330.009C116.792 331.61 114.551 332.338 112.293 331.657C110.038 330.957 108.563 329.082 109.018 327.464C109.487 325.853 111.738 325.094 114.013 325.822C116.264 326.519 117.743 328.381 117.274 330.009ZM134.007 331.912C134.063 333.598 132.149 334.996 129.778 335.026C127.395 335.08 125.467 333.716 125.441 332.058C125.441 330.356 127.313 328.971 129.696 328.931C132.066 328.883 134.007 330.237 134.007 331.912ZM150.445 331.266C150.729 332.911 149.082 334.6 146.728 335.05C144.414 335.484 142.272 334.468 141.978 332.837C141.691 331.151 143.368 329.462 145.679 329.026C148.036 328.606 150.145 329.594 150.445 331.266Z" fill="#161614"/>
</svg>
