<svg width="44" height="35" viewBox="0 0 44 35" fill="none" xmlns="http://www.w3.org/2000/svg">
<path d="M17.1431 24.1256C17.1431 26.0305 16.16 29.1476 13.8332 29.1476C11.5064 29.1476 10.5234 26.0305 10.5234 24.1256C10.5234 22.2207 11.5064 19.1036 13.8332 19.1036C16.16 19.1036 17.1431 22.2207 17.1431 24.1256ZM43.6488 19.5229C43.6488 22.4303 43.3603 25.511 42.0706 28.1815C38.6525 35.163 29.2551 34.999 22.5272 34.999C15.6911 34.999 5.73448 35.245 2.18114 28.1815C0.864419 25.5383 0.359375 22.4303 0.359375 19.5229C0.359375 15.704 1.61297 12.0947 4.10211 9.169C3.63314 7.72894 3.40768 6.21596 3.40768 4.72121C3.40768 2.76164 3.84959 1.77729 4.7244 0C8.80984 0 11.4252 0.820288 14.5367 3.28115C17.1521 2.65226 19.8396 2.36972 22.5362 2.36972C24.9712 2.36972 27.4243 2.63404 29.7872 3.20824C32.8535 0.774716 35.4689 0 39.5093 0C40.3931 1.77729 40.826 2.76164 40.826 4.72121C40.826 6.21596 40.5915 7.70159 40.1316 9.11431C42.6117 12.0673 43.6488 15.704 43.6488 19.5229ZM37.8499 24.1256C37.8499 20.1244 35.4419 16.5972 31.2212 16.5972C29.5166 16.5972 27.8843 16.907 26.1707 17.144C24.8269 17.3536 23.4832 17.4357 22.1033 17.4357C20.7325 17.4357 19.3887 17.3536 18.0359 17.144C16.3494 16.907 14.699 16.5972 12.9855 16.5972C8.76475 16.5972 6.35677 20.1244 6.35677 24.1256C6.35677 32.1279 13.6078 33.3584 19.9208 33.3584H24.2678C30.6079 33.3584 37.8499 32.1371 37.8499 24.1256ZM30.4005 19.1036C28.0737 19.1036 27.0906 22.2207 27.0906 24.1256C27.0906 26.0305 28.0737 29.1476 30.4005 29.1476C32.7273 29.1476 33.7103 26.0305 33.7103 24.1256C33.7103 22.2207 32.7273 19.1036 30.4005 19.1036Z" fill="#030089"/>
</svg>
