<svg width="243" height="80" viewBox="0 0 243 80" fill="none" xmlns="http://www.w3.org/2000/svg">
<path d="M227.555 79.0901C227.619 79.0261 227.683 78.93 227.747 78.802C227.811 78.7059 227.939 78.5458 228.131 78.3217C228.675 78.0336 229.139 77.7775 229.524 77.5534C229.908 77.3613 230.244 77.2012 230.532 77.0732C230.596 77.0092 230.66 76.9611 230.724 76.9291C231.3 76.609 232.005 76.1928 232.837 75.6806C233.669 75.1683 234.47 74.5921 235.238 73.9518C236.006 73.3435 236.663 72.6872 237.207 71.9829C237.751 71.3106 238.023 70.6063 238.023 69.87C238.023 69.774 238.007 69.6459 237.975 69.4858C237.943 69.3578 237.847 69.2937 237.687 69.2937C237.399 69.3258 237.111 69.3578 236.823 69.3898C236.535 69.4218 236.247 69.4378 235.958 69.4378C235.574 69.4378 235.206 69.4218 234.854 69.3898C234.534 69.3578 234.214 69.3258 233.893 69.2937C233.733 69.2617 233.509 69.1817 233.221 69.0536C232.965 68.9256 232.693 68.7655 232.405 68.5734C232.149 68.3813 231.893 68.1893 231.636 67.9972C231.38 67.7731 231.188 67.581 231.06 67.4209C230.324 66.6526 229.956 65.6601 229.956 64.4436C229.956 62.9389 230.42 61.7224 231.348 60.794C232.277 59.8656 233.509 59.4014 235.046 59.4014C236.134 59.4014 237.127 59.6415 238.023 60.1217C238.92 60.5699 239.672 61.1782 240.28 61.9465C240.921 62.6828 241.401 63.5472 241.721 64.5396C242.073 65.5321 242.249 66.5565 242.249 67.613C242.249 69.5339 241.849 71.2466 241.049 72.7513C240.28 74.2559 239.16 75.5045 237.687 76.4969C237.175 76.8491 236.631 77.2012 236.054 77.5534C235.51 77.9376 234.87 78.2737 234.134 78.5618C233.205 78.946 232.357 79.2341 231.588 79.4262C230.82 79.6503 230.052 79.7624 229.283 79.7624C229.027 79.7624 228.787 79.7304 228.563 79.6663C228.339 79.6343 228.003 79.4422 227.555 79.0901Z" fill="#030089"/>
<path d="M179 47.0131C179 43.6196 179.56 40.5782 180.681 37.8891C181.833 35.1679 183.418 32.8628 185.435 30.974C187.452 29.0852 189.853 27.6285 192.638 26.6041C195.423 25.5796 198.481 25.0674 201.81 25.0674C202.546 25.0674 203.315 25.1474 204.115 25.3075C204.915 25.4676 205.716 25.6917 206.516 25.9798C207.349 26.2359 208.149 26.54 208.917 26.8922C209.718 27.2443 210.454 27.6125 211.126 27.9967C214.936 30.1096 217.769 32.8468 219.626 36.2083C221.515 39.5698 222.459 43.4115 222.459 47.7334C222.459 50.6467 221.947 53.4479 220.923 56.1371C219.93 58.7943 218.409 61.2114 216.361 63.3883C214.312 65.5013 211.975 67.038 209.349 67.9984C206.724 68.9588 203.971 69.439 201.09 69.439C198.977 69.439 196.896 69.2469 194.847 68.8628C192.83 68.4786 190.813 67.5662 188.796 66.1256C185.435 63.6925 182.954 60.9233 181.353 57.8179C179.784 54.7125 179 51.1109 179 47.0131ZM187.212 47.2532C187.212 48.5338 187.324 49.9104 187.548 51.383C187.772 52.8557 188.108 54.3443 188.556 55.849C189.036 57.3217 189.629 58.7623 190.333 60.1709C191.069 61.5475 191.934 62.7801 192.926 63.8686C193.919 64.925 195.071 65.7734 196.384 66.4137C197.696 67.054 199.153 67.3741 200.754 67.3741C201.778 67.3741 202.674 67.2781 203.443 67.086C204.211 66.8619 204.899 66.5577 205.508 66.1736C206.148 65.7894 206.724 65.3412 207.236 64.829C207.781 64.2847 208.309 63.6925 208.821 63.0522C209.718 61.8997 210.486 60.6351 211.126 59.2585C211.766 57.8819 212.295 56.4733 212.711 55.0326C213.127 53.592 213.415 52.1674 213.575 50.7588C213.767 49.3181 213.863 47.9575 213.863 46.6769C213.863 45.4604 213.735 44.1158 213.479 42.6432C213.223 41.1385 212.807 39.6338 212.231 38.1292C211.686 36.5925 210.982 35.1038 210.118 33.6632C209.253 32.2225 208.213 30.942 206.996 29.8215C206.068 28.9251 205.076 28.2688 204.019 27.8526C202.963 27.4364 202.098 27.2283 201.426 27.2283C199.921 27.2283 198.609 27.3884 197.488 27.7086C196.368 27.9967 195.375 28.4449 194.511 29.0531C193.646 29.6614 192.846 30.4298 192.11 31.3582C191.405 32.2866 190.685 33.3751 189.949 34.6236C188.7 36.7365 187.932 38.8335 187.644 40.9144C187.356 42.9953 187.212 45.1083 187.212 47.2532Z" fill="#030089"/>
<path d="M150.288 69.0071C150.288 68.719 150.368 68.4789 150.528 68.2868C150.72 68.0627 150.928 67.9026 151.152 67.8066C151.408 67.6785 151.664 67.5825 151.921 67.5184C152.177 67.4544 152.385 67.4224 152.545 67.4224H157.347C158.115 67.4224 158.499 66.9262 158.499 65.9337V13.7827C158.499 12.246 158.355 11.0614 158.067 10.2291C157.779 9.3647 157.411 8.72441 156.963 8.30823C156.515 7.89205 156.002 7.65194 155.426 7.58791C154.882 7.49187 154.338 7.44385 153.793 7.44385C153.345 7.44385 152.945 7.47586 152.593 7.53989C152.241 7.60392 151.921 7.68395 151.632 7.78C151.344 7.84403 151.056 7.90805 150.768 7.97208C150.48 8.03611 150.176 8.06812 149.856 8.06812C149.568 8.06812 149.311 8.0201 149.087 7.92406C148.831 7.796 148.703 7.58791 148.703 7.29978C148.703 6.85159 148.927 6.51544 149.375 6.29134C149.888 5.93918 150.416 5.66706 150.96 5.47498C151.504 5.25088 152.049 5.0748 152.593 4.94674C153.169 4.78667 153.745 4.64261 154.322 4.51455C154.898 4.3865 155.458 4.22642 156.002 4.03434C157.411 3.55413 158.451 3.20197 159.124 2.97787C159.796 2.72176 160.308 2.51367 160.66 2.3536C161.045 2.16151 161.381 1.98543 161.669 1.82536C161.957 1.66529 162.421 1.44119 163.061 1.15306C163.894 0.832922 164.71 0.672852 165.511 0.672852C165.639 0.672852 165.847 0.704866 166.135 0.768894C166.423 0.800908 166.647 0.928965 166.807 1.15306C167.191 1.56925 167.383 2.40162 167.383 3.65017V65.9337C167.383 66.606 167.575 67.0222 167.96 67.1823C168.344 67.3103 168.76 67.3744 169.208 67.3744C169.945 67.3744 170.633 67.3264 171.273 67.2303C171.945 67.1022 172.65 67.0382 173.386 67.0382C173.802 67.0382 174.17 67.1503 174.491 67.3744C174.811 67.5985 174.971 67.9346 174.971 68.3828C174.971 68.703 174.891 69.0231 174.731 69.3432C174.571 69.6314 174.346 69.7754 174.058 69.7754H172.474C171.289 69.7754 170.185 69.7434 169.16 69.6794C168.168 69.6474 167.191 69.5994 166.231 69.5353C165.27 69.4713 164.326 69.4233 163.398 69.3913C162.469 69.3272 161.477 69.2952 160.42 69.2952C159.172 69.2952 157.987 69.3753 156.867 69.5353C155.778 69.6954 154.722 69.7754 153.697 69.7754H151.104C150.912 69.7754 150.72 69.6794 150.528 69.4873C150.368 69.3272 150.288 69.1672 150.288 69.0071Z" fill="#030089"/>
<path d="M123.014 69.0071C123.014 68.719 123.094 68.4789 123.254 68.2868C123.447 68.0627 123.655 67.9026 123.879 67.8066C124.135 67.6785 124.391 67.5825 124.647 67.5184C124.903 67.4544 125.111 67.4224 125.271 67.4224H130.074C130.842 67.4224 131.226 66.9262 131.226 65.9337V13.7827C131.226 12.246 131.082 11.0614 130.794 10.2291C130.506 9.3647 130.138 8.72441 129.689 8.30823C129.241 7.89205 128.729 7.65194 128.153 7.58791C127.608 7.49187 127.064 7.44385 126.52 7.44385C126.072 7.44385 125.672 7.47586 125.319 7.53989C124.967 7.60392 124.647 7.68395 124.359 7.78C124.071 7.84403 123.783 7.90805 123.495 7.97208C123.206 8.03611 122.902 8.06812 122.582 8.06812C122.294 8.06812 122.038 8.0201 121.814 7.92406C121.558 7.796 121.43 7.58791 121.43 7.29978C121.43 6.85159 121.654 6.51544 122.102 6.29134C122.614 5.93918 123.142 5.66706 123.687 5.47498C124.231 5.25088 124.775 5.0748 125.319 4.94674C125.896 4.78667 126.472 4.64261 127.048 4.51455C127.624 4.3865 128.185 4.22642 128.729 4.03434C130.138 3.55413 131.178 3.20197 131.85 2.97787C132.523 2.72176 133.035 2.51367 133.387 2.3536C133.771 2.16151 134.107 1.98543 134.395 1.82536C134.684 1.66529 135.148 1.44119 135.788 1.15306C136.62 0.832922 137.437 0.672852 138.237 0.672852C138.365 0.672852 138.573 0.704866 138.861 0.768894C139.15 0.800908 139.374 0.928965 139.534 1.15306C139.918 1.56925 140.11 2.40162 140.11 3.65017V65.9337C140.11 66.606 140.302 67.0222 140.686 67.1823C141.07 67.3103 141.487 67.3744 141.935 67.3744C142.671 67.3744 143.359 67.3264 144 67.2303C144.672 67.1022 145.376 67.0382 146.113 67.0382C146.529 67.0382 146.897 67.1503 147.217 67.3744C147.537 67.5985 147.697 67.9346 147.697 68.3828C147.697 68.703 147.617 69.0231 147.457 69.3432C147.297 69.6314 147.073 69.7754 146.785 69.7754H145.2C144.016 69.7754 142.911 69.7434 141.887 69.6794C140.894 69.6474 139.918 69.5994 138.957 69.5353C137.997 69.4713 137.053 69.4233 136.124 69.3913C135.196 69.3272 134.203 69.2952 133.147 69.2952C131.898 69.2952 130.714 69.3753 129.593 69.5353C128.505 69.6954 127.448 69.7754 126.424 69.7754H123.831C123.639 69.7754 123.447 69.6794 123.254 69.4873C123.094 69.3272 123.014 69.1672 123.014 69.0071Z" fill="#030089"/>
<path d="M119.509 38.7055H86.2782C85.9261 38.8336 85.718 38.9777 85.6539 39.1377C85.5899 39.2658 85.5259 39.5379 85.4618 39.9541C85.3978 40.2422 85.3338 40.8665 85.2698 41.8269C85.2377 42.7873 85.2217 43.8758 85.2217 45.0924C85.2217 46.3089 85.3658 47.4774 85.6539 48.5979C85.9421 49.7184 86.2622 50.8229 86.6144 51.9114C87.959 55.8811 90.0559 58.9065 92.9051 60.9874C95.7864 63.0683 99.5641 64.1088 104.238 64.1088C104.942 64.1088 105.711 63.9807 106.543 63.7246C107.376 63.4685 108.208 63.1484 109.04 62.7642C109.873 62.348 110.673 61.8678 111.441 61.3236C112.21 60.7793 112.882 60.2191 113.458 59.6428C113.874 59.2586 114.211 58.8264 114.467 58.3462C114.755 57.834 115.107 57.2097 115.523 56.4734C115.651 56.3453 115.827 56.2493 116.051 56.1853C116.275 56.0892 116.468 56.0412 116.628 56.0412C117.204 56.0412 117.588 56.2333 117.78 56.6175C118.004 56.9696 118.116 57.4178 118.116 57.9621C118.116 58.1221 118.052 58.3462 117.924 58.6344C117.828 58.8905 117.7 59.1626 117.54 59.4507C117.412 59.7388 117.252 60.027 117.06 60.3151C116.9 60.5712 116.772 60.7633 116.676 60.8914C115.459 62.7162 113.922 64.3329 112.066 65.7415C110.209 67.1181 107.984 68.2386 105.391 69.103C104.814 69.2631 103.822 69.3911 102.413 69.4872C101.037 69.6152 99.5321 69.6792 97.8994 69.6792C96.4587 69.6792 94.9701 69.4872 93.4334 69.103C91.9287 68.7188 90.4561 68.1746 89.0154 67.4703C87.5748 66.766 86.2302 65.9496 84.9816 65.0212C83.7651 64.0928 82.7566 63.0683 81.9563 61.9478C80.2275 59.5788 78.947 57.1777 78.1146 54.7446C77.3142 52.3116 76.9141 49.5904 76.9141 46.581C76.9141 45.4925 76.9621 44.4681 77.0581 43.5077C77.1862 42.5152 77.3783 41.5548 77.6344 40.6264C77.9225 39.698 78.2747 38.7856 78.6908 37.8892C79.107 36.9608 79.6193 36.0163 80.2275 35.0559C81.284 33.2951 82.4845 31.6784 83.8291 30.2058C85.1737 28.7331 86.6624 27.4686 88.2951 26.4121C89.9278 25.3556 91.6886 24.5393 93.5774 23.963C95.4663 23.3868 97.4992 23.0986 99.6761 23.0986C101.501 23.0986 103.39 23.2907 105.343 23.6749C107.328 24.027 109.232 24.8274 111.057 26.076C111.633 26.4921 112.434 27.1324 113.458 27.9968C114.483 28.8612 115.491 29.8376 116.484 30.9261C117.476 31.9826 118.34 33.1031 119.077 34.2876C119.813 35.4721 120.181 36.6086 120.181 37.6971C120.181 37.9852 120.117 38.2253 119.989 38.4174C119.893 38.6095 119.733 38.7055 119.509 38.7055ZM87.5268 36.1124H108.896C109.44 36.1124 109.761 36.0484 109.857 35.9203C109.985 35.7602 110.049 35.6002 110.049 35.4401C110.049 34.7038 109.857 33.9354 109.472 33.1351C109.12 32.3347 108.672 31.5824 108.128 30.8781C107.616 30.1417 107.087 29.4855 106.543 28.9092C105.999 28.3329 105.535 27.8848 105.151 27.5646C104.126 26.7002 103.102 26.14 102.077 25.8839C101.053 25.6278 99.8842 25.4997 98.5716 25.4997C98.0274 25.4997 97.5152 25.5157 97.035 25.5477C96.5868 25.5477 96.1386 25.5797 95.6904 25.6438C95.2422 25.7078 94.794 25.8038 94.3458 25.9319C93.8976 26.0599 93.4014 26.252 92.8571 26.5081C92.2488 26.7963 91.5766 27.2605 90.8402 27.9008C90.1359 28.509 89.4636 29.2293 88.8233 30.0617C88.2151 30.8621 87.6868 31.7425 87.2386 32.7029C86.8224 33.6633 86.6144 34.6077 86.6144 35.5361C86.6144 35.9203 86.9185 36.1124 87.5268 36.1124Z" fill="#030089"/>
<path d="M0.851562 68.5263C0.851562 67.5659 1.45983 67.0377 2.67637 66.9416L9.39935 66.3654C9.62344 66.3013 9.87956 66.1733 10.1677 65.9812C10.4878 65.7571 10.6479 65.469 10.6479 65.1168V6.14672C10.6479 5.1863 10.5519 4.54601 10.3598 4.22587C10.1677 3.87371 9.84754 3.6176 9.39935 3.45753C8.79108 3.29746 8.11878 3.1694 7.38245 3.07336C6.67814 2.9453 5.98984 2.83325 5.31754 2.73721C4.64524 2.64117 4.03697 2.56113 3.49273 2.49711C2.94849 2.40106 2.56432 2.28901 2.34022 2.16096C2.18015 2.09693 2.0681 1.96887 2.00407 1.77679C1.97206 1.55269 1.95605 1.37661 1.95605 1.24855C1.95605 0.992439 2.05209 0.800354 2.24418 0.672298C2.46828 0.544241 2.72439 0.448198 3.01252 0.38417C3.30065 0.320142 3.60478 0.288128 3.92492 0.288128C4.24506 0.256113 4.53319 0.240106 4.78931 0.240106H7.23839C8.03874 0.240106 8.72705 0.256113 9.3033 0.288128C9.91157 0.320142 10.4718 0.368163 10.984 0.432191C11.5283 0.464205 12.0405 0.49622 12.5207 0.528234C13.0009 0.560248 13.5132 0.576255 14.0574 0.576255C15.37 0.576255 16.6185 0.544241 17.8031 0.480213C18.9876 0.416184 20.1881 0.352156 21.4047 0.288128C22.6212 0.224099 23.8858 0.160071 25.1983 0.0960425C26.5109 0.0320142 27.9516 0 29.5203 0C29.6483 0 29.8244 0.0320142 30.0485 0.0960425C30.3046 0.128057 30.5447 0.192085 30.7688 0.288128C30.9929 0.38417 31.185 0.512227 31.3451 0.672298C31.5051 0.800354 31.5852 0.960425 31.5852 1.15251C31.5852 1.50467 31.4411 1.76078 31.153 1.92085C30.8969 2.04891 30.6568 2.17696 30.4327 2.30502C30.1765 2.30502 29.7283 2.32103 29.0881 2.35304C28.4798 2.38506 27.8235 2.43308 27.1192 2.49711C26.4149 2.56113 25.7426 2.64117 25.1023 2.73721C24.494 2.80124 24.0778 2.88128 23.8537 2.97732C23.5976 2.97732 23.2935 3.02534 22.9413 3.12138C22.5892 3.18541 22.237 3.31347 21.8849 3.50555C21.5327 3.66562 21.2286 3.90573 20.9725 4.22587C20.7484 4.514 20.6363 4.86615 20.6363 5.28234V31.3099C20.6363 32.0782 21.0205 32.4624 21.7888 32.4624H49.7372C50.0253 32.4624 50.2814 32.3823 50.5055 32.2223C50.7617 32.0302 50.8897 31.7581 50.8897 31.4059V6.29078C50.8897 5.49043 50.6976 4.85015 50.3135 4.36993C49.9613 3.88972 49.4971 3.52156 48.9208 3.26545C48.3766 3.00933 47.7683 2.84926 47.096 2.78523C46.4557 2.68919 45.8315 2.64117 45.2232 2.64117H40.9013C40.4851 2.64117 40.0849 2.49711 39.7008 2.20898C39.3486 1.88884 39.1725 1.53668 39.1725 1.15251C39.1725 0.736326 39.3486 0.448198 39.7008 0.288128C40.0529 0.0960425 40.4851 0 40.9973 0H43.8306C45.3353 0 46.6318 0.0160071 47.7203 0.0480213C48.8088 0.0800354 49.8172 0.128057 50.7456 0.192085C51.6741 0.224099 52.5705 0.256113 53.4348 0.288128C54.3312 0.320142 55.3397 0.336149 56.4602 0.336149C57.3566 0.336149 58.1569 0.320142 58.8612 0.288128C59.5976 0.256113 60.3659 0.224099 61.1663 0.192085C61.9666 0.128057 62.863 0.0800354 63.8554 0.0480213C64.8479 0.0160071 66.0644 0 67.5051 0H70.9626C71.4748 0 71.827 0.11205 72.0191 0.336149C72.2111 0.560248 72.3072 0.752333 72.3072 0.912404C72.3072 1.20053 72.1151 1.45664 71.7309 1.68074C71.3468 1.90484 70.8185 2.08092 70.1462 2.20898C69.2178 2.40106 68.2254 2.52912 67.1689 2.59315C66.1445 2.65718 65.168 2.80124 64.2396 3.02534C63.3432 3.21742 62.5909 3.55357 61.9826 4.03379C61.4064 4.514 61.1182 5.26633 61.1182 6.29078V61.2751C61.1182 62.5237 61.3263 63.4681 61.7425 64.1084C62.1587 64.7166 62.7189 65.1648 63.4233 65.453C64.1596 65.7411 65.008 65.9332 65.9684 66.0292C66.9288 66.0933 67.9693 66.2053 69.0898 66.3654C69.8261 66.5255 70.4344 66.7175 70.9146 66.9416C71.3948 67.1657 71.6349 67.6139 71.6349 68.2862C71.6349 68.8305 71.4428 69.2146 71.0586 69.4387C70.7065 69.6628 70.2423 69.7749 69.666 69.7749H66.9768C66.4326 69.7749 65.6963 69.7589 64.7679 69.7269C63.8715 69.6949 62.943 69.6468 61.9826 69.5828C61.0222 69.5508 60.1258 69.5188 59.2934 69.4868C58.4931 69.4547 57.9328 69.4387 57.6127 69.4387C55.98 69.4387 54.6194 69.4547 53.5309 69.4868C52.4744 69.5188 51.4339 69.5508 50.4095 69.5828C49.385 69.6468 48.2485 69.6949 47 69.7269C45.7834 69.7589 44.1987 69.7749 42.2459 69.7749C41.7016 69.7749 41.2374 69.6628 40.8533 69.4387C40.5011 69.2467 40.325 68.8625 40.325 68.2862C40.325 68.0621 40.4051 67.79 40.5651 67.4699C40.7572 67.1177 41.0454 66.9096 41.4295 66.8456L48.0565 66.0292C48.7288 65.9332 49.241 65.7411 49.5931 65.453C49.9773 65.1328 50.2654 64.7327 50.4575 64.2524C50.6496 63.7402 50.7617 63.164 50.7937 62.5237C50.8577 61.8834 50.8897 61.1951 50.8897 60.4588V37.5526C50.8897 37.1044 50.7296 36.6882 50.4095 36.3041C50.1214 35.9199 49.7212 35.7278 49.209 35.7278H21.7888C21.4367 35.7278 21.1485 35.7918 20.9244 35.9199C20.7324 36.048 20.6363 36.2881 20.6363 36.6402V62.3796C20.6363 63.5321 20.9885 64.3965 21.6928 64.9728C22.4291 65.549 23.3095 65.9652 24.334 66.2213C25.3584 66.4774 26.4309 66.6375 27.5514 66.7015C28.6719 66.7335 29.6323 66.8136 30.4327 66.9416C30.8168 67.0697 31.0409 67.2778 31.105 67.5659C31.201 67.854 31.249 68.1422 31.249 68.4303C31.249 69.1026 31.0249 69.4868 30.5767 69.5828C30.1605 69.7109 29.7283 69.7749 29.2801 69.7749C27.9676 69.7749 26.8471 69.7589 25.9187 69.7269C25.0223 69.6949 24.0938 69.6628 23.1334 69.6308C22.173 69.6308 21.0685 69.6148 19.82 69.5828C18.5714 69.5508 16.9547 69.5348 14.9698 69.5348C14.2015 69.5348 13.4651 69.5508 12.7608 69.5828C12.0565 69.6148 11.3362 69.6308 10.5999 69.6308C9.89557 69.6628 9.15924 69.6949 8.3909 69.7269C7.65457 69.7589 6.83821 69.7749 5.94182 69.7749H2.43626C1.92404 69.6468 1.52386 69.5348 1.23573 69.4387C0.979619 69.3427 0.851562 69.0386 0.851562 68.5263Z" fill="#030089"/>
<path d="M190.57 46.9482C190.715 46.9317 191 46.8374 191.14 46.8197C191.334 46.7952 191.758 46.8467 191.945 46.8197C192.96 46.6724 193.623 46.6931 194.418 46.4539C196.128 45.3139 197.65 45.1557 198.55 43.4614C198.8 42.9924 198.94 41.902 199.12 41.3239C199.232 40.9664 199.538 40.5869 199.627 40.1839C199.698 39.8662 199.57 39.6567 199.627 39.3092C199.68 38.9898 199.932 38.5347 199.975 38.1889C200.004 37.9575 200.017 37.7201 200.042 37.4765C200.052 37.5934 200.073 37.7014 200.073 37.8231C200.101 38.1235 200.212 38.3347 200.246 38.6164C200.271 38.8258 200.217 39.1098 200.246 39.3092C200.282 39.5611 200.321 39.8051 200.364 40.0414C200.426 40.3904 200.692 40.7227 200.77 41.0389C200.831 41.2861 200.699 41.5234 200.77 41.7514C200.868 42.0688 201.139 42.6096 201.258 42.8914C201.829 44.2398 202.398 45.1714 203.68 45.6162C204.361 45.9966 204.876 46.3828 205.818 46.5964C206.261 46.6969 207.02 46.6687 207.528 46.7389C207.82 46.7793 208.123 46.8282 208.438 46.8596C208.606 46.8765 208.81 46.8814 208.953 46.9065C209.047 46.9143 209.091 46.8994 209.187 46.9065C209.278 46.9133 209.421 46.9421 209.514 46.9482C209.349 46.9723 209.381 47.0186 209.132 47.0587C209.059 47.0704 208.882 47.0466 208.81 47.0587C208.714 47.0749 208.584 47.0418 208.49 47.0587C208.363 47.0814 208.221 47.1425 208.098 47.1664C207.245 47.3325 206.924 47.6505 206.245 47.879C205.882 48.0012 205.424 48.164 205.105 48.3065C204.763 48.4598 204.26 48.5553 203.965 48.734C203.448 49.0481 202.919 49.3304 202.531 49.7315C202.081 50.1968 201.568 50.7007 201.258 51.299C201.084 51.6347 201.072 52.0164 200.933 52.3982C200.795 52.7788 200.513 53.4347 200.403 53.864C200.324 54.1723 200.412 54.2418 200.345 54.5765C200.268 54.9636 200.198 55.3687 200.133 55.7927C200.101 55.9974 200.071 56.2064 200.042 56.42C200.022 56.2995 200.002 56.1805 199.982 56.0629C199.927 55.7468 199.894 55.4415 199.833 55.1465C199.728 54.642 199.675 54.1677 199.548 53.7215C199.463 53.4243 199.285 53.1395 199.188 52.8665C198.962 52.236 198.86 51.5261 198.55 51.014C198.267 50.5443 197.784 50.2636 197.41 49.8809C196.757 49.211 195.993 48.7611 194.988 48.3065C194.646 48.1517 194.238 47.9114 193.848 47.7765C193.515 47.6617 193.164 47.5536 192.794 47.4515C192.617 47.4026 192.423 47.4515 192.28 47.3089C192.151 47.2767 191.987 47.1974 191.853 47.1664C191.667 47.1236 191.477 47.2071 191.283 47.1664C191.052 47.1181 190.814 46.9937 190.57 46.9482Z" fill="#030089"/>
</svg>
