<svg width="62" height="86" viewBox="0 0 62 86" fill="none" xmlns="http://www.w3.org/2000/svg">
<path d="M7.04524 4.84674C4.23184 11.4398 4.39453 14.5927 8.2447 20.7016C11.5323 25.9179 17.3166 28.9086 23.5899 27.7027C24.4388 27.5395 29.4414 26.1391 29.3717 24.6835C29.3093 23.3818 28.0477 20.5866 26.5066 20.5873C24.56 20.5881 21.7671 22.9819 20.2064 24.023C17.6858 25.7044 17.4621 29.6101 17.534 32.3661C17.6593 37.1665 19.4003 40.8082 21.8137 44.9005C25.6501 51.4059 29.7376 57.3552 35.0541 62.7191" stroke="#D70000" stroke-width="3" stroke-linecap="round"/>
<path d="M26.464 71.598C26.7533 71.598 26.9587 71.6073 27.08 71.626C27.08 71.794 27.052 72.0133 26.996 72.284C26.9493 72.5453 26.9167 72.6993 26.898 72.746C26.898 72.9513 26.8887 73.376 26.87 74.02C26.8513 74.664 26.842 75.1633 26.842 75.518C27.2433 75.3033 27.64 75.1167 28.032 74.958C28.4333 74.7993 28.6853 74.72 28.788 74.72C29.684 74.72 30.3327 74.944 30.734 75.392C31.1353 75.8307 31.336 76.5027 31.336 77.408C31.336 77.6693 31.2987 78.8827 31.224 81.048L32.4 81.16C32.4 81.4213 32.3207 81.7013 32.162 82H28.942L28.9 81.51C29.3293 81.3607 29.7493 81.2487 30.16 81.174C30.104 78.7287 30.0527 77.3707 30.006 77.1C29.9687 76.82 29.9033 76.5773 29.81 76.372C29.7167 76.1667 29.5767 76.022 29.39 75.938C29.2033 75.854 28.956 75.812 28.648 75.812C28.0133 75.812 27.4067 75.9613 26.828 76.26L26.744 81.048L27.92 81.16C27.92 81.4213 27.8407 81.7013 27.682 82H24.462L24.42 81.51C24.8493 81.3607 25.2693 81.2487 25.68 81.174L25.512 72.704C24.9987 72.676 24.588 72.62 24.28 72.536L24.336 71.808C24.812 71.668 25.5213 71.598 26.464 71.598ZM36.3786 81.328C37.1626 81.328 37.69 81.0853 37.9606 80.6C38.2406 80.1053 38.3806 79.4053 38.3806 78.5C38.3806 77.0627 38.0633 76.162 37.4286 75.798C37.1673 75.6487 36.7986 75.574 36.3226 75.574C35.856 75.574 35.4126 75.672 34.9926 75.868C34.6193 76.5867 34.4326 77.422 34.4326 78.374C34.4326 79.2887 34.554 79.9933 34.7966 80.488C35.0766 81.048 35.604 81.328 36.3786 81.328ZM33.1446 78.5C33.1446 77.3147 33.4153 76.3907 33.9566 75.728C34.498 75.056 35.3333 74.72 36.4626 74.72C37.592 74.72 38.4086 75.028 38.9126 75.644C39.4166 76.2507 39.6686 77.1513 39.6686 78.346C39.6686 79.5407 39.398 80.4787 38.8566 81.16C38.3246 81.8413 37.5126 82.182 36.4206 82.182C35.3286 82.182 34.5073 81.8647 33.9566 81.23C33.4153 80.5953 33.1446 79.6853 33.1446 78.5ZM47.4958 75.826L44.7658 82H43.7718L41.2098 75.84L40.0338 75.728C40.0338 75.4667 40.1132 75.1867 40.2718 74.888H43.6598L43.7018 75.378C43.4032 75.5087 43.0718 75.6113 42.7078 75.686L43.9678 79.508L44.2898 80.74H44.4578L44.8078 79.494L46.1098 75.686L44.9338 75.378L44.9758 74.888H48.4058C48.5645 75.1867 48.6438 75.4667 48.6438 75.728C48.2612 75.7747 47.8785 75.8073 47.4958 75.826ZM52.4916 81.216C52.9023 81.216 53.5463 81.02 54.4236 80.628C54.601 80.8707 54.6943 81.0853 54.7036 81.272C54.2276 81.552 53.761 81.7713 53.3036 81.93C52.8463 82.0887 52.5196 82.168 52.3236 82.168C51.241 82.168 50.415 81.846 49.8456 81.202C49.2763 80.5487 48.9916 79.6387 48.9916 78.472C48.9916 77.3053 49.267 76.3907 49.8176 75.728C50.3776 75.056 51.213 74.72 52.3236 74.72C53.1823 74.72 53.8356 75.028 54.2836 75.644C54.741 76.26 54.9696 77.086 54.9696 78.122C54.895 78.2527 54.8343 78.3413 54.7876 78.388L50.2796 78.318C50.289 79.2607 50.4523 79.9793 50.7696 80.474C51.0963 80.9687 51.6703 81.216 52.4916 81.216ZM53.6956 77.52C53.6956 76.904 53.5836 76.428 53.3596 76.092C53.1356 75.7467 52.7623 75.574 52.2396 75.574C51.717 75.574 51.2503 75.672 50.8396 75.868C50.5596 76.428 50.3823 77.002 50.3076 77.59C51.045 77.5807 52.1743 77.5573 53.6956 77.52ZM60.3977 75.896C60.351 75.8493 60.2484 75.826 60.0897 75.826C59.931 75.826 59.693 75.882 59.3757 75.994C59.0677 76.106 58.7877 76.2367 58.5357 76.386C58.4797 78.458 58.4424 80.012 58.4237 81.048L59.5997 81.16C59.5997 81.4213 59.5204 81.7013 59.3617 82H56.1417L56.0997 81.51C56.529 81.3607 56.949 81.2487 57.3597 81.174C57.3037 78.8033 57.257 77.0487 57.2197 75.91C56.7064 75.882 56.2957 75.826 55.9877 75.742L56.0437 75.014C56.5384 74.874 57.271 74.804 58.2417 74.804C58.391 75.0373 58.4844 75.336 58.5217 75.7C59.595 75.0467 60.2344 74.72 60.4397 74.72C60.645 74.72 60.883 74.762 61.1537 74.846C61.4244 74.9207 61.625 75.0047 61.7557 75.098C61.7557 76.0313 61.667 76.792 61.4897 77.38C61.359 77.4173 61.205 77.436 61.0277 77.436C60.8597 77.436 60.743 77.4313 60.6777 77.422L60.3977 75.896Z" fill="#D70000"/>
</svg>
