<svg width="385" height="400" viewBox="0 0 385 400" fill="none" xmlns="http://www.w3.org/2000/svg">
<path fill-rule="evenodd" clip-rule="evenodd" d="M66.7333 0C49.0346 0 32.0607 7.30474 19.5457 20.3073C7.03081 33.3098 0 50.945 0 69.3333V330.667C0 349.055 7.03081 366.69 19.5457 379.693C32.0607 392.695 49.0346 400 66.7333 400H318.267C335.965 400 352.939 392.695 365.454 379.693C377.969 366.69 385 349.055 385 330.667V69.3333C385 50.945 377.969 33.3098 365.454 20.3073C352.939 7.30474 335.965 0 318.267 0H66.7333ZM25.6667 69.3333C25.6667 58.0174 29.9933 47.165 37.6948 39.1634C45.3963 31.1619 55.8418 26.6667 66.7333 26.6667H318.267C329.158 26.6667 339.604 31.1619 347.305 39.1634C355.007 47.165 359.333 58.0174 359.333 69.3333V330.667C359.333 341.983 355.007 352.835 347.305 360.837C339.604 368.838 329.158 373.333 318.267 373.333H66.7333C55.8418 373.333 45.3963 368.838 37.6948 360.837C29.9933 352.835 25.6667 341.983 25.6667 330.667V69.3333ZM243.833 102.222H278.056V276.267C268.388 279.751 244.62 286.756 226.928 286.756C204.82 286.756 165.636 274.933 165.636 219.804C165.636 172.036 203.913 154.027 243.833 154.027V102.222ZM243.833 184.427V255.538C229.631 255.538 201.056 251.751 201.056 219.982C201.056 188.213 229.631 184.427 243.833 184.427ZM141.167 120H106.944V280H141.167V120Z" fill="black"/>
</svg>
