<svg width="138" height="72" viewBox="0 0 138 72" fill="none" xmlns="http://www.w3.org/2000/svg">
<path d="M65.8194 67.3264L66.6358 35.1041C66.6358 34.816 66.5718 34.4638 66.4437 34.0476C66.3477 33.6315 66.2036 33.2313 66.0115 32.8471C65.8194 32.4629 65.5953 32.1428 65.3392 31.8867C65.0831 31.5986 64.827 31.4545 64.5709 31.4545C63.9626 31.4545 63.4024 31.5185 62.8901 31.6466C62.4099 31.7746 61.9777 31.9187 61.5936 32.0788C61.2094 32.2068 60.8733 32.3349 60.5851 32.4629C60.297 32.559 60.0729 32.607 59.9128 32.607C59.4646 32.607 59.2405 32.3829 59.2405 31.9347C59.2725 31.6466 59.4006 31.3745 59.6247 31.1184C59.8808 30.8622 60.1689 30.6381 60.4891 30.4461C60.8092 30.254 61.1294 30.0939 61.4495 29.9658C61.7696 29.8058 62.0098 29.6937 62.1698 29.6297C63.2583 29.3416 64.2507 29.0534 65.1471 28.7653C66.0435 28.4452 66.9079 28.109 67.7403 27.7569C68.5727 27.4047 69.405 27.0205 70.2374 26.6044C71.0698 26.1562 71.9822 25.6599 72.9746 25.1157C73.3908 24.9556 73.775 24.8756 74.1271 24.8756C74.5113 24.8756 74.7034 25.0517 74.7034 25.4038C74.7034 25.692 74.6714 26.0921 74.6073 26.6044C74.5433 27.1166 74.4793 27.6448 74.4152 28.1891C74.3512 28.7333 74.2872 29.2615 74.2232 29.7738C74.1591 30.254 74.1271 30.6221 74.1271 30.8782V31.7906C74.1271 32.3349 74.1751 32.8631 74.2712 33.3754C74.3992 33.8556 74.5753 34.0957 74.7994 34.0957C75.1516 34.0957 75.4077 33.8716 75.5678 33.4234C75.7598 32.9752 76.112 32.4469 76.6242 31.8387C77.5206 30.7502 78.5771 29.7257 79.7936 28.7653C81.0102 27.7729 82.3067 26.9085 83.6833 26.1722C85.06 25.4358 86.4846 24.8436 87.9572 24.3954C89.4619 23.9472 90.9185 23.7231 92.3272 23.7231C92.8394 23.7231 93.4317 23.7711 94.104 23.8671C94.8083 23.9312 95.5446 24.1553 96.3129 24.5394C97.0813 24.8916 97.8656 25.4358 98.666 26.1722C99.4663 26.8765 100.235 27.8529 100.971 29.1015C101.099 29.3896 101.195 29.6617 101.259 29.9178C101.355 30.1419 101.435 30.382 101.499 30.6381C101.563 30.8943 101.643 31.1984 101.739 31.5505C101.835 31.9027 101.963 32.3669 102.124 32.9432C102.348 33.6155 102.572 33.9516 102.796 33.9516C103.116 33.9516 103.356 33.6155 103.516 32.9432C103.74 32.0788 104.108 31.3264 104.621 30.6862C105.133 30.0139 105.485 29.5817 105.677 29.3896C107.342 27.5328 109.231 26.0121 111.344 24.8276C113.489 23.643 115.874 23.0508 118.499 23.0508C119.907 23.0508 121.172 23.3389 122.292 23.9152C123.445 24.4594 124.453 25.1957 125.318 26.1241C126.182 27.0526 126.918 28.125 127.527 29.3416C128.135 30.5581 128.631 31.8227 129.015 33.1352C129.4 34.4158 129.672 35.7124 129.832 37.025C130.024 38.3375 130.12 39.5541 130.12 40.6746V57.8662C130.12 59.3068 130.04 60.7155 129.88 62.0921C129.72 63.4367 129.64 64.6532 129.64 65.7417C129.64 66.8302 130.184 67.4224 131.272 67.5185H136.699C136.987 67.5185 137.179 67.6465 137.275 67.9026C137.307 68.1267 137.339 68.3188 137.371 68.4789C137.403 68.639 137.419 68.783 137.419 68.9111C137.419 69.1352 137.403 69.3593 137.371 69.5834C137.339 69.8075 137.307 69.9996 137.275 70.1596C137.211 70.3837 136.859 70.5118 136.219 70.5438C135.578 70.5758 134.906 70.5918 134.202 70.5918H129.64C128.007 70.5918 126.598 70.6238 125.414 70.6879C124.261 70.7199 123.221 70.7679 122.292 70.8319C121.396 70.896 120.548 70.96 119.747 71.024C118.979 71.056 118.195 71.072 117.394 71.072H115.473C114.481 71.072 113.985 70.6238 113.985 69.7274C113.985 69.3753 114.033 69.1032 114.129 68.9111C114.257 68.719 114.401 68.5589 114.561 68.4309C114.657 68.3668 114.881 68.3028 115.233 68.2388C115.617 68.1427 116.018 68.0627 116.434 67.9987C116.882 67.9346 117.298 67.8866 117.682 67.8546C118.067 67.7906 118.339 67.7586 118.499 67.7586C118.659 67.6945 118.819 67.6625 118.979 67.6625C119.139 67.6625 119.283 67.6625 119.411 67.6625H120.324C120.868 67.6625 121.14 67.3584 121.14 66.7501V38.8498C121.14 37.5692 121.028 36.3527 120.804 35.2002C120.58 34.0476 120.212 33.0392 119.699 32.1748C119.219 31.3104 118.547 30.6381 117.682 30.1579C116.85 29.6457 115.81 29.3896 114.561 29.3896C112.704 29.3896 111.023 29.6617 109.519 30.2059C108.046 30.7502 106.798 31.5025 105.773 32.4629C104.749 33.4234 103.948 34.5599 103.372 35.8725C102.828 37.153 102.556 38.5616 102.556 40.0983V66.51C102.556 66.8942 102.668 67.1983 102.892 67.4224C103.116 67.6465 103.388 67.8386 103.708 67.9987C104.028 68.1267 104.365 68.2228 104.717 68.2868C105.101 68.3508 105.421 68.3989 105.677 68.4309C106.125 68.4629 106.493 68.4949 106.782 68.5269C107.07 68.5589 107.342 68.5749 107.598 68.5749C107.854 68.5749 108.062 68.5749 108.222 68.5749C108.382 68.5749 108.542 68.6069 108.702 68.671C108.991 68.799 109.151 68.9591 109.183 69.1512C109.247 69.3433 109.279 69.5674 109.279 69.8235C109.279 70.1756 109.151 70.4478 108.895 70.6398C108.638 70.7999 108.318 70.928 107.934 71.024C107.582 71.088 107.198 71.1201 106.782 71.1201C106.397 71.1521 106.061 71.1681 105.773 71.1681C105.741 71.1681 105.501 71.1521 105.053 71.1201C104.637 71.1201 104.06 71.1201 103.324 71.1201C102.588 71.1201 101.739 71.104 100.779 71.072C99.8185 71.072 98.794 71.072 97.7056 71.072C96.9692 71.072 96.1689 71.072 95.3045 71.072C94.4401 71.104 93.5917 71.1201 92.7594 71.1201C91.959 71.1521 91.2227 71.1681 90.5504 71.1681C89.8781 71.2001 89.3819 71.2161 89.0617 71.2161C88.4855 71.2161 87.9252 71.1361 87.381 70.976C86.8367 70.8159 86.5646 70.3997 86.5646 69.7274C86.5646 68.9271 87.0768 68.4949 88.1013 68.4309C88.3574 68.3668 88.5975 68.3348 88.8216 68.3348C89.0457 68.3348 89.3178 68.3348 89.638 68.3348C90.0542 68.3348 90.4864 68.3188 90.9346 68.2868C91.3828 68.2228 91.7989 68.1427 92.1831 68.0467C92.5673 67.9186 92.8714 67.7586 93.0955 67.5665C93.3516 67.3424 93.4797 67.0703 93.4797 66.7501L94.0559 37.7453C94.0559 37.009 93.9439 36.2886 93.7198 35.5843C93.4637 34.816 93.0955 34.0637 92.6153 33.3273C92.1351 32.591 91.5588 31.9347 90.8865 31.3585C90.2463 30.7822 89.5259 30.318 88.7256 29.9658C87.9252 29.6137 87.0768 29.4376 86.1805 29.4376C85.06 29.4376 83.9555 29.6137 82.867 29.9658C81.7785 30.286 80.7701 30.7662 79.8416 31.4065C78.9132 32.0147 78.0649 32.7511 77.2965 33.6155C76.5602 34.4478 75.9679 35.3922 75.5197 36.4487C75.3276 37.025 75.1356 37.6172 74.9435 38.2255C74.7834 38.8018 74.7034 39.426 74.7034 40.0983L74.0311 66.6061C74.0311 67.1503 74.0951 67.6305 74.2232 68.0467C74.3512 68.4629 74.6233 68.671 75.0395 68.671H80.706C80.9942 68.671 81.1542 68.767 81.1862 68.9591C81.2503 69.1512 81.2823 69.3593 81.2823 69.5834C81.2823 69.9355 81.1862 70.3037 80.9942 70.6879C80.8021 71.04 80.4499 71.2161 79.9377 71.2161C78.5291 71.2161 77.1364 71.2001 75.7598 71.1681C74.3832 71.1681 73.0867 71.1521 71.8701 71.1201C70.6536 71.1201 69.5651 71.104 68.6047 71.072C67.6763 71.072 66.972 71.072 66.4917 71.072C65.6594 71.072 64.731 71.088 63.7065 71.1201C62.7141 71.1841 61.6096 71.2161 60.393 71.2161H59.0965C58.8724 71.2161 58.6803 71.1201 58.5202 70.928C58.3922 70.7359 58.3281 70.5118 58.3281 70.2557C58.3281 69.9675 58.4082 69.7114 58.5682 69.4873C58.7603 69.2312 59.0484 69.0711 59.4326 69.0071C59.9128 68.8791 60.377 68.815 60.8252 68.815C61.2734 68.783 61.7376 68.767 62.2178 68.767H63.9946C64.5069 68.767 64.9391 68.671 65.2912 68.4789C65.6434 68.2868 65.8194 67.9026 65.8194 67.3264Z" fill="#030089"/>
<path d="M38.9219 20.1702C38.9859 20.1061 39.0499 20.0261 39.114 19.9301C39.178 19.802 39.306 19.6259 39.4981 19.4018C40.0424 19.1137 40.5066 18.8736 40.8907 18.6815C41.2749 18.4574 41.6111 18.2813 41.8992 18.1533C42.4434 17.8331 43.1317 17.4169 43.9641 16.9047C44.8285 16.3925 45.6609 15.8162 46.4612 15.1759C47.2616 14.5357 47.9499 13.8634 48.5261 13.1591C49.1024 12.4227 49.3905 11.6704 49.3905 10.9021C49.3905 10.838 49.3745 10.726 49.3425 10.5659C49.3105 10.4058 49.2144 10.3258 49.0544 10.3258C48.7662 10.3898 48.4781 10.4379 48.19 10.4699C47.9018 10.5019 47.6137 10.5179 47.3256 10.5179C46.9414 10.5179 46.5733 10.5019 46.2211 10.4699C45.901 10.4379 45.5808 10.3898 45.2607 10.3258C45.1006 10.3258 44.8765 10.2618 44.5884 10.1337C44.3323 10.0057 44.0601 9.84559 43.772 9.6535C43.5159 9.46142 43.2598 9.26933 43.0037 9.07725C42.7476 8.85315 42.5555 8.66107 42.4274 8.50099C41.6911 7.73265 41.3229 6.74022 41.3229 5.52368C41.3229 4.01901 41.7871 2.80247 42.7156 1.87406C43.644 0.945651 44.8765 0.481445 46.4132 0.481445C47.5017 0.481445 48.4941 0.721552 49.3905 1.20176C50.2869 1.64996 51.0392 2.25823 51.6475 3.02657C52.2878 3.7629 52.768 4.62728 53.0881 5.61972C53.4403 6.61216 53.6164 7.63661 53.6164 8.69308C53.6164 10.6139 53.2162 12.3267 52.4158 13.8314C51.6475 15.304 50.527 16.5526 49.0544 17.577C48.5421 17.9292 47.9979 18.2973 47.4216 18.6815C46.8774 19.0337 46.2371 19.3538 45.5008 19.6419C44.5724 20.0261 43.724 20.3142 42.9557 20.5063C42.1873 20.6984 41.419 20.7944 40.6506 20.7944C40.3945 20.7944 40.1544 20.7784 39.9303 20.7464C39.7062 20.6824 39.3701 20.4903 38.9219 20.1702Z" fill="#030089"/>
<path d="M10.7398 64.1091V9.98911C10.7398 8.64451 10.4997 7.63607 10.0195 6.96377C9.53925 6.25946 8.93098 5.76324 8.19465 5.47511C7.49034 5.15497 6.722 4.97889 5.88963 4.94687C5.05726 4.91486 4.27292 4.88285 3.53659 4.85083C2.83228 4.7868 2.24002 4.65875 1.7598 4.46666C1.27959 4.27458 1.03949 3.8744 1.03949 3.26613C1.03949 2.84995 1.23157 2.59383 1.61574 2.49779C2.03192 2.36973 2.41609 2.30571 2.76825 2.30571H5.45744C6.25779 2.30571 6.97811 2.33772 7.6184 2.40175C8.2907 2.43376 8.91497 2.48178 9.49123 2.54581C10.0995 2.60984 10.7078 2.67387 11.316 2.7379C11.9563 2.76991 12.6606 2.78592 13.429 2.78592C14.9977 2.78592 16.3743 2.7539 17.5588 2.68988C18.7433 2.59383 19.8798 2.49779 20.9683 2.40175C22.0568 2.30571 23.1453 2.22567 24.2338 2.16164C25.3222 2.0656 26.5388 2.01758 27.8834 2.01758H31.1008C31.549 2.01758 31.9172 2.11362 32.2053 2.30571C32.4934 2.46578 32.7175 2.56182 32.8776 2.59383C33.0056 2.94599 33.0857 3.13807 33.1177 3.17009C33.1497 3.2021 33.1657 3.34617 33.1657 3.60228C33.1657 3.95444 32.8776 4.24256 32.3013 4.46666C31.7571 4.69076 31.1168 4.88285 30.3805 5.04292C29.6762 5.17097 28.9558 5.28302 28.2195 5.37907C27.4832 5.44309 26.955 5.52313 26.6348 5.61917C26.1226 5.71521 25.5783 5.81126 25.0021 5.9073C24.4258 5.97133 23.8976 6.09938 23.4174 6.29147C22.9372 6.45154 22.537 6.70765 22.2169 7.05981C21.8967 7.37995 21.7366 7.84416 21.7366 8.45243V65.5017C21.7366 66.174 21.9768 66.7022 22.457 67.0864C22.9692 67.4385 23.5935 67.7107 24.3298 67.9027C25.0661 68.0628 25.8665 68.1749 26.7309 68.2389C27.6273 68.3029 28.4436 68.3829 29.1799 68.479C29.9163 68.575 30.5245 68.7351 31.0047 68.9592C31.517 69.1513 31.7731 69.4714 31.7731 69.9196C31.7731 70.2718 31.677 70.4959 31.485 70.5919C31.2929 70.688 31.1168 70.768 30.9567 70.832C30.5085 70.9601 29.9643 71.0721 29.324 71.1682C28.6837 71.2642 28.1235 71.3122 27.6433 71.3122C26.4908 71.3122 25.4343 71.2802 24.4739 71.2162C23.5134 71.1522 22.585 71.0882 21.6886 71.0241C20.7922 70.9601 19.8958 70.8961 18.9994 70.832C18.103 70.768 17.1266 70.736 16.0701 70.736C15.5579 70.736 14.8376 70.752 13.9092 70.784C13.0128 70.816 12.0364 70.8641 10.9799 70.9281C9.95543 70.9601 8.93098 70.9921 7.90653 71.0241C6.88207 71.0561 6.00168 71.0721 5.26536 71.0721H1.47168C1.31161 71.0721 1.08751 70.9921 0.799379 70.832C0.511251 70.672 0.367188 70.4158 0.367188 70.0637C0.367188 69.4234 0.639308 69.0392 1.18355 68.9112C1.88786 68.7191 2.51214 68.575 3.05638 68.479C3.63263 68.3509 4.2249 68.2389 4.83316 68.1428C5.44143 68.0148 6.11373 67.8867 6.85006 67.7587C7.58638 67.6306 8.49879 67.4545 9.58727 67.2304C10.1315 67.0704 10.4517 66.7182 10.5477 66.174C10.6758 65.6297 10.7398 64.9414 10.7398 64.1091Z" fill="#030089"/>
</svg>
