<svg width="161" height="36" viewBox="0 0 161 36" fill="none" xmlns="http://www.w3.org/2000/svg">
<path d="M147.45 28.7153C147.647 28.6549 147.835 28.7455 148.017 28.987C148.213 29.2286 148.387 29.523 148.538 29.8703C148.689 30.2024 148.817 30.527 148.923 30.8441C149.028 31.1612 149.111 31.3499 149.172 31.4103C149.187 31.4405 149.232 31.5084 149.308 31.6141C149.398 31.7047 149.489 31.8104 149.579 31.9312C149.67 32.0369 149.761 32.1425 149.851 32.2482C149.957 32.3539 150.032 32.4294 150.078 32.4747C150.078 32.5049 150.115 32.5653 150.191 32.6559C150.281 32.7465 150.349 32.7993 150.395 32.8144C150.41 32.8899 150.463 33.0258 150.553 33.2221C150.659 33.4032 150.719 33.5089 150.734 33.5391C150.855 33.7203 151.036 33.8788 151.278 34.0147C151.535 34.1355 151.806 34.2336 152.093 34.3091C152.38 34.3846 152.667 34.445 152.954 34.4903C153.241 34.5205 153.482 34.5356 153.678 34.5356H153.837C154.35 34.3997 154.818 34.1808 155.241 33.8788C155.679 33.5769 156.049 33.2221 156.351 32.8144C156.668 32.4068 156.91 31.9538 157.076 31.4556C157.242 30.9573 157.325 30.4365 157.325 29.8929C157.325 29.6815 157.31 29.4173 157.279 29.1003C157.249 28.7832 157.136 28.519 156.94 28.3076C156.879 28.2472 156.789 28.1566 156.668 28.0358C156.562 27.9151 156.441 27.7943 156.306 27.6735C156.185 27.5527 156.072 27.4395 155.966 27.3338C155.875 27.2281 155.807 27.1677 155.762 27.1526C155.551 26.9865 155.332 26.8582 155.105 26.7676C154.879 26.6619 154.645 26.5864 154.403 26.5411C154.177 26.4807 153.943 26.4354 153.701 26.4052C153.475 26.3599 153.248 26.3146 153.022 26.2693C152.554 26.1637 152.01 26.0127 151.391 25.8164C150.787 25.605 150.191 25.3484 149.602 25.0464C149.028 24.7444 148.507 24.3972 148.039 24.0046C147.571 23.597 147.247 23.1289 147.065 22.6005C147.02 22.525 146.975 22.3967 146.93 22.2155C146.884 22.0192 146.839 21.8078 146.794 21.5814C146.764 21.3549 146.741 21.1284 146.726 20.9019C146.711 20.6755 146.703 20.4716 146.703 20.2905C146.703 20.0489 146.718 19.9055 146.748 19.8602C146.748 19.8451 146.748 19.7998 146.748 19.7243C146.764 19.6488 146.771 19.5733 146.771 19.4978C146.786 19.4072 146.794 19.3242 146.794 19.2487C146.809 19.1732 146.816 19.1279 146.816 19.1128C146.816 19.0826 146.824 19.0147 146.839 18.909C146.869 18.7882 146.899 18.6674 146.93 18.5466C146.975 18.4258 147.005 18.3126 147.02 18.2069C147.05 18.0861 147.065 18.0106 147.065 17.9804C147.065 17.9653 147.088 17.92 147.133 17.8446C147.194 17.7691 147.254 17.6936 147.315 17.6181C147.39 17.5426 147.45 17.4746 147.496 17.4143C147.556 17.3388 147.594 17.2935 147.609 17.2784C147.654 17.2331 147.707 17.1576 147.768 17.0519C147.843 16.9462 147.919 16.8405 147.994 16.7348C148.07 16.6141 148.137 16.5084 148.198 16.4178C148.273 16.3272 148.326 16.2592 148.356 16.2139C148.447 16.063 148.522 15.9422 148.583 15.8516C148.658 15.761 148.741 15.6855 148.832 15.6251C148.923 15.5647 149.021 15.5043 149.126 15.4439C149.232 15.3835 149.368 15.3005 149.534 15.1948C149.549 15.1495 149.602 15.0891 149.693 15.0136C149.798 14.9231 149.859 14.8778 149.874 14.8778C149.904 14.8476 149.957 14.8098 150.032 14.7645C150.108 14.7041 150.161 14.6739 150.191 14.6739C150.296 14.6437 150.432 14.606 150.598 14.5607C150.78 14.5003 150.953 14.4399 151.119 14.3795C151.285 14.3191 151.429 14.2738 151.55 14.2436C151.686 14.1983 151.753 14.1757 151.753 14.1757C151.889 14.1455 152.025 14.1153 152.161 14.0851C152.282 14.0549 152.388 14.0323 152.478 14.0172C152.584 13.987 152.674 13.9719 152.75 13.9719C153.233 13.9719 153.769 14.0172 154.358 14.1077C154.947 14.1832 155.468 14.2587 155.921 14.3342C155.936 14.3342 155.981 14.3569 156.056 14.4022C156.147 14.4324 156.238 14.4701 156.328 14.5154C156.434 14.5456 156.532 14.5833 156.623 14.6286C156.713 14.6588 156.774 14.6739 156.804 14.6739C156.97 14.6739 157.113 14.6362 157.234 14.5607C157.355 14.4852 157.468 14.4022 157.574 14.3116C157.695 14.221 157.808 14.1379 157.914 14.0625C158.034 13.987 158.178 13.9492 158.344 13.9492C158.465 13.9492 158.563 14.0021 158.638 14.1077C158.714 14.2134 158.767 14.3418 158.797 14.4928C158.842 14.6286 158.865 14.7721 158.865 14.9231C158.88 15.0589 158.887 15.1646 158.887 15.2401C158.887 15.5421 158.827 15.8289 158.706 16.1007C158.601 16.3725 158.533 16.6442 158.502 16.916C158.472 17.1123 158.457 17.369 158.457 17.686C158.457 18.0031 158.434 18.3126 158.389 18.6146C158.344 18.9014 158.246 19.1581 158.095 19.3846C157.944 19.5959 157.71 19.7016 157.393 19.7016C157.181 19.7016 157.015 19.611 156.894 19.4299C156.789 19.2336 156.698 19.0147 156.623 18.7731C156.547 18.5164 156.472 18.2598 156.396 18.0031C156.321 17.7464 156.223 17.5501 156.102 17.4143C155.921 17.1878 155.709 16.9538 155.468 16.7122C155.241 16.4706 154.992 16.2517 154.72 16.0554C154.449 15.844 154.154 15.678 153.837 15.5572C153.535 15.4213 153.218 15.3534 152.886 15.3534H152.773C152.274 15.4741 151.821 15.6251 151.414 15.8063C151.021 15.9875 150.682 16.2215 150.395 16.5084C150.123 16.7952 149.911 17.1425 149.761 17.5501C149.61 17.9578 149.534 18.4485 149.534 19.0222V19.2713C149.534 19.3468 149.557 19.4525 149.602 19.5884C149.647 19.7092 149.693 19.8451 149.738 19.996C149.798 20.147 149.859 20.2905 149.919 20.4263C149.979 20.5471 150.032 20.6302 150.078 20.6755C150.078 20.7208 150.085 20.7661 150.1 20.8114C150.13 20.8415 150.161 20.8717 150.191 20.9019C150.447 21.1133 150.644 21.2643 150.78 21.3549C150.931 21.4455 151.165 21.521 151.482 21.5814C151.497 21.5965 151.557 21.6116 151.663 21.6267C151.769 21.6418 151.889 21.6568 152.025 21.6719C152.161 21.6719 152.289 21.6795 152.41 21.6946C152.531 21.7097 152.614 21.7248 152.659 21.7399C152.674 21.755 152.727 21.7852 152.818 21.8305C152.924 21.8607 153.029 21.8984 153.135 21.9437C153.256 21.9739 153.361 22.0041 153.452 22.0343C153.558 22.0645 153.618 22.0796 153.633 22.0796C153.678 22.0947 153.784 22.1249 153.95 22.1702C154.131 22.2004 154.32 22.2381 154.516 22.2834C154.713 22.3287 154.894 22.3665 155.06 22.3967C155.241 22.4269 155.354 22.442 155.4 22.442C155.46 22.4722 155.551 22.5023 155.671 22.5325C155.807 22.5476 155.89 22.5703 155.921 22.6005C155.936 22.6156 155.966 22.6458 156.011 22.6911C156.072 22.7213 156.132 22.759 156.192 22.8043L156.419 22.9855C156.449 23.0006 156.517 23.0232 156.623 23.0534C156.728 23.0836 156.842 23.1214 156.962 23.1667C157.083 23.1969 157.189 23.2346 157.279 23.2799C157.385 23.3101 157.453 23.3327 157.483 23.3478C157.498 23.3478 157.529 23.3705 157.574 23.4158C157.634 23.4611 157.695 23.5139 157.755 23.5743C157.815 23.6196 157.868 23.6725 157.914 23.7329C157.974 23.7781 158.012 23.8008 158.027 23.8008C158.042 23.831 158.08 23.8687 158.14 23.914C158.2 23.9442 158.268 23.982 158.344 24.0273C158.419 24.0575 158.487 24.0877 158.548 24.1179C158.623 24.1481 158.668 24.1632 158.684 24.1632C159.303 24.6161 159.748 25.1672 160.02 25.8164C160.307 26.4505 160.45 27.1526 160.45 27.9226C160.45 27.9377 160.442 27.9679 160.427 28.0132C160.427 28.0434 160.427 28.0811 160.427 28.1264V28.3076C160.427 28.4435 160.42 28.6473 160.405 28.9191C160.39 29.1909 160.367 29.4702 160.337 29.757C160.322 30.0288 160.307 30.2779 160.292 30.5044C160.276 30.7309 160.269 30.8668 160.269 30.912C160.224 31.1989 160.11 31.5235 159.929 31.8859C159.763 32.2331 159.552 32.5804 159.295 32.9277C159.053 33.2598 158.797 33.5693 158.525 33.8562C158.268 34.1431 158.027 34.3695 157.8 34.5356C157.695 34.6262 157.521 34.7243 157.279 34.83C157.038 34.9357 156.774 35.0414 156.487 35.1471C156.2 35.2377 155.921 35.3283 155.649 35.4189C155.377 35.4943 155.166 35.5547 155.015 35.6H153.18C153.044 35.6 152.871 35.5925 152.659 35.5774C152.448 35.5623 152.237 35.5396 152.025 35.5094C151.829 35.4943 151.655 35.4792 151.504 35.4642C151.353 35.4491 151.27 35.4415 151.255 35.4415C151.21 35.4415 151.127 35.434 151.006 35.4189C150.9 35.4038 150.787 35.3887 150.666 35.3736C150.561 35.3434 150.463 35.3207 150.372 35.3056C150.281 35.2754 150.221 35.2603 150.191 35.2603C150.161 35.2603 150.078 35.2452 149.942 35.215C149.821 35.1697 149.723 35.132 149.647 35.1018C149.481 35.0263 149.308 34.9735 149.126 34.9433C148.96 34.898 148.787 34.8527 148.605 34.8074C148.424 34.747 148.251 34.679 148.085 34.6036C147.919 34.513 147.76 34.3771 147.609 34.1959C147.579 34.1506 147.541 34.0751 147.496 33.9694C147.45 33.8637 147.405 33.7581 147.36 33.6524C147.315 33.5316 147.269 33.4259 147.224 33.3353C147.194 33.2447 147.179 33.1768 147.179 33.1315L147.065 29.055C147.065 28.9946 147.111 28.9266 147.201 28.8511C147.307 28.7606 147.39 28.7153 147.45 28.7153Z" fill="#030089"/>
<path d="M132.368 28.5119C132.368 26.9568 132.406 25.4167 132.482 23.8918C132.557 22.3669 132.595 20.842 132.595 19.3171C132.595 18.849 132.504 18.5018 132.323 18.2753C132.157 18.0488 131.93 17.8903 131.644 17.7997C131.372 17.7091 131.055 17.6638 130.692 17.6638C130.345 17.6638 129.983 17.6487 129.605 17.6185C129.545 17.5581 129.469 17.4751 129.379 17.3694C129.303 17.2637 129.266 17.1807 129.266 17.1203C129.266 17.0448 129.296 16.9618 129.356 16.8712C129.432 16.7655 129.477 16.7126 129.492 16.7126C129.568 16.6522 129.711 16.5239 129.922 16.3276C130.134 16.1163 130.36 15.8898 130.602 15.6482C130.843 15.4066 131.062 15.1802 131.259 14.9688C131.47 14.7574 131.613 14.6064 131.689 14.5158C131.734 14.4857 131.795 14.4253 131.87 14.3347C131.946 14.229 132.029 14.1233 132.119 14.0176C132.21 13.8968 132.3 13.7911 132.391 13.7005C132.482 13.5949 132.549 13.5194 132.595 13.4741C132.64 13.4137 132.746 13.2627 132.912 13.0211C133.093 12.7796 133.304 12.5002 133.546 12.1832C133.788 11.851 134.044 11.5113 134.316 11.164C134.603 10.8017 134.875 10.4771 135.131 10.1902C135.388 9.88825 135.622 9.63913 135.833 9.44285C136.045 9.24658 136.196 9.14844 136.286 9.14844H136.354C136.52 9.23903 136.641 9.34471 136.717 9.4655C136.792 9.58629 136.845 9.72217 136.875 9.87315C136.92 10.0241 136.951 10.1902 136.966 10.3714C136.981 10.5375 137.011 10.7111 137.056 10.8923V10.9602C137.056 11.3679 137.019 11.7755 136.943 12.1832C136.883 12.5908 136.852 13.0211 136.852 13.4741C136.852 13.5194 136.852 13.5798 136.852 13.6553C136.852 13.7156 136.86 13.7836 136.875 13.8591C136.875 13.9346 136.883 14.0252 136.898 14.1308L137.26 14.5158H137.758C138.453 14.5158 139.147 14.4555 139.842 14.3347C140.31 14.2139 140.778 14.0629 141.246 13.8817C141.729 13.6854 142.212 13.5873 142.695 13.5873C143.148 13.5873 143.45 13.7081 143.601 13.9497C143.752 14.1912 143.828 14.5007 143.828 14.8782C143.828 15.2557 143.745 15.5878 143.579 15.8747C143.428 16.1616 143.216 16.4031 142.945 16.5994C142.688 16.7806 142.394 16.9316 142.061 17.0523C141.729 17.158 141.397 17.2184 141.065 17.2335C141.035 17.2486 140.967 17.2637 140.861 17.2788C140.755 17.2788 140.642 17.2864 140.521 17.3015C140.401 17.3015 140.287 17.3015 140.182 17.3015C140.091 17.3015 140.031 17.3015 140 17.3015C139.97 17.3317 139.902 17.3619 139.797 17.3921C139.706 17.4223 139.6 17.4524 139.48 17.4826C139.359 17.5128 139.246 17.543 139.14 17.5732C139.034 17.5883 138.966 17.6034 138.936 17.6185H137.056L136.717 17.7318C136.686 18.1243 136.664 18.5093 136.649 18.8868C136.618 19.2038 136.596 19.536 136.581 19.8833C136.581 20.2154 136.581 20.4947 136.581 20.7212C136.581 20.7514 136.566 20.8495 136.535 21.0156C136.52 21.1817 136.513 21.3025 136.513 21.378C136.513 21.7554 136.543 22.1253 136.603 22.4877C136.679 22.8501 136.717 23.2275 136.717 23.6201C136.717 24.2995 136.686 24.994 136.626 25.7036C136.581 26.3981 136.558 27.1002 136.558 27.8098C136.558 27.9759 136.558 28.1495 136.558 28.3307C136.558 28.5119 136.566 28.6931 136.581 28.8742C136.46 29.0101 136.392 29.1385 136.377 29.2592C136.362 29.38 136.354 29.5235 136.354 29.6895C136.354 29.9915 136.4 30.2708 136.49 30.5275C136.596 30.7691 136.732 31.0257 136.898 31.2975C137.215 31.8259 137.562 32.1883 137.94 32.3846C138.317 32.5657 138.83 32.6563 139.48 32.6563C139.872 32.6563 140.31 32.5733 140.793 32.4072C141.291 32.226 141.722 32.0751 142.084 31.9543C142.114 31.9543 142.205 31.9316 142.356 31.8863C142.507 31.8259 142.673 31.7655 142.854 31.7051C143.035 31.6297 143.201 31.5693 143.352 31.524C143.503 31.4636 143.601 31.4258 143.647 31.4107H143.828C143.949 31.4107 144.039 31.456 144.1 31.5466C144.16 31.6372 144.19 31.7504 144.19 31.8863C144.19 32.3091 144.069 32.6714 143.828 32.9734C143.601 33.2603 143.322 33.5094 142.99 33.7208C142.658 33.9321 142.295 34.1133 141.903 34.2643C141.525 34.4153 141.193 34.5587 140.906 34.6946C140.861 34.6946 140.77 34.7248 140.635 34.7852C140.514 34.8305 140.416 34.8682 140.34 34.8984C139.902 35.0343 139.48 35.1853 139.072 35.3514C138.679 35.5174 138.242 35.6005 137.758 35.6005C137.456 35.6005 137.117 35.5703 136.739 35.5099C136.377 35.4495 135.999 35.374 135.607 35.2834C135.229 35.1777 134.86 35.0569 134.497 34.9211C134.15 34.7701 133.855 34.604 133.614 34.4228C133.554 34.3775 133.486 34.3247 133.41 34.2643C133.335 34.1888 133.259 34.1133 133.184 34.0378C133.123 33.9472 133.063 33.8717 133.002 33.8113C132.957 33.751 132.934 33.7057 132.934 33.6755L132.391 31.6146C132.391 31.5995 132.391 31.4711 132.391 31.2296C132.391 30.988 132.383 30.7011 132.368 30.369C132.368 30.0368 132.368 29.6971 132.368 29.3498C132.368 29.0026 132.368 28.7233 132.368 28.5119Z" fill="#030089"/>
<path d="M114.068 28.7153C114.264 28.6549 114.453 28.7455 114.634 28.987C114.83 29.2286 115.004 29.523 115.155 29.8703C115.306 30.2024 115.434 30.527 115.54 30.8441C115.645 31.1612 115.728 31.3499 115.789 31.4103C115.804 31.4405 115.849 31.5084 115.925 31.6141C116.015 31.7047 116.106 31.8104 116.197 31.9312C116.287 32.0369 116.378 32.1425 116.468 32.2482C116.574 32.3539 116.649 32.4294 116.695 32.4747C116.695 32.5049 116.733 32.5653 116.808 32.6559C116.899 32.7465 116.967 32.7993 117.012 32.8144C117.027 32.8899 117.08 33.0258 117.17 33.2221C117.276 33.4032 117.336 33.5089 117.352 33.5391C117.472 33.7203 117.653 33.8788 117.895 34.0147C118.152 34.1355 118.424 34.2336 118.71 34.3091C118.997 34.3846 119.284 34.445 119.571 34.4903C119.858 34.5205 120.099 34.5356 120.296 34.5356H120.454C120.968 34.3997 121.436 34.1808 121.858 33.8788C122.296 33.5769 122.666 33.2221 122.968 32.8144C123.285 32.4068 123.527 31.9538 123.693 31.4556C123.859 30.9573 123.942 30.4365 123.942 29.8929C123.942 29.6815 123.927 29.4173 123.897 29.1003C123.866 28.7832 123.753 28.519 123.557 28.3076C123.496 28.2472 123.406 28.1566 123.285 28.0358C123.179 27.9151 123.059 27.7943 122.923 27.6735C122.802 27.5527 122.689 27.4395 122.583 27.3338C122.492 27.2281 122.425 27.1677 122.379 27.1526C122.168 26.9865 121.949 26.8582 121.722 26.7676C121.496 26.6619 121.262 26.5864 121.02 26.5411C120.794 26.4807 120.56 26.4354 120.318 26.4052C120.092 26.3599 119.865 26.3146 119.639 26.2693C119.171 26.1637 118.627 26.0127 118.008 25.8164C117.404 25.605 116.808 25.3484 116.219 25.0464C115.645 24.7444 115.125 24.3972 114.657 24.0046C114.188 23.597 113.864 23.1289 113.683 22.6005C113.637 22.525 113.592 22.3967 113.547 22.2155C113.501 22.0192 113.456 21.8078 113.411 21.5814C113.381 21.3549 113.358 21.1284 113.343 20.9019C113.328 20.6755 113.32 20.4716 113.32 20.2905C113.32 20.0489 113.335 19.9055 113.366 19.8602C113.366 19.8451 113.366 19.7998 113.366 19.7243C113.381 19.6488 113.388 19.5733 113.388 19.4978C113.403 19.4072 113.411 19.3242 113.411 19.2487C113.426 19.1732 113.434 19.1279 113.434 19.1128C113.434 19.0826 113.441 19.0147 113.456 18.909C113.486 18.7882 113.517 18.6674 113.547 18.5466C113.592 18.4258 113.622 18.3126 113.637 18.2069C113.668 18.0861 113.683 18.0106 113.683 17.9804C113.683 17.9653 113.705 17.92 113.751 17.8446C113.811 17.7691 113.871 17.6936 113.932 17.6181C114.007 17.5426 114.068 17.4746 114.113 17.4143C114.173 17.3388 114.211 17.2935 114.226 17.2784C114.271 17.2331 114.324 17.1576 114.385 17.0519C114.46 16.9462 114.536 16.8405 114.611 16.7348C114.687 16.6141 114.755 16.5084 114.815 16.4178C114.891 16.3272 114.943 16.2592 114.974 16.2139C115.064 16.063 115.14 15.9422 115.2 15.8516C115.276 15.761 115.359 15.6855 115.449 15.6251C115.54 15.5647 115.638 15.5043 115.744 15.4439C115.849 15.3835 115.985 15.3005 116.151 15.1948C116.166 15.1495 116.219 15.0891 116.31 15.0136C116.415 14.9231 116.476 14.8778 116.491 14.8778C116.521 14.8476 116.574 14.8098 116.649 14.7645C116.725 14.7041 116.778 14.6739 116.808 14.6739C116.914 14.6437 117.05 14.606 117.216 14.5607C117.397 14.5003 117.57 14.4399 117.737 14.3795C117.903 14.3191 118.046 14.2738 118.167 14.2436C118.303 14.1983 118.371 14.1757 118.371 14.1757C118.507 14.1455 118.642 14.1153 118.778 14.0851C118.899 14.0549 119.005 14.0323 119.095 14.0172C119.201 13.987 119.292 13.9719 119.367 13.9719C119.85 13.9719 120.386 14.0172 120.975 14.1077C121.564 14.1832 122.085 14.2587 122.538 14.3342C122.553 14.3342 122.598 14.3569 122.674 14.4022C122.764 14.4324 122.855 14.4701 122.945 14.5154C123.051 14.5456 123.149 14.5833 123.24 14.6286C123.33 14.6588 123.391 14.6739 123.421 14.6739C123.587 14.6739 123.731 14.6362 123.851 14.5607C123.972 14.4852 124.085 14.4022 124.191 14.3116C124.312 14.221 124.425 14.1379 124.531 14.0625C124.652 13.987 124.795 13.9492 124.961 13.9492C125.082 13.9492 125.18 14.0021 125.255 14.1077C125.331 14.2134 125.384 14.3418 125.414 14.4928C125.459 14.6286 125.482 14.7721 125.482 14.9231C125.497 15.0589 125.505 15.1646 125.505 15.2401C125.505 15.5421 125.444 15.8289 125.323 16.1007C125.218 16.3725 125.15 16.6442 125.12 16.916C125.089 17.1123 125.074 17.369 125.074 17.686C125.074 18.0031 125.052 18.3126 125.006 18.6146C124.961 18.9014 124.863 19.1581 124.712 19.3846C124.561 19.5959 124.327 19.7016 124.01 19.7016C123.798 19.7016 123.632 19.611 123.512 19.4299C123.406 19.2336 123.315 19.0147 123.24 18.7731C123.164 18.5164 123.089 18.2598 123.013 18.0031C122.938 17.7464 122.84 17.5501 122.719 17.4143C122.538 17.1878 122.326 16.9538 122.085 16.7122C121.858 16.4706 121.609 16.2517 121.337 16.0554C121.066 15.844 120.771 15.678 120.454 15.5572C120.152 15.4213 119.835 15.3534 119.503 15.3534H119.39C118.892 15.4741 118.439 15.6251 118.031 15.8063C117.638 15.9875 117.299 16.2215 117.012 16.5084C116.74 16.7952 116.529 17.1425 116.378 17.5501C116.227 17.9578 116.151 18.4485 116.151 19.0222V19.2713C116.151 19.3468 116.174 19.4525 116.219 19.5884C116.264 19.7092 116.31 19.8451 116.355 19.996C116.415 20.147 116.476 20.2905 116.536 20.4263C116.597 20.5471 116.649 20.6302 116.695 20.6755C116.695 20.7208 116.702 20.7661 116.717 20.8114C116.748 20.8415 116.778 20.8717 116.808 20.9019C117.065 21.1133 117.261 21.2643 117.397 21.3549C117.548 21.4455 117.782 21.521 118.099 21.5814C118.114 21.5965 118.174 21.6116 118.28 21.6267C118.386 21.6418 118.507 21.6568 118.642 21.6719C118.778 21.6719 118.907 21.6795 119.027 21.6946C119.148 21.7097 119.231 21.7248 119.277 21.7399C119.292 21.755 119.344 21.7852 119.435 21.8305C119.541 21.8607 119.646 21.8984 119.752 21.9437C119.873 21.9739 119.979 22.0041 120.069 22.0343C120.175 22.0645 120.235 22.0796 120.25 22.0796C120.296 22.0947 120.401 22.1249 120.567 22.1702C120.749 22.2004 120.937 22.2381 121.134 22.2834C121.33 22.3287 121.511 22.3665 121.677 22.3967C121.858 22.4269 121.972 22.442 122.017 22.442C122.077 22.4722 122.168 22.5023 122.289 22.5325C122.425 22.5476 122.508 22.5703 122.538 22.6005C122.553 22.6156 122.583 22.6458 122.628 22.6911C122.689 22.7213 122.749 22.759 122.81 22.8043L123.036 22.9855C123.066 23.0006 123.134 23.0232 123.24 23.0534C123.346 23.0836 123.459 23.1214 123.58 23.1667C123.7 23.1969 123.806 23.2346 123.897 23.2799C124.002 23.3101 124.07 23.3327 124.1 23.3478C124.116 23.3478 124.146 23.3705 124.191 23.4158C124.251 23.4611 124.312 23.5139 124.372 23.5743C124.433 23.6196 124.485 23.6725 124.531 23.7329C124.591 23.7781 124.629 23.8008 124.644 23.8008C124.659 23.831 124.697 23.8687 124.757 23.914C124.818 23.9442 124.886 23.982 124.961 24.0273C125.037 24.0575 125.104 24.0877 125.165 24.1179C125.24 24.1481 125.286 24.1632 125.301 24.1632C125.92 24.6161 126.365 25.1672 126.637 25.8164C126.924 26.4505 127.067 27.1526 127.067 27.9226C127.067 27.9377 127.06 27.9679 127.045 28.0132C127.045 28.0434 127.045 28.0811 127.045 28.1264V28.3076C127.045 28.4435 127.037 28.6473 127.022 28.9191C127.007 29.1909 126.984 29.4702 126.954 29.757C126.939 30.0288 126.924 30.2779 126.909 30.5044C126.894 30.7309 126.886 30.8668 126.886 30.912C126.841 31.1989 126.728 31.5235 126.546 31.8859C126.38 32.2331 126.169 32.5804 125.912 32.9277C125.671 33.2598 125.414 33.5693 125.142 33.8562C124.886 34.1431 124.644 34.3695 124.417 34.5356C124.312 34.6262 124.138 34.7243 123.897 34.83C123.655 34.9357 123.391 35.0414 123.104 35.1471C122.817 35.2377 122.538 35.3283 122.266 35.4189C121.994 35.4943 121.783 35.5547 121.632 35.6H119.797C119.662 35.6 119.488 35.5925 119.277 35.5774C119.065 35.5623 118.854 35.5396 118.642 35.5094C118.446 35.4943 118.273 35.4792 118.122 35.4642C117.971 35.4491 117.888 35.4415 117.872 35.4415C117.827 35.4415 117.744 35.434 117.623 35.4189C117.518 35.4038 117.404 35.3887 117.284 35.3736C117.178 35.3434 117.08 35.3207 116.989 35.3056C116.899 35.2754 116.838 35.2603 116.808 35.2603C116.778 35.2603 116.695 35.2452 116.559 35.215C116.438 35.1697 116.34 35.132 116.264 35.1018C116.098 35.0263 115.925 34.9735 115.744 34.9433C115.577 34.898 115.404 34.8527 115.223 34.8074C115.042 34.747 114.868 34.679 114.702 34.6036C114.536 34.513 114.377 34.3771 114.226 34.1959C114.196 34.1506 114.158 34.0751 114.113 33.9694C114.068 33.8637 114.022 33.7581 113.977 33.6524C113.932 33.5316 113.886 33.4259 113.841 33.3353C113.811 33.2447 113.796 33.1768 113.796 33.1315L113.683 29.055C113.683 28.9946 113.728 28.9266 113.819 28.8511C113.924 28.7606 114.007 28.7153 114.068 28.7153Z" fill="#030089"/>
<path d="M97.2791 20.5172C97.2791 20.6077 97.3169 20.6983 97.3924 20.7889C97.4829 20.8795 97.5811 20.9701 97.6868 21.0607C97.8076 21.1362 97.9208 21.2041 98.0265 21.2645C98.1473 21.3098 98.2454 21.3476 98.3209 21.3777H100.676H102.986C103.107 21.3627 103.311 21.34 103.598 21.3098C103.9 21.2796 104.209 21.2494 104.526 21.2192C104.858 21.1739 105.168 21.1286 105.455 21.0833C105.757 21.038 105.968 20.9927 106.089 20.9475C106.119 20.9173 106.157 20.8493 106.202 20.7436C106.263 20.6228 106.293 20.5473 106.293 20.5172V20.3133V20.1321C106.293 20.0869 106.285 20.0038 106.27 19.883C106.255 19.7471 106.232 19.6113 106.202 19.4754C106.187 19.3244 106.164 19.181 106.134 19.0451C106.119 18.9092 106.104 18.8111 106.089 18.7507C105.938 18.645 105.81 18.5166 105.704 18.3657C105.598 18.2147 105.485 18.0712 105.364 17.9354C105.259 17.7844 105.138 17.6485 105.002 17.5277C104.881 17.4069 104.73 17.3088 104.549 17.2333C104.443 17.188 104.3 17.1276 104.119 17.0521C103.953 16.9615 103.786 16.8785 103.62 16.803C103.454 16.7275 103.311 16.6596 103.19 16.5992C103.069 16.5388 103.001 16.501 102.986 16.4859H102.828H102.647C102.541 16.501 102.405 16.5237 102.239 16.5539C102.073 16.5841 101.907 16.6143 101.741 16.6445C101.575 16.6596 101.431 16.6747 101.31 16.6898C101.19 16.7049 101.122 16.7124 101.107 16.7124C101.061 16.7124 100.986 16.7426 100.88 16.803C100.789 16.8483 100.684 16.9011 100.563 16.9615C100.457 17.0219 100.352 17.0823 100.246 17.1427C100.155 17.188 100.095 17.2182 100.065 17.2333C99.8081 17.3239 99.5589 17.3918 99.3174 17.4371C99.0909 17.4824 98.8946 17.6334 98.7285 17.8901C98.6983 17.9354 98.6304 18.0486 98.5247 18.2298C98.419 18.411 98.3511 18.5242 98.3209 18.5695C98.2303 18.7356 98.1246 18.8941 98.0038 19.0451C97.883 19.181 97.7698 19.3244 97.6641 19.4754C97.5584 19.6113 97.4678 19.7698 97.3924 19.951C97.3169 20.117 97.2791 20.3058 97.2791 20.5172ZM93.8594 26.0431V25.6128C93.8745 25.5373 93.8896 25.3939 93.9047 25.1825C93.9349 24.9711 93.95 24.7522 93.95 24.5257C93.9651 24.2842 93.9802 24.0577 93.9953 23.8463C94.0104 23.6349 94.033 23.4915 94.0632 23.416C94.0783 23.1442 94.116 22.8423 94.1764 22.5101C94.2519 22.1629 94.335 21.8156 94.4256 21.4683C94.5312 21.1211 94.652 20.7889 94.7879 20.4719C94.9238 20.1397 95.0748 19.8528 95.2409 19.6113C95.256 19.5962 95.2862 19.566 95.3314 19.5207C95.3918 19.4603 95.4522 19.4074 95.5126 19.3621C95.573 19.3017 95.6259 19.2489 95.6712 19.2036C95.7316 19.1583 95.7693 19.1281 95.7844 19.113C95.7995 19.0979 95.8146 19.0526 95.8297 18.9771C95.8599 18.9016 95.8901 18.8262 95.9203 18.7507C95.9505 18.6752 95.9731 18.6072 95.9882 18.5468C96.0184 18.4713 96.0411 18.4261 96.0562 18.411C96.3128 17.9731 96.6299 17.6107 97.0073 17.3239C97.3848 17.037 97.7698 16.7577 98.1624 16.4859C98.4341 16.3199 98.6832 16.1689 98.9097 16.033C99.1513 15.882 99.3853 15.7537 99.6118 15.648C99.8534 15.5272 100.102 15.4215 100.359 15.3309C100.631 15.2403 100.933 15.1648 101.265 15.1044C101.295 15.1044 101.416 15.0969 101.627 15.0818C101.854 15.0667 102.111 15.0592 102.397 15.0592C102.684 15.0441 102.979 15.029 103.281 15.0139C103.583 14.9988 103.824 14.9912 104.005 14.9912H104.209H104.413C104.911 15.112 105.379 15.2554 105.817 15.4215C106.27 15.5725 106.685 15.7688 107.063 16.0103C107.455 16.2519 107.81 16.5463 108.127 16.8936C108.459 17.2257 108.761 17.6258 109.033 18.0939C109.048 18.1241 109.071 18.2147 109.101 18.3657C109.131 18.5015 109.161 18.5695 109.192 18.5695C109.282 18.796 109.388 18.9998 109.509 19.181C109.645 19.3621 109.765 19.5433 109.871 19.7245C109.992 19.8906 110.09 20.0718 110.165 20.268C110.241 20.4492 110.279 20.6606 110.279 20.9022C110.279 21.189 110.158 21.4683 109.916 21.7401C109.69 21.9968 109.509 22.2006 109.373 22.3516C109.282 22.3818 109.116 22.4195 108.875 22.4648C108.648 22.5101 108.391 22.5554 108.105 22.6007C107.833 22.646 107.553 22.6837 107.267 22.7139C106.995 22.7441 106.768 22.7592 106.587 22.7592C106.527 22.7592 106.391 22.7592 106.18 22.7592C105.983 22.7441 105.742 22.729 105.455 22.7139C105.183 22.6988 104.889 22.6913 104.572 22.6913C104.254 22.6762 103.953 22.6686 103.666 22.6686C103.364 22.6686 103.099 22.6837 102.873 22.7139C102.662 22.7441 102.518 22.7592 102.443 22.7592C102.428 22.7592 102.36 22.7668 102.239 22.7819C102.133 22.797 102.012 22.8196 101.877 22.8498C101.741 22.8649 101.612 22.88 101.492 22.8951C101.371 22.9102 101.295 22.9178 101.265 22.9178C101.099 22.9329 100.857 22.9404 100.54 22.9404C100.223 22.9404 99.8685 22.9404 99.4759 22.9404C99.0834 22.9404 98.7134 22.9404 98.3662 22.9404C98.034 22.9404 97.8 22.9329 97.6641 22.9178C97.5433 22.9329 97.4603 22.9782 97.415 23.0536C97.3697 23.114 97.332 23.182 97.3018 23.2575C97.3018 23.2575 97.2942 23.2952 97.2791 23.3707C97.2791 23.4311 97.2791 23.5066 97.2791 23.5972C97.2791 23.6878 97.2791 23.7859 97.2791 23.8916C97.2791 23.9822 97.2791 24.0577 97.2791 24.1181C97.2791 24.1936 97.2791 24.3068 97.2791 24.4578C97.2791 24.6088 97.2791 24.7597 97.2791 24.9107C97.2791 25.0466 97.2791 25.1749 97.2791 25.2957C97.2942 25.4165 97.3018 25.4845 97.3018 25.4996C97.3169 25.8166 97.4376 26.2469 97.6641 26.7905C97.8906 27.3189 98.1548 27.8549 98.4568 28.3984C98.7738 28.9419 99.106 29.4477 99.4533 29.9158C99.8156 30.3687 100.148 30.6707 100.45 30.8217C100.51 30.867 100.654 30.95 100.88 31.0708C101.107 31.1916 101.348 31.3199 101.605 31.4558C101.861 31.5766 102.103 31.6974 102.329 31.8182C102.571 31.9238 102.737 31.9993 102.828 32.0446C102.903 32.0446 102.956 32.0371 102.986 32.022C103.032 32.0069 103.084 31.9993 103.145 31.9993C103.447 31.9993 103.726 32.0371 103.983 32.1126C104.254 32.1881 104.541 32.2258 104.843 32.2258H105.183C105.259 32.2258 105.342 32.2183 105.432 32.2032L107.697 31.0255C107.757 30.8443 107.833 30.6631 107.923 30.482C108.014 30.2857 108.12 30.1121 108.24 29.9611C108.376 29.8101 108.527 29.6893 108.693 29.5987C108.875 29.5081 109.093 29.4628 109.35 29.4628H109.373C109.403 29.493 109.441 29.5459 109.486 29.6214C109.546 29.6969 109.577 29.7422 109.577 29.7572C109.577 29.7874 109.546 29.8705 109.486 30.0064C109.441 30.1423 109.403 30.2479 109.373 30.3234C109.207 30.7613 109.033 31.1765 108.852 31.569C108.671 31.9616 108.444 32.3541 108.172 32.7467C108.142 32.7769 108.089 32.8297 108.014 32.9052C107.938 32.9807 107.855 33.0638 107.765 33.1543C107.674 33.2449 107.584 33.3355 107.493 33.4261C107.418 33.5016 107.357 33.562 107.312 33.6073C107.282 33.6224 107.221 33.6526 107.131 33.6979C107.055 33.7432 106.965 33.796 106.859 33.8564C106.768 33.9017 106.685 33.9545 106.61 34.0149C106.534 34.0602 106.489 34.0904 106.474 34.1055C106.127 34.3169 105.817 34.5056 105.545 34.6717C105.289 34.8378 105.024 34.9812 104.753 35.102C104.496 35.2228 104.217 35.3209 103.915 35.3964C103.628 35.4568 103.296 35.487 102.918 35.487C101.922 35.487 100.971 35.3738 100.065 35.1473C99.1588 34.9057 98.336 34.5509 97.5962 34.0829C96.8564 33.5997 96.2222 32.9958 95.6938 32.2711C95.1805 31.5313 94.8181 30.6556 94.6067 29.644C94.5463 29.4779 94.4784 29.2288 94.4029 28.8967C94.3274 28.5645 94.2519 28.2248 94.1764 27.8775C94.1009 27.5303 94.033 27.2132 93.9726 26.9263C93.9122 26.6244 93.8745 26.4356 93.8594 26.3602V26.0431Z" fill="#030089"/>
<path d="M75.7656 34.7845C75.7656 34.5429 75.8109 34.3542 75.9015 34.2183C76.0072 34.0824 76.1355 33.9843 76.2865 33.9239C76.4526 33.8484 76.6338 33.8031 76.83 33.788C77.0414 33.7578 77.2452 33.7352 77.4415 33.7201C77.4717 33.6899 77.5472 33.6748 77.668 33.6748C77.7888 33.6748 77.9171 33.6823 78.053 33.6974C78.204 33.7125 78.3021 33.7201 78.3474 33.7201C78.4984 33.6295 78.6494 33.5163 78.8004 33.3804C78.9664 33.2294 79.1099 33.0709 79.2307 32.9048C79.3665 32.7236 79.4722 32.5349 79.5477 32.3386C79.6383 32.1272 79.6836 31.9234 79.6836 31.7271L79.7515 27.4468L79.7968 26.5862L79.978 22.2832C80.0233 22.0114 80.046 21.7699 80.046 21.5585C80.0611 21.332 80.0686 21.1131 80.0686 20.9017C80.0686 20.645 80.0384 20.3657 79.978 20.0638C79.9327 19.7467 79.8346 19.4674 79.6836 19.2258C79.4722 18.8785 79.2156 18.5539 78.9136 18.252C78.6267 17.9349 78.2946 17.6707 77.9171 17.4593C77.8869 17.4442 77.8265 17.4291 77.7359 17.414C77.6454 17.3838 77.5472 17.3536 77.4415 17.3234C77.3509 17.2932 77.2603 17.2555 77.1698 17.2102C77.0943 17.1498 77.0565 17.0894 77.0565 17.029C77.0565 16.878 77.1849 16.712 77.4415 16.5308C77.6982 16.3496 77.9926 16.176 78.3248 16.0099C78.6569 15.8287 78.9815 15.6777 79.2986 15.5569C79.6308 15.4211 79.8572 15.3154 79.978 15.2399C80.1894 15.1493 80.3857 15.0361 80.5669 14.9002C80.7631 14.7492 80.9519 14.6058 81.133 14.4699C81.3293 14.334 81.5256 14.2208 81.7219 14.1302C81.9181 14.0245 82.1371 13.9716 82.3786 13.9716C82.5598 13.9716 82.7032 14.0773 82.8089 14.2887C82.9146 14.5001 82.9977 14.7643 83.0581 15.0814C83.1184 15.3833 83.1713 15.723 83.2166 16.1005C83.2619 16.4628 83.3147 16.8025 83.3751 17.1196C83.4355 17.4216 83.511 17.6782 83.6016 17.8896C83.6922 18.101 83.8205 18.2067 83.9866 18.2067C84.0923 18.2067 84.1602 18.1991 84.1904 18.184C84.2206 18.1689 84.281 18.1085 84.3716 18.0029C84.3867 17.9727 84.4546 17.8745 84.5754 17.7084C84.6962 17.5273 84.8321 17.3385 84.9831 17.1423C85.1492 16.9309 85.3001 16.7422 85.436 16.5761C85.5719 16.41 85.6625 16.3119 85.7078 16.2817C85.8588 16.1005 86.123 15.874 86.5004 15.6022C86.8779 15.3305 87.2856 15.0663 87.7234 14.8096C88.1763 14.5529 88.6142 14.334 89.0369 14.1528C89.4597 13.9565 89.7843 13.8584 90.0108 13.8584C90.3278 13.8584 90.6298 13.9188 90.9167 14.0396C91.2186 14.1604 91.4829 14.334 91.7093 14.5605C91.9358 14.7718 92.117 15.021 92.2529 15.3078C92.3887 15.5947 92.4567 15.8967 92.4567 16.2137C92.4567 16.8176 92.3208 17.3461 92.049 17.799C91.7924 18.252 91.347 18.6068 90.7128 18.8635H90.4411C90.1693 18.8635 89.9202 18.8031 89.6937 18.6823C89.4672 18.5464 89.2408 18.403 89.0143 18.252C88.8029 18.0859 88.584 17.9425 88.3575 17.8217C88.1311 17.6858 87.8895 17.6179 87.6328 17.6179C87.2856 17.6179 86.976 17.6782 86.7043 17.799C86.4476 17.9047 86.1834 18.018 85.9116 18.1387C85.8512 18.184 85.7531 18.2444 85.6172 18.3199C85.4964 18.3803 85.3681 18.4558 85.2322 18.5464C85.1114 18.6219 84.9906 18.6898 84.8698 18.7502C84.7642 18.8106 84.6887 18.8484 84.6434 18.8635C84.4924 18.9691 84.3565 19.1201 84.2357 19.3164C84.1149 19.5127 84.0092 19.7316 83.9187 19.9732C83.8432 20.1996 83.7752 20.4337 83.7148 20.6752C83.6695 20.9168 83.6393 21.1282 83.6242 21.3094C83.6242 21.3245 83.6167 21.3999 83.6016 21.5358C83.5865 21.6566 83.5638 21.8001 83.5336 21.9661C83.5186 22.1322 83.5035 22.2983 83.4884 22.4644C83.4733 22.6154 83.4657 22.7361 83.4657 22.8267V22.872V22.9853C83.4657 23.0909 83.4657 23.3023 83.4657 23.6194C83.4808 23.9213 83.4959 24.2837 83.511 24.7065C83.5261 25.1141 83.5336 25.552 83.5336 26.02C83.5487 26.4729 83.5638 26.9108 83.5789 27.3335C83.594 27.7412 83.6016 28.1035 83.6016 28.4206C83.6167 28.7226 83.6242 28.9264 83.6242 29.0321V31.4101C83.6393 31.4855 83.6695 31.629 83.7148 31.8404C83.7601 32.0517 83.813 32.2782 83.8734 32.5198C83.9488 32.7462 84.0243 32.9652 84.0998 33.1765C84.1904 33.3728 84.281 33.4936 84.3716 33.5389C84.5075 33.5993 84.6962 33.6521 84.9378 33.6974C85.1945 33.7427 85.4436 33.8031 85.6851 33.8786C85.9418 33.939 86.1607 34.0296 86.3419 34.1504C86.5231 34.2712 86.6137 34.4297 86.6137 34.626C86.6137 34.7921 86.5608 34.9355 86.4551 35.0563C86.3495 35.162 86.2211 35.2525 86.0701 35.328C85.9192 35.4035 85.7531 35.4564 85.5719 35.4866C85.4058 35.5319 85.2548 35.5545 85.119 35.5545C84.7717 35.5545 84.4169 35.5243 84.0545 35.4639C83.7073 35.4035 83.36 35.3733 83.0128 35.3733C82.6202 35.3733 82.2126 35.4035 81.7898 35.4639C81.3822 35.5243 80.9896 35.5545 80.6121 35.5545H80.5442C80.514 35.5545 80.4536 35.547 80.363 35.5319C80.2875 35.5319 80.1969 35.5243 80.0913 35.5092C80.0007 35.5092 79.9101 35.5017 79.8195 35.4866C79.744 35.4866 79.6987 35.4866 79.6836 35.4866C79.6383 35.4866 79.5251 35.4941 79.3439 35.5092C79.1627 35.5394 79.0344 35.5545 78.9589 35.5545H78.0983H77.3962C77.2151 35.5545 77.0263 35.547 76.83 35.5319C76.6338 35.5168 76.4526 35.4866 76.2865 35.4413C76.1355 35.3809 76.0072 35.3054 75.9015 35.2148C75.8109 35.1091 75.7656 34.9657 75.7656 34.7845Z" fill="#030089"/>
<path d="M60.8651 20.5172C60.8651 20.6077 60.9028 20.6983 60.9783 20.7889C61.0689 20.8795 61.167 20.9701 61.2727 21.0607C61.3935 21.1362 61.5067 21.2041 61.6124 21.2645C61.7332 21.3098 61.8313 21.3476 61.9068 21.3777H64.2621H66.5722C66.693 21.3627 66.8968 21.34 67.1837 21.3098C67.4856 21.2796 67.7951 21.2494 68.1122 21.2192C68.4444 21.1739 68.7539 21.1286 69.0407 21.0833C69.3427 21.038 69.5541 20.9927 69.6749 20.9475C69.7051 20.9173 69.7428 20.8493 69.7881 20.7436C69.8485 20.6228 69.8787 20.5473 69.8787 20.5172V20.3133V20.1321C69.8787 20.0869 69.8711 20.0038 69.856 19.883C69.8409 19.7471 69.8183 19.6113 69.7881 19.4754C69.773 19.3244 69.7503 19.181 69.7201 19.0451C69.7051 18.9092 69.69 18.8111 69.6749 18.7507C69.5239 18.645 69.3955 18.5166 69.2899 18.3657C69.1842 18.2147 69.0709 18.0712 68.9501 17.9354C68.8445 17.7844 68.7237 17.6485 68.5878 17.5277C68.467 17.4069 68.316 17.3088 68.1348 17.2333C68.0292 17.188 67.8857 17.1276 67.7045 17.0521C67.5385 16.9615 67.3724 16.8785 67.2063 16.803C67.0402 16.7275 66.8968 16.6596 66.776 16.5992C66.6552 16.5388 66.5873 16.501 66.5722 16.4859H66.4136H66.2325C66.1268 16.501 65.9909 16.5237 65.8248 16.5539C65.6587 16.5841 65.4927 16.6143 65.3266 16.6445C65.1605 16.6596 65.0171 16.6747 64.8963 16.6898C64.7755 16.7049 64.7075 16.7124 64.6924 16.7124C64.6472 16.7124 64.5717 16.7426 64.466 16.803C64.3754 16.8483 64.2697 16.9011 64.1489 16.9615C64.0432 17.0219 63.9375 17.0823 63.8319 17.1427C63.7413 17.188 63.6809 17.2182 63.6507 17.2333C63.394 17.3239 63.1449 17.3918 62.9033 17.4371C62.6768 17.4824 62.4806 17.6334 62.3145 17.8901C62.2843 17.9354 62.2163 18.0486 62.1107 18.2298C62.005 18.411 61.937 18.5242 61.9068 18.5695C61.8162 18.7356 61.7106 18.8941 61.5898 19.0451C61.469 19.181 61.3557 19.3244 61.2501 19.4754C61.1444 19.6113 61.0538 19.7698 60.9783 19.951C60.9028 20.117 60.8651 20.3058 60.8651 20.5172ZM57.4453 26.0431V25.6128C57.4604 25.5373 57.4755 25.3939 57.4906 25.1825C57.5208 24.9711 57.5359 24.7522 57.5359 24.5257C57.551 24.2842 57.5661 24.0577 57.5812 23.8463C57.5963 23.6349 57.6189 23.4915 57.6491 23.416C57.6642 23.1442 57.702 22.8423 57.7624 22.5101C57.8379 22.1629 57.9209 21.8156 58.0115 21.4683C58.1172 21.1211 58.238 20.7889 58.3739 20.4719C58.5097 20.1397 58.6607 19.8528 58.8268 19.6113C58.8419 19.5962 58.8721 19.566 58.9174 19.5207C58.9778 19.4603 59.0382 19.4074 59.0986 19.3621C59.159 19.3017 59.2118 19.2489 59.2571 19.2036C59.3175 19.1583 59.3552 19.1281 59.3703 19.113C59.3854 19.0979 59.4005 19.0526 59.4156 18.9771C59.4458 18.9016 59.476 18.8262 59.5062 18.7507C59.5364 18.6752 59.5591 18.6072 59.5742 18.5468C59.6044 18.4713 59.627 18.4261 59.6421 18.411C59.8988 17.9731 60.2158 17.6107 60.5933 17.3239C60.9707 17.037 61.3557 16.7577 61.7483 16.4859C62.0201 16.3199 62.2692 16.1689 62.4957 16.033C62.7372 15.882 62.9713 15.7537 63.1977 15.648C63.4393 15.5272 63.6884 15.4215 63.9451 15.3309C64.2169 15.2403 64.5188 15.1648 64.851 15.1044C64.8812 15.1044 65.002 15.0969 65.2133 15.0818C65.4398 15.0667 65.6965 15.0592 65.9833 15.0592C66.2702 15.0441 66.5646 15.029 66.8666 15.0139C67.1686 14.9988 67.4101 14.9912 67.5913 14.9912H67.7951H67.999C68.4972 15.112 68.9652 15.2554 69.4031 15.4215C69.856 15.5725 70.2712 15.7688 70.6487 16.0103C71.0412 16.2519 71.396 16.5463 71.7131 16.8936C72.0453 17.2257 72.3472 17.6258 72.619 18.0939C72.6341 18.1241 72.6567 18.2147 72.6869 18.3657C72.7171 18.5015 72.7473 18.5695 72.7775 18.5695C72.8681 18.796 72.9738 18.9998 73.0946 19.181C73.2305 19.3621 73.3513 19.5433 73.457 19.7245C73.5777 19.8906 73.6759 20.0718 73.7514 20.268C73.8269 20.4492 73.8646 20.6606 73.8646 20.9022C73.8646 21.189 73.7438 21.4683 73.5022 21.7401C73.2758 21.9968 73.0946 22.2006 72.9587 22.3516C72.8681 22.3818 72.702 22.4195 72.4605 22.4648C72.234 22.5101 71.9773 22.5554 71.6905 22.6007C71.4187 22.646 71.1394 22.6837 70.8525 22.7139C70.5807 22.7441 70.3543 22.7592 70.1731 22.7592C70.1127 22.7592 69.9768 22.7592 69.7654 22.7592C69.5692 22.7441 69.3276 22.729 69.0407 22.7139C68.769 22.6988 68.4745 22.6913 68.1575 22.6913C67.8404 22.6762 67.5385 22.6686 67.2516 22.6686C66.9496 22.6686 66.6854 22.6837 66.4589 22.7139C66.2476 22.7441 66.1041 22.7592 66.0286 22.7592C66.0135 22.7592 65.9456 22.7668 65.8248 22.7819C65.7191 22.797 65.5983 22.8196 65.4625 22.8498C65.3266 22.8649 65.1982 22.88 65.0775 22.8951C64.9567 22.9102 64.8812 22.9178 64.851 22.9178C64.6849 22.9329 64.4433 22.9404 64.1263 22.9404C63.8092 22.9404 63.4544 22.9404 63.0618 22.9404C62.6693 22.9404 62.2994 22.9404 61.9521 22.9404C61.62 22.9404 61.3859 22.9329 61.2501 22.9178C61.1293 22.9329 61.0462 22.9782 61.0009 23.0536C60.9556 23.114 60.9179 23.182 60.8877 23.2575C60.8877 23.2575 60.8802 23.2952 60.8651 23.3707C60.8651 23.4311 60.8651 23.5066 60.8651 23.5972C60.8651 23.6878 60.8651 23.7859 60.8651 23.8916C60.8651 23.9822 60.8651 24.0577 60.8651 24.1181C60.8651 24.1936 60.8651 24.3068 60.8651 24.4578C60.8651 24.6088 60.8651 24.7597 60.8651 24.9107C60.8651 25.0466 60.8651 25.1749 60.8651 25.2957C60.8802 25.4165 60.8877 25.4845 60.8877 25.4996C60.9028 25.8166 61.0236 26.2469 61.2501 26.7905C61.4765 27.3189 61.7408 27.8549 62.0427 28.3984C62.3598 28.9419 62.6919 29.4477 63.0392 29.9158C63.4016 30.3687 63.7337 30.6707 64.0357 30.8217C64.0961 30.867 64.2395 30.95 64.466 31.0708C64.6924 31.1916 64.934 31.3199 65.1907 31.4558C65.4474 31.5766 65.6889 31.6974 65.9154 31.8182C66.157 31.9238 66.3231 31.9993 66.4136 32.0446C66.4891 32.0446 66.542 32.0371 66.5722 32.022C66.6175 32.0069 66.6703 31.9993 66.7307 31.9993C67.0327 31.9993 67.312 32.0371 67.5687 32.1126C67.8404 32.1881 68.1273 32.2258 68.4293 32.2258H68.769C68.8445 32.2258 68.9275 32.2183 69.0181 32.2032L71.2828 31.0255C71.3432 30.8443 71.4187 30.6631 71.5093 30.482C71.5999 30.2857 71.7056 30.1121 71.8263 29.9611C71.9622 29.8101 72.1132 29.6893 72.2793 29.5987C72.4605 29.5081 72.6794 29.4628 72.9361 29.4628H72.9587C72.9889 29.493 73.0267 29.5459 73.0719 29.6214C73.1323 29.6969 73.1625 29.7422 73.1625 29.7572C73.1625 29.7874 73.1323 29.8705 73.0719 30.0064C73.0267 30.1423 72.9889 30.2479 72.9587 30.3234C72.7926 30.7613 72.619 31.1765 72.4378 31.569C72.2566 31.9616 72.0302 32.3541 71.7584 32.7467C71.7282 32.7769 71.6754 32.8297 71.5999 32.9052C71.5244 32.9807 71.4413 33.0638 71.3508 33.1543C71.2602 33.2449 71.1696 33.3355 71.079 33.4261C71.0035 33.5016 70.9431 33.562 70.8978 33.6073C70.8676 33.6224 70.8072 33.6526 70.7166 33.6979C70.6411 33.7432 70.5506 33.796 70.4449 33.8564C70.3543 33.9017 70.2712 33.9545 70.1957 34.0149C70.1203 34.0602 70.075 34.0904 70.0599 34.1055C69.7126 34.3169 69.4031 34.5056 69.1313 34.6717C68.8747 34.8378 68.6104 34.9812 68.3387 35.102C68.082 35.2228 67.8027 35.3209 67.5007 35.3964C67.2138 35.4568 66.8817 35.487 66.5042 35.487C65.5078 35.487 64.5566 35.3738 63.6507 35.1473C62.7448 34.9057 61.9219 34.5509 61.1821 34.0829C60.4423 33.5997 59.8082 32.9958 59.2797 32.2711C58.7664 31.5313 58.404 30.6556 58.1927 29.644C58.1323 29.4779 58.0643 29.2288 57.9888 28.8967C57.9134 28.5645 57.8379 28.2248 57.7624 27.8775C57.6869 27.5303 57.6189 27.2132 57.5585 26.9263C57.4982 26.6244 57.4604 26.4356 57.4453 26.3602V26.0431Z" fill="#030089"/>
<path d="M43.2277 28.5119C43.2277 26.9568 43.2654 25.4167 43.3409 23.8918C43.4164 22.3669 43.4542 20.842 43.4542 19.3171C43.4542 18.849 43.3636 18.5018 43.1824 18.2753C43.0163 18.0488 42.7898 17.8903 42.503 17.7997C42.2312 17.7091 41.9141 17.6638 41.5518 17.6638C41.2045 17.6638 40.8422 17.6487 40.4647 17.6185C40.4043 17.5581 40.3288 17.4751 40.2382 17.3694C40.1627 17.2637 40.125 17.1807 40.125 17.1203C40.125 17.0448 40.1552 16.9618 40.2156 16.8712C40.2911 16.7655 40.3364 16.7126 40.3515 16.7126C40.427 16.6522 40.5704 16.5239 40.7818 16.3276C40.9931 16.1163 41.2196 15.8898 41.4612 15.6482C41.7028 15.4066 41.9217 15.1802 42.118 14.9688C42.3293 14.7574 42.4728 14.6064 42.5483 14.5158C42.5936 14.4857 42.6539 14.4253 42.7294 14.3347C42.8049 14.229 42.888 14.1233 42.9786 14.0176C43.0691 13.8968 43.1597 13.7911 43.2503 13.7005C43.3409 13.5949 43.4089 13.5194 43.4542 13.4741C43.4994 13.4137 43.6051 13.2627 43.7712 13.0211C43.9524 12.7796 44.1638 12.5002 44.4053 12.1832C44.6469 11.851 44.9036 11.5113 45.1753 11.164C45.4622 10.8017 45.734 10.4771 45.9907 10.1902C46.2473 9.88825 46.4813 9.63913 46.6927 9.44285C46.9041 9.24658 47.0551 9.14844 47.1457 9.14844H47.2136C47.3797 9.23903 47.5005 9.34471 47.576 9.4655C47.6515 9.58629 47.7043 9.72217 47.7345 9.87315C47.7798 10.0241 47.81 10.1902 47.8251 10.3714C47.8402 10.5375 47.8704 10.7111 47.9157 10.8923V10.9602C47.9157 11.3679 47.8779 11.7755 47.8024 12.1832C47.742 12.5908 47.7118 13.0211 47.7118 13.4741C47.7118 13.5194 47.7118 13.5798 47.7118 13.6553C47.7118 13.7156 47.7194 13.7836 47.7345 13.8591C47.7345 13.9346 47.742 14.0252 47.7571 14.1308L48.1195 14.5158H48.6177C49.3123 14.5158 50.0068 14.4555 50.7013 14.3347C51.1693 14.2139 51.6374 14.0629 52.1054 13.8817C52.5886 13.6854 53.0717 13.5873 53.5548 13.5873C54.0078 13.5873 54.3098 13.7081 54.4607 13.9497C54.6117 14.1912 54.6872 14.5007 54.6872 14.8782C54.6872 15.2557 54.6042 15.5878 54.4381 15.8747C54.2871 16.1616 54.0757 16.4031 53.804 16.5994C53.5473 16.7806 53.2529 16.9316 52.9207 17.0523C52.5886 17.158 52.2564 17.2184 51.9242 17.2335C51.894 17.2486 51.8261 17.2637 51.7204 17.2788C51.6147 17.2788 51.5015 17.2864 51.3807 17.3015C51.2599 17.3015 51.1467 17.3015 51.041 17.3015C50.9504 17.3015 50.89 17.3015 50.8598 17.3015C50.8296 17.3317 50.7617 17.3619 50.656 17.3921C50.5654 17.4223 50.4597 17.4524 50.3389 17.4826C50.2181 17.5128 50.1049 17.543 49.9992 17.5732C49.8935 17.5883 49.8256 17.6034 49.7954 17.6185H47.9157L47.576 17.7318C47.5458 18.1243 47.5231 18.5093 47.508 18.8868C47.4778 19.2038 47.4552 19.536 47.4401 19.8833C47.4401 20.2154 47.4401 20.4947 47.4401 20.7212C47.4401 20.7514 47.425 20.8495 47.3948 21.0156C47.3797 21.1817 47.3721 21.3025 47.3721 21.378C47.3721 21.7554 47.4023 22.1253 47.4627 22.4877C47.5382 22.8501 47.576 23.2275 47.576 23.6201C47.576 24.2995 47.5458 24.994 47.4854 25.7036C47.4401 26.3981 47.4174 27.1002 47.4174 27.8098C47.4174 27.9759 47.4174 28.1495 47.4174 28.3307C47.4174 28.5119 47.425 28.6931 47.4401 28.8742C47.3193 29.0101 47.2513 29.1385 47.2363 29.2592C47.2212 29.38 47.2136 29.5235 47.2136 29.6895C47.2136 29.9915 47.2589 30.2708 47.3495 30.5275C47.4552 30.7691 47.5911 31.0257 47.7571 31.2975C48.0742 31.8259 48.4215 32.1883 48.7989 32.3846C49.1764 32.5657 49.6897 32.6563 50.3389 32.6563C50.7315 32.6563 51.1693 32.5733 51.6525 32.4072C52.1507 32.226 52.581 32.0751 52.9434 31.9543C52.9736 31.9543 53.0642 31.9316 53.2151 31.8863C53.3661 31.8259 53.5322 31.7655 53.7134 31.7051C53.8946 31.6297 54.0606 31.5693 54.2116 31.524C54.3626 31.4636 54.4607 31.4258 54.506 31.4107H54.6872C54.808 31.4107 54.8986 31.456 54.959 31.5466C55.0194 31.6372 55.0496 31.7504 55.0496 31.8863C55.0496 32.3091 54.9288 32.6714 54.6872 32.9734C54.4607 33.2603 54.1814 33.5094 53.8493 33.7208C53.5171 33.9321 53.1547 34.1133 52.7622 34.2643C52.3847 34.4153 52.0526 34.5587 51.7657 34.6946C51.7204 34.6946 51.6298 34.7248 51.4939 34.7852C51.3732 34.8305 51.275 34.8682 51.1995 34.8984C50.7617 35.0343 50.3389 35.1853 49.9313 35.3514C49.5387 35.5174 49.1009 35.6005 48.6177 35.6005C48.3158 35.6005 47.9761 35.5703 47.5986 35.5099C47.2363 35.4495 46.8588 35.374 46.4662 35.2834C46.0888 35.1777 45.7189 35.0569 45.3565 34.9211C45.0093 34.7701 44.7149 34.604 44.4733 34.4228C44.4129 34.3775 44.3449 34.3247 44.2695 34.2643C44.194 34.1888 44.1185 34.1133 44.043 34.0378C43.9826 33.9472 43.9222 33.8717 43.8618 33.8113C43.8165 33.751 43.7939 33.7057 43.7939 33.6755L43.2503 31.6146C43.2503 31.5995 43.2503 31.4711 43.2503 31.2296C43.2503 30.988 43.2428 30.7011 43.2277 30.369C43.2277 30.0368 43.2277 29.6971 43.2277 29.3498C43.2277 29.0026 43.2277 28.7233 43.2277 28.5119Z" fill="#030089"/>
<path d="M15.5938 35.1711C15.5938 35.005 15.6013 34.8465 15.6164 34.6955C15.6466 34.5445 15.7221 34.4162 15.8429 34.3105C15.9033 34.3105 16.024 34.3029 16.2052 34.2878C16.3864 34.2576 16.5676 34.235 16.7488 34.2199C16.945 34.1897 17.1262 34.1595 17.2923 34.1293C17.4735 34.0991 17.6018 34.084 17.6773 34.084C18.0246 34.0387 18.2661 33.8953 18.402 33.6537C18.553 33.4121 18.6511 33.1253 18.6964 32.7931C18.7417 32.461 18.7719 32.1212 18.787 31.774C18.8021 31.4116 18.8625 31.0946 18.9682 30.8228C18.9833 30.6265 18.9908 30.2944 18.9908 29.8263C19.0059 29.3432 19.021 28.8374 19.0361 28.3089C19.0512 27.7805 19.0588 27.2823 19.0588 26.8142C19.0739 26.3311 19.0814 25.9989 19.0814 25.8177C19.0814 25.7725 19.0814 25.6592 19.0814 25.478C19.0965 25.2818 19.1041 25.0628 19.1041 24.8213C19.1041 24.5797 19.1041 24.3381 19.1041 24.0965C19.1192 23.8399 19.1267 23.6285 19.1267 23.4624C19.1267 23.3416 19.1192 23.1756 19.1041 22.9642C19.1041 22.7377 19.1041 22.5188 19.1041 22.3074C19.1041 22.096 19.0965 21.9073 19.0814 21.7412C19.0814 21.5601 19.0814 21.4544 19.0814 21.4242C19.0814 21.3789 19.0739 21.2883 19.0588 21.1524C19.0588 21.0165 19.0512 20.8731 19.0361 20.7221C19.021 20.5711 19.0059 20.4352 18.9908 20.3145C18.9908 20.1937 18.9833 20.1182 18.9682 20.088C18.9531 20.0276 18.8927 19.9445 18.787 19.8389C18.6813 19.7332 18.5983 19.6501 18.5379 19.5897C18.5077 19.469 18.4096 19.3255 18.2435 19.1594C18.0774 18.9783 17.9566 18.8726 17.8811 18.8424C17.7301 18.7367 17.5565 18.6838 17.3602 18.6838C17.164 18.6687 16.9677 18.6536 16.7714 18.6386C16.5751 18.6235 16.4015 18.5782 16.2505 18.5027C16.0995 18.4272 16.0014 18.2611 15.9561 18.0044C15.9561 17.9742 15.9788 17.9214 16.024 17.8459C16.0844 17.7553 16.1297 17.6949 16.1599 17.6647C16.175 17.6194 16.2128 17.5666 16.2732 17.5062C16.3487 17.4307 16.4242 17.3552 16.4996 17.2797C16.5751 17.2042 16.6431 17.1438 16.7035 17.0985C16.779 17.0381 16.8318 17.0004 16.862 16.9853C16.8771 16.9551 16.9601 16.8872 17.1111 16.7815C17.2772 16.6758 17.4735 16.5625 17.6999 16.4418C17.9264 16.3059 18.1529 16.1775 18.3794 16.0568C18.6209 15.9209 18.8172 15.8152 18.9682 15.7397C19.2098 15.6038 19.4815 15.4981 19.7835 15.4226C20.0855 15.332 20.3799 15.2188 20.6667 15.0829C20.9234 14.9168 21.1348 14.7583 21.3009 14.6073C21.482 14.4564 21.7236 14.3809 22.0256 14.3809C22.3124 14.3809 22.5238 14.4941 22.6597 14.7206C22.7956 14.9319 22.8937 15.1886 22.9541 15.4906C23.0145 15.7774 23.0523 16.0794 23.0674 16.3965C23.0825 16.6984 23.1051 16.9476 23.1353 17.1438C23.1353 17.2042 23.1353 17.3099 23.1353 17.4609C23.1504 17.5968 23.1579 17.7478 23.1579 17.9138C23.173 18.0799 23.1881 18.2384 23.2032 18.3894C23.2183 18.5404 23.2334 18.6536 23.2485 18.7291C23.324 18.8499 23.3995 18.9405 23.475 19.0009C23.5505 19.0462 23.6562 19.0689 23.7921 19.0689H23.9959C24.0261 19.0236 24.0789 18.9632 24.1544 18.8877C24.2299 18.7971 24.313 18.7065 24.4035 18.6159C24.4941 18.5253 24.5772 18.4423 24.6527 18.3668C24.7282 18.2762 24.781 18.2083 24.8112 18.163C24.8112 18.1479 24.8414 18.095 24.9018 18.0044C24.9773 17.9138 25.015 17.8534 25.015 17.8232C25.1509 17.6119 25.3094 17.476 25.4906 17.4156C25.6869 17.3401 25.8681 17.1967 26.0342 16.9853C26.3814 16.5173 26.7513 16.1398 27.1439 15.8529C27.5364 15.551 27.9894 15.2264 28.5027 14.8791C28.8349 14.6224 29.1972 14.479 29.5898 14.4488C29.9823 14.4035 30.3975 14.3809 30.8354 14.3809C31.1977 14.3809 31.5224 14.4111 31.8092 14.4714C32.1112 14.5318 32.3905 14.6224 32.6472 14.7432C32.9038 14.8489 33.153 14.9848 33.3945 15.1509C33.6512 15.3169 33.9079 15.5132 34.1645 15.7397C34.4665 16.0115 34.776 16.321 35.0931 16.6682C35.4252 17.0155 35.6517 17.4005 35.7725 17.8232C35.7725 17.9289 35.78 18.0799 35.7951 18.2762C35.8253 18.4574 35.8555 18.6386 35.8857 18.8197C35.931 19.0009 35.9688 19.167 35.999 19.318C36.0292 19.469 36.0518 19.5595 36.0669 19.5897V21.3109C36.0669 21.326 36.0745 21.3864 36.0896 21.4921C36.1047 21.5827 36.1198 21.6884 36.1349 21.8092C36.165 21.9149 36.1877 22.0205 36.2028 22.1262C36.233 22.2319 36.2481 22.2999 36.2481 22.3301V22.5112V22.6698C36.2481 22.7151 36.233 22.8208 36.2028 22.9868C36.1877 23.1529 36.165 23.3341 36.1349 23.5304C36.1198 23.7266 36.1047 23.9154 36.0896 24.0965C36.0745 24.2626 36.0669 24.3759 36.0669 24.4363V25.6592V28.7392C36.0669 28.7694 36.0594 28.8374 36.0443 28.9431C36.0292 29.0488 36.0065 29.162 35.9763 29.2828C35.9612 29.3885 35.9461 29.4942 35.931 29.5998C35.9159 29.6904 35.9084 29.7433 35.9084 29.7584V32.1137C35.9084 32.3251 35.9235 32.5742 35.9537 32.8611C35.9839 33.1328 36.082 33.397 36.2481 33.6537C36.4142 33.6235 36.5727 33.6009 36.7237 33.5858C36.8898 33.5707 37.0558 33.5631 37.2219 33.5631C37.388 33.5631 37.5465 33.5707 37.6975 33.5858C37.8485 33.6009 37.9919 33.6235 38.1278 33.6537C38.1731 33.6537 38.2335 33.7066 38.309 33.8122C38.3996 33.9028 38.46 33.9783 38.4902 34.0387C38.4902 34.0689 38.4977 34.1067 38.5128 34.152C38.5128 34.1821 38.5128 34.2123 38.5128 34.2425C38.5279 34.2727 38.5355 34.2954 38.5355 34.3105C38.5355 34.4464 38.4977 34.5898 38.4222 34.7408C38.3618 34.8767 38.2788 35.005 38.1731 35.1258C38.0825 35.2466 37.9693 35.3447 37.8334 35.4202C37.7126 35.4957 37.5918 35.5334 37.471 35.5334H37.3125C37.2823 35.5183 37.2068 35.4957 37.086 35.4655C36.9653 35.4353 36.8369 35.4127 36.701 35.3976C36.5651 35.3825 36.4293 35.3674 36.2934 35.3523C36.1726 35.3372 36.0971 35.3296 36.0669 35.3296C36.0216 35.3296 35.9008 35.3372 35.7046 35.3523C35.5234 35.3674 35.3195 35.3825 35.0931 35.3976C34.8666 35.4127 34.6477 35.4353 34.4363 35.4655C34.2249 35.4957 34.0739 35.5183 33.9834 35.5334C33.9532 35.5334 33.8701 35.5485 33.7342 35.5787C33.5984 35.624 33.5078 35.6467 33.4625 35.6467H30.8807C30.8354 35.6618 30.7372 35.6769 30.5863 35.692C30.4353 35.7071 30.2692 35.7222 30.088 35.7373C29.9219 35.7524 29.7634 35.7675 29.6124 35.7826C29.4614 35.7977 29.3633 35.8052 29.318 35.8052H29.0462C28.9708 35.8052 28.8953 35.7599 28.8198 35.6693C28.7443 35.5787 28.6763 35.473 28.6159 35.3523C28.5556 35.2315 28.5027 35.1031 28.4574 34.9673C28.4272 34.8314 28.4121 34.7181 28.4121 34.6275C28.4121 34.4313 28.5405 34.2878 28.7971 34.1972C29.0689 34.1067 29.3709 34.0387 29.703 33.9934C30.0503 33.9481 30.3824 33.9104 30.6995 33.8802C31.0317 33.8349 31.2657 33.7669 31.4016 33.6764C31.4469 33.6462 31.4997 33.5782 31.5601 33.4725C31.6356 33.3668 31.7111 33.2536 31.7866 33.1328C31.8621 33.012 31.9225 32.8913 31.9677 32.7705C32.0281 32.6497 32.0734 32.5515 32.1036 32.4761C32.1489 32.3402 32.1791 32.2345 32.1942 32.159C32.2093 32.0684 32.2244 31.9929 32.2395 31.9325C32.2546 31.857 32.2622 31.7815 32.2622 31.706C32.2622 31.6155 32.2622 31.5022 32.2622 31.3663V29.7584C32.2622 29.7131 32.2622 29.5923 32.2622 29.396C32.2622 29.1997 32.2622 28.9884 32.2622 28.7619C32.2773 28.5203 32.2848 28.3014 32.2848 28.1051C32.2848 27.8937 32.2848 27.7654 32.2848 27.7201C32.2697 27.554 32.2546 27.2974 32.2395 26.9501C32.2395 26.6029 32.232 26.2178 32.2169 25.7951C32.2018 25.3573 32.1867 24.9043 32.1716 24.4363C32.1716 23.9531 32.164 23.5002 32.1489 23.0774C32.1489 22.6396 32.1489 22.2546 32.1489 21.9224C32.1489 21.5752 32.1489 21.3185 32.1489 21.1524C32.1187 20.7749 32.0206 20.3824 31.8545 19.9747C31.7035 19.5671 31.4922 19.1972 31.2204 18.865C30.9486 18.5178 30.6391 18.2384 30.2918 18.0271C29.9446 17.8006 29.5671 17.6798 29.1595 17.6647C28.9934 17.6496 28.8047 17.6572 28.5933 17.6874C28.3819 17.7176 28.163 17.7553 27.9365 17.8006C27.7101 17.8459 27.4911 17.9063 27.2798 17.9818C27.0684 18.0422 26.8721 18.1026 26.6909 18.163C26.6003 18.2083 26.4569 18.2762 26.2606 18.3668C26.0794 18.4574 25.8983 18.5555 25.7171 18.6612C25.5359 18.7518 25.3698 18.8348 25.2189 18.9103C25.083 18.9858 25.015 19.0387 25.015 19.0689C24.9697 19.099 24.8791 19.1972 24.7433 19.3633C24.6225 19.5293 24.4941 19.7105 24.3583 19.9068C24.2375 20.1031 24.1167 20.2843 23.9959 20.4503C23.8902 20.6164 23.8223 20.7221 23.7921 20.7674C23.5203 21.16 23.3618 21.5676 23.3165 21.9904C23.2863 22.4131 23.2259 22.866 23.1353 23.3492C23.1051 23.4096 23.0674 23.5304 23.0221 23.7115C22.9919 23.8927 22.9768 24.0211 22.9768 24.0965V25.4554C22.9768 25.5007 22.9617 25.6064 22.9315 25.7725C22.9013 25.9385 22.8711 26.1197 22.8409 26.316C22.8107 26.5123 22.7805 26.701 22.7503 26.8822C22.7201 27.0482 22.705 27.1615 22.705 27.2219V29.5319C22.705 29.9396 22.705 30.3095 22.705 30.6416C22.705 30.9738 22.7126 31.2984 22.7276 31.6155C22.7578 31.9174 22.788 32.2345 22.8182 32.5666C22.8484 32.8837 22.9013 33.2461 22.9768 33.6537C23.0674 33.8198 23.1957 33.9255 23.3618 33.9708C23.543 34.0161 23.7392 34.0387 23.9506 34.0387C24.0714 34.0387 24.1922 34.0312 24.313 34.0161C24.4337 34.001 24.5621 33.9934 24.698 33.9934C24.9093 33.9934 25.0981 34.1067 25.2641 34.3331C25.4302 34.5445 25.5133 34.771 25.5133 35.0125C25.5133 35.2843 25.4076 35.4655 25.1962 35.5561C24.9848 35.6467 24.7508 35.692 24.4941 35.692C24.3734 35.692 24.2601 35.6844 24.1544 35.6693C24.0638 35.6542 23.9808 35.6467 23.9053 35.6467C23.4373 35.6467 22.9692 35.6165 22.5012 35.5561C22.0331 35.5108 21.5651 35.4881 21.097 35.4881C20.5082 35.4881 19.9043 35.5108 19.2853 35.5561C18.6662 35.6165 18.0397 35.6467 17.4055 35.6467C17.2998 35.6467 17.1564 35.6542 16.9752 35.6693C16.7941 35.6995 16.628 35.7146 16.477 35.7146C16.2354 35.7146 16.024 35.6769 15.8429 35.6014C15.6768 35.5259 15.5938 35.3825 15.5938 35.1711Z" fill="#030089"/>
<path d="M0.445312 6.63672C0.546653 6.62514 0.746352 6.55905 0.844724 6.54662C0.980655 6.52945 1.27787 6.56554 1.40823 6.54662C2.1195 6.44341 2.58466 6.45795 3.14134 6.29035C4.33957 5.49153 5.40583 5.38066 6.03707 4.19345C6.21179 3.86483 6.30978 3.10073 6.43648 2.69565C6.51483 2.44516 6.72944 2.17923 6.79179 1.89683C6.84094 1.67423 6.75157 1.52747 6.79179 1.28392C6.82875 1.06011 7.00546 0.741197 7.0356 0.498893C7.05576 0.336762 7.06497 0.170403 7.08233 -0.000299123C7.08919 0.0816362 7.10374 0.157334 7.10373 0.242599C7.12325 0.45311 7.20128 0.601061 7.22496 0.798452C7.24256 0.945183 7.20485 1.14424 7.22496 1.28392C7.25038 1.46045 7.27787 1.63141 7.30761 1.79698C7.35154 2.04157 7.53806 2.27438 7.59238 2.49595C7.63484 2.66915 7.54296 2.83549 7.59238 2.99521C7.66118 3.21759 7.85072 3.59659 7.93427 3.79403C8.33409 4.73887 8.73309 5.39168 9.63177 5.70331C10.1086 5.9699 10.4697 6.24053 11.1296 6.39021C11.44 6.46062 11.972 6.44087 12.3278 6.49006C12.5325 6.51836 12.7449 6.55257 12.9655 6.57462C13.0834 6.58642 13.2265 6.58991 13.3263 6.6075C13.3922 6.61294 13.4229 6.60252 13.4902 6.6075C13.554 6.61223 13.6543 6.63239 13.7193 6.63672C13.6037 6.65359 13.6259 6.68602 13.4518 6.71409C13.4007 6.72234 13.2767 6.70561 13.2265 6.71409C13.1591 6.72546 13.0678 6.70229 13.002 6.71409C12.913 6.73006 12.8135 6.77283 12.7272 6.78962C12.1294 6.90594 11.9046 7.12882 11.4291 7.28888C11.1747 7.37453 10.8532 7.48864 10.6303 7.58844C10.3903 7.69589 10.0378 7.76279 9.83147 7.888C9.46875 8.10809 9.0981 8.30595 8.82627 8.58697C8.51089 8.91302 8.15128 9.26611 7.93427 9.68535C7.81249 9.9206 7.80403 10.188 7.70689 10.4556C7.61007 10.7222 7.41201 11.1818 7.33515 11.4827C7.27997 11.6987 7.3417 11.7474 7.29481 11.982C7.2406 12.2532 7.19137 12.537 7.14583 12.8341C7.12385 12.9776 7.10273 13.1241 7.08233 13.2737C7.06847 13.1893 7.05438 13.1059 7.04002 13.0235C7.0014 12.802 6.97862 12.5881 6.93574 12.3814C6.86242 12.0278 6.82542 11.6955 6.73604 11.3828C6.6765 11.1746 6.55194 10.975 6.48359 10.7837C6.32571 10.3419 6.25384 9.84451 6.03707 9.48564C5.83828 9.15654 5.49994 8.95986 5.23825 8.69165C4.78024 8.22224 4.24536 7.90702 3.54075 7.58844C3.30095 7.48002 3.01561 7.31159 2.74193 7.21711C2.50879 7.13663 2.26287 7.06089 2.00333 6.98932C1.87922 6.9551 1.7434 6.98932 1.64355 6.88947C1.55259 6.8669 1.43809 6.81134 1.34399 6.78962C1.21392 6.7596 1.08081 6.81811 0.944576 6.78962C0.782611 6.75574 0.616235 6.66859 0.445312 6.63672Z" fill="#030089"/>
<path d="M3.09375 34.672C3.09375 34.3096 3.19189 34.0756 3.38816 33.9699C3.58444 33.8642 3.82601 33.7963 4.11288 33.7661C4.39974 33.7359 4.70171 33.7133 5.01877 33.6982C5.35093 33.668 5.6378 33.5472 5.87937 33.3358C5.87937 33.2452 5.88692 33.0716 5.90202 32.8149C5.91711 32.5582 5.92466 32.2865 5.92466 31.9996C5.93976 31.6977 5.95486 31.4183 5.96996 31.1617C5.98506 30.905 5.9926 30.7238 5.9926 30.6181V27.8778C5.9926 27.8023 5.9926 27.6362 5.9926 27.3796C6.0077 27.1229 6.0228 26.8285 6.0379 26.4963C6.0681 26.1642 6.09074 25.8094 6.10584 25.4319C6.12094 25.0544 6.13604 24.6996 6.15114 24.3675C6.18133 24.0353 6.19643 23.7484 6.19643 23.5069C6.21153 23.2653 6.21908 23.1068 6.21908 23.0313V20.2004C6.21908 20.2004 6.22663 20.1702 6.24172 20.1098C6.25682 20.0343 6.27192 19.9664 6.28702 19.906C6.31722 19.8305 6.33986 19.7625 6.35496 19.7021C6.37006 19.6266 6.37761 19.5889 6.37761 19.5889L6.4229 19.4983C6.4229 19.4681 6.41535 19.4455 6.40026 19.4304C6.40026 19.4153 6.40026 19.4002 6.40026 19.3851C6.38516 19.37 6.37761 19.3549 6.37761 19.3398C6.37761 19.3398 6.35496 19.3171 6.30967 19.2718C6.26437 19.2114 6.21153 19.151 6.15114 19.0907C6.09074 19.0152 6.03035 18.9472 5.96996 18.8868C5.92466 18.8113 5.89447 18.7585 5.87937 18.7283C5.72839 18.5169 5.49436 18.3659 5.1773 18.2754C4.87534 18.1697 4.56582 18.0715 4.24876 17.9809C3.9468 17.8903 3.67503 17.7847 3.43346 17.6639C3.20699 17.528 3.09375 17.3317 3.09375 17.075C3.09375 16.909 3.17679 16.7731 3.34287 16.6674C3.52405 16.5466 3.67503 16.4711 3.79582 16.4409C3.84111 16.4258 3.95435 16.4032 4.13553 16.373C4.3167 16.3428 4.51298 16.3126 4.72436 16.2824C4.95083 16.2522 5.15465 16.222 5.33583 16.1918C5.51701 16.1465 5.63025 16.1163 5.67554 16.1012C5.69064 16.0861 5.74348 16.0635 5.83407 16.0333C5.92466 16.0031 6.01525 15.9729 6.10584 15.9427C6.21153 15.8974 6.30212 15.8596 6.37761 15.8294C6.4682 15.7992 6.52104 15.7841 6.53614 15.7841C6.67202 15.7389 6.8985 15.686 7.21556 15.6256C7.53262 15.5652 7.78174 15.4897 7.96292 15.3991C8.1139 15.3237 8.24224 15.2482 8.34792 15.1727C8.46871 15.0821 8.58195 15.0066 8.68763 14.9462C8.80842 14.8707 8.9292 14.8179 9.04999 14.7877C9.18587 14.7424 9.3444 14.7197 9.52558 14.7197C9.79735 14.7197 10.0012 14.8481 10.1371 15.1047C10.2729 15.3614 10.3409 15.6256 10.3409 15.8974C10.3409 16.3352 10.3031 16.7806 10.2276 17.2336C10.1673 17.6714 10.1371 18.1168 10.1371 18.5698C10.1371 18.9472 10.1446 19.2794 10.1597 19.5662C10.1748 19.838 10.2352 20.1928 10.3409 20.6307V29.8934C10.356 29.9387 10.3711 29.9991 10.3862 30.0746C10.4164 30.1501 10.4315 30.2331 10.4315 30.3237C10.4466 30.4143 10.4617 30.5049 10.4768 30.5955C10.4919 30.671 10.5145 30.7238 10.5447 30.754V30.8673V30.9805C10.5447 31.0107 10.5372 31.0635 10.5221 31.139C10.507 31.2145 10.4919 31.3051 10.4768 31.4108C10.4617 31.5014 10.439 31.592 10.4088 31.6826C10.3786 31.758 10.356 31.8109 10.3409 31.8411V32.0449C10.3409 32.0902 10.356 32.1959 10.3862 32.362C10.4164 32.5281 10.4541 32.7092 10.4994 32.9055C10.5598 33.1018 10.6202 33.283 10.6806 33.449C10.741 33.6 10.8014 33.6906 10.8618 33.7208C10.8769 33.751 10.9146 33.7661 10.975 33.7661C11.0354 33.7661 11.0882 33.7661 11.1335 33.7661C11.2241 33.7661 11.3072 33.7586 11.3827 33.7435C11.4733 33.7284 11.5336 33.7208 11.5638 33.7208C11.5789 33.751 11.6544 33.7888 11.7903 33.834C11.9413 33.8642 12.0319 33.8793 12.0621 33.8793C12.1074 33.9095 12.198 33.9322 12.3338 33.9473C12.4697 33.9624 12.6056 33.9775 12.7415 33.9926C12.8925 33.9926 13.0359 34.0077 13.1718 34.0379C13.3077 34.053 13.3983 34.0681 13.4436 34.0832C13.6096 34.1134 13.7153 34.2191 13.7606 34.4002C13.8059 34.5814 13.8286 34.7324 13.8286 34.8532C13.8286 35.0947 13.7304 35.2759 13.5342 35.3967C13.3379 35.5024 13.1341 35.5703 12.9227 35.6005H11.0882H9.11793C9.08774 35.6005 9.01224 35.593 8.89146 35.5779C8.78577 35.5628 8.66499 35.5401 8.5291 35.5099C8.40832 35.4948 8.28753 35.4797 8.16675 35.4647C8.06106 35.4345 7.99312 35.4194 7.96292 35.4194H7.75909C7.35144 35.4194 6.92114 35.4496 6.4682 35.5099C6.03035 35.5703 5.58495 35.6005 5.13201 35.6005H3.95435C3.92415 35.5703 3.81846 35.5175 3.63729 35.442C3.4712 35.3665 3.35797 35.3137 3.29758 35.2835C3.22208 35.2231 3.16924 35.1627 3.13904 35.1023C3.10885 35.0268 3.09375 34.9589 3.09375 34.8985V34.672Z" fill="#030089"/>
</svg>
