<svg width="433" height="159" viewBox="0 0 433 159" fill="none" xmlns="http://www.w3.org/2000/svg">
<path d="M345 123.092C345 121.803 345.292 120.697 345.876 119.776C346.525 118.917 347.336 118.211 348.31 117.658C349.348 117.105 350.451 116.675 351.619 116.368C352.853 116.123 354.053 116 355.221 116C356.649 116 358.012 116.123 359.31 116.368C360.608 116.614 362.003 116.737 363.496 116.737H366.027C366.416 116.737 367.292 116.675 368.655 116.553C370.018 116.491 371.478 116.399 373.035 116.276C374.593 116.215 376.053 116.154 377.416 116.092C378.779 116.031 379.622 116 379.947 116C380.206 116 380.661 116.031 381.31 116.092C382.024 116.215 382.737 116.307 383.451 116.368C384.23 116.491 384.944 116.583 385.593 116.645C386.242 116.706 386.631 116.737 386.761 116.737C386.826 116.737 387.021 116.706 387.345 116.645C387.67 116.583 387.994 116.491 388.319 116.368C388.643 116.307 388.935 116.246 389.195 116.184C389.519 116.123 389.714 116.092 389.779 116.092H390.85C391.174 116.092 391.499 116.061 391.823 116C392.147 116 392.472 116 392.796 116C392.991 116 393.251 116 393.575 116C393.9 116.061 394.224 116.092 394.549 116.092H395.814L397.858 116.737C397.923 116.86 398.086 116.921 398.345 116.921C399.968 116.798 401.428 116.706 402.726 116.645C404.088 116.645 404.932 116.645 405.257 116.645C405.516 116.645 406.003 116.675 406.717 116.737C407.431 116.86 408.145 116.952 408.858 117.013C409.572 117.136 410.221 117.228 410.805 117.289C411.454 117.351 411.844 117.382 411.973 117.382C412.038 117.382 412.233 117.351 412.558 117.289C412.882 117.228 413.206 117.136 413.531 117.013C413.855 116.952 414.147 116.89 414.407 116.829C414.732 116.768 414.926 116.737 414.991 116.737H416.159C416.484 116.737 416.808 116.706 417.133 116.645C417.522 116.645 417.814 116.645 418.009 116.645C418.204 116.645 418.463 116.645 418.788 116.645C419.177 116.706 419.534 116.737 419.858 116.737H421.027L423.071 117.382C423.33 117.504 423.59 117.566 423.85 117.566C424.174 117.566 424.434 117.566 424.628 117.566C425.018 117.566 425.375 117.535 425.699 117.474C426.088 117.412 426.51 117.382 426.965 117.382C428.327 117.382 429.528 117.627 430.566 118.118C431.67 118.671 432.448 119.868 432.903 121.711C432.968 121.711 433 121.925 433 122.355C433 122.846 433 123.154 433 123.276C433 124.934 432.708 126.224 432.124 127.145C431.54 128.066 430.761 128.741 429.788 129.171C428.814 129.601 427.678 129.846 426.381 129.908C425.083 129.969 423.752 130 422.389 130H418.009C417.944 130 417.749 129.969 417.425 129.908C417.165 129.846 416.873 129.754 416.549 129.632C416.224 129.57 415.9 129.509 415.575 129.447C415.251 129.386 415.056 129.355 414.991 129.355C414.796 129.355 414.407 129.355 413.823 129.355C413.239 129.417 412.558 129.447 411.779 129.447C411 129.447 410.156 129.447 409.248 129.447C408.339 129.509 407.463 129.539 406.619 129.539C405.711 129.539 404.965 129.509 404.381 129.447C403.796 129.386 403.342 129.355 403.018 129.355H397.177H392.796C392.602 129.355 392.245 129.294 391.726 129.171C391.271 129.048 390.882 128.956 390.558 128.895C389.973 128.956 389.324 129.048 388.611 129.171C387.897 129.294 387.183 129.417 386.469 129.539C385.82 129.662 385.236 129.754 384.717 129.816C384.263 129.939 383.971 130 383.841 130H377.124C376.994 130 376.702 129.939 376.248 129.816C375.794 129.693 375.274 129.57 374.69 129.447C374.171 129.325 373.619 129.171 373.035 128.987C372.516 128.864 372.127 128.772 371.867 128.711C371.737 128.711 371.608 128.68 371.478 128.618C371.413 128.557 371.316 128.496 371.186 128.434C370.083 128.311 369.077 128.219 368.168 128.158C367.324 128.096 366.838 128.066 366.708 128.066C366.513 128.066 366.027 128.127 365.248 128.25C364.469 128.373 363.593 128.526 362.619 128.711C361.711 128.895 360.867 129.048 360.088 129.171C359.31 129.294 358.823 129.355 358.628 129.355H351.814C351.749 129.355 351.49 129.294 351.035 129.171C350.581 129.11 350.062 128.987 349.478 128.803C348.894 128.68 348.342 128.557 347.823 128.434C347.304 128.311 346.914 128.189 346.655 128.066C346.265 127.882 345.941 127.575 345.681 127.145C345.487 126.715 345.357 126.224 345.292 125.671C345.162 125.18 345.097 124.689 345.097 124.197C345.032 123.706 345 123.338 345 123.092Z" fill="white"/>
<path d="M289.537 81.3131C289.537 74.7827 289.695 68.3157 290.012 61.9121C290.329 55.5085 290.488 49.1049 290.488 42.7013C290.488 40.7358 290.108 39.2775 289.347 38.3265C288.649 37.3755 287.698 36.7098 286.494 36.3294C285.352 35.9489 284.021 35.7587 282.499 35.7587C281.041 35.7587 279.519 35.6953 277.934 35.5685C277.681 35.3149 277.364 34.9662 276.983 34.5224C276.666 34.0786 276.508 33.7299 276.508 33.4763C276.508 33.1593 276.635 32.8105 276.888 32.4301C277.205 31.9863 277.395 31.7644 277.459 31.7644C277.776 31.5108 278.378 30.9719 279.266 30.1477C280.153 29.26 281.104 28.309 282.119 27.2946C283.133 26.2801 284.053 25.3291 284.877 24.4415C285.765 23.5538 286.367 22.9198 286.684 22.5394C286.874 22.4126 287.128 22.159 287.445 21.7786C287.762 21.3348 288.11 20.891 288.491 20.4471C288.871 19.9399 289.252 19.4961 289.632 19.1157C290.012 18.6719 290.298 18.3549 290.488 18.1647C290.678 17.9111 291.122 17.277 291.819 16.2626C292.58 15.2482 293.468 14.0752 294.482 12.7438C295.497 11.349 296.575 9.92242 297.716 8.46417C298.92 6.94252 300.062 5.57938 301.139 4.37474C302.217 3.1067 303.2 2.06057 304.088 1.23634C304.975 0.412113 305.609 0 305.99 0H306.275C306.972 0.380412 307.48 0.824226 307.797 1.33144C308.114 1.83866 308.336 2.40928 308.462 3.0433C308.653 3.67732 308.779 4.37474 308.843 5.13556C308.906 5.83299 309.033 6.56211 309.223 7.32293V7.60824C309.223 9.3201 309.065 11.032 308.748 12.7438C308.494 14.4557 308.367 16.2626 308.367 18.1647C308.367 18.3549 308.367 18.6085 308.367 18.9255C308.367 19.1791 308.399 19.4644 308.462 19.7814C308.462 20.0984 308.494 20.4788 308.558 20.9227L310.079 22.5394H312.171C315.088 22.5394 318.004 22.2858 320.921 21.7786C322.886 21.2714 324.852 20.6374 326.817 19.8765C328.846 19.0523 330.875 18.6402 332.904 18.6402C334.806 18.6402 336.074 19.1474 336.708 20.1618C337.342 21.1763 337.659 22.476 337.659 24.0611C337.659 25.6461 337.31 27.041 336.613 28.2456C335.979 29.4502 335.091 30.4647 333.95 31.2889C332.872 32.0497 331.636 32.6837 330.241 33.191C328.846 33.6348 327.451 33.8884 326.056 33.9518C325.93 34.0152 325.644 34.0786 325.201 34.142C324.757 34.142 324.281 34.1737 323.774 34.2371C323.267 34.2371 322.791 34.2371 322.347 34.2371C321.967 34.2371 321.713 34.2371 321.587 34.2371C321.46 34.3639 321.175 34.4907 320.731 34.6175C320.35 34.7443 319.906 34.8711 319.399 34.9979C318.892 35.1247 318.417 35.2515 317.973 35.3783C317.529 35.4417 317.244 35.5051 317.117 35.5685H309.223L307.797 36.044C307.67 37.6925 307.575 39.3092 307.511 40.8943C307.385 42.2257 307.289 43.6206 307.226 45.0788C307.226 46.4737 307.226 47.6466 307.226 48.5976C307.226 48.7244 307.163 49.1366 307.036 49.834C306.972 50.5314 306.941 51.0386 306.941 51.3556C306.941 52.9407 307.068 54.494 307.321 56.0157C307.638 57.5373 307.797 59.1224 307.797 60.7708C307.797 63.6239 307.67 66.5404 307.416 69.5203C307.226 72.4368 307.131 75.385 307.131 78.3649C307.131 79.0623 307.131 79.7914 307.131 80.5523C307.131 81.3131 307.163 82.0739 307.226 82.8347C306.719 83.4053 306.434 83.9443 306.37 84.4515C306.307 84.9587 306.275 85.561 306.275 86.2584C306.275 87.5265 306.465 88.6994 306.846 89.7773C307.289 90.7917 307.86 91.8695 308.558 93.0108C309.889 95.2298 311.347 96.7515 312.932 97.5757C314.517 98.3365 316.673 98.7169 319.399 98.7169C321.048 98.7169 322.886 98.3682 324.915 97.6708C327.008 96.91 328.814 96.276 330.336 95.7687C330.463 95.7687 330.843 95.6736 331.477 95.4834C332.111 95.2298 332.809 94.9762 333.57 94.7226C334.33 94.4056 335.028 94.152 335.662 93.9618C336.296 93.7082 336.708 93.5497 336.898 93.4863H337.659C338.166 93.4863 338.547 93.6765 338.8 94.0569C339.054 94.4373 339.181 94.9128 339.181 95.4834C339.181 97.2587 338.673 98.7803 337.659 100.048C336.708 101.253 335.535 102.299 334.14 103.187C332.745 104.074 331.224 104.835 329.575 105.469C327.99 106.103 326.595 106.706 325.391 107.276C325.201 107.276 324.82 107.403 324.25 107.657C323.742 107.847 323.33 108.005 323.013 108.132C321.175 108.703 319.399 109.337 317.687 110.034C316.039 110.732 314.2 111.08 312.171 111.08C310.903 111.08 309.477 110.954 307.892 110.7C306.37 110.446 304.785 110.129 303.137 109.749C301.552 109.305 299.998 108.798 298.477 108.227C297.018 107.593 295.782 106.896 294.768 106.135C294.514 105.945 294.229 105.723 293.912 105.469C293.595 105.152 293.278 104.835 292.961 104.518C292.707 104.138 292.453 103.821 292.2 103.567C292.01 103.314 291.915 103.123 291.915 102.997L289.632 94.3422C289.632 94.2788 289.632 93.7399 289.632 92.7254C289.632 91.711 289.6 90.5064 289.537 89.1115C289.537 87.7167 289.537 86.2901 289.537 84.8319C289.537 83.3736 289.537 82.2007 289.537 81.3131Z" fill="white"/>
<path d="M202.891 107.656C202.891 106.642 203.081 105.849 203.461 105.279C203.905 104.708 204.444 104.296 205.078 104.043C205.775 103.726 206.536 103.535 207.36 103.472C208.248 103.345 209.104 103.25 209.928 103.187C210.055 103.06 210.372 102.996 210.879 102.996C211.386 102.996 211.925 103.028 212.496 103.091C213.13 103.155 213.542 103.187 213.732 103.187C214.366 102.806 215 102.331 215.634 101.76C216.332 101.126 216.934 100.46 217.441 99.7629C218.012 99.0021 218.456 98.2095 218.773 97.3853C219.153 96.4977 219.343 95.6418 219.343 94.8175L219.629 76.8431L219.819 73.2291L220.58 55.1596C220.77 54.0183 220.865 53.0039 220.865 52.1163C220.928 51.1652 220.96 50.2459 220.96 49.3583C220.96 48.2805 220.833 47.1075 220.58 45.8395C220.39 44.508 219.977 43.3351 219.343 42.3207C218.456 40.8624 217.378 39.4993 216.11 38.2312C214.905 36.8998 213.51 35.7903 211.925 34.9026C211.799 34.8392 211.545 34.7758 211.165 34.7124C210.784 34.5856 210.372 34.4588 209.928 34.332C209.548 34.2052 209.167 34.0467 208.787 33.8565C208.47 33.6029 208.311 33.3493 208.311 33.0957C208.311 32.4617 208.85 31.7642 209.928 31.0034C211.006 30.2426 212.242 29.5135 213.637 28.816C215.032 28.0552 216.395 27.4212 217.727 26.914C219.122 26.3434 220.073 25.8995 220.58 25.5825C221.467 25.2021 222.292 24.7266 223.052 24.156C223.877 23.522 224.669 22.9196 225.43 22.349C226.254 21.7784 227.078 21.3029 227.903 20.9225C228.727 20.4787 229.646 20.2568 230.661 20.2568C231.422 20.2568 232.024 20.7006 232.468 21.5882C232.911 22.4758 233.26 23.5854 233.514 24.9168C233.767 26.1849 233.989 27.6114 234.18 29.1964C234.37 30.7181 234.592 32.1446 234.845 33.4761C235.099 34.7441 235.416 35.822 235.796 36.7096C236.177 37.5972 236.716 38.041 237.413 38.041C237.857 38.041 238.142 38.0093 238.269 37.9459C238.396 37.8825 238.649 37.6289 239.03 37.1851C239.093 37.0583 239.378 36.6462 239.886 35.9488C240.393 35.1879 240.964 34.3954 241.598 33.5712C242.295 32.6836 242.929 31.891 243.5 31.1936C244.07 30.4962 244.451 30.0841 244.641 29.9573C245.275 29.1964 246.384 28.2454 247.969 27.1042C249.555 25.9629 251.266 24.8534 253.105 23.7756C255.007 22.6977 256.846 21.7784 258.621 21.0176C260.396 20.1934 261.759 19.7812 262.71 19.7812C264.042 19.7812 265.31 20.0349 266.515 20.5421C267.783 21.0493 268.892 21.7784 269.843 22.7294C270.794 23.6171 271.555 24.6632 272.126 25.8678C272.696 27.0725 272.982 28.3405 272.982 29.672C272.982 32.208 272.411 34.4271 271.27 36.3292C270.192 38.2312 268.322 39.7212 265.659 40.799H264.517C263.376 40.799 262.33 40.5454 261.379 40.0382C260.428 39.4676 259.477 38.8653 258.526 38.2312C257.638 37.5338 256.719 36.9315 255.768 36.4243C254.817 35.8537 253.802 35.5683 252.725 35.5683C251.266 35.5683 249.967 35.822 248.825 36.3292C247.748 36.773 246.638 37.2485 245.497 37.7557C245.243 37.9459 244.831 38.1995 244.26 38.5165C243.753 38.7702 243.214 39.0872 242.644 39.4676C242.136 39.7846 241.629 40.0699 241.122 40.3235C240.678 40.5771 240.361 40.7356 240.171 40.799C239.537 41.2428 238.966 41.8768 238.459 42.7011C237.952 43.5253 237.508 44.4446 237.128 45.4591C236.811 46.4101 236.525 47.3928 236.272 48.4073C236.082 49.4217 235.955 50.3093 235.891 51.0701C235.891 51.1335 235.86 51.4506 235.796 52.0212C235.733 52.5284 235.638 53.1307 235.511 53.8281C235.448 54.5256 235.384 55.223 235.321 55.9204C235.257 56.5544 235.226 57.0616 235.226 57.442V57.6322V58.1078C235.226 58.5516 235.226 59.4392 235.226 60.7706C235.289 62.0387 235.352 63.5603 235.416 65.3356C235.479 67.0474 235.511 68.8861 235.511 70.8516C235.574 72.7536 235.638 74.5923 235.701 76.3675C235.765 78.0794 235.796 79.601 235.796 80.9325C235.86 82.2005 235.891 83.0565 235.891 83.5003V93.4861C235.955 93.8031 236.082 94.4054 236.272 95.293C236.462 96.1807 236.684 97.1317 236.938 98.1461C237.255 99.0972 237.572 100.016 237.889 100.904C238.269 101.728 238.649 102.236 239.03 102.426C239.6 102.679 240.393 102.901 241.407 103.091C242.485 103.282 243.531 103.535 244.546 103.852C245.624 104.106 246.543 104.486 247.304 104.994C248.065 105.501 248.445 106.166 248.445 106.991C248.445 107.688 248.223 108.29 247.779 108.798C247.335 109.241 246.797 109.622 246.162 109.939C245.528 110.256 244.831 110.478 244.07 110.605C243.373 110.795 242.739 110.89 242.168 110.89C240.71 110.89 239.22 110.763 237.698 110.51C236.24 110.256 234.782 110.129 233.324 110.129C231.675 110.129 229.963 110.256 228.188 110.51C226.476 110.763 224.828 110.89 223.243 110.89H222.957C222.831 110.89 222.577 110.858 222.197 110.795C221.88 110.795 221.499 110.763 221.055 110.7C220.675 110.7 220.294 110.668 219.914 110.605C219.597 110.605 219.407 110.605 219.343 110.605C219.153 110.605 218.678 110.636 217.917 110.7C217.156 110.827 216.617 110.89 216.3 110.89H212.686H209.738C208.977 110.89 208.185 110.858 207.36 110.795C206.536 110.731 205.775 110.605 205.078 110.414C204.444 110.161 203.905 109.844 203.461 109.463C203.081 109.02 202.891 108.417 202.891 107.656Z" fill="white"/>
<path d="M124.144 73.2282C124.144 76.8422 124.874 80.3293 126.332 83.6896C127.853 86.9865 129.819 89.9347 132.228 92.5342C132.989 93.295 133.75 94.1509 134.511 95.1019C135.271 96.053 136.064 96.9723 136.888 97.8599C137.776 98.7476 138.695 99.5718 139.646 100.333C140.661 101.093 141.738 101.664 142.88 102.044L148.871 103.376H149.632H150.488C151.059 103.312 151.851 103.249 152.865 103.186C153.88 103.122 154.894 103.059 155.909 102.995C156.923 102.932 157.811 102.869 158.572 102.805C159.333 102.742 159.776 102.71 159.903 102.71C160.854 102.52 161.9 102.044 163.042 101.284C164.246 100.523 165.451 99.6669 166.655 98.7159C167.86 97.7014 169.001 96.687 170.079 95.6726C171.22 94.5947 172.203 93.7071 173.027 93.0097C173.091 93.0097 173.186 92.9463 173.313 92.8195C173.376 92.7561 173.439 92.661 173.503 92.5342C175.088 89.2373 176.356 85.7818 177.307 82.1679C178.321 78.4906 178.829 74.9084 178.829 71.4213C178.829 68.5682 178.575 65.9053 178.068 63.4326C177.624 60.96 176.863 58.4873 175.785 56.0146C175.785 55.8244 175.659 55.444 175.405 54.8734C175.215 54.3027 175.12 53.954 175.12 53.8272C174.739 52.1788 174.327 50.4035 173.883 48.5015C173.503 46.536 172.679 44.9192 171.411 43.6512C171.284 43.461 170.935 43.0806 170.364 42.51C169.794 41.9393 169.16 41.337 168.462 40.703C167.828 40.069 167.226 39.4667 166.655 38.8961C166.148 38.3254 165.863 37.945 165.8 37.7548C165.673 37.6914 165.482 37.5329 165.229 37.2793C165.039 36.9623 164.817 36.6453 164.563 36.3283C164.31 36.0113 164.056 35.726 163.802 35.4723C163.612 35.1553 163.517 34.9651 163.517 34.9017C163.327 34.7749 163.042 34.5213 162.661 34.1409C162.344 33.6971 162.122 33.4118 161.995 33.285C161.869 33.285 161.647 33.2216 161.33 33.0948C161.013 32.9046 160.664 32.7144 160.284 32.5241C159.903 32.3339 159.554 32.1754 159.237 32.0486C158.92 31.8584 158.73 31.7633 158.667 31.7633C158.477 31.6365 157.969 31.478 157.145 31.2878C156.321 31.0976 155.433 30.9074 154.482 30.7172C153.595 30.527 152.739 30.3685 151.914 30.2417C151.154 30.0515 150.678 29.9247 150.488 29.8613C150.171 29.8613 149.664 29.9247 148.966 30.0515C148.269 30.1149 147.54 30.2417 146.779 30.4319C146.018 30.5587 145.289 30.6855 144.592 30.8123C143.894 30.9391 143.323 31.0342 142.88 31.0976C141.992 31.9852 141.073 32.8095 140.122 33.5703C139.234 34.2677 138.346 34.9968 137.459 35.7577C136.571 36.4551 135.715 37.2159 134.891 38.0401C134.13 38.8009 133.464 39.6886 132.894 40.703C132.767 40.8932 132.513 41.3053 132.133 41.9393C131.816 42.5734 131.436 43.2708 130.992 44.0316C130.611 44.7924 130.231 45.4899 129.851 46.1239C129.534 46.7579 129.343 47.1383 129.28 47.2651C128.9 48.0259 128.456 48.8502 127.949 49.7378C127.505 50.562 127.061 51.4497 126.617 52.4007C126.173 53.3517 125.793 54.3344 125.476 55.3489C125.222 56.2999 125.064 57.2192 125 58.1069C124.874 58.8043 124.747 59.9138 124.62 61.4355C124.556 62.9571 124.493 64.5422 124.43 66.1906C124.366 67.7757 124.303 69.2656 124.239 70.6605C124.176 71.9919 124.144 72.8478 124.144 73.2282ZM107.406 67.5221C107.406 66.1906 107.628 64.8592 108.072 63.5277C108.579 62.1963 108.991 60.8966 109.308 59.6285C109.372 59.3749 109.499 58.6775 109.689 57.5362C109.942 56.3316 110.196 55.0636 110.45 53.7321C110.767 52.4007 111.052 51.1643 111.305 50.0231C111.559 48.8819 111.718 48.1844 111.781 47.9308C111.908 47.5504 112.066 47.17 112.257 46.7896C112.383 46.4726 112.51 46.1556 112.637 45.8386C112.827 45.4582 112.986 45.1729 113.112 44.9826C113.556 44.3486 114.095 43.461 114.729 42.3198C115.363 41.1785 115.966 40.069 116.536 38.9912C117.17 37.9133 117.709 36.994 118.153 36.2332C118.66 35.4089 118.977 34.9651 119.104 34.9017C119.167 34.7115 119.421 34.3945 119.865 33.9507C120.309 33.4435 120.784 32.9046 121.291 32.3339C121.862 31.7633 122.401 31.2561 122.908 30.8123C123.415 30.3051 123.827 29.9881 124.144 29.8613C124.271 29.6711 124.62 29.5126 125.191 29.3857C125.825 29.2589 126.205 29.1955 126.332 29.1955C128.234 28.2445 130.041 27.3569 131.753 26.5327C133.464 25.7084 135.176 24.9159 136.888 24.1551C138.663 23.3943 140.47 22.6968 142.309 22.0628C144.148 21.4288 146.177 20.8265 148.396 20.2559H148.491H148.871C149.949 20.3193 151.344 20.4144 153.056 20.5412C154.768 20.6046 156.416 20.6997 158.001 20.8265C159.65 20.8899 161.044 20.9533 162.186 21.0167C163.39 21.0801 164.056 21.1118 164.183 21.1118C167.036 21.3654 169.857 22.253 172.647 23.7747C175.5 25.2329 178.131 27.0716 180.54 29.2906C183.013 31.5097 185.137 33.9824 186.912 36.7087C188.751 39.3716 190.114 41.971 191.002 44.5071C191.065 44.5705 191.129 44.8558 191.192 45.3631C191.319 45.8069 191.414 46.3141 191.477 46.8847C191.604 47.4553 191.699 47.9942 191.763 48.5015C191.889 48.9453 192.016 49.2306 192.143 49.3574C192.143 49.4842 192.238 49.8646 192.428 50.4986C192.682 51.0692 192.936 51.7033 193.189 52.4007C193.506 53.0981 193.76 53.7321 193.95 54.3027C194.204 54.8734 194.362 55.2221 194.426 55.3489C194.426 55.4757 194.457 55.6342 194.521 55.8244C194.521 55.9512 194.521 56.078 194.521 56.2048C194.584 56.3316 194.616 56.4267 194.616 56.4901C194.616 57.5679 194.552 58.6141 194.426 59.6285C194.299 60.5795 194.235 61.5623 194.235 62.5767C194.235 63.4009 194.299 64.1301 194.426 64.7641C194.616 65.3981 194.711 66.0955 194.711 66.8563V68.4731C193.887 72.2772 193.094 75.9545 192.333 79.505C191.572 82.9922 190.495 86.2891 189.1 89.3958C187.705 92.4391 185.866 95.2604 183.584 97.8599C181.301 100.459 178.226 102.742 174.359 104.707C170.618 106.609 166.751 108.099 162.756 109.177C158.825 110.255 154.799 110.794 150.678 110.794C150.298 110.794 149.79 110.762 149.156 110.699C148.586 110.699 148.015 110.699 147.445 110.699C146.874 110.699 146.367 110.667 145.923 110.604C145.479 110.604 145.257 110.604 145.257 110.604C145.194 110.604 144.718 110.509 143.831 110.318C143.006 110.065 141.992 109.78 140.787 109.462C139.646 109.145 138.473 108.828 137.269 108.511C136.064 108.131 135.081 107.846 134.32 107.656C133.623 107.465 132.894 107.275 132.133 107.085C131.372 106.895 130.643 106.578 129.946 106.134C128.17 105.183 126.427 104.168 124.715 103.091C123.003 102.013 121.323 100.903 119.675 99.762C119.611 99.6352 119.516 99.5084 119.389 99.3816C119.262 99.1914 119.167 99.0329 119.104 98.9061C117.709 97.1942 116.314 95.0702 114.919 92.5342C113.525 89.9347 112.257 87.2084 111.115 84.3553C110.037 81.4388 109.15 78.5223 108.452 75.6058C107.755 72.6259 107.406 69.9313 107.406 67.5221Z" fill="white"/>
<path d="M46.1675 98.2404C47.8793 98.811 49.3059 99.445 50.4471 100.142C51.6517 100.84 53.0783 101.189 54.7267 101.189H57.1994C57.3896 101.125 57.77 100.967 58.3407 100.713C58.9113 100.396 59.5136 100.079 60.1476 99.7621C60.845 99.445 61.4474 99.1597 61.9546 98.9061C62.5252 98.5891 62.9056 98.3672 63.0958 98.2404C63.1592 98.2404 63.3494 98.177 63.6664 98.0502C63.9834 97.86 64.3322 97.6698 64.7126 97.4796C65.1564 97.2894 65.5685 97.1309 65.9489 97.0041C66.3293 96.8139 66.5829 96.6871 66.7097 96.6237C66.7731 96.5603 66.9633 96.3701 67.2803 96.053C67.6608 95.6726 68.0729 95.2605 68.5167 94.8167C69.0239 94.3729 69.4994 93.9291 69.9432 93.4853C70.387 93.0414 70.7358 92.7244 70.9894 92.5342C70.9894 92.4074 71.1162 92.1538 71.3698 91.7734C71.6234 91.3296 71.7502 91.0126 71.7502 90.8224C71.8136 90.759 71.877 90.4737 71.9404 89.9664C72.0038 89.4592 72.0672 88.9203 72.1306 88.3497C72.194 87.7791 72.2574 87.2402 72.3208 86.7329C72.4476 86.2257 72.5427 85.9087 72.6061 85.7819C72.6061 85.7185 72.7012 85.5283 72.8914 85.2113C73.0816 84.8943 73.3035 84.5456 73.5571 84.1652C73.8108 83.7848 74.0644 83.4043 74.318 83.0239C74.5716 82.6435 74.7618 82.3899 74.8886 82.2631C75.3958 80.9951 75.7128 79.727 75.8396 78.459C75.9664 77.1275 76.0298 75.8278 76.0298 74.5598V71.1361C76.0298 67.5221 75.903 63.9716 75.6494 60.4845C75.4592 56.9974 75.2056 53.6371 74.8886 50.4036C74.318 49.0088 73.8425 47.6456 73.462 46.3142C73.145 44.9827 72.7646 43.7147 72.3208 42.51C71.877 41.242 71.3381 40.0374 70.7041 38.8961C70.1334 37.7549 69.2775 36.6454 68.1363 35.5675C66.6146 34.1727 65.1881 32.9363 63.8566 31.8585C62.5886 30.7807 61.2572 29.893 59.8623 29.1956C58.5309 28.4982 57.0409 27.9593 55.3925 27.5789C53.8074 27.1985 51.9371 27.0083 49.7814 27.0083H49.2108C48.9572 27.1351 48.5451 27.3253 47.9744 27.5789C47.4038 27.8325 46.8015 28.1178 46.1675 28.4348C45.5335 28.7518 44.9311 29.0688 44.3605 29.3858C43.8533 29.6394 43.5046 29.7979 43.3144 29.8613C42.2366 30.4954 41.4123 31.1928 40.8417 31.9536C40.3345 32.651 39.9541 33.4119 39.7005 34.2361C39.4469 35.0603 39.2884 35.9479 39.225 36.899C39.1616 37.85 39.0347 38.8961 38.8445 40.0374C38.8445 40.4178 38.7494 41.1469 38.5592 42.2247C38.369 43.2392 38.1471 44.317 37.8935 45.4582C37.7033 46.5995 37.4814 47.709 37.2278 48.7868C37.0376 49.8013 36.8791 50.4987 36.7523 50.8791C36.8157 51.0059 36.8791 51.2595 36.9425 51.6399C37.0693 51.9569 37.1644 52.3374 37.2278 52.7812C37.3546 53.1616 37.4497 53.542 37.5131 53.9224C37.5765 54.2394 37.6082 54.4296 37.6082 54.493C37.6082 54.9368 37.6399 55.8562 37.7033 57.251C37.7667 58.5825 37.8301 60.0407 37.8935 61.6258C37.9569 63.1474 38.0203 64.6373 38.0837 66.0956C38.2105 67.4904 38.3056 68.5049 38.369 69.1389V85.1162C38.4324 85.3064 38.5592 85.6551 38.7494 86.1623C38.9396 86.6061 39.1299 87.1134 39.3201 87.684C39.5737 88.2546 39.7956 88.7935 39.9858 89.3007C40.2394 89.8079 40.4296 90.1567 40.5564 90.3469C40.6198 90.4103 40.6515 90.5371 40.6515 90.7273C40.7149 90.8541 40.81 90.9809 40.9368 91.1077C41.0002 91.2979 41.0953 91.4881 41.2221 91.6783C41.4123 91.9319 41.7293 92.3757 42.1731 93.0097C42.6804 93.6438 43.1876 94.3412 43.6948 95.102C44.2654 95.7994 44.7726 96.4652 45.2164 97.0992C45.6603 97.6698 45.9773 98.0502 46.1675 98.2404ZM0.898438 155.492C0.898438 155.366 0.930139 155.144 0.993541 154.827C1.05694 154.573 1.08864 154.351 1.08864 154.161C1.53246 153.147 2.13478 152.322 2.8956 151.688C3.59302 151.118 4.35385 150.674 5.17807 150.357C6.0657 150.103 6.98503 149.945 7.93606 149.881C8.88709 149.818 9.83812 149.786 10.7892 149.786C12.9448 149.786 14.8469 149.659 16.4953 149.406C18.2072 149.216 19.1899 148.455 19.4435 147.123C19.6337 145.792 19.7288 144.46 19.7288 143.129C19.7922 141.798 19.8239 140.339 19.8239 138.754C19.8239 137.169 19.9507 135.743 20.2044 134.475C20.458 133.207 20.7116 131.843 20.9652 130.385V82.9288C20.9652 82.6752 20.9969 82.2948 21.0603 81.7876C21.1237 81.217 21.1554 80.6464 21.1554 80.0757C21.2188 79.4417 21.2822 78.8711 21.3456 78.3639C21.409 77.7933 21.4407 77.4129 21.4407 77.2226V76.3667V75.701C21.4407 75.5108 21.409 74.9402 21.3456 73.9891C21.2822 73.0381 21.2188 72.0237 21.1554 70.9458C21.1554 69.868 21.1237 68.8536 21.0603 67.9026C20.9969 66.8881 20.9652 66.2541 20.9652 66.0005V58.1069C20.8384 57.6631 20.7433 56.9023 20.6799 55.8245C20.6165 54.7466 20.5531 53.6371 20.4897 52.4959C20.4263 51.3546 20.3629 50.2768 20.2995 49.2624C20.2361 48.2479 20.1726 47.5822 20.1092 47.2652C19.8556 45.1095 19.2216 43.4294 18.2072 42.2247C17.2562 40.9567 15.7028 39.9423 13.5471 39.1814C13.2301 39.118 12.6912 39.0229 11.9304 38.8961C11.1696 38.7059 10.377 38.5474 9.55281 38.4206C8.72859 38.2304 7.93606 38.0719 7.17524 37.9451C6.41441 37.8183 5.9072 37.7549 5.65359 37.7549C5.14637 37.7549 4.86106 37.6281 4.79766 37.3745C4.73426 37.0575 4.70256 36.7405 4.70256 36.4235C4.70256 35.1554 5.11467 34.1727 5.9389 33.4753C6.76312 32.7144 7.71415 32.1121 8.79199 31.6683C9.93322 31.2245 11.0745 30.9075 12.2157 30.7173C13.4203 30.4637 14.3714 30.1784 15.0688 29.8613C15.0688 29.8613 15.1956 29.7662 15.4492 29.576C15.7662 29.3224 16.0832 29.0688 16.4002 28.8152C16.7172 28.5616 17.0025 28.308 17.2562 28.0544C17.5732 27.8008 17.7634 27.6106 17.8268 27.4838C18.017 27.357 18.4291 27.1351 19.0631 26.818C19.7605 26.501 20.4897 26.184 21.2505 25.867C22.0113 25.4866 22.7087 25.1379 23.3428 24.8209C24.0402 24.5039 24.5474 24.2503 24.8644 24.0601C25.752 23.6162 26.3543 23.3626 26.6714 23.2992C27.0518 23.1724 27.4956 23.109 28.0028 23.109C28.8904 23.109 29.6195 23.3309 30.1902 23.7748C30.8242 24.1552 31.3948 24.599 31.902 25.1062C32.4726 25.55 33.0433 25.9938 33.6139 26.4376C34.2479 26.818 34.977 27.0083 35.8012 27.0083C37.3229 27.0083 38.6226 26.6595 39.7005 25.9621C40.8417 25.2013 42.0463 24.5673 43.3144 24.0601C44.5824 23.5528 45.7871 23.0456 46.9283 22.5384C48.1329 21.9678 49.3059 21.4606 50.4471 21.0168C51.6517 20.573 52.8564 20.2242 54.061 19.9706C55.3291 19.6536 56.6922 19.4951 58.1505 19.4951C58.5943 19.4951 59.2283 19.5268 60.0525 19.5902C60.9401 19.5902 61.384 19.6536 61.384 19.7804C61.5108 19.7804 61.7644 19.8438 62.1448 19.9706C62.5886 20.034 63.0324 20.1291 63.4762 20.2559C63.92 20.3827 64.3005 20.5095 64.6175 20.6364C64.9979 20.7632 65.1881 20.8583 65.1881 20.9217C65.2515 20.9217 65.4734 20.9217 65.8538 20.9217C66.2342 20.9217 66.6146 20.9217 66.995 20.9217C67.4389 20.9217 67.851 20.9534 68.2314 21.0168C68.6118 21.0168 68.8654 21.0485 68.9922 21.1119C70.0066 21.2387 70.9894 21.7459 71.9404 22.6335C72.9548 23.4577 73.9376 24.1552 74.8886 24.7258C74.8886 24.7892 75.0154 24.916 75.269 25.1062C75.586 25.2964 75.9347 25.5183 76.3151 25.7719C76.6955 26.0255 77.076 26.2791 77.4564 26.5327C77.9002 26.7229 78.2172 26.8815 78.4074 27.0083C80.1827 27.9593 81.7677 29.1956 83.1626 30.7173C84.5574 32.1755 85.8254 33.7923 86.9667 35.5675C88.1713 37.2794 89.2491 39.0863 90.2002 40.9884C91.1512 42.8271 92.0388 44.634 92.8631 46.4093C92.9899 46.7263 93.1167 47.1067 93.2435 47.5505C93.4337 47.9309 93.5922 48.343 93.719 48.7868C93.9092 49.1673 94.036 49.516 94.0994 49.833C94.2262 50.15 94.2896 50.3402 94.2896 50.4036C94.353 50.4036 94.3847 50.5621 94.3847 50.8791C94.4481 51.1961 94.4798 51.5765 94.4798 52.0203C94.4798 52.4642 94.4798 52.9397 94.4798 53.4469C94.4798 53.9541 94.4798 54.3662 94.4798 54.6832C94.4798 55.0002 94.4798 55.4124 94.4798 55.9196C94.4798 56.4268 94.4798 56.9657 94.4798 57.5363C94.4798 58.0435 94.4481 58.5191 94.3847 58.9629C94.3847 59.3433 94.353 59.5652 94.2896 59.6286C94.2896 59.7554 94.1945 60.1358 94.0043 60.7698C93.8141 61.3404 93.719 61.7209 93.719 61.9111V66.0005C93.719 66.1907 93.5922 66.6662 93.3386 67.427C93.1484 68.1245 92.9899 68.6951 92.8631 69.1389C92.7997 69.2657 92.7046 69.551 92.5777 69.9948C92.4509 70.3752 92.2924 70.819 92.1022 71.3263C91.9754 71.7701 91.8486 72.2139 91.7218 72.6577C91.595 73.0381 91.5316 73.2917 91.5316 73.4185C91.4682 73.6721 91.3414 74.2428 91.1512 75.1304C91.0244 76.018 90.8659 76.969 90.6757 77.9835C90.5489 78.9345 90.4221 79.8538 90.2953 80.7415C90.1685 81.5657 90.1051 82.0729 90.1051 82.2631C89.7881 83.5311 89.3759 84.5456 88.8687 85.3064C88.4249 86.0038 87.7909 86.9866 86.9667 88.2546C85.1914 91.2979 83.3528 93.9925 81.4507 96.3384C79.612 98.6842 77.5515 100.65 75.269 102.235C72.9865 103.756 70.4187 104.929 67.5657 105.754C64.7126 106.578 61.4157 106.99 57.6749 106.99C56.1533 106.99 54.6316 106.895 53.11 106.705C51.6517 106.451 50.1618 106.197 48.6402 105.944C47.1819 105.627 45.692 105.341 44.1703 105.088C42.6487 104.834 41.0953 104.707 39.5103 104.707H38.369C38.1154 104.834 37.9252 105.12 37.7984 105.563C37.6716 105.944 37.6082 106.197 37.6082 106.324C37.418 108.543 37.2595 110.604 37.1327 112.506C37.0059 114.471 36.9108 116.405 36.8474 118.307C36.784 120.273 36.7523 122.238 36.7523 124.204C36.7523 126.232 36.7523 128.388 36.7523 130.671V142.558C36.7523 144.397 37.1327 145.76 37.8935 146.648C38.6543 147.535 39.7639 148.423 41.2221 149.311C41.4123 149.374 41.6976 149.469 42.078 149.596C42.5219 149.786 43.1559 149.945 43.9801 150.072C44.8043 150.262 45.9139 150.42 47.3087 150.547C48.7036 150.674 50.5105 150.737 52.7296 150.737C53.11 150.864 53.427 151.023 53.6806 151.213C53.9342 151.34 54.1878 151.466 54.4414 151.593C54.695 151.783 54.9487 151.942 55.2023 152.069C55.5193 152.386 55.7095 152.639 55.7729 152.83C55.8363 153.02 55.868 153.273 55.868 153.59V154.732C55.868 154.795 55.8046 155.049 55.6778 155.492C55.551 155.936 55.4876 156.222 55.4876 156.348C54.4097 157.173 53.3636 157.68 52.3492 157.87C51.3347 158.06 50.1935 158.155 48.9255 158.155C47.2136 158.155 45.5335 157.997 43.885 157.68C42.3 157.426 40.6198 157.299 38.8445 157.299H37.6082C37.418 157.299 36.9108 157.331 36.0866 157.394C35.3257 157.458 34.4698 157.521 33.5188 157.585C32.6311 157.711 31.7752 157.807 30.951 157.87C30.1902 157.933 29.7147 157.965 29.5244 157.965H24.7693H11.9304C11.7402 157.965 11.3281 157.997 10.694 158.06C10.1234 158.124 9.48941 158.187 8.79199 158.25C8.09457 158.377 7.42884 158.472 6.79482 158.536C6.22421 158.599 5.84379 158.631 5.65359 158.631H4.70256H4.03684C3.84663 158.567 3.62472 158.441 3.37112 158.25C3.05411 158.06 2.7371 157.838 2.42009 157.585C2.10308 157.331 1.81777 157.077 1.56416 156.824C1.31055 156.634 1.15205 156.475 1.08864 156.348C1.02524 156.222 0.993541 156.095 0.993541 155.968C0.930139 155.841 0.898438 155.683 0.898438 155.492Z" fill="white"/>
</svg>
