<svg width="210" height="109" viewBox="0 0 210 109" fill="none" xmlns="http://www.w3.org/2000/svg">
<path d="M105.793 108.366C105.793 108.366 105.5 108 105.5 107.5C105.5 107 105.5 106.891 105.5 106.5C105.5 105.719 105.204 104.5 105.5 104.5C105.704 104.5 105.301 102.414 105.305 101.5C105 101 105.307 100.777 105.309 100.398C105.5 100 105.312 99.3179 105.314 98.7462C105.5 98.5 105.498 97.5618 105.5 97C105.503 96.267 105.325 95.6176 105.328 94.8302C105 94 105.332 93.5132 105.335 92.8293L105.325 92.784C105.149 91.9354 105.73 91.5879 104.865 90.294C104 89 104.393 87.574 104.027 86.2916C103.806 85.5204 103.449 84.7676 103.1 84.0327C102.836 83.4772 102.577 82.9315 102.385 82.3962C102.02 81.3728 101.725 80.3034 101.433 79.2452C100.906 77.3334 100.389 75.4581 99.4822 73.9561C98.6453 72.5706 97.428 71.5461 96.2119 70.5225C95.55 69.9654 94.888 69.4082 94.2884 68.7936C91.3104 65.7415 87.8327 63.692 83.2513 61.6207C82.7029 61.3727 82.1178 61.0764 81.5122 60.7697C80.3964 60.2048 79.2108 59.6044 78.0574 59.2063C76.5416 58.683 74.9426 58.1905 73.2551 57.7252C72.9839 57.6505 72.7041 57.6259 72.4274 57.6017C71.8809 57.5538 71.3469 57.507 70.9158 57.076C70.6322 57.0056 70.3133 56.8859 69.9907 56.7648C69.6409 56.6334 69.2864 56.5002 68.9681 56.4268C68.5432 56.3287 68.1133 56.3759 67.6783 56.4237C67.2476 56.4711 66.8119 56.5189 66.3712 56.4268C65.9124 56.3308 64.9698 56.5928 64.5 56.4237C64.5 56.4237 64 56 63.5 56C61.5 56 62 56.5 61 56.5C60 56.5 58 56 57.5 56C56.5 56 56 56.5 55.5 56.4268C55 56.5 53.4201 56.4268 51.5 56C50.5 55.5 50 56.5 48.5 56.5C47.5 56.5 47 56 46.5 56C45.5 56 45.5 56.5 44.5 56.5C43.5 56.5 43 56 41.5 56C40.5 56 40.5 56.5 39.5 56.5C38.5 56.5 37.5 56 37 56C36.5 56 36 56.5 34.5 56.5C34 56.5 33.5 56 33 56C32.5 56.5 30.5 56 29.5 56C28.5 56 28 55 26.5 55.5C25 56 25.4117 55.6453 25 55.5C23.5155 54.9761 22 56.5 21.5 56C21.5 56 20.5 55.5 19.5 56C18.5 55.5 17.5 56 17.5 55.5C17 55.5 15.5 56 15.5 56C15.5 56 14 56 13.5 55.5C12 55.5 11.5 56 11.5 56L10.5 56.5C10 56.5 10 56 10 56C10 55.5 9.5 55.5 9 55.5C8.5 55.5 9 56 8 56C7 56 7 56.5 6 56C6 56 5.5 55.5 5 55.5C4.5 55.5 4.5 56 3.5 56C3 56 3 55.5 2 55.5C2 55.5 0 55.6953 0 55.5C0 55.3047 2.5 55 2.5 55C3.5 55 3.5 55.5 4 55.5C4.5 55.5 5 55 6 55C6.5 55 6 55.5 6.5 55.5C7 55.5 8.01204 54.8765 9 55C9.61271 55.0766 10 55.5 10.5 55.5C11 55.5 12 55 12.5 55C14 55 14.5 55.5 14.5 55.5C16 55.5 17 55 17 55C19 54.5 20 55.5 20 55.5L22.5 55C22.5 55 26 54 26.5 54.5C27 55 28 54.5 28.5 55C28.5 55 29 54.5 30.5 54.5C31 54.5 31.5 55 31.5 55C32 55.5 33.5 55 34.5 55.5C35 56 37.5 55.5 38 55.5C38 55.5 39 55 40 55C41 55 42 55.5 42.5 55.5C43.5 55.5 44 55 45 55C46 55 47.5 55.5 47.5 55.5C49 55.5 50 55 50 55C50 55 51.5 54.5 52.5 54.5C53.5 54.5 54 55 54 55C55 55 55 54.5 56.5 54.5C57 54.5 58 55 59 55C59.5 55 61.5 54 63 54.5C63 54.5 64.5 55 64.9823 55C65.266 54.9296 65.5251 54.8717 65.722 54.8468C66.1568 54.7919 66.8455 54.8208 67.534 54.8496C68.2447 54.8795 68.9553 54.9093 69.3858 54.8468C71.0063 54.6117 72.4303 54.4705 73.7523 54.3395C76.203 54.0966 78.3032 53.8885 80.6544 53.1806C83.1856 51.4931 85.6262 50.2778 87.9087 49.1412C92.6515 46.7795 96.7114 44.7579 99.4822 39.5466C100.183 38.2283 100.694 35.832 101.176 33.5711C101.476 32.1678 101.764 30.8167 102.079 29.8081C102.305 29.0872 102.704 28.3467 103.114 27.5859C103.63 26.6278 104.163 25.6376 104.389 24.6142C104.553 23.8743 104.481 23.2633 104.406 22.6312C104.335 22.0268 104.262 21.4031 104.389 20.629C104.502 19.9473 104.814 19.1298 105.134 18.2914L105.135 18.2882C105.257 17.9686 105.38 17.646 105.494 17.3268C105.486 15.4131 105.474 14.3167 105.456 14.2569C105.344 13.8897 105.373 13.6202 105.404 13.3206C105.421 13.1581 105.44 12.9868 105.437 12.7863C105.429 12.2162 105.347 8.79975 105.28 8.77776C104.841 8.63468 105.085 5.84154 105.215 4.35439C105.252 3.93686 105.279 3.62229 105.28 3.49819C105.281 3.27702 105.278 3.12027 105.275 2.96868C105.271 2.73221 105.266 2.50827 105.28 2.07199C105.303 1.356 105.99 -0.254988 106.412 1.8914C106.412 1.897 106.407 1.94377 106.398 2.02362C106.313 2.76293 105.902 6.32938 106.412 6.32938C106.979 6.32938 106.412 11.4255 106.412 11.4255V13.6271C106.416 13.7032 106.418 13.7802 106.418 13.8584C106.485 14.5802 106.657 15.1888 106.828 15.7911C106.981 16.331 107.133 16.8659 107.206 17.4726C107.262 17.9401 107.232 18.4894 107.202 19.035C107.17 19.6025 107.139 20.166 107.206 20.629C107.371 21.7768 107.55 22.8884 107.743 23.9649C107.898 24.8239 108.322 25.6605 108.736 26.4753C109.088 27.1691 109.432 27.8471 109.595 28.5096C109.73 29.0623 109.655 29.6042 109.582 30.1355C109.506 30.6869 109.431 31.2269 109.595 31.7558C109.901 32.7441 110.573 34.2082 111.142 35.4459C111.405 36.0189 111.646 36.5434 111.818 36.9497C114.417 43.0929 117.012 47.3374 122.855 49.3636C123.461 49.7026 124.038 50.0425 124.607 50.3774C126.948 51.7551 129.142 53.0469 132.593 53.8298C133.735 54.0888 135.338 54.1602 136.933 54.2312C138.158 54.2858 139.38 54.3402 140.384 54.479C140.736 54.5277 141.091 54.579 141.45 54.6308C142.361 54.7624 142.748 54.479 143.5 54.479C144.252 54.479 145 55 146 54.5C147 54 146.5 54.5 148 54.5C149.5 54.5 149.563 55 150.5 55C151.748 55 151.804 54.6308 153 54.6308C154.656 54.6308 156.928 55 158.5 55C159.986 55 163.072 55 164.5 55C166.707 55 166.885 55.5 169 55.5C170.458 55.5 172.736 55 174.173 55C175.825 55 176.848 55.5 178.5 55.5C180 55 181.858 55.5 183.5 55.5C184.655 55.5 186.32 55 187.5 55C188.813 55 189.5 54.479 191.5 55C193.202 55.4432 194.074 55 195.4 55C196.255 55 197.121 55.5 198 55.5C199.144 55.5 198.309 55 199.5 55C200.453 55 200 55.5 202 55C203 54.5 204.965 55 205.5 55C205.916 55 206.077 55.5 206.5 55.5C206.5 55.5 209.918 55.3307 210 55.5C210.082 55.6693 209.741 55.5 207.5 56C205.259 56.5 206 56 205.5 56C206 56 205 56 205.5 56C205 56 203.5 56.5 202.5 56C201.5 55.5 201.5 56 199.5 56C197.5 56 199 56.0732 196.5 56C194 55.9268 195 56.19 193 56C191 55.81 190.5 56.4268 189.5 56C188.5 55.5732 187.653 56.19 186 56C184.346 55.81 185 56.5 182.5 56.19C180 55.8799 178.5 57 177.38 56.19C176.261 55.3799 174.5 56.5 172 56.5C169.5 56.5 169.5 57 166.5 56.5C163.5 56 162 56.5 162 56.5C162 56.5 158.5 57 156.5 56.5C154.5 56 153.418 56.31 153 56.5C152.582 56.69 150 56.5 149 56.19C148 55.8799 147 56.5 147 56.5H145C144.789 56.5537 144.215 56.4321 144 56.5C143.707 56.5926 142.77 56.9475 142.5 57C140.132 57.4607 139.146 57.6053 137.661 58.3313C136.709 58.7971 135.749 59.2662 134.541 59.6729C132.887 60.2298 130.796 60.9718 129.347 61.6207C128.69 61.915 127.902 62.1626 127.111 62.4114C126.024 62.7531 124.93 63.0973 124.153 63.5684C123.778 63.7963 123.4 64.0206 123.025 64.244L123.023 64.2452C121.042 65.4238 119.103 66.5775 117.617 68.113C117.454 68.2822 117.288 68.4525 117.122 68.624C115.2 70.6021 113.116 72.7463 111.818 75.2546C111.362 76.1359 111.15 77.0865 110.932 78.0668C110.771 78.7879 110.607 79.5252 110.339 80.2625C110.149 80.7873 109.898 81.427 109.627 82.1181C109.002 83.7107 108.271 85.5768 107.922 86.9409C107.737 87.6653 107.754 88.1003 107.773 88.561C107.79 88.9935 107.808 89.4486 107.66 90.1871C107.308 91.9504 107.5 93 107.5 93C107.66 93.8425 107 96 107 96C107.088 96.378 106.588 98 106.5 98.5C106.588 99 106.45 99.8977 106.363 100.398C105.95 100.398 106.45 102.637 106.363 102.836C106.363 103.009 106.5 103.5 106.5 104C106 104.5 106.5 106 106.363 106.891C106.225 107.782 106 108 106 108C106 108 106.121 108.5 106 108.5C105.879 108.5 105.793 108.366 105.793 108.366Z" fill="url(#paint0_linear_784_3049)"/>
<defs>
<linearGradient id="paint0_linear_784_3049" x1="59" y1="55" x2="150.5" y2="55" gradientUnits="userSpaceOnUse">
<stop stop-color="#F2BAC6"/>
<stop offset="1" stop-color="#B7F5E4"/>
</linearGradient>
</defs>
</svg>
