<svg width="212" height="143" viewBox="0 0 212 143" fill="none" xmlns="http://www.w3.org/2000/svg">
<path d="M165.485 140.967C164.598 140.65 163.996 140.27 163.679 139.826C163.361 139.382 163.203 138.717 163.203 137.829C163.203 136.434 163.837 135.546 165.105 135.166C166.373 134.722 167.8 134.405 169.385 134.215C171.033 133.961 172.555 133.613 173.95 133.169C175.344 132.662 176.2 131.647 176.517 130.126C176.834 127.716 177.025 125.497 177.088 123.468C177.151 121.376 177.183 119.316 177.183 117.287V112.056C177.183 107.111 177.056 102.134 176.803 97.1249C176.613 92.1161 176.517 87.1074 176.517 82.0986C176.517 77.5971 176.613 73.1906 176.803 68.8793C177.056 64.568 177.183 60.1932 177.183 55.7551C177.183 51.5705 177.056 47.4494 176.803 43.3917C176.613 39.334 176.517 35.2128 176.517 31.0283V26.9389C176.01 25.4806 175.344 24.1809 174.52 23.0396C173.759 21.835 172.65 20.9474 171.192 20.3768C170.811 20.1865 170.05 19.9963 168.909 19.8061C167.831 19.6159 166.69 19.394 165.485 19.1404C164.344 18.8868 163.298 18.5698 162.347 18.1894C161.459 17.809 161.016 17.2701 161.016 16.5726C161.016 16.0654 161.142 15.5582 161.396 15.051C161.713 14.4804 162.093 14.1317 162.537 14.0048C164.756 12.8002 167.039 11.7541 169.385 10.8665C171.731 9.97882 174.108 9.02779 176.517 8.01336C177.468 7.56955 178.451 7.06233 179.466 6.49171C180.543 5.92109 181.621 5.38218 182.699 4.87496C183.84 4.30434 184.982 3.86053 186.123 3.54352C187.264 3.16311 188.437 2.9729 189.642 2.9729C190.085 2.9729 190.656 3.0046 191.353 3.068C192.114 3.13141 192.653 3.32161 192.97 3.63862C193.224 3.89223 193.414 4.39945 193.541 5.16027C193.668 5.85769 193.731 6.36491 193.731 6.68192C193.731 6.99893 193.731 7.60125 193.731 8.48888C193.794 9.3131 193.826 10.2007 193.826 11.1518C193.826 12.1028 193.826 13.0221 193.826 13.9097C193.89 14.7974 193.921 15.4314 193.921 15.8118C193.921 16.319 193.89 17.0481 193.826 17.9992C193.826 18.9502 193.826 19.9012 193.826 20.8523C193.826 21.8033 193.794 22.6592 193.731 23.42C193.731 24.1809 193.731 24.593 193.731 24.6564C193.731 25.0368 193.699 25.7659 193.636 26.8438C193.636 27.8582 193.604 28.936 193.541 30.0773C193.477 31.2185 193.382 32.328 193.256 33.4059C193.192 34.4203 193.097 35.1177 192.97 35.4981C192.907 35.6249 192.843 35.8785 192.78 36.259C192.717 36.576 192.653 36.9564 192.59 37.4002C192.526 37.844 192.463 38.2561 192.4 38.6365C192.336 38.9535 192.305 39.1754 192.305 39.3023V40.1582C192.305 40.285 192.368 40.602 192.495 41.1092C192.685 41.6164 192.843 41.9334 192.97 42.0602V60.5102C193.668 61.9685 194.08 63.395 194.207 64.7899C194.333 66.1213 194.397 67.6746 194.397 69.4499C194.397 70.5911 194.365 71.8909 194.302 73.3491C194.238 74.8074 194.048 76.1705 193.731 77.4386C193.731 80.038 193.763 82.5424 193.826 84.9517C193.89 87.2976 193.921 89.6751 193.921 92.0844C193.921 96.0153 193.858 99.8829 193.731 103.687C193.604 107.491 193.351 111.422 192.97 115.48C192.907 115.797 192.812 116.558 192.685 117.762C192.558 118.967 192.4 120.267 192.209 121.661C192.083 122.993 191.924 124.261 191.734 125.466C191.607 126.67 191.512 127.399 191.449 127.653V128.509C191.449 129.079 191.607 129.714 191.924 130.411C192.241 131.045 192.653 131.647 193.16 132.218C193.668 132.789 194.207 133.264 194.777 133.644C195.411 134.025 196.014 134.215 196.584 134.215H208.852C209.423 134.215 209.899 134.374 210.279 134.691C210.659 134.944 210.976 135.293 211.23 135.737C211.484 136.181 211.674 136.624 211.801 137.068C211.927 137.512 211.991 137.924 211.991 138.304C211.991 139.192 211.737 139.89 211.23 140.397C210.786 140.904 210.216 141.284 209.518 141.538C208.821 141.792 208.06 141.95 207.236 142.014C206.475 142.077 205.777 142.109 205.143 142.109H203.146C196.933 141.855 190.656 141.696 184.316 141.633C178.039 141.633 171.762 141.411 165.485 140.967Z" fill="white"/>
<path d="M83.5975 104.258C83.5975 107.872 84.3266 111.359 85.7849 114.719C87.3065 118.016 89.272 120.964 91.6813 123.564C92.4421 124.325 93.2029 125.181 93.9637 126.132C94.7246 127.083 95.5171 128.002 96.3413 128.89C97.2289 129.777 98.1483 130.602 99.0993 131.362C100.114 132.123 101.192 132.694 102.333 133.074L108.324 134.406H109.085H109.941C110.512 134.342 111.304 134.279 112.319 134.215C113.333 134.152 114.347 134.089 115.362 134.025C116.376 133.962 117.264 133.898 118.025 133.835C118.786 133.772 119.229 133.74 119.356 133.74C120.307 133.55 121.353 133.074 122.495 132.313C123.699 131.553 124.904 130.697 126.109 129.746C127.313 128.731 128.454 127.717 129.532 126.702C130.674 125.625 131.656 124.737 132.48 124.039C132.544 124.039 132.639 123.976 132.766 123.849C132.829 123.786 132.893 123.691 132.956 123.564C134.541 120.267 135.809 116.812 136.76 113.198C137.775 109.52 138.282 105.938 138.282 102.451C138.282 99.598 138.028 96.9351 137.521 94.4624C137.077 91.9897 136.316 89.5171 135.238 87.0444C135.238 86.8542 135.112 86.4738 134.858 85.9031C134.668 85.3325 134.573 84.9838 134.573 84.857C134.192 83.2086 133.78 81.4333 133.336 79.5312C132.956 77.5658 132.132 75.949 130.864 74.681C130.737 74.4908 130.388 74.1104 129.818 73.5398C129.247 72.9691 128.613 72.3668 127.916 71.7328C127.281 71.0988 126.679 70.4965 126.109 69.9258C125.601 69.3552 125.316 68.9748 125.253 68.7846C125.126 68.7212 124.936 68.5627 124.682 68.3091C124.492 67.9921 124.27 67.6751 124.016 67.3581C123.763 67.041 123.509 66.7557 123.255 66.5021C123.065 66.1851 122.97 65.9949 122.97 65.9315C122.78 65.8047 122.495 65.5511 122.114 65.1707C121.797 64.7269 121.575 64.4416 121.449 64.3148C121.322 64.3148 121.1 64.2514 120.783 64.1246C120.466 63.9343 120.117 63.7441 119.737 63.5539C119.356 63.3637 119.008 63.2052 118.691 63.0784C118.374 62.8882 118.183 62.7931 118.12 62.7931C117.93 62.6663 117.422 62.5078 116.598 62.3176C115.774 62.1274 114.886 61.9372 113.935 61.747C113.048 61.5568 112.192 61.3983 111.368 61.2715C110.607 61.0813 110.131 60.9545 109.941 60.891C109.624 60.891 109.117 60.9545 108.419 61.0813C107.722 61.1447 106.993 61.2715 106.232 61.4617C105.471 61.5885 104.742 61.7153 104.045 61.8421C103.347 61.9689 102.777 62.064 102.333 62.1274C101.445 63.015 100.526 63.8392 99.5748 64.6001C98.6872 65.2975 97.7996 66.0266 96.9119 66.7874C96.0243 67.4849 95.1684 68.2457 94.3442 69.0699C93.5833 69.8307 92.9176 70.7184 92.347 71.7328C92.2202 71.923 91.9666 72.3351 91.5862 72.9691C91.2692 73.6032 90.8887 74.3006 90.4449 75.0614C90.0645 75.8222 89.6841 76.5196 89.3037 77.1537C88.9867 77.7877 88.7965 78.1681 88.7331 78.2949C88.3527 79.0557 87.9088 79.88 87.4016 80.7676C86.9578 81.5918 86.514 82.4794 86.0702 83.4305C85.6264 84.3815 85.246 85.3642 84.929 86.3787C84.6753 87.3297 84.5168 88.249 84.4534 89.1366C84.3266 89.8341 84.1998 90.9436 84.073 92.4653C84.0096 93.9869 83.9462 95.572 83.8828 97.2204C83.8194 98.8055 83.756 100.295 83.6926 101.69C83.6292 103.022 83.5975 103.878 83.5975 104.258ZM66.8594 98.5518C66.8594 97.2204 67.0813 95.889 67.5251 94.5575C68.0323 93.2261 68.4444 91.9263 68.7614 90.6583C68.8248 90.4047 68.9516 89.7073 69.1418 88.566C69.3955 87.3614 69.6491 86.0934 69.9027 84.7619C70.2197 83.4305 70.505 82.1941 70.7586 81.0529C71.0122 79.9117 71.1707 79.2142 71.2341 78.9606C71.3609 78.5802 71.5194 78.1998 71.7096 77.8194C71.8364 77.5024 71.9632 77.1854 72.09 76.8684C72.2802 76.4879 72.4388 76.2026 72.5656 76.0124C73.0094 75.3784 73.5483 74.4908 74.1823 73.3495C74.8163 72.2083 75.4186 71.0988 75.9893 70.0209C76.6233 68.9431 77.1622 68.0238 77.606 67.263C78.1132 66.4387 78.4302 65.9949 78.557 65.9315C78.6204 65.7413 78.8741 65.4243 79.3179 64.9805C79.7617 64.4733 80.2372 63.9343 80.7444 63.3637C81.315 62.7931 81.854 62.2859 82.3612 61.8421C82.8684 61.3349 83.2805 61.0179 83.5975 60.891C83.7243 60.7008 84.073 60.5423 84.6436 60.4155C85.2777 60.2887 85.6581 60.2253 85.7849 60.2253C87.6869 59.2743 89.4939 58.3867 91.2058 57.5624C92.9176 56.7382 94.6295 55.9457 96.3413 55.1849C98.1166 54.424 99.9235 53.7266 101.762 53.0926C103.601 52.4586 105.63 51.8563 107.849 51.2856H107.944H108.324C109.402 51.349 110.797 51.4441 112.509 51.571C114.221 51.6344 115.869 51.7295 117.454 51.8563C119.103 51.9197 120.497 51.9831 121.639 52.0465C122.843 52.1099 123.509 52.1416 123.636 52.1416C126.489 52.3952 129.31 53.2828 132.1 54.8045C134.953 56.2627 137.584 58.1014 139.994 60.3204C142.466 62.5395 144.59 65.0122 146.366 67.7385C148.204 70.4014 149.567 73.0008 150.455 75.5369C150.518 75.6003 150.582 75.8856 150.645 76.3928C150.772 76.8367 150.867 77.3439 150.93 77.9145C151.057 78.4851 151.152 79.024 151.216 79.5312C151.343 79.9751 151.469 80.2604 151.596 80.3872C151.596 80.514 151.691 80.8944 151.881 81.5284C152.135 82.099 152.389 82.733 152.642 83.4305C152.959 84.1279 153.213 84.7619 153.403 85.3325C153.657 85.9031 153.815 86.2519 153.879 86.3787C153.879 86.5055 153.91 86.664 153.974 86.8542C153.974 86.981 153.974 87.1078 153.974 87.2346C154.037 87.3614 154.069 87.4565 154.069 87.5199C154.069 88.5977 154.005 89.6439 153.879 90.6583C153.752 91.6093 153.688 92.5921 153.688 93.6065C153.688 94.4307 153.752 95.1598 153.879 95.7939C154.069 96.4279 154.164 97.1253 154.164 97.8861V99.5029C153.34 103.307 152.547 106.984 151.786 110.535C151.026 114.022 149.948 117.319 148.553 120.426C147.158 123.469 145.319 126.29 143.037 128.89C140.754 131.489 137.679 133.772 133.812 135.737C130.071 137.639 126.204 139.129 122.209 140.207C118.278 141.285 114.252 141.824 110.131 141.824C109.751 141.824 109.244 141.792 108.61 141.729C108.039 141.729 107.468 141.729 106.898 141.729C106.327 141.729 105.82 141.697 105.376 141.634C104.932 141.634 104.71 141.634 104.71 141.634C104.647 141.634 104.171 141.538 103.284 141.348C102.46 141.095 101.445 140.809 100.241 140.492C99.0993 140.175 97.9264 139.858 96.7217 139.541C95.5171 139.161 94.5344 138.876 93.7735 138.685C93.0761 138.495 92.347 138.305 91.5862 138.115C90.8253 137.924 90.0962 137.607 89.3988 137.164C87.6235 136.213 85.88 135.198 84.1681 134.12C82.4563 133.043 80.7761 131.933 79.1277 130.792C79.0643 130.665 78.9692 130.538 78.8424 130.411C78.7156 130.221 78.6204 130.063 78.557 129.936C77.1622 128.224 75.7674 126.1 74.3725 123.564C72.9777 120.964 71.7096 118.238 70.5684 115.385C69.4906 112.469 68.6029 109.552 67.9055 106.636C67.2081 103.656 66.8594 100.961 66.8594 98.5518Z" fill="white"/>
<path d="M0 138.304C0 137.924 0.126804 137.512 0.380412 137.068C0.63402 136.624 0.95103 136.212 1.33144 135.832C1.71185 135.451 2.12397 135.134 2.56778 134.881C3.0116 134.564 3.42371 134.405 3.80412 134.405H14.1704C14.4874 134.278 14.7727 134.12 15.0263 133.93C15.2799 133.803 15.5018 133.676 15.692 133.549C15.9456 133.359 16.1358 133.201 16.2626 133.074C16.326 133.01 16.3577 132.947 16.3577 132.884C16.4211 132.757 16.5162 132.63 16.643 132.503C16.7064 132.376 16.8015 132.281 16.9283 132.218L17.7843 125.656V99.8828C17.7843 97.7271 17.8477 95.7933 17.9745 94.0815C18.1647 92.3696 18.3232 90.7846 18.45 89.3263C18.6402 87.8047 18.7987 86.3464 18.9255 84.9516C19.1157 83.4933 19.2108 81.9717 19.2108 80.3866V79.2454C19.2108 79.182 19.1157 78.9918 18.9255 78.6748C18.7987 78.3578 18.6402 78.0408 18.45 77.7238C18.3232 77.4068 18.1647 77.1214 17.9745 76.8678C17.8477 76.5508 17.7843 76.3606 17.7843 76.2972C17.6575 76.107 17.5307 75.7583 17.4039 75.2511C17.3405 74.6805 17.277 74.1098 17.2136 73.5392C17.1502 72.9052 17.0868 72.3029 17.0234 71.7323C16.96 71.1617 16.9283 70.7178 16.9283 70.4008C16.1675 69.323 15.058 68.6573 13.5997 68.4037C12.1415 68.1501 10.6832 67.9916 9.22499 67.9282C7.76675 67.8648 6.49871 67.7062 5.42087 67.4526C4.34304 67.199 3.80412 66.5333 3.80412 65.4555C3.80412 64.441 4.40644 63.5851 5.61108 62.8877C6.81572 62.1269 8.17886 61.4611 9.70051 60.8905C11.2856 60.3199 12.7755 59.781 14.1704 59.2738C15.6286 58.7032 16.5479 58.0691 16.9283 57.3717C16.9917 57.3717 17.1502 57.1181 17.4039 56.6109C17.5307 56.3573 17.6575 56.1354 17.7843 55.9452V48.7173C17.7843 48.4003 17.8477 47.6078 17.9745 46.3398C18.1013 45.0717 18.2598 44.089 18.45 43.3916C18.5134 43.138 18.6085 42.6942 18.7353 42.0601C18.8621 41.3627 18.9889 40.6336 19.1157 39.8728C19.3059 39.1119 19.4644 38.4145 19.5912 37.7805C19.7814 37.0831 19.9399 36.6076 20.0667 36.354C20.1301 35.7833 20.2569 35.0225 20.4471 34.0715C20.6374 33.1204 20.8593 32.2011 21.1129 31.3135C21.3665 30.3625 21.5884 29.5382 21.7786 28.8408C21.9688 28.1434 22.0639 27.7313 22.0639 27.6045C22.1273 27.4143 22.2858 27.0973 22.5394 26.6534C22.8564 26.1462 23.1734 25.6073 23.4904 25.0367C23.8709 24.4661 24.1879 23.9589 24.4415 23.515C24.7585 23.0712 24.9487 22.7859 25.0121 22.6591C25.0121 22.5323 25.1072 22.1519 25.2974 21.5179C25.551 20.8839 25.7412 20.5034 25.868 20.3766C28.4041 16.3823 31.6376 12.9903 35.5685 10.2006C39.5629 7.41093 43.8425 5.38207 48.4074 4.11403C51.6409 3.2264 54.9695 2.43387 58.3933 1.73645C61.817 0.975627 65.209 0.595215 68.5693 0.595215H70.2811C71.993 0.785421 73.6097 1.10243 75.1314 1.54625C76.7164 1.99006 78.4283 2.46557 80.2669 2.97279C80.9644 3.03619 81.8837 3.2264 83.0249 3.54341C84.1662 3.79702 84.9587 4.36763 85.4025 5.25526C85.5927 5.50887 85.8146 5.92098 86.0682 6.4916C86.3852 7.06222 86.7023 7.66454 87.0193 8.29856C87.3363 8.93258 87.5899 9.5032 87.7801 10.0104C88.0337 10.5176 88.1605 10.8029 88.1605 10.8663C88.1605 10.9931 88.1922 11.1517 88.2556 11.3419C88.2556 11.4687 88.2556 11.6272 88.2556 11.8174C88.319 11.9442 88.3507 12.0393 88.3507 12.1027C88.3507 13.8779 87.9703 15.3679 87.2095 16.5725C86.512 17.7138 85.561 18.6331 84.3564 19.3305C83.1517 19.9645 81.8203 20.4083 80.3621 20.662C78.9038 20.9156 77.4456 21.0424 75.9873 21.0424C75.7971 21.0424 75.4801 21.0424 75.0363 21.0424C74.5925 20.979 74.117 20.9473 73.6097 20.9473C73.1659 20.9473 72.7221 20.9473 72.2783 20.9473C71.8979 20.8839 71.6126 20.8522 71.4224 20.8522C69.5203 20.2815 68.0304 19.3622 66.9525 18.0942C65.9381 16.8261 64.9237 15.5581 63.9092 14.29C62.9582 12.9586 61.817 11.8174 60.4855 10.8663C59.1541 9.85191 57.252 9.34469 54.7793 9.34469C53.8283 9.34469 53.0358 9.40809 52.4018 9.5349C51.7677 9.5983 51.1654 9.75681 50.5948 10.0104C50.0242 10.2006 49.4219 10.4859 48.7878 10.8663C48.2172 11.2468 47.5198 11.7223 46.6956 12.2929C46.6322 12.4197 46.2835 12.6733 45.6494 13.0537C45.0788 13.3707 44.7301 13.6243 44.6033 13.8145C43.1451 14.9558 41.9087 16.0019 40.8943 16.9529C39.8799 17.904 39.0239 18.9184 38.3265 19.9962C37.6925 21.0107 37.1536 22.1836 36.7098 23.515C36.3294 24.7831 36.044 26.3047 35.8538 28.08C35.8538 28.5872 35.8221 29.2529 35.7587 30.0772C35.6953 30.838 35.6002 31.5988 35.4734 32.3596C35.41 33.1204 35.3466 33.8179 35.2832 34.4519C35.2198 35.0225 35.1881 35.3712 35.1881 35.498C35.1247 35.6882 35.093 36.1003 35.093 36.7344C35.093 37.3684 35.093 38.0975 35.093 38.9217C35.093 39.8094 35.093 40.7604 35.093 41.7748C35.093 42.7259 35.093 43.6452 35.093 44.5328C35.1564 45.357 35.1881 46.1179 35.1881 46.8153C35.1881 47.4493 35.1881 47.8614 35.1881 48.0516C35.0613 48.115 34.9028 48.5588 34.7126 49.3831C34.5224 50.2073 34.4273 50.7462 34.4273 50.9998V53.2823V55.9452C34.4273 56.0086 34.5224 56.2622 34.7126 56.706C34.9028 57.0864 35.0613 57.2766 35.1881 57.2766C35.5051 57.4034 35.9806 57.5619 36.6147 57.7521C37.3121 57.9423 38.3265 58.0374 39.658 58.0374H40.3237C40.5773 58.0374 41.1796 58.0057 42.1306 57.9423C43.1451 57.8789 44.2229 57.8155 45.3641 57.7521C46.5688 57.6253 47.6466 57.5302 48.5976 57.4668C49.6121 57.4034 50.2461 57.3717 50.4997 57.3717C52.0848 57.3717 53.6064 57.4668 55.0646 57.657C56.5863 57.8472 57.4739 58.4813 57.7275 59.5591V62.1269C57.7275 63.5851 57.6324 64.6312 57.4422 65.2653C57.252 65.8359 56.935 66.2797 56.4912 66.5967C56.1108 66.8503 55.667 67.0088 55.1598 67.0722C54.7159 67.2624 54.2087 67.3892 53.6381 67.4526C53.0675 67.4526 52.4018 67.516 51.6409 67.6428C51.6409 67.6428 51.4507 67.6428 51.0703 67.6428C50.7533 67.6428 50.4046 67.6745 50.0242 67.7379C49.6438 67.7379 49.2634 67.7379 48.883 67.7379C48.5659 67.7379 48.4074 67.7379 48.4074 67.7379C48.2172 67.7379 47.9002 67.7379 47.4564 67.7379C47.0126 67.7379 46.4737 67.7379 45.8397 67.7379C45.2056 67.6745 44.5399 67.6428 43.8425 67.6428C43.2085 67.6428 42.5745 67.6428 41.9404 67.6428C41.3698 67.6428 40.8626 67.6428 40.4188 67.6428C40.0384 67.6428 39.7848 67.6745 39.658 67.7379C39.2775 67.7379 38.802 67.8013 38.2314 67.9282C37.7242 67.9916 37.2487 68.1184 36.8049 68.3086C36.3611 68.4988 35.9806 68.7841 35.6636 69.1645C35.3466 69.4815 35.1881 69.8936 35.1881 70.4008L35.093 93.4158C35.093 95.825 35.0613 97.8856 34.9979 99.5975C34.9345 101.246 34.8394 102.768 34.7126 104.162C34.6492 105.557 34.5858 106.92 34.5224 108.252C34.459 109.52 34.4273 110.946 34.4273 112.531V114.814V120.71C34.4273 121.027 34.459 121.661 34.5224 122.612C34.5858 123.563 34.6492 124.578 34.7126 125.656C34.776 126.734 34.8394 127.78 34.9028 128.794C35.0296 129.745 35.1247 130.411 35.1881 130.791C35.3149 131.045 35.6319 131.457 36.1391 132.028C36.7098 132.598 37.0585 132.947 37.1853 133.074C37.7559 133.644 38.1997 133.93 38.5167 133.93C38.6435 133.93 38.8337 133.898 39.0873 133.835C39.3409 133.771 39.5312 133.739 39.658 133.739C40.1018 133.739 40.4822 133.803 40.7992 133.93C41.243 133.93 41.9087 133.993 42.7964 134.12C43.7474 134.247 44.6984 134.405 45.6494 134.595C46.6639 134.722 47.6149 134.849 48.5025 134.976C49.4536 135.103 50.1193 135.198 50.4997 135.261C51.1971 135.324 51.8628 135.673 52.4969 136.307C53.1309 136.941 53.4479 137.512 53.4479 138.019V138.875C53.4479 139.699 53.0358 140.333 52.2116 140.777C51.4507 141.221 50.5314 141.538 49.4536 141.728C48.4391 141.982 47.393 142.14 46.3152 142.204C45.3007 142.267 44.5082 142.299 43.9376 142.299H41.6551C41.5283 142.299 41.1796 142.267 40.609 142.204C40.1018 142.14 39.4995 142.045 38.802 141.918C38.168 141.855 37.5657 141.791 36.9951 141.728C36.4245 141.665 36.044 141.633 35.8538 141.633H25.0121H14.1704C13.9801 141.633 13.5046 141.665 12.7438 141.728C11.983 141.791 11.1905 141.855 10.3662 141.918C9.60541 142.045 8.87628 142.14 8.17886 142.204C7.48144 142.267 7.06932 142.299 6.94252 142.299H5.61108C5.04046 142.299 4.40644 142.204 3.70902 142.013C3.075 141.887 2.47268 141.665 1.90206 141.348C1.39484 141.031 0.95103 140.619 0.570618 140.111C0.190206 139.604 0 139.002 0 138.304Z" fill="white"/>
</svg>
