<svg width="211" height="14" viewBox="0 0 211 14" fill="none" xmlns="http://www.w3.org/2000/svg">
<path d="M1.56 10.78L8.22 4.12C9.52 2.83 11.19 2.2 12.86 2.2C14.81 2.2 16.74 3.06 18.05 4.74L22.11 9.96C23.85 12.2 26.45 13.35 29.04 13.35C31.27 13.35 33.52 12.5 35.24 10.78L41.9 4.12C43.2 2.83 44.87 2.2 46.54 2.2C48.49 2.2 50.42 3.06 51.73 4.74L55.79 9.96C57.53 12.2 60.13 13.35 62.72 13.35C64.95 13.35 67.2 12.5 68.92 10.78L75.58 4.12C76.88 2.83 78.55 2.2 80.22 2.2C82.17 2.2 84.1 3.06 85.41 4.74L89.47 9.96C91.21 12.2 93.81 13.35 96.4 13.35C98.63 13.35 100.88 12.5 102.6 10.78L109.26 4.12C110.56 2.83 112.23 2.2 113.9 2.2C115.85 2.2 117.78 3.06 119.09 4.74L123.15 9.96C124.89 12.2 127.49 13.35 130.08 13.35C132.31 13.35 134.56 12.5 136.28 10.78L142.94 4.12C144.24 2.83 145.91 2.2 147.58 2.2C149.53 2.2 151.46 3.06 152.77 4.74L156.83 9.96C158.57 12.2 161.17 13.35 163.76 13.35C165.99 13.35 168.24 12.5 169.96 10.78L176.62 4.12C177.92 2.83 179.59 2.2 181.26 2.2C183.21 2.2 185.14 3.06 186.45 4.74L190.51 9.96C192.25 12.2 194.85 13.35 197.44 13.35C199.67 13.35 201.92 12.5 203.64 10.78L210.3 4.12L208.74 2.56L202.09 9.22C200.8 10.51 199.13 11.14 197.45 11.14C195.5 11.14 193.57 10.28 192.26 8.6L188.2 3.38C186.43 1.15 183.83 0 181.24 0C179.01 0 176.76 0.85 175.04 2.57L168.38 9.23C167.09 10.52 165.42 11.15 163.74 11.15C161.79 11.15 159.86 10.29 158.55 8.61L154.49 3.39C152.75 1.15 150.15 0 147.56 0C145.33 0 143.08 0.85 141.36 2.57L134.7 9.23C133.41 10.52 131.74 11.15 130.06 11.15C128.11 11.15 126.18 10.29 124.87 8.61L120.81 3.39C119.07 1.15 116.48 0 113.88 0C111.65 0 109.4 0.85 107.68 2.57L101.02 9.23C99.73 10.52 98.06 11.15 96.38 11.15C94.43 11.15 92.5 10.29 91.19 8.61L87.13 3.39C85.4 1.15 82.8 0 80.21 0C77.98 0 75.73 0.85 74.01 2.57L67.35 9.23C66.06 10.52 64.39 11.15 62.71 11.15C60.76 11.15 58.83 10.29 57.52 8.61L53.46 3.39C51.72 1.15 49.13 0 46.53 0C44.3 0 42.05 0.85 40.33 2.57L33.67 9.23C32.38 10.52 30.71 11.15 29.03 11.15C27.08 11.15 25.15 10.29 23.84 8.61L19.78 3.39C18.05 1.15 15.45 0 12.85 0C10.62 0 8.37 0.85 6.65 2.57L0 9.23L1.56 10.79V10.78Z" fill="url(#paint0_linear_784_3109)"/>
<defs>
<linearGradient id="paint0_linear_784_3109" x1="211.96" y1="6.68" x2="22.14" y2="6.68" gradientUnits="userSpaceOnUse">
<stop stop-color="#B7F5E4"/>
<stop offset="0.99" stop-color="#F2BAC6"/>
</linearGradient>
</defs>
</svg>
