<svg width="88" height="91" viewBox="0 0 88 91" fill="none" xmlns="http://www.w3.org/2000/svg">
<path d="M16.9803 53.2585C16.9803 56.8724 17.7094 60.3595 19.1677 63.7198C20.6893 67.0168 22.6548 69.9649 25.0641 72.5644C25.8249 73.3253 26.5857 74.1812 27.3466 75.1322C28.1074 76.0832 28.8999 77.0026 29.7241 77.8902C30.6118 78.7778 31.5311 79.6021 32.4821 80.3629C33.4965 81.1237 34.5744 81.6943 35.7156 82.0747L41.7071 83.4062H42.4679H43.3239C43.8945 83.3428 44.687 83.2794 45.7014 83.216C46.7159 83.1526 47.7303 83.0892 48.7447 83.0258C49.7592 82.9624 50.6468 82.899 51.4076 82.8356C52.1684 82.7722 52.6123 82.7405 52.7391 82.7405C53.6901 82.5502 54.7362 82.0747 55.8775 81.3139C57.0821 80.5531 58.2867 79.6972 59.4914 78.7461C60.696 77.7317 61.8372 76.7173 62.9151 75.7028C64.0563 74.625 65.0391 73.7374 65.8633 73.0399C65.9267 73.0399 66.0218 72.9765 66.1486 72.8497C66.212 72.7863 66.2754 72.6912 66.3388 72.5644C67.9238 69.2675 69.1919 65.8121 70.1429 62.1982C71.1573 58.5209 71.6646 54.9387 71.6646 51.4516C71.6646 48.5985 71.411 45.9356 70.9037 43.4629C70.4599 40.9902 69.6991 38.5175 68.6213 36.0449C68.6213 35.8547 68.4945 35.4743 68.2409 34.9036C68.0506 34.333 67.9555 33.9843 67.9555 33.8575C67.5751 32.209 67.163 30.4338 66.7192 28.5317C66.3388 26.5663 65.5146 24.9495 64.2465 23.6815C64.1197 23.4913 63.771 23.1109 63.2004 22.5402C62.6298 21.9696 61.9958 21.3673 61.2983 20.7333C60.6643 20.0993 60.062 19.4969 59.4914 18.9263C58.9842 18.3557 58.6988 17.9753 58.6354 17.7851C58.5086 17.7217 58.3184 17.5632 58.0648 17.3096C57.8746 16.9926 57.6527 16.6756 57.3991 16.3585C57.1455 16.0415 56.8919 15.7562 56.6383 15.5026C56.4481 15.1856 56.353 14.9954 56.353 14.932C56.1628 14.8052 55.8775 14.5516 55.497 14.1712C55.18 13.7274 54.9581 13.4421 54.8313 13.3152C54.7045 13.3152 54.4826 13.2518 54.1656 13.125C53.8486 12.9348 53.4999 12.7446 53.1195 12.5544C52.7391 12.3642 52.3903 12.2057 52.0733 12.0789C51.7563 11.8887 51.5661 11.7936 51.5027 11.7936C51.3125 11.6668 50.8053 11.5083 49.9811 11.3181C49.1568 11.1279 48.2692 10.9377 47.3182 10.7475C46.4306 10.5573 45.5746 10.3988 44.7504 10.2719C43.9896 10.0817 43.5141 9.95494 43.3239 9.89154C43.0068 9.89154 42.4996 9.95494 41.8022 10.0817C41.1048 10.1451 40.3757 10.2719 39.6148 10.4622C38.854 10.589 38.1249 10.7158 37.4275 10.8426C36.73 10.9694 36.1594 11.0645 35.7156 11.1279C34.828 12.0155 33.9087 12.8397 32.9576 13.6006C32.07 14.298 31.1824 15.0271 30.2947 15.7879C29.4071 16.4853 28.5512 17.2462 27.727 18.0704C26.9661 18.8312 26.3004 19.7188 25.7298 20.7333C25.603 20.9235 25.3494 21.3356 24.969 21.9696C24.652 22.6036 24.2716 23.3011 23.8277 24.0619C23.4473 24.8227 23.0669 25.5201 22.6865 26.1542C22.3695 26.7882 22.1793 27.1686 22.1159 27.2954C21.7355 28.0562 21.2917 28.8804 20.7844 29.7681C20.3406 30.5923 19.8968 31.4799 19.453 32.431C19.0092 33.382 18.6288 34.3647 18.3118 35.3791C18.0582 36.3302 17.8996 37.2495 17.8362 38.1371C17.7094 38.8346 17.5826 39.9441 17.4558 41.4657C17.3924 42.9874 17.329 44.5724 17.2656 46.2209C17.2022 47.8059 17.1388 49.2959 17.0754 50.6907C17.012 52.0222 16.9803 52.8781 16.9803 53.2585ZM0.242188 47.5523C0.242188 46.2209 0.464095 44.8894 0.907909 43.558C1.41512 42.2266 1.82724 40.9268 2.14425 39.6588C2.20765 39.4052 2.33445 38.7078 2.52466 37.5665C2.77827 36.3619 3.03188 35.0938 3.28548 33.7624C3.60249 32.431 3.8878 31.1946 4.14141 30.0534C4.39502 28.9121 4.55352 28.2147 4.61693 27.9611C4.74373 27.5807 4.90224 27.2003 5.09244 26.8199C5.21925 26.5029 5.34605 26.1859 5.47285 25.8688C5.66306 25.4884 5.82157 25.2031 5.94837 25.0129C6.39218 24.3789 6.9311 23.4913 7.56512 22.35C8.19914 21.2088 8.80146 20.0993 9.37208 19.0214C10.0061 17.9436 10.545 17.0243 10.9888 16.2634C11.496 15.4392 11.8131 14.9954 11.9399 14.932C12.0033 14.7418 12.2569 14.4248 12.7007 13.981C13.1445 13.4738 13.62 12.9348 14.1272 12.3642C14.6978 11.7936 15.2368 11.2864 15.744 10.8426C16.2512 10.3354 16.6633 10.0183 16.9803 9.89154C17.1071 9.70133 17.4558 9.54283 18.0265 9.41602C18.6605 9.28922 19.0409 9.22582 19.1677 9.22582C21.0698 8.27479 22.8767 7.38716 24.5886 6.56293C26.3004 5.73871 28.0123 4.94618 29.7241 4.18536C31.4994 3.42453 33.3063 2.72711 35.145 2.09309C36.9837 1.45907 39.0125 0.856751 41.2316 0.286133H41.3267H41.7071C42.7849 0.349535 44.1798 0.444638 45.8916 0.571442C47.6035 0.634844 49.2519 0.729947 50.837 0.856751C52.4855 0.920153 53.8803 0.983555 55.0215 1.04696C56.2262 1.11036 56.8919 1.14206 57.0187 1.14206C59.8718 1.39567 62.6932 2.2833 65.4829 3.80494C68.336 5.26319 70.9671 7.10185 73.3764 9.32092C75.8491 11.54 77.9731 14.0127 79.7483 16.739C81.587 19.4018 82.9501 22.0013 83.8378 24.5374C83.9012 24.6008 83.9646 24.8861 84.028 25.3933C84.1548 25.8371 84.2499 26.3444 84.3133 26.915C84.4401 27.4856 84.5352 28.0245 84.5986 28.5317C84.7254 28.9755 84.8522 29.2609 84.979 29.3877C84.979 29.5145 85.0741 29.8949 85.2643 30.5289C85.5179 31.0995 85.7715 31.7335 86.0251 32.431C86.3421 33.1284 86.5957 33.7624 86.7859 34.333C87.0396 34.9036 87.1981 35.2523 87.2615 35.3791C87.2615 35.506 87.2932 35.6645 87.3566 35.8547C87.3566 35.9815 87.3566 36.1083 87.3566 36.2351C87.42 36.3619 87.4517 36.457 87.4517 36.5204C87.4517 37.5982 87.3883 38.6444 87.2615 39.6588C87.1347 40.6098 87.0713 41.5925 87.0713 42.607C87.0713 43.4312 87.1347 44.1603 87.2615 44.7943C87.4517 45.4284 87.5468 46.1258 87.5468 46.8866V48.5034C86.7225 52.3075 85.93 55.9848 85.1692 59.5353C84.4084 63.0224 83.3305 66.3193 81.9357 69.426C80.5408 72.4693 78.7022 75.2907 76.4197 77.8902C74.1372 80.4897 71.0622 82.7722 67.1947 84.7376C63.454 86.6397 59.5865 88.1296 55.5922 89.2075C51.6612 90.2853 47.6352 90.8242 43.5141 90.8242C43.1337 90.8242 42.6264 90.7925 41.9924 90.7291C41.4218 90.7291 40.8512 90.7291 40.2806 90.7291C39.7099 90.7291 39.2027 90.6974 38.7589 90.634C38.3151 90.634 38.0932 90.634 38.0932 90.634C38.0298 90.634 37.5543 90.5389 36.6666 90.3487C35.8424 90.0951 34.828 89.8098 33.6234 89.4928C32.4821 89.1758 31.3092 88.8587 30.1045 88.5417C28.8999 88.1613 27.9172 87.876 27.1563 87.6858C26.4589 87.4956 25.7298 87.3054 24.969 87.1152C24.2082 86.925 23.479 86.608 22.7816 86.1642C21.0063 85.2131 19.2628 84.1987 17.5509 83.1209C15.8391 82.043 14.1589 80.9335 12.5105 79.7923C12.4471 79.6655 12.352 79.5386 12.2252 79.4118C12.0984 79.2216 12.0033 79.0631 11.9399 78.9363C10.545 77.2245 9.15017 75.1005 7.75533 72.5644C6.36048 69.9649 5.09244 67.2387 3.95121 64.3856C2.87337 61.4691 1.98574 58.5526 1.28832 55.6361C0.590899 52.6562 0.242188 49.9616 0.242188 47.5523Z" fill="white"/>
</svg>
