<svg width="382" height="400" viewBox="0 0 382 400" fill="none" xmlns="http://www.w3.org/2000/svg">
<path d="M0 0V400H382V0H0ZM207.883 311.964C207.883 350.893 186.054 368.661 154.25 368.661C125.514 368.661 108.887 353.125 100.36 334.286L129.607 315.804C135.235 326.25 140.351 335.089 152.715 335.089C164.482 335.089 171.985 330.268 171.985 311.429V183.661H207.883V311.964ZM292.81 368.661C259.47 368.661 237.897 352.054 227.409 330.268L256.656 312.589C264.33 325.714 274.392 335.446 292.042 335.446C306.879 335.446 316.429 327.679 316.429 316.875C316.429 304.018 306.708 299.464 290.252 291.875L281.299 287.857C255.377 276.339 238.238 261.786 238.238 231.161C238.238 202.946 258.788 181.518 290.763 181.518C313.615 181.518 329.987 189.821 341.754 211.607L313.786 230.357C307.646 218.839 300.996 214.286 290.678 214.286C280.19 214.286 273.539 221.25 273.539 230.357C273.539 241.607 280.19 246.161 295.624 253.214L304.577 257.232C335.103 270.893 352.242 284.911 352.242 316.339C352.242 350.089 326.832 368.661 292.81 368.661Z" fill="black"/>
</svg>
