<svg width="515" height="177" viewBox="0 0 515 177" fill="none" xmlns="http://www.w3.org/2000/svg">
<path d="M443.598 104.258C443.598 107.871 444.327 111.359 445.785 114.719C447.307 118.016 449.272 120.964 451.681 123.563C452.442 124.324 453.203 125.18 453.964 126.131C454.725 127.082 455.517 128.002 456.341 128.889C457.229 129.777 458.148 130.601 459.099 131.362C460.114 132.123 461.192 132.693 462.333 133.074L468.324 134.405H469.085H469.941C470.512 134.342 471.304 134.278 472.319 134.215C473.333 134.152 474.347 134.088 475.362 134.025C476.376 133.961 477.264 133.898 478.025 133.835C478.786 133.771 479.229 133.739 479.356 133.739C480.307 133.549 481.353 133.074 482.495 132.313C483.699 131.552 484.904 130.696 486.109 129.745C487.313 128.731 488.454 127.716 489.532 126.702C490.674 125.624 491.656 124.736 492.48 124.039C492.544 124.039 492.639 123.976 492.766 123.849C492.829 123.785 492.893 123.69 492.956 123.563C494.541 120.267 495.809 116.811 496.76 113.197C497.775 109.52 498.282 105.938 498.282 102.451C498.282 99.5975 498.028 96.9346 497.521 94.4619C497.077 91.9893 496.316 89.5166 495.238 87.0439C495.238 86.8537 495.112 86.4733 494.858 85.9027C494.668 85.332 494.573 84.9833 494.573 84.8565C494.192 83.2081 493.78 81.4328 493.336 79.5308C492.956 77.5653 492.132 75.9485 490.864 74.6805C490.737 74.4903 490.388 74.1099 489.818 73.5393C489.247 72.9686 488.613 72.3663 487.916 71.7323C487.281 71.0983 486.679 70.496 486.109 69.9253C485.601 69.3547 485.316 68.9743 485.253 68.7841C485.126 68.7207 484.936 68.5622 484.682 68.3086C484.492 67.9916 484.27 67.6746 484.016 67.3576C483.763 67.0406 483.509 66.7552 483.255 66.5016C483.065 66.1846 482.97 65.9944 482.97 65.931C482.78 65.8042 482.495 65.5506 482.114 65.1702C481.797 64.7264 481.575 64.4411 481.449 64.3143C481.322 64.3143 481.1 64.2509 480.783 64.1241C480.466 63.9339 480.117 63.7437 479.737 63.5534C479.356 63.3632 479.008 63.2047 478.691 63.0779C478.374 62.8877 478.183 62.7926 478.12 62.7926C477.93 62.6658 477.422 62.5073 476.598 62.3171C475.774 62.1269 474.886 61.9367 473.935 61.7465C473.048 61.5563 472.192 61.3978 471.368 61.271C470.607 61.0808 470.131 60.954 469.941 60.8906C469.624 60.8906 469.117 60.954 468.419 61.0808C467.722 61.1442 466.993 61.271 466.232 61.4612C465.471 61.588 464.742 61.7148 464.045 61.8416C463.347 61.9684 462.777 62.0635 462.333 62.1269C461.445 63.0145 460.526 63.8388 459.575 64.5996C458.687 65.297 457.8 66.0261 456.912 66.7869C456.024 67.4844 455.168 68.2452 454.344 69.0694C453.583 69.8302 452.918 70.7179 452.347 71.7323C452.22 71.9225 451.967 72.3346 451.586 72.9686C451.269 73.6027 450.889 74.3001 450.445 75.0609C450.065 75.8217 449.684 76.5192 449.304 77.1532C448.987 77.7872 448.796 78.1676 448.733 78.2944C448.353 79.0552 447.909 79.8795 447.402 80.7671C446.958 81.5913 446.514 82.4789 446.07 83.43C445.626 84.381 445.246 85.3637 444.929 86.3782C444.675 87.3292 444.517 88.2485 444.453 89.1362C444.327 89.8336 444.2 90.9431 444.073 92.4648C444.01 93.9864 443.946 95.5715 443.883 97.2199C443.819 98.805 443.756 100.295 443.693 101.69C443.629 103.021 443.598 103.877 443.598 104.258ZM426.859 98.5514C426.859 97.2199 427.081 95.8885 427.525 94.557C428.032 93.2256 428.444 91.9258 428.761 90.6578C428.825 90.4042 428.952 89.7068 429.142 88.5655C429.395 87.3609 429.649 86.0929 429.903 84.7614C430.22 83.43 430.505 82.1936 430.759 81.0524C431.012 79.9112 431.171 79.2137 431.234 78.9601C431.361 78.5797 431.519 78.1993 431.71 77.8189C431.836 77.5019 431.963 77.1849 432.09 76.8679C432.28 76.4875 432.439 76.2021 432.566 76.0119C433.009 75.3779 433.548 74.4903 434.182 73.3491C434.816 72.2078 435.419 71.0983 435.989 70.0205C436.623 68.9426 437.162 68.0233 437.606 67.2625C438.113 66.4382 438.43 65.9944 438.557 65.931C438.62 65.7408 438.874 65.4238 439.318 64.98C439.762 64.4728 440.237 63.9339 440.744 63.3632C441.315 62.7926 441.854 62.2854 442.361 61.8416C442.868 61.3344 443.28 61.0174 443.598 60.8906C443.724 60.7004 444.073 60.5419 444.644 60.415C445.278 60.2882 445.658 60.2248 445.785 60.2248C447.687 59.2738 449.494 58.3862 451.206 57.562C452.918 56.7377 454.629 55.9452 456.341 55.1844C458.117 54.4236 459.924 53.7261 461.762 53.0921C463.601 52.4581 465.63 51.8558 467.849 51.2852H467.944H468.324C469.402 51.3486 470.797 51.4437 472.509 51.5705C474.221 51.6339 475.869 51.729 477.454 51.8558C479.103 51.9192 480.497 51.9826 481.639 52.046C482.843 52.1094 483.509 52.1411 483.636 52.1411C486.489 52.3947 489.31 53.2823 492.1 54.804C494.953 56.2622 497.584 58.1009 499.994 60.3199C502.466 62.539 504.59 65.0117 506.366 67.738C508.204 70.4009 509.567 73.0003 510.455 75.5364C510.518 75.5998 510.582 75.8851 510.645 76.3924C510.772 76.8362 510.867 77.3434 510.93 77.914C511.057 78.4846 511.152 79.0235 511.216 79.5308C511.343 79.9746 511.469 80.2599 511.596 80.3867C511.596 80.5135 511.691 80.8939 511.881 81.5279C512.135 82.0985 512.389 82.7326 512.642 83.43C512.959 84.1274 513.213 84.7614 513.403 85.332C513.657 85.9027 513.815 86.2514 513.879 86.3782C513.879 86.505 513.91 86.6635 513.974 86.8537C513.974 86.9805 513.974 87.1073 513.974 87.2341C514.037 87.3609 514.069 87.456 514.069 87.5194C514.069 88.5972 514.005 89.6434 513.879 90.6578C513.752 91.6088 513.688 92.5916 513.688 93.606C513.688 94.4302 513.752 95.1594 513.879 95.7934C514.069 96.4274 514.164 97.1248 514.164 97.8856V99.5024C513.34 103.307 512.547 106.984 511.786 110.534C511.026 114.021 509.948 117.318 508.553 120.425C507.158 123.468 505.319 126.29 503.037 128.889C500.754 131.489 497.679 133.771 493.812 135.737C490.071 137.639 486.204 139.129 482.209 140.206C478.278 141.284 474.252 141.823 470.131 141.823C469.751 141.823 469.244 141.792 468.61 141.728C468.039 141.728 467.468 141.728 466.898 141.728C466.327 141.728 465.82 141.696 465.376 141.633C464.932 141.633 464.71 141.633 464.71 141.633C464.647 141.633 464.171 141.538 463.284 141.348C462.46 141.094 461.445 140.809 460.241 140.492C459.099 140.175 457.926 139.858 456.722 139.541C455.517 139.16 454.534 138.875 453.774 138.685C453.076 138.495 452.347 138.304 451.586 138.114C450.825 137.924 450.096 137.607 449.399 137.163C447.624 136.212 445.88 135.198 444.168 134.12C442.456 133.042 440.776 131.933 439.128 130.791C439.064 130.664 438.969 130.538 438.842 130.411C438.716 130.221 438.62 130.062 438.557 129.935C437.162 128.224 435.767 126.1 434.373 123.563C432.978 120.964 431.71 118.238 430.568 115.385C429.491 112.468 428.603 109.552 427.906 106.635C427.208 103.655 426.859 100.961 426.859 98.5514Z" fill="#030089"/>
<path d="M360 138.304C360 137.923 360.127 137.511 360.38 137.068C360.634 136.624 360.951 136.212 361.331 135.831C361.712 135.451 362.124 135.134 362.568 134.88C363.012 134.563 363.424 134.405 363.804 134.405H374.17C374.487 134.278 374.773 134.119 375.026 133.929C375.28 133.802 375.502 133.676 375.692 133.549C375.946 133.359 376.136 133.2 376.263 133.073C376.326 133.01 376.358 132.946 376.358 132.883C376.421 132.756 376.516 132.629 376.643 132.503C376.706 132.376 376.802 132.281 376.928 132.217L377.784 125.655V99.8823C377.784 97.7266 377.848 95.7928 377.974 94.081C378.165 92.3691 378.323 90.7841 378.45 89.3258C378.64 87.8042 378.799 86.3459 378.926 84.9511C379.116 83.4929 379.211 81.9712 379.211 80.3862V79.2449C379.211 79.1815 379.116 78.9913 378.926 78.6743C378.799 78.3573 378.64 78.0403 378.45 77.7233C378.323 77.4063 378.165 77.121 377.974 76.8673C377.848 76.5503 377.784 76.3601 377.784 76.2967C377.657 76.1065 377.531 75.7578 377.404 75.2506C377.34 74.68 377.277 74.1094 377.214 73.5387C377.15 72.9047 377.087 72.3024 377.023 71.7318C376.96 71.1612 376.928 70.7174 376.928 70.4003C376.168 69.3225 375.058 68.6568 373.6 68.4032C372.141 68.1496 370.683 67.9911 369.225 67.9277C367.767 67.8643 366.499 67.7058 365.421 67.4521C364.343 67.1985 363.804 66.5328 363.804 65.455C363.804 64.4406 364.406 63.5846 365.611 62.8872C366.816 62.1264 368.179 61.4607 369.701 60.89C371.286 60.3194 372.776 59.7805 374.17 59.2733C375.629 58.7027 376.548 58.0687 376.928 57.3712C376.992 57.3712 377.15 57.1176 377.404 56.6104C377.531 56.3568 377.657 56.1349 377.784 55.9447V48.7169C377.784 48.3998 377.848 47.6073 377.974 46.3393C378.101 45.0712 378.26 44.0885 378.45 43.3911C378.513 43.1375 378.608 42.6937 378.735 42.0596C378.862 41.3622 378.989 40.6331 379.116 39.8723C379.306 39.1115 379.464 38.414 379.591 37.78C379.781 37.0826 379.94 36.6071 380.067 36.3535C380.13 35.7828 380.257 35.022 380.447 34.071C380.637 33.12 380.859 32.2006 381.113 31.313C381.366 30.362 381.588 29.5377 381.779 28.8403C381.969 28.1429 382.064 27.7308 382.064 27.604C382.127 27.4138 382.286 27.0968 382.539 26.653C382.856 26.1457 383.173 25.6068 383.49 25.0362C383.871 24.4656 384.188 23.9584 384.441 23.5146C384.758 23.0707 384.949 22.7854 385.012 22.6586C385.012 22.5318 385.107 22.1514 385.297 21.5174C385.551 20.8834 385.741 20.503 385.868 20.3762C388.404 16.3818 391.638 12.9898 395.569 10.2001C399.563 7.41044 403.842 5.38158 408.407 4.11354C411.641 3.22591 414.97 2.43339 418.393 1.73596C421.817 0.975139 425.209 0.594727 428.569 0.594727H430.281C431.993 0.784933 433.61 1.10194 435.131 1.54576C436.716 1.98957 438.428 2.46509 440.267 2.9723C440.964 3.0357 441.884 3.22591 443.025 3.54292C444.166 3.79653 444.959 4.36715 445.403 5.25477C445.593 5.50838 445.815 5.9205 446.068 6.49111C446.385 7.06173 446.702 7.66405 447.019 8.29807C447.336 8.93209 447.59 9.50271 447.78 10.0099C448.034 10.5171 448.16 10.8025 448.16 10.8659C448.16 10.9927 448.192 11.1512 448.256 11.3414C448.256 11.4682 448.256 11.6267 448.256 11.8169C448.319 11.9437 448.351 12.0388 448.351 12.1022C448.351 13.8774 447.97 15.3674 447.209 16.572C446.512 17.7133 445.561 18.6326 444.356 19.33C443.152 19.964 441.82 20.4079 440.362 20.6615C438.904 20.9151 437.446 21.0419 435.987 21.0419C435.797 21.0419 435.48 21.0419 435.036 21.0419C434.592 20.9785 434.117 20.9468 433.61 20.9468C433.166 20.9468 432.722 20.9468 432.278 20.9468C431.898 20.8834 431.613 20.8517 431.422 20.8517C429.52 20.2811 428.03 19.3617 426.953 18.0937C425.938 16.8256 424.924 15.5576 423.909 14.2896C422.958 12.9581 421.817 11.8169 420.486 10.8659C419.154 9.85142 417.252 9.3442 414.779 9.3442C413.828 9.3442 413.036 9.40761 412.402 9.53441C411.768 9.59781 411.165 9.75632 410.595 10.0099C410.024 10.2001 409.422 10.4854 408.788 10.8659C408.217 11.2463 407.52 11.7218 406.696 12.2924C406.632 12.4192 406.283 12.6728 405.649 13.0532C405.079 13.3702 404.73 13.6238 404.603 13.814C403.145 14.9553 401.909 16.0014 400.894 16.9524C399.88 17.9035 399.024 18.9179 398.327 19.9957C397.692 21.0102 397.154 22.1831 396.71 23.5146C396.329 24.7826 396.044 26.3042 395.854 28.0795C395.854 28.5867 395.822 29.2524 395.759 30.0767C395.695 30.8375 395.6 31.5983 395.473 32.3591C395.41 33.12 395.347 33.8174 395.283 34.4514C395.22 35.022 395.188 35.3707 395.188 35.4975C395.125 35.6877 395.093 36.0999 395.093 36.7339C395.093 37.3679 395.093 38.097 395.093 38.9212C395.093 39.8089 395.093 40.7599 395.093 41.7743C395.093 42.7254 395.093 43.6447 395.093 44.5323C395.156 45.3565 395.188 46.1174 395.188 46.8148C395.188 47.4488 395.188 47.8609 395.188 48.0511C395.061 48.1145 394.903 48.5583 394.713 49.3826C394.522 50.2068 394.427 50.7457 394.427 50.9993V53.2818V55.9447C394.427 56.0081 394.522 56.2617 394.713 56.7055C394.903 57.0859 395.061 57.2761 395.188 57.2761C395.505 57.4029 395.981 57.5614 396.615 57.7516C397.312 57.9418 398.327 58.0369 399.658 58.0369H400.324C400.577 58.0369 401.18 58.0052 402.131 57.9418C403.145 57.8784 404.223 57.815 405.364 57.7516C406.569 57.6248 407.647 57.5297 408.598 57.4663C409.612 57.4029 410.246 57.3712 410.5 57.3712C412.085 57.3712 413.606 57.4663 415.065 57.6565C416.586 57.8467 417.474 58.4808 417.728 59.5586V62.1264C417.728 63.5846 417.632 64.6308 417.442 65.2648C417.252 65.8354 416.935 66.2792 416.491 66.5962C416.111 66.8498 415.667 67.0083 415.16 67.0717C414.716 67.2619 414.209 67.3887 413.638 67.4521C413.067 67.4521 412.402 67.5155 411.641 67.6424C411.641 67.6424 411.451 67.6424 411.07 67.6424C410.753 67.6424 410.405 67.6741 410.024 67.7375C409.644 67.7375 409.263 67.7375 408.883 67.7375C408.566 67.7375 408.407 67.7375 408.407 67.7375C408.217 67.7375 407.9 67.7375 407.456 67.7375C407.013 67.7375 406.474 67.7375 405.84 67.7375C405.206 67.6741 404.54 67.6424 403.842 67.6424C403.208 67.6424 402.574 67.6424 401.94 67.6424C401.37 67.6424 400.863 67.6424 400.419 67.6424C400.038 67.6424 399.785 67.6741 399.658 67.7375C399.278 67.7375 398.802 67.8009 398.231 67.9277C397.724 67.9911 397.249 68.1179 396.805 68.3081C396.361 68.4983 395.981 68.7836 395.664 69.164C395.347 69.481 395.188 69.8931 395.188 70.4003L395.093 93.4153C395.093 95.8246 395.061 97.8851 394.998 99.597C394.935 101.245 394.839 102.767 394.713 104.162C394.649 105.557 394.586 106.92 394.522 108.251C394.459 109.519 394.427 110.946 394.427 112.531V114.813V120.71C394.427 121.027 394.459 121.661 394.522 122.612C394.586 123.563 394.649 124.577 394.713 125.655C394.776 126.733 394.839 127.779 394.903 128.794C395.03 129.745 395.125 130.41 395.188 130.791C395.315 131.044 395.632 131.456 396.139 132.027C396.71 132.598 397.058 132.946 397.185 133.073C397.756 133.644 398.2 133.929 398.517 133.929C398.644 133.929 398.834 133.897 399.087 133.834C399.341 133.771 399.531 133.739 399.658 133.739C400.102 133.739 400.482 133.802 400.799 133.929C401.243 133.929 401.909 133.993 402.796 134.119C403.747 134.246 404.698 134.405 405.649 134.595C406.664 134.722 407.615 134.848 408.503 134.975C409.454 135.102 410.119 135.197 410.5 135.261C411.197 135.324 411.863 135.673 412.497 136.307C413.131 136.941 413.448 137.511 413.448 138.019V138.875C413.448 139.699 413.036 140.333 412.212 140.777C411.451 141.22 410.531 141.537 409.454 141.728C408.439 141.981 407.393 142.14 406.315 142.203C405.301 142.267 404.508 142.298 403.938 142.298H401.655C401.528 142.298 401.18 142.267 400.609 142.203C400.102 142.14 399.499 142.045 398.802 141.918C398.168 141.854 397.566 141.791 396.995 141.728C396.424 141.664 396.044 141.633 395.854 141.633H385.012H374.17C373.98 141.633 373.505 141.664 372.744 141.728C371.983 141.791 371.19 141.854 370.366 141.918C369.605 142.045 368.876 142.14 368.179 142.203C367.481 142.267 367.069 142.298 366.943 142.298H365.611C365.04 142.298 364.406 142.203 363.709 142.013C363.075 141.886 362.473 141.664 361.902 141.347C361.395 141.03 360.951 140.618 360.571 140.111C360.19 139.604 360 139.001 360 138.304Z" fill="#030089"/>
<path d="M288.638 99.3131C288.638 92.7827 288.797 86.3157 289.114 79.9121C289.431 73.5085 289.59 67.1049 289.59 60.7013C289.59 58.7358 289.209 57.2775 288.448 56.3265C287.751 55.3755 286.8 54.7098 285.595 54.3294C284.454 53.9489 283.123 53.7587 281.601 53.7587C280.143 53.7587 278.621 53.6953 277.036 53.5685C276.782 53.3149 276.465 52.9662 276.085 52.5224C275.768 52.0786 275.609 51.7299 275.609 51.4763C275.609 51.1593 275.736 50.8105 275.99 50.4301C276.307 49.9863 276.497 49.7644 276.56 49.7644C276.877 49.5108 277.48 48.9719 278.367 48.1477C279.255 47.26 280.206 46.309 281.22 45.2946C282.235 44.2801 283.154 43.3291 283.978 42.4415C284.866 41.5538 285.468 40.9198 285.785 40.5394C285.976 40.4126 286.229 40.159 286.546 39.7786C286.863 39.3348 287.212 38.891 287.592 38.4471C287.973 37.9399 288.353 37.4961 288.734 37.1157C289.114 36.6719 289.399 36.3549 289.59 36.1647C289.78 35.9111 290.224 35.277 290.921 34.2626C291.682 33.2482 292.569 32.0752 293.584 30.7438C294.598 29.349 295.676 27.9224 296.817 26.4642C298.022 24.9425 299.163 23.5794 300.241 22.3747C301.319 21.1067 302.302 20.0606 303.189 19.2363C304.077 18.4121 304.711 18 305.091 18H305.377C306.074 18.3804 306.581 18.8242 306.898 19.3314C307.215 19.8387 307.437 20.4093 307.564 21.0433C307.754 21.6773 307.881 22.3747 307.944 23.1356C308.008 23.833 308.135 24.5621 308.325 25.3229V25.6082C308.325 27.3201 308.166 29.032 307.849 30.7438C307.596 32.4557 307.469 34.2626 307.469 36.1647C307.469 36.3549 307.469 36.6085 307.469 36.9255C307.469 37.1791 307.501 37.4644 307.564 37.7814C307.564 38.0984 307.596 38.4788 307.659 38.9227L309.181 40.5394H311.273C314.19 40.5394 317.106 40.2858 320.022 39.7786C321.988 39.2714 323.953 38.6374 325.919 37.8765C327.948 37.0523 329.977 36.6402 332.005 36.6402C333.908 36.6402 335.176 37.1474 335.81 38.1618C336.444 39.1763 336.761 40.476 336.761 42.0611C336.761 43.6461 336.412 45.041 335.714 46.2456C335.08 47.4502 334.193 48.4647 333.052 49.2889C331.974 50.0497 330.737 50.6837 329.343 51.191C327.948 51.6348 326.553 51.8884 325.158 51.9518C325.031 52.0152 324.746 52.0786 324.302 52.142C323.858 52.142 323.383 52.1737 322.876 52.2371C322.368 52.2371 321.893 52.2371 321.449 52.2371C321.069 52.2371 320.815 52.2371 320.688 52.2371C320.561 52.3639 320.276 52.4907 319.832 52.6175C319.452 52.7443 319.008 52.8711 318.501 52.9979C317.994 53.1247 317.518 53.2515 317.074 53.3783C316.63 53.4417 316.345 53.5051 316.218 53.5685H308.325L306.898 54.044C306.771 55.6925 306.676 57.3092 306.613 58.8943C306.486 60.2257 306.391 61.6206 306.328 63.0788C306.328 64.4737 306.328 65.6466 306.328 66.5976C306.328 66.7244 306.264 67.1366 306.137 67.834C306.074 68.5314 306.042 69.0386 306.042 69.3556C306.042 70.9407 306.169 72.494 306.423 74.0157C306.74 75.5373 306.898 77.1224 306.898 78.7708C306.898 81.6239 306.771 84.5404 306.518 87.5203C306.328 90.4368 306.233 93.385 306.233 96.3649C306.233 97.0623 306.233 97.7914 306.233 98.5523C306.233 99.3131 306.264 100.074 306.328 100.835C305.82 101.405 305.535 101.944 305.472 102.451C305.408 102.959 305.377 103.561 305.377 104.258C305.377 105.526 305.567 106.699 305.947 107.777C306.391 108.792 306.962 109.87 307.659 111.011C308.991 113.23 310.449 114.751 312.034 115.576C313.619 116.337 315.775 116.717 318.501 116.717C320.149 116.717 321.988 116.368 324.017 115.671C326.109 114.91 327.916 114.276 329.438 113.769C329.564 113.769 329.945 113.674 330.579 113.483C331.213 113.23 331.91 112.976 332.671 112.723C333.432 112.406 334.129 112.152 334.763 111.962C335.397 111.708 335.81 111.55 336 111.486H336.761C337.268 111.486 337.648 111.676 337.902 112.057C338.155 112.437 338.282 112.913 338.282 113.483C338.282 115.259 337.775 116.78 336.761 118.048C335.81 119.253 334.637 120.299 333.242 121.187C331.847 122.074 330.325 122.835 328.677 123.469C327.092 124.103 325.697 124.706 324.492 125.276C324.302 125.276 323.922 125.403 323.351 125.657C322.844 125.847 322.432 126.005 322.115 126.132C320.276 126.703 318.501 127.337 316.789 128.034C315.141 128.732 313.302 129.08 311.273 129.08C310.005 129.08 308.578 128.954 306.993 128.7C305.472 128.446 303.887 128.129 302.238 127.749C300.653 127.305 299.1 126.798 297.578 126.227C296.12 125.593 294.884 124.896 293.869 124.135C293.616 123.945 293.33 123.723 293.013 123.469C292.696 123.152 292.379 122.835 292.062 122.518C291.809 122.138 291.555 121.821 291.301 121.567C291.111 121.314 291.016 121.123 291.016 120.997L288.734 112.342C288.734 112.279 288.734 111.74 288.734 110.725C288.734 109.711 288.702 108.506 288.638 107.112C288.638 105.717 288.638 104.29 288.638 102.832C288.638 101.374 288.638 100.201 288.638 99.3131Z" fill="#030089"/>
<path d="M201.992 125.656C201.992 124.642 202.182 123.849 202.563 123.279C203.007 122.708 203.546 122.296 204.18 122.043C204.877 121.726 205.638 121.535 206.462 121.472C207.35 121.345 208.206 121.25 209.03 121.187C209.157 121.06 209.474 120.996 209.981 120.996C210.488 120.996 211.027 121.028 211.598 121.091C212.232 121.155 212.644 121.187 212.834 121.187C213.468 120.806 214.102 120.331 214.736 119.76C215.433 119.126 216.036 118.46 216.543 117.763C217.114 117.002 217.557 116.21 217.874 115.385C218.255 114.498 218.445 113.642 218.445 112.818L218.73 94.8431L218.921 91.2291L219.681 73.1596C219.872 72.0183 219.967 71.0039 219.967 70.1163C220.03 69.1652 220.062 68.2459 220.062 67.3583C220.062 66.2805 219.935 65.1075 219.681 63.8395C219.491 62.508 219.079 61.3351 218.445 60.3207C217.557 58.8624 216.48 57.4993 215.212 56.2312C214.007 54.8998 212.612 53.7903 211.027 52.9026C210.9 52.8392 210.647 52.7758 210.266 52.7124C209.886 52.5856 209.474 52.4588 209.03 52.332C208.649 52.2052 208.269 52.0467 207.889 51.8565C207.572 51.6029 207.413 51.3493 207.413 51.0957C207.413 50.4617 207.952 49.7642 209.03 49.0034C210.108 48.2426 211.344 47.5135 212.739 46.816C214.134 46.0552 215.497 45.4212 216.828 44.914C218.223 44.3434 219.174 43.8995 219.681 43.5825C220.569 43.2021 221.393 42.7266 222.154 42.156C222.978 41.522 223.771 40.9196 224.532 40.349C225.356 39.7784 226.18 39.3029 227.004 38.9225C227.829 38.4787 228.748 38.2568 229.762 38.2568C230.523 38.2568 231.125 38.7006 231.569 39.5882C232.013 40.4758 232.362 41.5854 232.615 42.9168C232.869 44.1849 233.091 45.6114 233.281 47.1964C233.471 48.7181 233.693 50.1446 233.947 51.4761C234.2 52.7441 234.517 53.822 234.898 54.7096C235.278 55.5972 235.817 56.041 236.515 56.041C236.958 56.041 237.244 56.0093 237.371 55.9459C237.497 55.8825 237.751 55.6289 238.131 55.1851C238.195 55.0583 238.48 54.6462 238.987 53.9488C239.494 53.1879 240.065 52.3954 240.699 51.5712C241.397 50.6836 242.031 49.891 242.601 49.1936C243.172 48.4962 243.552 48.0841 243.742 47.9573C244.376 47.1964 245.486 46.2454 247.071 45.1042C248.656 43.9629 250.368 42.8534 252.207 41.7756C254.109 40.6977 255.947 39.7784 257.723 39.0176C259.498 38.1934 260.861 37.7812 261.812 37.7812C263.143 37.7812 264.411 38.0349 265.616 38.5421C266.884 39.0493 267.994 39.7784 268.945 40.7294C269.896 41.6171 270.657 42.6632 271.227 43.8678C271.798 45.0725 272.083 46.3405 272.083 47.672C272.083 50.208 271.512 52.4271 270.371 54.3292C269.293 56.2312 267.423 57.7212 264.76 58.799H263.619C262.478 58.799 261.432 58.5454 260.481 58.0382C259.53 57.4676 258.578 56.8653 257.627 56.2312C256.74 55.5338 255.82 54.9315 254.869 54.4243C253.918 53.8537 252.904 53.5683 251.826 53.5683C250.368 53.5683 249.068 53.822 247.927 54.3292C246.849 54.773 245.74 55.2485 244.598 55.7557C244.345 55.9459 243.933 56.1995 243.362 56.5165C242.855 56.7702 242.316 57.0872 241.745 57.4676C241.238 57.7846 240.731 58.0699 240.224 58.3235C239.78 58.5771 239.463 58.7356 239.273 58.799C238.639 59.2428 238.068 59.8769 237.561 60.7011C237.054 61.5253 236.61 62.4446 236.229 63.4591C235.912 64.4101 235.627 65.3928 235.373 66.4073C235.183 67.4217 235.056 68.3093 234.993 69.0701C234.993 69.1335 234.961 69.4506 234.898 70.0212C234.834 70.5284 234.739 71.1307 234.613 71.8281C234.549 72.5256 234.486 73.223 234.422 73.9204C234.359 74.5544 234.327 75.0616 234.327 75.442V75.6322V76.1078C234.327 76.5516 234.327 77.4392 234.327 78.7706C234.391 80.0387 234.454 81.5603 234.517 83.3356C234.581 85.0474 234.613 86.8861 234.613 88.8516C234.676 90.7536 234.739 92.5923 234.803 94.3675C234.866 96.0794 234.898 97.601 234.898 98.9325C234.961 100.201 234.993 101.056 234.993 101.5V111.486C235.056 111.803 235.183 112.405 235.373 113.293C235.564 114.181 235.785 115.132 236.039 116.146C236.356 117.097 236.673 118.016 236.99 118.904C237.371 119.728 237.751 120.236 238.131 120.426C238.702 120.679 239.494 120.901 240.509 121.091C241.587 121.282 242.633 121.535 243.647 121.852C244.725 122.106 245.644 122.486 246.405 122.994C247.166 123.501 247.547 124.166 247.547 124.991C247.547 125.688 247.325 126.29 246.881 126.798C246.437 127.241 245.898 127.622 245.264 127.939C244.63 128.256 243.933 128.478 243.172 128.605C242.474 128.795 241.84 128.89 241.27 128.89C239.811 128.89 238.322 128.763 236.8 128.51C235.342 128.256 233.883 128.129 232.425 128.129C230.777 128.129 229.065 128.256 227.29 128.51C225.578 128.763 223.929 128.89 222.344 128.89H222.059C221.932 128.89 221.679 128.858 221.298 128.795C220.981 128.795 220.601 128.763 220.157 128.7C219.776 128.7 219.396 128.668 219.016 128.605C218.699 128.605 218.508 128.605 218.445 128.605C218.255 128.605 217.779 128.636 217.018 128.7C216.258 128.827 215.719 128.89 215.402 128.89H211.788H208.84C208.079 128.89 207.286 128.858 206.462 128.795C205.638 128.731 204.877 128.605 204.18 128.414C203.546 128.161 203.007 127.844 202.563 127.463C202.182 127.02 201.992 126.417 201.992 125.656Z" fill="#030089"/>
<path d="M123.246 91.2282C123.246 94.8422 123.975 98.3293 125.433 101.69C126.955 104.986 128.92 107.935 131.33 110.534C132.091 111.295 132.851 112.151 133.612 113.102C134.373 114.053 135.166 114.972 135.99 115.86C136.877 116.748 137.797 117.572 138.748 118.333C139.762 119.093 140.84 119.664 141.981 120.044L147.973 121.376H148.734H149.589C150.16 121.312 150.953 121.249 151.967 121.186C152.981 121.122 153.996 121.059 155.01 120.995C156.025 120.932 156.912 120.869 157.673 120.805C158.434 120.742 158.878 120.71 159.005 120.71C159.956 120.52 161.002 120.044 162.143 119.284C163.348 118.523 164.552 117.667 165.757 116.716C166.962 115.701 168.103 114.687 169.181 113.673C170.322 112.595 171.305 111.707 172.129 111.01C172.192 111.01 172.287 110.946 172.414 110.819C172.478 110.756 172.541 110.661 172.604 110.534C174.189 107.237 175.458 103.782 176.409 100.168C177.423 96.4906 177.93 92.9084 177.93 89.4213C177.93 86.5682 177.677 83.9053 177.169 81.4326C176.726 78.96 175.965 76.4873 174.887 74.0146C174.887 73.8244 174.76 73.444 174.506 72.8734C174.316 72.3027 174.221 71.954 174.221 71.8272C173.841 70.1788 173.429 68.4035 172.985 66.5015C172.604 64.536 171.78 62.9192 170.512 61.6512C170.385 61.461 170.037 61.0806 169.466 60.51C168.895 59.9393 168.261 59.337 167.564 58.703C166.93 58.069 166.328 57.4667 165.757 56.8961C165.25 56.3254 164.964 55.945 164.901 55.7548C164.774 55.6914 164.584 55.5329 164.33 55.2793C164.14 54.9623 163.918 54.6453 163.665 54.3283C163.411 54.0113 163.158 53.726 162.904 53.4723C162.714 53.1553 162.619 52.9651 162.619 52.9017C162.428 52.7749 162.143 52.5213 161.763 52.1409C161.446 51.6971 161.224 51.4118 161.097 51.285C160.97 51.285 160.748 51.2216 160.431 51.0948C160.114 50.9046 159.766 50.7144 159.385 50.5241C159.005 50.3339 158.656 50.1754 158.339 50.0486C158.022 49.8584 157.832 49.7633 157.768 49.7633C157.578 49.6365 157.071 49.478 156.247 49.2878C155.422 49.0976 154.535 48.9074 153.584 48.7172C152.696 48.527 151.84 48.3685 151.016 48.2417C150.255 48.0515 149.78 47.9247 149.589 47.8613C149.272 47.8613 148.765 47.9247 148.068 48.0515C147.37 48.1149 146.641 48.2417 145.88 48.4319C145.12 48.5587 144.391 48.6855 143.693 48.8123C142.996 48.9391 142.425 49.0342 141.981 49.0976C141.094 49.9852 140.174 50.8095 139.223 51.5703C138.336 52.2677 137.448 52.9968 136.56 53.7577C135.673 54.4551 134.817 55.2159 133.993 56.0401C133.232 56.8009 132.566 57.6886 131.995 58.703C131.869 58.8932 131.615 59.3053 131.235 59.9393C130.918 60.5734 130.537 61.2708 130.093 62.0316C129.713 62.7924 129.333 63.4899 128.952 64.1239C128.635 64.7579 128.445 65.1383 128.382 65.2651C128.001 66.0259 127.557 66.8502 127.05 67.7378C126.606 68.562 126.162 69.4496 125.719 70.4007C125.275 71.3517 124.894 72.3344 124.577 73.3489C124.324 74.2999 124.165 75.2192 124.102 76.1069C123.975 76.8043 123.848 77.9138 123.721 79.4355C123.658 80.9571 123.595 82.5422 123.531 84.1906C123.468 85.7757 123.404 87.2656 123.341 88.6605C123.278 89.9919 123.246 90.8478 123.246 91.2282ZM106.508 85.5221C106.508 84.1906 106.73 82.8592 107.174 81.5277C107.681 80.1963 108.093 78.8965 108.41 77.6285C108.473 77.3749 108.6 76.6775 108.79 75.5362C109.044 74.3316 109.298 73.0636 109.551 71.7321C109.868 70.4007 110.153 69.1643 110.407 68.0231C110.661 66.8819 110.819 66.1844 110.883 65.9308C111.009 65.5504 111.168 65.17 111.358 64.7896C111.485 64.4726 111.612 64.1556 111.738 63.8386C111.929 63.4582 112.087 63.1729 112.214 62.9826C112.658 62.3486 113.197 61.461 113.831 60.3198C114.465 59.1785 115.067 58.069 115.638 56.9912C116.272 55.9133 116.811 54.994 117.254 54.2332C117.762 53.4089 118.079 52.9651 118.205 52.9017C118.269 52.7115 118.522 52.3945 118.966 51.9507C119.41 51.4435 119.886 50.9046 120.393 50.3339C120.963 49.7633 121.502 49.2561 122.01 48.8123C122.517 48.3051 122.929 47.9881 123.246 47.8613C123.373 47.6711 123.721 47.5126 124.292 47.3857C124.926 47.2589 125.307 47.1955 125.433 47.1955C127.335 46.2445 129.142 45.3569 130.854 44.5327C132.566 43.7084 134.278 42.9159 135.99 42.1551C137.765 41.3943 139.572 40.6968 141.411 40.0628C143.249 39.4288 145.278 38.8265 147.497 38.2559H147.592H147.973C149.051 38.3193 150.445 38.4144 152.157 38.5412C153.869 38.6046 155.518 38.6997 157.103 38.8265C158.751 38.8899 160.146 38.9533 161.287 39.0167C162.492 39.0801 163.158 39.1118 163.284 39.1118C166.137 39.3654 168.959 40.253 171.748 41.7747C174.602 43.2329 177.233 45.0716 179.642 47.2906C182.115 49.5097 184.239 51.9824 186.014 54.7087C187.853 57.3716 189.216 59.971 190.103 62.5071C190.167 62.5705 190.23 62.8558 190.294 63.3631C190.42 63.8069 190.515 64.3141 190.579 64.8847C190.706 65.4553 190.801 65.9942 190.864 66.5015C190.991 66.9453 191.118 67.2306 191.245 67.3574C191.245 67.4842 191.34 67.8646 191.53 68.4986C191.784 69.0692 192.037 69.7033 192.291 70.4007C192.608 71.0981 192.861 71.7321 193.052 72.3027C193.305 72.8734 193.464 73.2221 193.527 73.3489C193.527 73.4757 193.559 73.6342 193.622 73.8244C193.622 73.9512 193.622 74.078 193.622 74.2048C193.686 74.3316 193.717 74.4267 193.717 74.4901C193.717 75.5679 193.654 76.6141 193.527 77.6285C193.4 78.5795 193.337 79.5623 193.337 80.5767C193.337 81.4009 193.4 82.1301 193.527 82.7641C193.717 83.3981 193.812 84.0955 193.812 84.8563V86.4731C192.988 90.2772 192.196 93.9545 191.435 97.505C190.674 100.992 189.596 104.289 188.201 107.396C186.806 110.439 184.968 113.26 182.685 115.86C180.403 118.459 177.328 120.742 173.46 122.707C169.72 124.609 165.852 126.099 161.858 127.177C157.927 128.255 153.901 128.794 149.78 128.794C149.399 128.794 148.892 128.762 148.258 128.699C147.687 128.699 147.117 128.699 146.546 128.699C145.976 128.699 145.468 128.667 145.025 128.604C144.581 128.604 144.359 128.604 144.359 128.604C144.295 128.604 143.82 128.509 142.932 128.318C142.108 128.065 141.094 127.78 139.889 127.462C138.748 127.145 137.575 126.828 136.37 126.511C135.166 126.131 134.183 125.846 133.422 125.656C132.725 125.465 131.995 125.275 131.235 125.085C130.474 124.895 129.745 124.578 129.047 124.134C127.272 123.183 125.528 122.168 123.817 121.091C122.105 120.013 120.425 118.903 118.776 117.762C118.713 117.635 118.618 117.508 118.491 117.382C118.364 117.191 118.269 117.033 118.205 116.906C116.811 115.194 115.416 113.07 114.021 110.534C112.626 107.935 111.358 105.208 110.217 102.355C109.139 99.4388 108.251 96.5223 107.554 93.6058C106.857 90.6259 106.508 87.9313 106.508 85.5221Z" fill="#030089"/>
<path d="M45.269 116.24C46.9809 116.811 48.4074 117.445 49.5487 118.142C50.7533 118.84 52.1799 119.189 53.8283 119.189H56.301C56.4912 119.125 56.8716 118.967 57.4422 118.713C58.0128 118.396 58.6152 118.079 59.2492 117.762C59.9466 117.445 60.5489 117.16 61.0561 116.906C61.6268 116.589 62.0072 116.367 62.1974 116.24C62.2608 116.24 62.451 116.177 62.768 116.05C63.085 115.86 63.4337 115.67 63.8141 115.48C64.2579 115.289 64.6701 115.131 65.0505 115.004C65.4309 114.814 65.6845 114.687 65.8113 114.624C65.8747 114.56 66.0649 114.37 66.3819 114.053C66.7623 113.673 67.1744 113.261 67.6182 112.817C68.1255 112.373 68.601 111.929 69.0448 111.485C69.4886 111.041 69.8373 110.724 70.0909 110.534C70.0909 110.407 70.2177 110.154 70.4713 109.773C70.7249 109.33 70.8518 109.013 70.8518 108.822C70.9152 108.759 70.9786 108.474 71.042 107.966C71.1054 107.459 71.1688 106.92 71.2322 106.35C71.2956 105.779 71.359 105.24 71.4224 104.733C71.5492 104.226 71.6443 103.909 71.7077 103.782C71.7077 103.719 71.8028 103.528 71.993 103.211C72.1832 102.894 72.4051 102.546 72.6587 102.165C72.9123 101.785 73.1659 101.404 73.4195 101.024C73.6731 100.644 73.8633 100.39 73.9902 100.263C74.4974 98.9951 74.8144 97.727 74.9412 96.459C75.068 95.1275 75.1314 93.8278 75.1314 92.5598V89.1361C75.1314 85.5221 75.0046 81.9716 74.751 78.4845C74.5608 74.9974 74.3072 71.6371 73.9902 68.4036C73.4195 67.0088 72.944 65.6456 72.5636 64.3142C72.2466 62.9827 71.8662 61.7147 71.4224 60.51C70.9786 59.242 70.4396 58.0374 69.8056 56.8961C69.235 55.7549 68.3791 54.6454 67.2378 53.5675C65.7162 52.1727 64.2896 50.9363 62.9582 49.8585C61.6902 48.7807 60.3587 47.893 58.9639 47.1956C57.6324 46.4982 56.1425 45.9593 54.494 45.5789C52.909 45.1985 51.0386 45.0083 48.883 45.0083H48.3123C48.0587 45.1351 47.6466 45.3253 47.076 45.5789C46.5054 45.8325 45.9031 46.1178 45.269 46.4348C44.635 46.7518 44.0327 47.0688 43.4621 47.3858C42.9549 47.6394 42.6062 47.7979 42.4159 47.8613C41.3381 48.4954 40.5139 49.1928 39.9433 49.9536C39.4361 50.651 39.0556 51.4119 38.802 52.2361C38.5484 53.0603 38.3899 53.9479 38.3265 54.899C38.2631 55.85 38.1363 56.8961 37.9461 58.0374C37.9461 58.4178 37.851 59.1469 37.6608 60.2247C37.4706 61.2392 37.2487 62.317 36.9951 63.4582C36.8049 64.5995 36.583 65.709 36.3294 66.7868C36.1391 67.8013 35.9806 68.4987 35.8538 68.8791C35.9172 69.0059 35.9806 69.2595 36.044 69.6399C36.1708 69.9569 36.266 70.3374 36.3294 70.7812C36.4562 71.1616 36.5513 71.542 36.6147 71.9224C36.6781 72.2394 36.7098 72.4296 36.7098 72.493C36.7098 72.9368 36.7415 73.8562 36.8049 75.251C36.8683 76.5825 36.9317 78.0407 36.9951 79.6258C37.0585 81.1474 37.1219 82.6373 37.1853 84.0956C37.3121 85.4904 37.4072 86.5049 37.4706 87.1389V103.116C37.534 103.306 37.6608 103.655 37.851 104.162C38.0412 104.606 38.2314 105.113 38.4216 105.684C38.6752 106.255 38.8971 106.794 39.0873 107.301C39.341 107.808 39.5312 108.157 39.658 108.347C39.7214 108.41 39.7531 108.537 39.7531 108.727C39.8165 108.854 39.9116 108.981 40.0384 109.108C40.1018 109.298 40.1969 109.488 40.3237 109.678C40.5139 109.932 40.8309 110.376 41.2747 111.01C41.7819 111.644 42.2891 112.341 42.7964 113.102C43.367 113.799 43.8742 114.465 44.318 115.099C44.7618 115.67 45.0788 116.05 45.269 116.24ZM0 173.492C0 173.366 0.031701 173.144 0.095103 172.827C0.158505 172.573 0.190206 172.351 0.190206 172.161C0.63402 171.147 1.23634 170.322 1.99716 169.688C2.69459 169.118 3.45541 168.674 4.27964 168.357C5.16726 168.103 6.08659 167.945 7.03762 167.881C7.98865 167.818 8.93968 167.786 9.89071 167.786C12.0464 167.786 13.9484 167.659 15.5969 167.406C17.3088 167.216 18.2915 166.455 18.5451 165.123C18.7353 163.792 18.8304 162.46 18.8304 161.129C18.8938 159.798 18.9255 158.339 18.9255 156.754C18.9255 155.169 19.0523 153.743 19.3059 152.475C19.5595 151.207 19.8131 149.843 20.0667 148.385V100.929C20.0667 100.675 20.0984 100.295 20.1618 99.7876C20.2252 99.217 20.2569 98.6464 20.2569 98.0757C20.3203 97.4417 20.3837 96.8711 20.4471 96.3639C20.5106 95.7933 20.5423 95.4128 20.5423 95.2226V94.3667V93.701C20.5423 93.5108 20.5106 92.9402 20.4471 91.9891C20.3837 91.0381 20.3203 90.0237 20.2569 88.9458C20.2569 87.868 20.2252 86.8536 20.1618 85.9025C20.0984 84.8881 20.0667 84.2541 20.0667 84.0005V76.1069C19.9399 75.6631 19.8448 74.9023 19.7814 73.8245C19.718 72.7466 19.6546 71.6371 19.5912 70.4959C19.5278 69.3546 19.4644 68.2768 19.401 67.2624C19.3376 66.2479 19.2742 65.5822 19.2108 65.2652C18.9572 63.1095 18.3232 61.4294 17.3088 60.2247C16.3577 58.9567 14.8044 57.9423 12.6487 57.1814C12.3317 57.118 11.7928 57.0229 11.0319 56.8961C10.2711 56.7059 9.4786 56.5474 8.65438 56.4206C7.83015 56.2304 7.03762 56.0719 6.2768 55.9451C5.51597 55.8183 5.00876 55.7549 4.75515 55.7549C4.24793 55.7549 3.96263 55.6281 3.89922 55.3745C3.83582 55.0575 3.80412 54.7405 3.80412 54.4235C3.80412 53.1554 4.21623 52.1727 5.04046 51.4753C5.86469 50.7144 6.81572 50.1121 7.89355 49.6683C9.03479 49.2245 10.176 48.9075 11.3173 48.7173C12.5219 48.4637 13.4729 48.1784 14.1704 47.8613C14.1704 47.8613 14.2972 47.7662 14.5508 47.576C14.8678 47.3224 15.1848 47.0688 15.5018 46.8152C15.8188 46.5616 16.1041 46.308 16.3577 46.0544C16.6747 45.8008 16.8649 45.6106 16.9283 45.4838C17.1185 45.357 17.5307 45.1351 18.1647 44.818C18.8621 44.501 19.5912 44.184 20.352 43.867C21.1129 43.4866 21.8103 43.1379 22.4443 42.8209C23.1417 42.5039 23.649 42.2503 23.966 42.0601C24.8536 41.6162 25.4559 41.3626 25.7729 41.2992C26.1533 41.1724 26.5971 41.109 27.1044 41.109C27.992 41.109 28.7211 41.3309 29.2917 41.7748C29.9258 42.1552 30.4964 42.599 31.0036 43.1062C31.5742 43.55 32.1448 43.9938 32.7154 44.4376C33.3495 44.818 34.0786 45.0083 34.9028 45.0083C36.4245 45.0083 37.7242 44.6595 38.802 43.9621C39.9433 43.2013 41.1479 42.5673 42.4159 42.0601C43.684 41.5528 44.8886 41.0456 46.0299 40.5384C47.2345 39.9678 48.4074 39.4606 49.5487 39.0168C50.7533 38.573 51.958 38.2242 53.1626 37.9706C54.4306 37.6536 55.7938 37.4951 57.252 37.4951C57.6958 37.4951 58.3299 37.5268 59.1541 37.5902C60.0417 37.5902 60.4855 37.6536 60.4855 37.7804C60.6123 37.7804 60.8659 37.8438 61.2463 37.9706C61.6902 38.034 62.134 38.1291 62.5778 38.2559C63.0216 38.3827 63.402 38.5095 63.719 38.6364C64.0994 38.7632 64.2896 38.8583 64.2896 38.9217C64.353 38.9217 64.575 38.9217 64.9554 38.9217C65.3358 38.9217 65.7162 38.9217 66.0966 38.9217C66.5404 38.9217 66.9525 38.9534 67.3329 39.0168C67.7133 39.0168 67.967 39.0485 68.0938 39.1119C69.1082 39.2387 70.0909 39.7459 71.042 40.6335C72.0564 41.4577 73.0391 42.1552 73.9902 42.7258C73.9902 42.7892 74.117 42.916 74.3706 43.1062C74.6876 43.2964 75.0363 43.5183 75.4167 43.7719C75.7971 44.0255 76.1775 44.2791 76.5579 44.5327C77.0017 44.7229 77.3188 44.8815 77.509 45.0083C79.2842 45.9593 80.8693 47.1956 82.2641 48.7173C83.659 50.1755 84.927 51.7923 86.0682 53.5675C87.2729 55.2794 88.3507 57.0863 89.3017 58.9884C90.2528 60.8271 91.1404 62.634 91.9646 64.4093C92.0914 64.7263 92.2182 65.1067 92.345 65.5505C92.5352 65.9309 92.6937 66.343 92.8205 66.7868C93.0108 67.1673 93.1376 67.516 93.201 67.833C93.3278 68.15 93.3912 68.3402 93.3912 68.4036C93.4546 68.4036 93.4863 68.5621 93.4863 68.8791C93.5497 69.1961 93.5814 69.5765 93.5814 70.0203C93.5814 70.4642 93.5814 70.9397 93.5814 71.4469C93.5814 71.9541 93.5814 72.3662 93.5814 72.6832C93.5814 73.0002 93.5814 73.4124 93.5814 73.9196C93.5814 74.4268 93.5814 74.9657 93.5814 75.5363C93.5814 76.0435 93.5497 76.5191 93.4863 76.9629C93.4863 77.3433 93.4546 77.5652 93.3912 77.6286C93.3912 77.7554 93.2961 78.1358 93.1059 78.7698C92.9156 79.3404 92.8205 79.7209 92.8205 79.9111V84.0005C92.8205 84.1907 92.6937 84.6662 92.4401 85.427C92.2499 86.1245 92.0914 86.6951 91.9646 87.1389C91.9012 87.2657 91.8061 87.551 91.6793 87.9948C91.5525 88.3752 91.394 88.819 91.2038 89.3263C91.077 89.7701 90.9502 90.2139 90.8234 90.6577C90.6966 91.0381 90.6332 91.2917 90.6332 91.4185C90.5698 91.6721 90.443 92.2428 90.2528 93.1304C90.126 94.018 89.9675 94.969 89.7773 95.9835C89.6504 96.9345 89.5236 97.8538 89.3968 98.7415C89.27 99.5657 89.2066 100.073 89.2066 100.263C88.8896 101.531 88.4775 102.546 87.9703 103.306C87.5265 104.004 86.8925 104.987 86.0682 106.255C84.293 109.298 82.4543 111.992 80.5523 114.338C78.7136 116.684 76.653 118.65 74.3706 120.235C72.0881 121.756 69.5203 122.929 66.6672 123.754C63.8141 124.578 60.5172 124.99 56.7765 124.99C55.2549 124.99 53.7332 124.895 52.2116 124.705C50.7533 124.451 49.2634 124.197 47.7417 123.944C46.2835 123.627 44.7935 123.341 43.2719 123.088C41.7502 122.834 40.1969 122.707 38.6118 122.707H37.4706C37.217 122.834 37.0268 123.12 36.9 123.563C36.7732 123.944 36.7098 124.197 36.7098 124.324C36.5196 126.543 36.3611 128.604 36.2342 130.506C36.1074 132.471 36.0123 134.405 35.9489 136.307C35.8855 138.273 35.8538 140.238 35.8538 142.204C35.8538 144.232 35.8538 146.388 35.8538 148.671V160.558C35.8538 162.397 36.2342 163.76 36.9951 164.648C37.7559 165.535 38.8654 166.423 40.3237 167.311C40.5139 167.374 40.7992 167.469 41.1796 167.596C41.6234 167.786 42.2574 167.945 43.0817 168.072C43.9059 168.262 45.0154 168.42 46.4103 168.547C47.8051 168.674 49.6121 168.737 51.8311 168.737C52.2116 168.864 52.5286 169.023 52.7822 169.213C53.0358 169.34 53.2894 169.466 53.543 169.593C53.7966 169.783 54.0502 169.942 54.3038 170.069C54.6208 170.386 54.811 170.639 54.8744 170.83C54.9378 171.02 54.9695 171.273 54.9695 171.59V172.732C54.9695 172.795 54.9061 173.049 54.7793 173.492C54.6525 173.936 54.5891 174.222 54.5891 174.348C53.5113 175.173 52.4652 175.68 51.4507 175.87C50.4363 176.06 49.2951 176.155 48.027 176.155C46.3152 176.155 44.635 175.997 42.9866 175.68C41.4015 175.426 39.7214 175.299 37.9461 175.299H36.7098C36.5196 175.299 36.0123 175.331 35.1881 175.394C34.4273 175.458 33.5714 175.521 32.6203 175.585C31.7327 175.711 30.8768 175.807 30.0526 175.87C29.2917 175.933 28.8162 175.965 28.626 175.965H23.8709H11.0319C10.8417 175.965 10.4296 175.997 9.79561 176.06C9.22499 176.124 8.59097 176.187 7.89355 176.25C7.19613 176.377 6.53041 176.472 5.89639 176.536C5.32577 176.599 4.94536 176.631 4.75515 176.631H3.80412H3.1384C2.94819 176.567 2.72629 176.441 2.47268 176.25C2.15567 176.06 1.83866 175.838 1.52165 175.585C1.20464 175.331 0.919329 175.077 0.665721 174.824C0.412113 174.634 0.253608 174.475 0.190206 174.348C0.126804 174.222 0.095103 174.095 0.095103 173.968C0.031701 173.841 0 173.683 0 173.492Z" fill="#030089"/>
</svg>
