<svg width="51" height="141" viewBox="0 0 51 141" fill="none" xmlns="http://www.w3.org/2000/svg">
<path d="M4.48547 138.966C3.59784 138.649 2.99552 138.269 2.67851 137.825C2.3615 137.381 2.20299 136.715 2.20299 135.828C2.20299 134.433 2.83701 133.545 4.10505 133.165C5.3731 132.721 6.79964 132.404 8.38469 132.214C10.0331 131.96 11.5548 131.612 12.9496 131.168C14.3445 130.66 15.2004 129.646 15.5174 128.124C15.8344 125.715 16.0246 123.496 16.088 121.467C16.1514 119.375 16.1831 117.314 16.1831 115.285V110.055C16.1831 105.109 16.0563 100.132 15.8027 95.1237C15.6125 90.1149 15.5174 85.1061 15.5174 80.0974C15.5174 75.5958 15.6125 71.1894 15.8027 66.8781C16.0563 62.5667 16.1831 58.192 16.1831 53.7539C16.1831 49.5693 16.0563 45.4482 15.8027 41.3905C15.6125 37.3327 15.5174 33.2116 15.5174 29.0271V24.9376C15.0102 23.4794 14.3445 22.1797 13.5203 21.0384C12.7594 19.8338 11.6499 18.9461 10.1916 18.3755C9.81124 18.1853 9.05041 17.9951 7.90918 17.8049C6.83134 17.6147 5.69011 17.3928 4.48547 17.1392C3.34423 16.8856 2.2981 16.5686 1.34707 16.1882C0.459439 15.8077 0.015625 15.2688 0.015625 14.5714C0.015625 14.0642 0.142429 13.557 0.396037 13.0498C0.713047 12.4791 1.09346 12.1304 1.53727 12.0036C3.75634 10.799 6.03882 9.75286 8.38469 8.86523C10.7306 7.9776 13.1081 7.02657 15.5174 6.01214C16.4684 5.56833 17.4512 5.06111 18.4656 4.49049C19.5434 3.91987 20.6213 3.38096 21.6991 2.87374C22.8403 2.30312 23.9816 1.85931 25.1228 1.5423C26.2641 1.16189 27.437 0.97168 28.6416 0.97168C29.0854 0.97168 29.6561 1.00338 30.3535 1.06678C31.1143 1.13018 31.6532 1.32039 31.9702 1.6374C32.2238 1.89101 32.4141 2.39822 32.5409 3.15905C32.6677 3.85647 32.7311 4.36369 32.7311 4.6807C32.7311 4.99771 32.7311 5.60003 32.7311 6.48765C32.7945 7.31188 32.8262 8.19951 32.8262 9.15054C32.8262 10.1016 32.8262 11.0209 32.8262 11.9085C32.8896 12.7962 32.9213 13.4302 32.9213 13.8106C32.9213 14.3178 32.8896 15.0469 32.8262 15.998C32.8262 16.949 32.8262 17.9 32.8262 18.851C32.8262 19.8021 32.7945 20.658 32.7311 21.4188C32.7311 22.1797 32.7311 22.5918 32.7311 22.6552C32.7311 23.0356 32.6994 23.7647 32.636 24.8425C32.636 25.857 32.6043 26.9348 32.5409 28.076C32.4775 29.2173 32.3824 30.3268 32.2556 31.4046C32.1921 32.4191 32.097 33.1165 31.9702 33.4969C31.9068 33.6237 31.8434 33.8773 31.78 34.2577C31.7166 34.5747 31.6532 34.9552 31.5898 35.399C31.5264 35.8428 31.463 36.2549 31.3996 36.6353C31.3362 36.9523 31.3045 37.1742 31.3045 37.301V38.157C31.3045 38.2838 31.3679 38.6008 31.4947 39.108C31.6849 39.6152 31.8434 39.9322 31.9702 40.059V58.509C32.6677 59.9672 33.0798 61.3938 33.2066 62.7886C33.3334 64.1201 33.3968 65.6734 33.3968 67.4487C33.3968 68.5899 33.3651 69.8897 33.3017 71.3479C33.2383 72.8062 33.0481 74.1693 32.7311 75.4373C32.7311 78.0368 32.7628 80.5412 32.8262 82.9505C32.8896 85.2963 32.9213 87.6739 32.9213 90.0832C32.9213 94.0141 32.8579 97.8816 32.7311 101.686C32.6043 105.49 32.3507 109.421 31.9702 113.479C31.9068 113.796 31.8117 114.556 31.6849 115.761C31.5581 116.966 31.3996 118.265 31.2094 119.66C31.0826 120.992 30.9241 122.26 30.7339 123.464C30.6071 124.669 30.512 125.398 30.4486 125.652V126.508C30.4486 127.078 30.6071 127.712 30.9241 128.41C31.2411 129.044 31.6532 129.646 32.1604 130.217C32.6677 130.787 33.2066 131.263 33.7772 131.643C34.4112 132.024 35.0135 132.214 35.5842 132.214H47.8524C48.4231 132.214 48.8986 132.372 49.279 132.689C49.6594 132.943 49.9764 133.292 50.23 133.735C50.4836 134.179 50.6738 134.623 50.8006 135.067C50.9274 135.511 50.9908 135.923 50.9908 136.303C50.9908 137.191 50.7372 137.888 50.23 138.396C49.7862 138.903 49.2156 139.283 48.5182 139.537C47.8207 139.79 47.0599 139.949 46.2357 140.012C45.4749 140.076 44.7774 140.107 44.1434 140.107H42.1463C35.9329 139.854 29.6561 139.695 23.3159 139.632C17.0391 139.632 10.7623 139.41 4.48547 138.966Z" fill="#030089"/>
</svg>
