<svg width="37" height="29" viewBox="0 0 37 29" fill="none" xmlns="http://www.w3.org/2000/svg">
<path d="M35.2936 27.9726C35.275 27.8606 35.2656 27.6692 35.2656 27.3986C35.2656 27.1279 35.2936 26.8712 35.3496 26.6286C35.611 26.6099 35.8536 26.6006 36.0776 26.6006C36.311 26.6006 36.5303 26.6239 36.7356 26.6706C36.7543 26.8012 36.7636 27.0019 36.7636 27.2726C36.7636 27.5339 36.7356 27.7952 36.6796 28.0566C36.4556 28.0846 36.213 28.0986 35.9516 28.0986C35.6903 28.0986 35.471 28.0566 35.2936 27.9726ZM36.4136 25.8026C36.3576 25.8119 36.2503 25.8166 36.0916 25.8166C35.933 25.8166 35.7883 25.8072 35.6576 25.7886L35.3216 17.9206C35.6016 17.9019 35.835 17.8926 36.0216 17.8926C36.2083 17.8926 36.4043 17.9159 36.6096 17.9626L36.4136 25.8026Z" fill="#030089"/>
<path d="M31.2233 27.9726C31.2046 27.8606 31.1953 27.6692 31.1953 27.3986C31.1953 27.1279 31.2233 26.8712 31.2793 26.6286C31.5406 26.6099 31.7833 26.6006 32.0073 26.6006C32.2406 26.6006 32.46 26.6239 32.6653 26.6706C32.684 26.8012 32.6933 27.0019 32.6933 27.2726C32.6933 27.5339 32.6653 27.7952 32.6093 28.0566C32.3853 28.0846 32.1426 28.0986 31.8813 28.0986C31.62 28.0986 31.4006 28.0566 31.2233 27.9726ZM32.3433 25.8026C32.2873 25.8119 32.18 25.8166 32.0213 25.8166C31.8626 25.8166 31.718 25.8072 31.5873 25.7886L31.2513 17.9206C31.5313 17.9019 31.7646 17.8926 31.9513 17.8926C32.138 17.8926 32.334 17.9159 32.5393 17.9626L32.3433 25.8026Z" fill="#030089"/>
<path d="M24.0421 17.5137C24.3314 17.5137 24.5367 17.523 24.6581 17.5417C24.6581 17.831 24.5974 18.2043 24.4761 18.6617C24.4201 21.1257 24.3921 22.9877 24.3921 24.2477L26.6461 21.8397L25.5261 21.7277C25.5261 21.4663 25.6054 21.1863 25.7641 20.8877H29.3201L29.3621 21.5037C29.1474 21.5877 28.7554 21.695 28.1861 21.8257L26.2681 23.5617L28.6341 27.0477L29.8101 27.1597C29.8101 27.421 29.7307 27.701 29.5721 27.9997H27.6541L25.4701 24.2757L24.3781 25.2697C24.3594 26.0537 24.3501 26.6463 24.3501 27.0477L25.5261 27.1597C25.5261 27.421 25.4467 27.701 25.2881 27.9997H22.0681L22.0261 27.5097C22.4554 27.3603 22.8754 27.2483 23.2861 27.1737C23.2301 23.403 23.1834 20.5517 23.1461 18.6197C22.6327 18.5917 22.2221 18.5357 21.9141 18.4517L21.9701 17.7237C22.4461 17.5837 23.1367 17.5137 24.0421 17.5137Z" fill="#030089"/>
<path d="M18.8789 28.1668C17.7589 28.1668 16.9235 27.8541 16.3729 27.2288C15.8222 26.5941 15.5469 25.6934 15.5469 24.5268C15.5469 21.9881 16.6762 20.7188 18.9349 20.7188C19.2989 20.7188 19.6769 20.7747 20.0689 20.8868C20.4609 20.9894 20.7689 21.1061 20.9929 21.2368C20.9649 22.1048 20.8762 22.7208 20.7269 23.0848C20.5589 23.1314 20.4235 23.1548 20.3209 23.1548H20.0829C20.0362 23.1548 19.9802 23.1501 19.9149 23.1408L19.5649 21.6008C19.2569 21.5728 19.0795 21.5588 19.0329 21.5588C18.3609 21.5588 17.8242 21.7641 17.4229 22.1748C17.0309 22.5854 16.8349 23.2761 16.8349 24.2468C16.8349 25.2174 16.9842 25.9548 17.2829 26.4588C17.5909 26.9628 18.1789 27.2148 19.0469 27.2148C19.4575 27.2148 20.1015 27.0188 20.9789 26.6268C21.1562 26.8694 21.2495 27.0841 21.2589 27.2708C20.7829 27.5508 20.3162 27.7701 19.8589 27.9288C19.4015 28.0874 19.0749 28.1668 18.8789 28.1668Z" fill="#030089"/>
<path d="M13.7603 19.5585C13.5176 19.6145 13.2796 19.6425 13.0463 19.6425C12.8223 19.6425 12.5983 19.6285 12.3743 19.6005C12.3183 19.3392 12.2902 19.0779 12.2902 18.8165C12.2902 18.5459 12.2996 18.3452 12.3182 18.2145C12.5236 18.1679 12.7382 18.1445 12.9622 18.1445C13.1956 18.1445 13.4429 18.1539 13.7043 18.1725C13.7603 18.4152 13.7882 18.6532 13.7882 18.8865C13.7882 19.1105 13.7789 19.3345 13.7603 19.5585ZM11.2122 21.0285C12.0056 20.8885 12.6216 20.8185 13.0603 20.8185C13.4989 20.8185 13.7789 20.8279 13.9003 20.8465C13.9003 21.0705 13.8722 21.3179 13.8162 21.5885C13.7602 21.8592 13.7276 21.9899 13.7183 21.9805L13.5922 27.0485L14.7683 27.1605C14.7683 27.4219 14.6889 27.7019 14.5303 28.0005H11.3103L11.2682 27.5105C11.6976 27.3612 12.1176 27.2492 12.5282 27.1745C12.4722 24.8412 12.4256 23.0912 12.3883 21.9245C11.8469 21.9245 11.4363 21.8685 11.1562 21.7565L11.2122 21.0285Z" fill="#030089"/>
<path d="M9.003 17.5977C9.29233 17.5977 9.49767 17.607 9.619 17.6257C9.619 17.9523 9.55833 18.3257 9.437 18.7457C9.353 24.2523 9.311 27.0197 9.311 27.0477L10.487 27.1597C10.487 27.421 10.4077 27.701 10.249 27.9997H7.029L6.987 27.5097C7.41633 27.3603 7.83633 27.2483 8.247 27.1737L8.107 18.7037C7.59367 18.6757 7.183 18.6197 6.875 18.5357L6.931 17.8077C7.407 17.6677 8.09767 17.5977 9.003 17.5977Z" fill="#030089"/>
<path d="M3.83981 28.1668C2.71981 28.1668 1.88448 27.8541 1.33381 27.2288C0.783146 26.5941 0.507812 25.6934 0.507812 24.5268C0.507812 21.9881 1.63715 20.7188 3.89581 20.7188C4.25981 20.7188 4.63781 20.7747 5.02981 20.8868C5.42181 20.9894 5.72981 21.1061 5.95381 21.2368C5.92581 22.1048 5.83715 22.7208 5.68781 23.0848C5.51981 23.1314 5.38448 23.1548 5.28181 23.1548H5.04381C4.99715 23.1548 4.94115 23.1501 4.87581 23.1408L4.52581 21.6008C4.21781 21.5728 4.04048 21.5588 3.99381 21.5588C3.32181 21.5588 2.78515 21.7641 2.38381 22.1748C1.99181 22.5854 1.79581 23.2761 1.79581 24.2468C1.79581 25.2174 1.94515 25.9548 2.24381 26.4588C2.55181 26.9628 3.13981 27.2148 4.00781 27.2148C4.41848 27.2148 5.06248 27.0188 5.93981 26.6268C6.11715 26.8694 6.21048 27.0841 6.21981 27.2708C5.74381 27.5508 5.27715 27.7701 4.81981 27.9288C4.36248 28.0874 4.03581 28.1668 3.83981 28.1668Z" fill="#030089"/>
<path d="M9 1C12.37 2.90804 16.1637 4.58108 19.1002 7.52169C19.9605 8.38319 20.7444 9.41245 21.1129 10.7476C21.1796 10.9892 21.9831 14.4529 21.2951 13.9502C20.7976 13.5867 20.9567 11.8936 20.9672 11.3415C21.0076 9.21202 21.5921 7.39743 22.6976 5.7981C24.2683 3.52588 26.8482 2.75568 29 1.8385" stroke="#030089" stroke-linecap="round"/>
</svg>
