<svg width="47" height="47" viewBox="0 0 47 47" fill="none" xmlns="http://www.w3.org/2000/svg">
<path d="M0 23.2305C0.354702 23.19 1.05366 22.9586 1.39797 22.9151C1.87374 22.855 2.91401 22.9813 3.37029 22.9151C5.8598 22.5539 7.4879 22.6048 9.43632 22.0182C13.6302 19.2222 17.3622 18.8341 19.5716 14.6788C20.1832 13.5286 20.5261 10.8542 20.9696 9.4364C21.2438 8.55965 21.995 7.62885 22.2132 6.64045C22.3853 5.86134 22.0725 5.34764 22.2132 4.4952C22.3426 3.71186 22.9611 2.59563 23.0666 1.74754C23.1371 1.18007 23.1694 0.5978 23.2301 0.000326591C23.2541 0.287108 23.3051 0.552057 23.3051 0.850493C23.3734 1.5873 23.6465 2.10514 23.7294 2.79602C23.791 3.30959 23.659 4.00632 23.7294 4.4952C23.8183 5.11308 23.9145 5.71147 24.0186 6.29096C24.1724 7.14706 24.8253 7.96191 25.0154 8.73741C25.164 9.34365 24.8424 9.92583 25.0154 10.4849C25.2562 11.2632 25.9196 12.5897 26.212 13.2808C27.6114 16.5878 29.008 18.8727 32.1534 19.9635C33.8223 20.8965 35.0863 21.8438 37.3958 22.3677C38.4823 22.6141 40.3444 22.545 41.5897 22.7171C42.3062 22.8162 43.0498 22.9359 43.8216 23.0131C44.2345 23.0544 44.7352 23.0666 45.0847 23.1282C45.3153 23.1473 45.4228 23.1108 45.6582 23.1282C45.8816 23.1448 46.2326 23.2153 46.4603 23.2305C46.0554 23.2895 46.1331 23.403 45.5239 23.5013C45.345 23.5301 44.9111 23.4716 44.7352 23.5013C44.4995 23.5411 44.1798 23.46 43.9495 23.5013C43.638 23.5572 43.2896 23.7069 42.9877 23.7656C40.8955 24.1728 40.1084 24.9529 38.4443 25.5131C37.5538 25.8129 36.4285 26.2123 35.6483 26.5616C34.8084 26.9377 33.5747 27.1718 32.8524 27.6101C31.5828 28.3804 30.2855 29.0729 29.3341 30.0565C28.2302 31.1977 26.9716 32.4336 26.212 33.9009C25.7858 34.7244 25.7561 35.6603 25.4161 36.5968C25.0773 37.5301 24.3841 39.1388 24.115 40.1918C23.9219 40.9478 24.138 41.1183 23.9739 41.9393C23.7841 42.8885 23.6118 43.882 23.4524 44.922C23.3755 45.424 23.3016 45.9368 23.2301 46.4606C23.1816 46.165 23.1323 45.8731 23.082 45.5848C22.9469 44.8096 22.8671 44.0608 22.7171 43.3373C22.4604 42.0999 22.3309 40.9367 22.0181 39.8423C21.8097 39.1133 21.3737 38.4148 21.1345 37.7454C20.5819 36.1991 20.3303 34.458 19.5716 33.202C18.8759 32.0501 17.6916 31.3617 16.7757 30.4229C15.1726 28.7799 13.3005 27.6766 10.8343 26.5616C9.99498 26.1821 8.99627 25.5926 8.03835 25.2619C7.22235 24.9802 6.36161 24.7151 5.45318 24.4646C5.01879 24.3448 4.54341 24.4646 4.19392 24.1151C3.87557 24.0361 3.47481 23.8417 3.14544 23.7656C2.69018 23.6605 2.22428 23.8654 1.74747 23.7656C1.18057 23.6471 0.598245 23.342 0 23.2305Z" fill="#030089"/>
</svg>
