<svg width="22" height="22" viewBox="0 0 22 22" fill="none" xmlns="http://www.w3.org/2000/svg">
<path d="M0.265625 10.875C0.427578 10.8565 0.746715 10.7509 0.903923 10.731C1.12115 10.7036 1.59613 10.7612 1.80446 10.731C2.94114 10.5661 3.68451 10.5893 4.57414 10.3215C6.48903 9.04488 8.19301 8.86769 9.2018 6.97041C9.48102 6.44525 9.63761 5.22414 9.84009 4.5768C9.9653 4.17648 10.3083 3.75149 10.4079 3.3002C10.4865 2.94447 10.3436 2.70992 10.4079 2.3207C10.467 1.96304 10.7494 1.45338 10.7975 1.06616C10.8298 0.807056 10.8445 0.541198 10.8722 0.268398C10.8832 0.39934 10.9064 0.520312 10.9064 0.656575C10.9376 0.992992 11.0623 1.22943 11.1002 1.54488C11.1283 1.77937 11.068 2.09749 11.1002 2.3207C11.1408 2.60282 11.1847 2.87604 11.2322 3.14063C11.3025 3.53151 11.6005 3.90356 11.6873 4.25765C11.7552 4.53445 11.6084 4.80027 11.6873 5.05552C11.7973 5.4109 12.1002 6.01658 12.2337 6.33211C12.8727 7.84206 13.5103 8.88531 14.9465 9.38332C15.7085 9.80935 16.2856 10.2418 17.3401 10.4811C17.8362 10.5936 18.6864 10.562 19.255 10.6406C19.5821 10.6859 19.9216 10.7405 20.274 10.7758C20.4626 10.7946 20.6912 10.8002 20.8507 10.8283C20.956 10.837 21.0051 10.8203 21.1126 10.8283C21.2146 10.8359 21.3749 10.8681 21.4788 10.875C21.294 10.902 21.3295 10.9538 21.0513 10.9987C20.9696 11.0118 20.7715 10.9851 20.6912 10.9987C20.5836 11.0168 20.4376 10.9798 20.3324 10.9987C20.1902 11.0242 20.0311 11.0925 19.8933 11.1193C18.938 11.3052 18.5786 11.6614 17.8188 11.9172C17.4122 12.0541 16.8984 12.2365 16.5422 12.3959C16.1587 12.5677 15.5954 12.6746 15.2656 12.8747C14.686 13.2264 14.0936 13.5426 13.6592 13.9917C13.1552 14.5127 12.5805 15.077 12.2337 15.747C12.0391 16.123 12.0256 16.5503 11.8703 16.9779C11.7156 17.4041 11.3991 18.1386 11.2763 18.6193C11.1881 18.9645 11.2867 19.0424 11.2118 19.4172C11.1252 19.8506 11.0465 20.3043 10.9737 20.7791C10.9386 21.0083 10.9048 21.2424 10.8722 21.4816C10.8501 21.3466 10.8276 21.2133 10.8046 21.0817C10.7429 20.7278 10.7065 20.3859 10.638 20.0555C10.5208 19.4906 10.4617 18.9594 10.3188 18.4598C10.2237 18.1269 10.0246 17.808 9.91538 17.5023C9.66308 16.7963 9.54821 16.0014 9.2018 15.4279C8.88411 14.9019 8.34341 14.5876 7.9252 14.159C7.19326 13.4088 6.33847 12.9051 5.21243 12.3959C4.82921 12.2227 4.37321 11.9535 3.93584 11.8025C3.56326 11.6739 3.17026 11.5529 2.75548 11.4385C2.55714 11.3838 2.34009 11.4385 2.18052 11.2789C2.03516 11.2429 1.85218 11.1541 1.7018 11.1193C1.49393 11.0714 1.28121 11.1649 1.0635 11.1193C0.804661 11.0652 0.538776 10.9259 0.265625 10.875Z" fill="#030089"/>
</svg>
