<svg width="88" height="91" viewBox="0 0 88 91" fill="none" xmlns="http://www.w3.org/2000/svg">
<path d="M16.9803 53.2575C16.9803 56.8715 17.7094 60.3586 19.1677 63.7189C20.6893 67.0158 22.6548 69.964 25.0641 72.5635C25.8249 73.3243 26.5857 74.1802 27.3465 75.1312C28.1074 76.0823 28.8999 77.0016 29.7241 77.8892C30.6118 78.7768 31.5311 79.6011 32.4821 80.3619C33.4965 81.1227 34.5744 81.6933 35.7156 82.0738L41.7071 83.4052H42.4679H43.3239C43.8945 83.3418 44.687 83.2784 45.7014 83.215C46.7159 83.1516 47.7303 83.0882 48.7447 83.0248C49.7592 82.9614 50.6468 82.898 51.4076 82.8346C52.1684 82.7712 52.6123 82.7395 52.7391 82.7395C53.6901 82.5493 54.7362 82.0738 55.8775 81.3129C57.0821 80.5521 58.2867 79.6962 59.4914 78.7451C60.696 77.7307 61.8373 76.7163 62.9151 75.7019C64.0563 74.624 65.0391 73.7364 65.8633 73.039C65.9267 73.039 66.0218 72.9756 66.1486 72.8488C66.212 72.7854 66.2754 72.6903 66.3388 72.5635C67.9238 69.2665 69.1919 65.8111 70.1429 62.1972C71.1573 58.5199 71.6646 54.9377 71.6646 51.4506C71.6646 48.5975 71.411 45.9346 70.9037 43.4619C70.4599 40.9893 69.6991 38.5166 68.6213 36.0439C68.6213 35.8537 68.4945 35.4733 68.2409 34.9027C68.0506 34.332 67.9555 33.9833 67.9555 33.8565C67.5751 32.2081 67.163 30.4328 66.7192 28.5308C66.3388 26.5653 65.5146 24.9485 64.2465 23.6805C64.1197 23.4903 63.771 23.1099 63.2004 22.5393C62.6298 21.9686 61.9958 21.3663 61.2983 20.7323C60.6643 20.0983 60.062 19.496 59.4914 18.9253C58.9842 18.3547 58.6989 17.9743 58.6354 17.7841C58.5086 17.7207 58.3184 17.5622 58.0648 17.3086C57.8746 16.9916 57.6527 16.6746 57.3991 16.3576C57.1455 16.0406 56.8919 15.7552 56.6383 15.5016C56.4481 15.1846 56.353 14.9944 56.353 14.931C56.1628 14.8042 55.8775 14.5506 55.497 14.1702C55.18 13.7264 54.9581 13.4411 54.8313 13.3143C54.7045 13.3143 54.4826 13.2509 54.1656 13.1241C53.8486 12.9339 53.4999 12.7437 53.1195 12.5534C52.7391 12.3632 52.3903 12.2047 52.0733 12.0779C51.7563 11.8877 51.5661 11.7926 51.5027 11.7926C51.3125 11.6658 50.8053 11.5073 49.9811 11.3171C49.1568 11.1269 48.2692 10.9367 47.3182 10.7465C46.4306 10.5563 45.5746 10.3978 44.7504 10.271C43.9896 10.0808 43.5141 9.95396 43.3239 9.89056C43.0069 9.89056 42.4996 9.95396 41.8022 10.0808C41.1048 10.1442 40.3757 10.271 39.6148 10.4612C38.854 10.588 38.1249 10.7148 37.4275 10.8416C36.73 10.9684 36.1594 11.0635 35.7156 11.1269C34.828 12.0145 33.9087 12.8388 32.9576 13.5996C32.07 14.297 31.1824 15.0261 30.2947 15.7869C29.4071 16.4844 28.5512 17.2452 27.727 18.0694C26.9661 18.8302 26.3004 19.7179 25.7298 20.7323C25.603 20.9225 25.3494 21.3346 24.969 21.9686C24.652 22.6027 24.2716 23.3001 23.8277 24.0609C23.4473 24.8217 23.0669 25.5192 22.6865 26.1532C22.3695 26.7872 22.1793 27.1676 22.1159 27.2944C21.7355 28.0552 21.2917 28.8795 20.7844 29.7671C20.3406 30.5913 19.8968 31.4789 19.453 32.43C19.0092 33.381 18.6288 34.3637 18.3118 35.3782C18.0582 36.3292 17.8997 37.2485 17.8362 38.1362C17.7094 38.8336 17.5826 39.9431 17.4558 41.4648C17.3924 42.9864 17.329 44.5715 17.2656 46.2199C17.2022 47.805 17.1388 49.2949 17.0754 50.6898C17.012 52.0212 16.9803 52.8771 16.9803 53.2575ZM0.242188 47.5514C0.242188 46.2199 0.464095 44.8885 0.907909 43.557C1.41512 42.2256 1.82724 40.9258 2.14425 39.6578C2.20765 39.4042 2.33445 38.7068 2.52466 37.5655C2.77827 36.3609 3.03188 35.0929 3.28548 33.7614C3.60249 32.43 3.8878 31.1936 4.14141 30.0524C4.39502 28.9112 4.55352 28.2137 4.61693 27.9601C4.74373 27.5797 4.90224 27.1993 5.09244 26.8189C5.21925 26.5019 5.34605 26.1849 5.47285 25.8679C5.66306 25.4875 5.82156 25.2021 5.94837 25.0119C6.39218 24.3779 6.9311 23.4903 7.56512 22.3491C8.19914 21.2078 8.80146 20.0983 9.37208 19.0205C10.0061 17.9426 10.545 17.0233 10.9888 16.2625C11.496 15.4382 11.8131 14.9944 11.9399 14.931C12.0033 14.7408 12.2569 14.4238 12.7007 13.98C13.1445 13.4728 13.62 12.9339 14.1272 12.3632C14.6978 11.7926 15.2368 11.2854 15.744 10.8416C16.2512 10.3344 16.6633 10.0174 16.9803 9.89056C17.1071 9.70036 17.4558 9.54185 18.0265 9.41505C18.6605 9.28824 19.0409 9.22484 19.1677 9.22484C21.0698 8.27381 22.8767 7.38618 24.5886 6.56196C26.3004 5.73773 28.0123 4.9452 29.7241 4.18438C31.4994 3.42356 33.3063 2.72613 35.145 2.09211C36.9837 1.45809 39.0125 0.855774 41.2316 0.285156H41.3267H41.7071C42.7849 0.348558 44.1798 0.443661 45.8916 0.570465C47.6035 0.633867 49.2519 0.72897 50.837 0.855774C52.4855 0.919176 53.8803 0.982578 55.0215 1.04598C56.2262 1.10938 56.8919 1.14108 57.0187 1.14108C59.8718 1.39469 62.6932 2.28232 65.4829 3.80397C68.336 5.26221 70.9671 7.10087 73.3764 9.31994C75.8491 11.539 77.9731 14.0117 79.7483 16.738C81.587 19.4009 82.9501 22.0003 83.8378 24.5364C83.9012 24.5998 83.9646 24.8851 84.028 25.3924C84.1548 25.8362 84.2499 26.3434 84.3133 26.914C84.4401 27.4846 84.5352 28.0235 84.5986 28.5308C84.7254 28.9746 84.8522 29.2599 84.979 29.3867C84.979 29.5135 85.0741 29.8939 85.2643 30.5279C85.5179 31.0985 85.7715 31.7326 86.0251 32.43C86.3421 33.1274 86.5957 33.7614 86.7859 34.332C87.0396 34.9027 87.1981 35.2514 87.2615 35.3782C87.2615 35.505 87.2932 35.6635 87.3566 35.8537C87.3566 35.9805 87.3566 36.1073 87.3566 36.2341C87.42 36.3609 87.4517 36.456 87.4517 36.5194C87.4517 37.5972 87.3883 38.6434 87.2615 39.6578C87.1347 40.6088 87.0713 41.5916 87.0713 42.606C87.0713 43.4302 87.1347 44.1593 87.2615 44.7934C87.4517 45.4274 87.5468 46.1248 87.5468 46.8856V48.5024C86.7225 52.3065 85.93 55.9838 85.1692 59.5343C84.4084 63.0214 83.3305 66.3184 81.9357 69.425C80.5408 72.4683 78.7022 75.2897 76.4197 77.8892C74.1372 80.4887 71.0622 82.7712 67.1947 84.7366C63.454 86.6387 59.5865 88.1286 55.5922 89.2065C51.6612 90.2843 47.6352 90.8232 43.5141 90.8232C43.1337 90.8232 42.6264 90.7915 41.9924 90.7281C41.4218 90.7281 40.8512 90.7281 40.2806 90.7281C39.7099 90.7281 39.2027 90.6964 38.7589 90.633C38.3151 90.633 38.0932 90.633 38.0932 90.633C38.0298 90.633 37.5543 90.5379 36.6666 90.3477C35.8424 90.0941 34.828 89.8088 33.6234 89.4918C32.4821 89.1748 31.3092 88.8578 30.1045 88.5408C28.8999 88.1603 27.9172 87.875 27.1563 87.6848C26.4589 87.4946 25.7298 87.3044 24.969 87.1142C24.2082 86.924 23.479 86.607 22.7816 86.1632C21.0063 85.2122 19.2628 84.1977 17.5509 83.1199C15.8391 82.0421 14.1589 80.9325 12.5105 79.7913C12.4471 79.6645 12.352 79.5377 12.2252 79.4109C12.0984 79.2207 12.0033 79.0622 11.9399 78.9354C10.545 77.2235 9.15017 75.0995 7.75533 72.5635C6.36048 69.964 5.09244 67.2377 3.95121 64.3846C2.87337 61.4681 1.98574 58.5516 1.28832 55.6351C0.590899 52.6552 0.242188 49.9606 0.242188 47.5514Z" fill="#030089"/>
</svg>
