<svg width="88" height="14" viewBox="0 0 88 14" fill="none" xmlns="http://www.w3.org/2000/svg">
<path d="M0 7.0921C0 5.80263 0.292035 4.69737 0.876106 3.77632C1.52507 2.91667 2.33628 2.21053 3.30973 1.65789C4.34808 1.10526 5.45133 0.675439 6.61947 0.368421C7.85251 0.122807 9.0531 0 10.2212 0C11.649 0 13.0118 0.122807 14.3097 0.368421C15.6077 0.614035 17.003 0.736842 18.4956 0.736842H21.0266C21.4159 0.736842 22.292 0.675439 23.6549 0.552632C25.0177 0.491228 26.4779 0.399123 28.0354 0.276316C29.5929 0.214912 31.0531 0.153509 32.4159 0.0921053C33.7788 0.0307018 34.6224 0 34.9469 0C35.2065 0 35.6608 0.0307018 36.3097 0.0921053C37.0236 0.214912 37.7375 0.307018 38.4513 0.368421C39.2301 0.491228 39.944 0.583333 40.5929 0.644737C41.2419 0.70614 41.6313 0.736842 41.7611 0.736842C41.826 0.736842 42.0206 0.70614 42.3451 0.644737C42.6696 0.583333 42.9941 0.491228 43.3186 0.368421C43.6431 0.307018 43.9351 0.245614 44.1947 0.184211C44.5192 0.122807 44.7139 0.0921053 44.7788 0.0921053H45.8496C46.174 0.0921053 46.4985 0.0614035 46.823 0C47.1475 0 47.472 0 47.7965 0C47.9912 0 48.2507 0 48.5752 0C48.8997 0.0614035 49.2242 0.0921053 49.5487 0.0921053H50.8142L52.8584 0.736842C52.9233 0.859649 53.0855 0.921053 53.3451 0.921053C54.9676 0.798246 56.4277 0.70614 57.7257 0.644737C59.0885 0.644737 59.9322 0.644737 60.2566 0.644737C60.5162 0.644737 61.003 0.675439 61.7168 0.736842C62.4307 0.859649 63.1445 0.951754 63.8584 1.01316C64.5723 1.13596 65.2212 1.22807 65.8053 1.28947C66.4543 1.35088 66.8437 1.38158 66.9734 1.38158C67.0384 1.38158 67.233 1.35088 67.5575 1.28947C67.882 1.22807 68.2065 1.13596 68.531 1.01316C68.8555 0.951754 69.1475 0.890351 69.4071 0.828947C69.7316 0.767544 69.9263 0.736842 69.9911 0.736842H71.1593C71.4838 0.736842 71.8083 0.70614 72.1327 0.644737C72.5221 0.644737 72.8142 0.644737 73.0089 0.644737C73.2035 0.644737 73.4631 0.644737 73.7876 0.644737C74.177 0.70614 74.5339 0.736842 74.8584 0.736842H76.0266L78.0708 1.38158C78.3304 1.50439 78.59 1.56579 78.8496 1.56579C79.174 1.56579 79.4336 1.56579 79.6283 1.56579C80.0177 1.56579 80.3746 1.53509 80.6991 1.47368C81.0885 1.41228 81.5103 1.38158 81.9646 1.38158C83.3274 1.38158 84.528 1.62719 85.5664 2.11842C86.6696 2.67105 87.4484 3.86842 87.9027 5.71053C87.9676 5.71053 88 5.92544 88 6.35526C88 6.84649 88 7.15351 88 7.27632C88 8.93421 87.708 10.2237 87.1239 11.1447C86.5398 12.0658 85.7611 12.7412 84.7876 13.1711C83.8142 13.6009 82.6785 13.8465 81.3805 13.9079C80.0826 13.9693 78.7522 14 77.3894 14H73.0089C72.944 14 72.7493 13.9693 72.4248 13.9079C72.1652 13.8465 71.8732 13.7544 71.5487 13.6316C71.2242 13.5702 70.8997 13.5088 70.5752 13.4474C70.2507 13.386 70.0561 13.3553 69.9911 13.3553C69.7965 13.3553 69.4071 13.3553 68.823 13.3553C68.2389 13.4167 67.5575 13.4474 66.7788 13.4474C66 13.4474 65.1563 13.4474 64.2478 13.4474C63.3392 13.5088 62.4631 13.5395 61.6195 13.5395C60.7109 13.5395 59.9646 13.5088 59.3805 13.4474C58.7965 13.386 58.3422 13.3553 58.0177 13.3553H52.177H47.7965C47.6018 13.3553 47.2448 13.2939 46.7257 13.1711C46.2714 13.0482 45.882 12.9561 45.5575 12.8947C44.9735 12.9561 44.3245 13.0482 43.6106 13.1711C42.8968 13.2939 42.1829 13.4167 41.469 13.5395C40.8201 13.6623 40.236 13.7544 39.7168 13.8158C39.2625 13.9386 38.9705 14 38.8407 14H32.1239C31.9941 14 31.7021 13.9386 31.2478 13.8158C30.7935 13.693 30.2743 13.5702 29.6903 13.4474C29.1711 13.3246 28.6195 13.1711 28.0354 12.9868C27.5162 12.864 27.1268 12.7719 26.8673 12.7105C26.7375 12.7105 26.6077 12.6798 26.4779 12.6184C26.413 12.557 26.3156 12.4956 26.1858 12.4342C25.0826 12.3114 24.0767 12.2193 23.1681 12.1579C22.3245 12.0965 21.8378 12.0658 21.708 12.0658C21.5133 12.0658 21.0266 12.1272 20.2478 12.25C19.469 12.3728 18.5929 12.5263 17.6195 12.7105C16.7109 12.8947 15.8673 13.0482 15.0885 13.1711C14.3097 13.2939 13.823 13.3553 13.6283 13.3553H6.81416C6.74926 13.3553 6.48968 13.2939 6.0354 13.1711C5.58112 13.1096 5.06195 12.9868 4.47788 12.8026C3.89381 12.6798 3.34218 12.557 2.82301 12.4342C2.30383 12.3114 1.91445 12.1886 1.65487 12.0658C1.26549 11.8816 0.941003 11.5746 0.681416 11.1447C0.486726 10.7149 0.356932 10.2237 0.292035 9.67105C0.162242 9.17982 0.0973451 8.6886 0.0973451 8.19737C0.0324484 7.70614 0 7.33772 0 7.0921Z" fill="#030089"/>
</svg>
