<svg width="500" height="345" viewBox="0 0 500 345" fill="none" xmlns="http://www.w3.org/2000/svg">
<path d="M455.147 278.359C455.147 272.459 455.29 266.616 455.576 260.83C455.863 255.045 456.006 249.259 456.006 243.473C456.006 241.697 455.662 240.38 454.975 239.521C454.345 238.661 453.486 238.06 452.397 237.716C451.366 237.373 450.163 237.201 448.788 237.201C447.471 237.201 446.096 237.143 444.664 237.029C444.435 236.8 444.148 236.485 443.805 236.084C443.518 235.683 443.375 235.368 443.375 235.138C443.375 234.852 443.49 234.537 443.719 234.193C444.005 233.792 444.177 233.592 444.234 233.592C444.521 233.363 445.065 232.876 445.867 232.131C446.669 231.329 447.528 230.47 448.445 229.553C449.361 228.637 450.192 227.777 450.936 226.975C451.738 226.174 452.283 225.601 452.569 225.257C452.741 225.142 452.97 224.913 453.256 224.57C453.543 224.169 453.858 223.768 454.202 223.367C454.545 222.908 454.889 222.507 455.233 222.164C455.576 221.763 455.834 221.476 456.006 221.304C456.178 221.075 456.579 220.502 457.209 219.586C457.896 218.669 458.698 217.61 459.615 216.407C460.532 215.146 461.505 213.857 462.536 212.54C463.625 211.165 464.656 209.934 465.63 208.845C466.604 207.699 467.491 206.754 468.293 206.01C469.095 205.265 469.668 204.893 470.012 204.893H470.27C470.9 205.236 471.358 205.637 471.645 206.096C471.931 206.554 472.131 207.069 472.246 207.642C472.418 208.215 472.532 208.845 472.59 209.533C472.647 210.163 472.762 210.821 472.933 211.509V211.767C472.933 213.313 472.79 214.86 472.504 216.407C472.275 217.953 472.16 219.586 472.16 221.304C472.16 221.476 472.16 221.705 472.16 221.992C472.16 222.221 472.189 222.479 472.246 222.765C472.246 223.052 472.275 223.395 472.332 223.796L473.707 225.257H475.597C478.232 225.257 480.867 225.028 483.502 224.57C485.278 224.111 487.054 223.538 488.83 222.851C490.663 222.106 492.496 221.734 494.329 221.734C496.047 221.734 497.193 222.192 497.766 223.109C498.339 224.025 498.625 225.2 498.625 226.632C498.625 228.064 498.31 229.324 497.68 230.413C497.107 231.501 496.305 232.417 495.274 233.162C494.3 233.85 493.183 234.422 491.923 234.881C490.663 235.282 489.403 235.511 488.142 235.568C488.028 235.625 487.77 235.683 487.369 235.74C486.968 235.74 486.538 235.769 486.08 235.826C485.622 235.826 485.192 235.826 484.791 235.826C484.447 235.826 484.218 235.826 484.104 235.826C483.989 235.94 483.731 236.055 483.33 236.17C482.987 236.284 482.586 236.399 482.128 236.513C481.669 236.628 481.24 236.742 480.839 236.857C480.438 236.914 480.18 236.972 480.065 237.029H472.933L471.645 237.458C471.53 238.948 471.444 240.409 471.387 241.841C471.272 243.044 471.186 244.304 471.129 245.621C471.129 246.882 471.129 247.941 471.129 248.801C471.129 248.915 471.072 249.288 470.957 249.918C470.9 250.548 470.871 251.006 470.871 251.292C470.871 252.725 470.986 254.128 471.215 255.503C471.501 256.878 471.645 258.31 471.645 259.799C471.645 262.377 471.53 265.012 471.301 267.704C471.129 270.339 471.043 273.003 471.043 275.695C471.043 276.326 471.043 276.984 471.043 277.672C471.043 278.359 471.072 279.046 471.129 279.734C470.671 280.249 470.413 280.736 470.356 281.195C470.298 281.653 470.27 282.197 470.27 282.827C470.27 283.973 470.442 285.033 470.785 286.006C471.186 286.923 471.702 287.897 472.332 288.928C473.535 290.933 474.852 292.308 476.285 293.052C477.717 293.74 479.664 294.083 482.128 294.083C483.617 294.083 485.278 293.768 487.111 293.138C489.002 292.451 490.634 291.878 492.009 291.42C492.124 291.42 492.467 291.334 493.04 291.162C493.613 290.933 494.243 290.704 494.93 290.475C495.618 290.188 496.248 289.959 496.821 289.787C497.394 289.558 497.766 289.415 497.938 289.358H498.625C499.084 289.358 499.427 289.529 499.656 289.873C499.885 290.217 500 290.646 500 291.162C500 292.766 499.542 294.141 498.625 295.286C497.766 296.375 496.706 297.32 495.446 298.122C494.186 298.924 492.811 299.611 491.322 300.184C489.889 300.757 488.629 301.301 487.541 301.817C487.369 301.817 487.025 301.931 486.51 302.161C486.051 302.332 485.679 302.476 485.393 302.59C483.731 303.106 482.128 303.679 480.581 304.309C479.091 304.939 477.43 305.254 475.597 305.254C474.451 305.254 473.163 305.139 471.73 304.91C470.356 304.681 468.924 304.395 467.434 304.051C466.002 303.65 464.599 303.192 463.224 302.676C461.906 302.103 460.789 301.473 459.873 300.786C459.644 300.614 459.386 300.413 459.099 300.184C458.813 299.898 458.527 299.611 458.24 299.325C458.011 298.981 457.782 298.695 457.553 298.466C457.381 298.237 457.295 298.065 457.295 297.95L455.233 290.131C455.233 290.074 455.233 289.587 455.233 288.67C455.233 287.754 455.204 286.665 455.147 285.405C455.147 284.145 455.147 282.856 455.147 281.538C455.147 280.221 455.147 279.161 455.147 278.359Z" fill="#030089"/>
<path d="M372.312 263.836V261.688C372.37 261.459 372.456 260.972 372.57 260.227C372.685 259.483 372.799 258.652 372.914 257.735C373.086 256.819 373.2 255.96 373.258 255.158C373.372 254.298 373.43 253.697 373.43 253.353C373.544 253.067 373.687 252.694 373.859 252.236C374.031 251.721 374.203 251.406 374.375 251.291C374.432 251.119 374.604 250.718 374.89 250.088C375.177 249.401 375.492 248.685 375.835 247.94C376.236 247.195 376.58 246.508 376.867 245.878C377.21 245.19 377.468 244.761 377.64 244.589C377.697 244.474 377.783 244.245 377.898 243.901C378.012 243.5 378.127 243.099 378.241 242.698C378.356 242.24 378.471 241.839 378.585 241.495C378.7 241.094 378.786 240.808 378.843 240.636C379.015 240.235 379.158 239.949 379.272 239.777C379.387 239.605 379.502 239.462 379.616 239.347C379.731 239.175 379.874 239.032 380.046 238.918C380.275 238.746 380.561 238.459 380.905 238.058C383.368 235.194 385.86 232.76 388.381 230.755C390.958 228.75 393.622 227.146 396.372 225.943C399.179 224.683 402.186 223.766 405.394 223.193C408.602 222.62 412.096 222.334 415.877 222.334C416.106 222.334 416.421 222.363 416.822 222.42C417.28 222.42 417.71 222.449 418.111 222.506C418.512 222.506 418.856 222.534 419.142 222.592C419.486 222.592 419.686 222.592 419.743 222.592C419.743 222.649 419.887 222.735 420.173 222.85C420.517 222.907 420.889 222.993 421.29 223.107C421.691 223.222 422.035 223.336 422.321 223.451C422.665 223.566 422.894 223.623 423.009 223.623C425.3 224.425 427.334 225.313 429.109 226.287C430.885 227.26 432.546 228.75 434.093 230.755C434.265 230.927 434.494 231.356 434.781 232.044C435.067 232.731 435.296 233.218 435.468 233.504V234.106C435.468 237.085 434.866 239.376 433.663 240.98C432.461 242.527 430.284 243.3 427.133 243.3C425.987 243.3 424.956 242.956 424.04 242.269C423.123 241.524 422.264 240.636 421.462 239.605C420.717 238.574 420.03 237.514 419.4 236.426C418.77 235.28 418.168 234.306 417.595 233.504C417.595 233.39 417.509 233.275 417.338 233.161C417.166 232.989 417.023 232.846 416.908 232.731C416.736 232.559 416.364 232.273 415.791 231.872C415.275 231.471 414.674 231.041 413.986 230.583C413.356 230.067 412.755 229.58 412.182 229.122C411.609 228.664 411.18 228.32 410.893 228.091C410.779 228.091 410.349 228.062 409.604 228.005C408.917 227.891 408.373 227.833 407.972 227.833C407.8 227.833 407.571 227.862 407.284 227.919C406.998 227.919 406.683 227.948 406.339 228.005C406.053 228.005 405.795 228.034 405.566 228.091C405.337 228.091 405.193 228.091 405.136 228.091C403.876 228.377 402.702 229.036 401.613 230.067C400.582 231.098 399.58 231.986 398.606 232.731C398.148 233.075 397.747 233.361 397.403 233.59C397.059 233.819 396.744 234.049 396.458 234.278C396.171 234.45 395.885 234.679 395.598 234.965C395.312 235.251 395.026 235.652 394.739 236.168C394.052 237.142 393.336 238.402 392.591 239.949C391.846 241.438 391.188 243.013 390.615 244.675C390.042 246.336 389.555 247.997 389.154 249.658C388.81 251.262 388.638 252.666 388.638 253.869V254.728C388.696 255.473 388.81 256.704 388.982 258.423C389.211 260.084 389.44 261.831 389.669 263.664C389.899 265.44 390.099 267.101 390.271 268.648C390.5 270.137 390.643 271.083 390.701 271.483C390.987 274.119 391.674 276.84 392.763 279.646C393.851 282.396 395.14 284.745 396.629 286.692C397.431 287.723 398.319 288.726 399.293 289.7C400.324 290.674 401.413 291.533 402.558 292.278C403.761 292.965 404.964 293.538 406.167 293.996C407.427 294.454 408.716 294.683 410.034 294.683C411.523 294.683 413.156 294.454 414.932 293.996C416.707 293.538 418.311 293.079 419.743 292.621C419.973 292.564 420.374 292.449 420.946 292.278C421.519 292.106 422.063 291.934 422.579 291.762C423.152 291.533 423.667 291.332 424.126 291.16C424.584 290.989 424.842 290.874 424.899 290.817C425.586 290.416 426.245 289.929 426.875 289.356C427.505 288.726 428.107 288.124 428.68 287.552C429.31 286.979 429.969 286.492 430.656 286.091C431.401 285.69 432.203 285.489 433.062 285.489C433.52 285.489 433.807 285.633 433.921 285.919C434.036 286.148 434.093 286.406 434.093 286.692C434.093 287.953 433.692 289.156 432.89 290.301C432.145 291.447 431.515 292.421 431 293.223C427.62 297.805 423.811 301.071 419.572 303.018C415.39 304.909 410.492 305.854 404.878 305.854H400.668C400.553 305.854 400.296 305.797 399.895 305.682C399.494 305.625 399.035 305.51 398.52 305.338C398.062 305.224 397.575 305.08 397.059 304.909C396.601 304.794 396.228 304.679 395.942 304.565C395.77 304.45 395.512 304.336 395.169 304.221C394.882 304.107 394.739 304.021 394.739 303.963C394.625 303.792 394.252 303.505 393.622 303.104C393.049 302.646 392.734 302.417 392.677 302.417C391.76 302.13 390.557 301.844 389.068 301.558C387.579 301.271 386.347 300.67 385.373 299.753C382.795 297.634 380.647 295.199 378.929 292.449C377.268 289.642 375.921 286.664 374.89 283.513C373.916 280.362 373.229 277.126 372.828 273.803C372.484 270.424 372.312 267.101 372.312 263.836Z" fill="#030089"/>
<path d="M312.076 248.024C312.076 248.368 312.22 248.712 312.506 249.056C312.85 249.399 313.222 249.743 313.623 250.087C314.081 250.373 314.511 250.631 314.912 250.86C315.37 251.032 315.743 251.175 316.029 251.29H324.965H333.73C334.188 251.232 334.961 251.146 336.05 251.032C337.195 250.917 338.37 250.803 339.573 250.688C340.833 250.516 342.007 250.344 343.096 250.173C344.241 250.001 345.043 249.829 345.501 249.657C345.616 249.542 345.759 249.285 345.931 248.884C346.16 248.425 346.275 248.139 346.275 248.024V247.251V246.564C346.275 246.392 346.246 246.077 346.189 245.619C346.132 245.103 346.046 244.587 345.931 244.072C345.874 243.499 345.788 242.955 345.673 242.439C345.616 241.924 345.559 241.551 345.501 241.322C344.929 240.921 344.442 240.434 344.041 239.862C343.64 239.289 343.21 238.744 342.752 238.229C342.351 237.656 341.893 237.141 341.377 236.682C340.919 236.224 340.346 235.852 339.659 235.565C339.258 235.393 338.713 235.164 338.026 234.878C337.396 234.534 336.766 234.219 336.136 233.933C335.505 233.646 334.961 233.388 334.503 233.159C334.045 232.93 333.787 232.787 333.73 232.73H333.128H332.441C332.04 232.787 331.524 232.873 330.894 232.987C330.264 233.102 329.634 233.217 329.004 233.331C328.374 233.388 327.829 233.446 327.371 233.503C326.913 233.56 326.655 233.589 326.598 233.589C326.426 233.589 326.14 233.704 325.739 233.933C325.395 234.105 324.994 234.305 324.536 234.534C324.135 234.763 323.734 234.992 323.333 235.222C322.989 235.393 322.76 235.508 322.645 235.565C321.671 235.909 320.726 236.167 319.81 236.339C318.95 236.51 318.206 237.083 317.576 238.057C317.461 238.229 317.203 238.659 316.802 239.346C316.401 240.033 316.143 240.463 316.029 240.635C315.685 241.265 315.284 241.866 314.826 242.439C314.368 242.955 313.938 243.499 313.537 244.072C313.136 244.587 312.792 245.189 312.506 245.876C312.22 246.506 312.076 247.222 312.076 248.024ZM299.102 268.99V267.358C299.159 267.071 299.216 266.527 299.273 265.725C299.388 264.923 299.445 264.093 299.445 263.233C299.503 262.317 299.56 261.458 299.617 260.656C299.674 259.854 299.76 259.309 299.875 259.023C299.932 257.992 300.075 256.846 300.305 255.586C300.591 254.268 300.906 252.951 301.25 251.633C301.651 250.316 302.109 249.056 302.625 247.853C303.14 246.592 303.713 245.504 304.343 244.587C304.4 244.53 304.515 244.416 304.687 244.244C304.916 244.015 305.145 243.814 305.374 243.642C305.603 243.413 305.804 243.213 305.976 243.041C306.205 242.869 306.348 242.754 306.405 242.697C306.463 242.64 306.52 242.468 306.577 242.182C306.692 241.895 306.806 241.609 306.921 241.322C307.035 241.036 307.121 240.778 307.179 240.549C307.293 240.263 307.379 240.091 307.436 240.033C308.41 238.372 309.613 236.997 311.045 235.909C312.477 234.821 313.938 233.761 315.427 232.73C316.459 232.1 317.404 231.527 318.263 231.011C319.18 230.438 320.067 229.951 320.927 229.55C321.843 229.092 322.788 228.691 323.762 228.347C324.793 228.004 325.939 227.717 327.199 227.488C327.314 227.488 327.772 227.46 328.574 227.402C329.433 227.345 330.407 227.316 331.496 227.316C332.584 227.259 333.701 227.202 334.847 227.145C335.992 227.087 336.909 227.059 337.596 227.059H338.37H339.143C341.033 227.517 342.809 228.061 344.47 228.691C346.189 229.264 347.764 230.009 349.196 230.925C350.686 231.842 352.032 232.959 353.235 234.276C354.495 235.537 355.641 237.055 356.672 238.83C356.729 238.945 356.815 239.289 356.93 239.862C357.044 240.377 357.159 240.635 357.273 240.635C357.617 241.494 358.018 242.267 358.476 242.955C358.992 243.642 359.45 244.33 359.851 245.017C360.309 245.647 360.682 246.335 360.968 247.079C361.255 247.767 361.398 248.569 361.398 249.485C361.398 250.574 360.939 251.633 360.023 252.664C359.164 253.638 358.476 254.412 357.961 254.984C357.617 255.099 356.987 255.242 356.07 255.414C355.211 255.586 354.237 255.758 353.149 255.93C352.118 256.101 351.058 256.245 349.97 256.359C348.938 256.474 348.079 256.531 347.392 256.531C347.163 256.531 346.647 256.531 345.845 256.531C345.1 256.474 344.184 256.417 343.096 256.359C342.064 256.302 340.947 256.273 339.744 256.273C338.541 256.216 337.396 256.187 336.307 256.187C335.162 256.187 334.159 256.245 333.3 256.359C332.498 256.474 331.954 256.531 331.667 256.531C331.61 256.531 331.352 256.56 330.894 256.617C330.493 256.674 330.035 256.76 329.519 256.875C329.004 256.932 328.517 256.989 328.059 257.047C327.6 257.104 327.314 257.133 327.199 257.133C326.569 257.19 325.653 257.219 324.45 257.219C323.247 257.219 321.901 257.219 320.411 257.219C318.922 257.219 317.518 257.219 316.201 257.219C314.941 257.219 314.053 257.19 313.537 257.133C313.079 257.19 312.764 257.362 312.592 257.648C312.42 257.877 312.277 258.135 312.162 258.421C312.162 258.421 312.134 258.565 312.076 258.851C312.076 259.08 312.076 259.367 312.076 259.71C312.076 260.054 312.076 260.426 312.076 260.827C312.076 261.171 312.076 261.458 312.076 261.687C312.076 261.973 312.076 262.403 312.076 262.976C312.076 263.548 312.076 264.121 312.076 264.694C312.076 265.21 312.076 265.697 312.076 266.155C312.134 266.613 312.162 266.871 312.162 266.928C312.22 268.131 312.678 269.764 313.537 271.826C314.396 273.831 315.399 275.864 316.544 277.927C317.747 279.989 319.008 281.908 320.325 283.684C321.7 285.402 322.96 286.548 324.106 287.121C324.335 287.293 324.879 287.608 325.739 288.066C326.598 288.524 327.514 289.011 328.488 289.527C329.462 289.985 330.379 290.443 331.238 290.901C332.154 291.302 332.784 291.589 333.128 291.761C333.415 291.761 333.615 291.732 333.73 291.675C333.901 291.617 334.102 291.589 334.331 291.589C335.477 291.589 336.537 291.732 337.51 292.018C338.541 292.305 339.63 292.448 340.776 292.448H342.064C342.351 292.448 342.666 292.419 343.01 292.362L351.602 287.894C351.831 287.207 352.118 286.519 352.461 285.832C352.805 285.087 353.206 284.428 353.664 283.855C354.18 283.283 354.753 282.824 355.383 282.481C356.07 282.137 356.901 281.965 357.875 281.965H357.961C358.075 282.08 358.218 282.28 358.39 282.567C358.619 282.853 358.734 283.025 358.734 283.082C358.734 283.197 358.619 283.512 358.39 284.027C358.218 284.543 358.075 284.944 357.961 285.23C357.331 286.892 356.672 288.467 355.984 289.956C355.297 291.446 354.438 292.935 353.407 294.424C353.292 294.539 353.092 294.739 352.805 295.026C352.519 295.312 352.204 295.627 351.86 295.971C351.516 296.315 351.173 296.658 350.829 297.002C350.542 297.289 350.313 297.518 350.141 297.69C350.027 297.747 349.798 297.861 349.454 298.033C349.168 298.205 348.824 298.406 348.423 298.635C348.079 298.807 347.764 299.007 347.478 299.236C347.191 299.408 347.019 299.523 346.962 299.58C345.645 300.382 344.47 301.098 343.439 301.728C342.465 302.358 341.463 302.902 340.432 303.361C339.458 303.819 338.398 304.191 337.253 304.478C336.164 304.707 334.904 304.821 333.472 304.821C329.691 304.821 326.082 304.392 322.645 303.532C319.208 302.616 316.086 301.27 313.279 299.494C310.472 297.661 308.066 295.37 306.062 292.62C304.114 289.813 302.739 286.491 301.937 282.653C301.708 282.022 301.45 281.077 301.164 279.817C300.877 278.557 300.591 277.268 300.305 275.95C300.018 274.633 299.76 273.43 299.531 272.341C299.302 271.196 299.159 270.48 299.102 270.193V268.99Z" fill="#030089"/>
<path d="M227.875 337.217C227.875 336.243 227.961 335.27 228.133 334.296C228.247 333.322 228.62 332.463 229.25 331.718C229.422 331.546 229.765 331.317 230.281 331.031C230.739 330.801 231.255 330.544 231.828 330.257C232.343 329.971 232.859 329.713 233.374 329.484C233.833 329.255 234.148 329.112 234.319 329.054H236.639C237.384 329.054 238.043 329.112 238.616 329.226C239.189 329.398 239.733 329.598 240.248 329.828C240.764 330.057 241.308 330.257 241.881 330.429C242.396 330.658 242.998 330.801 243.685 330.859H246.779C247.008 330.859 247.495 330.973 248.239 331.202C248.927 331.432 249.271 331.603 249.271 331.718H251.075H251.934C252.221 331.603 252.593 331.346 253.051 330.945C253.567 330.601 253.91 330.372 254.082 330.257C255.228 329.169 256.402 328.052 257.605 326.906C258.808 325.818 259.897 324.643 260.87 323.383C261.844 322.123 262.646 320.777 263.276 319.345C263.964 317.913 264.365 316.337 264.479 314.619V311.783V304.823C264.479 304.651 264.508 304.336 264.565 303.878C264.623 303.363 264.68 302.818 264.737 302.245C264.852 301.615 264.938 301.071 264.995 300.613C265.109 300.097 265.167 299.754 265.167 299.582V298.465C265.167 296.861 265.052 295.314 264.823 293.825C264.594 292.335 264.479 290.76 264.479 289.099C264.479 287.438 264.594 285.891 264.823 284.459C265.052 282.969 265.167 281.423 265.167 279.819C265.167 278.788 265.138 277.928 265.081 277.241C265.024 276.554 264.823 275.694 264.479 274.663C264.479 273.919 264.479 272.572 264.479 270.625C264.537 268.62 264.565 266.5 264.565 264.266C264.565 262.09 264.537 259.999 264.479 257.994C264.479 255.989 264.479 254.614 264.479 253.869C264.479 253.411 264.451 252.609 264.393 251.463C264.393 250.318 264.365 249.115 264.308 247.854C264.25 246.594 264.193 245.42 264.136 244.332C264.078 243.186 264.05 242.441 264.05 242.097C263.477 240.665 262.646 239.777 261.558 239.434C260.527 239.033 259.381 238.775 258.121 238.66C256.918 238.546 255.715 238.403 254.512 238.231C253.309 238.002 252.307 237.314 251.505 236.169V235.739C251.505 235.453 251.619 235.023 251.848 234.45C252.077 233.877 252.421 233.562 252.879 233.505C253.223 233.39 253.538 233.276 253.825 233.161C254.111 233.047 254.397 232.961 254.684 232.903C254.97 232.846 255.199 232.789 255.371 232.732C255.429 232.732 255.629 232.703 255.973 232.646C256.316 232.588 256.66 232.531 257.004 232.474C257.405 232.359 257.749 232.273 258.035 232.216C258.379 232.159 258.579 232.13 258.636 232.13C258.751 232.073 259.009 231.987 259.41 231.872C259.868 231.7 260.355 231.529 260.87 231.357C261.386 231.185 261.844 231.042 262.245 230.927C262.704 230.813 262.99 230.755 263.105 230.755H265.167C265.224 230.755 265.453 230.669 265.854 230.497C266.255 230.326 266.685 230.125 267.143 229.896C267.601 229.667 268.002 229.466 268.346 229.295C268.747 229.065 268.976 228.922 269.033 228.865C269.205 228.865 269.463 228.836 269.807 228.779C270.208 228.664 270.609 228.578 271.01 228.521C271.468 228.407 271.869 228.321 272.213 228.263C272.614 228.149 272.9 228.092 273.072 228.092C273.129 228.092 273.358 228.006 273.759 227.834C274.16 227.662 274.59 227.49 275.048 227.318C275.506 227.089 275.907 226.889 276.251 226.717C276.652 226.488 276.881 226.373 276.939 226.373H277.282C278.142 226.373 278.886 226.602 279.516 227.06C280.146 227.461 280.576 228.063 280.805 228.865C280.92 229.094 280.977 229.638 280.977 230.497C280.977 231.357 280.977 231.901 280.977 232.13V233.935C280.977 234.679 280.948 235.367 280.891 235.997C280.834 236.627 280.662 237.314 280.376 238.059V251.12V264.352C280.376 264.524 280.404 265.04 280.462 265.899C280.519 266.758 280.547 267.703 280.547 268.734C280.605 269.766 280.662 270.739 280.719 271.656C280.777 272.515 280.805 273.059 280.805 273.288V273.632V273.89C280.805 274.291 280.777 275.036 280.719 276.124C280.719 277.212 280.691 278.501 280.633 279.991C280.633 281.48 280.605 283.084 280.547 284.803C280.547 286.464 280.519 288.039 280.462 289.528C280.462 291.018 280.433 292.335 280.376 293.481C280.376 294.569 280.376 295.285 280.376 295.629V296.832C280.376 297.978 280.462 299.124 280.633 300.269C280.863 301.358 280.977 302.589 280.977 303.964C280.977 306.141 280.633 308.06 279.946 309.721C279.259 311.382 278.399 312.929 277.368 314.361C276.337 315.793 275.22 317.197 274.017 318.571C272.814 320.003 271.668 321.521 270.58 323.125C270.007 323.698 269.033 324.672 267.659 326.047C266.341 327.422 264.909 328.854 263.362 330.343C261.816 331.89 260.355 333.322 258.98 334.639C257.663 335.957 256.717 336.874 256.145 337.389C255.858 337.733 255.314 338.191 254.512 338.764C253.767 339.337 252.965 339.91 252.106 340.482C251.247 341.113 250.445 341.685 249.7 342.201C248.955 342.774 248.469 343.146 248.239 343.318C246.292 343.948 244.401 344.349 242.568 344.521C240.678 344.693 238.759 344.779 236.811 344.779H231.57C230.424 343.633 229.536 342.487 228.906 341.342C228.219 340.253 227.875 338.878 227.875 337.217Z" fill="#030089"/>
<path d="M180.435 271.054C180.435 274.319 181.094 277.47 182.412 280.506C183.787 283.485 185.562 286.148 187.739 288.497C188.427 289.184 189.114 289.958 189.801 290.817C190.489 291.676 191.205 292.507 191.949 293.309C192.751 294.111 193.582 294.855 194.441 295.543C195.358 296.23 196.332 296.746 197.363 297.089L202.776 298.292H203.464H204.237C204.752 298.235 205.468 298.178 206.385 298.121C207.302 298.063 208.218 298.006 209.135 297.949C210.051 297.891 210.853 297.834 211.541 297.777C212.228 297.72 212.629 297.691 212.744 297.691C213.603 297.519 214.548 297.089 215.579 296.402C216.667 295.715 217.756 294.941 218.844 294.082C219.933 293.166 220.964 292.249 221.938 291.332C222.969 290.359 223.857 289.557 224.601 288.927C224.659 288.927 224.744 288.869 224.859 288.755C224.916 288.697 224.974 288.611 225.031 288.497C226.463 285.518 227.609 282.396 228.468 279.131C229.384 275.809 229.843 272.572 229.843 269.421C229.843 266.844 229.614 264.438 229.155 262.204C228.754 259.97 228.067 257.736 227.093 255.501C227.093 255.33 226.979 254.986 226.749 254.47C226.578 253.955 226.492 253.64 226.492 253.525C226.148 252.036 225.776 250.432 225.375 248.713C225.031 246.938 224.286 245.477 223.141 244.331C223.026 244.159 222.711 243.816 222.195 243.3C221.68 242.784 221.107 242.24 220.477 241.667C219.904 241.095 219.36 240.55 218.844 240.035C218.386 239.519 218.128 239.176 218.071 239.004C217.956 238.946 217.784 238.803 217.555 238.574C217.383 238.288 217.183 238.001 216.954 237.715C216.725 237.428 216.496 237.171 216.266 236.941C216.095 236.655 216.009 236.483 216.009 236.426C215.837 236.311 215.579 236.082 215.235 235.739C214.949 235.338 214.748 235.08 214.634 234.965C214.519 234.965 214.319 234.908 214.032 234.793C213.746 234.621 213.431 234.45 213.087 234.278C212.744 234.106 212.428 233.963 212.142 233.848C211.856 233.676 211.684 233.59 211.626 233.59C211.455 233.476 210.996 233.333 210.252 233.161C209.507 232.989 208.705 232.817 207.846 232.645C207.044 232.473 206.27 232.33 205.526 232.216C204.838 232.044 204.409 231.929 204.237 231.872C203.95 231.872 203.492 231.929 202.862 232.044C202.232 232.101 201.573 232.216 200.886 232.387C200.198 232.502 199.54 232.617 198.909 232.731C198.279 232.846 197.764 232.932 197.363 232.989C196.561 233.791 195.73 234.536 194.871 235.223C194.069 235.853 193.267 236.512 192.465 237.199C191.663 237.829 190.89 238.517 190.145 239.261C189.458 239.949 188.856 240.751 188.341 241.667C188.226 241.839 187.997 242.212 187.653 242.784C187.367 243.357 187.023 243.987 186.622 244.675C186.278 245.362 185.935 245.992 185.591 246.565C185.305 247.138 185.133 247.482 185.075 247.596C184.732 248.284 184.331 249.028 183.872 249.83C183.471 250.575 183.07 251.377 182.669 252.236C182.269 253.096 181.925 253.983 181.638 254.9C181.409 255.759 181.266 256.59 181.209 257.392C181.094 258.022 180.98 259.024 180.865 260.399C180.808 261.774 180.75 263.206 180.693 264.695C180.636 266.128 180.579 267.474 180.521 268.734C180.464 269.937 180.435 270.71 180.435 271.054ZM165.312 265.898C165.312 264.695 165.513 263.493 165.914 262.29C166.372 261.087 166.745 259.912 167.031 258.767C167.088 258.537 167.203 257.907 167.375 256.876C167.604 255.788 167.833 254.642 168.062 253.439C168.349 252.236 168.606 251.119 168.835 250.088C169.065 249.057 169.208 248.427 169.265 248.198C169.38 247.854 169.523 247.51 169.695 247.167C169.809 246.88 169.924 246.594 170.038 246.307C170.21 245.964 170.353 245.706 170.468 245.534C170.869 244.961 171.356 244.159 171.929 243.128C172.502 242.097 173.046 241.095 173.561 240.121C174.134 239.147 174.621 238.316 175.022 237.629C175.48 236.884 175.767 236.483 175.881 236.426C175.939 236.254 176.168 235.968 176.569 235.567C176.97 235.108 177.399 234.621 177.858 234.106C178.373 233.59 178.86 233.132 179.318 232.731C179.777 232.273 180.149 231.986 180.435 231.872C180.55 231.7 180.865 231.557 181.381 231.442C181.953 231.328 182.297 231.27 182.412 231.27C184.13 230.411 185.763 229.609 187.309 228.864C188.856 228.12 190.403 227.404 191.949 226.716C193.553 226.029 195.186 225.399 196.847 224.826C198.508 224.253 200.342 223.709 202.346 223.193H202.432H202.776C203.75 223.251 205.01 223.337 206.557 223.451C208.104 223.508 209.593 223.594 211.025 223.709C212.514 223.766 213.775 223.823 214.806 223.881C215.894 223.938 216.496 223.967 216.61 223.967C219.188 224.196 221.737 224.998 224.258 226.373C226.835 227.69 229.213 229.351 231.389 231.356C233.623 233.361 235.542 235.595 237.146 238.059C238.808 240.464 240.039 242.813 240.841 245.104C240.898 245.162 240.956 245.419 241.013 245.878C241.128 246.279 241.214 246.737 241.271 247.253C241.385 247.768 241.471 248.255 241.529 248.713C241.643 249.114 241.758 249.372 241.872 249.487C241.872 249.601 241.958 249.945 242.13 250.518C242.359 251.033 242.588 251.606 242.818 252.236C243.104 252.866 243.333 253.439 243.505 253.955C243.734 254.47 243.877 254.785 243.935 254.9C243.935 255.015 243.963 255.158 244.02 255.33C244.02 255.444 244.02 255.559 244.02 255.673C244.078 255.788 244.106 255.874 244.106 255.931C244.106 256.905 244.049 257.85 243.935 258.767C243.82 259.626 243.763 260.514 243.763 261.43C243.763 262.175 243.82 262.834 243.935 263.407C244.106 263.979 244.192 264.61 244.192 265.297V266.758C243.448 270.195 242.732 273.517 242.044 276.725C241.357 279.876 240.383 282.854 239.123 285.661C237.862 288.411 236.201 290.96 234.139 293.309C232.077 295.657 229.299 297.72 225.804 299.495C222.424 301.214 218.93 302.56 215.321 303.534C211.77 304.508 208.132 304.995 204.409 304.995C204.065 304.995 203.607 304.966 203.034 304.909C202.518 304.909 202.003 304.909 201.487 304.909C200.972 304.909 200.513 304.88 200.112 304.823C199.711 304.823 199.511 304.823 199.511 304.823C199.454 304.823 199.024 304.737 198.222 304.565C197.477 304.336 196.561 304.078 195.472 303.792C194.441 303.505 193.382 303.219 192.293 302.932C191.205 302.589 190.317 302.331 189.629 302.159C188.999 301.987 188.341 301.815 187.653 301.644C186.966 301.472 186.307 301.185 185.677 300.784C184.073 299.925 182.498 299.008 180.951 298.035C179.404 297.061 177.886 296.058 176.397 295.027C176.34 294.913 176.254 294.798 176.139 294.684C176.025 294.512 175.939 294.369 175.881 294.254C174.621 292.707 173.361 290.788 172.101 288.497C170.84 286.148 169.695 283.685 168.664 281.107C167.69 278.472 166.888 275.837 166.258 273.202C165.628 270.51 165.312 268.075 165.312 265.898Z" fill="#030089"/>
<path d="M97.2656 302.157C97.2656 301.241 97.4375 300.525 97.7812 300.009C98.1822 299.493 98.6691 299.121 99.2419 298.892C99.872 298.605 100.559 298.434 101.304 298.376C102.106 298.262 102.879 298.176 103.624 298.119C103.739 298.004 104.025 297.947 104.483 297.947C104.942 297.947 105.429 297.975 105.944 298.033C106.517 298.09 106.889 298.119 107.061 298.119C107.634 297.775 108.207 297.345 108.78 296.83C109.41 296.257 109.954 295.655 110.412 295.025C110.928 294.338 111.329 293.622 111.615 292.877C111.959 292.075 112.131 291.302 112.131 290.557L112.389 274.317L112.56 271.052L113.248 254.726C113.42 253.695 113.506 252.778 113.506 251.976C113.563 251.117 113.592 250.287 113.592 249.485C113.592 248.511 113.477 247.451 113.248 246.305C113.076 245.102 112.704 244.043 112.131 243.126C111.329 241.809 110.355 240.577 109.209 239.431C108.121 238.228 106.861 237.226 105.429 236.424C105.314 236.367 105.085 236.309 104.741 236.252C104.397 236.137 104.025 236.023 103.624 235.908C103.28 235.794 102.937 235.651 102.593 235.479C102.307 235.25 102.163 235.02 102.163 234.791C102.163 234.218 102.65 233.588 103.624 232.901C104.598 232.214 105.715 231.555 106.975 230.925C108.235 230.237 109.467 229.664 110.67 229.206C111.93 228.691 112.79 228.29 113.248 228.003C114.05 227.659 114.794 227.23 115.482 226.714C116.227 226.141 116.943 225.597 117.63 225.082C118.375 224.566 119.119 224.137 119.864 223.793C120.609 223.392 121.439 223.191 122.356 223.191C123.043 223.191 123.588 223.592 123.989 224.394C124.39 225.196 124.705 226.199 124.934 227.402C125.163 228.547 125.363 229.836 125.535 231.268C125.707 232.643 125.908 233.932 126.137 235.135C126.366 236.281 126.652 237.255 126.996 238.056C127.34 238.858 127.827 239.259 128.457 239.259C128.858 239.259 129.115 239.231 129.23 239.174C129.345 239.116 129.574 238.887 129.917 238.486C129.975 238.372 130.232 237.999 130.691 237.369C131.149 236.682 131.665 235.966 132.237 235.221C132.868 234.419 133.44 233.703 133.956 233.073C134.471 232.443 134.815 232.07 134.987 231.956C135.56 231.268 136.562 230.409 137.994 229.378C139.427 228.347 140.973 227.344 142.634 226.371C144.353 225.397 146.014 224.566 147.618 223.879C149.222 223.134 150.454 222.762 151.313 222.762C152.516 222.762 153.662 222.991 154.75 223.449C155.896 223.907 156.898 224.566 157.757 225.425C158.617 226.227 159.304 227.173 159.82 228.261C160.335 229.349 160.593 230.495 160.593 231.698C160.593 233.989 160.077 235.994 159.046 237.713C158.072 239.431 156.383 240.777 153.977 241.751H152.945C151.914 241.751 150.969 241.522 150.11 241.064C149.251 240.548 148.391 240.004 147.532 239.431C146.73 238.801 145.9 238.257 145.04 237.799C144.181 237.283 143.265 237.025 142.291 237.025C140.973 237.025 139.799 237.255 138.768 237.713C137.794 238.114 136.791 238.543 135.76 239.002C135.531 239.174 135.159 239.403 134.643 239.689C134.185 239.918 133.698 240.205 133.183 240.548C132.724 240.835 132.266 241.093 131.808 241.322C131.407 241.551 131.12 241.694 130.949 241.751C130.376 242.152 129.86 242.725 129.402 243.47C128.944 244.215 128.543 245.045 128.199 245.962C127.912 246.821 127.655 247.709 127.426 248.625C127.254 249.542 127.139 250.344 127.082 251.031C127.082 251.089 127.053 251.375 126.996 251.891C126.939 252.349 126.853 252.893 126.738 253.523C126.681 254.153 126.624 254.783 126.566 255.413C126.509 255.986 126.48 256.445 126.48 256.788V256.96V257.39C126.48 257.791 126.48 258.593 126.48 259.796C126.538 260.941 126.595 262.316 126.652 263.92C126.71 265.467 126.738 267.128 126.738 268.904C126.795 270.622 126.853 272.284 126.91 273.888C126.967 275.434 126.996 276.809 126.996 278.012C127.053 279.158 127.082 279.931 127.082 280.332V289.354C127.139 289.641 127.254 290.185 127.426 290.987C127.597 291.789 127.798 292.648 128.027 293.565C128.313 294.424 128.6 295.254 128.886 296.056C129.23 296.801 129.574 297.259 129.917 297.431C130.433 297.66 131.149 297.861 132.066 298.033C133.039 298.205 133.985 298.434 134.901 298.72C135.875 298.949 136.706 299.293 137.393 299.751C138.08 300.209 138.424 300.811 138.424 301.556C138.424 302.186 138.224 302.73 137.823 303.188C137.422 303.589 136.935 303.933 136.362 304.219C135.789 304.506 135.159 304.706 134.471 304.821C133.841 304.993 133.269 305.079 132.753 305.079C131.435 305.079 130.089 304.964 128.714 304.735C127.397 304.506 126.079 304.391 124.762 304.391C123.272 304.391 121.726 304.506 120.122 304.735C118.575 304.964 117.086 305.079 115.654 305.079H115.396C115.281 305.079 115.052 305.05 114.709 304.993C114.422 304.993 114.078 304.964 113.677 304.907C113.334 304.907 112.99 304.878 112.646 304.821C112.36 304.821 112.188 304.821 112.131 304.821C111.959 304.821 111.529 304.849 110.842 304.907C110.154 305.021 109.668 305.079 109.381 305.079H106.116H103.452C102.765 305.079 102.049 305.05 101.304 304.993C100.559 304.935 99.872 304.821 99.2419 304.649C98.6691 304.42 98.1822 304.133 97.7812 303.79C97.4375 303.389 97.2656 302.844 97.2656 302.157Z" fill="#030089"/>
<path d="M39.8695 237.199C40.4997 238.116 41.4162 238.689 42.6192 238.918C43.8794 239.147 44.9392 239.262 45.7984 239.262H46.3999C46.5145 239.204 46.7722 239.118 47.1732 239.004C47.5742 238.832 48.0038 238.689 48.4621 238.574C48.9204 238.46 49.3214 238.345 49.6651 238.231C50.0661 238.116 50.3238 238.059 50.4384 238.059C51.6414 237.715 53.0735 237.457 54.7347 237.285C56.3959 237.056 57.7994 236.627 58.945 235.996C59.0596 235.882 59.3747 235.653 59.8902 235.309C60.4058 234.965 60.9786 234.593 61.6087 234.192C62.2962 233.734 62.9263 233.304 63.4991 232.903C64.1292 232.445 64.5875 232.13 64.8739 231.958C64.9885 231.901 65.2176 231.7 65.5613 231.356C65.905 230.955 66.1055 230.726 66.1628 230.669C66.6784 229.867 67.1939 228.979 67.7095 228.005C68.2823 227.032 68.8551 226.172 69.428 225.428C69.5426 225.198 69.7144 224.969 69.9435 224.74C70.23 224.396 70.5164 224.139 70.8028 223.967C70.8601 223.967 70.9174 223.824 70.9747 223.537C71.0892 223.251 71.1751 222.907 71.2324 222.506C71.2897 222.105 71.3184 221.733 71.3184 221.389C71.3756 221.045 71.4043 220.816 71.4043 220.702C71.9198 218.468 72.3495 216.262 72.6932 214.085C73.0942 211.851 73.2946 209.531 73.2946 207.125V202.399C72.8364 202.056 72.4354 201.655 72.0917 201.197C71.8053 200.681 71.5189 200.165 71.2324 199.65C71.0033 199.134 70.7455 198.619 70.4591 198.103C70.1727 197.53 69.829 196.986 69.428 196.471C69.1989 196.241 68.7979 195.812 68.225 195.182C67.7095 194.552 67.1366 193.893 66.5065 193.205C65.8764 192.518 65.2463 191.888 64.6161 191.315C64.0433 190.685 63.6137 190.227 63.3273 189.94C62.5253 189.768 61.4942 189.597 60.2339 189.425C59.031 189.253 57.9426 189.024 56.9688 188.737C55.7658 188.336 54.6488 187.907 53.6177 187.448C52.5865 186.99 51.4122 186.761 50.0947 186.761C49.1209 186.761 48.0038 186.818 46.7436 186.933C45.4834 187.047 44.5382 187.391 43.908 187.964C42.5905 188.995 41.6167 190.026 40.9866 191.057C40.3565 192.031 39.8982 193.062 39.6118 194.151C39.3826 195.182 39.2394 196.327 39.1821 197.588C39.1821 198.848 39.1535 200.251 39.0962 201.798C39.0962 202.027 39.0676 202.571 39.0103 203.431C38.953 204.233 38.8957 205.12 38.8384 206.094C38.7811 207.011 38.7239 207.899 38.6666 208.758C38.6093 209.617 38.5807 210.161 38.5807 210.391C38.5807 211.078 38.552 212.08 38.4947 213.398C38.4947 214.716 38.4947 216.119 38.4947 217.608C38.4947 219.098 38.4661 220.558 38.4088 221.991C38.4088 223.423 38.4088 224.568 38.4088 225.428C38.4088 227.375 38.4947 229.266 38.6666 231.099C38.8384 232.932 39.2394 234.965 39.8695 237.199ZM26.637 304.823C23.2572 304.823 19.9061 304.909 16.5837 305.081C13.2612 305.31 9.96738 305.424 6.70221 305.424C4.75456 305.424 3.78073 304.537 3.78073 302.761C3.78073 302.131 3.83802 301.529 3.95258 300.956C4.12443 300.326 4.55406 299.839 5.24147 299.496C7.2464 299.324 9.42319 299.095 11.7718 298.808C14.1205 298.464 16.2972 297.806 18.3022 296.832C18.7032 296.603 19.0469 296.173 19.3333 295.543C19.677 294.856 19.9348 294.111 20.1066 293.309C20.3358 292.507 20.5076 291.734 20.6222 290.989C20.7367 290.187 20.8227 289.557 20.88 289.099V286.263V285.06C20.88 284.831 20.9086 284.487 20.9659 284.029C21.0232 283.513 21.0804 282.969 21.1377 282.396C21.2523 281.824 21.3382 281.308 21.3955 280.85C21.4528 280.334 21.4814 279.99 21.4814 279.819C21.4814 278.959 21.4814 277.642 21.4814 275.866C21.4814 274.033 21.4814 271.999 21.4814 269.765C21.5387 267.531 21.5674 265.183 21.5674 262.719C21.6246 260.199 21.6533 257.822 21.6533 255.588C21.7106 253.296 21.7392 251.263 21.7392 249.487C21.7392 247.711 21.7392 246.393 21.7392 245.534C21.7392 243.988 21.7392 242.097 21.7392 239.863C21.7392 237.629 21.7106 235.28 21.6533 232.817C21.6533 230.297 21.6246 227.805 21.5674 225.342C21.5674 222.821 21.5387 220.558 21.4814 218.554C21.4814 216.491 21.4814 214.773 21.4814 213.398C21.4814 212.023 21.4814 211.221 21.4814 210.992C21.4814 210.247 21.4528 208.987 21.3955 207.211C21.3955 205.378 21.3669 203.459 21.3096 201.454C21.3096 199.449 21.2523 197.588 21.1377 195.869C21.0804 194.093 20.9945 192.862 20.88 192.174C20.5935 191.601 20.0207 191.143 19.1614 190.8C18.3022 190.456 17.357 190.198 16.3259 190.026C15.2948 189.797 14.2637 189.654 13.2326 189.597C12.2587 189.482 11.514 189.396 10.9985 189.339C10.6548 189.339 10.0533 189.31 9.19405 189.253C8.3348 189.196 7.41825 189.138 6.44443 189.081C5.4706 189.024 4.55406 188.966 3.69481 188.909C2.83555 188.852 2.26271 188.795 1.97629 188.737C1.74716 188.623 1.37481 188.308 0.859257 187.792C0.400987 187.219 0.114568 186.876 0 186.761V185.902C0 184.985 0.200493 184.384 0.60148 184.097C1.00247 183.754 1.66123 183.524 2.57777 183.41C3.32246 183.353 4.61135 183.267 6.44443 183.152C8.3348 183.038 10.3111 182.923 12.3733 182.808C14.4928 182.637 16.4977 182.493 18.3881 182.379C20.2785 182.264 21.596 182.207 22.3407 182.207C22.5698 182.207 22.9135 182.207 23.3718 182.207C23.8301 182.15 24.317 182.121 24.8325 182.121C25.3481 182.121 25.8636 182.121 26.3792 182.121C26.8948 182.064 27.3244 182.035 27.6681 182.035C28.3555 181.921 28.9283 181.835 29.3866 181.777C29.8449 181.663 30.2745 181.605 30.6755 181.605C31.5347 181.605 33.2246 181.605 35.7451 181.605C38.2656 181.605 41.2157 181.634 44.5955 181.691C48.0325 181.749 51.67 181.806 55.508 181.863C59.346 181.921 63.0122 182.035 66.5065 182.207C66.6784 182.207 66.9648 182.264 67.3658 182.379C67.7668 182.493 68.1964 182.637 68.6547 182.808C69.1129 182.923 69.5426 183.038 69.9435 183.152C70.3445 183.267 70.631 183.353 70.8028 183.41C70.8601 183.41 71.0319 183.467 71.3184 183.582C71.6621 183.639 72.0058 183.696 72.3495 183.754C72.6932 183.811 73.0082 183.897 73.2946 184.011C73.6384 184.069 73.8388 184.097 73.8961 184.097C74.068 184.155 74.383 184.384 74.8413 184.785C75.3569 185.128 75.8724 185.529 76.388 185.988C76.9035 186.389 77.3618 186.79 77.7628 187.191C78.2211 187.592 78.5361 187.849 78.708 187.964C78.708 188.136 78.8512 188.279 79.1376 188.394C79.4813 188.508 79.7104 188.623 79.825 188.737C81.7727 189.539 83.348 190.37 84.5509 191.229C85.7539 192.088 86.7277 193.091 87.4724 194.237C88.2171 195.325 88.7899 196.614 89.1909 198.103C89.5919 199.535 89.9929 201.225 90.3939 203.173C90.5657 204.147 90.8235 205.292 91.1672 206.61C91.5682 207.87 91.7687 208.987 91.7687 209.961C91.7687 210.19 91.74 210.419 91.6828 210.648C91.6255 210.82 91.5968 210.935 91.5968 210.992C91.3677 213.57 90.9667 216.119 90.3939 218.639C89.821 221.16 89.2482 223.623 88.6754 226.029C88.5035 226.201 88.3316 226.459 88.1598 226.802C87.9879 227.089 87.8447 227.289 87.7302 227.404C87.6729 227.518 87.4437 227.805 87.0428 228.263C86.6991 228.721 86.2981 229.208 85.8398 229.724C85.3815 230.239 84.9519 230.726 84.5509 231.185C84.1499 231.643 83.9208 231.901 83.8635 231.958C83.8635 232.073 83.7489 232.302 83.5198 232.645L83.1761 233.161C82.3168 234.708 81.2285 235.825 79.9109 236.512C78.5934 237.199 77.104 237.858 75.4428 238.488C75.3282 238.66 74.8699 238.803 74.068 238.918C73.266 239.032 72.8077 239.147 72.6932 239.262C72.6359 239.262 72.464 239.348 72.1776 239.519C71.9485 239.691 71.6907 239.892 71.4043 240.121C71.1179 240.35 70.8314 240.551 70.545 240.722C70.2586 240.894 70.0868 241.009 70.0295 241.066C69.3993 241.467 68.626 241.839 67.7095 242.183C66.7929 242.47 65.8477 242.727 64.8739 242.956C63.9001 243.186 62.9263 243.357 61.9524 243.472C60.9786 243.587 60.148 243.672 59.4606 243.73H41.8458C40.9293 244.073 40.2419 244.532 39.7836 245.105C39.3826 245.677 39.0962 246.336 38.9244 247.081C38.7525 247.768 38.6379 248.513 38.5807 249.315C38.5807 250.06 38.5807 250.833 38.5807 251.635C38.5807 251.807 38.552 252.179 38.4947 252.752C38.4374 253.325 38.3802 253.955 38.3229 254.642C38.2656 255.272 38.2083 255.874 38.151 256.447C38.0937 257.02 38.0651 257.392 38.0651 257.564V259.025C38.0651 259.655 38.0651 260.17 38.0651 260.571C38.1224 260.915 38.2942 261.402 38.5807 262.032C38.5807 262.261 38.5807 262.633 38.5807 263.149C38.5807 263.607 38.5807 264.123 38.5807 264.696C38.6379 265.211 38.6666 265.698 38.6666 266.156C38.6666 266.615 38.6666 266.93 38.6666 267.102C38.6666 268.877 38.552 270.625 38.3229 272.343C38.151 274.062 38.0651 275.78 38.0651 277.499V277.756C38.0651 277.871 38.0937 278.157 38.151 278.616C38.2083 279.017 38.2369 279.274 38.2369 279.389C38.4088 282.654 38.6093 285.604 38.8384 288.239C39.0676 290.874 39.669 293.538 40.6429 296.23C40.7002 296.517 41.0152 296.861 41.5881 297.261C42.1609 297.605 42.791 297.949 43.4784 298.293C44.2231 298.636 44.9392 298.923 45.6266 299.152C46.314 299.381 46.8295 299.496 47.1732 299.496H50.6103C52.0996 299.496 53.5604 299.438 54.9925 299.324C56.4246 299.152 57.8853 299.066 59.3747 299.066C59.7757 299.066 60.2339 299.209 60.7495 299.496C61.265 299.782 61.7233 300.154 62.1243 300.613C62.5826 301.071 62.9549 301.558 63.2413 302.073C63.5278 302.589 63.671 303.047 63.671 303.448C63.671 304.021 63.6137 304.508 63.4991 304.909C63.3845 305.367 62.9549 305.74 62.2102 306.026H58.945H55.5939C55.2502 306.026 54.6488 305.997 53.7895 305.94C52.9875 305.883 52.1283 305.797 51.2117 305.682C50.2952 305.625 49.4359 305.539 48.634 305.424C47.8893 305.367 47.4024 305.31 47.1732 305.253C47.0587 305.253 46.8582 305.224 46.5717 305.167C46.3426 305.109 46.0848 305.052 45.7984 304.995C45.512 304.995 45.2256 304.966 44.9392 304.909C44.71 304.852 44.5668 304.823 44.5095 304.823H43.908C42.5905 304.938 41.273 305.023 39.9555 305.081C38.6379 305.138 37.2631 305.253 35.831 305.424C35.6592 305.424 35.3155 305.396 34.7999 305.339C34.3417 305.281 33.8261 305.195 33.2533 305.081C32.7377 305.023 32.2221 304.966 31.7066 304.909C31.2483 304.852 30.9046 304.823 30.6755 304.823H26.637Z" fill="#030089"/>
<path d="M417.336 132.276C417.336 131.073 417.594 130.042 418.109 129.183C418.682 128.381 419.398 127.722 420.257 127.207C421.174 126.691 422.148 126.29 423.179 126.004C424.267 125.775 425.327 125.66 426.358 125.66C427.618 125.66 428.821 125.775 429.967 126.004C431.113 126.233 432.344 126.348 433.662 126.348H435.896C436.24 126.348 437.013 126.29 438.216 126.176C439.419 126.118 440.708 126.033 442.083 125.918C443.457 125.861 444.746 125.803 445.949 125.746C447.152 125.689 447.897 125.66 448.183 125.66C448.412 125.66 448.813 125.689 449.386 125.746C450.016 125.861 450.646 125.947 451.277 126.004C451.964 126.118 452.594 126.204 453.167 126.262C453.74 126.319 454.084 126.348 454.198 126.348C454.255 126.348 454.427 126.319 454.714 126.262C455 126.204 455.286 126.118 455.573 126.004C455.859 125.947 456.117 125.889 456.346 125.832C456.633 125.775 456.804 125.746 456.862 125.746H457.807C458.093 125.746 458.38 125.717 458.666 125.66C458.953 125.66 459.239 125.66 459.525 125.66C459.697 125.66 459.926 125.66 460.213 125.66C460.499 125.717 460.786 125.746 461.072 125.746H462.189L463.994 126.348C464.051 126.462 464.194 126.519 464.423 126.519C465.855 126.405 467.144 126.319 468.29 126.262C469.493 126.262 470.238 126.262 470.524 126.262C470.753 126.262 471.183 126.29 471.813 126.348C472.443 126.462 473.073 126.548 473.703 126.605C474.333 126.72 474.906 126.806 475.422 126.863C475.995 126.92 476.338 126.949 476.453 126.949C476.51 126.949 476.682 126.92 476.968 126.863C477.255 126.806 477.541 126.72 477.828 126.605C478.114 126.548 478.372 126.491 478.601 126.433C478.887 126.376 479.059 126.348 479.117 126.348H480.148C480.434 126.348 480.72 126.319 481.007 126.262C481.351 126.262 481.608 126.262 481.78 126.262C481.952 126.262 482.181 126.262 482.468 126.262C482.811 126.319 483.126 126.348 483.413 126.348H484.444L486.248 126.949C486.478 127.064 486.707 127.121 486.936 127.121C487.222 127.121 487.451 127.121 487.623 127.121C487.967 127.121 488.282 127.092 488.568 127.035C488.912 126.978 489.284 126.949 489.685 126.949C490.888 126.949 491.948 127.178 492.865 127.636C493.838 128.152 494.526 129.269 494.927 130.988C494.984 130.988 495.013 131.188 495.013 131.589C495.013 132.047 495.013 132.334 495.013 132.448C495.013 133.995 494.755 135.198 494.239 136.057C493.724 136.916 493.036 137.547 492.177 137.948C491.318 138.349 490.316 138.578 489.17 138.635C488.024 138.692 486.85 138.721 485.647 138.721H481.78C481.723 138.721 481.551 138.692 481.265 138.635C481.036 138.578 480.778 138.492 480.491 138.377C480.205 138.32 479.919 138.263 479.632 138.205C479.346 138.148 479.174 138.119 479.117 138.119C478.945 138.119 478.601 138.119 478.085 138.119C477.57 138.177 476.968 138.205 476.281 138.205C475.594 138.205 474.849 138.205 474.047 138.205C473.245 138.263 472.472 138.291 471.727 138.291C470.925 138.291 470.266 138.263 469.751 138.205C469.235 138.148 468.834 138.119 468.548 138.119H463.392H459.525C459.354 138.119 459.039 138.062 458.58 137.948C458.179 137.833 457.836 137.747 457.549 137.69C457.034 137.747 456.461 137.833 455.831 137.948C455.201 138.062 454.57 138.177 453.94 138.291C453.367 138.406 452.852 138.492 452.394 138.549C451.993 138.664 451.735 138.721 451.62 138.721H445.691C445.577 138.721 445.319 138.664 444.918 138.549C444.517 138.434 444.059 138.32 443.543 138.205C443.085 138.091 442.598 137.948 442.083 137.776C441.624 137.661 441.281 137.575 441.051 137.518C440.937 137.518 440.822 137.489 440.708 137.432C440.65 137.375 440.565 137.317 440.45 137.26C439.476 137.146 438.588 137.06 437.786 137.002C437.042 136.945 436.612 136.916 436.497 136.916C436.326 136.916 435.896 136.974 435.208 137.088C434.521 137.203 433.748 137.346 432.888 137.518C432.087 137.69 431.342 137.833 430.654 137.948C429.967 138.062 429.537 138.119 429.366 138.119H423.351C423.293 138.119 423.064 138.062 422.663 137.948C422.262 137.89 421.804 137.776 421.289 137.604C420.773 137.489 420.286 137.375 419.828 137.26C419.37 137.146 419.026 137.031 418.797 136.916C418.453 136.745 418.167 136.458 417.937 136.057C417.766 135.656 417.651 135.198 417.594 134.682C417.479 134.224 417.422 133.766 417.422 133.308C417.365 132.849 417.336 132.506 417.336 132.276Z" fill="#030089"/>
<path d="M326.602 121.45C326.602 120.82 326.63 120.219 326.687 119.646C326.802 119.073 327.088 118.586 327.547 118.185C327.776 118.185 328.234 118.156 328.922 118.099C329.609 117.984 330.296 117.899 330.984 117.841C331.728 117.727 332.416 117.612 333.046 117.498C333.733 117.383 334.22 117.326 334.507 117.326C335.824 117.154 336.741 116.61 337.256 115.693C337.829 114.777 338.202 113.688 338.373 112.428C338.545 111.168 338.66 109.879 338.717 108.561C338.774 107.186 339.004 105.984 339.404 104.952C339.462 104.208 339.49 102.947 339.49 101.172C339.548 99.3386 339.605 97.4196 339.662 95.4146C339.72 93.4097 339.748 91.5193 339.748 89.7435C339.805 87.9105 339.834 86.6502 339.834 85.9628C339.834 85.791 339.834 85.3613 339.834 84.6739C339.891 83.9292 339.92 83.0986 339.92 82.1821C339.92 81.2655 339.92 80.349 339.92 79.4325C339.977 78.4586 340.006 77.6567 340.006 77.0265C340.006 76.5683 339.977 75.9381 339.92 75.1362C339.92 74.2769 339.92 73.4463 339.92 72.6443C339.92 71.8423 339.891 71.1263 339.834 70.4962C339.834 69.8088 339.834 69.4078 339.834 69.2932C339.834 69.1214 339.805 68.7777 339.748 68.2621C339.748 67.7466 339.72 67.2024 339.662 66.6295C339.605 66.0567 339.548 65.5411 339.49 65.0829C339.49 64.6246 339.462 64.3382 339.404 64.2236C339.347 63.9945 339.118 63.6794 338.717 63.2784C338.316 62.8774 338.001 62.5624 337.772 62.3332C337.657 61.875 337.285 61.3308 336.655 60.7006C336.025 60.0132 335.566 59.6122 335.28 59.4977C334.707 59.0967 334.048 58.8962 333.304 58.8962C332.559 58.8389 331.814 58.7816 331.07 58.7243C330.325 58.6671 329.666 58.4952 329.093 58.2088C328.521 57.9224 328.148 57.2923 327.976 56.3184C327.976 56.2039 328.062 56.0034 328.234 55.717C328.463 55.3732 328.635 55.1441 328.75 55.0295C328.807 54.8577 328.95 54.6572 329.179 54.4281C329.466 54.1416 329.752 53.8552 330.039 53.5688C330.325 53.2824 330.583 53.0533 330.812 52.8814C331.098 52.6523 331.299 52.5091 331.413 52.4518C331.471 52.3372 331.786 52.0794 332.359 51.6784C332.989 51.2775 333.733 50.8478 334.593 50.3896C335.452 49.874 336.311 49.3871 337.17 48.9288C338.087 48.4133 338.832 48.0123 339.404 47.7259C340.321 47.2103 341.352 46.8093 342.498 46.5229C343.643 46.1792 344.761 45.7496 345.849 45.234C346.823 44.6039 347.625 44.0024 348.255 43.4296C348.942 42.8567 349.859 42.5703 351.004 42.5703C352.093 42.5703 352.895 42.9999 353.41 43.8592C353.926 44.6612 354.298 45.635 354.527 46.7807C354.757 47.8691 354.9 49.0147 354.957 50.2177C355.014 51.3634 355.1 52.3086 355.215 53.0533C355.215 53.2824 355.215 53.6834 355.215 54.2562C355.272 54.7718 355.301 55.3446 355.301 55.9747C355.358 56.6048 355.415 57.2063 355.473 57.7792C355.53 58.352 355.587 58.7816 355.644 59.0681C355.931 59.5263 356.217 59.87 356.504 60.0992C356.79 60.271 357.191 60.3569 357.707 60.3569H358.48C358.595 60.1851 358.795 59.956 359.081 59.6695C359.368 59.3258 359.683 58.9821 360.027 58.6384C360.37 58.2947 360.685 57.9797 360.972 57.6932C361.258 57.3495 361.459 57.0918 361.573 56.9199C361.573 56.8626 361.688 56.6621 361.917 56.3184C362.203 55.9747 362.347 55.7456 362.347 55.631C362.862 54.8291 363.464 54.3135 364.151 54.0844C364.896 53.7979 365.583 53.2537 366.213 52.4518C367.531 50.676 368.934 49.2439 370.424 48.1555C371.913 47.0098 373.632 45.7782 375.579 44.4607C376.839 43.4869 378.214 42.9427 379.704 42.8281C381.193 42.6562 382.768 42.5703 384.43 42.5703C385.804 42.5703 387.036 42.6849 388.124 42.914C389.27 43.1432 390.33 43.4869 391.304 43.9451C392.277 44.3461 393.223 44.8617 394.139 45.4918C395.113 46.1219 396.087 46.8666 397.061 47.7259C398.206 48.757 399.381 49.9313 400.584 51.2488C401.844 52.5663 402.703 54.0271 403.161 55.631C403.161 56.032 403.19 56.6048 403.247 57.3495C403.362 58.0369 403.476 58.7243 403.591 59.4118C403.763 60.0992 403.906 60.7293 404.021 61.3021C404.135 61.875 404.221 62.2187 404.278 62.3332V68.8636C404.278 68.9209 404.307 69.15 404.364 69.551C404.422 69.8947 404.479 70.2957 404.536 70.754C404.651 71.1549 404.737 71.5559 404.794 71.9569C404.909 72.3579 404.966 72.6157 404.966 72.7302V73.4177V74.0191C404.966 74.191 404.909 74.592 404.794 75.2221C404.737 75.8522 404.651 76.5396 404.536 77.2843C404.479 78.029 404.422 78.745 404.364 79.4325C404.307 80.0626 404.278 80.4922 404.278 80.7213V85.3613V97.0472C404.278 97.1618 404.25 97.4196 404.192 97.8206C404.135 98.2215 404.049 98.6512 403.935 99.1094C403.877 99.5104 403.82 99.9114 403.763 100.312C403.706 100.656 403.677 100.857 403.677 100.914V109.85C403.677 110.652 403.734 111.597 403.849 112.686C403.963 113.717 404.336 114.719 404.966 115.693C405.596 115.579 406.197 115.493 406.77 115.435C407.4 115.378 408.031 115.349 408.661 115.349C409.291 115.349 409.892 115.378 410.465 115.435C411.038 115.493 411.582 115.579 412.098 115.693C412.27 115.693 412.499 115.894 412.785 116.295C413.129 116.638 413.358 116.925 413.472 117.154C413.472 117.268 413.501 117.412 413.558 117.583C413.558 117.698 413.558 117.813 413.558 117.927C413.616 118.042 413.644 118.128 413.644 118.185C413.644 118.701 413.501 119.245 413.215 119.818C412.986 120.333 412.671 120.82 412.27 121.278C411.926 121.737 411.496 122.109 410.981 122.395C410.522 122.682 410.064 122.825 409.606 122.825H409.004C408.89 122.768 408.603 122.682 408.145 122.567C407.687 122.453 407.2 122.367 406.684 122.309C406.169 122.252 405.653 122.195 405.138 122.138C404.679 122.08 404.393 122.052 404.278 122.052C404.107 122.052 403.648 122.08 402.904 122.138C402.216 122.195 401.443 122.252 400.584 122.309C399.724 122.367 398.894 122.453 398.092 122.567C397.29 122.682 396.717 122.768 396.373 122.825C396.259 122.825 395.944 122.882 395.428 122.997C394.913 123.169 394.569 123.255 394.397 123.255H384.601C384.43 123.312 384.057 123.369 383.484 123.426C382.912 123.484 382.281 123.541 381.594 123.598C380.964 123.656 380.362 123.713 379.79 123.77C379.217 123.827 378.844 123.856 378.673 123.856H377.641C377.355 123.856 377.069 123.684 376.782 123.341C376.496 122.997 376.238 122.596 376.009 122.138C375.78 121.679 375.579 121.192 375.407 120.677C375.293 120.161 375.236 119.732 375.236 119.388C375.236 118.643 375.722 118.099 376.696 117.755C377.727 117.412 378.873 117.154 380.133 116.982C381.451 116.81 382.711 116.667 383.914 116.552C385.174 116.381 386.062 116.123 386.578 115.779C386.75 115.664 386.95 115.407 387.179 115.006C387.466 114.605 387.752 114.175 388.038 113.717C388.325 113.259 388.554 112.8 388.726 112.342C388.955 111.884 389.127 111.511 389.241 111.225C389.413 110.709 389.528 110.308 389.585 110.022C389.642 109.678 389.7 109.392 389.757 109.163C389.814 108.876 389.843 108.59 389.843 108.303C389.843 107.96 389.843 107.53 389.843 107.015V100.914C389.843 100.742 389.843 100.284 389.843 99.5391C389.843 98.7944 389.843 97.9924 389.843 97.1332C389.9 96.2166 389.929 95.386 389.929 94.6413C389.929 93.8393 389.929 93.3524 389.929 93.1806C389.872 92.5504 389.814 91.5766 389.757 90.2591C389.757 88.9416 389.728 87.4808 389.671 85.8769C389.614 84.2157 389.556 82.4971 389.499 80.7213C389.499 78.8883 389.471 77.1697 389.413 75.5658C389.413 73.9046 389.413 72.4438 389.413 71.1836C389.413 69.8661 389.413 68.8922 389.413 68.2621C389.299 66.83 388.926 65.3406 388.296 63.794C387.723 62.2473 386.921 60.8439 385.89 59.5836C384.859 58.2661 383.685 57.2063 382.367 56.4044C381.05 55.5451 379.618 55.0868 378.071 55.0295C377.441 54.9723 376.725 55.0009 375.923 55.1155C375.121 55.23 374.29 55.3732 373.431 55.5451C372.572 55.717 371.741 55.9461 370.939 56.2325C370.137 56.4616 369.393 56.6908 368.705 56.9199C368.361 57.0918 367.817 57.3495 367.073 57.6932C366.385 58.0369 365.698 58.4093 365.01 58.8103C364.323 59.154 363.693 59.469 363.12 59.7555C362.604 60.0419 362.347 60.2424 362.347 60.3569C362.175 60.4715 361.831 60.8439 361.316 61.474C360.857 62.1041 360.37 62.7915 359.855 63.5362C359.397 64.2809 358.938 64.9683 358.48 65.5984C358.079 66.2285 357.821 66.6295 357.707 66.8014C356.676 68.2907 356.074 69.8374 355.902 71.4414C355.788 73.0453 355.559 74.7638 355.215 76.5969C355.1 76.826 354.957 77.2843 354.785 77.9717C354.671 78.6591 354.613 79.146 354.613 79.4325V84.588C354.613 84.7598 354.556 85.1608 354.441 85.791C354.327 86.4211 354.212 87.1085 354.098 87.8532C353.983 88.5979 353.869 89.3139 353.754 90.0013C353.64 90.6314 353.582 91.0611 353.582 91.2902V100.055C353.582 101.601 353.582 103.005 353.582 104.265C353.582 105.525 353.611 106.757 353.668 107.96C353.783 109.105 353.897 110.308 354.012 111.569C354.126 112.772 354.327 114.146 354.613 115.693C354.957 116.323 355.444 116.724 356.074 116.896C356.761 117.068 357.506 117.154 358.308 117.154C358.766 117.154 359.225 117.125 359.683 117.068C360.141 117.011 360.628 116.982 361.144 116.982C361.946 116.982 362.662 117.412 363.292 118.271C363.922 119.073 364.237 119.932 364.237 120.849C364.237 121.88 363.836 122.567 363.034 122.911C362.232 123.255 361.344 123.426 360.37 123.426C359.912 123.426 359.482 123.398 359.081 123.341C358.738 123.283 358.423 123.255 358.136 123.255C356.361 123.255 354.585 123.14 352.809 122.911C351.033 122.739 349.257 122.653 347.482 122.653C345.247 122.653 342.956 122.739 340.607 122.911C338.259 123.14 335.882 123.255 333.476 123.255C333.075 123.255 332.53 123.283 331.843 123.341C331.156 123.455 330.526 123.512 329.953 123.512C329.036 123.512 328.234 123.369 327.547 123.083C326.917 122.796 326.602 122.252 326.602 121.45Z" fill="#030089"/>
<path d="M279.172 119.56C279.172 118.185 279.544 117.297 280.289 116.896C281.034 116.495 281.95 116.237 283.039 116.123C284.127 116.008 285.273 115.922 286.476 115.865C287.736 115.751 288.824 115.292 289.741 114.49C289.741 114.147 289.769 113.488 289.827 112.514C289.884 111.54 289.913 110.509 289.913 109.421C289.97 108.275 290.027 107.215 290.084 106.241C290.142 105.268 290.17 104.58 290.17 104.179V93.7822C290.17 93.4958 290.17 92.8657 290.17 91.8919C290.228 90.918 290.285 89.801 290.342 88.5408C290.457 87.2805 290.543 85.9343 290.6 84.5022C290.657 83.0702 290.715 81.724 290.772 80.4637C290.886 79.2035 290.944 78.1151 290.944 77.1986C291.001 76.282 291.03 75.6805 291.03 75.3941V64.6534C291.03 64.6534 291.058 64.5388 291.116 64.3097C291.173 64.0233 291.23 63.7655 291.287 63.5364C291.402 63.2499 291.488 62.9922 291.545 62.763C291.602 62.4766 291.631 62.3334 291.631 62.3334L291.803 61.9897C291.803 61.8751 291.774 61.7892 291.717 61.7319C291.717 61.6746 291.717 61.6174 291.717 61.5601C291.66 61.5028 291.631 61.4455 291.631 61.3882C291.631 61.3882 291.545 61.3023 291.373 61.1304C291.201 60.9013 291.001 60.6722 290.772 60.443C290.543 60.1566 290.314 59.8988 290.084 59.6697C289.913 59.3833 289.798 59.1828 289.741 59.0682C289.168 58.2663 288.28 57.6934 287.077 57.3497C285.931 56.9487 284.757 56.5764 283.554 56.2327C282.408 55.889 281.377 55.488 280.461 55.0297C279.602 54.5142 279.172 53.7695 279.172 52.7957C279.172 52.1655 279.487 51.65 280.117 51.249C280.804 50.7907 281.377 50.5043 281.836 50.3897C282.007 50.3324 282.437 50.2465 283.124 50.132C283.812 50.0174 284.557 49.9028 285.359 49.7883C286.218 49.6737 286.991 49.5591 287.679 49.4445C288.366 49.2727 288.796 49.1581 288.967 49.1008C289.025 49.0436 289.225 48.9576 289.569 48.8431C289.913 48.7285 290.256 48.6139 290.6 48.4994C291.001 48.3275 291.345 48.1843 291.631 48.0697C291.975 47.9552 292.175 47.8979 292.233 47.8979C292.748 47.726 293.607 47.5255 294.81 47.2964C296.013 47.0673 296.958 46.7808 297.646 46.4371C298.219 46.1507 298.706 45.8643 299.107 45.5779C299.565 45.2342 299.995 44.9478 300.396 44.7186C300.854 44.4322 301.312 44.2317 301.77 44.1172C302.286 43.9453 302.887 43.8594 303.575 43.8594C304.606 43.8594 305.379 44.3463 305.895 45.3201C306.41 46.2939 306.668 47.2964 306.668 48.3275C306.668 49.9887 306.525 51.6786 306.238 53.3971C306.009 55.0584 305.895 56.7482 305.895 58.4668C305.895 59.8988 305.923 61.1591 305.981 62.2475C306.038 63.2786 306.267 64.6248 306.668 66.286V101.43C306.725 101.601 306.783 101.831 306.84 102.117C306.955 102.403 307.012 102.719 307.012 103.062C307.069 103.406 307.126 103.75 307.184 104.093C307.241 104.38 307.327 104.58 307.441 104.695V105.124V105.554C307.441 105.669 307.413 105.869 307.356 106.156C307.298 106.442 307.241 106.786 307.184 107.187C307.126 107.53 307.04 107.874 306.926 108.218C306.811 108.504 306.725 108.705 306.668 108.819V109.593C306.668 109.764 306.725 110.165 306.84 110.796C306.955 111.426 307.098 112.113 307.27 112.858C307.499 113.602 307.728 114.29 307.957 114.92C308.186 115.493 308.415 115.837 308.644 115.951C308.702 116.066 308.845 116.123 309.074 116.123C309.303 116.123 309.504 116.123 309.676 116.123C310.019 116.123 310.334 116.094 310.621 116.037C310.964 115.98 311.194 115.951 311.308 115.951C311.365 116.066 311.652 116.209 312.167 116.381C312.74 116.495 313.084 116.553 313.198 116.553C313.37 116.667 313.714 116.753 314.23 116.81C314.745 116.868 315.261 116.925 315.776 116.982C316.349 116.982 316.893 117.039 317.409 117.154C317.924 117.211 318.268 117.269 318.44 117.326C319.07 117.44 319.471 117.841 319.643 118.529C319.815 119.216 319.901 119.789 319.901 120.247C319.901 121.164 319.528 121.851 318.784 122.31C318.039 122.711 317.266 122.968 316.464 123.083H309.504H302.028C301.914 123.083 301.627 123.054 301.169 122.997C300.768 122.94 300.31 122.854 299.794 122.739C299.336 122.682 298.878 122.625 298.419 122.567C298.018 122.453 297.76 122.396 297.646 122.396H296.873C295.326 122.396 293.693 122.51 291.975 122.739C290.314 122.968 288.624 123.083 286.905 123.083H282.437C282.322 122.968 281.921 122.768 281.234 122.481C280.604 122.195 280.174 121.995 279.945 121.88C279.659 121.651 279.458 121.422 279.344 121.193C279.229 120.906 279.172 120.648 279.172 120.419V119.56Z" fill="#030089"/>
<path d="M278.922 20.5868C279.231 20.5515 279.84 20.35 280.14 20.3121C280.554 20.2597 281.46 20.3698 281.858 20.3121C284.027 19.9974 285.445 20.0418 287.142 19.5307C290.796 17.095 294.047 16.7569 295.972 13.1369C296.505 12.135 296.803 9.80509 297.19 8.56996C297.429 7.80617 298.083 6.99529 298.273 6.13423C298.423 5.4555 298.151 5.00799 298.273 4.26537C298.386 3.58296 298.925 2.61054 299.017 1.87172C299.078 1.37736 299.106 0.870106 299.159 0.349609C299.18 0.599443 299.224 0.830256 299.224 1.09024C299.284 1.73212 299.522 2.18325 299.594 2.78512C299.648 3.23252 299.533 3.83948 299.594 4.26537C299.672 4.80365 299.755 5.32494 299.846 5.82977C299.98 6.57558 300.549 7.28544 300.714 7.96103C300.844 8.48916 300.564 8.99634 300.714 9.48336C300.924 10.1614 301.502 11.317 301.757 11.9191C302.976 14.8 304.193 16.7905 306.933 17.7407C308.387 18.5536 309.488 19.3788 311.5 19.8352C312.446 20.0499 314.068 19.9897 315.153 20.1397C315.777 20.2259 316.425 20.3303 317.098 20.3975C317.457 20.4335 317.893 20.4441 318.198 20.4977C318.399 20.5143 318.493 20.4825 318.698 20.4977C318.892 20.5122 319.198 20.5736 319.396 20.5868C319.044 20.6383 319.111 20.7372 318.581 20.8228C318.425 20.8479 318.047 20.7969 317.893 20.8228C317.688 20.8574 317.41 20.7868 317.209 20.8228C316.938 20.8714 316.634 21.0019 316.371 21.0531C314.549 21.4077 313.863 22.0873 312.413 22.5754C311.637 22.8365 310.657 23.1845 309.977 23.4888C309.246 23.8164 308.171 24.0204 307.542 24.4022C306.436 25.0733 305.305 25.6766 304.477 26.5334C303.515 27.5276 302.418 28.6042 301.757 29.8826C301.385 30.5999 301.36 31.4153 301.063 32.2311C300.768 33.0442 300.164 34.4456 299.93 35.3629C299.762 36.0215 299.95 36.1701 299.807 36.8853C299.642 37.7122 299.492 38.5777 299.353 39.4837C299.286 39.921 299.221 40.3677 299.159 40.8241C299.117 40.5665 299.074 40.3122 299.03 40.0611C298.912 39.3858 298.843 38.7334 298.712 38.1031C298.489 37.0252 298.376 36.0118 298.103 35.0585C297.922 34.4234 297.542 33.8149 297.333 33.2317C296.852 31.8846 296.633 30.3678 295.972 29.2736C295.366 28.2701 294.334 27.6704 293.536 26.8526C292.14 25.4213 290.509 24.4602 288.36 23.4888C287.629 23.1582 286.759 22.6446 285.925 22.3565C285.214 22.1111 284.464 21.8802 283.672 21.662C283.294 21.5576 282.88 21.662 282.575 21.3575C282.298 21.2887 281.949 21.1193 281.662 21.0531C281.265 20.9615 280.86 21.1399 280.444 21.0531C279.95 20.9498 279.443 20.684 278.922 20.5868Z" fill="#030089"/>
<path d="M249.617 201.876C249.926 201.841 250.535 201.639 250.835 201.601C251.25 201.549 252.156 201.659 252.553 201.601C254.722 201.286 256.14 201.331 257.838 200.82C261.491 198.384 264.743 198.046 266.667 194.426C267.2 193.424 267.499 191.094 267.885 189.859C268.124 189.095 268.778 188.284 268.969 187.423C269.118 186.745 268.846 186.297 268.969 185.554C269.081 184.872 269.62 183.9 269.712 183.161C269.773 182.666 269.801 182.159 269.854 181.639C269.875 181.889 269.92 182.119 269.92 182.379C269.979 183.021 270.217 183.472 270.289 184.074C270.343 184.522 270.228 185.129 270.289 185.554C270.367 186.093 270.451 186.614 270.541 187.119C270.675 187.865 271.244 188.575 271.41 189.25C271.539 189.778 271.259 190.285 271.41 190.772C271.619 191.45 272.197 192.606 272.452 193.208C273.671 196.089 274.888 198.08 277.628 199.03C279.082 199.843 280.183 200.668 282.195 201.124C283.142 201.339 284.764 201.279 285.849 201.429C286.473 201.515 287.121 201.619 287.793 201.687C288.153 201.723 288.589 201.733 288.893 201.787C289.094 201.803 289.188 201.772 289.393 201.787C289.588 201.801 289.893 201.863 290.092 201.876C289.739 201.927 289.807 202.026 289.276 202.112C289.12 202.137 288.742 202.086 288.589 202.112C288.383 202.146 288.105 202.076 287.904 202.112C287.633 202.161 287.329 202.291 287.066 202.342C285.244 202.697 284.558 203.376 283.108 203.864C282.333 204.126 281.352 204.474 280.673 204.778C279.941 205.105 278.866 205.309 278.237 205.691C277.131 206.362 276.001 206.966 275.172 207.822C274.21 208.817 273.114 209.893 272.452 211.172C272.081 211.889 272.055 212.704 271.759 213.52C271.464 214.333 270.86 215.735 270.625 216.652C270.457 217.311 270.645 217.459 270.502 218.174C270.337 219.001 270.187 219.867 270.048 220.773C269.981 221.21 269.917 221.657 269.854 222.113C269.812 221.856 269.769 221.601 269.725 221.35C269.608 220.675 269.538 220.022 269.407 219.392C269.184 218.314 269.071 217.301 268.799 216.348C268.617 215.712 268.237 215.104 268.029 214.521C267.547 213.174 267.328 211.657 266.667 210.563C266.061 209.559 265.029 208.959 264.232 208.142C262.835 206.71 261.204 205.749 259.056 204.778C258.324 204.447 257.454 203.934 256.62 203.646C255.909 203.4 255.159 203.169 254.368 202.951C253.989 202.847 253.575 202.951 253.271 202.647C252.993 202.578 252.644 202.408 252.357 202.342C251.961 202.251 251.555 202.429 251.14 202.342C250.646 202.239 250.138 201.973 249.617 201.876Z" fill="#030089"/>
<path d="M239.3 81.4948C239.128 81.4948 238.699 81.6666 238.011 82.0103C237.381 82.354 236.694 82.755 235.949 83.2133C235.262 83.6143 234.574 84.0439 233.887 84.5022C233.257 84.9032 232.827 85.1896 232.598 85.3614C232.483 85.5333 232.14 85.9056 231.567 86.4785C230.994 87.0513 230.364 87.6814 229.677 88.3688C229.046 88.999 228.445 89.6004 227.872 90.1733C227.299 90.7461 226.956 91.1185 226.841 91.2903C226.612 91.2903 226.325 91.4049 225.982 91.634L225.466 91.8918C225.18 92.1782 224.779 92.8656 224.263 93.954C223.748 94.9851 223.318 96.0735 222.974 97.2192C222.573 98.3649 222.344 99.2241 222.287 99.797C222.23 100.37 222.201 101.143 222.201 102.117C222.201 103.549 222.373 104.867 222.717 106.07C223.06 107.273 223.977 108.246 225.466 108.991C225.695 109.106 226.01 109.249 226.411 109.421C226.87 109.535 227.299 109.65 227.7 109.764C228.158 109.879 228.559 109.993 228.903 110.108C229.247 110.165 229.505 110.194 229.677 110.194C229.963 110.194 230.335 110.194 230.794 110.194C231.252 110.137 231.739 110.079 232.254 110.022C232.77 109.965 233.228 109.908 233.629 109.85C234.087 109.793 234.431 109.736 234.66 109.678C236.78 109.22 238.47 108.533 239.73 107.616C240.99 106.642 241.878 105.124 242.394 103.062C242.508 102.547 242.68 101.888 242.909 101.086C243.138 100.227 243.339 99.396 243.511 98.594C243.74 97.7347 243.94 96.9901 244.112 96.3599C244.284 95.6725 244.37 95.2715 244.37 95.157C244.484 95.157 244.542 95.0424 244.542 94.8133C244.599 94.5269 244.628 94.355 244.628 94.2977C244.628 94.1259 244.599 93.9254 244.542 93.6962C244.542 93.4098 244.484 93.2093 244.37 93.0948C244.255 92.6938 244.169 92.3214 244.112 91.9777C244.055 91.6913 243.997 91.4049 243.94 91.1185C243.94 90.8321 243.94 90.6316 243.94 90.517V87.2518C243.826 86.7363 243.625 86.1634 243.339 85.5333C243.052 84.8459 242.709 84.2158 242.308 83.6429C241.964 83.0128 241.534 82.4973 241.019 82.0963C240.503 81.6953 239.93 81.4948 239.3 81.4948ZM206.562 106.327C206.562 104.895 206.734 103.234 207.078 101.344C207.422 99.396 208.109 97.792 209.14 96.5318C209.198 96.4745 209.455 96.1881 209.914 95.6725C210.429 95.157 211.002 94.5841 211.632 93.954C212.262 93.2666 212.892 92.6078 213.522 91.9777C214.21 91.3476 214.725 90.8607 215.069 90.517C216.902 88.8558 218.85 87.3377 220.912 85.9629C222.974 84.5308 225.094 83.2706 227.271 82.1822C227.557 82.0676 228.044 81.9531 228.731 81.8385C229.476 81.7239 229.934 81.6094 230.106 81.4948C230.278 81.4375 230.593 81.2943 231.051 81.0652C231.567 80.7787 232.111 80.4923 232.684 80.2059C233.257 79.8622 233.772 79.5758 234.231 79.3466C234.746 79.0602 235.061 78.917 235.176 78.917C236.15 78.4587 237.037 78.0864 237.839 77.8C238.699 77.5136 239.501 77.1985 240.245 76.8548C240.99 76.5111 241.706 76.1101 242.394 75.6518C243.081 75.1363 243.74 74.4489 244.37 73.5896C244.484 73.3605 244.57 72.9595 244.628 72.3867C244.742 71.7565 244.828 71.0978 244.885 70.4104C244.943 69.6657 244.971 68.9783 244.971 68.3481C245.029 67.6607 245.057 67.1738 245.057 66.8874C245.057 65.5126 245.029 64.1378 244.971 62.763C244.914 61.3309 244.685 59.9847 244.284 58.7245C243.94 57.4069 243.367 56.2326 242.565 55.2015C241.821 54.1131 240.732 53.2539 239.3 52.6237C239.186 52.5665 238.928 52.4805 238.527 52.366C238.126 52.2514 237.696 52.1368 237.238 52.0223C236.78 51.8504 236.35 51.7072 235.949 51.5926C235.548 51.4781 235.29 51.4208 235.176 51.4208C235.176 51.3635 235.061 51.2776 234.832 51.163C234.603 51.0484 234.345 50.9339 234.059 50.8193C233.772 50.6474 233.486 50.5329 233.199 50.4756C232.913 50.361 232.713 50.2751 232.598 50.2178H232.168C231.424 50.2178 230.851 50.3037 230.45 50.4756C230.049 50.6474 229.533 50.9625 228.903 51.4208C228.674 51.5353 228.388 51.6786 228.044 51.8504C227.7 52.0223 227.357 52.2228 227.013 52.4519C226.669 52.681 226.354 52.8815 226.068 53.0534C225.838 53.1679 225.695 53.2252 225.638 53.2252C225.523 53.3398 225.38 53.5689 225.208 53.9126C225.037 54.199 224.865 54.5427 224.693 54.9437C224.578 55.2874 224.464 55.6311 224.349 55.9748C224.235 56.2613 224.177 56.4331 224.177 56.4904C224.12 56.605 224.063 56.8341 224.005 57.1778C223.948 57.4642 223.891 57.8079 223.834 58.2089C223.776 58.5526 223.719 58.8963 223.662 59.24C223.604 59.5264 223.576 59.6983 223.576 59.7556C223.576 59.9274 223.461 60.2998 223.232 60.8726C223.003 61.3882 222.802 61.7032 222.631 61.8178C222.401 63.078 222.23 64.1378 222.115 64.997C222.058 65.8563 221.857 66.5437 221.514 67.0593C221.17 67.5748 220.626 67.9472 219.881 68.1763C219.194 68.3481 218.134 68.4341 216.702 68.4341C215.384 68.4341 214.095 68.4054 212.835 68.3481C211.632 68.2909 210.544 68.0904 209.57 67.7467C208.653 67.3457 207.909 66.7442 207.336 65.9422C206.763 65.083 206.477 63.9087 206.477 62.4193C206.477 61.7892 206.505 61.1017 206.562 60.3571C206.62 59.6124 206.82 58.9822 207.164 58.4667C207.221 58.4094 207.364 58.2662 207.594 58.0371C207.823 57.7506 208.081 57.4642 208.367 57.1778C208.653 56.8914 208.911 56.6336 209.14 56.4045C209.427 56.1753 209.627 56.0035 209.742 55.8889C214.668 52.2228 219.795 49.244 225.122 46.9526C230.507 44.604 236.264 43.4297 242.394 43.4297C243.826 43.4297 245.258 43.5156 246.69 43.6875C248.179 43.8593 249.611 44.203 250.986 44.7186C252.361 45.1768 253.621 45.8356 254.767 46.6949C255.912 47.5541 256.858 48.6425 257.602 49.96C257.774 50.3037 257.975 50.762 258.204 51.3349C258.49 51.9077 258.777 52.4805 259.063 53.0534C259.35 53.6262 259.579 54.1131 259.751 54.5141C259.98 54.9151 260.094 55.1442 260.094 55.2015C260.151 55.3734 260.209 55.803 260.266 56.4904C260.323 57.1205 260.381 57.8079 260.438 58.5526C260.495 59.24 260.552 59.9274 260.61 60.6148C260.667 61.245 260.696 61.6459 260.696 61.8178C260.696 61.9896 260.81 62.2474 261.039 62.5911C261.154 62.763 261.297 62.9062 261.469 63.0208C261.526 63.0208 261.555 63.164 261.555 63.4504V63.5363C261.498 63.5936 261.469 63.6222 261.469 63.6222C261.068 64.9398 260.81 66.2573 260.696 67.5748C260.581 68.8923 260.381 70.2672 260.094 71.6993C260.094 71.7565 260.008 72.1575 259.836 72.9022C259.722 73.6469 259.665 74.1338 259.665 74.3629C259.55 74.4202 259.493 74.9644 259.493 75.9955C259.493 76.9121 259.521 77.8573 259.579 78.8311C259.636 79.8049 259.665 80.435 259.665 80.7215C259.665 80.836 259.607 81.0652 259.493 81.4089C259.435 81.6953 259.35 82.039 259.235 82.44C259.178 82.7837 259.092 83.1274 258.977 83.4711C258.92 83.7575 258.891 83.9293 258.891 83.9866C258.891 84.1585 258.834 84.9605 258.719 86.3926C258.605 87.8246 258.462 89.4859 258.29 91.3762C258.175 93.2093 258.032 95.0997 257.86 97.0473C257.746 98.9377 257.66 100.484 257.602 101.687V102.031V102.547C257.602 102.776 257.631 103.234 257.688 103.921C257.746 104.552 257.803 105.239 257.86 105.984C257.917 106.728 257.975 107.444 258.032 108.132C258.089 108.819 258.147 109.335 258.204 109.678C259.006 110.595 260.008 111.254 261.211 111.655C262.414 112.056 263.531 112.256 264.562 112.256C265.708 112.256 266.71 112.113 267.57 111.827C268.486 111.54 269.431 111.397 270.405 111.397C270.52 111.397 270.864 111.426 271.436 111.483C272.067 111.483 272.468 111.483 272.639 111.483C273.212 111.769 273.556 112.113 273.67 112.514C273.842 112.915 273.928 113.431 273.928 114.061C273.928 114.118 273.928 114.232 273.928 114.404C273.928 114.576 273.871 114.662 273.756 114.662L267.828 120.763L267.14 121.107C266.567 121.336 266.195 121.45 266.023 121.45C265.851 121.45 265.422 121.479 264.734 121.536C264.047 121.593 263.302 121.651 262.5 121.708C261.698 121.765 260.925 121.823 260.18 121.88C259.493 121.937 259.063 121.994 258.891 122.052C258.777 122.052 258.49 122.109 258.032 122.224C257.574 122.281 257.087 122.367 256.571 122.481C256.056 122.539 255.569 122.596 255.111 122.653C254.71 122.71 254.452 122.71 254.337 122.653C254.223 122.653 253.993 122.625 253.65 122.567C253.363 122.453 253.02 122.338 252.619 122.224C252.218 122.052 251.817 121.909 251.416 121.794C251.015 121.679 250.7 121.565 250.471 121.45C249.554 121.107 248.637 120.648 247.721 120.075C246.804 119.503 246.117 118.815 245.659 118.013C245.315 117.383 245.029 116.696 244.799 115.951C244.628 115.149 244.398 114.433 244.112 113.803C243.883 113.115 243.539 112.543 243.081 112.084C242.623 111.626 241.907 111.397 240.933 111.397C240.875 111.397 240.818 111.426 240.761 111.483C240.761 111.483 240.732 111.483 240.675 111.483H240.503C239.071 112.399 237.925 113.459 237.066 114.662C236.264 115.865 235.262 116.982 234.059 118.013C233.085 118.815 232.082 119.503 231.051 120.075C230.077 120.591 229.075 121.25 228.044 122.052C227.757 122.166 227.242 122.281 226.497 122.395C225.81 122.51 225.037 122.625 224.177 122.739C223.375 122.911 222.573 123.026 221.771 123.083C221.027 123.197 220.482 123.255 220.139 123.255C219.967 123.255 219.68 123.226 219.279 123.169C218.879 123.169 218.42 123.14 217.905 123.083C217.446 123.026 216.988 122.94 216.53 122.825C216.129 122.768 215.842 122.71 215.671 122.653C215.556 122.653 215.356 122.567 215.069 122.395C214.84 122.166 214.582 121.937 214.296 121.708C214.009 121.479 213.723 121.278 213.437 121.107C213.207 120.877 213.064 120.763 213.007 120.763C210.486 119.044 208.768 116.925 207.851 114.404C206.992 111.884 206.562 109.192 206.562 106.327Z" fill="#030089"/>
<path d="M134.555 119.216C134.555 117.841 134.927 116.782 135.672 116.037C136.417 115.235 137.362 114.691 138.508 114.404C139.711 114.061 141.028 113.86 142.46 113.803C143.95 113.746 145.41 113.717 146.842 113.717C148.332 113.717 149.707 113.688 150.967 113.631C152.284 113.516 153.344 113.259 154.146 112.858C154.146 112.514 154.175 111.884 154.232 110.967C154.347 109.993 154.461 108.991 154.576 107.96C154.69 106.929 154.776 105.955 154.833 105.038C154.948 104.065 155.034 103.406 155.091 103.062C155.091 103.005 155.12 102.862 155.177 102.632C155.234 102.346 155.292 102.06 155.349 101.773C155.464 101.487 155.55 101.2 155.607 100.914C155.664 100.628 155.693 100.456 155.693 100.398V100.227V99.7969C155.693 99.625 155.578 99.1381 155.349 98.3362C155.177 97.4769 155.091 96.0734 155.091 94.1258V87.2517C155.378 86.7362 155.578 86.192 155.693 85.6192C155.807 84.989 155.865 84.3589 155.865 83.7288C155.865 82.1248 155.721 80.5782 155.435 79.0888C155.206 77.5994 155.091 76.0528 155.091 74.4488V73.4177C155.149 73.2458 155.234 73.074 155.349 72.9021C155.578 72.5584 155.693 72.3579 155.693 72.3007C155.75 72.2434 155.807 71.957 155.865 71.4414C155.922 70.9258 155.951 70.353 155.951 69.7229C156.008 69.0928 156.065 68.4626 156.122 67.8325C156.18 67.2024 156.237 66.6869 156.294 66.2859V66.0281C156.294 65.2261 156.208 64.2809 156.036 63.1925C155.922 62.0469 155.607 61.1017 155.091 60.357V45.32C155.206 45.2627 155.32 45.0908 155.435 44.8044C155.607 44.518 155.693 44.2602 155.693 44.0311C155.693 43.8592 155.578 43.5155 155.349 43C155.177 42.4844 155.091 42.1694 155.091 42.0548V40.9378V39.3911C155.091 39.2193 155.177 38.9901 155.349 38.7037L155.693 38.1881C155.693 38.1309 155.664 38.0736 155.607 38.0163C155.55 37.959 155.464 37.8158 155.349 37.5867C155.234 37.4148 155.149 37.243 155.091 37.0711V31.0563C155.034 30.8845 154.948 30.5694 154.833 30.1111C154.719 29.5956 154.576 29.0514 154.404 28.4785C154.232 27.9057 154.089 27.3901 153.974 26.9319C153.86 26.4163 153.774 26.0726 153.716 25.9008C153.716 25.7289 153.602 25.5571 153.373 25.3852C153.201 25.2134 153.086 25.0702 153.029 24.9556H152.514H152.428C152.256 25.1274 152.027 25.3566 151.74 25.643C151.454 25.9294 151.167 26.2158 150.881 26.5022C150.652 26.7887 150.423 27.0464 150.194 27.2756C149.964 27.5047 149.821 27.6479 149.764 27.7052C149.764 27.7052 149.735 27.8484 149.678 28.1348C149.621 28.364 149.535 28.6217 149.42 28.9082C149.363 29.1946 149.306 29.481 149.248 29.7674C149.191 29.9966 149.162 30.1398 149.162 30.1971C148.246 32.8894 147.129 35.5244 145.811 38.1022C144.494 40.6227 143.119 43.0286 141.687 45.32C140.656 47.3249 139.625 49.4158 138.594 51.5926C137.562 53.7693 136.474 55.8602 135.328 57.8651C134.011 60.2711 132.636 62.6483 131.204 64.997C129.829 67.2883 128.626 69.7229 127.595 72.3007C127.48 72.3579 127.309 72.673 127.079 73.2458C126.908 73.8187 126.822 74.191 126.822 74.3629C126.764 74.4202 126.621 74.6493 126.392 75.0503C126.22 75.394 126.02 75.795 125.791 76.2533C125.561 76.6542 125.332 77.0552 125.103 77.4562C124.931 77.7999 124.817 78.0004 124.759 78.0577C124.473 78.9742 124.215 79.9767 123.986 81.0651C123.757 82.1535 123.356 83.1846 122.783 84.1584C122.268 85.075 121.523 86.192 120.549 87.5095C119.633 88.827 118.859 90.0873 118.229 91.2903C118.229 91.4048 118.143 91.7485 117.971 92.3214C117.857 92.8369 117.8 93.1233 117.8 93.1806C117.685 93.3525 117.427 93.6962 117.026 94.2117C116.682 94.7273 116.281 95.3001 115.823 95.9302C115.365 96.5604 114.907 97.1905 114.448 97.8206C114.047 98.4507 113.704 98.9376 113.417 99.2813L112.988 99.7969C112.988 99.9115 112.959 100.141 112.902 100.484C112.844 100.771 112.787 101.114 112.73 101.515C112.673 101.859 112.587 102.203 112.472 102.547C112.415 102.833 112.358 103.005 112.3 103.062C112.3 103.119 112.128 103.406 111.785 103.921C111.441 104.38 111.212 104.723 111.097 104.952C110.181 106.27 109.608 107.559 109.379 108.819C109.207 110.079 108.892 111.426 108.434 112.858C108.434 112.972 108.348 113.201 108.176 113.545C108.004 113.889 107.918 114.089 107.918 114.146C107.803 114.261 107.632 114.633 107.402 115.264C107.231 115.836 107.03 116.466 106.801 117.154C106.572 117.841 106.343 118.471 106.114 119.044C105.942 119.617 105.827 119.989 105.77 120.161C105.655 120.677 105.398 121.021 104.997 121.192C104.596 121.364 104.137 121.45 103.622 121.45C103.221 121.45 102.763 121.192 102.247 120.677C101.731 120.104 101.216 119.474 100.7 118.786C100.185 118.042 99.7265 117.326 99.3255 116.638C98.9818 115.951 98.724 115.435 98.5521 115.092C97.9793 113.144 97.4924 111.196 97.0914 109.249C96.6904 107.301 96.1462 105.468 95.4588 103.749C95.287 103.578 95.0292 103.177 94.6855 102.547C94.3991 101.859 94.084 101.143 93.7403 100.398C93.3966 99.6537 93.0529 98.9663 92.7092 98.3362C92.4228 97.6488 92.2509 97.2191 92.1936 97.0473C92.0791 96.9327 91.9072 96.6176 91.6781 96.1021C91.5062 95.5293 91.3057 94.9278 91.0766 94.2977C90.8475 93.6102 90.6183 92.9801 90.3892 92.4073C90.2173 91.8344 90.0741 91.4621 89.9596 91.2903C89.7304 90.6028 89.5013 90.0586 89.2722 89.6577C89.043 89.1994 88.7852 88.7698 88.4988 88.3688C88.2697 87.9678 88.0119 87.5382 87.7255 87.0799C87.4964 86.6216 87.2672 86.0488 87.0381 85.3614C86.3507 84.3303 85.8351 83.2419 85.4914 82.0962C85.1477 80.9505 84.7467 79.8908 84.2885 78.9169C84.2885 78.9169 84.2025 78.8024 84.0307 78.5732C83.8588 78.3441 83.6583 78.0863 83.4292 77.7999C83.2001 77.4562 82.9709 77.1412 82.7418 76.8547C82.57 76.5683 82.3981 76.3392 82.2263 76.1673L81.6248 75.5658C81.5675 75.4513 81.4243 75.1076 81.1951 74.5347C81.0233 73.9046 80.8228 73.2458 80.5937 72.5584C80.3645 71.871 80.164 71.2409 79.9922 70.6681C79.8203 70.038 79.7344 69.6656 79.7344 69.551C79.2761 68.6918 78.6747 67.8325 77.93 66.9733C77.2426 66.0567 76.6984 65.1975 76.2974 64.3955C76.2974 64.2236 76.1828 63.794 75.9537 63.1066C75.7818 62.4192 75.6959 61.9896 75.6959 61.8177C75.5813 61.7032 75.3522 61.4167 75.0085 60.9585C74.6648 60.4429 74.4929 60.0419 74.4929 59.7555C73.8055 58.9535 73.2327 58.037 72.7744 57.0059C72.3162 55.9748 71.8865 54.915 71.4855 53.8266C71.0845 52.7382 70.6836 51.6498 70.2826 50.5615C69.9389 49.4158 69.5092 48.3274 68.9937 47.2963C68.9937 47.1817 68.8791 46.9812 68.65 46.6948C68.4781 46.3511 68.3922 46.0933 68.3922 45.9215C67.533 44.2602 66.7883 42.4558 66.1581 40.5081C65.5853 38.5032 64.812 36.6128 63.8381 34.837L63.2367 34.3215C62.492 33.2904 61.8619 32.2879 61.3463 31.3141C60.888 30.3403 60.4298 29.3664 59.9715 28.3926C59.5705 27.3615 59.1695 26.359 58.7685 25.3852C58.3675 24.3541 57.8806 23.323 57.3078 22.2919H56.7922H56.5345C56.4199 22.2919 56.2194 22.4351 55.933 22.7215C55.6466 22.9507 55.4461 23.1225 55.3315 23.2371C54.415 24.5546 53.5843 26.1872 52.8397 28.1348C52.095 30.0252 51.5794 31.801 51.293 33.4622V46.8666C51.293 46.9239 51.2643 47.1531 51.2071 47.5541C51.1498 47.8978 51.0639 48.2987 50.9493 48.757C50.892 49.158 50.8347 49.559 50.7774 49.96C50.7202 50.3037 50.6915 50.5042 50.6915 50.5615V50.8192V51.1629C50.6915 51.3348 50.7202 51.7644 50.7774 52.4518C50.8347 53.0819 50.892 53.7693 50.9493 54.514C51.0639 55.2587 51.1498 55.9748 51.2071 56.6622C51.2643 57.2923 51.293 57.6933 51.293 57.8651C51.293 58.4953 51.3503 59.4691 51.4648 60.7866C51.5794 62.1041 51.6367 63.5362 51.6367 65.0829C51.6367 66.6869 51.5794 68.1476 51.4648 69.4651C51.3503 70.7826 51.293 71.7278 51.293 72.3007C51.4648 72.4152 51.6081 72.7303 51.7226 73.2458C51.8945 73.7041 52.0663 74.0765 52.2382 74.3629V74.7925C52.2382 75.8236 51.9804 76.7974 51.4648 77.714C50.9493 78.5732 50.6915 79.5757 50.6915 80.7214C50.6915 80.9505 50.7202 81.4088 50.7774 82.0962C50.8347 82.7836 50.892 83.4996 50.9493 84.2443C51.0639 84.9317 51.1498 85.5905 51.2071 86.2206C51.2643 86.7935 51.293 87.1372 51.293 87.2517C51.293 87.6527 51.3503 88.1683 51.4648 88.7984C51.5794 89.4285 51.6367 89.9727 51.6367 90.431C51.6367 92.0922 51.5508 93.6389 51.3789 95.071C51.2643 96.5031 51.2071 98.0784 51.2071 99.7969C51.2071 101.745 51.2643 103.635 51.3789 105.468C51.4935 107.301 51.7799 109.077 52.2382 110.795C52.2955 111.311 52.496 111.769 52.8397 112.17C53.1834 112.514 53.5557 112.829 53.9567 113.115C54.415 113.345 54.8732 113.545 55.3315 113.717C55.7898 113.889 56.1908 114.032 56.5345 114.146C56.7063 114.146 57.1359 114.175 57.8233 114.232C58.568 114.29 59.3414 114.376 60.1433 114.49C61.0026 114.547 61.7759 114.633 62.4633 114.748C63.208 114.863 63.6663 114.977 63.8381 115.092C64.5256 115.149 65.2702 115.235 66.0722 115.349C66.9315 115.464 67.7048 115.665 68.3922 115.951C69.1369 116.237 69.767 116.667 70.2826 117.24C70.7981 117.813 71.0559 118.586 71.0559 119.56C71.0559 120.133 70.7981 120.62 70.2826 121.021C69.8243 121.364 69.2515 121.679 68.5641 121.966C67.9339 122.195 67.2752 122.367 66.5878 122.481C65.9576 122.596 65.4707 122.653 65.127 122.653H35.7404C34.8239 122.94 34.1365 123.14 33.6782 123.255C33.2199 123.369 32.6185 123.426 31.8738 123.426C30.9 123.426 29.8688 123.369 28.7804 123.255C27.6921 123.14 26.7182 122.94 25.859 122.653C25.5153 122.539 25.1143 122.338 24.656 122.052C24.1977 121.765 23.9686 121.565 23.9686 121.45C23.2812 120.705 22.9375 119.961 22.9375 119.216C22.9375 118.872 22.9948 118.5 23.1094 118.099C23.2812 117.641 23.5676 117.24 23.9686 116.896C23.9686 116.552 24.656 116.295 26.0308 116.123C27.4056 115.894 28.9523 115.607 30.6708 115.264C32.4466 114.92 34.1365 114.462 35.7404 113.889C37.3444 113.316 38.3755 112.514 38.8338 111.483C38.9483 111.311 39.0343 111.082 39.0915 110.795C39.1488 110.509 39.2061 110.194 39.2634 109.85C39.378 109.507 39.4925 109.163 39.6071 108.819C39.7789 108.475 39.9794 108.218 40.2086 108.046C40.3231 107.931 40.4377 107.616 40.5523 107.101C40.7241 106.528 40.8673 105.955 40.9819 105.382C41.1538 104.752 41.2683 104.179 41.3256 103.664C41.4402 103.091 41.4975 102.718 41.4975 102.547C41.5547 102.088 41.612 101.258 41.6693 100.055C41.7839 98.8517 41.8984 97.5915 42.013 96.2739C42.1276 94.9564 42.2135 93.6962 42.2708 92.4932C42.3854 91.2903 42.4426 90.431 42.4426 89.9154C42.4426 89.6863 42.4999 89.3426 42.6145 88.8843C42.7863 88.4261 42.8723 88.1396 42.8723 88.0251V87.6814V87.2517C42.7577 87.0799 42.6718 86.8794 42.6145 86.6503C42.4999 86.192 42.4426 85.9629 42.4426 85.9629V85.791V85.3614C43.0155 83.5283 43.3019 81.6952 43.3019 79.8621C43.3592 78.029 43.4451 76.196 43.5597 74.3629C43.5597 74.191 43.5883 73.9619 43.6456 73.6755C43.7029 73.3318 43.7602 72.9881 43.8175 72.6444C43.932 72.2434 44.0179 71.8997 44.0752 71.6133C44.1325 71.2696 44.1612 71.0404 44.1612 70.9258C44.2184 70.4103 44.2757 69.4651 44.333 68.0903C44.3903 66.7155 44.4476 65.2548 44.5049 63.7081C44.5621 62.1614 44.6194 60.7293 44.6767 59.4118C44.734 58.037 44.7626 57.1205 44.7626 56.6622L45.3641 55.0296C45.536 51.0197 45.8797 47.1244 46.3952 43.3437C46.9681 39.563 47.3118 35.639 47.4263 31.5719L48.0278 31.0563V28.5645C48.0278 27.3042 47.9132 26.1299 47.6841 25.0415C47.5123 23.8958 47.4263 22.6929 47.4263 21.4326V21.2608C47.4263 21.0316 47.5123 20.7739 47.6841 20.4874C47.9132 20.1437 48.0278 19.9146 48.0278 19.8V16.7067C48.0278 15.2173 47.8273 14.043 47.4263 13.1838C47.0253 12.2672 46.4525 11.5512 45.7078 11.0356C44.9631 10.5201 44.0752 10.1191 43.0441 9.83265C42.013 9.48895 40.896 9.14525 39.693 8.80155C39.4066 8.62969 38.9197 8.45784 38.2323 8.28599C37.6022 8.05686 36.9148 7.82772 36.1701 7.59859C35.4254 7.36945 34.7093 7.14032 34.0219 6.91118C33.3345 6.62476 32.819 6.39563 32.4753 6.22377C32.1888 6.10921 31.9024 5.79415 31.616 5.27859C31.3869 4.70575 31.2723 4.27612 31.2723 3.98971C31.2723 3.646 31.3869 3.33094 31.616 3.04452C31.8451 2.7581 32.1029 2.50033 32.3893 2.27119C32.733 1.98477 33.0481 1.78428 33.3345 1.66971C33.6782 1.49786 33.9646 1.38329 34.1938 1.32601H42.8723C46.1374 1.32601 49.3453 1.49786 52.496 1.84156C55.7038 2.12798 58.9404 2.27119 62.2056 2.27119C62.7784 2.27119 63.3512 2.24255 63.9241 2.18526C64.4969 2.12798 65.0984 2.09934 65.7285 2.09934C66.8742 2.09934 67.8767 2.50033 68.7359 3.3023C69.5952 4.10427 70.3112 5.0781 70.8841 6.22377C71.5142 7.31217 72.0584 8.45784 72.5166 9.6608C72.9749 10.8638 73.4045 11.8662 73.8055 12.6682C73.8055 12.7255 73.8915 12.9546 74.0633 13.3556C74.2352 13.6993 74.4357 14.1003 74.6648 14.5586C74.8939 14.9596 75.0944 15.3605 75.2663 15.7615C75.4954 16.1625 75.6386 16.4203 75.6959 16.5349C75.6959 16.5921 75.7245 16.764 75.7818 17.0504C75.8391 17.2796 75.8964 17.5373 75.9537 17.8237C76.0682 18.1102 76.1542 18.3679 76.2115 18.5971C76.2687 18.8262 76.2974 18.9694 76.2974 19.0267C76.2974 19.1413 76.3833 19.3704 76.5552 19.7141C76.7843 20.0578 77.0134 20.4302 77.2426 20.8312C77.4717 21.1749 77.6722 21.5186 77.844 21.8623C78.0732 22.1487 78.1877 22.2919 78.1877 22.2919C78.245 22.4637 78.3596 22.8934 78.5314 23.5808C78.7606 24.2682 78.9897 24.9842 79.2189 25.7289C79.448 26.4163 79.6485 27.0751 79.8203 27.7052C79.9922 28.3353 80.1068 28.7077 80.164 28.8222C80.3359 29.1087 80.5937 29.6529 80.9374 30.4548C81.2811 31.1995 81.6534 32.0015 82.0544 32.8608C82.5127 33.72 82.9423 34.5506 83.3433 35.3526C83.7443 36.0973 84.0593 36.6701 84.2885 37.0711C84.2885 37.1284 84.4603 37.3289 84.804 37.6726C85.1477 37.959 85.3769 38.1309 85.4914 38.1881C85.5487 38.36 85.6346 38.5318 85.7492 38.7037C85.9783 39.0474 86.0929 39.2765 86.0929 39.3911C86.6085 40.8232 87.124 42.2839 87.6396 43.7733C88.1551 45.2054 88.7852 46.6375 89.5299 48.0696C89.5299 48.1269 89.7018 48.3274 90.0455 48.6711C90.3892 49.0148 90.6183 49.2439 90.7329 49.3585C90.8475 49.4731 91.0193 49.7595 91.2485 50.2178C91.4776 50.6187 91.7067 51.1057 91.9359 51.6785C92.2223 52.2513 92.4801 52.8242 92.7092 53.397C92.9956 53.9126 93.2247 54.3135 93.3966 54.6C93.3966 54.6572 93.4825 54.9437 93.6544 55.4592C93.8835 55.9748 93.9981 56.3758 93.9981 56.6622C94.2272 57.5787 94.4564 58.3521 94.6855 58.9822C94.9719 59.6123 95.287 60.1851 95.6307 60.7007C95.9744 61.2162 96.3467 61.7604 96.7477 62.3333C97.1487 62.9061 97.5783 63.5935 98.0366 64.3955C98.0366 64.4528 98.0939 64.6246 98.2084 64.911C98.3803 65.1402 98.5235 65.398 98.6381 65.6844C98.8099 65.9135 98.9531 66.1713 99.0677 66.4577C99.1823 66.6869 99.2682 66.8301 99.3255 66.8873C100.127 68.8923 101.044 70.9545 102.075 73.074C103.163 75.1935 104.023 77.313 104.653 79.4325C104.653 79.4898 104.682 79.6903 104.739 80.034C104.796 80.3204 104.853 80.6641 104.911 81.0651C104.968 81.4088 105.025 81.7525 105.082 82.0962C105.197 82.4399 105.254 82.6404 105.254 82.6977C105.254 82.755 105.34 82.9268 105.512 83.2132C105.741 83.4996 105.999 83.8147 106.285 84.1584C106.572 84.5021 106.858 84.8458 107.145 85.1895C107.431 85.5332 107.689 85.791 107.918 85.9629C108.376 86.593 108.835 87.1085 109.293 87.5095C109.808 87.8532 110.467 88.0251 111.269 88.0251C111.498 88.0251 111.785 87.8246 112.128 87.4236C112.529 87.0226 112.902 86.5643 113.245 86.0488C113.646 85.5332 114.019 85.0177 114.362 84.5021C114.706 83.9866 114.935 83.5856 115.05 83.2992C115.852 81.9816 116.453 80.6355 116.854 79.2607C117.255 77.8286 117.714 76.3392 118.229 74.7925L118.917 74.3629C118.917 74.191 118.945 73.9619 119.002 73.6755C119.06 73.3891 119.117 73.1026 119.174 72.8162C119.289 72.5298 119.375 72.272 119.432 72.0429C119.489 71.8138 119.518 71.6992 119.518 71.6992C119.518 71.5273 119.575 71.2696 119.69 70.9258C119.804 70.5822 119.948 70.2384 120.119 69.8947C120.291 69.551 120.435 69.236 120.549 68.9496C120.721 68.6631 120.836 68.4913 120.893 68.434C120.95 68.3767 121.065 68.2335 121.237 68.0044C121.466 67.718 121.666 67.4029 121.838 67.0592C122.067 66.7155 122.268 66.4291 122.439 66.1999C122.669 65.9135 122.783 65.7417 122.783 65.6844C122.84 65.6844 122.898 65.5412 122.955 65.2548C123.07 64.9683 123.156 64.6819 123.213 64.3955C123.27 64.0518 123.299 63.7654 123.299 63.5362C123.356 63.2498 123.385 63.078 123.385 63.0207C123.499 62.8488 123.671 62.5338 123.9 62.0755C124.187 61.6172 124.473 61.1303 124.759 60.6148C125.046 60.0419 125.304 59.5264 125.533 59.0681C125.819 58.5525 126.02 58.1516 126.134 57.8651C127.796 54.8864 129.371 51.8217 130.86 48.6711C132.35 45.4632 133.839 42.3699 135.328 39.3911C135.386 39.3338 135.5 39.162 135.672 38.8756C135.901 38.5318 136.13 38.1881 136.359 37.8444C136.589 37.4435 136.789 37.0998 136.961 36.8133C137.19 36.4696 137.333 36.2405 137.391 36.1259C137.448 36.0114 137.562 35.7822 137.734 35.4385C137.906 35.0375 138.107 34.6366 138.336 34.2356C138.565 33.7773 138.765 33.3763 138.937 33.0326C139.109 32.6316 139.195 32.3738 139.195 32.2593C140.112 30.5408 140.914 28.7936 141.601 27.0178C142.288 25.1847 143.004 23.4089 143.749 21.6904C143.749 21.5758 143.835 21.2608 144.007 20.7452C144.236 20.2297 144.351 19.9146 144.351 19.8C144.465 19.6855 144.809 19.3704 145.382 18.8549C146.012 18.3393 146.384 17.967 146.499 17.7378C146.499 17.6805 146.527 17.5373 146.585 17.3082C146.642 17.0791 146.699 16.8499 146.756 16.6208C146.814 16.3344 146.871 16.0766 146.928 15.8475C146.986 15.561 147.014 15.3892 147.014 15.3319C147.186 14.9309 147.415 14.4726 147.702 13.9571C148.045 13.4415 148.389 12.9546 148.733 12.4964C149.076 11.9808 149.392 11.5225 149.678 11.1215C149.964 10.6633 150.194 10.2909 150.365 10.0045C150.766 9.3171 151.11 8.60105 151.396 7.85636C151.683 7.11167 151.998 6.39563 152.342 5.70822C152.685 4.96353 153.058 4.27612 153.459 3.646C153.86 3.01588 154.404 2.50033 155.091 2.09934C155.378 1.8702 155.865 1.61243 156.552 1.32601C157.239 1.03959 157.64 0.896379 157.755 0.896379H173.995C174.224 0.781811 174.654 0.638601 175.284 0.46675C175.971 0.237615 176.429 0.123047 176.659 0.123047H177.26C177.89 0.123047 178.549 0.266256 179.236 0.552676C179.924 0.781811 180.583 0.896379 181.213 0.896379C181.728 0.896379 182.244 0.781811 182.759 0.552676C183.332 0.266256 183.876 0.123047 184.392 0.123047H185.079C185.308 0.123047 185.709 0.151689 186.282 0.208973C186.855 0.266256 187.457 0.352182 188.087 0.46675C188.717 0.524034 189.318 0.609959 189.891 0.724527C190.464 0.781811 190.865 0.839095 191.094 0.896379C191.438 1.01095 191.638 1.21144 191.696 1.49786C191.753 1.78428 191.782 2.04206 191.782 2.27119C191.782 2.90131 191.724 3.41687 191.61 3.81785C191.495 4.21884 191.323 4.73439 191.094 5.36452C190.922 5.4218 190.636 5.53637 190.235 5.70822C189.891 5.82279 189.519 5.93736 189.118 6.05192C188.717 6.16649 188.316 6.28106 187.915 6.39563C187.571 6.51019 187.342 6.56748 187.227 6.56748C186.769 6.62476 185.996 6.71069 184.908 6.82525C183.876 6.88254 182.759 6.96846 181.556 7.08303C180.411 7.14032 179.294 7.1976 178.205 7.25488C177.174 7.31217 176.458 7.34081 176.057 7.34081C175.255 8.0855 174.482 8.9734 173.737 10.0045C172.992 10.9783 172.62 12.0954 172.62 13.3556V22.2919V31.5719C172.735 33.2331 172.992 34.837 173.393 36.3837C173.794 37.9304 173.995 39.5343 173.995 41.1955V43.0859C173.995 43.4869 173.966 43.8879 173.909 44.2889C173.909 44.6326 173.766 44.9763 173.479 45.32V63.6222C173.766 64.3096 173.909 64.8824 173.909 65.3407C173.966 65.7417 173.995 66.2572 173.995 66.8873V68.434C173.709 70.6108 173.279 72.7589 172.706 74.8784C172.133 76.9979 171.847 79.2893 171.847 81.7525C171.847 82.3826 171.933 82.9555 172.105 83.471C172.276 83.9866 172.448 84.5021 172.62 85.0177C172.849 85.5332 173.05 86.0774 173.222 86.6503C173.393 87.2231 173.479 87.8819 173.479 88.6266V109.592C173.537 109.707 173.68 109.936 173.909 110.28C174.195 110.566 174.453 110.881 174.682 111.225C174.969 111.569 175.227 111.912 175.456 112.256C175.742 112.543 175.943 112.743 176.057 112.858C176.63 113.545 177.461 114.003 178.549 114.232C179.637 114.462 180.812 114.605 182.072 114.662C183.332 114.719 184.621 114.777 185.939 114.834C187.256 114.834 188.43 115.006 189.462 115.349C190.55 115.693 191.438 116.266 192.125 117.068C192.813 117.813 193.156 118.93 193.156 120.419C193.156 121.737 192.612 122.653 191.524 123.169C190.493 123.742 189.404 124.028 188.259 124.028H186.454C186.34 124.028 186.11 123.999 185.767 123.942C185.48 123.885 185.137 123.799 184.736 123.684C184.392 123.627 184.077 123.541 183.79 123.426C183.504 123.369 183.361 123.312 183.361 123.255C183.074 123.255 182.473 123.226 181.556 123.169C180.697 123.169 179.723 123.14 178.635 123.083C177.604 123.025 176.601 122.94 175.628 122.825C174.654 122.768 173.938 122.71 173.479 122.653C172.677 122.653 172.019 122.625 171.503 122.567C170.988 122.51 170.214 122.338 169.183 122.052H164.887C161.736 122.052 158.614 122.166 155.521 122.395C152.428 122.567 149.306 122.653 146.155 122.653H139.195C138.737 122.653 138.221 122.596 137.648 122.481C137.133 122.309 136.646 122.08 136.188 121.794C135.729 121.507 135.328 121.164 134.985 120.763C134.698 120.305 134.555 119.789 134.555 119.216Z" fill="#030089"/>
</svg>
