<svg width="215" height="18" viewBox="0 0 215 18" fill="none" xmlns="http://www.w3.org/2000/svg">
<path fill-rule="evenodd" clip-rule="evenodd" d="M11.6287 7.53966L11.6312 7.53724C12.5425 6.63415 13.6993 6.2 14.86 6.2C16.2194 6.2 17.5568 6.79576 18.4719 7.96871L18.4728 7.96983L22.5305 13.1869L22.5313 13.1879C24.6693 15.9396 27.8646 17.35 31.04 17.35C33.7768 17.35 36.5427 16.3057 38.6542 14.1942L45.3087 7.53966L45.3116 7.53683C46.2229 6.63402 47.3794 6.2 48.54 6.2C49.8994 6.2 51.2368 6.79576 52.1519 7.96871L52.1528 7.96983L56.2105 13.1869L56.2113 13.1879C58.3493 15.9396 61.5446 17.35 64.72 17.35C67.4568 17.35 70.2227 16.3057 72.3342 14.1942L78.9887 7.53966L78.9912 7.53719C79.9026 6.63414 81.0593 6.2 82.22 6.2C83.5795 6.2 84.9169 6.79582 85.832 7.96886L85.8328 7.96983L89.8905 13.1869L89.8913 13.1879C92.0293 15.9396 95.2246 17.35 98.4 17.35C101.137 17.35 103.903 16.3057 106.014 14.1942L112.669 7.53966L112.671 7.53719C113.583 6.63414 114.739 6.2 115.9 6.2C117.259 6.2 118.597 6.79566 119.512 7.96842L119.513 7.96983L123.571 13.1869L123.571 13.1879C125.709 15.9396 128.905 17.35 132.08 17.35C134.817 17.35 137.583 16.3057 139.694 14.1942L146.349 7.53966L146.352 7.53639C147.263 6.63388 148.42 6.2 149.58 6.2C150.94 6.2 152.278 6.79614 153.193 7.96983L157.251 13.1869C159.389 15.9392 162.584 17.35 165.76 17.35C168.497 17.35 171.263 16.3057 173.374 14.1942L180.029 7.53966L180.032 7.53658C180.943 6.63394 182.1 6.2 183.26 6.2C184.62 6.2 185.958 6.79614 186.873 7.96983L190.931 13.1869C193.068 15.9392 196.264 17.35 199.44 17.35C202.177 17.35 204.943 16.3057 207.054 14.1942L213.714 7.53421C214.495 6.75317 214.495 5.48684 213.714 4.70579L212.154 3.14579C211.779 2.77053 211.27 2.5598 210.739 2.56C210.209 2.5602 209.7 2.77131 209.325 3.14685L202.676 9.80579C201.778 10.7033 200.625 11.14 199.45 11.14C198.09 11.14 196.752 10.5439 195.837 9.37017L191.779 4.15212L191.767 4.13662C189.604 1.4115 186.418 0 183.24 0C180.503 0 177.737 1.0443 175.626 3.15579L168.966 9.81579C168.068 10.7133 166.915 11.15 165.74 11.15C164.38 11.15 163.042 10.5539 162.127 9.38017L158.069 4.1631C155.931 1.41075 152.736 0 149.56 0C146.823 0 144.057 1.04431 141.946 3.15579L135.286 9.81579C134.388 10.7133 133.235 11.15 132.06 11.15C130.701 11.15 129.363 10.5543 128.448 9.38158L128.447 9.38017L124.389 4.1631L124.389 4.16212C122.251 1.41135 119.067 0 115.88 0C113.143 0 110.377 1.04431 108.266 3.15579L101.606 9.81579C100.708 10.7133 99.5548 11.15 98.38 11.15C97.0206 11.15 95.6834 10.5543 94.7683 9.38158L94.7672 9.38017L90.7129 4.16751L90.71 4.16385C88.5805 1.40897 85.3833 0 82.21 0C79.4732 0 76.7073 1.04431 74.5958 3.15579L67.9358 9.81579C67.0383 10.7133 65.8848 11.15 64.71 11.15C63.3505 11.15 62.0132 10.5542 61.098 9.38129L61.0972 9.38017L57.0394 4.1631L57.0387 4.16212C54.9014 1.41135 51.7166 0 48.53 0C45.7932 0 43.0273 1.04431 40.9158 3.15579L34.2558 9.81579C33.3583 10.7133 32.2048 11.15 31.03 11.15C29.6705 11.15 28.3331 10.5542 27.4179 9.38114L27.4172 9.38017L23.3629 4.16751L23.3605 4.16444C21.2303 1.40824 18.0323 0 14.85 0C12.1132 0 9.34725 1.04431 7.23577 3.15579L0.584709 9.81685C-0.195338 10.5981 -0.194862 11.8636 0.585771 12.6442L2.14577 14.2042C2.71777 14.7762 3.578 14.9473 4.32535 14.6378C4.62698 14.5128 4.88624 14.3195 5.08821 14.0802L11.6287 7.53966Z" fill="#030089"/>
</svg>
