<svg width="30" height="21" viewBox="0 0 30 21" fill="none" xmlns="http://www.w3.org/2000/svg">
<path d="M29.6484 0.351591C29.5371 0.239987 29.4049 0.151474 29.2593 0.0911361C29.1137 0.0307986 28.9576 -0.000172993 28.8 7.26755e-07H1.20001C0.892944 7.26755e-07 0.585872 0.117234 0.351479 0.351591C0.117122 0.585947 0 0.892908 0 1.19998V19.3453C0 19.6524 0.117122 19.9594 0.351479 20.1937C0.585835 20.4281 0.892906 20.5453 1.20001 20.5453H28.8C29.107 20.5453 29.4141 20.4281 29.6484 20.1937C29.8828 19.9594 30 19.6524 30 19.3453V1.20002C30 0.892907 29.8828 0.585947 29.6484 0.351591Z" fill="white"/>
<path d="M26.6796 1.80078L14.9491 11.914L3.3125 1.80078H26.6796Z" fill="#051858"/>
<path d="M1.79688 2.87305L7.99139 8.25671L1.79688 16.8559V2.87305Z" fill="#10287D"/>
<path d="M2.65625 18.7458L9.35932 9.44336L13.7633 13.2707C14.1055 13.5684 14.5437 13.7348 15.0008 13.7348C15.4551 13.7345 15.8939 13.5696 16.2359 13.2707L20.6422 9.44336L27.3406 18.7458H2.65625Z" fill="#2F479D"/>
<path d="M28.2001 16.8559L22.0078 8.25671L28.2001 2.87305V16.8559Z" fill="#10287D"/>
</svg>
