<svg width="95" height="59" viewBox="0 0 95 59" fill="none" xmlns="http://www.w3.org/2000/svg">
<path d="M73.5859 58.3613C73.5859 58.2063 73.593 58.0583 73.6071 57.9174C73.6353 57.7765 73.7057 57.6567 73.8184 57.5581C73.8748 57.5581 73.9875 57.551 74.1566 57.537C74.3257 57.5088 74.4948 57.4876 74.6639 57.4735C74.8471 57.4454 75.0162 57.4172 75.1712 57.389C75.3403 57.3608 75.46 57.3467 75.5305 57.3467C75.8546 57.3045 76.08 57.1706 76.2068 56.9451C76.3478 56.7197 76.4393 56.452 76.4816 56.142C76.5239 55.832 76.5521 55.5149 76.5662 55.1908C76.5803 54.8526 76.6366 54.5567 76.7353 54.3031C76.7493 54.1199 76.7564 53.8099 76.7564 53.3731C76.7705 52.9222 76.7846 52.4501 76.7987 51.957C76.8128 51.4638 76.8198 50.9988 76.8198 50.562C76.8339 50.111 76.8409 49.8011 76.8409 49.632C76.8409 49.5897 76.8409 49.484 76.8409 49.3149C76.855 49.1317 76.8621 48.9274 76.8621 48.702C76.8621 48.4765 76.8621 48.2511 76.8621 48.0256C76.8762 47.7861 76.8832 47.5888 76.8832 47.4338C76.8832 47.3211 76.8762 47.1661 76.8621 46.9688C76.8621 46.7574 76.8621 46.5531 76.8621 46.3558C76.8621 46.1586 76.855 45.9824 76.8409 45.8274C76.8409 45.6583 76.8409 45.5597 76.8409 45.5315C76.8409 45.4892 76.8339 45.4047 76.8198 45.2779C76.8198 45.1511 76.8128 45.0172 76.7987 44.8763C76.7846 44.7354 76.7705 41.1456 76.7564 41.0328C76.7564 40.9201 76.7493 40.8497 76.7353 40.8215C76.7212 40.7651 76.6648 40.6876 76.5662 40.589C76.4675 40.4903 76.39 40.4128 76.3337 40.3565C76.3055 40.2438 76.2139 40.1099 76.0589 39.9549C75.9039 39.7858 75.7912 39.6872 75.7207 39.659C75.5798 39.5603 75.4178 39.511 75.2346 39.511C75.0514 39.4969 74.8682 39.4828 74.685 39.4688C74.5018 39.4547 74.3398 39.4124 74.1989 39.3419C74.058 39.2715 73.9664 39.1165 73.9241 38.8769C73.9241 38.8488 73.9453 38.7994 73.9875 38.729C74.0439 38.6444 74.0862 38.5881 74.1143 38.5599C74.1284 38.5176 74.1637 38.4683 74.22 38.4119C74.2905 38.3415 74.3609 38.271 74.4314 38.2006C74.5018 38.1301 74.5653 38.0738 74.6216 38.0315C74.6921 37.9751 74.7414 37.9399 74.7696 37.9258C74.7837 37.8976 74.8612 37.8342 75.0021 37.7356C75.1571 37.6369 75.3403 37.5313 75.5516 37.4185C75.763 37.2917 75.9743 37.1719 76.1857 37.0592C76.4112 36.9324 76.5943 36.8338 76.7353 36.7633C76.9607 36.6365 77.2143 36.5378 77.4962 36.4674C77.778 36.3828 78.0528 36.2772 78.3205 36.1503C78.56 35.9953 78.7573 35.8474 78.9123 35.7065C79.0814 35.5656 79.3068 35.4951 79.5887 35.4951C79.8564 35.4951 80.0537 35.6008 80.1805 35.8122C80.3073 36.0094 80.3989 36.249 80.4553 36.5308C80.5116 36.7985 80.5468 37.0803 80.5609 37.3763C80.575 37.6581 80.5962 37.8906 80.6243 38.0738C80.6243 38.1301 80.6243 38.2288 80.6243 38.3697C80.6384 38.4965 80.6455 38.6374 80.6455 38.7924C80.6596 38.9474 80.6737 39.0953 80.6878 39.2363C80.7018 39.3772 80.7159 39.4828 80.73 39.5533C80.8005 39.666 80.8709 43.2136 80.9414 43.2699C81.0118 43.3122 81.1105 43.3333 81.2373 43.3333H81.4275C81.4557 43.2911 81.505 43.2347 81.5755 43.1642C81.6459 43.0797 81.7234 42.9951 81.808 42.9106C81.8925 42.8261 81.97 42.7486 82.0405 42.6781C82.1109 42.5936 82.1603 42.5301 82.1884 42.4879C82.1884 42.4738 82.2166 42.4245 82.273 42.3399C82.3434 42.2554 82.3787 42.199 82.3787 42.1708C82.5055 41.9736 82.6534 41.8467 82.8225 41.7904C83.0057 41.7199 83.1748 41.5861 83.3298 41.3888C83.6539 40.952 83.9991 40.5997 84.3655 40.332C84.7318 40.0501 85.1546 39.7472 85.6337 39.4231C85.9437 39.1836 86.2818 39.0497 86.6482 39.0215C87.0146 38.9792 87.4021 38.9581 87.8107 38.9581C88.1489 38.9581 88.4518 38.9863 88.7196 39.0426C89.0014 39.099 89.2621 39.1836 89.5016 39.2963C89.7412 39.3949 89.9737 39.5217 90.1991 39.6767C90.4387 39.8317 90.6782 40.0149 90.9178 40.2263C91.1996 40.4799 91.4884 40.7688 91.7843 41.0929C92.0943 41.417 92.3057 41.7763 92.4184 42.1708C92.4184 42.2695 92.4255 42.4104 92.4396 42.5936C92.4678 42.7626 92.4959 42.9317 92.5241 43.1008C92.5664 43.2699 92.6016 43.4249 92.6298 43.5658C92.658 43.7067 92.6791 43.7913 92.6932 43.8195V45.4258C92.6932 45.4399 92.7003 45.4963 92.7143 45.5949C92.7284 45.6795 92.7425 45.7781 92.7566 45.8908C92.7848 45.9895 92.8059 46.0881 92.82 46.1867C92.8482 46.2854 92.8623 46.3488 92.8623 46.377V46.5461V46.694C92.8623 46.7363 92.8482 46.8349 92.82 46.9899C92.8059 47.1449 92.7848 47.314 92.7566 47.4972C92.7425 47.6804 92.7284 47.8565 92.7143 48.0256C92.7003 48.1806 92.6932 48.2863 92.6932 48.3426V49.484V52.3585C92.6932 52.3867 92.6862 52.4501 92.6721 52.5488C92.658 52.6474 92.6368 52.7531 92.6087 52.8658C92.5946 52.9645 92.5805 53.0631 92.5664 53.1617C92.5523 53.2463 92.5453 53.2956 92.5453 53.3097V55.5079C92.5453 55.7051 92.5593 55.9376 92.5875 56.2054C92.6157 56.459 92.7073 56.7056 92.8623 56.9451C93.0173 56.917 93.1653 56.8958 93.3062 56.8817C93.4612 56.8676 93.6162 56.8606 93.7712 56.8606C93.9262 56.8606 94.0741 56.8676 94.215 56.8817C94.3559 56.8958 94.4898 56.917 94.6166 56.9451C94.6589 56.9451 94.7153 56.9945 94.7857 57.0931C94.8703 57.1776 94.9266 57.2481 94.9548 57.3045C94.9548 57.3326 94.9618 57.3679 94.9759 57.4101C94.9759 57.4383 94.9759 57.4665 94.9759 57.4947C94.99 57.5229 94.9971 57.544 94.9971 57.5581C94.9971 57.6849 94.9618 57.8188 94.8914 57.9597C94.835 58.0865 94.7575 58.2063 94.6589 58.319C94.5743 58.4317 94.4687 58.5233 94.3418 58.5938C94.2291 58.6642 94.1164 58.6995 94.0037 58.6995H93.8557C93.8275 58.6854 93.7571 58.6642 93.6443 58.636C93.5316 58.6079 93.4118 58.5867 93.285 58.5726C93.1582 58.5585 93.0314 58.5445 92.9046 58.5304C92.7918 58.5163 92.7214 58.5092 92.6932 58.5092C92.6509 58.5092 92.5382 58.5163 92.355 58.5304C92.1859 58.5445 91.9957 58.5585 91.7843 58.5726C91.573 58.5867 91.3687 58.6079 91.1714 58.636C90.9741 58.6642 90.8332 58.6854 90.7487 58.6995C90.7205 58.6995 90.643 58.7135 90.5162 58.7417C90.3893 58.784 90.3048 58.8051 90.2625 58.8051H87.853C87.8107 58.8192 87.7191 58.8333 87.5782 58.8474C87.4373 58.8615 87.2823 58.8756 87.1132 58.8897C86.9582 58.9038 86.8103 58.9179 86.6693 58.932C86.5284 58.946 86.4368 58.9531 86.3946 58.9531H86.1409C86.0705 58.9531 86 58.9108 85.9296 58.8263C85.8591 58.7417 85.7957 58.6431 85.7393 58.5304C85.683 58.4176 85.6337 58.2979 85.5914 58.171C85.5632 58.0442 85.5491 57.9385 85.5491 57.854C85.5491 57.6708 85.6689 57.537 85.9084 57.4524C86.1621 57.3679 86.4439 57.3045 86.7539 57.2622C87.078 57.2199 87.388 57.1847 87.6839 57.1565C87.9939 57.1142 88.2123 57.0508 88.3391 56.9663C88.3814 56.9381 88.4307 56.8747 88.4871 56.776C88.5575 56.6774 88.628 56.5717 88.6984 56.459C88.7689 56.3463 88.8253 56.2335 88.8675 56.1208C88.9239 56.0081 88.9662 55.9165 88.9943 55.846C89.0366 55.7192 89.0648 55.6206 89.0789 55.5501C89.093 55.4656 89.1071 55.3951 89.1212 55.3388C89.1353 55.2683 89.1423 55.1979 89.1423 55.1274C89.1423 55.0429 89.1423 54.9372 89.1423 54.8104V53.3097C89.1423 53.2674 89.1423 53.1547 89.1423 52.9715C89.1423 52.7883 89.1423 52.591 89.1423 52.3797C89.1564 52.1542 89.1634 51.9499 89.1634 51.7667C89.1634 51.5695 89.1634 51.4497 89.1634 51.4074C89.1493 51.2524 89.1353 51.0129 89.1212 50.6888C89.1212 50.3647 89.1141 50.0054 89.1 49.6108C89.0859 49.2022 89.0718 48.7795 89.0578 48.3426C89.0578 47.8917 89.0507 47.469 89.0366 47.0745C89.0366 46.6658 89.0366 46.3065 89.0366 45.9965C89.0366 45.6724 89.0366 45.4329 89.0366 45.2779C89.0084 44.9256 88.9168 44.5592 88.7618 44.1788C88.6209 43.7983 88.4237 43.4531 88.17 43.1431C87.9164 42.819 87.6275 42.5583 87.3034 42.3611C86.9793 42.1497 86.6271 42.037 86.2466 42.0229C86.0916 42.0088 85.9155 42.0158 85.7182 42.044C85.5209 42.0722 85.3166 42.1074 85.1053 42.1497C84.8939 42.192 84.6896 42.2483 84.4923 42.3188C84.295 42.3751 84.1118 42.4315 83.9428 42.4879C83.8582 42.5301 83.7243 42.5936 83.5412 42.6781C83.3721 42.7626 83.203 42.8542 83.0339 42.9529C82.8648 43.0374 82.7098 43.1149 82.5689 43.1854C82.4421 43.2558 82.3787 43.3051 82.3787 43.3333C82.3364 43.3615 82.2518 43.4531 82.125 43.6081C82.0123 43.7631 81.8925 43.9322 81.7657 44.1154C81.653 44.2986 81.5403 44.4676 81.4275 44.6226C81.3289 44.7776 81.2655 44.8763 81.2373 44.9186C80.9837 45.2849 80.8357 45.6654 80.7934 46.0599C80.7653 46.4545 80.7089 46.8772 80.6243 47.3281C80.5962 47.3845 80.5609 47.4972 80.5187 47.6663C80.4905 47.8354 80.4764 47.9551 80.4764 48.0256V49.2938C80.4764 49.3361 80.4623 49.4347 80.4341 49.5897C80.4059 49.7447 80.3778 49.9138 80.3496 50.097C80.3214 50.2801 80.2932 50.4563 80.265 50.6254C80.2368 50.7804 80.2228 50.8861 80.2228 50.9424V53.0983C80.2228 53.4788 80.2228 53.824 80.2228 54.134C80.2228 54.444 80.2298 54.747 80.2439 55.0429C80.2721 55.3247 80.3003 55.6206 80.3284 55.9306C80.3566 56.2265 80.4059 56.5647 80.4764 56.9451C80.5609 57.1001 80.6807 57.1988 80.8357 57.241C81.0048 57.2833 81.188 57.3045 81.3853 57.3045C81.498 57.3045 81.6107 57.2974 81.7234 57.2833C81.8362 57.2692 81.9559 57.2622 82.0828 57.2622C82.28 57.2622 82.4562 57.3679 82.6112 57.5792C82.7662 57.7765 82.8437 57.9879 82.8437 58.2133C82.8437 58.467 82.745 58.636 82.5478 58.7206C82.3505 58.8051 82.1321 58.8474 81.8925 58.8474C81.7798 58.8474 81.6741 58.8404 81.5755 58.8263C81.4909 58.8122 81.4134 58.8051 81.343 58.8051C80.9062 58.8051 80.4693 58.777 80.0325 58.7206C79.5957 58.6783 79.1589 58.6572 78.7221 58.6572C78.1725 58.6572 77.6089 58.6783 77.0312 58.7206C76.4534 58.777 75.8687 58.8051 75.2768 58.8051C75.1782 58.8051 75.0443 58.8122 74.8753 58.8263C74.7062 58.8545 74.5512 58.8685 74.4103 58.8685C74.1848 58.8685 73.9875 58.8333 73.8184 58.7629C73.6634 58.6924 73.5859 58.5585 73.5859 58.3613Z" fill="#030089"/>
<path d="M63.3625 51.2917V53.8915C63.3625 53.9619 63.3696 54.0535 63.3837 54.1662C63.3978 54.279 63.4048 54.3987 63.4048 54.5255C63.4189 54.6524 63.433 54.7651 63.4471 54.8637C63.4612 54.9624 63.4682 55.0187 63.4682 55.0328C63.5105 55.0469 63.6162 55.1385 63.7853 55.3076C63.9543 55.4626 64.0812 55.5894 64.1657 55.688C64.4616 55.9699 64.8068 56.2305 65.2014 56.4701C65.5959 56.6955 66.0328 56.8083 66.5118 56.8083C66.8782 56.8083 67.2868 56.7449 67.7378 56.618C68.2028 56.4771 68.6537 56.294 69.0905 56.0685C69.5414 55.829 69.95 55.5542 70.3164 55.2442C70.6828 54.9342 70.9505 54.596 71.1196 54.2296C71.1196 54.2155 71.1266 54.1662 71.1407 54.0817C71.1548 53.9971 71.1618 53.9126 71.1618 53.828C71.1759 53.7294 71.19 53.6449 71.2041 53.5744C71.2182 53.504 71.2253 53.4617 71.2253 53.4476C71.3239 53.1376 71.4084 52.8487 71.4789 52.581C71.5634 52.3133 71.6409 52.0455 71.7114 51.7778C71.7818 51.5101 71.8453 51.2353 71.9016 50.9535C71.9721 50.6576 72.0284 50.3335 72.0707 49.9812V49.3471C72.0989 49.2062 72.1482 49.0653 72.2187 48.9244C72.2891 48.7835 72.3243 48.6215 72.3243 48.4383C72.3243 48.2128 72.2891 48.0155 72.2187 47.8465C72.1482 47.6774 72.0989 47.5083 72.0707 47.3392C72.0566 47.2828 72.0355 47.1842 72.0073 47.0433C71.9932 46.9024 71.9721 46.7544 71.9439 46.5994C71.9298 46.4303 71.9157 46.2753 71.9016 46.1344C71.8875 45.9794 71.8805 45.8808 71.8805 45.8385C71.8805 45.8385 71.8664 45.8103 71.8382 45.754C71.81 45.6976 71.7748 45.6342 71.7325 45.5637C71.7043 45.4933 71.6691 45.4228 71.6268 45.3524C71.5846 45.2819 71.5493 45.2255 71.5212 45.1833L71.4155 45.0776C71.3309 44.8099 71.2534 44.5351 71.183 44.2533C71.1125 43.9574 71.0421 43.6615 70.9716 43.3655C70.9012 43.0696 70.8166 42.7878 70.718 42.5201C70.6193 42.2524 70.4855 42.0058 70.3164 41.7803C70.1332 41.6253 69.8584 41.4844 69.4921 41.3576C69.1398 41.2167 68.8509 41.0899 68.6255 40.9771C68.4705 40.9067 68.3014 40.8433 68.1182 40.7869C67.9491 40.7165 67.7589 40.6812 67.5475 40.6812C67.2375 40.6812 66.8993 40.7165 66.533 40.7869C66.1807 40.8574 65.8355 40.963 65.4973 41.104C65.1591 41.2449 64.8562 41.428 64.5884 41.6535C64.3207 41.8649 64.1234 42.1255 63.9966 42.4355C63.9684 42.4637 63.9403 42.5342 63.9121 42.6469C63.898 42.7596 63.8839 42.8794 63.8698 43.0062C63.8557 43.133 63.8416 43.2528 63.8275 43.3655C63.8134 43.4783 63.8064 43.5487 63.8064 43.5769C63.6937 44.1687 63.6232 44.7605 63.595 45.3524C63.5809 45.9442 63.5387 46.536 63.4682 47.1278C63.4682 47.1701 63.4612 47.2617 63.4471 47.4026C63.433 47.5435 63.4189 47.6985 63.4048 47.8676C63.4048 48.0226 63.3978 48.1705 63.3837 48.3115C63.3696 48.4383 63.3625 48.5158 63.3625 48.544V51.2917ZM60.9953 57.4424C60.798 57.4424 60.6078 57.4987 60.4246 57.6115C60.2414 57.7101 60.0653 57.7594 59.8962 57.7594C59.7975 57.7594 59.7271 57.696 59.6848 57.5692C59.6425 57.4424 59.565 57.3508 59.4523 57.2944V51.503C59.5509 51.1649 59.6143 50.8408 59.6425 50.5308C59.6848 50.2067 59.7059 49.8896 59.7059 49.5796C59.7059 49.3824 59.6989 49.1921 59.6848 49.009C59.6848 48.8258 59.6848 48.6355 59.6848 48.4383C59.6848 47.9733 59.6848 47.3955 59.6848 46.7051C59.6989 46.0146 59.713 45.3383 59.7271 44.676C59.7412 43.9151 59.7623 43.126 59.7905 42.3087L59.9596 42.0128V31.6983C59.9596 31.656 59.9173 31.5574 59.8328 31.4024C59.7623 31.2333 59.713 31.0994 59.6848 31.0008C59.558 30.8599 59.3889 30.726 59.1775 30.5992C58.9662 30.4583 58.7407 30.3315 58.5012 30.2187C58.2616 30.106 58.0291 30.0003 57.8037 29.9017C57.5782 29.789 57.395 29.6762 57.2541 29.5635C57.2541 29.5353 57.233 29.486 57.1907 29.4155C57.1625 29.331 57.1484 29.2746 57.1484 29.2465C57.1484 29.1901 57.1625 29.1196 57.1907 29.0351C57.2048 28.9928 57.2259 28.9506 57.2541 28.9083C57.2823 28.8942 57.3528 28.8237 57.4655 28.6969C57.5782 28.556 57.6698 28.4715 57.7403 28.4433C57.7543 28.4292 57.8248 28.4081 57.9516 28.3799C58.0784 28.3517 58.2123 28.3235 58.3532 28.2953C58.5082 28.2671 58.6421 28.239 58.7548 28.2108C58.8816 28.1826 58.9591 28.1615 58.9873 28.1474C59.3255 28.0346 59.6566 27.9078 59.9807 27.7669C60.3189 27.6119 60.65 27.464 60.9741 27.3231C61.3123 27.1821 61.6505 27.0694 61.9887 26.9849C62.3409 26.8862 62.7143 26.8369 63.1089 26.8369C63.278 26.8369 63.4189 26.8933 63.5316 27.006C63.6584 27.1046 63.75 27.2315 63.8064 27.3865C63.8768 27.5274 63.9262 27.6824 63.9543 27.8515C63.9825 28.0206 63.9966 28.1685 63.9966 28.2953C63.9966 28.8871 63.9755 29.486 63.9332 30.0919C63.8909 30.6978 63.8487 31.2685 63.8064 31.804C63.7359 31.9167 63.6937 32.0505 63.6796 32.2055C63.6655 32.3465 63.6584 32.4944 63.6584 32.6494C63.6584 32.889 63.6796 33.1144 63.7218 33.3258C63.7782 33.5371 63.8064 33.7626 63.8064 34.0021C63.8064 34.1571 63.7993 34.3051 63.7853 34.446C63.7712 34.5728 63.7289 34.7137 63.6584 34.8687V38.6099C63.6584 38.7226 63.7289 38.8635 63.8698 39.0326C64.0107 39.1876 64.1516 39.2651 64.2925 39.2651C64.828 39.2651 65.3634 39.2087 65.8989 39.096C66.4484 38.9833 66.998 38.9269 67.5475 38.9269H67.8223C68.1464 38.9692 68.4141 39.0115 68.6255 39.0537C68.8509 39.0819 69.0553 39.1242 69.2384 39.1805C69.4357 39.2369 69.633 39.3144 69.8303 39.413C70.0416 39.5117 70.2882 39.6315 70.57 39.7724C70.6123 39.7724 70.718 39.8005 70.8871 39.8569C71.0562 39.8992 71.2323 39.9555 71.4155 40.026C71.5987 40.0965 71.7678 40.1669 71.9228 40.2374C72.0778 40.3078 72.1764 40.3642 72.2187 40.4065C72.5146 40.5474 72.7682 40.7165 72.9796 40.9137C73.205 41.111 73.4023 41.3294 73.5714 41.569C73.7546 41.7944 73.9237 42.041 74.0787 42.3087C74.2337 42.5765 74.4028 42.8442 74.5859 43.1119C74.6141 43.1119 74.6353 43.119 74.6493 43.133C74.6634 43.1471 74.6846 43.1612 74.7128 43.1753C74.7409 43.1894 74.7621 43.2035 74.7762 43.2176C74.8184 43.3303 74.8818 43.4783 74.9664 43.6615C75.065 43.8305 75.1566 43.9996 75.2412 44.1687C75.3257 44.3378 75.3962 44.4928 75.4525 44.6337C75.523 44.7605 75.5653 44.838 75.5793 44.8662C75.5934 44.9226 75.6146 45.0424 75.6428 45.2255C75.685 45.3946 75.7203 45.5778 75.7484 45.7751C75.7907 45.9724 75.8259 46.1555 75.8541 46.3246C75.8823 46.4937 75.9034 46.5994 75.9175 46.6417C75.9175 46.684 75.9316 46.7685 75.9598 46.8953C76.0021 47.0221 76.0232 47.0996 76.0232 47.1278C76.0514 47.4096 76.0725 47.6774 76.0866 47.931C76.1148 48.1846 76.1289 48.4312 76.1289 48.6708C76.1289 48.9244 76.1148 49.1851 76.0866 49.4528C76.0725 49.7065 76.0514 49.953 76.0232 50.1926C75.995 50.249 75.9739 50.2983 75.9598 50.3405C75.9316 50.4533 75.9175 50.5167 75.9175 50.5308C75.9034 50.559 75.8893 50.6435 75.8753 50.7844C75.8612 50.9253 75.8471 51.0803 75.833 51.2494C75.8189 51.4044 75.8048 51.5524 75.7907 51.6933C75.7766 51.8342 75.7696 51.9187 75.7696 51.9469C75.7696 51.9751 75.7555 52.0315 75.7273 52.116C75.6991 52.2005 75.6639 52.2992 75.6216 52.4119C75.5793 52.5105 75.5371 52.6092 75.4948 52.7078C75.4525 52.8065 75.4173 52.884 75.3891 52.9403C75.3891 52.9685 75.368 53.0178 75.3257 53.0883C75.2975 53.1587 75.2834 53.208 75.2834 53.2362C75.2834 53.2503 75.2693 53.3137 75.2412 53.4265C75.213 53.5392 75.1778 53.666 75.1355 53.8069C75.0932 53.9337 75.0509 54.0535 75.0087 54.1662C74.9805 54.279 74.9523 54.3424 74.9241 54.3565C74.9241 54.3987 74.8748 54.4692 74.7762 54.5678C74.6916 54.6524 74.5859 54.751 74.4591 54.8637C74.3464 54.9624 74.2407 55.054 74.1421 55.1385C74.0434 55.223 73.9871 55.2794 73.973 55.3076C73.9166 55.378 73.8532 55.4837 73.7828 55.6246C73.7123 55.7655 73.6348 55.9135 73.5503 56.0685C73.4657 56.2235 73.3741 56.3715 73.2755 56.5124C73.1768 56.6392 73.0782 56.7378 72.9796 56.8083C72.5709 57.1183 72.113 57.386 71.6057 57.6115C71.1125 57.8369 70.5982 58.0201 70.0628 58.161C69.5273 58.3019 68.9848 58.4005 68.4353 58.4569C67.8998 58.5274 67.3784 58.5626 66.8712 58.5626C66.378 58.5626 65.8637 58.5274 65.3282 58.4569C64.7928 58.4005 64.2855 58.3301 63.8064 58.2455C63.5528 58.2033 63.3132 58.1399 63.0878 58.0553C62.8764 57.9567 62.658 57.8651 62.4325 57.7805C62.2212 57.6819 61.9957 57.6044 61.7562 57.548C61.5166 57.4776 61.263 57.4424 60.9953 57.4424Z" fill="#030089"/>
<path d="M51.785 48.3224C51.7428 48.3224 51.6371 48.3647 51.468 48.4492C51.313 48.5338 51.1439 48.6324 50.9607 48.7451C50.7916 48.8438 50.6225 48.9494 50.4534 49.0622C50.2984 49.1608 50.1928 49.2313 50.1364 49.2735C50.1082 49.3158 50.0237 49.4074 49.8828 49.5483C49.7418 49.6892 49.5868 49.8442 49.4178 50.0133C49.2628 50.1683 49.1148 50.3163 48.9739 50.4572C48.833 50.5981 48.7484 50.6897 48.7203 50.7319C48.6639 50.7319 48.5934 50.7601 48.5089 50.8165L48.3821 50.8799C48.3116 50.9503 48.213 51.1194 48.0862 51.3872C47.9593 51.6408 47.8537 51.9085 47.7691 52.1903C47.6705 52.4722 47.6141 52.6835 47.6 52.8244C47.5859 52.9653 47.5789 53.1556 47.5789 53.3951C47.5789 53.7474 47.6212 54.0715 47.7057 54.3674C47.7903 54.6633 48.0157 54.9028 48.3821 55.086C48.4384 55.1142 48.5159 55.1494 48.6146 55.1917C48.7273 55.2199 48.833 55.2481 48.9316 55.2763C49.0443 55.3044 49.143 55.3326 49.2275 55.3608C49.3121 55.3749 49.3755 55.3819 49.4178 55.3819C49.4882 55.3819 49.5798 55.3819 49.6925 55.3819C49.8053 55.3678 49.925 55.3538 50.0518 55.3397C50.1787 55.3256 50.2914 55.3115 50.39 55.2974C50.5028 55.2833 50.5873 55.2692 50.6437 55.2551C51.165 55.1424 51.5807 54.9733 51.8907 54.7478C52.2007 54.5083 52.4191 54.1349 52.5459 53.6276C52.5741 53.5008 52.6164 53.3388 52.6728 53.1415C52.7291 52.9301 52.7784 52.7258 52.8207 52.5285C52.8771 52.3172 52.9264 52.134 52.9687 51.979C53.0109 51.8099 53.0321 51.7113 53.0321 51.6831C53.0603 51.6831 53.0743 51.6549 53.0743 51.5985C53.0884 51.5281 53.0955 51.4858 53.0955 51.4717C53.0955 51.4294 53.0884 51.3801 53.0743 51.3238C53.0743 51.2533 53.0603 51.204 53.0321 51.1758C53.0039 51.0772 52.9828 50.9856 52.9687 50.901C52.9546 50.8306 52.9405 50.7601 52.9264 50.6897C52.9264 50.6192 52.9264 50.5699 52.9264 50.5417V49.7385C52.8982 49.6117 52.8489 49.4708 52.7784 49.3158C52.708 49.1467 52.6234 48.9917 52.5248 48.8508C52.4403 48.6958 52.3346 48.569 52.2078 48.4703C52.0809 48.3717 51.94 48.3224 51.785 48.3224ZM43.7321 54.4308C43.7321 54.0785 43.7743 53.6699 43.8589 53.2049C43.9434 52.7258 44.1125 52.3313 44.3662 52.0213C44.3803 52.0072 44.4437 51.9367 44.5564 51.8099C44.6832 51.6831 44.8241 51.5422 44.9791 51.3872C45.1341 51.2181 45.2891 51.056 45.4441 50.901C45.6132 50.746 45.74 50.6263 45.8246 50.5417C46.2755 50.1331 46.7546 49.7597 47.2618 49.4215C47.7691 49.0692 48.2905 48.7592 48.8259 48.4915C48.8964 48.4633 49.0162 48.4351 49.1853 48.4069C49.3684 48.3788 49.4812 48.3506 49.5234 48.3224C49.5657 48.3083 49.6432 48.2731 49.7559 48.2167C49.8828 48.1463 50.0166 48.0758 50.1575 48.0053C50.2984 47.9208 50.4253 47.8503 50.538 47.794C50.6648 47.7235 50.7423 47.6883 50.7705 47.6883C51.01 47.5756 51.2284 47.484 51.4257 47.4135C51.6371 47.3431 51.8343 47.2656 52.0175 47.181C52.2007 47.0965 52.3768 46.9978 52.5459 46.8851C52.715 46.7583 52.8771 46.5892 53.0321 46.3778C53.0603 46.3215 53.0814 46.2228 53.0955 46.0819C53.1237 45.9269 53.1448 45.7649 53.1589 45.5958C53.173 45.4126 53.18 45.2435 53.18 45.0885C53.1941 44.9194 53.2012 44.7997 53.2012 44.7292C53.2012 44.391 53.1941 44.0528 53.18 43.7147C53.1659 43.3624 53.1096 43.0313 53.0109 42.7213C52.9264 42.3972 52.7855 42.1083 52.5882 41.8547C52.405 41.5869 52.1373 41.3756 51.785 41.2206C51.7568 41.2065 51.6934 41.1853 51.5948 41.1572C51.4962 41.129 51.3905 41.1008 51.2778 41.0726C51.165 41.0303 51.0593 40.9951 50.9607 40.9669C50.8621 40.9388 50.7987 40.9247 50.7705 40.9247C50.7705 40.9106 50.7423 40.8894 50.6859 40.8613C50.6296 40.8331 50.5662 40.8049 50.4957 40.7767C50.4253 40.7344 50.3548 40.7063 50.2843 40.6922C50.2139 40.664 50.1646 40.6428 50.1364 40.6288H50.0307C49.8475 40.6288 49.7066 40.6499 49.608 40.6922C49.5093 40.7344 49.3825 40.8119 49.2275 40.9247C49.1712 40.9528 49.1007 40.9881 49.0162 41.0303C48.9316 41.0726 48.8471 41.1219 48.7625 41.1783C48.678 41.2347 48.6005 41.284 48.53 41.3263C48.4737 41.3544 48.4384 41.3685 48.4243 41.3685C48.3962 41.3967 48.3609 41.4531 48.3187 41.5376C48.2764 41.6081 48.2341 41.6926 48.1918 41.7913C48.1637 41.8758 48.1355 41.9603 48.1073 42.0449C48.0791 42.1153 48.065 42.1576 48.065 42.1717C48.0509 42.1999 48.0368 42.2563 48.0228 42.3408C48.0087 42.4113 47.9946 42.4958 47.9805 42.5944C47.9664 42.679 47.9523 42.7635 47.9382 42.8481C47.9241 42.9185 47.9171 42.9608 47.9171 42.9749C47.9171 43.0172 47.8889 43.1088 47.8325 43.2497C47.7762 43.3765 47.7268 43.454 47.6846 43.4822C47.6282 43.7922 47.5859 44.0528 47.5578 44.2642C47.5437 44.4756 47.4943 44.6447 47.4098 44.7715C47.3253 44.8983 47.1914 44.9899 47.0082 45.0463C46.8391 45.0885 46.5784 45.1097 46.2262 45.1097C45.9021 45.1097 45.585 45.1026 45.275 45.0885C44.9791 45.0744 44.7114 45.0251 44.4718 44.9406C44.2464 44.8419 44.0632 44.694 43.9223 44.4967C43.7814 44.2853 43.7109 43.9965 43.7109 43.6301C43.7109 43.4751 43.718 43.306 43.7321 43.1228C43.7462 42.9397 43.7955 42.7847 43.88 42.6578C43.8941 42.6438 43.9293 42.6085 43.9857 42.5522C44.0421 42.4817 44.1055 42.4113 44.1759 42.3408C44.2464 42.2703 44.3098 42.2069 44.3662 42.1506C44.4366 42.0942 44.4859 42.0519 44.5141 42.0238C45.7259 41.1219 46.9871 40.3892 48.2975 39.8256C49.6221 39.2478 51.0382 38.959 52.5459 38.959C52.8982 38.959 53.2505 38.9801 53.6028 39.0224C53.9691 39.0647 54.3214 39.1492 54.6596 39.276C54.9978 39.3888 55.3078 39.5508 55.5896 39.7622C55.8714 39.9735 56.1039 40.2413 56.2871 40.5653C56.3293 40.6499 56.3787 40.7626 56.435 40.9035C56.5055 41.0444 56.5759 41.1853 56.6464 41.3263C56.7168 41.4672 56.7732 41.5869 56.8155 41.6856C56.8718 41.7842 56.9 41.8406 56.9 41.8547C56.9141 41.8969 56.9282 42.0026 56.9423 42.1717C56.9564 42.3267 56.9705 42.4958 56.9846 42.679C56.9987 42.8481 57.0128 43.0172 57.0268 43.1863C57.0409 43.3413 57.048 43.4399 57.048 43.4822C57.048 43.5244 57.0762 43.5878 57.1325 43.6724C57.1607 43.7147 57.1959 43.7499 57.2382 43.7781C57.2523 43.7781 57.2593 43.8133 57.2593 43.8838V43.9049C57.2453 43.919 57.2382 43.926 57.2382 43.926C57.1396 44.2501 57.0762 44.5742 57.048 44.8983C57.0198 45.2224 56.9705 45.5606 56.9 45.9128C56.9 45.9269 56.8789 46.0256 56.8366 46.2088C56.8084 46.3919 56.7943 46.5117 56.7943 46.5681C56.7662 46.5822 56.7521 46.716 56.7521 46.9697C56.7521 47.1951 56.7591 47.4276 56.7732 47.6672C56.7873 47.9067 56.7943 48.0617 56.7943 48.1322C56.7943 48.1603 56.7803 48.2167 56.7521 48.3013C56.738 48.3717 56.7168 48.4563 56.6887 48.5549C56.6746 48.6394 56.6534 48.724 56.6253 48.8085C56.6112 48.879 56.6041 48.9213 56.6041 48.9353C56.6041 48.9776 56.59 49.1749 56.5618 49.5272C56.5337 49.8794 56.4984 50.2881 56.4562 50.7531C56.428 51.204 56.3928 51.669 56.3505 52.1481C56.3223 52.6131 56.3012 52.9935 56.2871 53.2894V53.374V53.5008C56.2871 53.5572 56.2941 53.6699 56.3082 53.839C56.3223 53.994 56.3364 54.1631 56.3505 54.3463C56.3646 54.5294 56.3787 54.7056 56.3928 54.8747C56.4068 55.0438 56.4209 55.1706 56.435 55.2551C56.6323 55.4806 56.8789 55.6426 57.1748 55.7413C57.4707 55.8399 57.7455 55.8892 57.9991 55.8892C58.2809 55.8892 58.5275 55.854 58.7389 55.7835C58.9643 55.7131 59.1968 55.6778 59.4364 55.6778C59.4646 55.6778 59.5491 55.6849 59.69 55.699C59.845 55.699 59.9437 55.699 59.9859 55.699C60.1268 55.7694 60.2114 55.854 60.2396 55.9526C60.2818 56.0513 60.303 56.1781 60.303 56.3331C60.303 56.3472 60.303 56.3753 60.303 56.4176C60.303 56.4599 60.2889 56.481 60.2607 56.481L58.8023 57.9817L58.6332 58.0663C58.4923 58.1226 58.4007 58.1508 58.3584 58.1508C58.3162 58.1508 58.2105 58.1578 58.0414 58.1719C57.8723 58.186 57.6891 58.2001 57.4918 58.2142C57.2946 58.2283 57.1043 58.2424 56.9212 58.2565C56.7521 58.2706 56.6464 58.2847 56.6041 58.2988C56.5759 58.2988 56.5055 58.3128 56.3928 58.341C56.28 58.3551 56.1603 58.3763 56.0334 58.4044C55.9066 58.4185 55.7868 58.4326 55.6741 58.4467C55.5755 58.4608 55.5121 58.4608 55.4839 58.4467C55.4557 58.4467 55.3993 58.4397 55.3148 58.4256C55.2443 58.3974 55.1598 58.3692 55.0612 58.341C54.9625 58.2988 54.8639 58.2635 54.7653 58.2353C54.6666 58.2072 54.5891 58.179 54.5328 58.1508C54.3073 58.0663 54.0818 57.9535 53.8564 57.8126C53.6309 57.6717 53.4618 57.5026 53.3491 57.3053C53.2646 57.1503 53.1941 56.9813 53.1378 56.7981C53.0955 56.6008 53.0391 56.4247 52.9687 56.2697C52.9123 56.1006 52.8278 55.9597 52.715 55.8469C52.6023 55.7342 52.4262 55.6778 52.1866 55.6778C52.1725 55.6778 52.1584 55.6849 52.1443 55.699C52.1443 55.699 52.1373 55.699 52.1232 55.699H52.0809C51.7287 55.9244 51.4468 56.1851 51.2355 56.481C51.0382 56.7769 50.7916 57.0517 50.4957 57.3053C50.2562 57.5026 50.0096 57.6717 49.7559 57.8126C49.5164 57.9394 49.2698 58.1015 49.0162 58.2988C48.9457 58.3269 48.8189 58.3551 48.6357 58.3833C48.4666 58.4115 48.2764 58.4397 48.065 58.4678C47.8678 58.5101 47.6705 58.5383 47.4732 58.5524C47.29 58.5806 47.1562 58.5947 47.0716 58.5947C47.0293 58.5947 46.9589 58.5876 46.8603 58.5735C46.7616 58.5735 46.6489 58.5665 46.5221 58.5524C46.4093 58.5383 46.2966 58.5172 46.1839 58.489C46.0853 58.4749 46.0148 58.4608 45.9725 58.4467C45.9443 58.4467 45.895 58.4256 45.8246 58.3833C45.7682 58.3269 45.7048 58.2706 45.6343 58.2142C45.5639 58.1578 45.4934 58.1085 45.423 58.0663C45.3666 58.0099 45.3314 57.9817 45.3173 57.9817C44.6973 57.559 44.2746 57.0376 44.0491 56.4176C43.8378 55.7976 43.7321 55.1353 43.7321 54.4308Z" fill="#030089"/>
<path d="M23.8989 50.4251C23.8989 50.4533 23.9059 50.5096 23.92 50.5942C23.9341 50.6787 23.9482 50.7703 23.9623 50.869C23.9905 50.9676 24.0116 51.0592 24.0257 51.1437C24.0398 51.2142 24.0468 51.2565 24.0468 51.2705V51.6087C24.0468 51.7215 24.0539 51.8835 24.068 52.0949C24.0821 52.2921 24.0962 52.4965 24.1103 52.7078C24.1384 52.9051 24.1596 53.0883 24.1737 53.2574C24.2018 53.4124 24.23 53.4969 24.2582 53.511C24.2582 53.5674 24.2723 53.6449 24.3005 53.7435C24.3428 53.828 24.3639 53.9196 24.3639 54.0183V54.9694C24.4062 55.3921 24.54 55.7303 24.7655 55.984C25.005 56.2235 25.2868 56.4067 25.6109 56.5335C25.935 56.6462 26.2803 56.7167 26.6466 56.7449C27.013 56.773 27.3512 56.7871 27.6612 56.7871C27.7175 56.7871 27.8021 56.7871 27.9148 56.7871C28.0416 56.7871 28.1684 56.7871 28.2953 56.7871C28.4221 56.7871 28.5418 56.7871 28.6546 56.7871C28.7814 56.773 28.873 56.766 28.9293 56.766C29.0703 56.5265 29.2746 56.3715 29.5423 56.301C29.8241 56.2305 30.0848 56.1742 30.3243 56.1319C30.4512 56.1178 30.6132 56.0967 30.8105 56.0685C31.0218 56.0262 31.2262 55.991 31.4234 55.9628C31.6207 55.9205 31.7898 55.8853 31.9307 55.8571C32.0716 55.829 32.1491 55.8149 32.1632 55.8149C32.2055 55.7867 32.3112 55.7162 32.4803 55.6035C32.6493 55.4908 32.8325 55.371 33.0298 55.2442C33.2271 55.1033 33.4103 54.9765 33.5793 54.8637C33.7625 54.751 33.8823 54.6735 33.9387 54.6312C33.9528 54.6171 34.0021 54.589 34.0866 54.5467C34.1853 54.5044 34.2839 54.4621 34.3825 54.4199C34.4812 54.3635 34.5798 54.3142 34.6784 54.2719C34.7771 54.2296 34.8475 54.2015 34.8898 54.1874C34.918 54.1592 34.9955 54.124 35.1223 54.0817C35.2632 54.0394 35.3478 54.0183 35.3759 54.0183C35.4323 53.976 35.4957 53.9126 35.5662 53.828C35.6507 53.7435 35.7282 53.6519 35.7987 53.5533C35.8832 53.4405 35.9537 53.3349 36.01 53.2362C36.0664 53.1376 36.1087 53.0671 36.1368 53.0249C36.1791 53.0249 36.2496 53.0108 36.3482 52.9826C36.4468 52.9403 36.5103 52.9192 36.5384 52.9192C36.933 52.5105 37.3064 52.0596 37.6587 51.5665C38.025 51.0733 38.3491 50.5942 38.6309 50.1292C38.8 49.8474 38.9057 49.5796 38.948 49.326C39.0043 49.0583 39.103 48.7905 39.2439 48.5228C39.2721 48.4946 39.3002 48.4383 39.3284 48.3537C39.3566 48.2692 39.3778 48.2269 39.3918 48.2269C39.4341 48.1142 39.5046 47.9592 39.6032 47.7619C39.7159 47.5505 39.7723 47.4167 39.7723 47.3603C39.7723 47.3321 39.7864 47.2687 39.8146 47.1701C39.8428 47.0574 39.8709 46.9376 39.8991 46.8108C39.9414 46.684 39.9696 46.5712 39.9837 46.4726C40.0118 46.3599 40.0259 46.2894 40.0259 46.2612C40.1387 45.8949 40.2796 45.5074 40.4487 45.0987C40.6318 44.676 40.7234 44.2603 40.7234 43.8517V43.6615C40.7234 43.6474 40.7164 43.6051 40.7023 43.5346C40.6882 43.4501 40.6671 43.3655 40.6389 43.281C40.6248 43.1824 40.6107 43.0978 40.5966 43.0274C40.5825 42.9428 40.5755 42.8865 40.5755 42.8583V41.5478C40.5755 41.5337 40.5684 41.4844 40.5543 41.3999C40.5402 41.3153 40.5191 41.2237 40.4909 41.1251C40.4768 41.0265 40.4627 40.9349 40.4487 40.8503C40.4346 40.7517 40.4275 40.6812 40.4275 40.639C40.3993 40.5685 40.3571 40.4699 40.3007 40.343C40.2584 40.2162 40.2373 40.1387 40.2373 40.1105C40.1809 39.7865 40.1316 39.4553 40.0893 39.1171C40.0612 38.779 39.9977 38.4549 39.8991 38.1449C39.6455 37.3558 39.3073 36.5667 38.8846 35.7776C38.4759 34.9885 38.0039 34.2769 37.4684 33.6428C37.4543 33.6146 37.398 33.5583 37.2993 33.4737C37.2148 33.3751 37.1162 33.2694 37.0034 33.1567C36.9048 33.044 36.8062 32.9383 36.7075 32.8396C36.6089 32.741 36.5525 32.6705 36.5384 32.6283C36.5103 32.6142 36.468 32.5719 36.4116 32.5015C36.3693 32.4169 36.32 32.3324 36.2637 32.2478C36.2214 32.1492 36.1721 32.0646 36.1157 31.9942C36.0734 31.9096 36.0452 31.8603 36.0312 31.8462C36.003 31.818 35.9184 31.7687 35.7775 31.6983C35.6366 31.6137 35.5521 31.5574 35.5239 31.5292C35.1998 31.2755 34.8546 31.0501 34.4882 30.8528C34.1359 30.6415 33.7978 30.4301 33.4737 30.2187C33.4032 30.1906 33.3257 30.1624 33.2412 30.1342C33.1566 30.106 33.1143 30.0849 33.1143 30.0708C33.0862 30.0567 33.0157 30.0356 32.903 30.0074C32.8043 29.9792 32.6916 29.951 32.5648 29.9228C32.438 29.8806 32.3182 29.8383 32.2055 29.796C32.1068 29.7537 32.0434 29.7185 32.0153 29.6903C31.9871 29.6903 31.9378 29.6692 31.8673 29.6269C31.8109 29.5846 31.7405 29.5424 31.6559 29.5001C31.5855 29.4437 31.515 29.3944 31.4446 29.3521C31.3882 29.2958 31.36 29.2676 31.36 29.2676C30.9514 28.9999 30.5216 28.8308 30.0707 28.7603C29.6198 28.6758 29.1689 28.6335 28.718 28.6335H27.9148C27.6189 28.5771 27.323 28.5067 27.0271 28.4221C26.7453 28.3235 26.4423 28.2742 26.1182 28.2742C25.9491 28.2742 25.773 28.3235 25.5898 28.4221C25.4207 28.5067 25.2587 28.6194 25.1037 28.7603C24.9628 28.9012 24.843 29.0562 24.7443 29.2253C24.6457 29.3944 24.5823 29.5494 24.5541 29.6903C24.5259 29.789 24.4907 29.9299 24.4484 30.113C24.4203 30.2821 24.3921 30.4583 24.3639 30.6415C24.3357 30.8105 24.3075 30.9655 24.2793 31.1065C24.2653 31.2474 24.2582 31.339 24.2582 31.3812C24.23 31.4517 24.2018 31.6137 24.1737 31.8674C24.1596 32.1069 24.1384 32.3746 24.1103 32.6705C24.0962 32.9524 24.0821 33.2201 24.068 33.4737C24.0539 33.7274 24.0468 33.8824 24.0468 33.9387C24.0468 33.9951 24.0257 34.1149 23.9834 34.298C23.9412 34.4671 23.913 34.5799 23.8989 34.6362V35.1858V35.7353C23.913 35.7635 23.9412 35.8692 23.9834 36.0524C24.0257 36.2215 24.0468 36.3201 24.0468 36.3483C24.075 36.5315 24.1032 36.7921 24.1314 37.1303C24.1737 37.4685 24.2089 37.8137 24.2371 38.166C24.2793 38.5042 24.3075 38.8142 24.3216 39.096C24.3498 39.3778 24.3639 39.5469 24.3639 39.6033C24.3639 39.6596 24.3568 39.7442 24.3428 39.8569C24.3428 39.9696 24.3357 40.0894 24.3216 40.2162C24.3075 40.329 24.2934 40.4346 24.2793 40.5333C24.2793 40.6319 24.2723 40.7024 24.2582 40.7446V48.6496C24.2582 48.6778 24.2441 48.7483 24.2159 48.861C24.2018 48.9737 24.1807 49.1005 24.1525 49.2415C24.1384 49.3824 24.1173 49.5233 24.0891 49.6642C24.0609 49.791 24.0468 49.8896 24.0468 49.9601C24.0468 49.9883 24.0187 50.0728 23.9623 50.2137C23.92 50.3405 23.8989 50.411 23.8989 50.4251ZM15.8037 58.0342C15.5641 57.9074 15.395 57.8087 15.2964 57.7383C15.1978 57.6537 15.1484 57.4846 15.1484 57.231C15.1484 57.1042 15.1907 56.9844 15.2753 56.8717C15.3739 56.759 15.4866 56.6603 15.6134 56.5758C15.7403 56.4912 15.8741 56.4278 16.015 56.3855C16.17 56.3292 16.3109 56.294 16.4378 56.2799C16.7478 56.2517 17.1071 56.2165 17.5157 56.1742C17.9243 56.1178 18.3189 56.0896 18.6993 56.0896C18.8262 56.0896 18.9459 56.0967 19.0587 56.1108C19.1714 56.1249 19.27 56.1319 19.3546 56.1319C19.5237 56.0192 19.6575 55.8712 19.7562 55.688C19.8689 55.4908 19.9534 55.3076 20.0098 55.1385V53.363V51.6087C19.9957 51.186 19.9393 50.7633 19.8407 50.3405C19.7421 49.9178 19.6928 49.4951 19.6928 49.0724C19.6928 48.9174 19.6998 48.7976 19.7139 48.713C19.728 48.6285 19.7703 48.5087 19.8407 48.3537V43.8517C19.7703 43.5276 19.6998 43.2035 19.6293 42.8794C19.573 42.5553 19.5448 42.2312 19.5448 41.9071C19.5448 41.428 19.5589 40.956 19.5871 40.491C19.6293 40.026 19.7139 39.5751 19.8407 39.1383V31.8462C19.7703 31.6349 19.7209 31.3953 19.6928 31.1276C19.6646 30.8458 19.6505 30.564 19.6505 30.2821C19.6505 30.1271 19.6505 29.9792 19.6505 29.8383C19.6505 29.6833 19.6646 29.5494 19.6928 29.4367C19.6505 29.4085 19.573 29.3803 19.4603 29.3521C19.3616 29.3099 19.2489 29.2746 19.1221 29.2465C18.9953 29.2042 18.8755 29.176 18.7628 29.1619C18.6641 29.1337 18.5937 29.1196 18.5514 29.1196C18.5232 29.1196 18.4668 29.1126 18.3823 29.0985C18.3118 29.0844 18.2203 29.0774 18.1075 29.0774C17.868 29.0774 17.6214 29.0844 17.3678 29.0985C17.1282 29.1126 16.9873 29.1196 16.945 29.1196C16.8182 29.1056 16.6703 29.0844 16.5012 29.0562C16.3321 29.014 16.163 28.9576 15.9939 28.8871C15.8389 28.8167 15.705 28.7321 15.5923 28.6335C15.4937 28.5208 15.4443 28.3869 15.4443 28.2319C15.4443 28.091 15.4796 27.9712 15.55 27.8726C15.6205 27.774 15.705 27.6894 15.8037 27.619C15.9164 27.5485 16.0291 27.4921 16.1418 27.4499C16.2546 27.4076 16.3532 27.3653 16.4378 27.3231C16.6068 27.309 16.8041 27.3019 17.0296 27.3019C17.255 27.2878 17.4875 27.2808 17.7271 27.2808C17.9666 27.2808 18.1991 27.2808 18.4246 27.2808C18.65 27.2808 18.8403 27.2808 18.9953 27.2808C19.5025 27.2808 20.0309 27.2878 20.5805 27.3019C21.13 27.316 21.6021 27.3724 21.9966 27.471C22.1939 27.3019 22.4405 27.2103 22.7364 27.1962C23.0323 27.1821 23.3071 27.161 23.5607 27.1328C23.6171 27.1328 23.7157 27.1399 23.8566 27.154C24.0116 27.154 24.1878 27.154 24.385 27.154C24.5823 27.154 24.7937 27.161 25.0191 27.1751C25.2446 27.1751 25.4559 27.1751 25.6532 27.1751C25.8505 27.1751 26.0196 27.1681 26.1605 27.154C26.3155 27.1399 26.4141 27.1328 26.4564 27.1328C26.4987 27.1328 26.5973 27.1187 26.7523 27.0906C26.9214 27.0624 27.0975 27.0271 27.2807 26.9849C27.4639 26.9426 27.633 26.9074 27.788 26.8792C27.9571 26.851 28.0698 26.8369 28.1262 26.8369C28.1684 26.8369 28.2741 26.844 28.4432 26.8581C28.6123 26.8581 28.718 26.8933 28.7603 26.9637H30.3243C30.6766 26.9637 31.0148 26.9708 31.3389 26.9849C31.663 26.9849 31.8884 26.999 32.0153 27.0271C32.0575 27.0271 32.135 27.0342 32.2478 27.0483C32.3605 27.0483 32.4803 27.0553 32.6071 27.0694C32.7339 27.0835 32.8607 27.0976 32.9875 27.1117C33.1143 27.1258 33.2059 27.1328 33.2623 27.1328C34.15 27.3019 35.0166 27.4921 35.8621 27.7035C36.7216 27.9149 37.5318 28.2601 38.2927 28.7392C38.3209 28.7674 38.3773 28.8237 38.4618 28.9083C38.5464 28.9928 38.6309 29.0844 38.7155 29.1831C38.8141 29.2676 38.8987 29.3521 38.9691 29.4367C39.0537 29.5071 39.11 29.5424 39.1382 29.5424C39.265 29.6692 39.3918 29.7608 39.5187 29.8171C39.6455 29.8735 39.7723 29.9228 39.8991 29.9651C40.04 29.9933 40.1809 30.0215 40.3218 30.0496C40.4627 30.0778 40.5966 30.1342 40.7234 30.2187C41.1602 30.5146 41.6041 30.9233 42.055 31.4446C42.5059 31.966 42.9216 32.5367 43.3021 33.1567C43.6825 33.7626 44.0137 34.3826 44.2955 35.0167C44.5914 35.6508 44.7957 36.2215 44.9084 36.7287C44.9225 36.771 44.9437 36.8837 44.9718 37.0669C45.0141 37.2501 45.0493 37.4544 45.0775 37.6799C45.1198 37.8912 45.155 38.0955 45.1832 38.2928C45.2114 38.476 45.2325 38.5958 45.2466 38.6521C45.2607 38.6803 45.2818 38.7296 45.31 38.8001C45.3382 38.8705 45.3664 38.9551 45.3946 39.0537C45.4368 39.1383 45.4721 39.2228 45.5002 39.3074C45.5284 39.3778 45.5425 39.4271 45.5425 39.4553C45.5707 39.4835 45.5848 39.6033 45.5848 39.8146C45.5848 40.026 45.5848 40.188 45.5848 40.3008C45.5848 41.6676 45.4862 42.9992 45.2889 44.2955C45.0916 45.5919 44.8098 46.9024 44.4434 48.2269C44.2743 48.8187 44.0418 49.3824 43.7459 49.9178C43.45 50.4392 43.1189 50.9394 42.7525 51.4185C42.3862 51.8976 41.9846 52.3555 41.5477 52.7924C41.125 53.2151 40.6882 53.6237 40.2373 54.0183C40.2091 54.0324 40.1457 54.0887 40.0471 54.1874C39.9625 54.286 39.8639 54.3917 39.7512 54.5044C39.6384 54.6171 39.5327 54.7228 39.4341 54.8215C39.3355 54.906 39.2721 54.9553 39.2439 54.9694C39.2157 55.0117 39.1241 55.068 38.9691 55.1385C38.8141 55.1949 38.645 55.2583 38.4618 55.3287C38.2927 55.3992 38.1237 55.4626 37.9546 55.519C37.7855 55.5753 37.6798 55.6105 37.6375 55.6246C37.1021 55.8783 36.5666 56.146 36.0312 56.4278C35.5098 56.6955 34.9743 56.928 34.4248 57.1253C34.2557 57.1817 34.0937 57.224 33.9387 57.2521C33.7837 57.2662 33.6287 57.2803 33.4737 57.2944C33.3187 57.3085 33.1566 57.3226 32.9875 57.3367C32.8184 57.3508 32.6423 57.379 32.4591 57.4212C32.4309 57.4212 32.3746 57.4494 32.29 57.5058C32.2196 57.548 32.1773 57.5762 32.1632 57.5903C32.1068 57.6185 32.0293 57.6537 31.9307 57.696C31.8462 57.7242 31.7616 57.7524 31.6771 57.7805C31.5925 57.8087 31.515 57.8299 31.4446 57.844C31.3882 57.8721 31.36 57.8862 31.36 57.8862H30.3243C30.2962 57.8862 30.2257 57.8933 30.113 57.9074C30.0143 57.9215 29.9016 57.9355 29.7748 57.9496C29.6621 57.9778 29.5493 57.999 29.4366 58.013C29.3239 58.0271 29.2534 58.0342 29.2253 58.0342C29.2112 58.0342 29.1266 58.0412 28.9716 58.0553C28.8166 58.0694 28.7109 58.0765 28.6546 58.0765C27.6964 58.0765 26.7382 58.0412 25.78 57.9708C24.8218 57.9144 23.8778 57.8862 22.9478 57.8862H21.9966C21.9403 57.8862 21.8205 57.9074 21.6373 57.9496C21.4541 58.006 21.3555 58.0342 21.3414 58.0342H21.2568H21.1089C21.0666 58.0342 20.9539 58.0271 20.7707 58.013C20.5875 57.999 20.3832 57.9778 20.1578 57.9496C19.9464 57.9355 19.7421 57.9215 19.5448 57.9074C19.3616 57.8933 19.2418 57.8862 19.1855 57.8862H19.1432H19.0587C18.9037 57.9285 18.6923 57.999 18.4246 58.0976C18.1568 58.1962 17.9314 58.2455 17.7482 58.2455H17.558C17.4875 58.2455 17.3678 58.2315 17.1987 58.2033C17.0437 58.1892 16.8675 58.168 16.6703 58.1399C16.4871 58.1258 16.3109 58.1046 16.1418 58.0765C15.9868 58.0624 15.8741 58.0483 15.8037 58.0342Z" fill="#030089"/>
<path d="M36.7969 29.7918C36.7969 29.6368 36.8039 29.4889 36.818 29.348C36.8462 29.2071 36.9166 29.0873 37.0294 28.9887C37.0857 28.9887 37.1985 28.9816 37.3676 28.9675C37.5366 28.9394 37.7057 28.9182 37.8748 28.9041C38.058 28.8759 38.2271 28.8478 38.3821 28.8196C38.5512 28.7914 38.671 28.7773 38.7414 28.7773C39.0655 28.735 39.291 28.6012 39.4178 28.3757C39.5587 28.1503 39.6503 27.8825 39.6926 27.5725C39.7348 27.2625 39.763 26.9455 39.7771 26.6214C39.7912 26.2832 39.8476 25.9873 39.9462 25.7337C39.9603 25.5505 39.9673 25.2405 39.9673 24.8037C39.9814 24.3528 39.9955 23.8807 40.0096 23.3875C40.0237 22.8944 40.0307 22.4294 40.0307 21.9925C40.0448 21.5416 40.0519 21.2316 40.0519 21.0625C40.0519 21.0203 40.0519 20.9146 40.0519 20.7455C40.066 20.5623 40.073 20.358 40.073 20.1325C40.073 19.9071 40.073 19.6816 40.073 19.4562C40.0871 19.2166 40.0941 19.0194 40.0941 18.8644C40.0941 18.7516 40.0871 18.5966 40.073 18.3994C40.073 18.188 40.073 17.9837 40.073 17.7864C40.073 17.5891 40.066 17.413 40.0519 17.258C40.0519 17.0889 40.0519 16.9903 40.0519 16.9621C40.0519 16.9198 40.0448 16.8353 40.0307 16.7084C40.0307 16.5816 40.0237 16.4478 40.0096 16.3069C39.9955 16.1659 39.9814 16.0391 39.9673 15.9264C39.9673 15.8137 39.9603 15.7432 39.9462 15.715C39.9321 15.6587 39.8757 15.5812 39.7771 15.4825C39.6785 15.3839 39.601 15.3064 39.5446 15.25C39.5164 15.1373 39.4248 15.0034 39.2698 14.8484C39.1148 14.6794 39.0021 14.5807 38.9316 14.5525C38.7907 14.4539 38.6287 14.4046 38.4455 14.4046C38.2623 14.3905 38.0791 14.3764 37.896 14.3623C37.7128 14.3482 37.5507 14.3059 37.4098 14.2355C37.2689 14.165 37.1773 14.01 37.1351 13.7705C37.1351 13.7423 37.1562 13.693 37.1985 13.6225C37.2548 13.538 37.2971 13.4816 37.3253 13.4534C37.3394 13.4112 37.3746 13.3619 37.431 13.3055C37.5014 13.235 37.5719 13.1646 37.6423 13.0941C37.7128 13.0237 37.7762 12.9673 37.8326 12.925C37.903 12.8687 37.9523 12.8334 37.9805 12.8194C37.9946 12.7912 38.0721 12.7278 38.213 12.6291C38.368 12.5305 38.5512 12.4248 38.7626 12.3121C38.9739 12.1853 39.1853 12.0655 39.3966 11.9528C39.6221 11.8259 39.8053 11.7273 39.9462 11.6569C40.1716 11.53 40.4253 11.4314 40.7071 11.3609C40.9889 11.2764 41.2637 11.1707 41.5314 11.0439C41.771 10.8889 41.9682 10.7409 42.1232 10.6C42.2923 10.4591 42.5178 10.3887 42.7996 10.3887C43.0673 10.3887 43.2646 10.4944 43.3914 10.7057C43.5182 10.903 43.6098 11.1425 43.6662 11.4244C43.7226 11.6921 43.7578 11.9739 43.7719 12.2698C43.786 12.5516 43.8071 12.7841 43.8353 12.9673C43.8353 13.0237 43.8353 13.1223 43.8353 13.2632C43.8494 13.39 43.8564 13.5309 43.8564 13.6859C43.8705 13.8409 43.8846 13.9889 43.8987 14.1298C43.9128 14.2707 43.9269 14.3764 43.941 14.4469C44.0114 14.5596 44.0819 14.6441 44.1523 14.7005C44.2228 14.7428 44.3214 14.7639 44.4482 14.7639H44.6385C44.6666 14.7216 44.716 14.6653 44.7864 14.5948C44.8569 14.5103 44.9344 14.4257 45.0189 14.3412C45.1035 14.2566 45.181 14.1791 45.2514 14.1087C45.3219 14.0241 45.3712 13.9607 45.3994 13.9184C45.3994 13.9044 45.4276 13.855 45.4839 13.7705C45.5544 13.6859 45.5896 13.6296 45.5896 13.6014C45.7164 13.4041 45.8644 13.2773 46.0335 13.2209C46.2166 13.1505 46.3857 13.0166 46.5407 12.8194C46.8648 12.3825 47.2101 12.0303 47.5764 11.7625C47.9428 11.4807 48.3655 11.1778 48.8446 10.8537C49.1546 10.6141 49.4928 10.4803 49.8591 10.4521C50.2255 10.4098 50.613 10.3887 51.0216 10.3887C51.3598 10.3887 51.6628 10.4169 51.9305 10.4732C52.2123 10.5296 52.473 10.6141 52.7126 10.7269C52.9521 10.8255 53.1846 10.9523 53.4101 11.1073C53.6496 11.2623 53.8891 11.4455 54.1287 11.6569C54.4105 11.9105 54.6994 12.1994 54.9953 12.5234C55.3053 12.8475 55.5166 13.2069 55.6294 13.6014C55.6294 13.7 55.6364 13.8409 55.6505 14.0241C55.6787 14.1932 55.7069 14.3623 55.7351 14.5314C55.7773 14.7005 55.8126 14.8555 55.8407 14.9964C55.8689 15.1373 55.8901 15.2219 55.9041 15.25V16.8564C55.9041 16.8705 55.9112 16.9269 55.9253 17.0255C55.9394 17.11 55.9535 17.2087 55.9676 17.3214C55.9957 17.42 56.0169 17.5187 56.031 17.6173C56.0591 17.7159 56.0732 17.7794 56.0732 17.8075V17.9766V18.1246C56.0732 18.1669 56.0591 18.2655 56.031 18.4205C56.0169 18.5755 55.9957 18.7446 55.9676 18.9278C55.9535 19.1109 55.9394 19.2871 55.9253 19.4562C55.9112 19.6112 55.9041 19.7169 55.9041 19.7732V20.9146V23.7891C55.9041 23.8173 55.8971 23.8807 55.883 23.9794C55.8689 24.078 55.8478 24.1837 55.8196 24.2964C55.8055 24.395 55.7914 24.4937 55.7773 24.5923C55.7632 24.6769 55.7562 24.7262 55.7562 24.7403V26.9384C55.7562 27.1357 55.7703 27.3682 55.7985 27.6359C55.8266 27.8896 55.9182 28.1362 56.0732 28.3757C56.2282 28.3475 56.3762 28.3264 56.5171 28.3123C56.6721 28.2982 56.8271 28.2912 56.9821 28.2912C57.1371 28.2912 57.2851 28.2982 57.426 28.3123C57.5669 28.3264 57.7007 28.3475 57.8276 28.3757C57.8698 28.3757 57.9262 28.425 57.9966 28.5237C58.0812 28.6082 58.1376 28.6787 58.1657 28.735C58.1657 28.7632 58.1728 28.7984 58.1869 28.8407C58.1869 28.8689 58.1869 28.8971 58.1869 28.9253C58.201 28.9534 58.208 28.9746 58.208 28.9887C58.208 29.1155 58.1728 29.2493 58.1023 29.3903C58.046 29.5171 57.9685 29.6368 57.8698 29.7496C57.7853 29.8623 57.6796 29.9539 57.5528 30.0243C57.4401 30.0948 57.3273 30.13 57.2146 30.13H57.0666C57.0385 30.1159 56.968 30.0948 56.8553 30.0666C56.7426 30.0384 56.6228 30.0173 56.496 30.0032C56.3691 29.9891 56.2423 29.975 56.1155 29.9609C56.0028 29.9468 55.9323 29.9398 55.9041 29.9398C55.8619 29.9398 55.7491 29.9468 55.566 29.9609C55.3969 29.975 55.2066 29.9891 54.9953 30.0032C54.7839 30.0173 54.5796 30.0384 54.3823 30.0666C54.1851 30.0948 54.0441 30.1159 53.9596 30.13C53.9314 30.13 53.8539 30.1441 53.7271 30.1723C53.6003 30.2146 53.5157 30.2357 53.4735 30.2357H51.0639C51.0216 30.2498 50.9301 30.2639 50.7891 30.278C50.6482 30.2921 50.4932 30.3062 50.3241 30.3203C50.1691 30.3343 50.0212 30.3484 49.8803 30.3625C49.7394 30.3766 49.6478 30.3837 49.6055 30.3837H49.3519C49.2814 30.3837 49.211 30.3414 49.1405 30.2568C49.0701 30.1723 49.0066 30.0737 48.9503 29.9609C48.8939 29.8482 48.8446 29.7284 48.8023 29.6016C48.7741 29.4748 48.7601 29.3691 48.7601 29.2846C48.7601 29.1014 48.8798 28.9675 49.1194 28.883C49.373 28.7984 49.6548 28.735 49.9648 28.6928C50.2889 28.6505 50.5989 28.6153 50.8948 28.5871C51.2048 28.5448 51.4232 28.4814 51.5501 28.3968C51.5923 28.3687 51.6416 28.3053 51.698 28.2066C51.7685 28.108 51.8389 28.0023 51.9094 27.8896C51.9798 27.7768 52.0362 27.6641 52.0785 27.5514C52.1348 27.4387 52.1771 27.3471 52.2053 27.2766C52.2476 27.1498 52.2757 27.0512 52.2898 26.9807C52.3039 26.8962 52.318 26.8257 52.3321 26.7694C52.3462 26.6989 52.3532 26.6284 52.3532 26.558C52.3532 26.4734 52.3532 26.3678 52.3532 26.2409V24.7403C52.3532 24.698 52.3532 24.5853 52.3532 24.4021C52.3532 24.2189 52.3532 24.0216 52.3532 23.8103C52.3673 23.5848 52.3744 23.3805 52.3744 23.1973C52.3744 23 52.3744 22.8803 52.3744 22.838C52.3603 22.683 52.3462 22.4434 52.3321 22.1194C52.3321 21.7953 52.3251 21.4359 52.311 21.0414C52.2969 20.6328 52.2828 20.21 52.2687 19.7732C52.2687 19.3223 52.2616 18.8996 52.2476 18.505C52.2476 18.0964 52.2476 17.7371 52.2476 17.4271C52.2476 17.103 52.2476 16.8634 52.2476 16.7084C52.2194 16.3562 52.1278 15.9898 51.9728 15.6094C51.8319 15.2289 51.6346 14.8837 51.381 14.5737C51.1273 14.2496 50.8385 13.9889 50.5144 13.7916C50.1903 13.5803 49.838 13.4675 49.4576 13.4534C49.3026 13.4394 49.1264 13.4464 48.9291 13.4746C48.7319 13.5028 48.5276 13.538 48.3162 13.5803C48.1048 13.6225 47.9005 13.6789 47.7032 13.7494C47.506 13.8057 47.3228 13.8621 47.1537 13.9184C47.0691 13.9607 46.9353 14.0241 46.7521 14.1087C46.583 14.1932 46.4139 14.2848 46.2448 14.3834C46.0757 14.468 45.9207 14.5455 45.7798 14.6159C45.653 14.6864 45.5896 14.7357 45.5896 14.7639C45.5473 14.7921 45.4628 14.8837 45.336 15.0387C45.2232 15.1937 45.1035 15.3628 44.9766 15.5459C44.8639 15.7291 44.7512 15.8982 44.6385 16.0532C44.5398 16.2082 44.4764 16.3069 44.4482 16.3491C44.1946 16.7155 44.0466 17.0959 44.0044 17.4905C43.9762 17.885 43.9198 18.3078 43.8353 18.7587C43.8071 18.815 43.7719 18.9278 43.7296 19.0969C43.7014 19.2659 43.6873 19.3857 43.6873 19.4562V20.7244C43.6873 20.7666 43.6732 20.8653 43.6451 21.0203C43.6169 21.1753 43.5887 21.3444 43.5605 21.5275C43.5323 21.7107 43.5041 21.8869 43.476 22.0559C43.4478 22.2109 43.4337 22.3166 43.4337 22.373V24.5289C43.4337 24.9094 43.4337 25.2546 43.4337 25.5646C43.4337 25.8746 43.4407 26.1775 43.4548 26.4734C43.483 26.7553 43.5112 27.0512 43.5394 27.3612C43.5676 27.6571 43.6169 27.9953 43.6873 28.3757C43.7719 28.5307 43.8916 28.6293 44.0466 28.6716C44.2157 28.7139 44.3989 28.735 44.5962 28.735C44.7089 28.735 44.8216 28.728 44.9344 28.7139C45.0471 28.6998 45.1669 28.6928 45.2937 28.6928C45.491 28.6928 45.6671 28.7984 45.8221 29.0098C45.9771 29.2071 46.0546 29.4184 46.0546 29.6439C46.0546 29.8975 45.956 30.0666 45.7587 30.1512C45.5614 30.2357 45.343 30.278 45.1035 30.278C44.9907 30.278 44.8851 30.2709 44.7864 30.2568C44.7019 30.2428 44.6244 30.2357 44.5539 30.2357C44.1171 30.2357 43.6803 30.2075 43.2435 30.1512C42.8066 30.1089 42.3698 30.0878 41.933 30.0878C41.3835 30.0878 40.8198 30.1089 40.2421 30.1512C39.6644 30.2075 39.0796 30.2357 38.4878 30.2357C38.3891 30.2357 38.2553 30.2428 38.0862 30.2568C37.9171 30.285 37.7621 30.2991 37.6212 30.2991C37.3957 30.2991 37.1985 30.2639 37.0294 30.1934C36.8744 30.123 36.7969 29.9891 36.7969 29.7918Z" fill="#030089"/>
<path d="M22.345 19.5649C22.345 20.3681 22.507 21.1431 22.8311 21.8899C23.1693 22.6227 23.6061 23.2779 24.1416 23.8556C24.3107 24.0247 24.4798 24.2149 24.6489 24.4263C24.818 24.6377 24.9941 24.842 25.1773 25.0393C25.3745 25.2365 25.5789 25.4197 25.7902 25.5888C26.0157 25.7579 26.2552 25.8847 26.5089 25.9693L27.8405 26.2652H28.0095H28.1998C28.3266 26.2511 28.5027 26.237 28.7282 26.2229C28.9536 26.2088 29.1791 26.1947 29.4045 26.1806C29.63 26.1665 29.8273 26.1524 29.9964 26.1384C30.1655 26.1243 30.2641 26.1172 30.2923 26.1172C30.5036 26.0749 30.7361 25.9693 30.9898 25.8002C31.2575 25.6311 31.5252 25.4409 31.793 25.2295C32.0607 25.004 32.3143 24.7786 32.5539 24.5531C32.8075 24.3136 33.0259 24.1163 33.2091 23.9613C33.2232 23.9613 33.2443 23.9472 33.2725 23.919C33.2866 23.9049 33.3007 23.8838 33.3148 23.8556C33.667 23.1229 33.9489 22.3549 34.1602 21.5518C34.3857 20.7345 34.4984 19.9384 34.4984 19.1634C34.4984 18.5293 34.442 17.9374 34.3293 17.3879C34.2307 16.8384 34.0616 16.2888 33.822 15.7393C33.822 15.697 33.7939 15.6124 33.7375 15.4856C33.6952 15.3588 33.6741 15.2813 33.6741 15.2531C33.5895 14.8868 33.4979 14.4922 33.3993 14.0695C33.3148 13.6327 33.1316 13.2734 32.8498 12.9915C32.8216 12.9493 32.7441 12.8647 32.6173 12.7379C32.4904 12.6111 32.3495 12.4772 32.1945 12.3363C32.0536 12.1954 31.9198 12.0615 31.793 11.9347C31.6802 11.8079 31.6168 11.7234 31.6027 11.6811C31.5745 11.667 31.5323 11.6318 31.4759 11.5754C31.4336 11.5049 31.3843 11.4345 31.328 11.364C31.2716 11.2936 31.2152 11.2302 31.1589 11.1738C31.1166 11.1034 31.0955 11.0611 31.0955 11.047C31.0532 11.0188 30.9898 10.9624 30.9052 10.8779C30.8348 10.7793 30.7855 10.7159 30.7573 10.6877C30.7291 10.6877 30.6798 10.6736 30.6093 10.6454C30.5389 10.6031 30.4614 10.5609 30.3768 10.5186C30.2923 10.4763 30.2148 10.4411 30.1443 10.4129C30.0739 10.3706 30.0316 10.3495 30.0175 10.3495C29.9752 10.3213 29.8625 10.2861 29.6793 10.2438C29.4961 10.2015 29.2989 10.1593 29.0875 10.117C28.8902 10.0747 28.7 10.0395 28.5168 10.0113C28.3477 9.96904 28.242 9.94086 28.1998 9.92676C28.1293 9.92676 28.0166 9.94086 27.8616 9.96904C27.7066 9.98313 27.5445 10.0113 27.3755 10.0536C27.2064 10.0818 27.0443 10.1099 26.8893 10.1381C26.7343 10.1663 26.6075 10.1874 26.5089 10.2015C26.3116 10.3988 26.1073 10.582 25.8959 10.7511C25.6986 10.9061 25.5014 11.0681 25.3041 11.2372C25.1068 11.3922 24.9166 11.5613 24.7334 11.7445C24.5643 11.9136 24.4164 12.1109 24.2895 12.3363C24.2614 12.3786 24.205 12.4702 24.1205 12.6111C24.05 12.752 23.9655 12.907 23.8668 13.0761C23.7823 13.2452 23.6977 13.4002 23.6132 13.5411C23.5427 13.682 23.5005 13.7665 23.4864 13.7947C23.4018 13.9638 23.3032 14.147 23.1905 14.3443C23.0918 14.5274 22.9932 14.7247 22.8945 14.9361C22.7959 15.1474 22.7114 15.3659 22.6409 15.5913C22.5845 15.8027 22.5493 16.007 22.5352 16.2043C22.507 16.3593 22.4789 16.6059 22.4507 16.944C22.4366 17.2822 22.4225 17.6345 22.4084 18.0009C22.3943 18.3531 22.3802 18.6843 22.3661 18.9943C22.352 19.2902 22.345 19.4804 22.345 19.5649ZM18.625 18.2968C18.625 18.0009 18.6743 17.7049 18.773 17.409C18.8857 17.1131 18.9773 16.8243 19.0477 16.5424C19.0618 16.4861 19.09 16.3311 19.1323 16.0774C19.1886 15.8097 19.245 15.5279 19.3014 15.232C19.3718 14.9361 19.4352 14.6613 19.4916 14.4077C19.548 14.154 19.5832 13.999 19.5973 13.9427C19.6255 13.8581 19.6607 13.7736 19.703 13.689C19.7311 13.6186 19.7593 13.5481 19.7875 13.4777C19.8298 13.3931 19.865 13.3297 19.8932 13.2874C19.9918 13.1465 20.1116 12.9493 20.2525 12.6956C20.3934 12.442 20.5273 12.1954 20.6541 11.9559C20.795 11.7163 20.9148 11.512 21.0134 11.3429C21.1261 11.1597 21.1966 11.0611 21.2248 11.047C21.2389 11.0047 21.2952 10.9343 21.3939 10.8356C21.4925 10.7229 21.5982 10.6031 21.7109 10.4763C21.8377 10.3495 21.9575 10.2368 22.0702 10.1381C22.183 10.0254 22.2745 9.95495 22.345 9.92676C22.3732 9.88449 22.4507 9.84926 22.5775 9.82108C22.7184 9.7929 22.803 9.77881 22.8311 9.77881C23.2539 9.56745 23.6555 9.37017 24.0359 9.18699C24.4164 9.00381 24.7968 8.82767 25.1773 8.65858C25.5718 8.48949 25.9734 8.33449 26.382 8.19358C26.7907 8.05267 27.2416 7.91881 27.7348 7.79199H27.7559H27.8405C28.08 7.80608 28.39 7.82722 28.7705 7.8554C29.1509 7.86949 29.5173 7.89063 29.8695 7.91881C30.2359 7.9329 30.5459 7.94699 30.7995 7.96108C31.0673 7.97517 31.2152 7.98222 31.2434 7.98222C31.8775 8.03858 32.5045 8.23586 33.1245 8.57404C33.7586 8.89813 34.3434 9.30676 34.8789 9.79995C35.4284 10.2931 35.9004 10.8427 36.295 11.4486C36.7036 12.0404 37.0066 12.6181 37.2039 13.1818C37.2179 13.1959 37.232 13.2593 37.2461 13.372C37.2743 13.4706 37.2954 13.5834 37.3095 13.7102C37.3377 13.837 37.3589 13.9568 37.3729 14.0695C37.4011 14.1681 37.4293 14.2315 37.4575 14.2597C37.4575 14.2879 37.4786 14.3724 37.5209 14.5134C37.5773 14.6402 37.6336 14.7811 37.69 14.9361C37.7604 15.0911 37.8168 15.232 37.8591 15.3588C37.9154 15.4856 37.9507 15.5631 37.9648 15.5913C37.9648 15.6195 37.9718 15.6547 37.9859 15.697C37.9859 15.7252 37.9859 15.7534 37.9859 15.7815C38 15.8097 38.007 15.8309 38.007 15.8449C38.007 16.0845 37.9929 16.317 37.9648 16.5424C37.9366 16.7538 37.9225 16.9722 37.9225 17.1977C37.9225 17.3809 37.9366 17.5429 37.9648 17.6838C38.007 17.8247 38.0282 17.9797 38.0282 18.1488V18.5081C37.845 19.3536 37.6689 20.1709 37.4998 20.9599C37.3307 21.7349 37.0911 22.4677 36.7811 23.1581C36.4711 23.8345 36.0625 24.4615 35.5552 25.0393C35.0479 25.617 34.3645 26.1243 33.505 26.5611C32.6736 26.9838 31.8141 27.3149 30.9264 27.5545C30.0527 27.794 29.158 27.9138 28.242 27.9138C28.1575 27.9138 28.0448 27.9068 27.9039 27.8927C27.777 27.8927 27.6502 27.8927 27.5234 27.8927C27.3966 27.8927 27.2839 27.8856 27.1852 27.8715C27.0866 27.8715 27.0373 27.8715 27.0373 27.8715C27.0232 27.8715 26.9175 27.8504 26.7202 27.8081C26.537 27.7518 26.3116 27.6884 26.0439 27.6179C25.7902 27.5474 25.5295 27.477 25.2618 27.4065C24.9941 27.322 24.7757 27.2586 24.6066 27.2163C24.4516 27.174 24.2895 27.1318 24.1205 27.0895C23.9514 27.0472 23.7893 26.9768 23.6343 26.8781C23.2398 26.6668 22.8523 26.4413 22.4718 26.2018C22.0914 25.9622 21.718 25.7156 21.3516 25.462C21.3375 25.4338 21.3164 25.4056 21.2882 25.3774C21.26 25.3352 21.2389 25.2999 21.2248 25.2718C20.9148 24.8913 20.6048 24.4193 20.2948 23.8556C19.9848 23.2779 19.703 22.672 19.4493 22.0379C19.2098 21.3897 19.0125 20.7415 18.8575 20.0934C18.7025 19.4311 18.625 18.8322 18.625 18.2968Z" fill="#030089"/>
<path d="M0 28.8723V28.4073C0 28.3932 0.0140909 28.3368 0.0422727 28.2382C0.0704545 28.1395 0.105682 28.0409 0.147955 27.9423C0.190227 27.8295 0.225455 27.7309 0.253636 27.6464C0.281818 27.5477 0.295909 27.4843 0.295909 27.4561C0.31 27.3998 0.324091 27.2659 0.338182 27.0545C0.366364 26.8291 0.394545 26.5895 0.422727 26.3359C0.450909 26.0823 0.472045 25.8357 0.486136 25.5961C0.514318 25.3425 0.528409 25.1593 0.528409 25.0466V21.1575C0.528409 21.073 0.535454 20.9602 0.549545 20.8193C0.577727 20.6784 0.612954 20.5445 0.655227 20.4177C0.711591 20.2768 0.775 20.157 0.845454 20.0584C0.93 19.9457 1.02864 19.8893 1.14136 19.8893C1.395 19.8893 1.58523 19.9527 1.71205 20.0795C1.85295 20.2064 1.95864 20.3614 2.02909 20.5445C2.11364 20.7136 2.17 20.9039 2.19818 21.1152C2.22636 21.3266 2.25454 21.5168 2.28273 21.6859C2.49409 22.7427 2.87454 23.7361 3.42409 24.6661C3.98773 25.5961 4.69227 26.4416 5.53773 27.2025C5.60818 27.2589 5.69977 27.3364 5.8125 27.435C5.93932 27.5336 6.05909 27.6323 6.17182 27.7309C6.31273 27.8577 6.45364 27.9845 6.59454 28.1114C6.665 28.1536 6.79182 28.21 6.975 28.2804C7.15818 28.3368 7.35545 28.4002 7.56682 28.4707C7.77818 28.5411 7.97545 28.6045 8.15864 28.6609C8.34182 28.7173 8.47568 28.7525 8.56023 28.7666C8.6025 28.7666 8.70818 28.7736 8.87727 28.7877C9.06045 28.7877 9.25068 28.7948 9.44795 28.8089C9.64523 28.8089 9.82841 28.8159 9.9975 28.83C10.1666 28.83 10.2723 28.837 10.3145 28.8511C10.3427 28.8511 10.4273 28.8652 10.5682 28.8934C10.7232 28.9075 10.8077 28.9145 10.8218 28.9145H11.0966C11.2798 28.9145 11.4489 28.8793 11.6039 28.8089C11.773 28.7243 11.9561 28.6609 12.1534 28.6186C12.3507 28.5623 12.5409 28.527 12.7241 28.5129C12.9073 28.4848 13.0834 28.4143 13.2525 28.3016C13.492 28.1325 13.7245 27.9775 13.95 27.8366C14.1895 27.6816 14.408 27.5195 14.6052 27.3504C14.8025 27.1814 14.9786 26.9911 15.1336 26.7798C15.3027 26.5543 15.4436 26.2936 15.5564 25.9977C15.5564 25.9836 15.5634 25.9273 15.5775 25.8286C15.5916 25.73 15.5986 25.6314 15.5986 25.5327C15.6127 25.42 15.6268 25.3214 15.6409 25.2368C15.655 25.1382 15.662 25.0748 15.662 25.0466C15.6761 25.0184 15.7043 24.955 15.7466 24.8564C15.803 24.7577 15.8593 24.6591 15.9157 24.5604C15.9861 24.4477 16.0425 24.3491 16.0848 24.2645C16.1411 24.1659 16.1693 24.1095 16.1693 24.0954C16.1693 24.0673 16.1764 23.9545 16.1905 23.7573C16.2045 23.56 16.2116 23.405 16.2116 23.2923C16.2116 22.7991 16.1341 22.327 15.9791 21.8761C15.8241 21.4252 15.6127 21.0095 15.345 20.6291C15.0914 20.2345 14.7814 19.8823 14.415 19.5723C14.0627 19.2482 13.6752 18.9734 13.2525 18.7479C13.2243 18.7198 13.1186 18.6986 12.9355 18.6845C12.7523 18.6564 12.6466 18.6282 12.6184 18.6C12.5761 18.5859 12.4705 18.5436 12.3014 18.4732C12.1464 18.3886 11.9773 18.3041 11.7941 18.2195C11.6109 18.1209 11.4348 18.0364 11.2657 17.9659C11.1107 17.8814 11.012 17.825 10.9698 17.7968C10.9698 17.7827 10.9205 17.7616 10.8218 17.7334C10.7373 17.7052 10.6386 17.677 10.5259 17.6489C10.4132 17.6066 10.3005 17.5714 10.1877 17.5432C10.0891 17.5009 10.0327 17.4798 10.0186 17.4798C10.0045 17.4657 9.94818 17.4375 9.84954 17.3952C9.765 17.3389 9.66636 17.2895 9.55363 17.2473C9.455 17.205 9.35636 17.1698 9.25773 17.1416C9.17318 17.0993 9.10977 17.0782 9.0675 17.0782C8.95477 17.05 8.82091 17.0289 8.66591 17.0148C8.525 17.0007 8.44045 16.9936 8.41227 16.9936C7.62318 16.8104 6.78477 16.5498 5.89704 16.2116C5.02341 15.8593 4.25545 15.4718 3.59318 15.0491C3.565 15.035 3.51568 14.9927 3.44523 14.9223C3.38886 14.8518 3.32545 14.7814 3.255 14.7109C3.18454 14.6264 3.11409 14.5489 3.04364 14.4784C2.98727 14.408 2.95204 14.3727 2.93795 14.3727C2.90977 14.3727 2.84636 14.3516 2.74773 14.3093C2.64909 14.267 2.59977 14.2389 2.59977 14.2248C2.57159 14.2248 2.54341 14.2036 2.51523 14.1614C2.48705 14.105 2.45886 14.0768 2.43068 14.0768C2.41659 14.0486 2.37432 13.9782 2.30386 13.8655C2.2475 13.7527 2.18409 13.633 2.11364 13.5061C2.04318 13.3793 1.97273 13.2595 1.90227 13.1468C1.84591 13.0341 1.81068 12.9636 1.79659 12.9355C1.57114 12.5691 1.33159 12.2027 1.07795 11.8364C0.824318 11.47 0.641136 11.0825 0.528409 10.6739C0.415682 10.223 0.324091 9.75091 0.253636 9.25772C0.183182 8.76454 0.147955 8.29954 0.147955 7.86273C0.147955 7.53863 0.155 7.19341 0.169091 6.82704C0.183182 6.46068 0.225455 6.12954 0.295909 5.83363C0.324091 5.80545 0.394545 5.72795 0.507273 5.60114C0.62 5.46023 0.676364 5.36864 0.676364 5.32636C0.704545 5.28409 0.739773 5.22773 0.782045 5.15727C0.824318 5.07273 0.866591 4.98818 0.908863 4.90364C0.965227 4.81909 1.01455 4.74864 1.05682 4.69227C1.09909 4.62182 1.12727 4.57954 1.14136 4.56545C1.69091 3.59318 2.36727 2.74773 3.17045 2.02909C3.97364 1.31045 4.91773 0.789091 6.00273 0.465C6.03091 0.465 6.10841 0.450909 6.23523 0.422727C6.36204 0.380454 6.44659 0.359318 6.48886 0.359318C6.54523 0.331136 6.65091 0.295909 6.80591 0.253636C6.975 0.197273 7.07364 0.169091 7.10182 0.169091C7.11591 0.169091 7.18636 0.169091 7.31318 0.169091C7.44 0.155 7.58091 0.147955 7.73591 0.147955C7.905 0.133864 8.07409 0.126818 8.24318 0.126818C8.41227 0.112727 8.54613 0.105682 8.64477 0.105682C8.70113 0.105682 8.79273 0.112727 8.91954 0.126818C9.04636 0.140909 9.18023 0.155 9.32113 0.169091C9.47613 0.169091 9.61704 0.176136 9.74386 0.190227C9.88477 0.204318 9.99045 0.211364 10.0609 0.211364C10.1595 0.239545 10.2723 0.274773 10.3991 0.317045C10.54 0.345227 10.6245 0.359318 10.6527 0.359318C10.8923 0.373409 11.0966 0.3875 11.2657 0.401591C11.4489 0.401591 11.632 0.422727 11.8152 0.465C11.9984 0.493182 12.1957 0.549545 12.407 0.634091C12.6325 0.704545 12.9143 0.817273 13.2525 0.972273C13.6048 1.14136 13.9289 1.30341 14.2248 1.45841C14.5348 1.61341 14.7461 1.71909 14.8589 1.77545C14.887 1.80364 14.9716 1.86705 15.1125 1.96568C15.2534 2.05023 15.3239 2.11364 15.3239 2.15591H15.6198C15.7748 2.15591 15.9086 2.12068 16.0214 2.05023C16.1341 1.97977 16.2327 1.89523 16.3173 1.79659C16.4159 1.69795 16.5075 1.59227 16.592 1.47955C16.6766 1.35273 16.7682 1.24705 16.8668 1.1625C16.895 1.12023 16.9514 1.04273 17.0359 0.93C17.1345 0.817273 17.2402 0.6975 17.353 0.570682C17.4798 0.443864 17.5925 0.331136 17.6911 0.2325C17.8039 0.119773 17.8814 0.0422727 17.9236 0H18.1139C18.2689 0 18.3816 0.0704545 18.452 0.211364C18.5225 0.352273 18.5648 0.500227 18.5789 0.655227C18.5789 0.669318 18.5859 0.746818 18.6 0.887727C18.6141 1.01455 18.6282 1.1625 18.6423 1.33159C18.6564 1.50068 18.6705 1.67682 18.6845 1.86C18.6986 2.02909 18.7127 2.16295 18.7268 2.26159V2.40954V2.45182C18.6845 2.74773 18.6423 3.16341 18.6 3.69886C18.5577 4.23432 18.5084 4.76977 18.452 5.30523C18.4098 5.84068 18.3675 6.31977 18.3252 6.7425C18.297 7.15113 18.2759 7.39068 18.2618 7.46113C18.2195 7.8275 18.1139 8.16568 17.9448 8.47568C17.7898 8.77159 17.5009 8.91954 17.0782 8.91954C16.9936 8.91954 16.8598 8.9125 16.6766 8.89841C16.5075 8.88432 16.3877 8.82795 16.3173 8.72932C16.1482 8.51795 16.0073 8.2925 15.8945 8.05295C15.7959 7.81341 15.6973 7.58091 15.5986 7.35545C15.5 7.11591 15.3943 6.87636 15.2816 6.63682C15.1689 6.39727 15.028 6.17182 14.8589 5.96045C14.6616 5.72091 14.4573 5.46727 14.2459 5.19954C14.0486 4.93182 13.8373 4.67114 13.6118 4.4175C13.3864 4.14977 13.1539 3.89614 12.9143 3.65659C12.6748 3.41704 12.4211 3.20568 12.1534 3.0225C12.1252 3.0225 12.0759 3.01545 12.0055 3.00136C11.9491 2.97318 11.8857 2.945 11.8152 2.91682C11.7448 2.88864 11.6743 2.86045 11.6039 2.83227C11.5475 2.80409 11.5123 2.78295 11.4982 2.76886C11.47 2.75477 11.4207 2.71954 11.3502 2.66318C11.2798 2.59273 11.1952 2.52227 11.0966 2.45182C11.012 2.36727 10.9275 2.29682 10.843 2.24045C10.7584 2.18409 10.695 2.15591 10.6527 2.15591C10.6527 2.14182 10.6175 2.12773 10.547 2.11364C10.4766 2.08545 10.392 2.06432 10.2934 2.05023C10.1948 2.03614 10.0891 2.02204 9.97636 2.00795C9.87773 1.99386 9.80023 1.97977 9.74386 1.96568C9.67341 1.95159 9.56068 1.9375 9.40568 1.92341C9.26477 1.90932 9.11682 1.89523 8.96182 1.88114C8.80682 1.85295 8.65886 1.83182 8.51795 1.81773C8.39114 1.80364 8.29954 1.78955 8.24318 1.77545H8.01068C7.17932 1.77545 6.48182 1.94455 5.91818 2.28273C5.36864 2.60682 4.87545 3.08591 4.43864 3.72C4.25545 3.97364 4.09341 4.185 3.9525 4.35409C3.81159 4.50909 3.69182 4.66409 3.59318 4.81909C3.50864 4.96 3.44523 5.12909 3.40295 5.32636C3.36068 5.50954 3.33954 5.75613 3.33954 6.06613C3.33954 6.13659 3.33954 6.21409 3.33954 6.29864C3.33954 6.36909 3.34659 6.43954 3.36068 6.51C3.37477 6.59454 3.38886 6.67909 3.40295 6.76363C3.41704 6.83409 3.46636 6.96091 3.55091 7.14409C3.63545 7.32727 3.73409 7.52454 3.84682 7.73591C3.95954 7.93318 4.06523 8.13045 4.16386 8.32773C4.27659 8.51091 4.36818 8.64477 4.43864 8.72932C4.43864 8.7575 4.47386 8.81386 4.54432 8.89841C4.62886 8.98295 4.72045 9.08159 4.81909 9.19432C4.91773 9.29295 5.00932 9.39159 5.09386 9.49022C5.1925 9.57477 5.26295 9.63818 5.30523 9.68045C5.86886 10.1877 6.48182 10.6034 7.14409 10.9275C7.82045 11.2375 8.50386 11.5052 9.19432 11.7307C9.89886 11.942 10.6034 12.1393 11.308 12.3225C12.0266 12.4916 12.7241 12.6959 13.4005 12.9355C13.5132 13.1186 13.6682 13.2243 13.8655 13.2525C14.0627 13.2666 14.26 13.323 14.4573 13.4216C14.57 13.5061 14.718 13.5977 14.9011 13.6964C15.0843 13.795 15.2675 13.9007 15.4507 14.0134C15.648 14.1261 15.8382 14.2459 16.0214 14.3727C16.2186 14.4855 16.3807 14.6052 16.5075 14.732C16.5498 14.7602 16.6061 14.8095 16.6766 14.88C16.747 14.9505 16.8245 15.028 16.9091 15.1125C16.9936 15.183 17.0711 15.2534 17.1416 15.3239C17.212 15.3943 17.2684 15.4507 17.3107 15.493C17.3107 15.5352 17.36 15.6198 17.4586 15.7466C17.5573 15.8734 17.6136 15.9509 17.6277 15.9791C17.9518 16.3455 18.283 16.7048 18.6211 17.057C18.9734 17.3952 19.2411 17.8039 19.4243 18.2829C19.4525 18.3957 19.4877 18.5295 19.53 18.6845C19.5864 18.8395 19.6427 18.9945 19.6991 19.1495C19.7555 19.3186 19.8259 19.5018 19.9105 19.6991C19.9668 19.995 20.002 20.2839 20.0161 20.5657C20.0302 20.8334 20.0373 21.1082 20.0373 21.39C20.0373 21.7564 20.0232 22.1227 19.995 22.4891C19.9668 22.8414 19.9386 23.2007 19.9105 23.567C19.7836 23.877 19.6639 24.1659 19.5511 24.4336C19.4384 24.7014 19.3257 24.962 19.213 25.2157C19.1002 25.4693 18.9805 25.73 18.8536 25.9977C18.7268 26.2514 18.5859 26.5191 18.4309 26.8009C18.4027 26.815 18.3464 26.8502 18.2618 26.9066C18.1914 26.9489 18.142 26.9841 18.1139 27.0123C17.8884 27.2095 17.6911 27.3927 17.522 27.5618C17.353 27.7309 17.1839 27.9 17.0148 28.0691C16.8598 28.2382 16.6836 28.4073 16.4864 28.5764C16.3032 28.7454 16.0777 28.9216 15.81 29.1048C15.3591 29.4148 14.8589 29.6754 14.3093 29.8868C13.7598 30.0841 13.1961 30.2602 12.6184 30.4152C12.3366 30.4716 12.1111 30.4998 11.942 30.4998C11.787 30.4998 11.5898 30.5561 11.3502 30.6689C11.2798 30.6689 11.16 30.6689 10.9909 30.6689C10.8359 30.6829 10.6739 30.69 10.5048 30.69C10.3357 30.69 10.1807 30.69 10.0398 30.69C9.89886 30.7041 9.80023 30.7111 9.74386 30.7111C9.0675 30.7111 8.39818 30.697 7.73591 30.6689C7.08773 30.6548 6.44659 30.5702 5.8125 30.4152C5.54477 30.3166 5.25591 30.232 4.94591 30.1616C4.65 30.077 4.34704 29.9784 4.03704 29.8657C3.99477 29.8516 3.9525 29.8304 3.91023 29.8023C3.82568 29.7741 3.76932 29.7459 3.74114 29.7177C3.72704 29.7177 3.68477 29.7107 3.61432 29.6966C3.54386 29.6825 3.46636 29.6754 3.38182 29.6754C3.29727 29.6614 3.21273 29.6473 3.12818 29.6332C3.04364 29.6191 2.98023 29.612 2.93795 29.612H2.85341H2.70545C2.64909 29.6402 2.53636 29.6966 2.36727 29.7811C2.19818 29.8657 2.00795 29.9643 1.79659 30.077C1.59932 30.1757 1.40205 30.2673 1.20477 30.3518C1.02159 30.4364 0.887727 30.4927 0.803182 30.5209C0.746818 30.5632 0.655227 30.5984 0.528409 30.6266C0.401591 30.6548 0.324091 30.6689 0.295909 30.6689C0.239545 30.6689 0.190227 30.5914 0.147955 30.4364C0.119773 30.2814 0.0915909 30.1052 0.0634091 29.9079C0.0493182 29.6966 0.0352273 29.4923 0.0211364 29.295C0.00704545 29.0977 0 28.9568 0 28.8723Z" fill="#030089"/>
<path d="M71.8594 31.4785C71.9236 31.4712 72.0502 31.4293 72.1126 31.4214C72.1988 31.4105 72.3872 31.4334 72.4699 31.4214C72.9209 31.356 73.2158 31.3652 73.5687 31.2589C74.3284 30.7524 75.0045 30.6821 75.4047 29.9294C75.5155 29.7211 75.5776 29.2366 75.6579 28.9798C75.7076 28.821 75.8437 28.6524 75.8832 28.4733C75.9144 28.3322 75.8577 28.2391 75.8832 28.0847C75.9066 27.9428 76.0187 27.7406 76.0378 27.587C76.0506 27.4842 76.0564 27.3787 76.0674 27.2705C76.0718 27.3224 76.081 27.3704 76.081 27.4245C76.0934 27.558 76.1428 27.6518 76.1578 27.7769C76.169 27.8699 76.1451 27.9961 76.1578 28.0847C76.174 28.1966 76.1914 28.305 76.2102 28.41C76.2381 28.5651 76.3564 28.7127 76.3908 28.8532C76.4177 28.963 76.3595 29.0684 76.3908 29.1697C76.4344 29.3107 76.5546 29.551 76.6076 29.6762C76.8611 30.2752 77.114 30.6891 77.6838 30.8867C77.9861 31.0557 78.2151 31.2273 78.6335 31.3222C78.8303 31.3669 79.1676 31.3543 79.3932 31.3855C79.5229 31.4035 79.6577 31.4252 79.7975 31.4391C79.8723 31.4466 79.963 31.4488 80.0263 31.46C80.068 31.4634 80.0875 31.4568 80.1302 31.46C80.1706 31.463 80.2342 31.4758 80.2755 31.4785C80.2021 31.4892 80.2162 31.5098 80.1058 31.5276C80.0734 31.5328 79.9948 31.5222 79.963 31.5276C79.9203 31.5348 79.8624 31.5201 79.8206 31.5276C79.7642 31.5377 79.7011 31.5648 79.6464 31.5755C79.2674 31.6492 79.1248 31.7905 78.8234 31.892C78.6621 31.9463 78.4582 32.0187 78.3169 32.0819C78.1648 32.1501 77.9413 32.1925 77.8104 32.2719C77.5805 32.4114 77.3455 32.5369 77.1731 32.715C76.9732 32.9217 76.7452 33.1456 76.6076 33.4114C76.5304 33.5606 76.525 33.7301 76.4634 33.8998C76.402 34.0688 76.2764 34.3602 76.2277 34.551C76.1927 34.6879 76.2319 34.7188 76.2021 34.8675C76.1678 35.0395 76.1365 35.2195 76.1077 35.4078C76.0937 35.4988 76.0803 35.5917 76.0674 35.6866C76.0586 35.633 76.0497 35.5801 76.0406 35.5279C76.0161 35.3875 76.0017 35.2518 75.9745 35.1208C75.928 34.8966 75.9045 34.6859 75.8479 34.4877C75.8101 34.3556 75.7311 34.2291 75.6878 34.1078C75.5877 33.8277 75.5421 33.5123 75.4047 33.2848C75.2787 33.0761 75.0641 32.9514 74.8982 32.7814C74.6078 32.4838 74.2687 32.2839 73.822 32.0819C73.6699 32.0132 73.489 31.9064 73.3155 31.8465C73.1677 31.7955 73.0118 31.7474 72.8472 31.7021C72.7685 31.6804 72.6824 31.7021 72.6191 31.6388C72.5614 31.6245 72.4888 31.5892 72.4292 31.5755C72.3467 31.5564 72.2623 31.5935 72.1759 31.5755C72.0732 31.554 71.9677 31.4987 71.8594 31.4785Z" fill="#030089"/>
</svg>
