<svg width="13" height="13" viewBox="0 0 13 13" fill="none" xmlns="http://www.w3.org/2000/svg">
<path d="M0 6.18164C0.0943877 6.17086 0.280384 6.1093 0.372007 6.09772C0.498611 6.08173 0.775431 6.11534 0.896849 6.09772C1.55932 6.0016 1.99256 6.01514 2.51105 5.85904C3.62707 5.11503 4.62016 5.01176 5.2081 3.90601C5.37083 3.59994 5.4621 2.88826 5.5801 2.51098C5.65308 2.27767 5.85296 2.02998 5.91104 1.76697C5.95681 1.55964 5.87358 1.42294 5.91104 1.19611C5.94546 0.987656 6.11005 0.690621 6.13811 0.464942C6.15689 0.313936 6.16547 0.15899 6.18164 2.23278e-07C6.18803 0.0763141 6.20158 0.146818 6.20158 0.226233C6.21975 0.4223 6.29243 0.5601 6.31448 0.743947C6.33088 0.88061 6.29575 1.06601 6.31448 1.19611C6.33816 1.36053 6.36376 1.51976 6.39146 1.67396C6.43238 1.90178 6.60611 2.11861 6.65669 2.32498C6.69624 2.4863 6.61066 2.64122 6.65669 2.78998C6.72078 2.9971 6.89731 3.3501 6.97513 3.534C7.34751 4.41401 7.71914 5.02203 8.55616 5.31227C9.00025 5.56057 9.33662 5.81263 9.95118 5.95204C10.2403 6.01763 10.7358 5.99923 11.0672 6.04504C11.2578 6.0714 11.4557 6.10327 11.6611 6.12381C11.771 6.13479 11.9042 6.13805 11.9972 6.15443C12.0586 6.1595 12.0872 6.14978 12.1499 6.15443C12.2093 6.15883 12.3027 6.17761 12.3633 6.18164C12.2555 6.19735 12.2762 6.22756 12.1141 6.25371C12.0665 6.26139 11.951 6.2458 11.9042 6.25371C11.8415 6.26429 11.7564 6.24271 11.6951 6.25371C11.6123 6.26858 11.5195 6.30841 11.4392 6.32405C10.8825 6.43239 10.673 6.63998 10.2302 6.78906C9.99322 6.86883 9.69377 6.97511 9.48617 7.06806C9.26267 7.16814 8.93436 7.23045 8.74216 7.34707C8.40432 7.55206 8.0591 7.73634 7.80593 7.99808C7.51218 8.30176 7.17725 8.63063 6.97513 9.0211C6.86171 9.24021 6.85382 9.48928 6.76335 9.73847C6.67317 9.98684 6.4887 10.4149 6.41712 10.6951C6.36572 10.8963 6.42322 10.9417 6.37955 11.1601C6.32905 11.4127 6.2832 11.6771 6.24079 11.9538C6.22031 12.0874 6.20064 12.2239 6.18164 12.3633C6.16873 12.2846 6.1556 12.2069 6.14223 12.1302C6.10626 11.9239 6.08504 11.7247 6.04511 11.5321C5.97682 11.2029 5.94235 10.8933 5.85911 10.6021C5.80365 10.4081 5.68764 10.2223 5.62398 10.0441C5.47693 9.63264 5.40999 9.16934 5.2081 8.8351C5.02295 8.52858 4.70782 8.34539 4.46408 8.09558C4.0375 7.65837 3.53932 7.36479 2.88305 7.06806C2.65971 6.96708 2.39395 6.8102 2.13904 6.72221C1.9219 6.64725 1.69285 6.57671 1.45112 6.51005C1.33552 6.47818 1.20902 6.51005 1.11602 6.41705C1.03131 6.39603 0.924662 6.34428 0.837015 6.32405C0.715868 6.29609 0.591891 6.35059 0.465009 6.32405C0.314156 6.2925 0.159196 6.21133 0 6.18164Z" fill="#030089"/>
</svg>
