<svg width="116" height="4" viewBox="0 0 116 4" fill="none" xmlns="http://www.w3.org/2000/svg">
<path d="M0 2.02632C0 1.65789 0.384956 1.34211 1.15487 1.07895C2.01032 0.833333 3.07965 0.631579 4.36283 0.473684C5.73156 0.315789 7.18584 0.192982 8.72566 0.105263C10.351 0.0350877 11.9336 0 13.4735 0C15.3555 0 17.1519 0.0350877 18.8628 0.105263C20.5737 0.175439 22.413 0.210526 24.3805 0.210526H27.7168C28.2301 0.210526 29.385 0.192982 31.1814 0.157895C32.9779 0.140351 34.9027 0.114035 36.9557 0.0789474C39.0088 0.0614035 40.9336 0.0438596 42.7301 0.0263158C44.5266 0.00877193 45.6386 0 46.0664 0C46.4086 0 47.0074 0.00877193 47.8628 0.0263158C48.8038 0.0614035 49.7448 0.0877193 50.6858 0.105263C51.7124 0.140351 52.6534 0.166667 53.5089 0.184211C54.3643 0.201754 54.8776 0.210526 55.0487 0.210526C55.1342 0.210526 55.3909 0.201754 55.8186 0.184211C56.2463 0.166667 56.674 0.140351 57.1018 0.105263C57.5295 0.0877193 57.9145 0.0701754 58.2566 0.0526316C58.6844 0.0350877 58.941 0.0263158 59.0265 0.0263158H60.438C60.8658 0.0263158 61.2935 0.0175439 61.7212 0C62.149 0 62.5767 0 63.0044 0C63.2611 0 63.6032 0 64.031 0C64.4587 0.0175439 64.8864 0.0263158 65.3142 0.0263158H66.9823L69.677 0.210526C69.7625 0.245614 69.9764 0.263158 70.3186 0.263158C72.4572 0.22807 74.382 0.201754 76.0929 0.184211C77.8894 0.184211 79.0015 0.184211 79.4292 0.184211C79.7714 0.184211 80.413 0.192982 81.354 0.210526C82.295 0.245614 83.236 0.27193 84.177 0.289474C85.118 0.324561 85.9734 0.350877 86.7434 0.368421C87.5988 0.385965 88.1121 0.394737 88.2832 0.394737C88.3687 0.394737 88.6254 0.385965 89.0531 0.368421C89.4808 0.350877 89.9085 0.324561 90.3363 0.289474C90.764 0.27193 91.149 0.254386 91.4911 0.236842C91.9189 0.219298 92.1755 0.210526 92.2611 0.210526H93.8009C94.2286 0.210526 94.6563 0.201754 95.0841 0.184211C95.5973 0.184211 95.9823 0.184211 96.2389 0.184211C96.4956 0.184211 96.8378 0.184211 97.2655 0.184211C97.7788 0.201754 98.2493 0.210526 98.677 0.210526H100.217L102.911 0.394737C103.254 0.429825 103.596 0.447368 103.938 0.447368C104.366 0.447368 104.708 0.447368 104.965 0.447368C105.478 0.447368 105.948 0.438596 106.376 0.421053C106.889 0.403509 107.445 0.394737 108.044 0.394737C109.841 0.394737 111.423 0.464912 112.792 0.605263C114.246 0.763158 115.273 1.10526 115.872 1.63158C115.957 1.63158 116 1.69298 116 1.81579C116 1.95614 116 2.04386 116 2.07895C116 2.55263 115.615 2.92105 114.845 3.18421C114.075 3.44737 113.049 3.64035 111.765 3.76316C110.482 3.88597 108.985 3.95614 107.274 3.97368C105.563 3.99123 103.81 4 102.013 4H96.2389C96.1534 4 95.8968 3.99123 95.469 3.97368C95.1268 3.95614 94.7419 3.92982 94.3142 3.89474C93.8864 3.87719 93.4587 3.85965 93.031 3.84211C92.6032 3.82456 92.3466 3.81579 92.2611 3.81579C92.0044 3.81579 91.4911 3.81579 90.7212 3.81579C89.9513 3.83333 89.0531 3.84211 88.0265 3.84211C87 3.84211 85.8879 3.84211 84.6903 3.84211C83.4926 3.85965 82.3378 3.86842 81.2257 3.86842C80.028 3.86842 79.0443 3.85965 78.2743 3.84211C77.5044 3.82456 76.9056 3.81579 76.4779 3.81579H68.7788H63.0044C62.7478 3.81579 62.2773 3.79825 61.5929 3.76316C60.9941 3.72807 60.4808 3.70175 60.0531 3.68421C59.2832 3.70175 58.4277 3.72807 57.4867 3.76316C56.5457 3.79825 55.6047 3.83333 54.6637 3.86842C53.8083 3.90351 53.0383 3.92982 52.354 3.94737C51.7552 3.98246 51.3702 4 51.1991 4H42.3451C42.174 4 41.7891 3.98246 41.1903 3.94737C40.5914 3.91228 39.9071 3.87719 39.1372 3.84211C38.4528 3.80702 37.7257 3.76316 36.9557 3.71053C36.2714 3.67544 35.7581 3.64912 35.4159 3.63158C35.2448 3.63158 35.0737 3.62281 34.9027 3.60526C34.8171 3.58772 34.6888 3.57018 34.5177 3.55263C33.0634 3.51754 31.7375 3.49123 30.5398 3.47368C29.4277 3.45614 28.7861 3.44737 28.615 3.44737C28.3584 3.44737 27.7168 3.46491 26.6903 3.5C25.6637 3.53509 24.5089 3.57895 23.2257 3.63158C22.028 3.68421 20.9159 3.72807 19.8894 3.76316C18.8628 3.79825 18.2212 3.81579 17.9646 3.81579H8.9823C8.89676 3.81579 8.55457 3.79825 7.95575 3.76316C7.35693 3.74561 6.67257 3.71053 5.90265 3.65789C5.13274 3.62281 4.4056 3.58772 3.72124 3.55263C3.03687 3.51754 2.5236 3.48246 2.18142 3.44737C1.66814 3.39474 1.24041 3.30702 0.89823 3.18421C0.641593 3.0614 0.470501 2.92105 0.384956 2.76316C0.213864 2.62281 0.128319 2.48246 0.128319 2.34211C0.0427729 2.20175 0 2.09649 0 2.02632Z" fill="#030089"/>
</svg>
