<svg width="382" height="398" viewBox="0 0 382 398" fill="none" xmlns="http://www.w3.org/2000/svg">
<path d="M276.848 138.116L276.708 138.054C276.629 138.023 276.549 137.992 276.479 137.919C276.247 137.66 276.144 137.303 276.2 136.954L283.909 87.8982L320.064 125.536L282.463 142.185C282.359 142.229 282.247 142.25 282.134 142.248H281.984C281.935 142.216 281.885 142.175 281.785 142.071C280.386 140.45 278.712 139.109 276.848 138.116ZM329.289 135.127L367.947 175.36C375.976 183.726 379.995 187.899 381.461 192.736C381.681 193.452 381.86 194.168 382 194.905L289.614 154.185C289.565 154.163 289.515 154.142 289.465 154.122C289.096 153.967 288.667 153.79 288.667 153.396C288.667 153.001 289.106 152.814 289.475 152.659L289.594 152.607L329.289 135.127ZM380.424 207.818C378.429 211.721 374.54 215.769 367.957 222.63L324.372 267.98L268.001 255.763L267.702 255.7C267.204 255.617 266.675 255.524 266.675 255.057C266.242 250.165 263.876 245.68 260.142 242.674C259.913 242.435 259.973 242.061 260.042 241.719C260.042 241.667 260.042 241.615 260.062 241.573L270.664 173.834L270.704 173.605C270.764 173.086 270.854 172.484 271.303 172.484C275.892 171.89 280.06 169.403 282.872 165.582C282.962 165.478 283.022 165.364 283.141 165.301C283.461 165.146 283.84 165.301 284.169 165.447L380.424 207.818ZM314.349 278.412L242.678 353.002L254.946 274.53L254.966 274.426C254.976 274.322 254.996 274.218 255.026 274.125C255.125 273.876 255.385 273.772 255.634 273.668L255.754 273.616C258.44 272.424 260.816 270.584 262.685 268.25C262.925 267.959 263.214 267.679 263.583 267.627C263.679 267.611 263.777 267.611 263.872 267.627L314.349 278.412ZM227.508 368.79L219.43 377.198L130.116 242.86C130.084 242.811 130.05 242.763 130.016 242.715C129.877 242.518 129.727 242.321 129.757 242.092C129.767 241.926 129.867 241.781 129.976 241.656L130.076 241.521C130.345 241.106 130.575 240.691 130.824 240.245L131.024 239.881L131.054 239.85C131.193 239.601 131.323 239.362 131.562 239.228C131.772 239.124 132.061 239.165 132.29 239.217L231.239 260.455C231.515 260.499 231.776 260.617 231.997 260.797C232.126 260.932 232.156 261.077 232.186 261.243C233.585 266.753 237.378 271.265 242.439 273.44C242.718 273.585 242.599 273.907 242.469 274.249C242.404 274.4 242.354 274.556 242.319 274.717C241.073 282.605 230.381 350.469 227.508 368.79ZM210.633 386.343C204.679 392.477 201.168 395.726 197.199 397.034C193.285 398.322 189.084 398.322 185.17 397.034C180.523 395.498 176.503 391.325 168.475 382.959L78.7817 289.612L102.21 251.798C102.319 251.611 102.429 251.445 102.609 251.31C102.858 251.123 103.217 251.206 103.516 251.31C108.894 252.998 114.667 252.694 119.853 250.448C120.122 250.344 120.392 250.272 120.601 250.469C120.706 250.569 120.8 250.68 120.88 250.801L210.633 386.343ZM70.1346 280.612L49.559 259.199L90.1915 241.158C90.2954 241.111 90.4074 241.086 90.5207 241.086C90.8598 241.086 91.0592 241.438 91.2388 241.76C91.6471 242.414 92.0796 243.051 92.5353 243.67L92.665 243.836C92.7847 244.013 92.7049 244.189 92.5852 244.355L70.1346 280.612ZM40.453 249.722L14.4219 222.63C9.99358 218.021 6.78207 214.679 4.54798 211.804L83.6987 228.889C83.7981 228.908 83.8979 228.926 83.9979 228.941C84.4866 229.024 85.0252 229.117 85.0252 229.595C85.0252 230.114 84.4367 230.353 83.9381 230.55L83.7087 230.654L40.453 249.722ZM0 197.874C0.0902031 196.129 0.391798 194.402 0.897627 192.736C2.37372 187.899 6.38312 183.726 14.4219 175.36L47.7338 140.691C63.0716 163.857 78.4509 186.994 93.8718 210.101C94.1411 210.475 94.4403 210.89 94.1311 211.202C92.675 212.873 91.2188 214.7 90.1915 216.682C90.0801 216.937 89.9085 217.158 89.6929 217.326C89.5632 217.409 89.4236 217.378 89.274 217.347L0 197.874ZM56.6502 131.411L101.442 84.7945C105.651 86.7148 120.97 93.4514 134.674 99.4718C145.047 104.039 154.501 108.191 157.474 109.54C157.773 109.665 158.042 109.789 158.172 110.101C158.252 110.288 158.212 110.526 158.172 110.724C156.732 117.559 158.692 124.69 163.388 129.698C163.687 130.01 163.388 130.456 163.129 130.84L162.989 131.058L117.509 204.372C117.39 204.579 117.28 204.756 117.08 204.891C116.841 205.046 116.502 204.974 116.223 204.901C114.454 204.419 112.635 204.161 110.807 204.133C109.171 204.133 107.396 204.444 105.601 204.787C105.401 204.818 105.212 204.859 105.052 204.735C104.876 204.585 104.724 204.406 104.603 204.206L56.6502 131.411ZM110.488 75.3799L168.475 15.0309C176.503 6.67501 180.523 2.49189 185.17 0.966038C189.084 -0.322013 193.285 -0.322013 197.199 0.966038C201.846 2.49189 205.866 6.67501 213.894 15.0309L226.461 28.1096L185.22 94.5828C185.118 94.7764 184.979 94.946 184.811 95.0811C184.562 95.2575 184.213 95.1849 183.914 95.0811C177.313 92.9962 170.148 94.4331 164.764 98.9217C164.495 99.2123 164.096 99.0462 163.757 98.8905C158.371 96.4512 116.482 78.0268 110.488 75.3799ZM235.218 37.2232L273.297 76.8539L264.122 135.999V136.155C264.113 136.289 264.087 136.422 264.042 136.549C263.942 136.757 263.743 136.798 263.543 136.86C261.581 137.479 259.734 138.437 258.078 139.694C258.006 139.747 257.94 139.806 257.878 139.871C257.768 139.995 257.659 140.109 257.479 140.13C257.333 140.135 257.187 140.11 257.05 140.057L199.024 114.398L198.914 114.346C198.545 114.191 198.106 114.004 198.106 113.609C197.765 110.244 196.709 107 195.014 104.112C194.735 103.634 194.426 103.136 194.665 102.648L235.218 37.2232ZM196.002 126.553L250.398 150.531C250.697 150.676 251.026 150.811 251.156 151.133C251.208 151.326 251.208 151.531 251.156 151.724C250.996 152.555 250.857 153.499 250.857 154.454V156.043C250.857 156.437 250.468 156.603 250.109 156.759L249.999 156.8C241.382 160.63 129.019 210.496 128.849 210.496C128.68 210.496 128.5 210.496 128.331 210.319C128.031 210.008 128.331 209.572 128.6 209.178C128.648 209.109 128.694 209.04 128.74 208.97L173.441 136.933L173.521 136.809C173.781 136.373 174.08 135.885 174.558 135.885L175.007 135.957C176.025 136.103 176.922 136.238 177.83 136.238C184.612 136.238 190.895 132.802 194.685 126.927C194.776 126.77 194.89 126.63 195.024 126.512C195.294 126.304 195.693 126.408 196.002 126.553ZM133.706 221.893L256.183 167.533C256.183 167.533 256.362 167.533 256.532 167.71C257.2 168.405 257.768 168.872 258.317 169.308L258.586 169.485C258.836 169.63 259.085 169.796 259.105 170.066C259.105 170.17 259.105 170.232 259.085 170.325L248.593 237.401L248.553 237.671C248.483 238.19 248.413 238.781 247.944 238.781C242.265 239.18 237.141 242.47 234.251 247.573L234.201 247.656C234.061 247.895 233.931 248.123 233.702 248.248C233.493 248.351 233.223 248.31 233.004 248.258L135.332 227.291C135.232 227.27 133.816 221.903 133.706 221.893Z" fill="black"/>
</svg>
