<svg width="118" height="85" viewBox="0 0 118 85" fill="none" xmlns="http://www.w3.org/2000/svg">
<path d="M73.5121 11.4092L82.9611 10.2066V75.6128H73.7915H71.7915V77.6128V79.634V81.634H73.7915H114.002H116.002V79.634V77.6128V75.6128H114.002H107.705V4V2H105.705H97.0881H96.9515L96.8163 2.01855L72.7751 5.31624L70.865 5.57825L71.0568 7.49669L71.2696 9.62423L71.474 11.6686L73.5121 11.4092Z" stroke="#3F3F55" stroke-width="4"/>
<path d="M10.39 71.4883L10.3978 71.4985C16.2332 79.023 24.7041 82.6978 35.4876 82.6978C46.2537 82.6978 54.8829 79.5119 61.0911 72.9206L61.0989 72.9122C67.3409 66.2078 70.2517 55.8526 70.2517 42.2957C70.2517 28.7447 67.3434 18.4188 61.0954 11.7818C54.969 5.19851 46.5579 2 36.1258 2C25.7518 2 17.3465 5.24186 11.1567 11.8877C4.92753 18.5043 2 28.3821 2 41.1255C2 53.8646 4.7114 64.0683 10.39 71.4883ZM39.0045 76.1891L38.9891 76.1924L38.9738 76.1959C38.2831 76.3553 37.0528 76.4638 35.1684 76.4638C33.5755 76.4638 32.287 76.1167 31.2321 75.4928C30.5172 75.0105 29.6461 73.7095 29.0414 70.8205C28.4243 67.8723 28.0496 65.0413 27.9124 62.3258C27.8426 59.513 27.8073 54.6859 27.8073 47.8273V38.3597C27.8073 25.2659 28.3496 16.9036 29.3413 13.0029C29.7802 11.2764 30.5541 10.153 31.5668 9.43309C32.6029 8.69661 34.0989 8.23391 36.2322 8.23391C38.3734 8.23391 39.8596 8.69116 40.8748 9.40921C41.8616 10.1072 42.6056 11.1939 43.011 12.8731L43.0158 12.893L43.021 12.9128C43.499 14.7293 43.8904 17.8139 44.1554 22.2822C44.4181 26.7133 44.5508 32.3879 44.5508 39.3171V48.6783C44.5508 53.2675 44.4802 57.8208 44.339 62.3385L44.3389 62.3404C44.2688 64.6544 44.1301 66.3117 43.9429 67.3722C43.7397 68.5238 43.4665 69.7894 43.1212 71.1706L43.1097 71.2168L43.1003 71.2635C42.8474 72.5283 42.5387 73.273 42.2778 73.6637C41.8735 74.1768 41.3322 74.7507 40.6352 75.3847C40.2034 75.7722 39.6763 76.0452 39.0045 76.1891Z" stroke="#3F3F55" stroke-width="4"/>
</svg>
