<svg width="124" height="77" viewBox="0 0 124 77" fill="none" xmlns="http://www.w3.org/2000/svg">
<path fill-rule="evenodd" clip-rule="evenodd" d="M77.5259 75.5455V65.7405H86.4559V58.5405H60.7109V51.6889L89.16 1.04546H92.2259L93 1.04492L94.4559 1.04546H111.936V48.2605H113.341V39.9955H123.146V65.5705H113.341V58.5405H111.936V65.7405H118.491V75.5455H77.5259ZM107.936 54.5405H117.341V61.5705H119.146V43.9955H117.341V52.2605H107.936V5.04546H91.5009L64.7109 52.7355V54.5405H90.4559V69.7405H81.5259V71.5455H114.491V69.7405H107.936V54.5405ZM90.4559 12.2655L67.7509 52.2605H90.4559V12.2655ZM74.6213 48.2605L86.4559 27.4137V48.2605H74.6213Z" fill="#3F3F55"/>
<path fill-rule="evenodd" clip-rule="evenodd" d="M7.95627 65.6262L7.94849 65.616C2.47896 58.4691 0 48.8166 0 37.155C0 25.4843 2.67584 16.0126 8.77523 9.53094C14.7961 3.06895 22.9321 0 32.69 0C42.4853 0 50.6327 3.02139 56.6052 9.43641C62.7425 15.959 65.38 25.8559 65.38 38.2C65.38 50.5552 62.7379 60.4717 56.6126 67.0507L56.6047 67.0591L56.5968 67.0675C50.5393 73.499 42.1908 76.495 32.12 76.495C21.936 76.495 13.6687 72.9922 7.96412 65.6363L7.95627 65.6262ZM53.685 12.17C50.3942 8.63235 46.2884 6.24357 41.3678 5.00365C38.7394 4.34133 35.8785 4.00681 32.785 4.0001C32.7534 4.00003 32.7217 4 32.69 4C29.6552 4 26.8393 4.32275 24.2423 4.96822C19.2516 6.20864 15.0692 8.64089 11.695 12.265C6.565 17.7117 4 26.0083 4 37.155C4 48.3017 6.375 56.9783 11.125 63.185C14.3454 67.3376 18.5438 70.101 23.7203 71.4753C24.366 71.6467 25.0269 71.7965 25.7029 71.9247C25.7413 71.932 25.7797 71.9392 25.8182 71.9463C27.7058 72.2965 29.7114 72.479 31.835 72.494C31.9298 72.4947 32.0248 72.495 32.12 72.495C33.4867 72.495 34.8085 72.4355 36.0853 72.3165C36.0966 72.3154 36.1079 72.3144 36.1192 72.3133C37.5567 72.1781 38.9371 71.9673 40.2605 71.6811C40.2671 71.6796 40.2737 71.6782 40.2803 71.6768C40.5961 71.6082 40.9088 71.5354 41.2181 71.4583C46.2268 70.2092 50.3825 67.8314 53.685 64.325C58.815 58.815 61.38 50.1067 61.38 38.2C61.38 26.2933 58.815 17.6167 53.685 12.17ZM39.2613 8.62339C37.9182 6.87112 35.7595 5.995 32.785 5.995C32.7532 5.995 32.7216 5.9951 32.69 5.9953C29.8031 6.01388 27.6791 6.88171 26.318 8.59878C25.6752 9.40975 25.2025 10.4102 24.9 11.6C23.95 15.3367 23.475 23.0317 23.475 34.685V43.14C23.475 49.2833 23.5067 53.6217 23.57 56.155C23.6967 58.6883 24.045 61.3167 24.615 64.04C24.9563 65.6706 25.4225 66.9606 26.0135 67.9101C26.4096 68.5463 26.8618 69.0296 27.37 69.36C28.6367 70.12 30.125 70.5 31.835 70.5C31.9314 70.5 32.0264 70.4997 32.12 70.4991C33.6864 70.489 34.8581 70.3943 35.635 70.215C36.5217 70.025 37.2817 69.645 37.915 69.075C38.389 68.6441 38.8043 68.2279 39.161 67.8264C39.3286 67.6377 39.4833 67.4522 39.625 67.27C40.0683 66.6367 40.4167 65.6867 40.67 64.42C40.9867 63.1533 41.24 61.9817 41.43 60.905C41.62 59.8283 41.7467 58.245 41.81 56.155C41.9367 52.1017 42 48.0167 42 43.9V35.54C42 23.1267 41.525 15.115 40.575 11.505C40.3007 10.3687 39.8628 9.40818 39.2613 8.62339ZM36.3627 64.9453C36.3838 64.903 36.419 64.826 36.4632 64.7055C36.5504 64.4677 36.6509 64.1195 36.7477 63.6355L36.7663 63.5422L36.7894 63.4499C37.0876 62.2573 37.3199 61.1786 37.4909 60.2099C37.6296 59.4234 37.7501 58.0714 37.8118 56.0338L37.812 56.0301C37.9373 52.019 38 47.9756 38 43.9V35.54C38 29.3747 37.8818 24.3548 37.6508 20.458C37.4153 16.4867 37.074 13.9187 36.7067 12.523L36.6963 12.4834L36.6867 12.4436C36.4255 11.3617 36.0169 10.8958 35.6526 10.6382C35.2316 10.3404 34.3983 9.995 32.785 9.995C31.1874 9.995 30.3444 10.3414 29.9013 10.6565C29.5047 10.9384 29.0658 11.4482 28.7767 12.5856C27.9708 15.7552 27.475 22.9418 27.475 34.685V43.14C27.475 49.2418 27.5064 53.5187 27.5675 56.0044C27.6848 58.2957 28.0026 60.7 28.5302 63.2205C28.7677 64.3553 29.0418 65.1068 29.2832 65.5731C29.4158 65.8291 29.5153 65.9552 29.5602 66.0054C30.0994 66.2971 30.8193 66.5 31.835 66.5C33.4841 66.5 34.3746 66.4007 34.7356 66.3174L34.7662 66.3104L34.7969 66.3038C35.0398 66.2517 35.1545 66.1768 35.2341 66.1063C35.7333 65.6518 36.1005 65.2644 36.3627 64.9453Z" fill="#3F3F55"/>
</svg>
