<svg width="119" height="76" viewBox="0 0 119 76" fill="none" xmlns="http://www.w3.org/2000/svg">
<path fill-rule="evenodd" clip-rule="evenodd" d="M81.4287 8.73177C80.727 9.92356 80.3762 11.0715 80.3762 12.1756C80.3762 13.4994 80.5653 14.6655 80.9436 15.6741H83.6856C84.1899 16.9979 84.4421 18.6053 84.4421 20.4964C84.4421 22.3245 83.6541 23.9319 82.0782 25.3187C80.5023 26.6425 78.4221 27.3043 75.8376 27.3043C73.2531 27.3043 71.2359 26.4849 69.7861 24.8459C68.3993 23.1439 67.7059 21.0322 67.7059 18.5108C67.7059 14.3504 69.597 10.9149 73.3792 8.20431C74.9613 7.04412 76.8632 6.12659 79.085 5.4517C81.4288 4.73976 84.1285 4.29785 87.1842 4.12596C88.1567 4.07126 89.1653 4.0439 90.2099 4.0439C91.2724 4.0439 92.2957 4.07129 93.2797 4.12607C105.605 4.81226 111.768 9.79627 111.768 19.0781C111.768 23.1755 110.066 26.5794 106.662 29.29C105.077 30.5461 103.159 31.6248 100.907 32.5262C98.8551 33.3474 96.5264 34.0215 93.9209 34.5483C93.6683 34.5993 93.4131 34.649 93.1553 34.6973C92.8438 34.7557 92.5285 34.812 92.2095 34.8664C92.2048 34.8671 92.2002 34.8679 92.1956 34.8687V35.0578C92.2064 35.0586 92.2173 35.0594 92.2281 35.0602C92.5966 35.0871 92.9604 35.1169 93.3198 35.1494C93.4811 35.164 93.6415 35.1792 93.801 35.1949C96.5094 35.4622 98.9528 35.8925 101.131 36.4859C104.588 37.4275 107.377 38.7795 109.499 40.542C113.218 43.6308 115.078 47.6336 115.078 52.5504C115.078 58.6019 112.619 63.3927 107.703 66.9227C104.328 69.3771 100.024 70.9782 94.7901 71.7261C92.4963 72.0539 90.0241 72.2178 87.3733 72.2178C87.2469 72.2178 87.1208 72.2173 86.9951 72.2162C83.874 72.1904 80.9402 71.8434 78.1937 71.1755C78.0698 71.1454 77.9464 71.1146 77.8233 71.0832C74.9236 70.3267 72.3076 68.8454 69.9752 66.6391C67.7059 64.3698 66.5712 61.6907 66.5712 58.6019C66.5712 55.5132 67.2962 53.1178 68.746 51.4158C70.2589 49.7138 72.3076 48.8628 74.8921 48.8628C77.4766 48.8628 79.5252 49.5562 81.0381 50.943C82.551 52.2668 83.3074 53.8742 83.3074 55.7653C83.3074 57.5934 83.0553 59.1693 82.551 60.493H79.6198C79.2416 61.5016 79.0525 62.5417 79.0525 63.6133C79.0525 65.3157 79.4355 66.6944 80.2016 67.7492C81.4496 69.4675 83.7141 70.3267 86.9951 70.3267C87.1225 70.3267 87.2486 70.3251 87.3733 70.3217C89.8661 70.2551 91.7962 69.5222 93.1638 68.123C93.7231 67.5507 94.1883 66.867 94.5594 66.0718C95.9462 63.2351 96.6396 59.1377 96.6396 53.7797C96.6396 48.4216 95.9777 44.5448 94.654 42.1494C94.0106 40.8948 93.2029 39.7961 92.2311 38.8533C92.1357 38.7607 92.0386 38.6696 91.9399 38.58C91.3929 38.0831 90.7971 37.6324 90.1526 37.2281C89.7784 36.9934 89.3878 36.7742 88.9807 36.5707C88.7948 36.612 88.6057 36.6527 88.4134 36.6928C86.2589 37.1415 83.7059 37.5106 80.7544 37.7999L80.4708 35.7198C80.4971 35.7171 80.5234 35.7143 80.5497 35.7116C81.5499 35.6076 82.4872 35.479 83.3616 35.3255C85.366 34.9738 87.0397 34.4919 88.3828 33.88C88.393 33.8753 88.4032 33.8707 88.4134 33.866C89.0501 33.5739 89.612 33.2523 90.099 32.9012C90.5904 32.547 91.0056 32.1627 91.3446 31.7484C91.4349 31.6419 91.5229 31.5313 91.6087 31.4164C91.6866 31.3119 91.7626 31.204 91.8367 31.0926C93.2736 28.9322 93.9921 25.4632 93.9921 20.6855C93.9921 15.3274 93.4563 11.5137 92.3847 9.24441C92.157 8.71789 91.8924 8.2508 91.5908 7.84314C91.1943 7.30723 90.734 6.87402 90.2099 6.54352C89.3666 6.01177 88.358 5.74589 87.1842 5.74589C84.7257 5.74589 82.9607 6.50232 81.8891 8.0152C81.7217 8.25579 81.5683 8.49465 81.4287 8.73177ZM84.9829 10.191C84.4447 10.9683 84.2473 11.5255 84.1844 11.8919H86.2921L87.22 14.3277C87.9329 16.1988 88.2243 18.2902 88.2243 20.4964C88.2243 23.5781 86.8346 26.1712 84.5768 28.158L84.5442 28.1868L84.5109 28.2147C82.0936 30.2453 79.078 31.0865 75.8376 31.0865C72.385 31.0865 69.2523 29.9508 66.9533 27.3519L66.9025 27.2945L66.854 27.235C64.8371 24.7597 63.9237 21.7665 63.9237 18.5108C63.9237 12.9794 66.5325 8.46419 71.1595 5.14187C75.8699 1.69569 82.4135 0.261719 90.2099 0.261719C97.7194 0.261719 104.025 1.54987 108.542 4.70013C113.308 8.02329 115.551 13.0361 115.551 19.0781C115.551 24.4073 113.259 28.8719 109.018 32.2487L109.011 32.2543C108.122 32.959 107.16 33.6067 106.13 34.2004C108.313 35.1148 110.251 36.2503 111.916 37.6324C116.517 41.4538 118.86 46.5311 118.86 52.5504C118.86 59.8167 115.818 65.7485 109.918 69.9884C104.186 74.1525 96.5218 76 87.3733 76C83.6889 76 80.1883 75.5905 76.8876 74.7478L76.8781 74.7454L76.8685 74.7429C73.3089 73.8143 70.1371 71.9984 67.3761 69.3867L67.3379 69.3506L67.3008 69.3135C64.3531 66.3658 62.7891 62.7367 62.7891 58.6019C62.7891 54.956 63.6454 51.571 65.8668 48.9632L65.8927 48.9328L65.9192 48.903C68.2507 46.2801 71.389 45.0806 74.8921 45.0806C78.1526 45.0806 81.1878 45.9668 83.5611 48.1251C85.8159 50.1122 87.0896 52.7225 87.0896 55.7653C87.0896 57.9263 86.7934 59.981 86.0854 61.8395L85.1575 64.2752H82.8664C82.9664 65.237 83.2805 65.5914 83.4796 65.7598C83.8409 66.0652 84.7898 66.5445 86.9951 66.5445C88.3863 66.5445 89.266 66.2788 89.8213 65.9665C90.3359 65.677 90.7755 65.2365 91.1321 64.4723L91.1465 64.4413L91.1616 64.4106C92.1773 62.3329 92.8574 58.9108 92.8574 53.7797C92.8574 48.5579 92.1821 45.4961 91.3437 43.9788L91.3153 43.9275L91.2885 43.8753C90.5853 42.504 89.6225 41.4102 88.3457 40.5629C86.2175 40.9699 83.8052 41.3011 81.1235 41.5641L77.499 41.9194L76.1948 32.3551L80.086 31.9572C82.6731 31.6926 84.6327 31.2671 86.0521 30.7487C87.4891 30.2239 88.1435 29.688 88.4173 29.3534L88.4387 29.3272L88.4606 29.3014C89.305 28.3063 90.2099 25.8107 90.2099 20.6855C90.2099 15.3921 89.6515 12.3139 88.9646 10.8594L88.938 10.8029L88.9132 10.7456C88.6337 10.0994 88.3643 9.85778 88.217 9.75868C88.0782 9.66529 87.7971 9.52807 87.1842 9.52807C85.5416 9.52807 85.1311 9.98514 84.9829 10.191Z" fill="#3F3F55"/>
<path fill-rule="evenodd" clip-rule="evenodd" d="M7.87761 65.2597L7.87025 65.2501C2.46217 58.1835 0 48.6248 0 37.0435C0 25.4536 2.65776 16.0848 8.68029 9.68503C14.6286 3.30067 22.6699 0.261719 32.3377 0.261719C42.0441 0.261719 50.0963 3.25421 55.9958 9.59122C62.054 16.0298 64.6754 25.8193 64.6754 38.0836C64.6754 50.3586 62.0495 60.1684 56.0024 66.6634L55.995 66.6713L55.9875 66.6793C50.0045 73.0316 41.7529 76 31.7704 76C21.6839 76 13.5185 72.5335 7.88503 65.2693L7.87761 65.2597ZM53.2343 12.1756C49.8691 8.55809 45.6479 6.14755 40.5705 4.944C38.0661 4.35034 35.3533 4.05034 32.4322 4.04401C32.4008 4.04394 32.3692 4.0439 32.3377 4.0439C29.4759 4.0439 26.8096 4.33226 24.3389 4.90897C19.1906 6.11068 14.8913 8.56441 11.4411 12.2702C6.33516 17.6913 3.78219 25.9491 3.78219 37.0435C3.78219 48.1379 6.14605 56.7739 10.8738 62.9515C14.1555 67.1831 18.4577 69.9654 23.7803 71.2984C24.3048 71.4297 24.8391 71.547 25.3834 71.6502C25.4216 71.6574 25.4598 71.6646 25.4981 71.6717C27.3769 72.0202 29.3731 72.2019 31.4867 72.2168C31.581 72.2175 31.6756 72.2178 31.7704 72.2178C33.1307 72.2178 34.4463 72.1586 35.7171 72.0401C35.7284 72.0391 35.7396 72.038 35.7508 72.037C37.1816 71.9024 38.5555 71.6926 39.8727 71.4077C39.8792 71.4063 39.8858 71.4049 39.8924 71.4034C40.0766 71.3635 40.2597 71.322 40.4418 71.2791C45.599 70.063 49.8631 67.6653 53.2343 64.0861C58.3402 58.6019 60.8932 49.9344 60.8932 38.0836C60.8932 26.2327 58.3402 17.5967 53.2343 12.1756ZM38.6825 8.40332C37.3358 6.8208 35.2524 6.02955 32.4322 6.02955C32.4006 6.02955 32.3691 6.02965 32.3377 6.02985C29.6039 6.04744 27.5574 6.8302 26.1983 8.37813C25.4543 9.22553 24.9163 10.3022 24.5842 11.6083C23.6387 15.3274 23.1659 22.9864 23.1659 34.5851V43.0004C23.1659 49.115 23.1974 53.4329 23.2604 55.9544C23.3865 58.4759 23.7332 61.0919 24.3005 63.8024C24.6692 65.5637 25.1842 66.9258 25.8456 67.8886C26.2021 68.4076 26.6011 68.8105 27.0426 69.0975C28.3034 69.854 29.7847 70.2322 31.4867 70.2322C31.5827 70.2322 31.6772 70.2319 31.7704 70.2313C33.3294 70.2212 34.4956 70.1269 35.2689 69.9485C36.1514 69.7594 36.9078 69.3812 37.5382 68.8138C37.9128 68.4733 38.2506 68.142 38.5516 67.8198C38.8078 67.5457 39.0373 67.2782 39.2402 67.0173C39.6814 66.3869 40.0281 65.4414 40.2803 64.1807C40.5955 62.9199 40.8476 61.7538 41.0367 60.6821C41.2258 59.6105 41.3519 58.0346 41.4149 55.9544C41.541 51.9201 41.604 47.8542 41.604 43.7569V35.4361C41.604 23.0809 41.1313 15.1068 40.1857 11.5137C39.8838 10.263 39.3827 9.22618 38.6825 8.40332ZM36.1608 64.8131C36.1846 64.7674 36.2269 64.6785 36.2801 64.5333C36.3713 64.2848 36.4737 63.9281 36.5715 63.4389L36.5892 63.3507L36.611 63.2633C36.9087 62.0727 37.141 60.9944 37.3121 60.0249C37.4528 59.2277 37.573 57.8704 37.6345 55.8398L37.6346 55.8363C37.7594 51.8419 37.8219 47.8154 37.8219 43.7569V35.4361C37.8219 29.2976 37.7042 24.2969 37.4739 20.413C37.2395 16.4585 36.899 13.8858 36.5281 12.4763L36.5182 12.4388L36.5091 12.4012C36.2402 11.2869 35.8105 10.7778 35.4014 10.4884C34.9387 10.1611 34.0649 9.81173 32.4322 9.81173C30.8145 9.81173 29.9311 10.1626 29.4467 10.5069C29.0063 10.82 28.5468 11.3718 28.2498 12.5402C27.4406 15.7232 26.9481 22.9014 26.9481 34.5851V43.0004C26.9481 49.0758 26.9793 53.3356 27.0403 55.812C27.1575 58.1046 27.4753 60.5088 28.0025 63.0276C28.2413 64.1683 28.519 64.9349 28.7701 65.4199C28.9321 65.7326 29.0528 65.8713 29.0992 65.9181C29.6723 66.2348 30.43 66.45 31.4867 66.45C33.1311 66.45 34.0362 66.3514 34.4184 66.2632L34.4474 66.2565L34.4764 66.2503C34.7511 66.1914 34.8968 66.1015 35.0033 66.0068C35.5143 65.5416 35.8912 65.1433 36.1608 64.8131Z" fill="#3F3F55"/>
</svg>
