<svg width="119" height="77" viewBox="0 0 119 77" fill="none" xmlns="http://www.w3.org/2000/svg">
<path d="M99.158 55.0925H82.514L83.2966 54.5281L83.3029 54.5235C83.9903 54.0235 86.4215 52.2869 90.6131 49.302L90.6212 49.2962L90.6293 49.2904C94.8346 46.2319 98.8513 43.1718 102.679 40.11C105.217 38.1423 107.122 36.4615 108.28 35.0931C109.408 33.8308 110.525 32.4157 111.633 30.8521C112.875 29.1256 113.75 27.3926 114.144 25.6612L114.146 25.652L114.148 25.6428C114.5 24.021 114.669 22.2583 114.669 20.3654C114.669 14.3503 112.423 9.59606 107.808 6.44367C103.406 3.39276 97.2961 2 89.7384 2C82.1915 2 76.168 3.38842 71.9915 6.48473L73.1826 8.09136L71.9915 6.48474C67.8496 9.55548 65.6641 13.6192 65.6641 18.5576C65.6641 21.4832 66.4781 24.0743 68.2068 26.1959L68.2325 26.2273L68.2593 26.2577C70.1673 28.4145 72.787 29.4064 75.8468 29.4064C78.7943 29.4064 81.3822 28.6455 83.4129 26.9397L83.4305 26.9249L83.4478 26.9097C85.3942 25.1969 86.5052 23.0582 86.5052 20.5557C86.5052 18.4861 86.2308 16.6127 85.613 14.9912L85.1224 13.7032H83.7441H82.4295C82.3575 13.2451 82.3187 12.7397 82.3187 12.1827C82.3187 11.4432 82.6342 10.4711 83.6064 9.22883C84.2005 8.46964 85.4479 7.80781 88.0257 7.80781C90.3191 7.80781 91.6045 8.59541 92.3819 9.94562L92.3886 9.95724L92.3955 9.96876C92.8112 10.669 93.2112 11.8497 93.4952 13.6585C93.775 15.4401 93.923 17.6996 93.923 20.4606C93.923 25.698 92.6484 30.4861 90.1054 34.8646C87.5227 39.2472 83.0575 44.3863 76.5918 50.2869L76.5853 50.293L66.9754 59.1417L66.3301 59.7359V60.613V71.6501V73.6501H68.3301H113.05H114.979L115.048 71.7223L116 45.3663L116.075 43.2942H114.001H112.384H110.724L110.418 44.9256C109.691 48.7995 108.499 51.3435 107.045 52.848C105.765 54.1713 103.331 55.0925 99.158 55.0925Z" stroke="#3F3F55" stroke-width="4"/>
<path d="M9.54784 64.4926L9.5478 64.4926L9.55565 64.5028C14.8221 71.2937 22.4658 74.6016 32.1638 74.6016C41.8369 74.6016 49.6165 71.7377 55.2182 65.7902L55.2183 65.7902L55.2261 65.7817C60.8618 59.7287 63.4693 50.4027 63.4693 38.2532C63.4693 26.1097 60.8643 16.8094 55.2227 10.8162C49.6951 4.87664 42.1112 2 32.7347 2C23.4086 2 15.8306 4.91622 10.2471 10.9108C4.62435 16.8835 2 25.7807 2 37.2066C2 48.6281 4.43068 57.8062 9.54784 64.4926ZM35.2652 68.3625L35.2498 68.3657L35.2345 68.3693C34.6411 68.5062 33.5605 68.6035 31.8783 68.6035C30.4882 68.6035 29.3758 68.3016 28.4706 67.7677C27.9031 67.3814 27.1413 66.2877 26.6047 63.7237C26.055 61.0975 25.7214 58.5771 25.5992 56.161C25.5369 53.6477 25.5053 49.3334 25.5053 43.2009V34.7328C25.5053 23.0164 25.9915 15.5636 26.8709 12.1046C27.2537 10.5989 27.9218 9.64113 28.7792 9.03165C29.6599 8.4056 30.951 7.9981 32.8298 7.9981C34.7165 7.9981 35.9987 8.40108 36.8604 9.01058C37.6938 9.60001 38.3349 10.5239 38.6878 11.986L38.6926 12.0059L38.6978 12.0257C39.1197 13.6288 39.469 16.3701 39.7059 20.3649C39.9405 24.3224 40.0592 29.3935 40.0592 35.5891V43.9621C40.0592 48.0647 39.996 52.1352 39.8698 56.1737L39.8698 56.1756C39.8071 58.2426 39.6834 59.7128 39.5187 60.646C39.3379 61.6704 39.0947 62.7974 38.7868 64.029L38.7753 64.0751L38.7659 64.1218C38.5434 65.2344 38.2763 65.8681 38.0661 66.1861C37.7142 66.6318 37.2404 67.1343 36.6265 67.6927C36.2696 68.0129 35.8322 68.241 35.2652 68.3625Z" stroke="#3F3F55" stroke-width="4"/>
</svg>
