<svg width="28" height="24" viewBox="0 0 28 24" fill="none" xmlns="http://www.w3.org/2000/svg">
<path d="M18.4556 8.85465V4.49414L16.1144 4.91272V6.70723H11.8861V4.91272L9.54496 4.49414V8.85465H6.7623L3.58594 15.8066V17.1811V18.1689V21.0954V21.4834V22.0489C3.58594 22.643 4.02431 23.1245 4.56473 23.1245H23.4355C23.9762 23.1245 24.4145 22.643 24.4145 22.0489V21.4834V21.0954V18.1689V17.1811V15.8066L21.1978 8.85465H18.4556ZM14.0003 20.0112C11.816 20.0112 10.0453 18.2404 10.0453 16.0561C10.0453 13.8717 11.816 12.101 14.0003 12.101C16.1846 12.101 17.9553 13.8717 17.9553 16.0561C17.9553 18.2404 16.1846 20.0112 14.0003 20.0112Z" fill="white"/>
<path d="M23.7355 1.41641C21.6296 0.523305 16.9948 0 14 0C11.1005 0 6.37044 0.52325 4.26453 1.41641C2.13369 2.32006 0 4.34268 0 6.72547C0 8.03195 0.651109 8.8077 0.806859 8.98805C0.806859 8.98805 1.69848 8.98805 1.93627 8.98805H3.26561C3.99662 8.98805 4.86948 8.98805 5.34034 8.98805C5.61017 8.98805 6.2008 7.8167 6.2008 7.33835C6.2008 6.49693 5.7552 5.32695 5.7552 5.32695C5.78085 4.74791 6.01092 4.32485 6.95384 3.91951C8.66348 3.18462 12.4236 3.15164 14 3.15164C15.5763 3.15164 19.3365 3.18467 21.0462 3.91951C21.9891 4.32485 22.2191 4.74791 22.2448 5.32695C22.2448 5.32695 21.7992 6.49693 21.7992 7.33835C21.7992 7.8167 22.3899 8.98805 22.6597 8.98805C23.1303 8.98805 24.0031 8.98805 24.7344 8.98805H26.0637C26.3015 8.98805 27.1931 8.98805 27.1931 8.98805C27.3489 8.8077 28 8.0319 28 6.72547C28 4.34268 25.8663 2.32006 23.7355 1.41641Z" fill="white"/>
</svg>
