<svg width="385" height="400" viewBox="0 0 385 400" fill="none" xmlns="http://www.w3.org/2000/svg">
<path fill-rule="evenodd" clip-rule="evenodd" d="M0 69.3333C0 50.945 7.03081 33.3098 19.5457 20.3073C32.0607 7.30474 49.0346 0 66.7333 0H318.267C335.965 0 352.939 7.30474 365.454 20.3073C377.969 33.3098 385 50.945 385 69.3333V330.667C385 349.055 377.969 366.69 365.454 379.693C352.939 392.695 335.965 400 318.267 400H66.7333C49.0346 400 32.0607 392.695 19.5457 379.693C7.03081 366.69 0 349.055 0 330.667V69.3333ZM66.7333 26.6667C55.8418 26.6667 45.3963 31.1619 37.6948 39.1634C29.9933 47.165 25.6667 58.0174 25.6667 69.3333V330.667C25.6667 341.983 29.9933 352.835 37.6948 360.837C45.3963 368.838 55.8418 373.333 66.7333 373.333H318.267C329.158 373.333 339.604 368.838 347.305 360.837C355.007 352.835 359.333 341.983 359.333 330.667V69.3333C359.333 58.0174 355.007 47.165 347.305 39.1634C339.604 31.1619 329.158 26.6667 318.267 26.6667H66.7333ZM293.883 193.493C279.219 190.062 263.682 187.36 252.423 188.231C246.725 188.658 239.453 190.507 246.776 196.622C252.817 201.636 259.952 204.782 267.104 207.911C274.462 211.147 281.854 214.4 288.117 219.751C296.861 227.218 303.722 238.098 303.722 253.333C303.722 268.533 296.809 280.178 285.79 287.111C276.054 293.227 264.298 294.969 254.117 295.236C237.656 295.662 219.518 292.249 206.001 288.8V252.036C218.458 255.733 237.793 260.089 253.262 259.68C261.304 259.484 266.044 257.956 268.2 256.604C271.622 254.471 268.508 249.031 266.403 247.236C260.38 242.08 253.142 238.916 245.87 235.733C238.683 232.587 231.462 229.422 225.37 224.356C216.644 217.067 209.611 206.311 209.611 191.111C209.611 178.756 214.573 168.356 223.642 161.511C231.719 155.467 241.506 153.404 249.874 152.764C263.99 151.68 280.28 154.222 293.883 157.12V193.493ZM141.167 111.111H81.2778V288.889H115.5V235.556H141.167C157.05 235.556 172.283 229 183.514 217.331C194.746 205.662 201.056 189.836 201.056 173.333C201.056 156.831 194.746 141.005 183.514 129.336C172.283 117.667 157.05 111.111 141.167 111.111ZM141.167 200H115.5V146.667H141.167C147.974 146.667 154.502 149.476 159.316 154.477C164.129 159.478 166.833 166.261 166.833 173.333C166.833 180.406 164.129 187.189 159.316 192.19C154.502 197.19 147.974 200 141.167 200Z" fill="black"/>
</svg>
