<svg width="392" height="360" viewBox="0 0 392 360" fill="none" xmlns="http://www.w3.org/2000/svg">
<path d="M320.184 116.662C316.05 115.216 311.916 113.85 307.781 112.564C308.47 109.591 309.083 106.618 309.695 103.645C319.113 55.7548 312.911 17.2658 292.009 4.57006C271.873 -7.56322 239.028 5.05218 205.8 35.4256C202.508 38.3986 199.292 41.5324 196.23 44.6661C194.162 42.577 192.019 40.4878 189.875 38.479C155.039 6.01642 120.127 -7.64357 99.225 5.13253C79.1656 17.3462 73.1937 53.5853 81.6156 98.9043C82.4578 103.404 83.3766 107.823 84.4484 112.323C79.5484 113.77 74.725 115.377 70.2078 117.064C29.3234 131.929 0 155.392 0 179.659C0 204.729 31.2375 229.879 73.7297 245.146C77.175 246.352 80.6203 247.557 84.1422 248.602C82.9938 253.423 81.9984 258.164 81.0797 263.065C73.0406 307.661 79.3188 343.016 99.3781 355.15C120.05 367.685 154.809 354.828 188.65 323.732C191.33 321.241 194.009 318.669 196.689 315.937C200.058 319.393 203.58 322.687 207.102 325.901C239.87 355.471 272.256 367.444 292.239 355.31C312.911 342.775 319.648 304.768 310.92 258.485C310.231 254.95 309.466 251.334 308.623 247.637C311.073 246.914 313.447 246.111 315.82 245.307C359.997 229.96 392 205.131 392 179.659C392 155.312 361.834 131.688 320.184 116.662ZM216.595 48.4427C245.077 22.4084 271.644 12.2036 283.741 19.5157C296.68 27.3099 301.656 58.8082 293.541 100.19C293.005 102.922 292.469 105.574 291.78 108.225C274.783 104.208 257.556 101.315 240.253 99.7078C230.3 84.7622 219.428 70.4594 207.638 57.0405C210.623 54.0674 213.533 51.2551 216.595 48.4427ZM128.012 221.362C131.917 228.353 135.898 235.343 140.109 242.173C128.166 240.807 116.298 238.799 104.584 236.147C107.953 224.576 112.164 212.604 117.064 200.39C120.586 207.461 124.184 214.452 128.012 221.362ZM104.814 124.698C115.839 122.126 127.553 120.037 139.727 118.43C135.669 125.099 131.688 131.929 127.936 138.84C124.184 145.67 120.509 152.66 117.064 159.731C112.241 147.759 108.183 136.027 104.814 124.698ZM125.792 180.061C130.845 168.972 136.358 158.124 142.177 147.437C147.995 136.75 154.273 126.385 160.858 116.18C172.342 115.296 184.056 114.814 196 114.814C207.944 114.814 219.734 115.296 231.142 116.18C237.65 126.305 243.852 136.67 249.747 147.277C255.642 157.883 261.155 168.731 266.361 179.739C261.231 190.828 255.719 201.756 249.823 212.523C244.005 223.21 237.803 233.576 231.295 243.861C219.888 244.745 208.02 245.146 196 245.146C183.98 245.146 172.342 244.745 161.087 244.022C154.427 233.817 148.148 223.371 142.253 212.684C136.358 201.997 130.922 191.149 125.792 180.061ZM264.064 221.201C267.969 214.13 271.644 206.979 275.242 199.747C280.142 211.398 284.43 223.21 288.181 235.343C276.314 238.156 264.294 240.325 252.197 241.772C256.331 235.022 260.236 228.112 264.064 221.201ZM275.089 159.731C271.491 152.66 267.816 145.589 263.987 138.679C260.236 131.849 256.331 125.099 252.273 118.43C264.6 120.037 276.391 122.207 287.416 124.858C283.894 136.75 279.759 148.321 275.089 159.731ZM196.153 69.3345C204.192 78.4947 211.772 88.137 218.816 98.1008C203.656 97.3776 188.42 97.3776 173.261 98.1008C180.764 87.7353 188.497 78.0929 196.153 69.3345ZM107.341 20.0782C120.203 12.2036 148.761 23.453 178.85 51.4158C180.764 53.1835 182.678 55.112 184.669 57.0405C172.802 70.4594 161.853 84.7622 151.823 99.7078C134.52 101.315 117.37 104.127 100.373 108.065C99.3781 103.967 98.5359 99.7882 97.6937 95.6098C90.4969 56.7191 95.2437 27.3903 107.341 20.0782ZM88.5828 231.888C85.3672 230.924 82.2281 229.879 79.0891 228.755C62.7813 223.371 44.2531 214.853 30.8547 203.684C23.1219 198.06 17.9156 189.382 16.4609 179.659C16.4609 164.954 40.6547 146.152 75.5672 133.376C79.9312 131.769 84.3719 130.322 88.8125 128.956C94.0188 146.393 100.297 163.508 107.57 180.061C100.22 196.854 93.8656 214.211 88.5828 231.888ZM177.855 310.634C165.222 322.767 150.598 332.41 134.673 338.999C126.175 343.257 116.375 343.659 107.647 340.043C95.4734 332.651 90.4203 304.286 97.3109 266.119C98.1531 261.619 99.0719 257.119 100.144 252.7C117.294 256.557 134.597 259.208 152.13 260.574C162.236 275.6 173.337 289.983 185.205 303.483C182.755 305.974 180.305 308.384 177.855 310.634ZM196.612 291.108C188.803 282.269 180.994 272.466 173.414 261.94C180.764 262.262 188.344 262.422 196 262.422C203.886 262.422 211.619 262.262 219.275 261.86C212.231 272.065 204.652 281.787 196.612 291.108ZM296.68 315.214C295.991 325.017 291.397 334.177 284.047 340.365C271.873 347.757 245.919 338.115 217.897 312.884C214.681 309.991 211.466 306.857 208.173 303.643C219.887 290.064 230.683 275.681 240.483 260.574C258.016 259.048 275.472 256.235 292.698 252.137C293.464 255.432 294.153 258.726 294.766 261.94C298.517 279.296 299.13 297.376 296.68 315.214ZM310.614 228.835C308.47 229.558 306.327 230.281 304.106 230.924C298.747 213.407 292.163 196.292 284.583 179.659C291.933 163.267 298.134 146.393 303.341 129.117C307.322 130.322 311.15 131.608 314.825 132.894C350.503 145.75 375.539 164.874 375.539 179.498C375.539 195.247 348.819 215.577 310.614 228.835ZM196 216.782C215.37 216.782 231.066 200.31 231.066 179.98C231.066 159.651 215.37 143.179 196 143.179C176.63 143.179 160.934 159.651 160.934 179.98C160.934 200.31 176.63 216.782 196 216.782Z" fill="black"/>
</svg>
