<svg width="385" height="300" viewBox="0 0 385 300" fill="none" xmlns="http://www.w3.org/2000/svg">
<path d="M181.576 226.804C181.395 227.179 181.215 227.479 181.576 226.804ZM331.445 172.433C319.345 172.429 307.407 175.316 296.554 180.87C293.004 173.433 289.335 166.934 288.733 162.059C288.011 156.372 287.229 152.997 288.071 146.248C288.914 139.498 292.704 129.937 292.643 129.249C292.583 128.562 291.801 125.125 284.041 125.062C276.281 125 269.603 126.625 268.827 128.749C267.457 132.632 266.39 136.624 265.639 140.686C264.255 147.998 250.124 174.121 242.124 187.745C239.477 182.432 237.251 177.745 236.77 173.996C236.048 168.309 235.266 164.934 236.108 158.184C236.95 151.435 240.74 141.873 240.68 141.186C240.62 140.498 239.838 137.061 232.083 136.999C224.329 136.936 217.646 138.561 216.864 140.686C216.082 142.811 215.239 147.81 213.675 152.622C212.111 157.435 193.288 200.931 188.361 212.243C185.835 217.992 183.669 222.617 182.105 225.741C181.864 226.241 181.684 226.554 181.564 226.804C181.744 226.491 181.864 226.179 181.864 226.304C180.541 228.991 179.759 230.491 179.759 230.491V230.554C178.736 232.553 177.593 234.366 177.052 234.366C176.691 234.366 175.909 229.116 177.232 221.929C180.06 206.805 186.737 183.307 186.677 182.495C186.617 182.057 187.94 177.995 182.285 175.808C176.811 173.746 174.826 177.183 174.345 177.183C173.863 177.183 173.503 178.433 173.503 178.433C173.503 178.433 179.578 151.935 161.838 151.935C150.769 151.935 135.369 164.559 127.801 175.995C123.049 178.683 112.762 184.495 101.934 190.682C97.783 193.057 93.5118 195.494 89.4813 197.806C89.1805 197.494 88.9399 197.181 88.6391 196.869C67.1089 172.996 27.3572 156.122 29.0416 124.062C29.6432 112.376 33.5534 81.6907 105.483 44.4437C164.437 13.9462 211.57 22.3205 219.685 40.944C231.355 67.5043 194.485 116.938 133.264 124.062C109.929 126.75 97.6627 117.375 94.5947 113.876C91.4063 110.188 90.9251 110.001 89.7219 110.688C87.7368 111.813 89.0001 115.063 89.7219 117C91.5266 121.937 99.0463 130.687 111.854 135.061C123.103 138.874 150.462 140.998 183.543 127.687C220.708 112.813 249.637 71.379 241.155 36.6944C232.516 1.44723 176.258 -10.1143 123.061 9.50907C91.3642 21.1956 57.0868 39.5691 32.4285 63.5047C3.13805 92.0023 -1.54818 116.813 0.376845 127.187C7.22872 163.996 56.0641 187.995 75.6091 205.743C74.6466 206.306 73.7443 206.805 72.9021 207.305C63.1025 212.368 25.8714 232.616 16.553 253.989C6.02558 278.237 18.2976 295.611 26.3526 297.986C51.4922 305.235 77.2334 292.174 91.0634 270.738C104.894 249.302 103.215 221.304 96.8385 208.555C96.7783 208.368 96.658 208.243 96.5979 208.055C99.1245 206.493 101.711 204.931 104.298 203.368C109.285 200.306 114.158 197.494 118.429 195.056C116.023 201.806 114.278 209.93 113.376 221.679C112.293 235.428 117.767 253.239 124.866 260.239C127.994 263.301 131.778 263.363 134.124 263.363C142.425 263.363 146.155 256.239 150.3 247.74C155.413 237.366 159.925 225.304 159.925 225.304C159.925 225.304 154.27 257.926 169.731 257.926C175.379 257.926 181.034 250.364 183.567 246.49V246.552C183.567 246.552 183.687 246.302 183.988 245.802C184.589 244.865 184.89 244.302 184.89 244.302V244.115C187.176 240.053 192.169 230.741 199.683 215.367C209.428 195.494 218.747 170.683 218.747 170.683C219.647 176.137 220.893 181.524 222.476 186.807C224.161 192.744 227.71 199.244 230.537 205.556C228.251 208.805 226.868 210.68 226.868 210.68C226.872 210.728 226.894 210.773 226.928 210.805C225.123 213.305 223.078 215.992 220.972 218.617C213.278 228.116 204.128 238.99 202.925 242.115C201.482 245.802 201.842 248.552 204.61 250.677C206.655 252.302 210.264 252.552 214.048 252.239C220.966 251.739 225.839 249.989 228.185 248.865C232.51 247.253 236.598 245.024 240.331 242.24C247.85 236.491 252.422 228.241 252.001 217.367C251.761 211.368 249.896 205.368 247.61 199.744C248.272 198.744 248.993 197.681 249.655 196.619C261.56 178.558 270.764 158.734 270.764 158.734C271.665 164.188 272.911 169.575 274.494 174.858C275.938 179.92 278.759 185.482 281.346 190.919C270.163 200.356 263.245 211.293 260.838 218.48C256.387 231.791 259.876 237.79 266.433 239.165C269.381 239.79 273.592 238.353 276.72 236.978C281.366 235.37 285.746 233.031 289.708 230.041C297.227 224.292 304.5 216.23 304.019 205.293C303.839 200.356 302.515 195.419 300.771 190.669C310.215 186.545 322.481 184.295 338.122 186.17C371.617 190.232 378.175 211.98 376.911 221.042C375.648 230.104 368.61 235.166 366.263 236.666C363.917 238.165 363.195 238.728 363.376 239.853C363.677 241.478 364.76 241.415 366.745 241.04C369.512 240.54 384.305 233.666 384.966 216.855C385.929 195.606 366.263 172.233 331.427 172.421L331.445 172.433ZM73.263 262.863C62.2001 275.425 46.6796 280.175 40.0082 276.175C32.8496 271.85 35.6769 253.364 49.3266 239.978C57.6282 231.853 68.3301 224.354 75.4287 219.729C77.0529 218.73 79.399 217.23 82.2865 215.417C82.7678 215.105 83.0084 214.98 83.0084 214.98C83.5498 214.605 84.1514 214.292 84.753 213.917C89.74 232.916 84.9335 249.664 73.263 262.851V262.863ZM154.09 205.743C150.24 215.555 142.125 240.553 137.192 239.24C132.981 238.115 130.394 219.054 136.35 200.306C139.357 190.869 145.734 179.62 149.524 175.246C155.594 168.184 162.271 165.934 163.835 168.746C165.941 172.433 156.496 199.619 154.09 205.743ZM220.864 238.865C219.24 239.74 217.736 240.303 217.014 239.865C216.473 239.553 217.676 238.365 217.676 238.365C217.676 238.365 226.038 229.054 229.346 224.804C231.271 222.304 233.497 219.367 235.897 216.117C235.897 216.43 235.957 216.742 235.957 217.117C235.879 228.304 225.538 235.866 220.846 238.865H220.864ZM272.346 226.679C271.143 225.804 271.324 222.867 275.354 213.742C276.918 210.18 280.522 204.181 286.784 198.431C287.493 200.608 287.878 202.884 287.927 205.181C287.867 219.242 278.182 224.492 272.352 226.679H272.346Z" fill="black"/>
</svg>
