<svg width="150" height="15" viewBox="0 0 150 10" fill="none" stroke-width="2" xmlns="http://www.w3.org/2000/svg">
<path d="M1.1127 7.68902L5.86305 2.93866C6.7903 2.01854 7.98145 1.56919 9.17261 1.56919C10.5635 1.56919 11.9401 2.1826 12.8745 3.38088L15.7703 7.10414C17.0114 8.70185 18.8659 9.52211 20.7133 9.52211C22.3039 9.52211 23.9087 8.91583 25.1355 7.68902L29.8859 2.93866C30.8131 2.01854 32.0043 1.56919 33.1954 1.56919C34.5863 1.56919 35.9629 2.1826 36.8973 3.38088L39.7932 7.10414C41.0342 8.70185 42.8887 9.52211 44.7361 9.52211C46.3267 9.52211 47.9315 8.91583 49.1583 7.68902L53.9087 2.93866C54.8359 2.01854 56.0271 1.56919 57.2183 1.56919C58.6091 1.56919 59.9857 2.1826 60.9201 3.38088L63.816 7.10414C65.0571 8.70185 66.9116 9.52211 68.7589 9.52211C70.3495 9.52211 71.9543 8.91583 73.1812 7.68902L77.9315 2.93866C78.8588 2.01854 80.0499 1.56919 81.2411 1.56919C82.632 1.56919 84.0086 2.1826 84.9429 3.38088L87.8388 7.10414C89.0799 8.70185 90.9344 9.52211 92.7817 9.52211C94.3723 9.52211 95.9772 8.91583 97.204 7.68902L101.954 2.93866C102.882 2.01854 104.073 1.56919 105.264 1.56919C106.655 1.56919 108.031 2.1826 108.966 3.38088L111.862 7.10414C113.103 8.70185 114.957 9.52211 116.805 9.52211C118.395 9.52211 120 8.91583 121.227 7.68902L125.977 2.93866C126.904 2.01854 128.096 1.56919 129.287 1.56919C130.678 1.56919 132.054 2.1826 132.989 3.38088L135.884 7.10414C137.126 8.70185 138.98 9.52211 140.827 9.52211C142.418 9.52211 144.023 8.91583 145.25 7.68902L150 2.93866L148.887 1.82596L144.144 6.57632C143.224 7.49643 142.033 7.94579 140.835 7.94579C139.444 7.94579 138.067 7.33238 137.133 6.13409L134.237 2.41084C132.974 0.820257 131.12 0 129.272 0C127.682 0 126.077 0.606277 124.85 1.8331L120.1 6.58345C119.18 7.50357 117.989 7.95292 116.79 7.95292C115.399 7.95292 114.023 7.33951 113.088 6.14123L110.193 2.41797C108.951 0.820257 107.097 0 105.25 0C103.659 0 102.054 0.606277 100.827 1.8331L96.077 6.58345C95.1569 7.50357 93.9658 7.95292 92.7675 7.95292C91.3766 7.95292 90 7.33951 89.0656 6.14123L86.1698 2.41797C84.9287 0.820257 83.0813 0 81.2268 0C79.6362 0 78.0314 0.606277 76.8046 1.8331L72.0542 6.58345C71.1341 7.50357 69.9429 7.95292 68.7446 7.95292C67.3538 7.95292 65.9772 7.33951 65.0428 6.14123L62.1469 2.41797C60.913 0.820257 59.0585 0 57.2111 0C55.6205 0 54.0157 0.606277 52.7889 1.8331L48.0385 6.58345C47.1184 7.50357 45.9272 7.95292 44.729 7.95292C43.3381 7.95292 41.9615 7.33951 41.0271 6.14123L38.1312 2.41797C36.8902 0.820257 35.0428 0 33.1883 0C31.5977 0 29.9929 0.606277 28.766 1.8331L24.0157 6.58345C23.0956 7.50357 21.9044 7.95292 20.7061 7.95292C19.3153 7.95292 17.9387 7.33951 17.0043 6.14123L14.1084 2.41797C12.8745 0.820257 11.02 0 9.16548 0C7.57489 0 5.97004 0.606277 4.74322 1.8331L0 6.58345L1.1127 7.69615V7.68902Z" fill="#3F3F55" stroke="#3F3F55" />
</svg>
