<svg width="512" height="363" viewBox="0 0 512 363" fill="none" xmlns="http://www.w3.org/2000/svg">
<path d="M465.557 294.93C465.557 288.895 465.703 282.918 465.996 277C466.289 271.082 466.436 265.164 466.436 259.246C466.436 257.43 466.084 256.082 465.381 255.203C464.736 254.324 463.857 253.709 462.744 253.357C461.689 253.006 460.459 252.83 459.053 252.83C457.705 252.83 456.299 252.771 454.834 252.654C454.6 252.42 454.307 252.098 453.955 251.688C453.662 251.277 453.516 250.955 453.516 250.721C453.516 250.428 453.633 250.105 453.867 249.754C454.16 249.344 454.336 249.139 454.395 249.139C454.688 248.904 455.244 248.406 456.064 247.645C456.885 246.824 457.764 245.945 458.701 245.008C459.639 244.07 460.488 243.191 461.25 242.371C462.07 241.551 462.627 240.965 462.92 240.613C463.096 240.496 463.33 240.262 463.623 239.91C463.916 239.5 464.238 239.09 464.59 238.68C464.941 238.211 465.293 237.801 465.645 237.449C465.996 237.039 466.26 236.746 466.436 236.57C466.611 236.336 467.021 235.75 467.666 234.812C468.369 233.875 469.189 232.791 470.127 231.561C471.064 230.271 472.061 228.953 473.115 227.605C474.229 226.199 475.283 224.939 476.279 223.826C477.275 222.654 478.184 221.688 479.004 220.926C479.824 220.164 480.41 219.783 480.762 219.783H481.025C481.67 220.135 482.139 220.545 482.432 221.014C482.725 221.482 482.93 222.01 483.047 222.596C483.223 223.182 483.34 223.826 483.398 224.529C483.457 225.174 483.574 225.848 483.75 226.551V226.814C483.75 228.396 483.604 229.979 483.311 231.561C483.076 233.143 482.959 234.812 482.959 236.57C482.959 236.746 482.959 236.98 482.959 237.273C482.959 237.508 482.988 237.771 483.047 238.064C483.047 238.357 483.076 238.709 483.135 239.119L484.541 240.613H486.475C489.17 240.613 491.865 240.379 494.561 239.91C496.377 239.441 498.193 238.855 500.01 238.152C501.885 237.391 503.76 237.01 505.635 237.01C507.393 237.01 508.564 237.479 509.15 238.416C509.736 239.354 510.029 240.555 510.029 242.02C510.029 243.484 509.707 244.773 509.062 245.887C508.477 247 507.656 247.938 506.602 248.699C505.605 249.402 504.463 249.988 503.174 250.457C501.885 250.867 500.596 251.102 499.307 251.16C499.189 251.219 498.926 251.277 498.516 251.336C498.105 251.336 497.666 251.365 497.197 251.424C496.729 251.424 496.289 251.424 495.879 251.424C495.527 251.424 495.293 251.424 495.176 251.424C495.059 251.541 494.795 251.658 494.385 251.775C494.033 251.893 493.623 252.01 493.154 252.127C492.686 252.244 492.246 252.361 491.836 252.479C491.426 252.537 491.162 252.596 491.045 252.654H483.75L482.432 253.094C482.314 254.617 482.227 256.111 482.168 257.576C482.051 258.807 481.963 260.096 481.904 261.443C481.904 262.732 481.904 263.816 481.904 264.695C481.904 264.812 481.846 265.193 481.729 265.838C481.67 266.482 481.641 266.951 481.641 267.244C481.641 268.709 481.758 270.145 481.992 271.551C482.285 272.957 482.432 274.422 482.432 275.945C482.432 278.582 482.314 281.277 482.08 284.031C481.904 286.727 481.816 289.451 481.816 292.205C481.816 292.85 481.816 293.523 481.816 294.227C481.816 294.93 481.846 295.633 481.904 296.336C481.436 296.863 481.172 297.361 481.113 297.83C481.055 298.299 481.025 298.855 481.025 299.5C481.025 300.672 481.201 301.756 481.553 302.752C481.963 303.689 482.49 304.686 483.135 305.74C484.365 307.791 485.713 309.197 487.178 309.959C488.643 310.662 490.635 311.014 493.154 311.014C494.678 311.014 496.377 310.691 498.252 310.047C500.186 309.344 501.855 308.758 503.262 308.289C503.379 308.289 503.73 308.201 504.316 308.025C504.902 307.791 505.547 307.557 506.25 307.322C506.953 307.029 507.598 306.795 508.184 306.619C508.77 306.385 509.15 306.238 509.326 306.18H510.029C510.498 306.18 510.85 306.355 511.084 306.707C511.318 307.059 511.436 307.498 511.436 308.025C511.436 309.666 510.967 311.072 510.029 312.244C509.15 313.357 508.066 314.324 506.777 315.145C505.488 315.965 504.082 316.668 502.559 317.254C501.094 317.84 499.805 318.396 498.691 318.924C498.516 318.924 498.164 319.041 497.637 319.275C497.168 319.451 496.787 319.598 496.494 319.715C494.795 320.242 493.154 320.828 491.572 321.473C490.049 322.117 488.35 322.439 486.475 322.439C485.303 322.439 483.984 322.322 482.52 322.088C481.113 321.854 479.648 321.561 478.125 321.209C476.66 320.799 475.225 320.33 473.818 319.803C472.471 319.217 471.328 318.572 470.391 317.869C470.156 317.693 469.893 317.488 469.6 317.254C469.307 316.961 469.014 316.668 468.721 316.375C468.486 316.023 468.252 315.73 468.018 315.496C467.842 315.262 467.754 315.086 467.754 314.969L465.645 306.971C465.645 306.912 465.645 306.414 465.645 305.477C465.645 304.539 465.615 303.426 465.557 302.137C465.557 300.848 465.557 299.529 465.557 298.182C465.557 296.834 465.557 295.75 465.557 294.93Z" fill="#030089"/>
<path d="M380.828 280.076V277.879C380.887 277.645 380.975 277.146 381.092 276.385C381.209 275.623 381.326 274.773 381.443 273.836C381.619 272.898 381.736 272.02 381.795 271.199C381.912 270.32 381.971 269.705 381.971 269.354C382.088 269.061 382.234 268.68 382.41 268.211C382.586 267.684 382.762 267.361 382.938 267.244C382.996 267.068 383.172 266.658 383.465 266.014C383.758 265.311 384.08 264.578 384.432 263.816C384.842 263.055 385.193 262.352 385.486 261.707C385.838 261.004 386.102 260.564 386.277 260.389C386.336 260.271 386.424 260.037 386.541 259.686C386.658 259.275 386.775 258.865 386.893 258.455C387.01 257.986 387.127 257.576 387.244 257.225C387.361 256.814 387.449 256.521 387.508 256.346C387.684 255.936 387.83 255.643 387.947 255.467C388.064 255.291 388.182 255.145 388.299 255.027C388.416 254.852 388.562 254.705 388.738 254.588C388.973 254.412 389.266 254.119 389.617 253.709C392.137 250.779 394.686 248.289 397.264 246.238C399.9 244.188 402.625 242.547 405.438 241.316C408.309 240.027 411.385 239.09 414.666 238.504C417.947 237.918 421.521 237.625 425.389 237.625C425.623 237.625 425.945 237.654 426.355 237.713C426.824 237.713 427.264 237.742 427.674 237.801C428.084 237.801 428.436 237.83 428.729 237.889C429.08 237.889 429.285 237.889 429.344 237.889C429.344 237.947 429.49 238.035 429.783 238.152C430.135 238.211 430.516 238.299 430.926 238.416C431.336 238.533 431.688 238.65 431.98 238.768C432.332 238.885 432.566 238.943 432.684 238.943C435.027 239.764 437.107 240.672 438.924 241.668C440.74 242.664 442.439 244.188 444.021 246.238C444.197 246.414 444.432 246.854 444.725 247.557C445.018 248.26 445.252 248.758 445.428 249.051V249.666C445.428 252.713 444.812 255.057 443.582 256.697C442.352 258.279 440.125 259.07 436.902 259.07C435.73 259.07 434.676 258.719 433.738 258.016C432.801 257.254 431.922 256.346 431.102 255.291C430.34 254.236 429.637 253.152 428.992 252.039C428.348 250.867 427.732 249.871 427.146 249.051C427.146 248.934 427.059 248.816 426.883 248.699C426.707 248.523 426.561 248.377 426.443 248.26C426.268 248.084 425.887 247.791 425.301 247.381C424.773 246.971 424.158 246.531 423.455 246.062C422.811 245.535 422.195 245.037 421.609 244.568C421.023 244.1 420.584 243.748 420.291 243.514C420.174 243.514 419.734 243.484 418.973 243.426C418.27 243.309 417.713 243.25 417.303 243.25C417.127 243.25 416.893 243.279 416.6 243.338C416.307 243.338 415.984 243.367 415.633 243.426C415.34 243.426 415.076 243.455 414.842 243.514C414.607 243.514 414.461 243.514 414.402 243.514C413.113 243.807 411.912 244.48 410.799 245.535C409.744 246.59 408.719 247.498 407.723 248.26C407.254 248.611 406.844 248.904 406.492 249.139C406.141 249.373 405.818 249.607 405.525 249.842C405.232 250.018 404.939 250.252 404.646 250.545C404.354 250.838 404.061 251.248 403.768 251.775C403.064 252.771 402.332 254.061 401.57 255.643C400.809 257.166 400.135 258.777 399.549 260.477C398.963 262.176 398.465 263.875 398.055 265.574C397.703 267.215 397.527 268.65 397.527 269.881V270.76C397.586 271.521 397.703 272.781 397.879 274.539C398.113 276.238 398.348 278.025 398.582 279.9C398.816 281.717 399.021 283.416 399.197 284.998C399.432 286.521 399.578 287.488 399.637 287.898C399.93 290.594 400.633 293.377 401.746 296.248C402.859 299.061 404.178 301.463 405.701 303.455C406.521 304.51 407.43 305.535 408.426 306.531C409.48 307.527 410.594 308.406 411.766 309.168C412.996 309.871 414.227 310.457 415.457 310.926C416.746 311.395 418.064 311.629 419.412 311.629C420.936 311.629 422.605 311.395 424.422 310.926C426.238 310.457 427.879 309.988 429.344 309.52C429.578 309.461 429.988 309.344 430.574 309.168C431.16 308.992 431.717 308.816 432.244 308.641C432.83 308.406 433.357 308.201 433.826 308.025C434.295 307.85 434.559 307.732 434.617 307.674C435.32 307.264 435.994 306.766 436.639 306.18C437.283 305.535 437.898 304.92 438.484 304.334C439.129 303.748 439.803 303.25 440.506 302.84C441.268 302.43 442.088 302.225 442.967 302.225C443.436 302.225 443.729 302.371 443.846 302.664C443.963 302.898 444.021 303.162 444.021 303.455C444.021 304.744 443.611 305.975 442.791 307.146C442.029 308.318 441.385 309.314 440.857 310.135C437.4 314.822 433.504 318.162 429.168 320.154C424.891 322.088 419.881 323.055 414.139 323.055H409.832C409.715 323.055 409.451 322.996 409.041 322.879C408.631 322.82 408.162 322.703 407.635 322.527C407.166 322.41 406.668 322.264 406.141 322.088C405.672 321.971 405.291 321.854 404.998 321.736C404.822 321.619 404.559 321.502 404.207 321.385C403.914 321.268 403.768 321.18 403.768 321.121C403.65 320.945 403.27 320.652 402.625 320.242C402.039 319.773 401.717 319.539 401.658 319.539C400.721 319.246 399.49 318.953 397.967 318.66C396.443 318.367 395.184 317.752 394.188 316.814C391.551 314.646 389.354 312.156 387.596 309.344C385.896 306.473 384.52 303.426 383.465 300.203C382.469 296.98 381.766 293.67 381.355 290.271C381.004 286.814 380.828 283.416 380.828 280.076Z" fill="#030089"/>
<path d="M319.217 263.904C319.217 264.256 319.363 264.607 319.656 264.959C320.008 265.311 320.389 265.662 320.799 266.014C321.268 266.307 321.707 266.57 322.117 266.805C322.586 266.98 322.967 267.127 323.26 267.244H332.4H341.365C341.834 267.186 342.625 267.098 343.738 266.98C344.91 266.863 346.111 266.746 347.342 266.629C348.631 266.453 349.832 266.277 350.945 266.102C352.117 265.926 352.938 265.75 353.406 265.574C353.523 265.457 353.67 265.193 353.846 264.783C354.08 264.314 354.197 264.021 354.197 263.904V263.113V262.41C354.197 262.234 354.168 261.912 354.109 261.443C354.051 260.916 353.963 260.389 353.846 259.861C353.787 259.275 353.699 258.719 353.582 258.191C353.523 257.664 353.465 257.283 353.406 257.049C352.82 256.639 352.322 256.141 351.912 255.555C351.502 254.969 351.062 254.412 350.594 253.885C350.184 253.299 349.715 252.771 349.188 252.303C348.719 251.834 348.133 251.453 347.43 251.16C347.02 250.984 346.463 250.75 345.76 250.457C345.115 250.105 344.471 249.783 343.826 249.49C343.182 249.197 342.625 248.934 342.156 248.699C341.688 248.465 341.424 248.318 341.365 248.26H340.75H340.047C339.637 248.318 339.109 248.406 338.465 248.523C337.82 248.641 337.176 248.758 336.531 248.875C335.887 248.934 335.33 248.992 334.861 249.051C334.393 249.109 334.129 249.139 334.07 249.139C333.895 249.139 333.602 249.256 333.191 249.49C332.84 249.666 332.43 249.871 331.961 250.105C331.551 250.34 331.141 250.574 330.73 250.809C330.379 250.984 330.145 251.102 330.027 251.16C329.031 251.512 328.064 251.775 327.127 251.951C326.248 252.127 325.486 252.713 324.842 253.709C324.725 253.885 324.461 254.324 324.051 255.027C323.641 255.73 323.377 256.17 323.26 256.346C322.908 256.99 322.498 257.605 322.029 258.191C321.561 258.719 321.121 259.275 320.711 259.861C320.301 260.389 319.949 261.004 319.656 261.707C319.363 262.352 319.217 263.084 319.217 263.904ZM305.945 285.35V283.68C306.004 283.387 306.062 282.83 306.121 282.01C306.238 281.189 306.297 280.34 306.297 279.461C306.355 278.523 306.414 277.645 306.473 276.824C306.531 276.004 306.619 275.447 306.736 275.154C306.795 274.1 306.941 272.928 307.176 271.639C307.469 270.291 307.791 268.943 308.143 267.596C308.553 266.248 309.021 264.959 309.549 263.729C310.076 262.439 310.662 261.326 311.307 260.389C311.365 260.33 311.482 260.213 311.658 260.037C311.893 259.803 312.127 259.598 312.361 259.422C312.596 259.188 312.801 258.982 312.977 258.807C313.211 258.631 313.357 258.514 313.416 258.455C313.475 258.396 313.533 258.221 313.592 257.928C313.709 257.635 313.826 257.342 313.943 257.049C314.061 256.756 314.148 256.492 314.207 256.258C314.324 255.965 314.412 255.789 314.471 255.73C315.467 254.031 316.697 252.625 318.162 251.512C319.627 250.398 321.121 249.314 322.645 248.26C323.699 247.615 324.666 247.029 325.545 246.502C326.482 245.916 327.391 245.418 328.27 245.008C329.207 244.539 330.174 244.129 331.17 243.777C332.225 243.426 333.396 243.133 334.686 242.898C334.803 242.898 335.271 242.869 336.092 242.811C336.971 242.752 337.967 242.723 339.08 242.723C340.193 242.664 341.336 242.605 342.508 242.547C343.68 242.488 344.617 242.459 345.32 242.459H346.111H346.902C348.836 242.928 350.652 243.484 352.352 244.129C354.109 244.715 355.721 245.477 357.186 246.414C358.709 247.352 360.086 248.494 361.316 249.842C362.605 251.131 363.777 252.684 364.832 254.5C364.891 254.617 364.979 254.969 365.096 255.555C365.213 256.082 365.33 256.346 365.447 256.346C365.799 257.225 366.209 258.016 366.678 258.719C367.205 259.422 367.674 260.125 368.084 260.828C368.553 261.473 368.934 262.176 369.227 262.938C369.52 263.641 369.666 264.461 369.666 265.398C369.666 266.512 369.197 267.596 368.26 268.65C367.381 269.646 366.678 270.438 366.15 271.023C365.799 271.141 365.154 271.287 364.217 271.463C363.338 271.639 362.342 271.814 361.229 271.99C360.174 272.166 359.09 272.312 357.977 272.43C356.922 272.547 356.043 272.605 355.34 272.605C355.105 272.605 354.578 272.605 353.758 272.605C352.996 272.547 352.059 272.488 350.945 272.43C349.891 272.371 348.748 272.342 347.518 272.342C346.287 272.283 345.115 272.254 344.002 272.254C342.83 272.254 341.805 272.312 340.926 272.43C340.105 272.547 339.549 272.605 339.256 272.605C339.197 272.605 338.934 272.635 338.465 272.693C338.055 272.752 337.586 272.84 337.059 272.957C336.531 273.016 336.033 273.074 335.564 273.133C335.096 273.191 334.803 273.221 334.686 273.221C334.041 273.279 333.104 273.309 331.873 273.309C330.643 273.309 329.266 273.309 327.742 273.309C326.219 273.309 324.783 273.309 323.436 273.309C322.146 273.309 321.238 273.279 320.711 273.221C320.242 273.279 319.92 273.455 319.744 273.748C319.568 273.982 319.422 274.246 319.305 274.539C319.305 274.539 319.275 274.686 319.217 274.979C319.217 275.213 319.217 275.506 319.217 275.857C319.217 276.209 319.217 276.59 319.217 277C319.217 277.352 319.217 277.645 319.217 277.879C319.217 278.172 319.217 278.611 319.217 279.197C319.217 279.783 319.217 280.369 319.217 280.955C319.217 281.482 319.217 281.98 319.217 282.449C319.275 282.918 319.305 283.182 319.305 283.24C319.363 284.471 319.832 286.141 320.711 288.25C321.59 290.301 322.615 292.381 323.787 294.49C325.018 296.6 326.307 298.562 327.654 300.379C329.061 302.137 330.35 303.309 331.521 303.895C331.756 304.07 332.312 304.393 333.191 304.861C334.07 305.33 335.008 305.828 336.004 306.355C337 306.824 337.938 307.293 338.816 307.762C339.754 308.172 340.398 308.465 340.75 308.641C341.043 308.641 341.248 308.611 341.365 308.553C341.541 308.494 341.746 308.465 341.98 308.465C343.152 308.465 344.236 308.611 345.232 308.904C346.287 309.197 347.4 309.344 348.572 309.344H349.891C350.184 309.344 350.506 309.314 350.857 309.256L359.646 304.686C359.881 303.982 360.174 303.279 360.525 302.576C360.877 301.814 361.287 301.141 361.756 300.555C362.283 299.969 362.869 299.5 363.514 299.148C364.217 298.797 365.066 298.621 366.062 298.621H366.15C366.268 298.738 366.414 298.943 366.59 299.236C366.824 299.529 366.941 299.705 366.941 299.764C366.941 299.881 366.824 300.203 366.59 300.73C366.414 301.258 366.268 301.668 366.15 301.961C365.506 303.66 364.832 305.271 364.129 306.795C363.426 308.318 362.547 309.842 361.492 311.365C361.375 311.482 361.17 311.688 360.877 311.98C360.584 312.273 360.262 312.596 359.91 312.947C359.559 313.299 359.207 313.65 358.855 314.002C358.562 314.295 358.328 314.529 358.152 314.705C358.035 314.764 357.801 314.881 357.449 315.057C357.156 315.232 356.805 315.438 356.395 315.672C356.043 315.848 355.721 316.053 355.428 316.287C355.135 316.463 354.959 316.58 354.9 316.639C353.553 317.459 352.352 318.191 351.297 318.836C350.301 319.48 349.275 320.037 348.221 320.506C347.225 320.975 346.141 321.355 344.969 321.648C343.855 321.883 342.566 322 341.102 322C337.234 322 333.543 321.561 330.027 320.682C326.512 319.744 323.318 318.367 320.447 316.551C317.576 314.676 315.115 312.332 313.064 309.52C311.072 306.648 309.666 303.25 308.846 299.324C308.611 298.68 308.348 297.713 308.055 296.424C307.762 295.135 307.469 293.816 307.176 292.469C306.883 291.121 306.619 289.891 306.385 288.777C306.15 287.605 306.004 286.873 305.945 286.58V285.35Z" fill="#030089"/>
<path d="M233.086 355.135C233.086 354.139 233.174 353.143 233.35 352.146C233.467 351.15 233.848 350.271 234.492 349.51C234.668 349.334 235.02 349.1 235.547 348.807C236.016 348.572 236.543 348.309 237.129 348.016C237.656 347.723 238.184 347.459 238.711 347.225C239.18 346.99 239.502 346.844 239.678 346.785H242.051C242.812 346.785 243.486 346.844 244.072 346.961C244.658 347.137 245.215 347.342 245.742 347.576C246.27 347.811 246.826 348.016 247.412 348.191C247.939 348.426 248.555 348.572 249.258 348.631H252.422C252.656 348.631 253.154 348.748 253.916 348.982C254.619 349.217 254.971 349.393 254.971 349.51H256.816H257.695C257.988 349.393 258.369 349.129 258.838 348.719C259.365 348.367 259.717 348.133 259.893 348.016C261.064 346.902 262.266 345.76 263.496 344.588C264.727 343.475 265.84 342.273 266.836 340.984C267.832 339.695 268.652 338.318 269.297 336.854C270 335.389 270.41 333.777 270.527 332.02V329.119V322C270.527 321.824 270.557 321.502 270.615 321.033C270.674 320.506 270.732 319.949 270.791 319.363C270.908 318.719 270.996 318.162 271.055 317.693C271.172 317.166 271.23 316.814 271.23 316.639V315.496C271.23 313.855 271.113 312.273 270.879 310.75C270.645 309.227 270.527 307.615 270.527 305.916C270.527 304.217 270.645 302.635 270.879 301.17C271.113 299.646 271.23 298.064 271.23 296.424C271.23 295.369 271.201 294.49 271.143 293.787C271.084 293.084 270.879 292.205 270.527 291.15C270.527 290.389 270.527 289.012 270.527 287.02C270.586 284.969 270.615 282.801 270.615 280.516C270.615 278.289 270.586 276.15 270.527 274.1C270.527 272.049 270.527 270.643 270.527 269.881C270.527 269.412 270.498 268.592 270.439 267.42C270.439 266.248 270.41 265.018 270.352 263.729C270.293 262.439 270.234 261.238 270.176 260.125C270.117 258.953 270.088 258.191 270.088 257.84C269.502 256.375 268.652 255.467 267.539 255.115C266.484 254.705 265.312 254.441 264.023 254.324C262.793 254.207 261.562 254.061 260.332 253.885C259.102 253.65 258.076 252.947 257.256 251.775V251.336C257.256 251.043 257.373 250.604 257.607 250.018C257.842 249.432 258.193 249.109 258.662 249.051C259.014 248.934 259.336 248.816 259.629 248.699C259.922 248.582 260.215 248.494 260.508 248.436C260.801 248.377 261.035 248.318 261.211 248.26C261.27 248.26 261.475 248.23 261.826 248.172C262.178 248.113 262.529 248.055 262.881 247.996C263.291 247.879 263.643 247.791 263.936 247.732C264.287 247.674 264.492 247.645 264.551 247.645C264.668 247.586 264.932 247.498 265.342 247.381C265.811 247.205 266.309 247.029 266.836 246.854C267.363 246.678 267.832 246.531 268.242 246.414C268.711 246.297 269.004 246.238 269.121 246.238H271.23C271.289 246.238 271.523 246.15 271.934 245.975C272.344 245.799 272.783 245.594 273.252 245.359C273.721 245.125 274.131 244.92 274.482 244.744C274.893 244.51 275.127 244.363 275.186 244.305C275.361 244.305 275.625 244.275 275.977 244.217C276.387 244.1 276.797 244.012 277.207 243.953C277.676 243.836 278.086 243.748 278.438 243.689C278.848 243.572 279.141 243.514 279.316 243.514C279.375 243.514 279.609 243.426 280.02 243.25C280.43 243.074 280.869 242.898 281.338 242.723C281.807 242.488 282.217 242.283 282.568 242.107C282.979 241.873 283.213 241.756 283.271 241.756H283.623C284.502 241.756 285.264 241.99 285.908 242.459C286.553 242.869 286.992 243.484 287.227 244.305C287.344 244.539 287.402 245.096 287.402 245.975C287.402 246.854 287.402 247.41 287.402 247.645V249.49C287.402 250.252 287.373 250.955 287.314 251.6C287.256 252.244 287.08 252.947 286.787 253.709V267.068V280.604C286.787 280.779 286.816 281.307 286.875 282.186C286.934 283.064 286.963 284.031 286.963 285.086C287.021 286.141 287.08 287.137 287.139 288.074C287.197 288.953 287.227 289.51 287.227 289.744V290.096V290.359C287.227 290.77 287.197 291.531 287.139 292.645C287.139 293.758 287.109 295.076 287.051 296.6C287.051 298.123 287.021 299.764 286.963 301.521C286.963 303.221 286.934 304.832 286.875 306.355C286.875 307.879 286.846 309.227 286.787 310.398C286.787 311.512 286.787 312.244 286.787 312.596V313.826C286.787 314.998 286.875 316.17 287.051 317.342C287.285 318.455 287.402 319.715 287.402 321.121C287.402 323.348 287.051 325.311 286.348 327.01C285.645 328.709 284.766 330.291 283.711 331.756C282.656 333.221 281.514 334.656 280.283 336.062C279.053 337.527 277.881 339.08 276.768 340.721C276.182 341.307 275.186 342.303 273.779 343.709C272.432 345.115 270.967 346.58 269.385 348.104C267.803 349.686 266.309 351.15 264.902 352.498C263.555 353.846 262.588 354.783 262.002 355.311C261.709 355.662 261.152 356.131 260.332 356.717C259.57 357.303 258.75 357.889 257.871 358.475C256.992 359.119 256.172 359.705 255.41 360.232C254.648 360.818 254.15 361.199 253.916 361.375C251.924 362.02 249.99 362.43 248.115 362.605C246.182 362.781 244.219 362.869 242.227 362.869H236.865C235.693 361.697 234.785 360.525 234.141 359.354C233.438 358.24 233.086 356.834 233.086 355.135Z" fill="#030089"/>
<path d="M254 218.237C254.309 218.202 254.918 218 255.218 217.963C255.632 217.91 256.539 218.02 256.936 217.963C259.105 217.648 260.523 217.692 262.221 217.181C265.874 214.745 269.125 214.407 271.05 210.787C271.583 209.785 271.882 207.455 272.268 206.22C272.507 205.457 273.161 204.646 273.351 203.785C273.501 203.106 273.229 202.658 273.351 201.916C273.464 201.233 274.003 200.261 274.095 199.522C274.156 199.028 274.184 198.52 274.237 198C274.258 198.25 274.302 198.481 274.302 198.741C274.362 199.383 274.6 199.834 274.672 200.436C274.726 200.883 274.611 201.49 274.672 201.916C274.75 202.454 274.833 202.975 274.924 203.48C275.058 204.226 275.627 204.936 275.792 205.611C275.922 206.14 275.642 206.647 275.792 207.134C276.002 207.812 276.58 208.967 276.835 209.569C278.054 212.45 279.271 214.441 282.011 215.391C283.465 216.204 284.566 217.029 286.578 217.486C287.524 217.7 289.147 217.64 290.231 217.79C290.856 217.876 291.503 217.981 292.176 218.048C292.535 218.084 292.972 218.095 293.276 218.148C293.477 218.165 293.571 218.133 293.776 218.148C293.97 218.163 294.276 218.224 294.474 218.237C294.122 218.289 294.189 218.388 293.659 218.473C293.503 218.498 293.125 218.447 292.972 218.473C292.766 218.508 292.488 218.437 292.287 218.473C292.016 218.522 291.712 218.652 291.449 218.703C289.627 219.058 288.941 219.738 287.491 220.226C286.715 220.487 285.735 220.835 285.055 221.139C284.324 221.467 283.249 221.671 282.62 222.053C281.514 222.724 280.384 223.327 279.555 224.184C278.593 225.178 277.497 226.255 276.835 227.533C276.464 228.25 276.438 229.066 276.142 229.881C275.846 230.695 275.242 232.096 275.008 233.013C274.84 233.672 275.028 233.82 274.885 234.536C274.72 235.363 274.57 236.228 274.431 237.134C274.364 237.571 274.299 238.018 274.237 238.474C274.195 238.217 274.152 237.963 274.108 237.712C273.99 237.036 273.921 236.384 273.79 235.754C273.567 234.676 273.454 233.662 273.181 232.709C273 232.074 272.62 231.465 272.412 230.882C271.93 229.535 271.711 228.018 271.05 226.924C270.444 225.921 269.412 225.321 268.614 224.503C267.218 223.072 265.587 222.111 263.438 221.139C262.707 220.809 261.837 220.295 261.003 220.007C260.292 219.762 259.542 219.531 258.751 219.312C258.372 219.208 257.958 219.312 257.654 219.008C257.376 218.939 257.027 218.77 256.74 218.703C256.344 218.612 255.938 218.79 255.522 218.703C255.028 218.6 254.521 218.334 254 218.237Z" fill="#030089"/>
<path d="M184.57 287.459C184.57 290.799 185.244 294.021 186.592 297.127C187.998 300.174 189.814 302.898 192.041 305.301C192.744 306.004 193.447 306.795 194.15 307.674C194.854 308.553 195.586 309.402 196.348 310.223C197.168 311.043 198.018 311.805 198.896 312.508C199.834 313.211 200.83 313.738 201.885 314.09L207.422 315.32H208.125H208.916C209.443 315.262 210.176 315.203 211.113 315.145C212.051 315.086 212.988 315.027 213.926 314.969C214.863 314.91 215.684 314.852 216.387 314.793C217.09 314.734 217.5 314.705 217.617 314.705C218.496 314.529 219.463 314.09 220.518 313.387C221.631 312.684 222.744 311.893 223.857 311.014C224.971 310.076 226.025 309.139 227.021 308.201C228.076 307.205 228.984 306.385 229.746 305.74C229.805 305.74 229.893 305.682 230.01 305.564C230.068 305.506 230.127 305.418 230.186 305.301C231.65 302.254 232.822 299.061 233.701 295.721C234.639 292.322 235.107 289.012 235.107 285.789C235.107 283.152 234.873 280.691 234.404 278.406C233.994 276.121 233.291 273.836 232.295 271.551C232.295 271.375 232.178 271.023 231.943 270.496C231.768 269.969 231.68 269.646 231.68 269.529C231.328 268.006 230.947 266.365 230.537 264.607C230.186 262.791 229.424 261.297 228.252 260.125C228.135 259.949 227.812 259.598 227.285 259.07C226.758 258.543 226.172 257.986 225.527 257.4C224.941 256.814 224.385 256.258 223.857 255.73C223.389 255.203 223.125 254.852 223.066 254.676C222.949 254.617 222.773 254.471 222.539 254.236C222.363 253.943 222.158 253.65 221.924 253.357C221.689 253.064 221.455 252.801 221.221 252.566C221.045 252.273 220.957 252.098 220.957 252.039C220.781 251.922 220.518 251.688 220.166 251.336C219.873 250.926 219.668 250.662 219.551 250.545C219.434 250.545 219.229 250.486 218.936 250.369C218.643 250.193 218.32 250.018 217.969 249.842C217.617 249.666 217.295 249.52 217.002 249.402C216.709 249.227 216.533 249.139 216.475 249.139C216.299 249.021 215.83 248.875 215.068 248.699C214.307 248.523 213.486 248.348 212.607 248.172C211.787 247.996 210.996 247.85 210.234 247.732C209.531 247.557 209.092 247.439 208.916 247.381C208.623 247.381 208.154 247.439 207.51 247.557C206.865 247.615 206.191 247.732 205.488 247.908C204.785 248.025 204.111 248.143 203.467 248.26C202.822 248.377 202.295 248.465 201.885 248.523C201.064 249.344 200.215 250.105 199.336 250.809C198.516 251.453 197.695 252.127 196.875 252.83C196.055 253.475 195.264 254.178 194.502 254.939C193.799 255.643 193.184 256.463 192.656 257.4C192.539 257.576 192.305 257.957 191.953 258.543C191.66 259.129 191.309 259.773 190.898 260.477C190.547 261.18 190.195 261.824 189.844 262.41C189.551 262.996 189.375 263.348 189.316 263.465C188.965 264.168 188.555 264.93 188.086 265.75C187.676 266.512 187.266 267.332 186.855 268.211C186.445 269.09 186.094 269.998 185.801 270.936C185.566 271.814 185.42 272.664 185.361 273.484C185.244 274.129 185.127 275.154 185.01 276.561C184.951 277.967 184.893 279.432 184.834 280.955C184.775 282.42 184.717 283.797 184.658 285.086C184.6 286.316 184.57 287.107 184.57 287.459ZM169.102 282.186C169.102 280.955 169.307 279.725 169.717 278.494C170.186 277.264 170.566 276.062 170.859 274.891C170.918 274.656 171.035 274.012 171.211 272.957C171.445 271.844 171.68 270.672 171.914 269.441C172.207 268.211 172.471 267.068 172.705 266.014C172.939 264.959 173.086 264.314 173.145 264.08C173.262 263.729 173.408 263.377 173.584 263.025C173.701 262.732 173.818 262.439 173.936 262.146C174.111 261.795 174.258 261.531 174.375 261.355C174.785 260.77 175.283 259.949 175.869 258.895C176.455 257.84 177.012 256.814 177.539 255.818C178.125 254.822 178.623 253.973 179.033 253.27C179.502 252.508 179.795 252.098 179.912 252.039C179.971 251.863 180.205 251.57 180.615 251.16C181.025 250.691 181.465 250.193 181.934 249.666C182.461 249.139 182.959 248.67 183.428 248.26C183.896 247.791 184.277 247.498 184.57 247.381C184.688 247.205 185.01 247.059 185.537 246.941C186.123 246.824 186.475 246.766 186.592 246.766C188.35 245.887 190.02 245.066 191.602 244.305C193.184 243.543 194.766 242.811 196.348 242.107C197.988 241.404 199.658 240.76 201.357 240.174C203.057 239.588 204.932 239.031 206.982 238.504H207.07H207.422C208.418 238.562 209.707 238.65 211.289 238.768C212.871 238.826 214.395 238.914 215.859 239.031C217.383 239.09 218.672 239.148 219.727 239.207C220.84 239.266 221.455 239.295 221.572 239.295C224.209 239.529 226.816 240.35 229.395 241.756C232.031 243.104 234.463 244.803 236.689 246.854C238.975 248.904 240.938 251.189 242.578 253.709C244.277 256.17 245.537 258.572 246.357 260.916C246.416 260.975 246.475 261.238 246.533 261.707C246.65 262.117 246.738 262.586 246.797 263.113C246.914 263.641 247.002 264.139 247.061 264.607C247.178 265.018 247.295 265.281 247.412 265.398C247.412 265.516 247.5 265.867 247.676 266.453C247.91 266.98 248.145 267.566 248.379 268.211C248.672 268.855 248.906 269.441 249.082 269.969C249.316 270.496 249.463 270.818 249.521 270.936C249.521 271.053 249.551 271.199 249.609 271.375C249.609 271.492 249.609 271.609 249.609 271.727C249.668 271.844 249.697 271.932 249.697 271.99C249.697 272.986 249.639 273.953 249.521 274.891C249.404 275.77 249.346 276.678 249.346 277.615C249.346 278.377 249.404 279.051 249.521 279.637C249.697 280.223 249.785 280.867 249.785 281.57V283.064C249.023 286.58 248.291 289.979 247.588 293.26C246.885 296.482 245.889 299.529 244.6 302.4C243.311 305.213 241.611 307.82 239.502 310.223C237.393 312.625 234.551 314.734 230.977 316.551C227.52 318.309 223.945 319.686 220.254 320.682C216.621 321.678 212.9 322.176 209.092 322.176C208.74 322.176 208.271 322.146 207.686 322.088C207.158 322.088 206.631 322.088 206.104 322.088C205.576 322.088 205.107 322.059 204.697 322C204.287 322 204.082 322 204.082 322C204.023 322 203.584 321.912 202.764 321.736C202.002 321.502 201.064 321.238 199.951 320.945C198.896 320.652 197.812 320.359 196.699 320.066C195.586 319.715 194.678 319.451 193.975 319.275C193.33 319.1 192.656 318.924 191.953 318.748C191.25 318.572 190.576 318.279 189.932 317.869C188.291 316.99 186.68 316.053 185.098 315.057C183.516 314.061 181.963 313.035 180.439 311.98C180.381 311.863 180.293 311.746 180.176 311.629C180.059 311.453 179.971 311.307 179.912 311.189C178.623 309.607 177.334 307.645 176.045 305.301C174.756 302.898 173.584 300.379 172.529 297.742C171.533 295.047 170.713 292.352 170.068 289.656C169.424 286.902 169.102 284.412 169.102 282.186Z" fill="#030089"/>
<path d="M99.4922 319.275C99.4922 318.338 99.668 317.605 100.02 317.078C100.43 316.551 100.928 316.17 101.514 315.936C102.158 315.643 102.861 315.467 103.623 315.408C104.443 315.291 105.234 315.203 105.996 315.145C106.113 315.027 106.406 314.969 106.875 314.969C107.344 314.969 107.842 314.998 108.369 315.057C108.955 315.115 109.336 315.145 109.512 315.145C110.098 314.793 110.684 314.354 111.27 313.826C111.914 313.24 112.471 312.625 112.939 311.98C113.467 311.277 113.877 310.545 114.17 309.783C114.521 308.963 114.697 308.172 114.697 307.41L114.961 290.799L115.137 287.459L115.84 270.76C116.016 269.705 116.104 268.768 116.104 267.947C116.162 267.068 116.191 266.219 116.191 265.398C116.191 264.402 116.074 263.318 115.84 262.146C115.664 260.916 115.283 259.832 114.697 258.895C113.877 257.547 112.881 256.287 111.709 255.115C110.596 253.885 109.307 252.859 107.842 252.039C107.725 251.98 107.49 251.922 107.139 251.863C106.787 251.746 106.406 251.629 105.996 251.512C105.645 251.395 105.293 251.248 104.941 251.072C104.648 250.838 104.502 250.604 104.502 250.369C104.502 249.783 105 249.139 105.996 248.436C106.992 247.732 108.135 247.059 109.424 246.414C110.713 245.711 111.973 245.125 113.203 244.656C114.492 244.129 115.371 243.719 115.84 243.426C116.66 243.074 117.422 242.635 118.125 242.107C118.887 241.521 119.619 240.965 120.322 240.438C121.084 239.91 121.846 239.471 122.607 239.119C123.369 238.709 124.219 238.504 125.156 238.504C125.859 238.504 126.416 238.914 126.826 239.734C127.236 240.555 127.559 241.58 127.793 242.811C128.027 243.982 128.232 245.301 128.408 246.766C128.584 248.172 128.789 249.49 129.023 250.721C129.258 251.893 129.551 252.889 129.902 253.709C130.254 254.529 130.752 254.939 131.396 254.939C131.807 254.939 132.07 254.91 132.188 254.852C132.305 254.793 132.539 254.559 132.891 254.148C132.949 254.031 133.213 253.65 133.682 253.006C134.15 252.303 134.678 251.57 135.264 250.809C135.908 249.988 136.494 249.256 137.021 248.611C137.549 247.967 137.9 247.586 138.076 247.469C138.662 246.766 139.688 245.887 141.152 244.832C142.617 243.777 144.199 242.752 145.898 241.756C147.656 240.76 149.355 239.91 150.996 239.207C152.637 238.445 153.896 238.064 154.775 238.064C156.006 238.064 157.178 238.299 158.291 238.768C159.463 239.236 160.488 239.91 161.367 240.789C162.246 241.609 162.949 242.576 163.477 243.689C164.004 244.803 164.268 245.975 164.268 247.205C164.268 249.549 163.74 251.6 162.686 253.357C161.689 255.115 159.961 256.492 157.5 257.488H156.445C155.391 257.488 154.424 257.254 153.545 256.785C152.666 256.258 151.787 255.701 150.908 255.115C150.088 254.471 149.238 253.914 148.359 253.445C147.48 252.918 146.543 252.654 145.547 252.654C144.199 252.654 142.998 252.889 141.943 253.357C140.947 253.768 139.922 254.207 138.867 254.676C138.633 254.852 138.252 255.086 137.725 255.379C137.256 255.613 136.758 255.906 136.23 256.258C135.762 256.551 135.293 256.814 134.824 257.049C134.414 257.283 134.121 257.43 133.945 257.488C133.359 257.898 132.832 258.484 132.363 259.246C131.895 260.008 131.484 260.857 131.133 261.795C130.84 262.674 130.576 263.582 130.342 264.52C130.166 265.457 130.049 266.277 129.99 266.98C129.99 267.039 129.961 267.332 129.902 267.859C129.844 268.328 129.756 268.885 129.639 269.529C129.58 270.174 129.521 270.818 129.463 271.463C129.404 272.049 129.375 272.518 129.375 272.869V273.045V273.484C129.375 273.895 129.375 274.715 129.375 275.945C129.434 277.117 129.492 278.523 129.551 280.164C129.609 281.746 129.639 283.445 129.639 285.262C129.697 287.02 129.756 288.719 129.814 290.359C129.873 291.941 129.902 293.348 129.902 294.578C129.961 295.75 129.99 296.541 129.99 296.951V306.18C130.049 306.473 130.166 307.029 130.342 307.85C130.518 308.67 130.723 309.549 130.957 310.486C131.25 311.365 131.543 312.215 131.836 313.035C132.188 313.797 132.539 314.266 132.891 314.441C133.418 314.676 134.15 314.881 135.088 315.057C136.084 315.232 137.051 315.467 137.988 315.76C138.984 315.994 139.834 316.346 140.537 316.814C141.24 317.283 141.592 317.898 141.592 318.66C141.592 319.305 141.387 319.861 140.977 320.33C140.566 320.74 140.068 321.092 139.482 321.385C138.896 321.678 138.252 321.883 137.549 322C136.904 322.176 136.318 322.264 135.791 322.264C134.443 322.264 133.066 322.146 131.66 321.912C130.312 321.678 128.965 321.561 127.617 321.561C126.094 321.561 124.512 321.678 122.871 321.912C121.289 322.146 119.766 322.264 118.301 322.264H118.037C117.92 322.264 117.686 322.234 117.334 322.176C117.041 322.176 116.689 322.146 116.279 322.088C115.928 322.088 115.576 322.059 115.225 322C114.932 322 114.756 322 114.697 322C114.521 322 114.082 322.029 113.379 322.088C112.676 322.205 112.178 322.264 111.885 322.264H108.545H105.82C105.117 322.264 104.385 322.234 103.623 322.176C102.861 322.117 102.158 322 101.514 321.824C100.928 321.59 100.43 321.297 100.02 320.945C99.668 320.535 99.4922 319.979 99.4922 319.275Z" fill="#030089"/>
<path d="M40.7812 252.83C41.4258 253.768 42.3633 254.354 43.5938 254.588C44.8828 254.822 45.9668 254.939 46.8457 254.939H47.4609C47.5781 254.881 47.8418 254.793 48.252 254.676C48.6621 254.5 49.1016 254.354 49.5703 254.236C50.0391 254.119 50.4492 254.002 50.8008 253.885C51.2109 253.768 51.4746 253.709 51.5918 253.709C52.8223 253.357 54.2871 253.094 55.9863 252.918C57.6855 252.684 59.1211 252.244 60.293 251.6C60.4102 251.482 60.7324 251.248 61.2598 250.896C61.7871 250.545 62.373 250.164 63.0176 249.754C63.7207 249.285 64.3652 248.846 64.9512 248.436C65.5957 247.967 66.0645 247.645 66.3574 247.469C66.4746 247.41 66.709 247.205 67.0605 246.854C67.4121 246.443 67.6172 246.209 67.6758 246.15C68.2031 245.33 68.7305 244.422 69.2578 243.426C69.8438 242.43 70.4297 241.551 71.0156 240.789C71.1328 240.555 71.3086 240.32 71.543 240.086C71.8359 239.734 72.1289 239.471 72.4219 239.295C72.4805 239.295 72.5391 239.148 72.5977 238.855C72.7148 238.562 72.8027 238.211 72.8613 237.801C72.9199 237.391 72.9492 237.01 72.9492 236.658C73.0078 236.307 73.0371 236.072 73.0371 235.955C73.5645 233.67 74.0039 231.414 74.3555 229.188C74.7656 226.902 74.9707 224.529 74.9707 222.068V217.234C74.502 216.883 74.0918 216.473 73.7402 216.004C73.4473 215.477 73.1543 214.949 72.8613 214.422C72.627 213.895 72.3633 213.367 72.0703 212.84C71.7773 212.254 71.4258 211.697 71.0156 211.17C70.7812 210.936 70.3711 210.496 69.7852 209.852C69.2578 209.207 68.6719 208.533 68.0273 207.83C67.3828 207.127 66.7383 206.482 66.0938 205.896C65.5078 205.252 65.0684 204.783 64.7754 204.49C63.9551 204.314 62.9004 204.139 61.6113 203.963C60.3809 203.787 59.2676 203.553 58.2715 203.26C57.041 202.85 55.8984 202.41 54.8438 201.941C53.7891 201.473 52.5879 201.238 51.2402 201.238C50.2441 201.238 49.1016 201.297 47.8125 201.414C46.5234 201.531 45.5566 201.883 44.9121 202.469C43.5645 203.523 42.5684 204.578 41.9238 205.633C41.2793 206.629 40.8105 207.684 40.5176 208.797C40.2832 209.852 40.1367 211.023 40.0781 212.312C40.0781 213.602 40.0488 215.037 39.9902 216.619C39.9902 216.854 39.9609 217.41 39.9023 218.289C39.8438 219.109 39.7852 220.018 39.7266 221.014C39.668 221.951 39.6094 222.859 39.5508 223.738C39.4922 224.617 39.4629 225.174 39.4629 225.408C39.4629 226.111 39.4336 227.137 39.375 228.484C39.375 229.832 39.375 231.268 39.375 232.791C39.375 234.314 39.3457 235.809 39.2871 237.273C39.2871 238.738 39.2871 239.91 39.2871 240.789C39.2871 242.781 39.375 244.715 39.5508 246.59C39.7266 248.465 40.1367 250.545 40.7812 252.83ZM27.2461 322C23.7891 322 20.3613 322.088 16.9629 322.264C13.5645 322.498 10.1953 322.615 6.85547 322.615C4.86328 322.615 3.86719 321.707 3.86719 319.891C3.86719 319.246 3.92578 318.631 4.04297 318.045C4.21875 317.4 4.6582 316.902 5.36133 316.551C7.41211 316.375 9.63867 316.141 12.041 315.848C14.4434 315.496 16.6699 314.822 18.7207 313.826C19.1309 313.592 19.4824 313.152 19.7754 312.508C20.127 311.805 20.3906 311.043 20.5664 310.223C20.8008 309.402 20.9766 308.611 21.0938 307.85C21.2109 307.029 21.2988 306.385 21.3574 305.916V303.016V301.785C21.3574 301.551 21.3867 301.199 21.4453 300.73C21.5039 300.203 21.5625 299.646 21.6211 299.061C21.7383 298.475 21.8262 297.947 21.8848 297.479C21.9434 296.951 21.9727 296.6 21.9727 296.424C21.9727 295.545 21.9727 294.197 21.9727 292.381C21.9727 290.506 21.9727 288.426 21.9727 286.141C22.0312 283.855 22.0605 281.453 22.0605 278.934C22.1191 276.355 22.1484 273.924 22.1484 271.639C22.207 269.295 22.2363 267.215 22.2363 265.398C22.2363 263.582 22.2363 262.234 22.2363 261.355C22.2363 259.773 22.2363 257.84 22.2363 255.555C22.2363 253.27 22.207 250.867 22.1484 248.348C22.1484 245.77 22.1191 243.221 22.0605 240.701C22.0605 238.123 22.0312 235.809 21.9727 233.758C21.9727 231.648 21.9727 229.891 21.9727 228.484C21.9727 227.078 21.9727 226.258 21.9727 226.023C21.9727 225.262 21.9434 223.973 21.8848 222.156C21.8848 220.281 21.8555 218.318 21.7969 216.268C21.7969 214.217 21.7383 212.312 21.6211 210.555C21.5625 208.738 21.4746 207.479 21.3574 206.775C21.0645 206.189 20.4785 205.721 19.5996 205.369C18.7207 205.018 17.7539 204.754 16.6992 204.578C15.6445 204.344 14.5898 204.197 13.5352 204.139C12.5391 204.021 11.7773 203.934 11.25 203.875C10.8984 203.875 10.2832 203.846 9.4043 203.787C8.52539 203.729 7.58789 203.67 6.5918 203.611C5.5957 203.553 4.6582 203.494 3.7793 203.436C2.90039 203.377 2.31445 203.318 2.02148 203.26C1.78711 203.143 1.40625 202.82 0.878906 202.293C0.410156 201.707 0.117188 201.355 0 201.238V200.359C0 199.422 0.205078 198.807 0.615234 198.514C1.02539 198.162 1.69922 197.928 2.63672 197.811C3.39844 197.752 4.7168 197.664 6.5918 197.547C8.52539 197.43 10.5469 197.312 12.6562 197.195C14.8242 197.02 16.875 196.873 18.8086 196.756C20.7422 196.639 22.0898 196.58 22.8516 196.58C23.0859 196.58 23.4375 196.58 23.9062 196.58C24.375 196.521 24.873 196.492 25.4004 196.492C25.9277 196.492 26.4551 196.492 26.9824 196.492C27.5098 196.434 27.9492 196.404 28.3008 196.404C29.0039 196.287 29.5898 196.199 30.0586 196.141C30.5273 196.023 30.9668 195.965 31.377 195.965C32.2559 195.965 33.9844 195.965 36.5625 195.965C39.1406 195.965 42.1582 195.994 45.6152 196.053C49.1309 196.111 52.8516 196.17 56.7773 196.229C60.7031 196.287 64.4531 196.404 68.0273 196.58C68.2031 196.58 68.4961 196.639 68.9062 196.756C69.3164 196.873 69.7559 197.02 70.2246 197.195C70.6934 197.312 71.1328 197.43 71.543 197.547C71.9531 197.664 72.2461 197.752 72.4219 197.811C72.4805 197.811 72.6562 197.869 72.9492 197.986C73.3008 198.045 73.6523 198.104 74.0039 198.162C74.3555 198.221 74.6777 198.309 74.9707 198.426C75.3223 198.484 75.5273 198.514 75.5859 198.514C75.7617 198.572 76.084 198.807 76.5527 199.217C77.0801 199.568 77.6074 199.979 78.1348 200.447C78.6621 200.857 79.1309 201.268 79.541 201.678C80.0098 202.088 80.332 202.352 80.5078 202.469C80.5078 202.645 80.6543 202.791 80.9473 202.908C81.2988 203.025 81.5332 203.143 81.6504 203.26C83.6426 204.08 85.2539 204.93 86.4844 205.809C87.7148 206.688 88.7109 207.713 89.4727 208.885C90.2344 209.998 90.8203 211.316 91.2305 212.84C91.6406 214.305 92.0508 216.033 92.4609 218.025C92.6367 219.021 92.9004 220.193 93.252 221.541C93.6621 222.83 93.8672 223.973 93.8672 224.969C93.8672 225.203 93.8379 225.438 93.7793 225.672C93.7207 225.848 93.6914 225.965 93.6914 226.023C93.457 228.66 93.0469 231.268 92.4609 233.846C91.875 236.424 91.2891 238.943 90.7031 241.404C90.5273 241.58 90.3516 241.844 90.1758 242.195C90 242.488 89.8535 242.693 89.7363 242.811C89.6777 242.928 89.4434 243.221 89.0332 243.689C88.6816 244.158 88.2715 244.656 87.8027 245.184C87.334 245.711 86.8945 246.209 86.4844 246.678C86.0742 247.146 85.8398 247.41 85.7812 247.469C85.7812 247.586 85.6641 247.82 85.4297 248.172L85.0781 248.699C84.1992 250.281 83.0859 251.424 81.7383 252.127C80.3906 252.83 78.8672 253.504 77.168 254.148C77.0508 254.324 76.582 254.471 75.7617 254.588C74.9414 254.705 74.4727 254.822 74.3555 254.939C74.2969 254.939 74.1211 255.027 73.8281 255.203C73.5938 255.379 73.3301 255.584 73.0371 255.818C72.7441 256.053 72.4512 256.258 72.1582 256.434C71.8652 256.609 71.6895 256.727 71.6309 256.785C70.9863 257.195 70.1953 257.576 69.2578 257.928C68.3203 258.221 67.3535 258.484 66.3574 258.719C65.3613 258.953 64.3652 259.129 63.3691 259.246C62.373 259.363 61.5234 259.451 60.8203 259.51H42.8027C41.8652 259.861 41.1621 260.33 40.6934 260.916C40.2832 261.502 39.9902 262.176 39.8145 262.938C39.6387 263.641 39.5215 264.402 39.4629 265.223C39.4629 265.984 39.4629 266.775 39.4629 267.596C39.4629 267.771 39.4336 268.152 39.375 268.738C39.3164 269.324 39.2578 269.969 39.1992 270.672C39.1406 271.316 39.082 271.932 39.0234 272.518C38.9648 273.104 38.9355 273.484 38.9355 273.66V275.154C38.9355 275.799 38.9355 276.326 38.9355 276.736C38.9941 277.088 39.1699 277.586 39.4629 278.23C39.4629 278.465 39.4629 278.846 39.4629 279.373C39.4629 279.842 39.4629 280.369 39.4629 280.955C39.5215 281.482 39.5508 281.98 39.5508 282.449C39.5508 282.918 39.5508 283.24 39.5508 283.416C39.5508 285.232 39.4336 287.02 39.1992 288.777C39.0234 290.535 38.9355 292.293 38.9355 294.051V294.314C38.9355 294.432 38.9648 294.725 39.0234 295.193C39.082 295.604 39.1113 295.867 39.1113 295.984C39.2871 299.324 39.4922 302.342 39.7266 305.037C39.9609 307.732 40.5762 310.457 41.5723 313.211C41.6309 313.504 41.9531 313.855 42.5391 314.266C43.125 314.617 43.7695 314.969 44.4727 315.32C45.2344 315.672 45.9668 315.965 46.6699 316.199C47.373 316.434 47.9004 316.551 48.252 316.551H51.7676C53.291 316.551 54.7852 316.492 56.25 316.375C57.7148 316.199 59.209 316.111 60.7324 316.111C61.1426 316.111 61.6113 316.258 62.1387 316.551C62.666 316.844 63.1348 317.225 63.5449 317.693C64.0137 318.162 64.3945 318.66 64.6875 319.188C64.9805 319.715 65.127 320.184 65.127 320.594C65.127 321.18 65.0684 321.678 64.9512 322.088C64.834 322.557 64.3945 322.938 63.6328 323.23H60.293H56.8652C56.5137 323.23 55.8984 323.201 55.0195 323.143C54.1992 323.084 53.3203 322.996 52.3828 322.879C51.4453 322.82 50.5664 322.732 49.7461 322.615C48.9844 322.557 48.4863 322.498 48.252 322.439C48.1348 322.439 47.9297 322.41 47.6367 322.352C47.4023 322.293 47.1387 322.234 46.8457 322.176C46.5527 322.176 46.2598 322.146 45.9668 322.088C45.7324 322.029 45.5859 322 45.5273 322H44.9121C43.5645 322.117 42.2168 322.205 40.8691 322.264C39.5215 322.322 38.1152 322.439 36.6504 322.615C36.4746 322.615 36.123 322.586 35.5957 322.527C35.127 322.469 34.5996 322.381 34.0137 322.264C33.4863 322.205 32.959 322.146 32.4316 322.088C31.9629 322.029 31.6113 322 31.377 322H27.2461Z" fill="#030089"/>
<path d="M373.977 141.844C373.977 140.613 374.24 139.559 374.768 138.68C375.354 137.859 376.086 137.186 376.965 136.658C377.902 136.131 378.898 135.721 379.953 135.428C381.066 135.193 382.15 135.076 383.205 135.076C384.494 135.076 385.725 135.193 386.896 135.428C388.068 135.662 389.328 135.779 390.676 135.779H392.961C393.312 135.779 394.104 135.721 395.334 135.604C396.564 135.545 397.883 135.457 399.289 135.34C400.695 135.281 402.014 135.223 403.244 135.164C404.475 135.105 405.236 135.076 405.529 135.076C405.764 135.076 406.174 135.105 406.76 135.164C407.404 135.281 408.049 135.369 408.693 135.428C409.396 135.545 410.041 135.633 410.627 135.691C411.213 135.75 411.564 135.779 411.682 135.779C411.74 135.779 411.916 135.75 412.209 135.691C412.502 135.633 412.795 135.545 413.088 135.428C413.381 135.369 413.645 135.311 413.879 135.252C414.172 135.193 414.348 135.164 414.406 135.164H415.373C415.666 135.164 415.959 135.135 416.252 135.076C416.545 135.076 416.838 135.076 417.131 135.076C417.307 135.076 417.541 135.076 417.834 135.076C418.127 135.135 418.42 135.164 418.713 135.164H419.855L421.701 135.779C421.76 135.896 421.906 135.955 422.141 135.955C423.605 135.838 424.924 135.75 426.096 135.691C427.326 135.691 428.088 135.691 428.381 135.691C428.615 135.691 429.055 135.721 429.699 135.779C430.344 135.896 430.988 135.984 431.633 136.043C432.277 136.16 432.863 136.248 433.391 136.307C433.977 136.365 434.328 136.395 434.445 136.395C434.504 136.395 434.68 136.365 434.973 136.307C435.266 136.248 435.559 136.16 435.852 136.043C436.145 135.984 436.408 135.926 436.643 135.867C436.936 135.809 437.111 135.779 437.17 135.779H438.225C438.518 135.779 438.811 135.75 439.104 135.691C439.455 135.691 439.719 135.691 439.895 135.691C440.07 135.691 440.305 135.691 440.598 135.691C440.949 135.75 441.271 135.779 441.564 135.779H442.619L444.465 136.395C444.699 136.512 444.934 136.57 445.168 136.57C445.461 136.57 445.695 136.57 445.871 136.57C446.223 136.57 446.545 136.541 446.838 136.482C447.189 136.424 447.57 136.395 447.98 136.395C449.211 136.395 450.295 136.629 451.232 137.098C452.229 137.625 452.932 138.768 453.342 140.525C453.4 140.525 453.43 140.73 453.43 141.141C453.43 141.609 453.43 141.902 453.43 142.02C453.43 143.602 453.166 144.832 452.639 145.711C452.111 146.59 451.408 147.234 450.529 147.645C449.65 148.055 448.625 148.289 447.453 148.348C446.281 148.406 445.08 148.436 443.85 148.436H439.895C439.836 148.436 439.66 148.406 439.367 148.348C439.133 148.289 438.869 148.201 438.576 148.084C438.283 148.025 437.99 147.967 437.697 147.908C437.404 147.85 437.229 147.82 437.17 147.82C436.994 147.82 436.643 147.82 436.115 147.82C435.588 147.879 434.973 147.908 434.27 147.908C433.566 147.908 432.805 147.908 431.984 147.908C431.164 147.967 430.373 147.996 429.611 147.996C428.791 147.996 428.117 147.967 427.59 147.908C427.062 147.85 426.652 147.82 426.359 147.82H421.086H417.131C416.955 147.82 416.633 147.762 416.164 147.645C415.754 147.527 415.402 147.439 415.109 147.381C414.582 147.439 413.996 147.527 413.352 147.645C412.707 147.762 412.062 147.879 411.418 147.996C410.832 148.113 410.305 148.201 409.836 148.26C409.426 148.377 409.162 148.436 409.045 148.436H402.98C402.863 148.436 402.6 148.377 402.189 148.26C401.779 148.143 401.311 148.025 400.783 147.908C400.314 147.791 399.816 147.645 399.289 147.469C398.82 147.352 398.469 147.264 398.234 147.205C398.117 147.205 398 147.176 397.883 147.117C397.824 147.059 397.736 147 397.619 146.941C396.623 146.824 395.715 146.736 394.895 146.678C394.133 146.619 393.693 146.59 393.576 146.59C393.4 146.59 392.961 146.648 392.258 146.766C391.555 146.883 390.764 147.029 389.885 147.205C389.064 147.381 388.303 147.527 387.6 147.645C386.896 147.762 386.457 147.82 386.281 147.82H380.129C380.07 147.82 379.836 147.762 379.426 147.645C379.016 147.586 378.547 147.469 378.02 147.293C377.492 147.176 376.994 147.059 376.525 146.941C376.057 146.824 375.705 146.707 375.471 146.59C375.119 146.414 374.826 146.121 374.592 145.711C374.416 145.301 374.299 144.832 374.24 144.305C374.123 143.836 374.064 143.367 374.064 142.898C374.006 142.43 373.977 142.078 373.977 141.844Z" fill="#030089"/>
<path d="M318.865 73.9043C318.865 74.2559 319.012 74.6074 319.305 74.959C319.656 75.3105 320.037 75.6621 320.447 76.0137C320.916 76.3066 321.355 76.5703 321.766 76.8047C322.234 76.9805 322.615 77.127 322.908 77.2441H332.049H341.014C341.482 77.1855 342.273 77.0977 343.387 76.9805C344.559 76.8633 345.76 76.7461 346.99 76.6289C348.279 76.4531 349.48 76.2773 350.594 76.1016C351.766 75.9258 352.586 75.75 353.055 75.5742C353.172 75.457 353.318 75.1934 353.494 74.7832C353.729 74.3145 353.846 74.0215 353.846 73.9043V73.1133V72.4102C353.846 72.2344 353.816 71.9121 353.758 71.4434C353.699 70.916 353.611 70.3887 353.494 69.8613C353.436 69.2754 353.348 68.7188 353.23 68.1914C353.172 67.6641 353.113 67.2832 353.055 67.0488C352.469 66.6387 351.971 66.1406 351.561 65.5547C351.15 64.9688 350.711 64.4121 350.242 63.8848C349.832 63.2988 349.363 62.7715 348.836 62.3027C348.367 61.834 347.781 61.4531 347.078 61.1602C346.668 60.9844 346.111 60.75 345.408 60.457C344.764 60.1055 344.119 59.7832 343.475 59.4902C342.83 59.1973 342.273 58.9336 341.805 58.6992C341.336 58.4648 341.072 58.3184 341.014 58.2598H340.398H339.695C339.285 58.3184 338.758 58.4062 338.113 58.5234C337.469 58.6406 336.824 58.7578 336.18 58.875C335.535 58.9336 334.979 58.9922 334.51 59.0508C334.041 59.1094 333.777 59.1387 333.719 59.1387C333.543 59.1387 333.25 59.2559 332.84 59.4902C332.488 59.666 332.078 59.8711 331.609 60.1055C331.199 60.3398 330.789 60.5742 330.379 60.8086C330.027 60.9844 329.793 61.1016 329.676 61.1602C328.68 61.5117 327.713 61.7754 326.775 61.9512C325.896 62.127 325.135 62.7129 324.49 63.709C324.373 63.8848 324.109 64.3242 323.699 65.0273C323.289 65.7305 323.025 66.1699 322.908 66.3457C322.557 66.9902 322.146 67.6055 321.678 68.1914C321.209 68.7188 320.77 69.2754 320.359 69.8613C319.949 70.3887 319.598 71.0039 319.305 71.707C319.012 72.3516 318.865 73.084 318.865 73.9043ZM305.594 95.3496V93.6797C305.652 93.3867 305.711 92.8301 305.77 92.0098C305.887 91.1895 305.945 90.3398 305.945 89.4609C306.004 88.5234 306.062 87.6445 306.121 86.8242C306.18 86.0039 306.268 85.4473 306.385 85.1543C306.443 84.0996 306.59 82.9277 306.824 81.6387C307.117 80.291 307.439 78.9434 307.791 77.5957C308.201 76.248 308.67 74.959 309.197 73.7285C309.725 72.4395 310.311 71.3262 310.955 70.3887C311.014 70.3301 311.131 70.2129 311.307 70.0371C311.541 69.8027 311.775 69.5977 312.01 69.4219C312.244 69.1875 312.449 68.9824 312.625 68.8066C312.859 68.6309 313.006 68.5137 313.064 68.4551C313.123 68.3965 313.182 68.2207 313.24 67.9277C313.357 67.6348 313.475 67.3418 313.592 67.0488C313.709 66.7559 313.797 66.4922 313.855 66.2578C313.973 65.9648 314.061 65.7891 314.119 65.7305C315.115 64.0312 316.346 62.625 317.811 61.5117C319.275 60.3984 320.77 59.3145 322.293 58.2598C323.348 57.6152 324.314 57.0293 325.193 56.502C326.131 55.916 327.039 55.418 327.918 55.0078C328.855 54.5391 329.822 54.1289 330.818 53.7773C331.873 53.4258 333.045 53.1328 334.334 52.8984C334.451 52.8984 334.92 52.8691 335.74 52.8105C336.619 52.752 337.615 52.7227 338.729 52.7227C339.842 52.6641 340.984 52.6055 342.156 52.5469C343.328 52.4883 344.266 52.459 344.969 52.459H345.76H346.551C348.484 52.9277 350.301 53.4844 352 54.1289C353.758 54.7148 355.369 55.4766 356.834 56.4141C358.357 57.3516 359.734 58.4941 360.965 59.8418C362.254 61.1309 363.426 62.6836 364.48 64.5C364.539 64.6172 364.627 64.9688 364.744 65.5547C364.861 66.082 364.979 66.3457 365.096 66.3457C365.447 67.2246 365.857 68.0156 366.326 68.7188C366.854 69.4219 367.322 70.125 367.732 70.8281C368.201 71.4727 368.582 72.1758 368.875 72.9375C369.168 73.6406 369.314 74.4609 369.314 75.3984C369.314 76.5117 368.846 77.5957 367.908 78.6504C367.029 79.6465 366.326 80.4375 365.799 81.0234C365.447 81.1406 364.803 81.2871 363.865 81.4629C362.986 81.6387 361.99 81.8145 360.877 81.9902C359.822 82.166 358.738 82.3125 357.625 82.4297C356.57 82.5469 355.691 82.6055 354.988 82.6055C354.754 82.6055 354.227 82.6055 353.406 82.6055C352.645 82.5469 351.707 82.4883 350.594 82.4297C349.539 82.3711 348.396 82.3418 347.166 82.3418C345.936 82.2832 344.764 82.2539 343.65 82.2539C342.479 82.2539 341.453 82.3125 340.574 82.4297C339.754 82.5469 339.197 82.6055 338.904 82.6055C338.846 82.6055 338.582 82.6348 338.113 82.6934C337.703 82.752 337.234 82.8398 336.707 82.957C336.18 83.0156 335.682 83.0742 335.213 83.1328C334.744 83.1914 334.451 83.2207 334.334 83.2207C333.689 83.2793 332.752 83.3086 331.521 83.3086C330.291 83.3086 328.914 83.3086 327.391 83.3086C325.867 83.3086 324.432 83.3086 323.084 83.3086C321.795 83.3086 320.887 83.2793 320.359 83.2207C319.891 83.2793 319.568 83.4551 319.393 83.748C319.217 83.9824 319.07 84.2461 318.953 84.5391C318.953 84.5391 318.924 84.6855 318.865 84.9785C318.865 85.2129 318.865 85.5059 318.865 85.8574C318.865 86.209 318.865 86.5898 318.865 87C318.865 87.3516 318.865 87.6445 318.865 87.8789C318.865 88.1719 318.865 88.6113 318.865 89.1973C318.865 89.7832 318.865 90.3691 318.865 90.9551C318.865 91.4824 318.865 91.9805 318.865 92.4492C318.924 92.918 318.953 93.1816 318.953 93.2402C319.012 94.4707 319.48 96.1406 320.359 98.25C321.238 100.301 322.264 102.381 323.436 104.49C324.666 106.6 325.955 108.562 327.303 110.379C328.709 112.137 329.998 113.309 331.17 113.895C331.404 114.07 331.961 114.393 332.84 114.861C333.719 115.33 334.656 115.828 335.652 116.355C336.648 116.824 337.586 117.293 338.465 117.762C339.402 118.172 340.047 118.465 340.398 118.641C340.691 118.641 340.896 118.611 341.014 118.553C341.189 118.494 341.395 118.465 341.629 118.465C342.801 118.465 343.885 118.611 344.881 118.904C345.936 119.197 347.049 119.344 348.221 119.344H349.539C349.832 119.344 350.154 119.314 350.506 119.256L359.295 114.686C359.529 113.982 359.822 113.279 360.174 112.576C360.525 111.814 360.936 111.141 361.404 110.555C361.932 109.969 362.518 109.5 363.162 109.148C363.865 108.797 364.715 108.621 365.711 108.621H365.799C365.916 108.738 366.062 108.943 366.238 109.236C366.473 109.529 366.59 109.705 366.59 109.764C366.59 109.881 366.473 110.203 366.238 110.73C366.062 111.258 365.916 111.668 365.799 111.961C365.154 113.66 364.48 115.271 363.777 116.795C363.074 118.318 362.195 119.842 361.141 121.365C361.023 121.482 360.818 121.688 360.525 121.98C360.232 122.273 359.91 122.596 359.559 122.947C359.207 123.299 358.855 123.65 358.504 124.002C358.211 124.295 357.977 124.529 357.801 124.705C357.684 124.764 357.449 124.881 357.098 125.057C356.805 125.232 356.453 125.438 356.043 125.672C355.691 125.848 355.369 126.053 355.076 126.287C354.783 126.463 354.607 126.58 354.549 126.639C353.201 127.459 352 128.191 350.945 128.836C349.949 129.48 348.924 130.037 347.869 130.506C346.873 130.975 345.789 131.355 344.617 131.648C343.504 131.883 342.215 132 340.75 132C336.883 132 333.191 131.561 329.676 130.682C326.16 129.744 322.967 128.367 320.096 126.551C317.225 124.676 314.764 122.332 312.713 119.52C310.721 116.648 309.314 113.25 308.494 109.324C308.26 108.68 307.996 107.713 307.703 106.424C307.41 105.135 307.117 103.816 306.824 102.469C306.531 101.121 306.268 99.8906 306.033 98.7773C305.799 97.6055 305.652 96.873 305.594 96.5801V95.3496Z" fill="#030089"/>
<path d="M249.869 57.3809H248.375C246.148 57.3809 243.893 57.7617 241.607 58.5234C239.322 59.2852 237.564 60.6035 236.334 62.4785C236.158 62.8301 235.865 63.3574 235.455 64.0605C235.104 64.7051 234.752 65.3789 234.4 66.082C234.049 66.7852 233.727 67.459 233.434 68.1035C233.141 68.6895 232.994 69.0703 232.994 69.2461C232.994 69.2461 232.936 69.7148 232.818 70.6523C232.76 71.5898 232.643 72.7031 232.467 73.9922C232.35 75.2812 232.203 76.6289 232.027 78.0352C231.91 79.3828 231.793 80.4961 231.676 81.375C231.676 81.5508 231.676 81.9316 231.676 82.5176C231.734 83.0449 231.764 83.6016 231.764 84.1875C231.764 84.7734 231.764 85.3301 231.764 85.8574C231.822 86.3262 231.852 86.6484 231.852 86.8242C231.91 87.2344 231.939 87.7324 231.939 88.3184C231.939 88.8457 231.939 89.168 231.939 89.2852C231.998 90.1055 232.057 91.0137 232.115 92.0098C232.174 92.9473 232.232 93.8848 232.291 94.8223C232.408 95.7012 232.496 96.5508 232.555 97.3711C232.672 98.1328 232.818 98.7773 232.994 99.3047C233.053 99.4219 233.17 99.7148 233.346 100.184C233.58 100.652 233.785 101.18 233.961 101.766C234.195 102.293 234.4 102.791 234.576 103.26C234.811 103.729 234.957 103.992 235.016 104.051C235.777 106.102 236.627 108.24 237.564 110.467C238.502 112.693 239.645 114.744 240.992 116.619C242.34 118.494 243.922 120.047 245.738 121.277C247.555 122.449 249.752 123.035 252.33 123.035C252.506 123.035 252.652 122.977 252.77 122.859L252.945 122.684C253.004 122.684 253.209 122.654 253.561 122.596C253.912 122.479 254.293 122.361 254.703 122.244C255.172 122.127 255.611 122.01 256.021 121.893C256.49 121.775 256.871 121.688 257.164 121.629C257.574 121.453 258.131 121.248 258.834 121.014C259.537 120.721 260.24 120.428 260.943 120.135C261.705 119.842 262.35 119.578 262.877 119.344C263.463 119.109 263.814 118.963 263.932 118.904C265.045 118.201 265.924 117.381 266.568 116.443C267.213 115.447 267.652 114.393 267.887 113.279C268.18 112.107 268.355 110.936 268.414 109.764C268.473 108.592 268.502 107.449 268.502 106.336V104.051C268.443 103.992 268.385 103.846 268.326 103.611C268.268 103.377 268.209 103.113 268.15 102.82C268.092 102.527 268.033 102.264 267.975 102.029C267.916 101.736 267.887 101.531 267.887 101.414V95.5254V89.2852C268.18 88.8164 268.355 88.3184 268.414 87.791C268.531 87.2637 268.59 86.7363 268.59 86.209C268.59 85.6816 268.561 85.2129 268.502 84.8027C268.502 84.334 268.502 83.9531 268.502 83.6602C268.502 81.1406 268.385 78.6211 268.15 76.1016C267.916 73.582 267.564 71.1211 267.096 68.7188C267.096 68.6016 267.066 68.4844 267.008 68.3672C266.949 68.1914 266.891 68.0449 266.832 67.9277L266.656 67.4004C266.363 67.166 265.982 66.8145 265.514 66.3457C265.045 65.877 264.547 65.4082 264.02 64.9395C263.551 64.4121 263.082 63.9434 262.613 63.5332C262.203 63.0645 261.91 62.7129 261.734 62.4785C261.559 62.4785 261.354 62.3906 261.119 62.2148L260.592 61.8633C260.475 61.8633 260.299 61.7754 260.064 61.5996C259.889 61.4238 259.684 61.2188 259.449 60.9844C259.215 60.75 258.98 60.5449 258.746 60.3691C258.57 60.1348 258.453 59.9883 258.395 59.9297C258.219 59.8125 257.955 59.666 257.604 59.4902C257.252 59.3145 256.842 59.1387 256.373 58.9629C255.963 58.7285 255.553 58.5234 255.143 58.3477C254.791 58.1719 254.527 58.0254 254.352 57.9082C253.531 57.6152 252.77 57.4688 252.066 57.4688C251.422 57.4102 250.689 57.3809 249.869 57.3809ZM235.631 130.945C234.283 129.715 232.877 128.572 231.412 127.518C229.947 126.404 228.453 125.32 226.93 124.266C226.871 124.266 226.725 124.207 226.49 124.09C226.314 123.973 226.109 123.826 225.875 123.65C225.641 123.475 225.436 123.299 225.26 123.123C225.084 122.947 224.996 122.801 224.996 122.684C224.879 122.684 224.645 122.479 224.293 122.068C223.941 121.6 223.531 121.102 223.062 120.574C222.652 119.988 222.242 119.432 221.832 118.904C221.48 118.377 221.217 117.967 221.041 117.674C220.221 116.502 219.752 115.154 219.635 113.631C219.518 112.107 219.283 110.73 218.932 109.5C218.873 109.441 218.785 109.295 218.668 109.061C218.551 108.768 218.404 108.475 218.229 108.182C218.111 107.83 217.994 107.537 217.877 107.303C217.76 107.01 217.701 106.834 217.701 106.775C217.525 106.541 217.32 106.219 217.086 105.809C216.852 105.34 216.734 105.047 216.734 104.93C216.734 104.754 216.705 104.373 216.646 103.787C216.588 103.201 216.529 102.586 216.471 101.941C216.471 101.238 216.441 100.623 216.383 100.096C216.324 99.5098 216.295 99.1582 216.295 99.041C216.236 98.9238 216.178 98.7188 216.119 98.4258C216.119 98.1328 216.09 97.8398 216.031 97.5469C216.031 97.1953 216.031 96.9023 216.031 96.668C216.031 96.375 216.031 96.1992 216.031 96.1406V95.0859V94.1191C216.031 93.8848 216.031 93.5332 216.031 93.0645C216.09 92.5371 216.178 92.2441 216.295 92.1855V90.6035C216.295 90.3691 216.324 89.9297 216.383 89.2852C216.441 88.6406 216.471 87.9668 216.471 87.2637C216.529 86.5605 216.588 85.916 216.646 85.3301C216.705 84.6855 216.734 84.2754 216.734 84.0996C217.203 81.6973 217.73 79.3535 218.316 77.0684C218.902 74.7832 219.664 72.5859 220.602 70.4766C221.539 68.3672 222.682 66.375 224.029 64.5C225.377 62.625 227.047 60.8965 229.039 59.3145C229.625 58.7871 230.24 58.2891 230.885 57.8203C231.529 57.293 232.232 56.8242 232.994 56.4141C233.346 56.3555 233.668 56.2969 233.961 56.2383C234.195 56.1797 234.4 56.1211 234.576 56.0625C234.811 56.0039 234.957 55.9746 235.016 55.9746C235.074 55.8574 235.221 55.6523 235.455 55.3594C235.748 55.0664 236.012 54.7734 236.246 54.4805C236.539 54.1289 236.803 53.8359 237.037 53.6016C237.33 53.3086 237.506 53.1328 237.564 53.0742C238.268 52.6055 239.176 52.2539 240.289 52.0195C241.461 51.7266 242.691 51.5215 243.98 51.4043C245.27 51.2871 246.5 51.2285 247.672 51.2285C248.902 51.1699 249.898 51.1406 250.66 51.1406C252.945 51.1406 255.201 51.2578 257.428 51.4922C259.713 51.7266 262.086 51.8438 264.547 51.8438H267.096C267.564 51.668 267.916 51.3457 268.15 50.877C268.443 50.4082 268.648 49.9102 268.766 49.3828C268.883 48.8555 268.941 48.3281 268.941 47.8008C269 47.2734 269.029 46.8633 269.029 46.5703V36.5508C269.029 36.4336 269.059 36.1992 269.117 35.8477C269.234 35.4961 269.352 35.1445 269.469 34.793C269.645 34.3828 269.762 34.0312 269.82 33.7383C269.938 33.3867 269.996 33.1523 269.996 33.0352V29.959V26.4434C269.879 26.0332 269.762 25.3301 269.645 24.334C269.586 23.2793 269.498 22.1953 269.381 21.082C269.322 19.9688 269.264 18.9141 269.205 17.918C269.146 16.9219 269.088 16.2188 269.029 15.8086C268.971 15.6328 268.795 15.3984 268.502 15.1055C268.209 14.7539 267.887 14.4023 267.535 14.0508C267.184 13.6992 266.832 13.377 266.48 13.084C266.129 12.7324 265.836 12.4688 265.602 12.293C265.191 11.7656 264.547 11.4727 263.668 11.4141C262.848 11.2969 262.203 11.209 261.734 11.1504C261.559 11.0332 261.178 10.8281 260.592 10.5352C260.006 10.2422 259.391 9.94922 258.746 9.65625C258.102 9.36328 257.457 9.09961 256.812 8.86523C256.227 8.63086 255.846 8.48438 255.67 8.42578V7.89844C255.67 7.37109 256.08 6.78516 256.9 6.14062C257.721 5.4375 258.482 5.02734 259.186 4.91016H261.734C261.852 4.91016 262.057 4.82227 262.35 4.64648C262.701 4.41211 262.965 4.29492 263.141 4.29492H265.074C267.301 4.06055 269.645 3.67969 272.105 3.15234C274.566 2.56641 276.939 2.06836 279.225 1.6582C279.342 1.6582 279.547 1.57031 279.84 1.39453C280.133 1.16016 280.338 1.01367 280.455 0.955078H280.895H281.246C281.246 1.01367 281.422 1.13086 281.773 1.30664C282.184 1.42383 282.506 1.54102 282.74 1.6582C283.209 1.95117 283.707 2.30273 284.234 2.71289C284.762 3.06445 285.084 3.5918 285.201 4.29492V8.42578C285.201 8.42578 285.23 8.60156 285.289 8.95312C285.348 9.24609 285.406 9.59766 285.465 10.0078C285.582 10.3594 285.67 10.7109 285.729 11.0625C285.846 11.4141 285.904 11.6484 285.904 11.7656V16.5996V21.1699C285.846 21.2285 285.729 21.4043 285.553 21.6973C285.436 21.9316 285.289 22.1953 285.113 22.4883C284.938 22.7227 284.791 22.9863 284.674 23.2793C284.557 23.5137 284.469 23.6602 284.41 23.7188V24.0703C284.41 24.832 284.527 25.5059 284.762 26.0918C285.055 26.6777 285.201 27.3223 285.201 28.0254V29.2559C285.201 29.373 285.172 29.7246 285.113 30.3105C285.055 30.8965 284.967 31.541 284.85 32.2441C284.791 32.9473 284.703 33.5918 284.586 34.1777C284.527 34.7637 284.469 35.1445 284.41 35.3203C284.41 35.5547 284.41 36.082 284.41 36.9023C284.469 37.6641 284.498 38.6016 284.498 39.7148C284.498 40.7695 284.498 41.9121 284.498 43.1426C284.557 44.373 284.586 45.5449 284.586 46.6582C284.586 47.8301 284.557 48.8262 284.498 49.6465C284.439 50.4668 284.41 50.9941 284.41 51.2285C284.41 51.4629 284.352 52.0781 284.234 53.0742C284.117 54.0117 283.971 55.0664 283.795 56.2383C283.678 57.3516 283.561 58.4062 283.443 59.4023C283.326 60.3398 283.238 60.9258 283.18 61.1602V62.3906V63.4453C283.238 63.6211 283.326 63.9727 283.443 64.5C283.561 65.0273 283.678 65.6133 283.795 66.2578C283.912 66.8438 284.029 67.4297 284.146 68.0156C284.264 68.6016 284.352 69.0117 284.41 69.2461V88.6699C284.41 88.9043 284.293 89.2852 284.059 89.8125C283.883 90.3398 283.795 90.6621 283.795 90.7793V91.3945V92.1855C283.795 92.4199 283.883 92.8594 284.059 93.5039C284.293 94.1484 284.41 94.5 284.41 94.5586V116.795C284.41 118.143 284.908 119.314 285.904 120.311C286.9 121.307 287.984 121.951 289.156 122.244C289.684 122.361 290.182 122.42 290.65 122.42C291.119 122.42 291.676 122.42 292.32 122.42C293.258 122.42 294.137 122.566 294.957 122.859C295.836 123.094 296.568 123.797 297.154 124.969C297.096 125.145 296.803 125.467 296.275 125.936C295.748 126.404 295.455 126.756 295.396 126.99C294.928 127.283 294.371 127.664 293.727 128.133C293.082 128.602 292.73 128.865 292.672 128.924C292.496 128.982 292.086 129.041 291.441 129.1C290.797 129.158 290.064 129.217 289.244 129.275C288.482 129.334 287.779 129.393 287.135 129.451C286.49 129.51 286.08 129.539 285.904 129.539C285.025 129.656 284.234 129.891 283.531 130.242C282.887 130.535 282.213 130.857 281.51 131.209C280.865 131.502 280.133 131.766 279.312 132C278.551 132.293 277.613 132.439 276.5 132.439C275.211 132.439 274.215 132.205 273.512 131.736C272.809 131.268 272.223 130.682 271.754 129.979C271.344 129.217 271.021 128.426 270.787 127.605C270.553 126.727 270.318 125.936 270.084 125.232C269.85 124.471 269.527 123.855 269.117 123.387C268.707 122.918 268.121 122.684 267.359 122.684H266.656C263.668 126.199 260.504 128.777 257.164 130.418C253.824 132.059 249.898 132.879 245.387 132.879H244.859C244.566 132.762 243.98 132.615 243.102 132.439C242.223 132.264 241.285 132.088 240.289 131.912C239.293 131.678 238.355 131.473 237.477 131.297C236.598 131.121 235.982 131.004 235.631 130.945Z" fill="#030089"/>
<path d="M165.32 128.836C165.32 127.43 165.701 126.521 166.463 126.111C167.225 125.701 168.162 125.438 169.275 125.32C170.389 125.203 171.561 125.115 172.791 125.057C174.08 124.939 175.193 124.471 176.131 123.65C176.131 123.299 176.16 122.625 176.219 121.629C176.277 120.633 176.307 119.578 176.307 118.465C176.365 117.293 176.424 116.209 176.482 115.213C176.541 114.217 176.57 113.514 176.57 113.104V102.469C176.57 102.176 176.57 101.531 176.57 100.535C176.629 99.5391 176.688 98.3965 176.746 97.1074C176.863 95.8184 176.951 94.4414 177.01 92.9766C177.068 91.5117 177.127 90.1348 177.186 88.8457C177.303 87.5566 177.361 86.4434 177.361 85.5059C177.42 84.5684 177.449 83.9531 177.449 83.6602V72.6738C177.449 72.6738 177.479 72.5566 177.537 72.3223C177.596 72.0293 177.654 71.7656 177.713 71.5312C177.83 71.2383 177.918 70.9746 177.977 70.7402C178.035 70.4473 178.064 70.3008 178.064 70.3008L178.24 69.9492C178.24 69.832 178.211 69.7441 178.152 69.6855C178.152 69.627 178.152 69.5684 178.152 69.5098C178.094 69.4512 178.064 69.3926 178.064 69.334C178.064 69.334 177.977 69.2461 177.801 69.0703C177.625 68.8359 177.42 68.6016 177.186 68.3672C176.951 68.0742 176.717 67.8105 176.482 67.5762C176.307 67.2832 176.189 67.0781 176.131 66.9609C175.545 66.1406 174.637 65.5547 173.406 65.2031C172.234 64.793 171.033 64.4121 169.803 64.0605C168.631 63.709 167.576 63.2988 166.639 62.8301C165.76 62.3027 165.32 61.541 165.32 60.5449C165.32 59.9004 165.643 59.373 166.287 58.9629C166.99 58.4941 167.576 58.2012 168.045 58.084C168.221 58.0254 168.66 57.9375 169.363 57.8203C170.066 57.7031 170.828 57.5859 171.648 57.4688C172.527 57.3516 173.318 57.2344 174.021 57.1172C174.725 56.9414 175.164 56.8242 175.34 56.7656C175.398 56.707 175.604 56.6191 175.955 56.502C176.307 56.3848 176.658 56.2676 177.01 56.1504C177.42 55.9746 177.771 55.8281 178.064 55.7109C178.416 55.5938 178.621 55.5352 178.68 55.5352C179.207 55.3594 180.086 55.1543 181.316 54.9199C182.547 54.6855 183.514 54.3926 184.217 54.041C184.803 53.748 185.301 53.4551 185.711 53.1621C186.18 52.8105 186.619 52.5176 187.029 52.2832C187.498 51.9902 187.967 51.7852 188.436 51.668C188.963 51.4922 189.578 51.4043 190.281 51.4043C191.336 51.4043 192.127 51.9023 192.654 52.8984C193.182 53.8945 193.445 54.9199 193.445 55.9746C193.445 57.6738 193.299 59.4023 193.006 61.1602C192.771 62.8594 192.654 64.5879 192.654 66.3457C192.654 67.8105 192.684 69.0996 192.742 70.2129C192.801 71.2676 193.035 72.6445 193.445 74.3438V110.291C193.504 110.467 193.562 110.701 193.621 110.994C193.738 111.287 193.797 111.609 193.797 111.961C193.855 112.312 193.914 112.664 193.973 113.016C194.031 113.309 194.119 113.514 194.236 113.631V114.07V114.51C194.236 114.627 194.207 114.832 194.148 115.125C194.09 115.418 194.031 115.77 193.973 116.18C193.914 116.531 193.826 116.883 193.709 117.234C193.592 117.527 193.504 117.732 193.445 117.85V118.641C193.445 118.816 193.504 119.227 193.621 119.871C193.738 120.516 193.885 121.219 194.061 121.98C194.295 122.742 194.529 123.445 194.764 124.09C194.998 124.676 195.232 125.027 195.467 125.145C195.525 125.262 195.672 125.32 195.906 125.32C196.141 125.32 196.346 125.32 196.521 125.32C196.873 125.32 197.195 125.291 197.488 125.232C197.84 125.174 198.074 125.145 198.191 125.145C198.25 125.262 198.543 125.408 199.07 125.584C199.656 125.701 200.008 125.76 200.125 125.76C200.301 125.877 200.652 125.965 201.18 126.023C201.707 126.082 202.234 126.141 202.762 126.199C203.348 126.199 203.904 126.258 204.432 126.375C204.959 126.434 205.311 126.492 205.486 126.551C206.131 126.668 206.541 127.078 206.717 127.781C206.893 128.484 206.98 129.07 206.98 129.539C206.98 130.477 206.6 131.18 205.838 131.648C205.076 132.059 204.285 132.322 203.465 132.439H196.346H188.699C188.582 132.439 188.289 132.41 187.82 132.352C187.41 132.293 186.941 132.205 186.414 132.088C185.945 132.029 185.477 131.971 185.008 131.912C184.598 131.795 184.334 131.736 184.217 131.736H183.426C181.844 131.736 180.174 131.854 178.416 132.088C176.717 132.322 174.988 132.439 173.23 132.439H168.66C168.543 132.322 168.133 132.117 167.43 131.824C166.785 131.531 166.346 131.326 166.111 131.209C165.818 130.975 165.613 130.74 165.496 130.506C165.379 130.213 165.32 129.949 165.32 129.715V128.836Z" fill="#030089"/>
<path d="M163.883 21.5868C164.192 21.5515 164.801 21.35 165.101 21.3121C165.515 21.2597 166.421 21.3698 166.819 21.3121C168.988 20.9974 170.406 21.0418 172.103 20.5307C175.757 18.095 179.008 17.7569 180.933 14.1369C181.466 13.135 181.764 10.8051 182.151 9.56996C182.39 8.80617 183.044 7.99529 183.234 7.13423C183.384 6.4555 183.112 6.00799 183.234 5.26537C183.347 4.58296 183.886 3.61054 183.978 2.87172C184.039 2.37736 184.067 1.87011 184.12 1.34961C184.141 1.59944 184.185 1.83026 184.185 2.09024C184.245 2.73212 184.483 3.18325 184.555 3.78512C184.609 4.23252 184.494 4.83948 184.555 5.26537C184.632 5.80365 184.716 6.32494 184.807 6.82977C184.941 7.57558 185.51 8.28544 185.675 8.96103C185.805 9.48916 185.525 9.99634 185.675 10.4834C185.885 11.1614 186.463 12.317 186.718 12.9191C187.937 15.8 189.153 17.7905 191.894 18.7407C193.348 19.5536 194.449 20.3788 196.461 20.8352C197.407 21.0499 199.029 20.9897 200.114 21.1397C200.738 21.2259 201.386 21.3303 202.059 21.3975C202.418 21.4335 202.854 21.4441 203.159 21.4977C203.36 21.5143 203.453 21.4825 203.659 21.4977C203.853 21.5122 204.159 21.5736 204.357 21.5868C204.005 21.6383 204.072 21.7372 203.542 21.8228C203.386 21.8479 203.008 21.7969 202.854 21.8228C202.649 21.8574 202.371 21.7868 202.17 21.8228C201.899 21.8714 201.595 22.0019 201.332 22.0531C199.509 22.4077 198.824 23.0873 197.374 23.5754C196.598 23.8365 195.618 24.1845 194.938 24.4888C194.207 24.8164 193.132 25.0204 192.503 25.4022C191.397 26.0733 190.266 26.6766 189.438 27.5334C188.476 28.5276 187.379 29.6042 186.718 30.8826C186.346 31.5999 186.321 32.4153 186.024 33.2311C185.729 34.0442 185.125 35.4456 184.891 36.3629C184.723 37.0215 184.911 37.1701 184.768 37.8853C184.603 38.7122 184.453 39.5777 184.314 40.4837C184.247 40.921 184.182 41.3677 184.12 41.8241C184.078 41.5665 184.035 41.3122 183.991 41.0611C183.873 40.3858 183.804 39.7334 183.673 39.1031C183.449 38.0252 183.337 37.0118 183.064 36.0585C182.883 35.4234 182.503 34.8149 182.294 34.2317C181.813 32.8846 181.594 31.3678 180.933 30.2736C180.327 29.2701 179.295 28.6704 178.497 27.8526C177.101 26.4213 175.47 25.4602 173.321 24.4888C172.59 24.1582 171.72 23.6446 170.886 23.3565C170.175 23.1111 169.425 22.8802 168.633 22.662C168.255 22.5576 167.841 22.662 167.536 22.3575C167.259 22.2887 166.91 22.1193 166.623 22.0531C166.226 21.9615 165.821 22.1399 165.405 22.0531C164.911 21.9498 164.404 21.684 163.883 21.5868Z" fill="#030089"/>
<path d="M68.1172 125.584V123.65C68.1172 123.592 68.1758 123.357 68.293 122.947C68.4102 122.537 68.5566 122.127 68.7324 121.717C68.9082 121.248 69.0547 120.838 69.1719 120.486C69.2891 120.076 69.3477 119.812 69.3477 119.695C69.4062 119.461 69.4648 118.904 69.5234 118.025C69.6406 117.088 69.7578 116.092 69.875 115.037C69.9922 113.982 70.0801 112.957 70.1387 111.961C70.2559 110.906 70.3145 110.145 70.3145 109.676V93.5039C70.3145 93.1523 70.3438 92.6836 70.4023 92.0977C70.5195 91.5117 70.666 90.9551 70.8418 90.4277C71.0762 89.8418 71.3398 89.3438 71.6328 88.9336C71.9844 88.4648 72.3945 88.2305 72.8633 88.2305C73.918 88.2305 74.709 88.4941 75.2363 89.0215C75.8223 89.5488 76.2617 90.1934 76.5547 90.9551C76.9062 91.6582 77.1406 92.4492 77.2578 93.3281C77.375 94.207 77.4922 94.998 77.6094 95.7012C78.4883 100.096 80.0703 104.227 82.3555 108.094C84.6992 111.961 87.6289 115.477 91.1445 118.641C91.4375 118.875 91.8184 119.197 92.2871 119.607C92.8145 120.018 93.3125 120.428 93.7812 120.838C94.3672 121.365 94.9531 121.893 95.5391 122.42C95.832 122.596 96.3594 122.83 97.1211 123.123C97.8828 123.357 98.7031 123.621 99.582 123.914C100.461 124.207 101.281 124.471 102.043 124.705C102.805 124.939 103.361 125.086 103.713 125.145C103.889 125.145 104.328 125.174 105.031 125.232C105.793 125.232 106.584 125.262 107.404 125.32C108.225 125.32 108.986 125.35 109.689 125.408C110.393 125.408 110.832 125.438 111.008 125.496C111.125 125.496 111.477 125.555 112.062 125.672C112.707 125.73 113.059 125.76 113.117 125.76H114.26C115.021 125.76 115.725 125.613 116.369 125.32C117.072 124.969 117.834 124.705 118.654 124.529C119.475 124.295 120.266 124.148 121.027 124.09C121.789 123.973 122.521 123.68 123.225 123.211C124.221 122.508 125.188 121.863 126.125 121.277C127.121 120.633 128.029 119.959 128.85 119.256C129.67 118.553 130.402 117.762 131.047 116.883C131.75 115.945 132.336 114.861 132.805 113.631C132.805 113.572 132.834 113.338 132.893 112.928C132.951 112.518 132.98 112.107 132.98 111.697C133.039 111.229 133.098 110.818 133.156 110.467C133.215 110.057 133.244 109.793 133.244 109.676C133.303 109.559 133.42 109.295 133.596 108.885C133.83 108.475 134.064 108.064 134.299 107.654C134.592 107.186 134.826 106.775 135.002 106.424C135.236 106.014 135.354 105.779 135.354 105.721C135.354 105.604 135.383 105.135 135.441 104.314C135.5 103.494 135.529 102.85 135.529 102.381C135.529 100.33 135.207 98.3672 134.562 96.4922C133.918 94.6172 133.039 92.8887 131.926 91.3066C130.871 89.666 129.582 88.2012 128.059 86.9121C126.594 85.5645 124.982 84.4219 123.225 83.4844C123.107 83.3672 122.668 83.2793 121.906 83.2207C121.145 83.1035 120.705 82.9863 120.588 82.8691C120.412 82.8105 119.973 82.6348 119.27 82.3418C118.625 81.9902 117.922 81.6387 117.16 81.2871C116.398 80.877 115.666 80.5254 114.963 80.2324C114.318 79.8809 113.908 79.6465 113.732 79.5293C113.732 79.4707 113.527 79.3828 113.117 79.2656C112.766 79.1484 112.355 79.0312 111.887 78.9141C111.418 78.7383 110.949 78.5918 110.48 78.4746C110.07 78.2988 109.836 78.2109 109.777 78.2109C109.719 78.1523 109.484 78.0352 109.074 77.8594C108.723 77.625 108.312 77.4199 107.844 77.2441C107.434 77.0684 107.023 76.9219 106.613 76.8047C106.262 76.6289 105.998 76.541 105.822 76.541C105.354 76.4238 104.797 76.3359 104.152 76.2773C103.566 76.2188 103.215 76.1895 103.098 76.1895C99.8164 75.4277 96.3301 74.3438 92.6387 72.9375C89.0059 71.4727 85.8125 69.8613 83.0586 68.1035C82.9414 68.0449 82.7363 67.8691 82.4434 67.5762C82.209 67.2832 81.9453 66.9902 81.6523 66.6973C81.3594 66.3457 81.0664 66.0234 80.7734 65.7305C80.5391 65.4375 80.3926 65.291 80.334 65.291C80.2168 65.291 79.9531 65.2031 79.543 65.0273C79.1328 64.8516 78.9277 64.7344 78.9277 64.6758C78.8105 64.6758 78.6934 64.5879 78.5762 64.4121C78.459 64.1777 78.3418 64.0605 78.2246 64.0605C78.166 63.9434 77.9902 63.6504 77.6973 63.1816C77.4629 62.7129 77.1992 62.2148 76.9062 61.6875C76.6133 61.1602 76.3203 60.6621 76.0273 60.1934C75.793 59.7246 75.6465 59.4316 75.5879 59.3145C74.6504 57.791 73.6543 56.2676 72.5996 54.7441C71.5449 53.2207 70.7832 51.6094 70.3145 49.9102C69.8457 48.0352 69.4648 46.0723 69.1719 44.0215C68.8789 41.9707 68.7324 40.0371 68.7324 38.2207C68.7324 36.873 68.7617 35.4375 68.8203 33.9141C68.8789 32.3906 69.0547 31.0137 69.3477 29.7832C69.4648 29.666 69.7578 29.3438 70.2266 28.8164C70.6953 28.2305 70.9297 27.8496 70.9297 27.6738C71.0469 27.498 71.1934 27.2637 71.3691 26.9707C71.5449 26.6191 71.7207 26.2676 71.8965 25.916C72.1309 25.5645 72.3359 25.2715 72.5117 25.0371C72.6875 24.7441 72.8047 24.5684 72.8633 24.5098C75.1484 20.4668 77.9609 16.9512 81.3008 13.9629C84.6406 10.9746 88.5664 8.80664 93.0781 7.45898C93.1953 7.45898 93.5176 7.40039 94.0449 7.2832C94.5723 7.10742 94.9238 7.01953 95.0996 7.01953C95.334 6.90234 95.7734 6.75586 96.418 6.58008C97.1211 6.3457 97.5312 6.22852 97.6484 6.22852C97.707 6.22852 98 6.22852 98.5273 6.22852C99.0547 6.16992 99.6406 6.14062 100.285 6.14062C100.988 6.08203 101.691 6.05273 102.395 6.05273C103.098 5.99414 103.654 5.96484 104.064 5.96484C104.299 5.96484 104.68 5.99414 105.207 6.05273C105.734 6.11133 106.291 6.16992 106.877 6.22852C107.521 6.22852 108.107 6.25781 108.635 6.31641C109.221 6.375 109.66 6.4043 109.953 6.4043C110.363 6.52148 110.832 6.66797 111.359 6.84375C111.945 6.96094 112.297 7.01953 112.414 7.01953C113.41 7.07812 114.26 7.13672 114.963 7.19531C115.725 7.19531 116.486 7.2832 117.248 7.45898C118.01 7.57617 118.83 7.81055 119.709 8.16211C120.646 8.45508 121.818 8.92383 123.225 9.56836C124.689 10.2715 126.037 10.9453 127.268 11.5898C128.557 12.2344 129.436 12.6738 129.904 12.9082C130.021 13.0254 130.373 13.2891 130.959 13.6992C131.545 14.0508 131.838 14.3145 131.838 14.4902H133.068C133.713 14.4902 134.27 14.3438 134.738 14.0508C135.207 13.7578 135.617 13.4062 135.969 12.9961C136.379 12.5859 136.76 12.1465 137.111 11.6777C137.463 11.1504 137.844 10.7109 138.254 10.3594C138.371 10.1836 138.605 9.86133 138.957 9.39258C139.367 8.92383 139.807 8.42578 140.275 7.89844C140.803 7.37109 141.271 6.90234 141.682 6.49219C142.15 6.02344 142.473 5.70117 142.648 5.52539H143.439C144.084 5.52539 144.553 5.81836 144.846 6.4043C145.139 6.99023 145.314 7.60547 145.373 8.25C145.373 8.30859 145.402 8.63086 145.461 9.2168C145.52 9.74414 145.578 10.3594 145.637 11.0625C145.695 11.7656 145.754 12.498 145.812 13.2598C145.871 13.9629 145.93 14.5195 145.988 14.9297V15.5449V15.7207C145.812 16.9512 145.637 18.6797 145.461 20.9062C145.285 23.1328 145.08 25.3594 144.846 27.5859C144.67 29.8125 144.494 31.8047 144.318 33.5625C144.201 35.2617 144.113 36.2578 144.055 36.5508C143.879 38.0742 143.439 39.4805 142.736 40.7695C142.092 42 140.891 42.6152 139.133 42.6152C138.781 42.6152 138.225 42.5859 137.463 42.5273C136.76 42.4688 136.262 42.2344 135.969 41.8242C135.266 40.9453 134.68 40.0078 134.211 39.0117C133.801 38.0156 133.391 37.0488 132.98 36.1113C132.57 35.1152 132.131 34.1191 131.662 33.123C131.193 32.127 130.607 31.1895 129.904 30.3105C129.084 29.3145 128.234 28.2598 127.355 27.1465C126.535 26.0332 125.656 24.9492 124.719 23.8945C123.781 22.7812 122.814 21.7266 121.818 20.7305C120.822 19.7344 119.768 18.8555 118.654 18.0938C118.537 18.0938 118.332 18.0645 118.039 18.0059C117.805 17.8887 117.541 17.7715 117.248 17.6543C116.955 17.5371 116.662 17.4199 116.369 17.3027C116.135 17.1855 115.988 17.0977 115.93 17.0391C115.812 16.9805 115.607 16.834 115.314 16.5996C115.021 16.3066 114.67 16.0137 114.26 15.7207C113.908 15.3691 113.557 15.0762 113.205 14.8418C112.854 14.6074 112.59 14.4902 112.414 14.4902C112.414 14.4316 112.268 14.373 111.975 14.3145C111.682 14.1973 111.33 14.1094 110.92 14.0508C110.51 13.9922 110.07 13.9336 109.602 13.875C109.191 13.8164 108.869 13.7578 108.635 13.6992C108.342 13.6406 107.873 13.582 107.229 13.5234C106.643 13.4648 106.027 13.4062 105.383 13.3477C104.738 13.2305 104.123 13.1426 103.537 13.084C103.01 13.0254 102.629 12.9668 102.395 12.9082H101.428C97.9707 12.9082 95.0703 13.6113 92.7266 15.0176C90.4414 16.3652 88.3906 18.3574 86.5742 20.9941C85.8125 22.0488 85.1387 22.9277 84.5527 23.6309C83.9668 24.2754 83.4688 24.9199 83.0586 25.5645C82.707 26.1504 82.4434 26.8535 82.2676 27.6738C82.0918 28.4355 82.0039 29.4609 82.0039 30.75C82.0039 31.043 82.0039 31.3652 82.0039 31.7168C82.0039 32.0098 82.0332 32.3027 82.0918 32.5957C82.1504 32.9473 82.209 33.2988 82.2676 33.6504C82.3262 33.9434 82.5312 34.4707 82.8828 35.2324C83.2344 35.9941 83.6445 36.8145 84.1133 37.6934C84.582 38.5137 85.0215 39.334 85.4316 40.1543C85.9004 40.916 86.2812 41.4727 86.5742 41.8242C86.5742 41.9414 86.7207 42.1758 87.0137 42.5273C87.3652 42.8789 87.7461 43.2891 88.1562 43.7578C88.5664 44.168 88.9473 44.5781 89.2988 44.9883C89.709 45.3398 90.002 45.6035 90.1777 45.7793C92.5215 47.8887 95.0703 49.6172 97.8242 50.9648C100.637 52.2539 103.479 53.3672 106.35 54.3047C109.279 55.1836 112.209 56.0039 115.139 56.7656C118.127 57.4688 121.027 58.3184 123.84 59.3145C124.309 60.0762 124.953 60.5156 125.773 60.6328C126.594 60.6914 127.414 60.9258 128.234 61.3359C128.703 61.6875 129.318 62.0684 130.08 62.4785C130.842 62.8887 131.604 63.3281 132.365 63.7969C133.186 64.2656 133.977 64.7637 134.738 65.291C135.559 65.7598 136.232 66.2578 136.76 66.7852C136.936 66.9023 137.17 67.1074 137.463 67.4004C137.756 67.6934 138.078 68.0156 138.43 68.3672C138.781 68.6602 139.104 68.9531 139.396 69.2461C139.689 69.5391 139.924 69.7734 140.1 69.9492C140.1 70.125 140.305 70.4766 140.715 71.0039C141.125 71.5312 141.359 71.8535 141.418 71.9707C142.766 73.4941 144.143 74.9883 145.549 76.4531C147.014 77.8594 148.127 79.5586 148.889 81.5508C149.006 82.0195 149.152 82.5762 149.328 83.2207C149.562 83.8652 149.797 84.5098 150.031 85.1543C150.266 85.8574 150.559 86.6191 150.91 87.4395C151.145 88.6699 151.291 89.8711 151.35 91.043C151.408 92.1562 151.438 93.2988 151.438 94.4707C151.438 95.9941 151.379 97.5176 151.262 99.041C151.145 100.506 151.027 102 150.91 103.523C150.383 104.812 149.885 106.014 149.416 107.127C148.947 108.24 148.479 109.324 148.01 110.379C147.541 111.434 147.043 112.518 146.516 113.631C145.988 114.686 145.402 115.799 144.758 116.971C144.641 117.029 144.406 117.176 144.055 117.41C143.762 117.586 143.557 117.732 143.439 117.85C142.502 118.67 141.682 119.432 140.979 120.135C140.275 120.838 139.572 121.541 138.869 122.244C138.225 122.947 137.492 123.65 136.672 124.354C135.91 125.057 134.973 125.789 133.859 126.551C131.984 127.84 129.904 128.924 127.619 129.803C125.334 130.623 122.99 131.355 120.588 132C119.416 132.234 118.479 132.352 117.775 132.352C117.131 132.352 116.311 132.586 115.314 133.055C115.021 133.055 114.523 133.055 113.82 133.055C113.176 133.113 112.502 133.143 111.799 133.143C111.096 133.143 110.451 133.143 109.865 133.143C109.279 133.201 108.869 133.23 108.635 133.23C105.822 133.23 103.039 133.172 100.285 133.055C97.5898 132.996 94.9238 132.645 92.2871 132C91.1738 131.59 89.9727 131.238 88.6836 130.945C87.4531 130.594 86.1934 130.184 84.9043 129.715C84.7285 129.656 84.5527 129.568 84.377 129.451C84.0254 129.334 83.791 129.217 83.6738 129.1C83.6152 129.1 83.4395 129.07 83.1465 129.012C82.8535 128.953 82.5312 128.924 82.1797 128.924C81.8281 128.865 81.4766 128.807 81.125 128.748C80.7734 128.689 80.5098 128.66 80.334 128.66H79.9824H79.3672C79.1328 128.777 78.6641 129.012 77.9609 129.363C77.2578 129.715 76.4668 130.125 75.5879 130.594C74.7676 131.004 73.9473 131.385 73.127 131.736C72.3652 132.088 71.8086 132.322 71.457 132.439C71.2227 132.615 70.8418 132.762 70.3145 132.879C69.7871 132.996 69.4648 133.055 69.3477 133.055C69.1133 133.055 68.9082 132.732 68.7324 132.088C68.6152 131.443 68.498 130.711 68.3809 129.891C68.3223 129.012 68.2637 128.162 68.2051 127.342C68.1465 126.521 68.1172 125.936 68.1172 125.584Z" fill="#030089"/>
</svg>
