<svg width="43" height="51" viewBox="0 0 43 51" fill="none" xmlns="http://www.w3.org/2000/svg">
<path fill-rule="evenodd" clip-rule="evenodd" d="M15.5577 14.5005C15.058 14.282 14.6693 13.869 14.4815 13.357L12.7127 8.53603C12.5912 8.20492 12.3454 7.93853 12.034 7.7927C11.7235 7.64721 11.3735 7.63328 11.06 7.74828C10.7466 7.86329 10.4886 8.10027 10.3459 8.41208C10.2027 8.72464 10.1875 9.08683 10.309 9.41793L14.5701 21.032C14.8492 21.7928 14.6417 22.6468 14.0445 23.1946C13.4473 23.7425 12.5786 23.8758 11.8446 23.5323L8.09588 21.7776C8.09535 21.7774 8.09481 21.7771 8.09428 21.7769C7.90597 21.6898 7.69687 21.6759 7.50537 21.7333C7.3134 21.7908 7.14712 21.9175 7.03893 22.0931C6.93044 22.2691 6.88747 22.4835 6.92351 22.6962C6.95946 22.9085 7.07081 23.0997 7.23434 23.2342C7.23493 23.2347 7.23552 23.2351 7.2361 23.2356L14.3178 28.9915C14.3574 29.0236 14.3957 29.0573 14.4327 29.0924L18.1542 32.6221C18.2677 32.7299 18.4066 32.802 18.554 32.8329C18.7012 32.8636 18.8519 32.8523 18.9901 32.8016C18.9901 32.8016 18.9901 32.8016 18.9901 32.8016L30.0791 28.7331C30.2102 28.685 30.3271 28.6025 30.4177 28.4926C30.5084 28.3825 30.57 28.2482 30.5941 28.1023L31.4592 22.8684C31.5649 22.2292 31.5357 21.573 31.3728 20.9429L30.0833 15.9478C30.0832 15.9477 30.0833 15.9479 30.0833 15.9478C30.0204 15.7046 29.9076 15.4768 29.7526 15.2801C29.5977 15.0833 29.4044 14.9221 29.1861 14.8063C28.9679 14.6904 28.7296 14.6225 28.4868 14.6057C28.244 14.5888 28.0016 14.6234 27.7747 14.7066C27.7747 14.7066 27.7747 14.7066 27.7747 14.7066L26.7505 15.0824C26.152 15.302 25.4847 15.223 24.9539 14.8699C24.847 14.7989 24.7117 14.7141 24.5444 14.6151C24.351 14.5025 24.1335 14.3885 23.9168 14.3034C23.687 14.2131 23.5413 14.1886 23.4785 14.1866L23.4766 14.1866C23.4125 14.1845 23.2529 14.2002 22.9917 14.2793C22.7496 14.3526 22.5026 14.4545 22.2783 14.5568L22.0671 14.657C21.2683 15.0361 20.3153 14.8456 19.7235 14.1886C19.6794 14.1396 19.6371 14.1072 19.601 14.0865C19.5672 14.0672 19.5318 14.0539 19.4888 14.0468C19.1635 13.9952 18.8559 13.9784 18.6239 14.0141L18.6226 14.0143C18.3044 14.063 17.7548 14.2562 17.2054 14.4822L17.1279 14.5145C16.6244 14.7241 16.0573 14.7191 15.5577 14.5005ZM17.641 12.1978C17.8774 12.127 18.1097 12.0695 18.3199 12.0373C18.8491 11.956 19.3926 12.0063 19.8061 12.0721C20.3855 12.1656 20.8593 12.4611 21.2096 12.8501L21.4341 12.7436C21.9675 12.4996 22.8066 12.1635 23.5422 12.1877C24.2896 12.2115 25.0718 12.6073 25.557 12.8904C25.749 13.0039 25.9173 13.1087 26.0616 13.2047L27.0858 12.829C27.5775 12.6486 28.1019 12.5742 28.6251 12.6104C29.1483 12.6467 29.6588 12.7929 30.1237 13.0396C30.5885 13.2863 30.9974 13.6281 31.324 14.0428C31.6505 14.4575 31.8875 14.936 32.0197 15.4475L33.3092 20.4423C33.5417 21.3419 33.5837 22.2797 33.4325 23.1945L32.5674 28.428C32.4861 28.9202 32.277 29.3813 31.9611 29.7646C31.6452 30.1478 31.2338 30.4397 30.7686 30.6105L19.679 34.6792C19.1885 34.8592 18.6572 34.8977 18.1446 34.7905C17.632 34.6833 17.1584 34.4347 16.777 34.0724L13.0564 30.5435L5.96966 24.7836C5.43022 24.3422 5.06823 23.7188 4.9516 23.0303C4.83497 22.3417 4.97174 21.6354 5.33622 21.0439C5.70071 20.4524 6.26786 20.0163 6.93125 19.8175C7.59464 19.6187 8.30865 19.6708 8.9393 19.9641L12.6925 21.7209L8.43137 10.1068C8.12911 9.28297 8.16367 8.37383 8.52745 7.5794C8.89123 6.78497 9.55443 6.17032 10.3712 5.87067C11.1879 5.57102 12.0912 5.61091 12.8825 5.98157C13.6737 6.35223 14.288 7.0233 14.5903 7.84714L16.3591 12.6681L16.4405 12.6342C16.7869 12.4917 17.2205 12.3237 17.641 12.1978Z" fill="#00025C"/>
<path d="M37.0421 39.5137C37.3314 39.5137 37.5367 39.523 37.6581 39.5417C37.6581 39.831 37.5974 40.2043 37.4761 40.6617C37.4201 43.1257 37.3921 44.9877 37.3921 46.2477L39.6461 43.8397L38.5261 43.7277C38.5261 43.4663 38.6054 43.1863 38.7641 42.8877H42.3201L42.3621 43.5037C42.1474 43.5877 41.7554 43.695 41.1861 43.8257L39.2681 45.5617L41.6341 49.0477L42.8101 49.1597C42.8101 49.421 42.7307 49.701 42.5721 49.9997H40.6541L38.4701 46.2757L37.3781 47.2697C37.3594 48.0537 37.3501 48.6463 37.3501 49.0477L38.5261 49.1597C38.5261 49.421 38.4467 49.701 38.2881 49.9997H35.0681L35.0261 49.5097C35.4554 49.3603 35.8754 49.2483 36.2861 49.1737C36.2301 45.403 36.1834 42.5517 36.1461 40.6197C35.6327 40.5917 35.2221 40.5357 34.9141 40.4517L34.9701 39.7237C35.4461 39.5837 36.1367 39.5137 37.0421 39.5137Z" fill="#00025C"/>
<path d="M31.8789 50.1668C30.7589 50.1668 29.9235 49.8541 29.3729 49.2288C28.8222 48.5941 28.5469 47.6934 28.5469 46.5268C28.5469 43.9881 29.6762 42.7188 31.9349 42.7188C32.2989 42.7188 32.6769 42.7747 33.0689 42.8868C33.4609 42.9894 33.7689 43.1061 33.9929 43.2368C33.9649 44.1048 33.8762 44.7208 33.7269 45.0848C33.5589 45.1314 33.4235 45.1548 33.3209 45.1548H33.0829C33.0362 45.1548 32.9802 45.1501 32.9149 45.1408L32.5649 43.6008C32.2569 43.5728 32.0795 43.5588 32.0329 43.5588C31.3609 43.5588 30.8242 43.7641 30.4229 44.1748C30.0309 44.5854 29.8349 45.2761 29.8349 46.2468C29.8349 47.2174 29.9842 47.9548 30.2829 48.4588C30.5909 48.9628 31.1789 49.2148 32.0469 49.2148C32.4575 49.2148 33.1015 49.0188 33.9789 48.6268C34.1562 48.8694 34.2495 49.0841 34.2589 49.2708C33.7829 49.5508 33.3162 49.7701 32.8589 49.9288C32.4015 50.0874 32.0749 50.1668 31.8789 50.1668Z" fill="#00025C"/>
<path d="M26.7603 41.5585C26.5176 41.6145 26.2796 41.6425 26.0463 41.6425C25.8223 41.6425 25.5983 41.6285 25.3743 41.6005C25.3183 41.3392 25.2902 41.0779 25.2902 40.8165C25.2902 40.5459 25.2996 40.3452 25.3182 40.2145C25.5236 40.1679 25.7382 40.1445 25.9622 40.1445C26.1956 40.1445 26.4429 40.1539 26.7043 40.1725C26.7603 40.4152 26.7882 40.6532 26.7882 40.8865C26.7882 41.1105 26.7789 41.3345 26.7603 41.5585ZM24.2122 43.0285C25.0056 42.8885 25.6216 42.8185 26.0603 42.8185C26.4989 42.8185 26.7789 42.8279 26.9003 42.8465C26.9003 43.0705 26.8722 43.3179 26.8162 43.5885C26.7602 43.8592 26.7276 43.9899 26.7183 43.9805L26.5922 49.0485L27.7683 49.1605C27.7683 49.4219 27.6889 49.7019 27.5303 50.0005H24.3103L24.2682 49.5105C24.6976 49.3612 25.1176 49.2492 25.5282 49.1745C25.4722 46.8412 25.4256 45.0912 25.3883 43.9245C24.8469 43.9245 24.4363 43.8685 24.1562 43.7565L24.2122 43.0285Z" fill="#00025C"/>
<path d="M22.003 39.5977C22.2923 39.5977 22.4977 39.607 22.619 39.6257C22.619 39.9523 22.5583 40.3257 22.437 40.7457C22.353 46.2523 22.311 49.0197 22.311 49.0477L23.487 49.1597C23.487 49.421 23.4077 49.701 23.249 49.9997H20.029L19.987 49.5097C20.4163 49.3603 20.8363 49.2483 21.247 49.1737L21.107 40.7037C20.5937 40.6757 20.183 40.6197 19.875 40.5357L19.931 39.8077C20.407 39.6677 21.0977 39.5977 22.003 39.5977Z" fill="#00025C"/>
<path d="M16.8398 50.1668C15.7198 50.1668 14.8845 49.8541 14.3338 49.2288C13.7831 48.5941 13.5078 47.6934 13.5078 46.5268C13.5078 43.9881 14.6371 42.7188 16.8958 42.7188C17.2598 42.7188 17.6378 42.7747 18.0298 42.8868C18.4218 42.9894 18.7298 43.1061 18.9538 43.2368C18.9258 44.1048 18.8371 44.7208 18.6878 45.0848C18.5198 45.1314 18.3845 45.1548 18.2818 45.1548H18.0438C17.9971 45.1548 17.9411 45.1501 17.8758 45.1408L17.5258 43.6008C17.2178 43.5728 17.0405 43.5588 16.9938 43.5588C16.3218 43.5588 15.7851 43.7641 15.3838 44.1748C14.9918 44.5854 14.7958 45.2761 14.7958 46.2468C14.7958 47.2174 14.9451 47.9548 15.2438 48.4588C15.5518 48.9628 16.1398 49.2148 17.0078 49.2148C17.4185 49.2148 18.0625 49.0188 18.9398 48.6268C19.1171 48.8694 19.2105 49.0841 19.2198 49.2708C18.7438 49.5508 18.2771 49.7701 17.8198 49.9288C17.3625 50.0874 17.0358 50.1668 16.8398 50.1668Z" fill="#00025C"/>
</svg>
