<svg width="450" height="181" viewBox="0 0 450 181" fill="none" xmlns="http://www.w3.org/2000/svg">
<path d="M389.994 178.058C388.849 177.649 388.072 177.158 387.663 176.586C387.254 176.013 387.049 175.154 387.049 174.009C387.049 172.209 387.867 171.064 389.503 170.573C391.139 170 392.98 169.591 395.025 169.346C397.152 169.018 399.116 168.568 400.916 167.996C402.715 167.341 403.82 166.032 404.229 164.069C404.638 160.96 404.883 158.097 404.965 155.479C405.047 152.779 405.088 150.12 405.088 147.502V140.753C405.088 134.372 404.924 127.95 404.597 121.487C404.352 115.024 404.229 108.561 404.229 102.098C404.229 96.2897 404.352 90.6039 404.597 85.0409C404.924 79.4779 405.088 73.833 405.088 68.1063C405.088 62.7069 404.924 57.3893 404.597 52.1535C404.352 46.9177 404.229 41.6001 404.229 36.2007V30.924C403.574 29.0423 402.715 27.3653 401.652 25.8927C400.67 24.3383 399.239 23.193 397.357 22.4567C396.866 22.2113 395.884 21.9658 394.412 21.7204C393.021 21.475 391.549 21.1886 389.994 20.8614C388.522 20.5342 387.172 20.1251 385.945 19.6343C384.799 19.1434 384.227 18.448 384.227 17.5481C384.227 16.8936 384.39 16.2392 384.717 15.5847C385.126 14.8484 385.617 14.3985 386.19 14.2348C389.053 12.6805 391.998 11.3306 395.025 10.1853C398.052 9.03994 401.12 7.8128 404.229 6.50385C405.456 5.93118 406.724 5.27671 408.033 4.54042C409.424 3.80414 410.815 3.10876 412.205 2.45428C413.678 1.718 415.151 1.14533 416.623 0.736285C418.096 0.245428 419.609 0 421.164 0C421.736 0 422.472 0.0409047 423.372 0.122714C424.354 0.204524 425.049 0.449952 425.459 0.858999C425.786 1.18624 426.031 1.84071 426.195 2.82243C426.358 3.72233 426.44 4.3768 426.44 4.78585C426.44 5.1949 426.44 5.97209 426.44 7.11742C426.522 8.18094 426.563 9.32627 426.563 10.5534C426.563 11.7806 426.563 12.9668 426.563 14.1121C426.645 15.2575 426.686 16.0756 426.686 16.5664C426.686 17.2209 426.645 18.1617 426.563 19.3888C426.563 20.616 426.563 21.8431 426.563 23.0703C426.563 24.2974 426.522 25.4018 426.44 26.3835C426.44 27.3653 426.44 27.897 426.44 27.9788C426.44 28.4697 426.399 29.4105 426.318 30.8012C426.318 32.1102 426.277 33.501 426.195 34.9735C426.113 36.4461 425.99 37.8778 425.827 39.2685C425.745 40.5775 425.622 41.4774 425.459 41.9682C425.377 42.1319 425.295 42.4591 425.213 42.9499C425.131 43.359 425.049 43.8499 424.968 44.4225C424.886 44.9952 424.804 45.5269 424.722 46.0178C424.64 46.4268 424.6 46.7132 424.6 46.8768V47.9812C424.6 48.1448 424.681 48.5539 424.845 49.2084C425.09 49.8628 425.295 50.2719 425.459 50.4355V74.2421C426.358 76.1237 426.89 77.9644 427.054 79.7642C427.217 81.4822 427.299 83.4865 427.299 85.7772C427.299 87.2498 427.258 88.9268 427.177 90.8085C427.095 92.6901 426.849 94.449 426.44 96.0852C426.44 99.4394 426.481 102.671 426.563 105.78C426.645 108.807 426.686 111.874 426.686 114.983C426.686 120.055 426.604 125.046 426.44 129.954C426.277 134.863 425.949 139.935 425.459 145.171C425.377 145.58 425.254 146.562 425.09 148.116C424.927 149.67 424.722 151.347 424.477 153.147C424.313 154.865 424.109 156.501 423.863 158.056C423.7 159.61 423.577 160.551 423.495 160.878V161.983C423.495 162.719 423.7 163.537 424.109 164.437C424.518 165.255 425.049 166.032 425.704 166.769C426.358 167.505 427.054 168.118 427.79 168.609C428.608 169.1 429.385 169.346 430.122 169.346H445.952C446.688 169.346 447.302 169.55 447.792 169.959C448.283 170.286 448.692 170.736 449.02 171.309C449.347 171.882 449.592 172.454 449.756 173.027C449.92 173.6 450.001 174.131 450.001 174.622C450.001 175.768 449.674 176.667 449.02 177.322C448.447 177.976 447.711 178.467 446.811 178.794C445.911 179.122 444.929 179.326 443.866 179.408C442.884 179.49 441.984 179.531 441.166 179.531H438.589C430.572 179.204 422.472 178.999 414.292 178.917C406.192 178.917 398.093 178.631 389.994 178.058Z" fill="#030089"/>
<path d="M321.994 178.058C320.849 177.649 320.072 177.158 319.663 176.586C319.254 176.013 319.049 175.154 319.049 174.009C319.049 172.209 319.867 171.064 321.503 170.573C323.139 170 324.98 169.591 327.025 169.346C329.152 169.018 331.116 168.568 332.916 167.996C334.715 167.341 335.82 166.032 336.229 164.069C336.638 160.96 336.883 158.097 336.965 155.479C337.047 152.779 337.088 150.12 337.088 147.502V140.753C337.088 134.372 336.924 127.95 336.597 121.487C336.352 115.024 336.229 108.561 336.229 102.098C336.229 96.2897 336.352 90.6039 336.597 85.0409C336.924 79.4779 337.088 73.833 337.088 68.1063C337.088 62.7069 336.924 57.3893 336.597 52.1535C336.352 46.9177 336.229 41.6001 336.229 36.2007V30.924C335.574 29.0423 334.715 27.3653 333.652 25.8927C332.67 24.3383 331.239 23.193 329.357 22.4567C328.866 22.2113 327.884 21.9658 326.412 21.7204C325.021 21.475 323.549 21.1886 321.994 20.8614C320.522 20.5342 319.172 20.1251 317.945 19.6343C316.799 19.1434 316.227 18.448 316.227 17.5481C316.227 16.8936 316.39 16.2392 316.717 15.5847C317.126 14.8484 317.617 14.3985 318.19 14.2348C321.053 12.6805 323.998 11.3306 327.025 10.1853C330.052 9.03994 333.12 7.8128 336.229 6.50385C337.456 5.93118 338.724 5.27671 340.033 4.54042C341.424 3.80414 342.815 3.10876 344.205 2.45428C345.678 1.718 347.151 1.14533 348.623 0.736285C350.096 0.245428 351.609 0 353.164 0C353.736 0 354.472 0.0409047 355.372 0.122714C356.354 0.204524 357.049 0.449952 357.459 0.858999C357.786 1.18624 358.031 1.84071 358.195 2.82243C358.358 3.72233 358.44 4.3768 358.44 4.78585C358.44 5.1949 358.44 5.97209 358.44 7.11742C358.522 8.18094 358.563 9.32627 358.563 10.5534C358.563 11.7806 358.563 12.9668 358.563 14.1121C358.645 15.2575 358.686 16.0756 358.686 16.5664C358.686 17.2209 358.645 18.1617 358.563 19.3888C358.563 20.616 358.563 21.8431 358.563 23.0703C358.563 24.2974 358.522 25.4018 358.44 26.3835C358.44 27.3653 358.44 27.897 358.44 27.9788C358.44 28.4697 358.399 29.4105 358.318 30.8012C358.318 32.1102 358.277 33.501 358.195 34.9735C358.113 36.4461 357.99 37.8778 357.827 39.2685C357.745 40.5775 357.622 41.4774 357.459 41.9682C357.377 42.1319 357.295 42.4591 357.213 42.9499C357.131 43.359 357.049 43.8499 356.968 44.4225C356.886 44.9952 356.804 45.5269 356.722 46.0178C356.64 46.4268 356.6 46.7132 356.6 46.8768V47.9812C356.6 48.1448 356.681 48.5539 356.845 49.2084C357.09 49.8628 357.295 50.2719 357.459 50.4355V74.2421C358.358 76.1237 358.89 77.9644 359.054 79.7642C359.217 81.4822 359.299 83.4865 359.299 85.7772C359.299 87.2498 359.258 88.9268 359.177 90.8085C359.095 92.6901 358.849 94.449 358.44 96.0852C358.44 99.4394 358.481 102.671 358.563 105.78C358.645 108.807 358.686 111.874 358.686 114.983C358.686 120.055 358.604 125.046 358.44 129.954C358.277 134.863 357.949 139.935 357.459 145.171C357.377 145.58 357.254 146.562 357.09 148.116C356.927 149.67 356.722 151.347 356.477 153.147C356.313 154.865 356.109 156.501 355.863 158.056C355.7 159.61 355.577 160.551 355.495 160.878V161.983C355.495 162.719 355.7 163.537 356.109 164.437C356.518 165.255 357.049 166.032 357.704 166.769C358.358 167.505 359.054 168.118 359.79 168.609C360.608 169.1 361.385 169.346 362.122 169.346H377.952C378.688 169.346 379.302 169.55 379.792 169.959C380.283 170.286 380.692 170.736 381.02 171.309C381.347 171.882 381.592 172.454 381.756 173.027C381.92 173.6 382.001 174.131 382.001 174.622C382.001 175.768 381.674 176.667 381.02 177.322C380.447 177.976 379.711 178.467 378.811 178.794C377.911 179.122 376.929 179.326 375.866 179.408C374.884 179.49 373.984 179.531 373.166 179.531H370.589C362.572 179.204 354.472 178.999 346.292 178.917C338.192 178.917 330.093 178.631 321.994 178.058Z" fill="#030089"/>
<path d="M252.531 174.501C252.531 172.537 253.063 171.269 254.127 170.697C255.19 170.124 256.499 169.756 258.053 169.592C259.608 169.429 261.244 169.306 262.962 169.224C264.762 169.06 266.316 168.406 267.625 167.261C267.625 166.77 267.666 165.829 267.748 164.438C267.83 163.047 267.871 161.575 267.871 160.021C267.952 158.384 268.034 156.871 268.116 155.48C268.198 154.089 268.239 153.108 268.239 152.535V137.687C268.239 137.278 268.239 136.378 268.239 134.987C268.32 133.596 268.402 132.001 268.484 130.201C268.648 128.401 268.77 126.479 268.852 124.433C268.934 122.388 269.016 120.466 269.098 118.666C269.261 116.866 269.343 115.312 269.343 114.003C269.425 112.694 269.466 111.835 269.466 111.426V96.0865C269.466 96.0865 269.507 95.9228 269.589 95.5956C269.67 95.1866 269.752 94.8184 269.834 94.4912C269.998 94.0821 270.12 93.714 270.202 93.3868C270.284 92.9777 270.325 92.7732 270.325 92.7732L270.57 92.2823C270.57 92.1187 270.529 91.996 270.448 91.9142C270.448 91.8324 270.448 91.7506 270.448 91.6688C270.366 91.5869 270.325 91.5051 270.325 91.4233C270.325 91.4233 270.202 91.3006 269.957 91.0552C269.711 90.728 269.425 90.4007 269.098 90.0735C268.77 89.6644 268.443 89.2963 268.116 88.9691C267.871 88.56 267.707 88.2737 267.625 88.1101C266.807 86.9647 265.539 86.1466 263.821 85.6558C262.185 85.0831 260.508 84.5513 258.79 84.0605C257.153 83.5696 255.681 82.997 254.372 82.3425C253.145 81.6062 252.531 80.5427 252.531 79.1519C252.531 78.252 252.981 77.5157 253.881 76.9431C254.863 76.2886 255.681 75.8795 256.335 75.7159C256.581 75.6341 257.194 75.5114 258.176 75.3478C259.158 75.1842 260.221 75.0205 261.367 74.8569C262.594 74.6933 263.698 74.5297 264.68 74.3661C265.662 74.1206 266.275 73.957 266.521 73.8752C266.602 73.7934 266.889 73.6707 267.38 73.5071C267.871 73.3434 268.361 73.1798 268.852 73.0162C269.425 72.7708 269.916 72.5663 270.325 72.4026C270.816 72.239 271.102 72.1572 271.184 72.1572C271.92 71.9118 273.147 71.6254 274.865 71.2982C276.583 70.971 277.933 70.5619 278.915 70.0711C279.733 69.662 280.428 69.253 281.001 68.8439C281.655 68.3531 282.269 67.944 282.842 67.6168C283.496 67.2077 284.151 66.9214 284.805 66.7578C285.541 66.5124 286.4 66.3896 287.382 66.3896C288.855 66.3896 289.959 67.085 290.695 68.4758C291.432 69.8665 291.8 71.2982 291.8 72.7708C291.8 75.1433 291.595 77.5566 291.186 80.0109C290.859 82.3834 290.695 84.7968 290.695 87.251C290.695 89.2963 290.736 91.0961 290.818 92.6505C290.9 94.123 291.227 96.0456 291.8 98.418V148.608C291.882 148.854 291.963 149.181 292.045 149.59C292.209 149.999 292.291 150.449 292.291 150.94C292.372 151.431 292.454 151.921 292.536 152.412C292.618 152.821 292.741 153.108 292.904 153.271V153.885V154.498C292.904 154.662 292.863 154.948 292.781 155.357C292.7 155.766 292.618 156.257 292.536 156.83C292.454 157.321 292.332 157.812 292.168 158.303C292.004 158.712 291.882 158.998 291.8 159.162V160.266C291.8 160.511 291.882 161.084 292.045 161.984C292.209 162.884 292.413 163.866 292.659 164.929C292.986 165.993 293.313 166.974 293.64 167.874C293.968 168.692 294.295 169.183 294.622 169.347C294.704 169.51 294.909 169.592 295.236 169.592C295.563 169.592 295.849 169.592 296.095 169.592C296.586 169.592 297.036 169.551 297.445 169.47C297.935 169.388 298.263 169.347 298.426 169.347C298.508 169.51 298.917 169.715 299.653 169.96C300.472 170.124 300.962 170.206 301.126 170.206C301.371 170.369 301.862 170.492 302.599 170.574C303.335 170.656 304.071 170.738 304.807 170.819C305.626 170.819 306.403 170.901 307.139 171.065C307.875 171.147 308.366 171.228 308.612 171.31C309.512 171.474 310.084 172.047 310.33 173.028C310.575 174.01 310.698 174.828 310.698 175.483C310.698 176.791 310.166 177.773 309.102 178.428C308.039 179 306.935 179.368 305.789 179.532H295.849H285.173C285.01 179.532 284.601 179.491 283.946 179.409C283.373 179.328 282.719 179.205 281.983 179.041C281.328 178.959 280.674 178.878 280.019 178.796C279.447 178.632 279.078 178.55 278.915 178.55H277.81C275.602 178.55 273.27 178.714 270.816 179.041C268.443 179.368 266.03 179.532 263.576 179.532H257.194C257.031 179.368 256.458 179.082 255.476 178.673C254.576 178.264 253.963 177.978 253.636 177.814C253.227 177.487 252.94 177.16 252.777 176.832C252.613 176.423 252.531 176.055 252.531 175.728V174.501Z" fill="#030089"/>
<path d="M253 23.3847C253.357 23.3439 254.061 23.111 254.407 23.0673C254.886 23.0067 255.933 23.1339 256.393 23.0673C258.899 22.7036 260.538 22.7548 262.499 22.1643C266.721 19.3498 270.478 18.9591 272.702 14.7761C273.317 13.6183 273.663 10.9261 274.109 9.49886C274.385 8.61627 275.141 7.67928 275.361 6.6843C275.534 5.90001 275.219 5.38289 275.361 4.52478C275.491 3.73623 276.114 2.61257 276.22 1.75884C276.291 1.18759 276.324 0.601449 276.385 0C276.409 0.28869 276.46 0.555401 276.46 0.855823C276.529 1.59753 276.804 2.11882 276.887 2.8143C276.949 3.33129 276.816 4.03265 276.887 4.52478C276.977 5.14677 277.074 5.74914 277.178 6.33249C277.333 7.19429 277.99 8.01456 278.182 8.79522C278.331 9.40548 278.008 9.99155 278.182 10.5543C278.424 11.3378 279.092 12.6732 279.386 13.3689C280.795 16.6979 282.201 18.998 285.367 20.0959C287.047 21.0352 288.32 21.9888 290.645 22.5161C291.738 22.7643 293.613 22.6946 294.866 22.868C295.588 22.9677 296.336 23.0882 297.113 23.1659C297.529 23.2075 298.033 23.2198 298.385 23.2818C298.617 23.3009 298.725 23.2642 298.962 23.2818C299.187 23.2984 299.54 23.3695 299.769 23.3847C299.362 23.4442 299.44 23.5584 298.827 23.6573C298.647 23.6864 298.21 23.6274 298.033 23.6573C297.796 23.6974 297.474 23.6157 297.242 23.6573C296.928 23.7136 296.578 23.8643 296.274 23.9234C294.168 24.3333 293.375 25.1186 291.7 25.6825C290.804 25.9843 289.671 26.3863 288.886 26.738C288.04 27.1166 286.798 27.3523 286.071 27.7934C284.793 28.5689 283.487 29.266 282.529 30.2562C281.418 31.405 280.151 32.6491 279.386 34.1262C278.957 34.9551 278.928 35.8973 278.585 36.84C278.244 37.7795 277.546 39.3989 277.276 40.4589C277.081 41.22 277.299 41.3916 277.133 42.218C276.942 43.1735 276.769 44.1737 276.608 45.2206C276.531 45.7259 276.457 46.2421 276.385 46.7694C276.336 46.4718 276.286 46.178 276.236 45.8878C276.1 45.1074 276.019 44.3536 275.868 43.6253C275.61 42.3797 275.479 41.2087 275.165 40.1071C274.955 39.3732 274.516 38.6701 274.275 37.9962C273.719 36.4396 273.466 34.6869 272.702 33.4225C272.001 32.263 270.809 31.57 269.887 30.625C268.274 28.9711 266.389 27.8605 263.906 26.738C263.061 26.356 262.056 25.7625 261.092 25.4296C260.27 25.1461 259.404 24.8792 258.489 24.6271C258.052 24.5065 257.574 24.6271 257.222 24.2753C256.901 24.1957 256.498 24 256.166 23.9234C255.708 23.8176 255.239 24.0238 254.759 23.9234C254.188 23.8041 253.602 23.497 253 23.3847Z" fill="#030089"/>
<path d="M191.83 82.5866C191.83 80.3778 191.38 78.7825 190.48 77.8008C189.58 76.819 188.557 76.0828 187.412 75.5919C186.348 75.101 185.367 74.6511 184.467 74.242C183.567 73.833 183.117 73.1376 183.117 72.1559C183.117 71.4196 183.321 70.847 183.73 70.4379C184.221 69.9471 184.794 69.538 185.448 69.2108C186.103 68.8835 186.757 68.679 187.412 68.5972C188.148 68.4336 188.762 68.3518 189.253 68.3518C190.398 68.3518 191.502 68.5154 192.566 68.8426C193.629 69.1699 194.816 69.3335 196.125 69.3335H197.352C201.197 68.679 204.96 68.0654 208.641 67.4928C212.323 66.9201 216.127 66.6338 220.054 66.6338C221.199 66.6338 222.345 66.7565 223.49 67.0019C224.717 67.2473 225.331 67.82 225.331 68.7199V69.3335C224.922 70.0698 224.553 70.5606 224.226 70.806C223.899 71.0515 223.572 71.256 223.244 71.4196C222.999 71.5014 222.631 71.5832 222.14 71.665C221.731 71.7469 221.199 71.9105 220.545 72.1559C219.318 72.8104 217.968 73.5058 216.495 74.242C215.023 74.8965 213.509 75.6328 211.955 76.4509C210.4 77.269 208.887 78.0871 207.414 78.9052C206.024 79.7233 204.796 80.5823 203.733 81.4822C203.569 81.564 203.242 81.8503 202.751 82.3412C202.342 82.832 201.892 83.3638 201.401 83.9365C200.91 84.4273 200.42 84.9591 199.929 85.5317C199.52 86.0226 199.233 86.3089 199.07 86.3907C198.906 86.3907 198.415 86.6771 197.597 87.2497C196.861 87.8224 196.411 88.1496 196.247 88.2315C196.166 88.4769 195.879 88.8859 195.388 89.4586C194.897 89.9495 194.488 90.4812 194.161 91.0539C194.161 91.2175 194.12 91.2993 194.038 91.2993C193.957 91.2993 193.916 91.3402 193.916 91.422C193.589 91.9129 193.016 92.6901 192.198 93.7536C191.38 94.7353 190.48 95.7579 189.498 96.8214C188.598 97.885 187.698 98.9076 186.798 99.8893C185.98 100.871 185.326 101.525 184.835 101.853C184.262 102.262 183.73 102.753 183.24 103.325C182.749 103.816 182.299 104.307 181.89 104.798C181.235 105.698 180.663 106.598 180.172 107.498C179.763 108.397 179.558 109.502 179.558 110.811C179.558 110.811 179.681 110.934 179.926 111.179C180.172 111.424 180.458 111.711 180.785 112.038C181.113 112.365 181.399 112.652 181.644 112.897C181.972 113.142 182.176 113.265 182.258 113.265C182.34 113.429 182.585 113.674 182.994 114.001C183.403 114.247 183.812 114.533 184.221 114.86C184.63 115.106 184.999 115.351 185.326 115.597C185.653 115.842 185.858 116.006 185.939 116.088C185.939 116.251 186.185 116.701 186.676 117.437C187.248 118.092 187.616 118.624 187.78 119.033C188.516 120.342 189.375 121.323 190.357 121.978C191.421 122.632 192.484 123.491 193.548 124.555C193.629 124.718 193.793 125.005 194.038 125.414C194.366 125.741 194.652 126.109 194.897 126.518C195.225 126.927 195.511 127.336 195.756 127.745C196.084 128.073 196.247 128.277 196.247 128.359C196.493 128.686 196.902 129.177 197.474 129.832C198.047 130.486 198.62 131.181 199.192 131.918C199.765 132.572 200.297 133.186 200.788 133.758C201.279 134.331 201.606 134.74 201.769 134.986L206.433 139.649C206.678 139.812 207.128 140.385 207.782 141.367C208.519 142.348 209.296 143.453 210.114 144.68C211.014 145.907 211.791 147.052 212.446 148.116C213.182 149.179 213.673 149.875 213.918 150.202C214 150.284 214.204 150.488 214.532 150.816C214.941 151.061 215.35 151.388 215.759 151.797C216.25 152.125 216.659 152.493 216.986 152.902C217.313 153.229 217.477 153.474 217.477 153.638C218.377 154.62 219.236 155.724 220.054 156.951C220.872 158.179 221.731 159.283 222.631 160.265C222.794 160.346 223.244 160.674 223.981 161.246C224.799 161.737 225.249 161.983 225.331 161.983C225.412 162.064 225.74 162.351 226.312 162.842C226.885 163.251 227.458 163.742 228.03 164.314C228.685 164.805 229.257 165.296 229.748 165.787C230.321 166.278 230.689 166.605 230.853 166.768C231.016 166.932 231.466 167.3 232.203 167.873C232.939 168.364 233.716 168.936 234.534 169.591C235.434 170.164 236.252 170.736 236.988 171.309C237.725 171.8 238.175 172.127 238.338 172.291C238.993 172.863 239.402 173.313 239.565 173.64C239.729 173.968 239.811 174.663 239.811 175.727C239.811 176.872 239.565 177.895 239.075 178.794C238.584 179.613 237.643 180.022 236.252 180.022C232.571 180.022 228.889 179.817 225.208 179.408C221.608 179.081 218.05 178.917 214.532 178.917H207.782C205.492 178.917 203.283 178.917 201.156 178.917C199.029 178.999 196.779 179.204 194.407 179.531C193.261 179.367 192.28 178.917 191.461 178.181C190.725 177.363 190.357 176.258 190.357 174.868C190.357 174.54 190.398 174.254 190.48 174.009C190.48 173.763 190.521 173.559 190.602 173.395C190.93 173.231 191.543 172.904 192.443 172.413C193.343 171.922 193.998 171.595 194.407 171.432C194.652 171.432 195.061 171.391 195.634 171.309C196.288 171.145 196.984 171.023 197.72 170.941C198.456 170.777 199.152 170.654 199.806 170.573C200.461 170.491 200.91 170.45 201.156 170.45C201.156 170.286 201.238 170 201.401 169.591C201.647 169.182 201.769 168.896 201.769 168.732C201.769 168.486 201.729 168.118 201.647 167.627C201.565 167.055 201.483 166.482 201.401 165.909C201.401 165.255 201.36 164.682 201.279 164.191C201.197 163.619 201.156 163.21 201.156 162.964C200.665 162.637 199.929 162.064 198.947 161.246C198.047 160.346 197.065 159.406 196.002 158.424C195.02 157.442 194.079 156.501 193.179 155.602C192.361 154.702 191.789 154.047 191.461 153.638C191.38 153.474 191.175 153.106 190.848 152.534C190.521 151.961 190.153 151.347 189.743 150.693C189.334 150.038 188.925 149.466 188.516 148.975C188.189 148.402 187.944 148.034 187.78 147.871C185.898 145.662 183.935 143.576 181.89 141.612C179.926 139.649 178.127 137.44 176.49 134.986C176.163 134.495 175.672 133.881 175.018 133.145C174.363 132.327 173.627 131.59 172.809 130.936C171.991 130.2 171.173 129.586 170.355 129.095C169.618 128.604 169.005 128.359 168.514 128.359H168.023C167.532 129.341 167.041 130.445 166.551 131.672C166.06 132.818 165.692 133.922 165.446 134.986C165.446 135.64 165.405 136.785 165.323 138.422C165.242 139.976 165.16 141.653 165.078 143.453C164.996 145.253 164.914 146.93 164.833 148.484C164.751 150.038 164.71 151.143 164.71 151.797V156.461C164.71 156.542 164.751 156.788 164.833 157.197C164.914 157.524 164.996 157.892 165.078 158.301C165.16 158.71 165.242 159.119 165.323 159.528C165.405 159.937 165.446 160.183 165.446 160.265C165.446 160.428 165.446 160.837 165.446 161.492C165.528 162.146 165.61 162.842 165.692 163.578C165.773 164.314 165.855 165.01 165.937 165.664C166.019 166.237 166.101 166.605 166.182 166.768C166.428 167.341 167 167.996 167.9 168.732C168.8 169.468 169.741 170.204 170.723 170.941C171.786 171.677 172.686 172.413 173.423 173.15C174.241 173.804 174.65 174.295 174.65 174.622V175.358C173.586 177.24 172.195 178.467 170.477 179.04C168.759 179.694 166.878 180.022 164.833 180.022C163.196 180.022 161.519 179.94 159.801 179.776C158.165 179.613 156.611 179.531 155.138 179.531C154.647 179.694 153.502 179.817 151.702 179.899C149.984 180.063 148.102 180.226 146.057 180.39C144.094 180.553 142.212 180.676 140.412 180.758C138.694 180.84 137.631 180.881 137.222 180.881H135.381C133.745 180.881 132.272 180.553 130.963 179.899C129.654 179.244 129 178.222 129 176.831V175.358C129.654 174.213 130.636 173.313 131.945 172.659C133.254 172.004 134.563 171.473 135.872 171.063C137.263 170.654 138.49 170.286 139.553 169.959C140.699 169.632 141.435 169.223 141.762 168.732C142.662 167.587 143.235 166.319 143.48 164.928C143.726 163.537 143.848 162.105 143.848 160.633C143.848 159.324 143.808 158.138 143.726 157.074C143.644 155.929 143.603 154.783 143.603 153.638C143.685 153.474 143.808 153.106 143.971 152.534C144.135 151.879 144.257 151.184 144.339 150.448C144.421 149.711 144.503 149.016 144.585 148.361C144.667 147.707 144.707 147.298 144.707 147.134C145.28 140.999 145.648 134.863 145.812 128.727C146.057 122.51 146.221 116.333 146.303 110.197C146.384 103.98 146.507 97.8032 146.671 91.6675C146.834 85.4499 147.162 79.2733 147.653 73.1376C147.653 72.974 147.693 72.6468 147.775 72.1559C147.857 71.5832 147.939 70.9697 148.021 70.3152C148.184 69.6607 148.307 69.0881 148.389 68.5972C148.471 68.0245 148.512 67.6564 148.512 67.4928C148.512 67.411 148.552 66.7156 148.634 65.4066C148.716 64.0159 148.798 62.4615 148.88 60.7435C149.043 58.9437 149.166 57.103 149.248 55.2214C149.33 53.3397 149.371 51.8263 149.371 50.6809V49.5765C149.371 49.4129 149.33 49.0038 149.248 48.3494C149.166 47.6131 149.043 46.8359 148.88 46.0178C148.798 45.1997 148.716 44.4225 148.634 43.6862C148.552 42.9499 148.512 42.4591 148.512 42.2137C148.512 41.8864 148.471 41.5183 148.389 41.1092C148.307 40.6184 148.266 40.2093 148.266 39.8821C148.266 38.9822 148.307 38.205 148.389 37.5505C148.471 36.896 148.512 36.2007 148.512 35.4644C148.512 33.0919 148.348 30.7194 148.021 28.347C147.775 25.8927 147.039 23.7247 145.812 21.8431C145.403 21.1068 144.339 20.3705 142.621 19.6343C140.903 18.8162 139.103 18.039 137.222 17.3027C135.422 16.4846 133.786 15.6665 132.313 14.8484C130.841 14.0303 130.104 13.2531 130.104 12.5168C130.104 12.3532 130.145 12.026 130.227 11.5351C130.391 10.9625 130.554 10.5534 130.718 10.308C131.372 9.40808 132.395 8.83542 133.786 8.58999C135.258 8.26275 136.404 8.01732 137.222 7.8537C139.185 7.03561 141.149 6.17661 143.112 5.27671C145.076 4.3768 147.039 3.55871 149.002 2.82242C151.048 2.00433 153.093 1.34986 155.138 0.858999C157.265 0.286333 159.392 0 161.519 0C161.846 0 162.337 0.0409047 162.992 0.122714C163.728 0.204524 164.464 0.368142 165.201 0.613571C165.937 0.858999 166.591 1.18624 167.164 1.59528C167.737 1.92252 168.023 2.37247 168.023 2.94514V35.5871C168.023 35.7507 167.982 36.078 167.9 36.5688C167.9 36.9779 167.819 37.4687 167.655 38.0414C167.573 38.5322 167.41 39.0231 167.164 39.5139C166.919 39.923 166.591 40.2502 166.182 40.4957V53.5034C166.51 53.7488 166.755 54.8123 166.919 56.6939C167.164 58.4937 167.369 60.539 167.532 62.8296C167.696 65.0385 167.819 67.1655 167.9 69.2108C167.982 71.256 168.023 72.565 168.023 73.1376V75.96C168.023 76.0419 167.982 76.3282 167.9 76.819C167.819 77.2281 167.696 77.7189 167.532 78.2916C167.45 78.7825 167.369 79.2733 167.287 79.7642C167.205 80.255 167.164 80.5414 167.164 80.6232C167.082 81.1958 167.041 82.2185 167.041 83.691C167.041 85.0818 167.041 86.5953 167.041 88.2315C167.041 89.7858 167.041 91.2993 167.041 92.7719C167.041 94.1626 167.082 95.1444 167.164 95.717C167.082 95.8806 166.919 96.3306 166.673 97.0669C166.51 97.8032 166.346 98.2531 166.182 98.4167V98.6622C166.182 99.153 166.264 99.7666 166.428 100.503C166.591 101.239 166.755 102.016 166.919 102.834C167.164 103.571 167.369 104.307 167.532 105.043C167.778 105.78 167.941 106.352 168.023 106.761C168.105 107.089 168.187 107.702 168.269 108.602C168.35 109.502 168.432 110.443 168.514 111.424C168.678 112.406 168.8 113.347 168.882 114.247C169.046 115.147 169.209 115.76 169.373 116.088C169.373 116.333 169.455 116.456 169.618 116.456H169.987C170.641 116.456 171.459 115.883 172.441 114.738C173.423 113.592 174.65 111.915 176.122 109.706C177.595 107.498 179.354 104.716 181.399 101.362C183.526 98.0077 186.062 94.1217 189.007 89.704C189.416 88.4769 189.989 87.3316 190.725 86.268C191.461 85.2045 191.83 83.9774 191.83 82.5866Z" fill="#030089"/>
<path d="M0 169.627V166.928C0 166.846 0.0818094 166.519 0.245428 165.946C0.409047 165.373 0.613571 164.801 0.858999 164.228C1.10443 163.574 1.30895 163.001 1.47257 162.51C1.63619 161.937 1.718 161.569 1.718 161.406C1.79981 161.078 1.88162 160.301 1.96343 159.074C2.12704 157.765 2.29066 156.374 2.45428 154.902C2.6179 153.429 2.74062 151.998 2.82242 150.607C2.98604 149.134 3.06785 148.071 3.06785 147.416V124.837C3.06785 124.346 3.10876 123.692 3.19057 122.873C3.35419 122.055 3.55871 121.278 3.80414 120.542C4.13138 119.724 4.49952 119.028 4.90856 118.456C5.39942 117.801 5.97209 117.474 6.62656 117.474C8.09913 117.474 9.20356 117.842 9.93984 118.578C10.7579 119.315 11.3715 120.215 11.7806 121.278C12.2714 122.26 12.5987 123.364 12.7623 124.591C12.9259 125.819 13.0895 126.923 13.2531 127.905C14.4803 134.04 16.6891 139.808 19.8797 145.207C23.1521 150.607 27.2425 155.515 32.1511 159.933C32.5601 160.26 33.0919 160.71 33.7464 161.283C34.4827 161.856 35.178 162.428 35.8325 163.001C36.6506 163.737 37.4687 164.474 38.2868 165.21C38.6959 165.455 39.4321 165.782 40.4957 166.191C41.5592 166.519 42.7045 166.887 43.9317 167.296C45.1588 167.705 46.3041 168.073 47.3677 168.4C48.4312 168.728 49.2084 168.932 49.6992 169.014C49.9446 169.014 50.5582 169.055 51.5399 169.137C52.6035 169.137 53.7079 169.178 54.8532 169.259C55.9985 169.259 57.0621 169.3 58.0438 169.382C59.0255 169.382 59.6391 169.423 59.8845 169.505C60.0481 169.505 60.539 169.587 61.3571 169.75C62.257 169.832 62.7478 169.873 62.8296 169.873H64.4249C65.4884 169.873 66.4702 169.668 67.3701 169.259C68.3518 168.768 69.4153 168.4 70.5606 168.155C71.706 167.828 72.8104 167.623 73.8739 167.541C74.9374 167.378 75.96 166.969 76.9418 166.314C78.3325 165.332 79.6824 164.433 80.9913 163.615C82.3821 162.715 83.6501 161.774 84.7955 160.792C85.9408 159.81 86.9634 158.706 87.8633 157.479C88.845 156.17 89.6631 154.656 90.3176 152.938C90.3176 152.857 90.3585 152.529 90.4403 151.957C90.5221 151.384 90.563 150.811 90.563 150.239C90.6448 149.584 90.7266 149.012 90.8085 148.521C90.8903 147.948 90.9312 147.58 90.9312 147.416C91.013 147.253 91.1766 146.884 91.422 146.312C91.7493 145.739 92.0765 145.166 92.4037 144.594C92.8128 143.939 93.14 143.367 93.3854 142.876C93.7127 142.303 93.8763 141.976 93.8763 141.894C93.8763 141.73 93.9172 141.076 93.999 139.931C94.0808 138.785 94.1217 137.885 94.1217 137.231C94.1217 134.368 93.6718 131.627 92.7719 129.009C91.872 126.391 90.6448 123.978 89.0905 121.769C87.6179 119.478 85.8181 117.433 83.691 115.633C81.6458 113.752 79.396 112.156 76.9418 110.847C76.7781 110.684 76.1646 110.561 75.101 110.479C74.0375 110.316 73.424 110.152 73.2603 109.988C73.0149 109.907 72.4013 109.661 71.4196 109.252C70.5197 108.761 69.538 108.27 68.4745 107.78C67.411 107.207 66.3883 106.716 65.4066 106.307C64.5067 105.816 63.9341 105.489 63.6886 105.325C63.6886 105.243 63.4023 105.121 62.8296 104.957C62.3388 104.794 61.7661 104.63 61.1116 104.466C60.4572 104.221 59.8027 104.016 59.1482 103.853C58.5755 103.607 58.2483 103.485 58.1665 103.485C58.0847 103.403 57.7574 103.239 57.1848 102.994C56.6939 102.666 56.1213 102.38 55.4668 102.135C54.8941 101.889 54.3215 101.685 53.7488 101.521C53.2579 101.276 52.8898 101.153 52.6444 101.153C51.9899 100.989 51.2127 100.867 50.3128 100.785C49.4947 100.703 49.0038 100.662 48.8402 100.662C44.2589 99.5986 39.3912 98.0852 34.2372 96.1217C29.1651 94.0765 24.7064 91.8267 20.8614 89.3725C20.6978 89.2906 20.4114 89.0452 20.0024 88.6362C19.6752 88.2271 19.307 87.8181 18.898 87.409C18.4889 86.9182 18.0799 86.4682 17.6708 86.0592C17.3436 85.6501 17.1391 85.4456 17.0573 85.4456C16.8936 85.4456 16.5255 85.3229 15.9528 85.0775C15.3802 84.832 15.0938 84.6684 15.0938 84.5866C14.9302 84.5866 14.7666 84.4639 14.603 84.2185C14.4394 83.8912 14.2757 83.7276 14.1121 83.7276C14.0303 83.564 13.7849 83.1549 13.3758 82.5005C13.0486 81.846 12.6805 81.1506 12.2714 80.4143C11.8624 79.678 11.4533 78.9827 11.0443 78.3282C10.717 77.6737 10.5125 77.2647 10.4307 77.101C9.12175 74.974 7.73099 72.847 6.25842 70.7199C4.78585 68.5929 3.72233 66.3431 3.06785 63.9706C2.41338 61.3527 1.88162 58.6121 1.47257 55.7488C1.06352 52.8855 0.858999 50.1857 0.858999 47.6497C0.858999 45.768 0.899904 43.7637 0.981713 41.6367C1.06352 39.5096 1.30895 37.5871 1.718 35.8691C1.88162 35.7055 2.29066 35.2555 2.94514 34.5192C3.59961 33.7011 3.92685 33.1694 3.92685 32.924C4.09047 32.6785 4.29499 32.3513 4.54042 31.9422C4.78585 31.4514 5.03128 30.9605 5.27671 30.4697C5.60394 29.9788 5.89028 29.5698 6.13571 29.2425C6.38113 28.8335 6.54475 28.5881 6.62656 28.5063C9.81713 22.8614 13.744 17.9528 18.4071 13.7806C23.0703 9.60828 28.5515 6.58133 34.8508 4.69971C35.0144 4.69971 35.4644 4.6179 36.2007 4.45428C36.937 4.20885 37.4278 4.08614 37.6732 4.08614C38.0005 3.92252 38.614 3.718 39.5139 3.47257C40.4957 3.14533 41.0683 2.98171 41.2319 2.98171C41.3138 2.98171 41.7228 2.98171 42.4591 2.98171C43.1954 2.8999 44.0135 2.859 44.9134 2.859C45.8951 2.77719 46.8768 2.73628 47.8585 2.73628C48.8402 2.65448 49.6174 2.61357 50.1901 2.61357C50.5173 2.61357 51.0491 2.65448 51.7854 2.73628C52.5216 2.81809 53.2988 2.8999 54.1169 2.98171C55.0168 2.98171 55.8349 3.02262 56.5712 3.10443C57.3893 3.18624 58.0029 3.22714 58.4119 3.22714C58.9846 3.39076 59.6391 3.59528 60.3753 3.84071C61.1934 4.00433 61.6843 4.08614 61.8479 4.08614C63.2387 4.16795 64.4249 4.24976 65.4066 4.33157C66.4702 4.33157 67.5337 4.45428 68.5972 4.69971C69.6607 4.86333 70.806 5.19057 72.0332 5.68142C73.3421 6.09047 74.9783 6.74495 76.9418 7.64485C78.987 8.62656 80.8686 9.56737 82.5866 10.4673C84.3864 11.3672 85.6136 11.9807 86.268 12.308C86.4316 12.4716 86.9225 12.8397 87.7406 13.4124C88.5587 13.9033 88.9677 14.2714 88.9677 14.5168H90.6857C91.5856 14.5168 92.3628 14.3123 93.0173 13.9033C93.6718 13.4942 94.2444 13.0034 94.7353 12.4307C95.308 11.858 95.8397 11.2445 96.3306 10.59C96.8214 9.8537 97.3532 9.24013 97.9259 8.74928C98.0895 8.50385 98.4167 8.0539 98.9076 7.39942C99.4802 6.74495 100.094 6.04957 100.748 5.31328C101.485 4.577 102.139 3.92252 102.712 3.34986C103.366 2.69538 103.816 2.24543 104.062 2H105.166C106.066 2 106.72 2.40905 107.129 3.22714C107.538 4.04524 107.784 4.90423 107.866 5.80414C107.866 5.88595 107.907 6.3359 107.988 7.15399C108.07 7.89028 108.152 8.74928 108.234 9.73099C108.316 10.7127 108.397 11.7353 108.479 12.7988C108.561 13.7806 108.643 14.5577 108.725 15.1304V15.9894V16.2348C108.479 17.9528 108.234 20.3662 107.988 23.475C107.743 26.5837 107.457 29.6925 107.129 32.8012C106.884 35.91 106.639 38.6915 106.393 41.1458C106.23 43.5183 106.107 44.909 106.025 45.3181C105.78 47.4451 105.166 49.4086 104.184 51.2084C103.284 52.9264 101.607 53.7854 99.153 53.7854C98.6622 53.7854 97.885 53.7445 96.8214 53.6626C95.8397 53.5808 95.1444 53.2536 94.7353 52.6809C93.7536 51.4538 92.9355 50.1448 92.281 48.7541C91.7084 47.3633 91.1357 46.0135 90.563 44.7045C89.9904 43.3138 89.3768 41.923 88.7223 40.5322C88.0678 39.1415 87.2497 37.8325 86.268 36.6054C85.1227 35.2146 83.9365 33.7421 82.7093 32.1877C81.564 30.6333 80.3368 29.1198 79.0279 27.6473C77.7189 26.0929 76.3691 24.6203 74.9783 23.2295C73.5876 21.8388 72.115 20.6116 70.5606 19.5481C70.397 19.5481 70.1107 19.5072 69.7016 19.4254C69.3744 19.2618 69.0062 19.0982 68.5972 18.9345C68.1881 18.7709 67.7791 18.6073 67.3701 18.4437C67.0428 18.2801 66.8383 18.1574 66.7565 18.0756C66.5929 17.9937 66.3065 17.7892 65.8975 17.462C65.4884 17.0529 64.9976 16.6439 64.4249 16.2348C63.9341 15.744 63.4432 15.3349 62.9523 15.0077C62.4615 14.6805 62.0933 14.5168 61.8479 14.5168C61.8479 14.435 61.6434 14.3532 61.2343 14.2714C60.8253 14.1078 60.3344 13.9851 59.7618 13.9033C59.1891 13.8215 58.5755 13.7397 57.9211 13.6578C57.3484 13.576 56.8984 13.4942 56.5712 13.4124C56.1622 13.3306 55.5077 13.2488 54.6078 13.167C53.7897 13.0852 52.9307 13.0034 52.0308 12.9216C51.1309 12.7579 50.2719 12.6352 49.4538 12.5534C48.7175 12.4716 48.1857 12.3898 47.8585 12.308H46.5087C41.6819 12.308 37.6323 13.2897 34.36 15.2531C31.1694 17.1347 28.3061 19.9163 25.77 23.5977C24.7064 25.0703 23.7656 26.2974 22.9475 27.2791C22.1294 28.179 21.4341 29.0789 20.8614 29.9788C20.3705 30.7969 20.0024 31.7786 19.757 32.924C19.5115 33.9875 19.3888 35.4191 19.3888 37.219C19.3888 37.628 19.3888 38.078 19.3888 38.5688C19.3888 38.9779 19.4297 39.3869 19.5115 39.796C19.5934 40.2868 19.6752 40.7777 19.757 41.2685C19.8388 41.6776 20.1251 42.4139 20.616 43.4774C21.1068 44.5409 21.6795 45.6862 22.334 46.9134C22.9884 48.0587 23.602 49.204 24.1747 50.3494C24.8292 51.4129 25.3609 52.1901 25.77 52.6809C25.77 52.8446 25.9745 53.1718 26.3835 53.6626C26.8744 54.1535 27.4062 54.7262 27.9788 55.3806C28.5515 55.9533 29.0832 56.526 29.5741 57.0986C30.1468 57.5895 30.5558 57.9576 30.8012 58.2031C34.0736 61.1482 37.6323 63.5616 41.4774 65.4432C45.4042 67.243 49.372 68.7974 53.3806 70.1063C57.4711 71.3335 61.5616 72.4788 65.6521 73.5423C69.8243 74.524 73.8739 75.7103 77.8008 77.101C78.4552 78.1646 79.3551 78.7781 80.5005 78.9418C81.6458 79.0236 82.7911 79.3508 83.9365 79.9235C84.5909 80.4143 85.4499 80.9461 86.5135 81.5188C87.577 82.0914 88.6405 82.705 89.704 83.3595C90.8494 84.0139 91.9538 84.7093 93.0173 85.4456C94.1626 86.1001 95.1034 86.7955 95.8397 87.5317C96.0852 87.6954 96.4124 87.9817 96.8214 88.3907C97.2305 88.7998 97.6804 89.2497 98.1713 89.7406C98.6622 90.1496 99.1121 90.5587 99.5212 90.9677C99.9302 91.3768 100.257 91.704 100.503 91.9495C100.503 92.1949 100.789 92.6857 101.362 93.422C101.935 94.1583 102.262 94.6083 102.344 94.7719C104.225 96.8989 106.148 98.9851 108.111 101.03C110.156 102.994 111.711 105.366 112.774 108.148C112.938 108.802 113.142 109.579 113.388 110.479C113.715 111.379 114.042 112.279 114.37 113.179C114.697 114.161 115.106 115.224 115.597 116.37C115.924 118.088 116.128 119.765 116.21 121.401C116.292 122.955 116.333 124.551 116.333 126.187C116.333 128.314 116.251 130.441 116.088 132.568C115.924 134.613 115.76 136.699 115.597 138.826C114.86 140.626 114.165 142.303 113.511 143.858C112.856 145.412 112.202 146.925 111.547 148.398C110.893 149.871 110.197 151.384 109.461 152.938C108.725 154.411 107.907 155.965 107.007 157.602C106.843 157.683 106.516 157.888 106.025 158.215C105.616 158.461 105.33 158.665 105.166 158.829C103.857 159.974 102.712 161.038 101.73 162.019C100.748 163.001 99.7666 163.983 98.7849 164.964C97.885 165.946 96.8623 166.928 95.717 167.909C94.6535 168.891 93.3445 169.914 91.7902 170.977C89.1723 172.777 86.268 174.291 83.0775 175.518C79.8869 176.663 76.6145 177.686 73.2603 178.586C71.6241 178.913 70.3152 179.076 69.3335 179.076C68.4336 179.076 67.2882 179.404 65.8975 180.058C65.4884 180.058 64.7931 180.058 63.8113 180.058C62.9114 180.14 61.9706 180.181 60.9889 180.181C60.0072 180.181 59.1073 180.181 58.2892 180.181C57.4711 180.263 56.8984 180.304 56.5712 180.304C52.6444 180.304 48.7584 180.222 44.9134 180.058C41.1501 179.976 37.4278 179.486 33.7464 178.586C32.192 178.013 30.5149 177.522 28.7151 177.113C26.9971 176.622 25.2382 176.05 23.4384 175.395C23.193 175.313 22.9475 175.191 22.7021 175.027C22.2113 174.863 21.884 174.7 21.7204 174.536C21.6386 174.536 21.3932 174.495 20.9841 174.413C20.5751 174.332 20.1251 174.291 19.6343 174.291C19.1434 174.209 18.6525 174.127 18.1617 174.045C17.6708 173.963 17.3027 173.922 17.0573 173.922H16.5664H15.7074C15.3802 174.086 14.7257 174.413 13.744 174.904C12.7623 175.395 11.6578 175.968 10.4307 176.622C9.28537 177.195 8.14004 177.727 6.99471 178.217C5.93118 178.708 5.15399 179.036 4.66314 179.199C4.3359 179.445 3.80414 179.649 3.06785 179.813C2.33157 179.976 1.88162 180.058 1.718 180.058C1.39076 180.058 1.10443 179.608 0.858999 178.708C0.69538 177.808 0.531761 176.786 0.368142 175.64C0.286333 174.413 0.204524 173.227 0.122714 172.082C0.0409047 170.936 0 170.118 0 169.627Z" fill="#030089"/>
</svg>
