<svg width="385" height="400" viewBox="0 0 385 400" fill="none" xmlns="http://www.w3.org/2000/svg">
<path d="M80.8844 252.768C80.8844 275.893 62.7 294.786 40.4422 294.786C18.1844 294.786 0 275.893 0 252.768C0 229.643 18.1844 210.75 40.4422 210.75H80.8844V252.768ZM101.269 252.768C101.269 229.643 119.453 210.75 141.711 210.75C163.969 210.75 182.153 229.643 182.153 252.768V357.982C182.153 381.107 163.969 400 141.711 400C119.453 400 101.269 381.107 101.269 357.982V252.768ZM141.711 84.0357C119.453 84.0357 101.269 65.1429 101.269 42.0179C101.269 18.8929 119.453 0 141.711 0C163.969 0 182.153 18.8929 182.153 42.0179V84.0357H141.711ZM141.711 105.214C163.969 105.214 182.153 124.107 182.153 147.232C182.153 170.357 163.969 189.25 141.711 189.25H40.4422C18.1844 189.25 0 170.357 0 147.232C0 124.107 18.1844 105.214 40.4422 105.214H141.711ZM304.116 147.232C304.116 124.107 322.3 105.214 344.558 105.214C366.816 105.214 385 124.107 385 147.232C385 170.357 366.816 189.25 344.558 189.25H304.116V147.232ZM283.731 147.232C283.731 170.357 265.547 189.25 243.289 189.25C221.031 189.25 202.847 170.357 202.847 147.232V42.0179C202.847 18.8929 221.031 0 243.289 0C265.547 0 283.731 18.8929 283.731 42.0179V147.232ZM243.289 315.964C265.547 315.964 283.731 334.857 283.731 357.982C283.731 381.107 265.547 400 243.289 400C221.031 400 202.847 381.107 202.847 357.982V315.964H243.289ZM243.289 294.786C221.031 294.786 202.847 275.893 202.847 252.768C202.847 229.643 221.031 210.75 243.289 210.75H344.558C366.816 210.75 385 229.643 385 252.768C385 275.893 366.816 294.786 344.558 294.786H243.289Z" fill="url(#paint0_linear_1016_551)"/>
<defs>
<linearGradient id="paint0_linear_1016_551" x1="139" y1="64" x2="327.5" y2="400" gradientUnits="userSpaceOnUse">
<stop stop-color="#36C5F0"/>
<stop offset="0.325" stop-color="#2EB67D"/>
<stop offset="0.63" stop-color="#E01E5A"/>
<stop offset="1" stop-color="#ECB22E"/>
</linearGradient>
</defs>
</svg>
