<svg width="1061" height="1026" viewBox="0 0 1061 1026" fill="none" xmlns="http://www.w3.org/2000/svg">
<path d="M181.408 842.651C163.27 828.308 145.389 813.194 127.806 797.36C28.8795 708.289 -11.9461 622.423 2.99761 534.872C15.9386 459.013 68.5241 393.481 114.916 335.676C145.882 297.084 175.133 260.639 187.396 227.061C228.211 115.293 211.573 70.0428 201.631 43.01C195.88 27.3513 192.069 17.0149 203.757 3.64746C215.209 -9.45283 278.804 12.5865 403.89 73.0019C457.985 99.1306 486.681 136.263 509.739 166.101C521.293 181.051 531.287 193.977 542.215 202.577C572.318 226.26 583.112 229.466 606.776 236.493C626.505 242.36 656.331 251.217 714.494 277.418C765.61 300.443 833.982 350.882 892.925 409.068C926.469 442.173 955.976 476.552 980.625 511.271C1008.22 550.13 1029.05 588.526 1042.55 625.413C1067.54 693.729 1067.15 755.707 1041.38 809.618C1015.99 862.728 978.263 907.762 929.252 943.467C880.569 978.936 823.228 1003.4 758.842 1016.18C665.123 1034.79 560.712 1026.98 456.927 993.598C401.6 975.802 346.303 950.752 292.577 919.147C254.833 896.933 217.612 871.338 181.398 842.693L181.408 842.651ZM447.858 103.261C435.061 93.1404 420.282 83.5541 402.842 75.1288C345.954 47.6541 302.591 28.4815 270.259 16.532C223.651 -0.698752 209.334 0.863008 205.534 5.20922C194.77 17.5184 197.995 26.2827 203.85 42.1983C213.904 69.5393 230.728 115.293 189.614 227.883C177.218 261.831 147.854 298.419 116.765 337.165C70.5576 394.745 18.1776 460.02 5.33931 535.273C-9.45036 621.96 31.1288 707.117 129.398 795.603C181.963 842.949 237.28 883.812 293.789 917.061C347.361 948.584 402.493 973.562 457.657 991.306C561.071 1024.57 665.061 1032.35 758.39 1013.83C822.438 1001.12 879.46 976.788 927.865 941.525C976.558 906.057 1014.04 861.321 1039.25 808.57C1064.73 755.255 1065.1 693.904 1040.34 626.204C1026.93 589.523 1006.19 551.311 978.715 512.627C954.138 478.032 924.723 443.745 891.282 410.743C832.523 352.752 764.419 302.488 713.538 279.575C655.52 253.437 625.786 244.611 606.118 238.764C582.157 231.644 571.219 228.397 540.766 204.436C540.715 204.395 540.664 204.354 540.612 204.313C529.489 195.518 519.475 182.551 507.88 167.55C492.423 147.555 474.418 124.252 447.879 103.261H447.858Z" fill="url(#paint0_linear_784_3045)"/>
<path d="M217.441 816.06C202.775 804.46 188.293 792.315 174.017 779.636C83.9847 700.059 45.3673 623.08 55.9563 544.304C65.1587 475.874 110.052 415.952 149.665 363.088C177.262 326.264 203.319 291.484 213.384 259.026C246.825 156.083 231.214 112.231 221.888 86.0303C216.25 70.197 212.521 59.7373 223.696 46.6062C229.879 39.0851 250.841 40.7393 286.008 51.5278C317.641 61.2271 359.525 77.9749 407.118 99.932C456.951 122.691 483.984 155.436 505.706 181.75C516.213 194.47 525.282 205.454 535.142 213.273C566.364 238.117 576.08 241.775 604.869 252.666C624.208 259.982 650.696 270.01 697.201 291.402C744.836 313.307 808.566 360.448 863.513 414.411C894.941 445.276 922.559 477.251 945.606 509.442C971.468 545.557 990.961 581.19 1003.54 615.333C1026.25 676.94 1026.33 732.886 1003.79 781.609C980.999 830.568 946.88 872.202 902.367 905.358C858.142 938.309 805.946 961.191 747.229 973.387C662.394 990.998 567.761 984.72 473.549 955.221C423.315 939.491 373.061 917.184 324.173 888.898C287.928 867.927 252.186 843.525 217.451 816.04L217.441 816.06ZM452.761 130.376C439.748 120.081 424.527 110.34 406.184 101.966C305.511 55.5144 236.236 34.8519 225.39 48.0446C215.048 60.2099 218.406 69.6524 223.973 85.2905C233.402 111.758 249.167 156.053 215.5 259.704C205.332 292.511 179.152 327.445 151.442 364.424C111.993 417.072 67.2848 476.748 58.1542 544.602C47.6679 622.587 86.0491 698.918 175.486 777.972C223.46 820.561 273.857 857.231 325.282 886.987C374.027 915.191 424.127 937.436 474.206 953.115C568.059 982.501 662.312 988.758 746.767 971.229C805.156 959.105 857.053 936.357 901.022 903.601C945.236 870.671 979.129 829.315 1001.76 780.695C1024.04 732.527 1023.93 677.156 1001.44 616.124C984.809 571.018 947.116 499.691 861.932 416.014C807.158 362.215 743.676 315.239 696.246 293.436C649.813 272.075 623.366 262.067 604.057 254.762C575.813 244.076 565.234 240.059 533.734 215.03C523.69 207.067 514.549 195.991 503.97 183.178C490.403 166.749 474.75 147.792 452.74 130.376H452.761Z" fill="url(#paint1_linear_784_3045)"/>
<path d="M253.904 789.922C242.576 780.962 231.36 771.633 220.207 761.913C138.997 691.757 102.639 623.615 109.038 553.572C114.615 492.54 151.928 438.248 184.835 390.358C208.878 355.362 231.597 322.308 239.351 290.991C265.521 196.987 250.895 154.594 242.165 129.267C236.609 113.145 232.932 102.501 243.593 89.5649C257.581 71.4609 339.828 96.2024 410.315 126.862C456.153 146.312 481.635 174.814 502.104 197.717C511.388 208.105 519.41 217.074 528.037 223.979C563.358 252.389 571.174 255.892 614.557 275.404C630.897 282.751 651.223 291.895 679.857 305.396C709.149 319.195 745.568 343.402 782.419 373.569C823.892 407.517 862.242 446.037 893.321 484.968C930.1 531.039 955.613 576.002 969.149 618.621C984.915 668.269 983.908 713.704 966.16 753.652C945.968 798.47 915.444 836.713 875.44 867.332C835.662 897.776 788.602 919.096 735.565 930.696C659.624 947.3 574.748 942.543 490.108 916.928C408.682 892.279 329.373 849.618 253.884 789.911L253.904 789.922ZM458.526 157.81C445.153 147.227 429.224 137.158 409.504 128.794C325.562 92.2775 256.482 76.3311 245.236 90.8801C235.294 102.932 238.622 112.591 244.147 128.599C252.96 154.152 267.718 196.926 241.385 291.535C233.538 323.202 210.727 356.4 186.57 391.56C153.797 439.245 116.658 493.3 111.133 553.788C104.796 623.101 140.928 690.678 221.593 760.361C306.839 834.699 397.385 886.71 490.745 914.965C575.035 940.477 659.552 945.224 735.144 928.692C787.883 917.164 834.666 895.967 874.197 865.718C913.924 835.305 944.233 797.33 964.281 752.84C981.813 713.375 982.789 668.443 967.188 619.289C953.733 576.916 928.344 532.17 891.719 486.303C860.733 447.496 822.485 409.078 781.125 375.223C744.398 345.159 708.132 321.044 678.994 307.317C650.381 293.816 630.055 284.682 613.725 277.346C570.136 257.742 562.29 254.207 526.753 225.644C517.992 218.626 509.92 209.605 500.574 199.145C489.07 186.271 475.965 171.619 458.536 157.83L458.526 157.81Z" fill="url(#paint2_linear_784_3045)"/>
<path d="M289.724 763.341C281.918 757.166 274.154 750.785 266.43 744.199C193.981 683.383 159.934 623.995 162.338 562.644C164.443 508.99 192.985 462.445 220.592 417.442C240.877 384.378 260.031 353.143 265.372 322.966C284.404 238.045 271.257 198.796 262.558 172.821C256.817 155.683 253.356 145.336 263.544 132.544C275.828 115.632 341.734 124.961 413.546 153.813C455.923 170.067 480.038 194.583 499.419 214.28C506.834 221.821 513.839 228.931 520.956 234.696L524.551 237.634C565.911 271.366 569.29 274.12 662.557 319.4C688.778 332.1 722.773 354.838 755.845 381.737C793.877 412.685 829.126 447.608 857.77 482.738C891.807 524.474 915.666 565.141 928.668 603.62C943.838 648.51 943.807 689.578 928.576 725.694C910.992 766.382 884.073 801.244 848.568 829.346C813.247 857.293 771.312 877.051 723.934 888.066C656.867 903.653 581.758 900.406 506.711 878.654C432.064 857.026 359.194 818.28 289.724 763.33V763.341ZM465.875 185.819C451.866 174.742 434.827 164.046 412.848 155.621C342.987 127.561 276.711 117.738 265.095 133.726C255.533 145.727 258.871 155.693 264.407 172.205C272.644 196.792 286.427 237.942 267.283 323.346C261.89 353.852 242.633 385.231 222.256 418.459C194.782 463.257 166.374 509.575 164.289 562.716C161.906 623.419 195.738 682.304 267.693 742.709C343.891 807.697 424.495 852.813 507.255 876.794C581.984 898.454 656.764 901.69 723.503 886.175C770.593 875.222 812.271 855.598 847.376 827.825C882.635 799.929 909.359 765.314 926.809 724.934C941.845 689.281 941.866 648.665 926.85 604.237C913.92 565.973 890.184 525.512 856.291 483.961C827.729 448.944 792.583 414.113 754.643 383.237C721.695 356.42 687.823 333.785 661.735 321.147C568.273 275.764 564.873 273 523.349 239.134L519.754 236.206C512.544 230.37 505.499 223.219 498.053 215.636C488.881 206.306 478.641 195.898 465.885 185.808L465.875 185.819Z" fill="url(#paint3_linear_784_3045)"/>
<path d="M325.407 736.822C321.134 733.441 316.882 729.999 312.63 726.475C169.705 610.833 216.076 522.326 257.005 444.238C273.253 413.229 288.597 383.946 291.37 354.941C303.479 279.319 291.185 241.703 283.051 216.817C277.227 199.001 273.715 188.243 283.472 175.513C289.213 167.119 306.417 162.618 330.645 163.204C356.373 163.831 386.959 170.067 416.764 180.753C456.891 194.018 479.137 214.259 498.764 232.117C503.972 236.853 508.891 241.333 513.872 245.412C521.349 251.597 527.748 257.135 533.397 262.016C559.474 284.569 575.219 298.183 645.244 333.395C689.941 355.804 764.372 411.4 822.196 480.488C853.49 517.888 875.685 554.26 888.164 588.598C902.748 628.731 903.683 665.443 890.958 697.716C875.983 734.284 852.669 765.796 821.662 791.381C790.788 816.852 753.968 835.069 712.249 845.508C654.056 860.067 588.704 858.3 523.239 840.412C455.381 821.866 388.889 787.034 325.397 736.811L325.407 736.822ZM475.82 214.608C460.702 202.649 442.235 191.059 416.178 182.448C352.141 159.495 295.622 160.923 284.93 176.561C275.718 188.593 279.117 199.001 284.756 216.252C292.942 241.302 305.318 279.165 293.147 355.156C290.353 384.46 274.927 413.897 258.597 445.06C237.871 484.608 216.446 525.512 217.627 571.368C218.973 623.543 250.421 673.817 313.781 725.078C380.919 780.726 451.55 818.948 523.732 838.675C588.899 856.492 653.943 858.249 711.828 843.761C753.29 833.384 789.864 815.3 820.532 789.993C851.313 764.594 874.453 733.328 889.304 697.048C905.634 655.631 907.011 584.622 820.83 481.638C763.171 412.736 688.976 357.324 644.443 334.997C574.212 299.683 558.406 286.007 532.226 263.372C526.587 258.492 520.199 252.974 512.732 246.799C507.71 242.679 502.78 238.189 497.552 233.442C490.825 227.318 483.78 220.917 475.81 214.608H475.82Z" fill="url(#paint4_linear_784_3045)"/>
<path d="M354.185 705.124C301.938 663.799 274.238 622.762 269.545 579.813C265.282 540.749 280.01 505.075 294.256 470.572C306.128 441.824 317.344 414.678 317.375 386.916C322.87 320.942 311.366 285.206 303.746 261.564C297.676 242.699 294.009 231.305 303.407 218.482C315.033 200.378 367.372 191.891 419.968 207.693C461.656 218.492 483.389 236.617 504.402 254.146L506.796 256.139C516.881 264.636 524.882 272.332 532.616 279.771C553.352 299.704 572.928 318.537 627.947 347.42C668.064 368.401 734.844 418.305 786.649 478.279C830.309 528.83 877.328 603.086 853.377 669.779C828.697 734.695 773.01 783.294 700.581 803.114C651.252 816.615 595.646 816.317 539.764 802.251C478.675 786.87 418.499 755.974 360.891 710.405C360.203 709.861 359.525 709.327 358.847 708.782C357.276 707.57 355.715 706.357 354.185 705.145V705.124ZM490.619 244.98C473.077 231.099 452.639 217.855 419.526 209.276C363.305 192.384 314.797 203.799 304.773 219.407C295.848 231.592 299.411 242.679 305.327 261.04C312.979 284.816 324.554 320.736 319.028 386.977C318.998 414.996 307.72 442.296 295.786 471.189C281.623 505.496 266.967 540.965 271.188 579.618C275.964 623.358 304.968 665.155 359.864 707.446C360.542 707.991 361.23 708.535 361.908 709.07C419.352 754.505 479.301 785.298 540.165 800.618C595.77 814.622 651.087 814.92 700.14 801.491C735.984 791.679 767.474 775.116 793.715 752.254C820.028 729.331 839.573 701.384 851.816 669.183C875.49 603.26 828.758 529.56 785.386 479.337C733.724 419.517 667.15 369.777 627.167 348.858C571.942 319.863 552.284 300.957 531.465 280.942C523.752 273.524 515.772 265.848 505.727 257.382L503.345 255.399C499.175 251.926 494.984 248.422 490.609 244.97L490.619 244.98Z" fill="url(#paint5_linear_784_3045)"/>
<path d="M390.896 680.362C352.679 650.144 330.587 619.679 323.51 587.602C316.465 555.668 324.64 525.388 332.559 496.105C339.317 471.086 346.311 445.225 343.425 418.89C342.839 363.16 332.035 329.726 324.886 307.595C318.241 287.014 314.226 274.582 323.366 261.44C333.914 243.973 378.078 224.801 423.186 234.623C456.34 239.822 479.233 249.46 499.723 266.845C510.538 276.164 518.991 285.35 527.947 295.08C546.875 315.65 566.451 336.919 610.645 361.403C646.377 381.1 705.566 425.374 751.086 476.028C790.535 519.922 833.785 584.303 815.78 641.791C796.338 698.733 750.089 742.134 688.887 760.885C648.4 773.287 602.532 774.407 556.232 764.132C505.023 752.758 454.163 728.17 405.069 691.037C400.119 687.482 395.384 683.917 390.885 680.352L390.896 680.362ZM495.06 264.975C475.721 249.676 453.824 240.963 422.909 236.113C378.386 226.424 334.972 245.134 324.63 262.273C315.879 274.839 319.587 286.316 326.314 307.132C333.493 329.346 344.339 362.914 344.924 418.798C347.841 445.338 340.806 471.353 334.017 496.496C326.15 525.604 318.015 555.699 324.989 587.273C332.815 622.752 359.314 656.288 405.983 689.825C454.923 726.835 505.587 751.33 556.581 762.663C602.624 772.886 648.226 771.776 688.466 759.447C749.206 740.839 795.095 697.788 814.373 641.328C832.151 584.54 789.179 520.641 749.987 477.045C704.58 426.525 645.555 382.384 609.937 362.739C565.527 338.131 545.869 316.77 526.858 296.118C517.933 286.418 509.501 277.253 498.757 268.006C497.535 266.968 496.313 265.961 495.07 264.985L495.06 264.975Z" fill="url(#paint6_linear_784_3045)"/>
<path d="M426.584 655.744C365.022 607.052 368.35 564.658 371.842 520.045C373.567 498.047 375.344 475.299 369.448 450.855C363.789 406.52 354.043 377.473 346.925 356.256C338.719 331.782 334.189 318.311 343.3 304.41C348.825 294.669 361.078 283.398 375.262 275.024C392.403 264.903 410.551 260.126 426.368 261.564C453.452 261.554 475.575 262.725 492.644 277.562C503.336 287.025 512.251 298.008 521.7 309.65C538.749 330.651 558.068 354.458 593.348 375.418C617.822 389.875 671.096 426.864 715.527 473.799C738.635 498.222 755.859 521.7 766.705 543.585C779.512 569.436 783.385 593.068 778.188 613.823C764.066 662.936 727.256 701.281 677.197 719.046C645.512 730.297 609.359 732.774 572.642 726.208C532.032 718.954 491.206 701.158 451.295 673.334C442.072 667.375 433.876 661.518 426.584 655.754V655.744ZM489.83 276.997C473.377 263.979 452.147 262.92 426.307 262.931C390.133 259.643 353.817 288.648 344.47 305.119C335.699 318.496 340.146 331.751 348.219 355.814C355.357 377.083 365.125 406.212 370.794 450.599C376.73 475.176 374.943 498.037 373.207 520.138C371.236 545.342 369.366 569.148 378.754 593.911C389.332 621.817 412.626 646.682 452.065 672.173C491.833 699.905 532.474 717.618 572.889 724.841C609.37 731.366 645.286 728.91 676.755 717.742C726.393 700.12 762.884 662.104 776.883 613.453C781.988 593.047 778.157 569.734 765.493 544.181C754.709 522.419 737.567 499.054 714.551 474.734C670.223 427.912 617.083 391.015 592.67 376.59C557.185 355.506 537.784 331.597 520.663 310.503C511.255 298.913 502.371 287.96 491.761 278.589C491.135 278.045 490.487 277.51 489.851 277.007L489.83 276.997Z" fill="url(#paint7_linear_784_3045)"/>
<path d="M460.217 631.629C423.027 602.223 417.522 573.864 410.908 539.865C407.457 522.121 403.893 503.76 395.481 482.81C387.059 452.53 378.586 429.823 371.777 411.585C360.099 380.288 353.67 363.047 363.231 347.378C372.947 329.151 403.307 291.915 429.446 288.535C431.213 288.052 432.979 287.549 434.756 287.055C453.243 281.846 472.377 276.472 485.554 288.278C495.733 297.577 505.007 310.533 514.826 324.25C530.714 346.443 548.719 371.596 576.038 389.423C605.669 408.626 752.878 508.373 740.584 585.824C731.956 627.365 704.626 660.912 665.588 677.896C642.294 688.027 616.515 691.633 588.949 688.613C558.907 685.325 528.147 674.218 497.52 655.61C482.391 647.462 470.169 639.51 460.206 631.629H460.217ZM483.521 288.145C470.867 278.137 452.688 283.254 435.085 288.216C433.298 288.72 431.51 289.223 429.734 289.706L429.651 289.727C403.944 293.015 373.933 329.891 364.3 347.974C355.025 363.16 361.383 380.206 372.927 411.143C379.736 429.412 388.22 452.14 396.642 482.409C405.074 503.411 408.658 521.823 412.12 539.619C420.439 582.403 427.012 616.196 498.136 654.542C528.64 673.077 559.236 684.123 589.092 687.39C616.443 690.38 642.017 686.804 665.115 676.766C703.784 659.946 730.857 626.718 739.392 585.598C744.291 554.733 724.007 516.644 679.104 472.422C639.583 433.491 593.396 402.122 575.381 390.44C547.876 372.48 529.8 347.235 513.84 324.949C504.062 311.283 494.818 298.378 484.743 289.172C484.342 288.812 483.942 288.473 483.531 288.145H483.521Z" fill="url(#paint8_linear_784_3045)"/>
<path d="M487.469 608.562C465.48 591.177 453.453 570.124 436.815 541.016C432.09 532.745 427.202 524.196 421.532 514.744C417.979 507.325 414.63 500.39 411.477 493.855C384.055 437.046 371.535 411.123 383.171 390.327C391.141 374.391 415.411 325.832 432.532 315.558C447.897 302.18 467 288.247 478.472 298.974C487.952 308.016 497.658 323.377 507.928 339.631C522.42 362.564 538.833 388.549 558.727 403.417C562.527 406.232 567.118 409.53 572.438 413.352C594.232 429.001 627.18 452.664 654.377 478.505C686.925 509.421 703.265 536.105 702.967 557.815C700.369 591.804 682.251 621.878 654.49 638.297C623.709 656.504 584.383 656.37 543.763 637.907C518.764 628.844 501.17 619.423 487.449 608.572L487.469 608.562ZM476.87 299.015C465.891 290.333 447.835 303.67 433.21 316.41L433.128 316.472C416.284 326.531 392.086 374.935 384.127 390.841C372.747 411.164 385.185 436.933 412.443 493.393C415.596 499.927 418.944 506.853 422.477 514.24C428.126 523.662 433.015 532.221 437.739 540.492C464.628 587.53 479.448 613.443 544.173 636.91C584.496 655.24 623.473 655.405 653.946 637.373C681.409 621.128 699.331 591.373 701.899 557.764C702.197 536.403 685.959 509.997 653.648 479.285C626.503 453.496 593.596 429.864 571.822 414.226C566.502 410.404 561.9 407.105 558.09 404.28C538.032 389.289 521.558 363.222 507.025 340.207C496.785 324.003 487.12 308.704 477.733 299.755C477.445 299.488 477.158 299.241 476.86 299.005L476.87 299.015Z" fill="url(#paint9_linear_784_3045)"/>
<path d="M485.849 584.355C473.063 574.245 460.378 561.74 447.571 546.657C404.804 490.238 391.504 456.342 403.11 433.296C408.163 422.507 415.691 400.108 422.336 380.35C427.595 364.702 432.566 349.927 435.688 342.704C437.763 336.097 442.169 328.062 447.468 321.25C453.271 313.79 459.115 309.023 463.922 307.831C466.89 307.091 469.406 307.728 471.388 309.691C480.201 318.568 490.687 337.422 501.789 357.376C514.987 381.09 528.627 405.616 541.434 417.432C548.428 423.833 560.671 432.464 574.844 442.471C610.021 467.285 658.211 501.284 665.349 529.765C670.248 557.209 662.915 585.064 646.225 602.49C632.206 617.131 612.794 623.255 590.096 620.193C561.883 619.68 538.877 614.717 517.75 604.555C506.976 599.377 496.387 592.667 485.86 584.345L485.849 584.355ZM470.125 309.824C468.492 308.53 466.479 308.17 464.137 308.746C454.319 311.17 440.772 329.624 436.551 343.032C433.428 350.266 428.468 365.031 423.209 380.658C416.554 400.437 409.015 422.867 403.931 433.707C392.51 456.404 405.78 490.002 448.28 546.082C471.512 573.443 494.364 592.308 518.12 603.723C539.123 613.823 562.006 618.765 590.137 619.269C612.578 622.289 631.713 616.268 645.527 601.853C662.021 584.643 669.252 557.096 664.414 529.971C657.369 501.859 609.353 467.983 574.29 443.242C560.085 433.224 547.833 424.573 540.787 418.13C527.866 406.212 514.186 381.624 500.958 357.838C489.886 337.936 479.43 319.144 470.711 310.359C470.515 310.163 470.32 309.989 470.115 309.824H470.125Z" fill="url(#paint10_linear_784_3045)"/>
<path d="M478.358 582.433C476.756 581.17 475.175 579.875 473.624 578.55C448.255 556.993 431.555 536.362 423.976 517.24C418.029 502.229 417.721 488.44 423.062 476.265C431.812 456.321 441.354 392.659 439.012 369.818C438.139 361.311 440.398 350.153 445.205 339.2C449.56 329.295 455.167 321.64 459.491 319.688C461.412 318.825 463.086 319.082 464.319 320.417C472.956 329.798 486.174 357.119 498.951 383.535C508.862 404.023 518.219 423.37 524.165 431.487C530.903 440.694 551.074 452.201 572.437 464.377C594.437 476.922 617.186 489.889 627.662 501.705C638.621 514.065 647.166 533.156 649.949 551.527C653.205 572.991 648.46 591.044 636.587 602.356C622.691 615.59 596.604 621.724 566.809 618.765C535.288 615.641 504.107 602.798 478.369 582.433H478.358ZM463.312 320.561C462.367 319.811 461.217 319.77 459.8 320.407C451.419 324.188 437.862 351.005 439.782 369.736C442.134 392.659 432.562 456.558 423.77 476.573C418.512 488.553 418.82 502.136 424.695 516.942C432.223 535.951 448.851 556.469 474.117 577.943C500.584 600.445 533.532 614.665 566.86 617.974C595.998 620.861 622.496 614.655 636.023 601.771C647.7 590.643 652.363 572.837 649.148 551.64C646.386 533.413 637.912 514.487 627.046 502.229C616.652 490.505 593.964 477.57 572.016 465.055C550.581 452.838 530.338 441.3 523.498 431.95C517.51 423.771 508.133 404.393 498.212 383.874C485.455 357.509 472.268 330.25 463.713 320.952C463.579 320.808 463.446 320.674 463.302 320.561H463.312Z" fill="url(#paint11_linear_784_3045)"/>
<defs>
<linearGradient id="paint0_linear_784_3045" x1="530.507" y1="-6.98076e-05" x2="530.507" y2="1026.01" gradientUnits="userSpaceOnUse">
<stop stop-color="#E9CBA3"/>
<stop offset="0.15" stop-color="#EEDEBC"/>
<stop offset="0.39" stop-color="#C9A885"/>
<stop offset="0.63" stop-color="#9A7A5F"/>
<stop offset="0.86" stop-color="#C9A885"/>
<stop offset="1" stop-color="#C9A885"/>
</linearGradient>
<linearGradient id="paint1_linear_784_3045" x1="537.442" y1="41.9825" x2="537.442" y2="983.179" gradientUnits="userSpaceOnUse">
<stop stop-color="#E9CBA3"/>
<stop offset="0.15" stop-color="#EEDEBC"/>
<stop offset="0.39" stop-color="#C9A885"/>
<stop offset="0.63" stop-color="#9A7A5F"/>
<stop offset="0.86" stop-color="#C9A885"/>
<stop offset="1" stop-color="#C9A885"/>
</linearGradient>
<linearGradient id="paint2_linear_784_3045" x1="544.316" y1="83.4309" x2="544.316" y2="940.426" gradientUnits="userSpaceOnUse">
<stop stop-color="#E9CBA3"/>
<stop offset="0.15" stop-color="#EEDEBC"/>
<stop offset="0.39" stop-color="#C9A885"/>
<stop offset="0.63" stop-color="#9A7A5F"/>
<stop offset="0.86" stop-color="#C9A885"/>
<stop offset="1" stop-color="#C9A885"/>
</linearGradient>
<linearGradient id="paint3_linear_784_3045" x1="551.131" y1="124.129" x2="551.131" y2="897.775" gradientUnits="userSpaceOnUse">
<stop stop-color="#E9CBA3"/>
<stop offset="0.15" stop-color="#EEDEBC"/>
<stop offset="0.39" stop-color="#C9A885"/>
<stop offset="0.63" stop-color="#9A7A5F"/>
<stop offset="0.86" stop-color="#C9A885"/>
<stop offset="1" stop-color="#C9A885"/>
</linearGradient>
<linearGradient id="paint4_linear_784_3045" x1="557.851" y1="163.153" x2="557.851" y2="855.279" gradientUnits="userSpaceOnUse">
<stop stop-color="#E9CBA3"/>
<stop offset="0.15" stop-color="#EEDEBC"/>
<stop offset="0.39" stop-color="#C9A885"/>
<stop offset="0.63" stop-color="#9A7A5F"/>
<stop offset="0.86" stop-color="#C9A885"/>
<stop offset="1" stop-color="#C9A885"/>
</linearGradient>
<linearGradient id="paint5_linear_784_3045" x1="564.331" y1="199.381" x2="564.331" y2="813.009" gradientUnits="userSpaceOnUse">
<stop stop-color="#E9CBA3"/>
<stop offset="0.15" stop-color="#EEDEBC"/>
<stop offset="0.39" stop-color="#C9A885"/>
<stop offset="0.63" stop-color="#9A7A5F"/>
<stop offset="0.86" stop-color="#C9A885"/>
<stop offset="1" stop-color="#C9A885"/>
</linearGradient>
<linearGradient id="paint6_linear_784_3045" x1="569.008" y1="231.952" x2="569.008" y2="771.098" gradientUnits="userSpaceOnUse">
<stop stop-color="#E9CBA3"/>
<stop offset="0.15" stop-color="#EEDEBC"/>
<stop offset="0.39" stop-color="#C9A885"/>
<stop offset="0.63" stop-color="#9A7A5F"/>
<stop offset="0.86" stop-color="#C9A885"/>
<stop offset="1" stop-color="#C9A885"/>
</linearGradient>
<linearGradient id="paint7_linear_784_3045" x1="559.352" y1="261.307" x2="559.352" y2="729.784" gradientUnits="userSpaceOnUse">
<stop stop-color="#E9CBA3"/>
<stop offset="0.15" stop-color="#EEDEBC"/>
<stop offset="0.39" stop-color="#C9A885"/>
<stop offset="0.63" stop-color="#9A7A5F"/>
<stop offset="0.86" stop-color="#C9A885"/>
<stop offset="1" stop-color="#C9A885"/>
</linearGradient>
<linearGradient id="paint8_linear_784_3045" x1="549.961" y1="281.189" x2="549.961" y2="689.64" gradientUnits="userSpaceOnUse">
<stop stop-color="#E9CBA3"/>
<stop offset="0.15" stop-color="#EEDEBC"/>
<stop offset="0.39" stop-color="#C9A885"/>
<stop offset="0.63" stop-color="#9A7A5F"/>
<stop offset="0.86" stop-color="#C9A885"/>
<stop offset="1" stop-color="#C9A885"/>
</linearGradient>
<linearGradient id="paint9_linear_784_3045" x1="540.907" y1="295.173" x2="540.907" y2="651.85" gradientUnits="userSpaceOnUse">
<stop stop-color="#E9CBA3"/>
<stop offset="0.15" stop-color="#EEDEBC"/>
<stop offset="0.39" stop-color="#C9A885"/>
<stop offset="0.63" stop-color="#9A7A5F"/>
<stop offset="0.86" stop-color="#C9A885"/>
<stop offset="1" stop-color="#C9A885"/>
</linearGradient>
<linearGradient id="paint10_linear_784_3045" x1="532.981" y1="307.543" x2="532.981" y2="620.974" gradientUnits="userSpaceOnUse">
<stop stop-color="#E9CBA3"/>
<stop offset="0.15" stop-color="#EEDEBC"/>
<stop offset="0.39" stop-color="#C9A885"/>
<stop offset="0.63" stop-color="#9A7A5F"/>
<stop offset="0.86" stop-color="#C9A885"/>
<stop offset="1" stop-color="#C9A885"/>
</linearGradient>
<linearGradient id="paint11_linear_784_3045" x1="535.114" y1="319.185" x2="535.114" y2="619.494" gradientUnits="userSpaceOnUse">
<stop stop-color="#E9CBA3"/>
<stop offset="0.15" stop-color="#EEDEBC"/>
<stop offset="0.39" stop-color="#C9A885"/>
<stop offset="0.63" stop-color="#9A7A5F"/>
<stop offset="0.86" stop-color="#C9A885"/>
<stop offset="1" stop-color="#C9A885"/>
</linearGradient>
</defs>
</svg>
